<svg height="322.782406" viewBox="0 0 53.833573 56.044219" width="309.806229" xmlns="http://www.w3.org/2000/svg"><g stroke-width=".079855" transform="translate(132.53597 -113.4137)"><path d="m-108.24893 152.73603c0-.0406 1.56429-2.58114 2.03689-3.30806.0999-.15372.74475-1.18686 1.4329-2.29585l1.25118-2.01635h7.072793 7.0728l-.043-1.53722c-.046-1.64614-.16127-2.49583-.54411-4.01111-1.23012-4.86885-4.74158-9.16278-9.33777-11.41851-.47599-.23361-.912803-.44057-.970693-.45992-.0767-.0256-.0389-.14169.13926-.4277.13448-.2159 1.047473-1.68619 2.028863-3.26733s1.79369-2.88679 1.80513-2.90144c.0401-.0514 1.78199.87515 2.56101 1.36226 6.78042 4.23967 11.13714 11.26008 11.92487 19.21568.045.45484.0819 1.4161.0819 2.13613v1.30916h1.51725 1.51726v3.83306 3.83307h-14.77327c-8.125303 0-14.773273-.0206-14.773273-.0459zm.47519-7.42844c-.32723-.37907-.73871-.85983-.9144-1.06836-.30733-.36481-3.4344-3.96527-6.34851-7.3096-2.4967-2.8653-4.37077-5.02577-4.52786-5.21984l-.15371-.18988-.625.70894c-2.14147 2.42913-3.49235 5.09144-4.1483 8.17544-.10743.50509-.21758 1.13395-.24478 1.39747-.0272.26353-.0675.59592-.0896.73867l-.0402.25953h-3.83493-3.83494l.052-.65881c.4666-5.9078 2.87628-11.29615 7.01209-15.67993l.68586-.72698-.60832-.71042c-.33457-.39073-1.18371-1.37522-1.88699-2.18775-.70326-.81253-1.33104-1.53928-1.39507-1.61499-.1051-.1243-.0824-.16768.23348-.44692.33744-.29825 1.94651-1.69951 3.94338-3.43408.52705-.45781 1.07422-.93585 1.21593-1.0623l.25767-.22991.30935.33963c.17015.18679.53829.60913.8181.93854.27981.3294 1.13732 1.31762 1.90557 2.19603 1.62793 1.86136 2.72997 3.12875 3.67858 4.23052.37333.4336.96625 1.1145 1.31762 1.51311.35136.3986 1.30779 1.49732 2.1254 2.44159 1.66672 1.92494 6.92174 7.97493 7.24835 8.34487.11633.13176.56867.65282 1.0052 1.15791s1.00866 1.1626 1.27141 1.46114l.47772.54281-.14055.23792c-.58533.99089-4.05827 6.50676-4.10743 6.52359-.0342.0117-.32988-.28887-.65712-.66794zm.0896-14.85608c-.21284-.27058-.20933-.52837.0126-.92318.15233-.27103.16099-.32664.0599-.38466-.065-.0373-.4955-.30386-.95666-.59237-.46117-.28852-.87523-.52458-.92015-.52459-.0449-.00002-.14799.12315-.22907.2737-.19516.3624-.50458.49136-.8809.36716-.22803-.0753-.30054-.15286-.37498-.40132-.0836-.27903-.0726-.34161.11699-.66511l.20927-.3571-.51637-.30742c-.284-.16907-.517-.34264-.51776-.38569-.00091-.0431.13067-.2946.29209-.55899.46609-.76339 3.2939-5.31063 3.57651-5.75117.14087-.21961.60823-.97424 1.03857-1.67697s.93247-1.51127 1.11584-1.79675c.18338-.28548.6876-1.09402 1.12051-1.79675.4329-.70273.83011-1.32534.88268-1.38358.0782-.0866.17756-.0534.54603.18226.60067.38424.66586.40375.72515.21697.17495-.55122.91679-.76869 1.23635-.36242.2094.26619.20922.50883-.0006.92025-.0914.17915-.13632.35163-.0998.38328.10898.0945 1.771133 1.11759 1.852523 1.14028.0413.0115.18321-.12709.3153-.30802.1321-.18093.33493-.35274.45075-.38181.28193-.0708.61467.0992.751.38367.0985.20554.0921.27467-.0592.63967-.0933.22507-.16961.43406-.16961.46443 0 .0304.21518.17342.47818.31788.26301.14446.47862.30471.47914.35611.0009.0791-1.90909 3.20178-3.190823 5.21695-.20951.3294-1.3608 2.18005-2.55841 4.11256-1.19762 1.9325-2.22434 3.56415-2.2816 3.62589-.0885.0954-.18389.0603-.63461-.23337-.43042-.28044-.54404-.3242-.60237-.23204-.0395.0625-.0725.1353-.0731.16182-.0006.0265-.0893.14332-.19705.25953-.27564.29743-.76261.29787-.99621.00091z" fill="#014129"/><path d="m-108.96763 169.41937c-2.37155-.22727-4.09986-.56575-5.98916-1.17294-6.71924-2.15946-12.39991-7.21915-15.28841-13.61714-1.26861-2.80996-1.93585-5.41701-2.23558-8.73493l-.0487-.53903h3.83529c3.0148 0 3.83537.0214 3.83566.0998.002.3684.34998 2.33548.55183 3.11364 1.62 6.24542 6.59949 11.16925 12.85754 12.71384 1.73008.42702 2.2454.48329 4.39805.4803 1.70616-.002 2.08417-.0266 2.95466-.18959 2.93346-.54917 5.415343-1.62975 7.681293-3.34434.77281-.58478 2.30588-2.02476 2.84555-2.67278l.24993-.30012 4.50494.0206 4.50493.0206-.47654.87841c-1.1575 2.13364-2.48979 3.91928-4.28211 5.73922-4.26242 4.32812-9.77671 6.91885-15.906403 7.47314-.84051.076-3.32299.0954-3.99278.0312z" fill="#78cce8"/></g></svg>