<?xml version="1.0"?>
<svg xmlns="http://www.w3.org/2000/svg" width="99" height="99" viewBox="0 0 1090 1090"><circle cx="545" cy="545" r="540" fill="#fff"/><path fill="#b31b1b" d="m738.43 304.22h-163.17s-.10 109.33.10 112.22c.34 4.32 1.25 16.42 23.88 31.57l57.1 35.31s38.11-20.86 59.66-35.31c19.58-13.13 22.16-23.97 22.39-30.98.24-3.4.04-112.81.04-112.81m-67.5 108.67c-4.8 1.13-13.87 3.25-17.39 4.07-.54-3.23-2.61-15.39-4.62-27.23 1.39-.65 2.01-.93 3.24-1.5 2.03 2.66 15.09 19.83 18.77 24.66zm-17.12-31.29s-3.88 1.8-5.81 2.69c-.47-2.74-1.86-10.89-1.86-10.89h-22.87s-.92 8.11-1.24 10.95h-14.61l-6.23 20.67h-17.39c-.03-9.51-.05-24.17-.05-40.34l12.09 7.83-8.52 3.39 2.77 6.92s63.64-25.43 67.01-26.78c3.09 1.97 72.82 46.57 72.82 46.57l.08-.12v2.53h-58.37l-17.82-23.42zm-9.21 14.49c.79 4.66 1.63 9.59 2.37 13.98h-22.51c.48-4.19 1.04-9.17 1.59-13.98h18.55zm-17.82-6.39c.61-5.37 1.1-9.7 1.24-10.97h13.63c.20 1.16.94 5.48 1.87 10.97h-16.74zm-17.9 8.25c1.17-3.85 2.15-7.13 2.5-8.27h10.04c-.32 2.8-.64 5.61-.94 8.27h-11.6zm10.88 6.39c-.56 4.92-1 8.76-1.16 10.19h-14.71c.61-2.02 1.81-5.99 3.07-10.19h12.8zm26.02-55.31c0-6.41 5.22-11.63 11.64-11.63s11.64 5.22 11.64 11.63c0 1.77-.53 3.43-1.28 4.99l-9.88-6.32-11.62 4.64c-.32-1.07-.50-2.17-.50-3.31zm84.23 44.79-17.92-11.46 17.92-8.37v19.83zm-141.44-81.08 47.17 24.45 2.94-5.67-36.23-18.78h33.31l9.64 15.5 5.42-3.37-7.54-12.13h26.8l-7.39 11.69 5.4 3.41 9.55-15.1h33.82l-35.46 18.43 2.94 5.67 46.36-24.1h4.64c.01 9.66.03 20.24.04 30.84h-46.74v6.38h46.75c.01 5.36.01 10.66.01 15.81l-25.34 11.84-31.16-19.93c1.43-2.65 2.24-5.59 2.24-8.65 0-10.1-8.22-18.32-18.32-18.32s-18.33 8.22-18.33 18.32c0 1.99.41 3.91 1.03 5.77l-35.81 14.32-20.56-13.3v-5.86h47.86v-6.38h-47.86c0-10.6.01-21.15.02-30.84h4.8zm122.69 128.2c-.04.03-.09.06-.13.09h-59.86v7.45h48.21c-16.99 10.52-36.67 21.46-42.98 24.93-3.74-2.31-52.52-32.47-52.52-32.47-12.73-8.53-19.5-16.87-20.1-24.8-.02-.37-.04-1.65-.05-3.66h15.12l-2.22 7.37h26.63s.14-1.28.38-3.39h24.32c.65 3.8 1.08 6.38 1.16 6.8h-52.52l3 7.37h72.24c.15-.05 9.82-7.37 9.82-7.37h-31.81l30.19-7.05-2.84-3.73h52.67c-.01 1.85-.03 3.05-.05 3.38-.14 3.85-.44 12.86-18.66 25.08zm-196.66-136.72h-163.16s-.12 109.33.09 112.23c.33 4.31 1.25 16.41 23.88 31.56l57.07 35.31 2.08-1.24c.36-.19 36.06-19.62 57.61-34.07 19.56-13.1 22.15-23.94 22.4-30.96.23-3.5.03-112.83.03-112.83m-8.5 8.52c.02 11.48.04 24.25.06 36.81h-146.23c0-12.57.01-25.3.02-36.81h146.15zm-21.82 130.25c-4.4 2.88-9.18 5.86-14.12 8.86v-94.85h14.12v85.99zm-22.1-85.99v99.61c-4.96 2.92-9.78 5.71-14.12 8.18v-107.79h14.12zm-80.43 0h14.13v93.68c-6.36-3.94-11.63-7.2-14.13-8.75v-84.93zm22.11 0h14.12v107.34c-4.41-2.72-9.31-5.75-14.12-8.74v-98.6zm-43.81 59.14c-.10-1.79-.13-24.32-.13-51.05v-8.09h13.86v79.24c-8.58-6.89-13.24-13.64-13.73-20.1zm72.61 57.27c-.73-.45-3.23-1.99-6.7-4.14v-112.27h14.12v112.29c-3.13 1.75-5.8 3.23-7.42 4.12zm73.44-57.53c-.13 3.46-.52 11.13-13.84 21.51v-80.39h13.9c.02 10.6.02 20.84.02 29.73 0 16.29-.02 28-.08 29.15zm294.12-305.56-18.45-8.78s-29.96 31.73-38.13 40.39c1.52-11.79 7.11-55.14 7.11-55.14l-19.49-9.3-9.53 83.76 20 9.51 58.49-60.44m-72.8 47.78c.38-3.4 7.51-66.124 8.26-72.64 3.32 1.59 7.37 3.509 9.34 4.454-.37 2.859-7.83 60.686-7.83 60.686l3.51 2.07 1.42-1.44s38.38-40.63 40.86-43.26c1.88.89 5.21 2.48 8.32 3.96-4.53 4.68-48.34 49.94-50.74 52.42-2.43-1.16-10.72-5.1-13.14-6.25zm177.99 70.63c2.52-2.34 3.85-4.98 3.95-7.87.19-5.1-3.46-9.76-7.43-14.04l-5.15-5.53-18.56 17.22 5.14 5.54c3.1 3.34 12.53 13.48 22.05 4.68zm-8.91-19.97c.77.83 1.56 1.66 1.56 1.66 2.98 3.22 6.02 6.92 6.02 10.07v.17c-.06 1.46-.79 2.83-2.26 4.19-4.07 3.76-8.16 2.53-14.59-4.39 0 0-.77-.84-1.54-1.66 2.48-2.3 8.34-7.75 10.81-10.04zm-78.2 11.65 10.04-13.74s-20.06-14.65-23.59-17.23c2.03-2.78 7.17-9.82 9.2-12.6 3.46 2.52 21.46 15.66 21.46 15.66l10.02-13.75s-17.98-13.13-21.44-15.65c1.9-2.61 5.81-7.94 7.71-10.55 3.52 2.58 23.42 17.11 23.42 17.11l10.01-13.74-39.72-29.04-47.01 64.38 39.9 29.15zm8.26-86.14c3.53 2.58 27.67 20.22 31.19 22.8-1.32 1.82-2.46 3.38-3.79 5.19-3.52-2.57-23.42-17.09-23.42-17.09l-13.94 19.08s17.99 13.13 21.45 15.65c-1.32 1.82-2.47 3.39-3.8 5.21-3.46-2.53-21.45-15.67-21.45-15.67l-15.44 21.16s20.05 14.64 23.58 17.22c-1.32 1.82-2.47 3.39-3.8 5.2-3.53-2.58-27.82-20.33-31.36-22.92 2.8-3.82 37.98-52 40.78-55.83zm136.9 367.07 1.3 20.17s29.9-1.92 31.28-2c1.26.64 50.06 25.49 50.06 25.49l-1.3-21.9s-23.3-11.4-29.6-14.51c5.9-3.84 27.5-17.86 27.5-17.86l-1.5-23.68s-45.29 31.46-46.46 32.28c-1.4.10-31.28 2.01-31.28 2.01zm33.08 3.17s33.56-23.32 39.96-27.76c.3 4.41.6 9.43.7 11.24-2.4 1.54-32.7 21.25-32.7 21.25s32.6 16.01 35.2 17.26c.1 1.68.3 5.6.6 9.59-6.9-3.5-43.16-21.95-43.16-21.95l-27.44 1.75-.62-9.62 27.46-1.76zm-82.31-197.35c-2.66-4.32-4.25-9.68-4.58-15.48l-.23-3.97-17.79 8.66 1.19 3.7c2.06 6.33 3.29 10.14 7.43 16.8 5.51 8.89 12.3 14.5 19.61 16.21 5.91 1.38 11.93.20 17.86-3.49 13.88-8.63 11.32-21.98 9.44-31.74-1.33-6.95-2.01-11.3.90-13.1 5.67-3.52 9.51.79 11.32 3.66 2.48 3.99 4.18 8.68 4.91 13.55l.53 3.52 16.29-7.73-.49-2.09c-1.35-5.72-3.87-11.54-7.45-17.32-4.84-7.78-11.32-12.96-18.26-14.58-6.05-1.42-12.25-.21-18.41 3.63-13.43 8.34-11.04 21.37-9.3 30.89 1.37 7.4 2.02 12.04-1.46 14.21-4.31 2.66-9.34-1.87-11.51-5.33zm14.29 9.83c6.73-4.19 5.28-12.06 3.88-19.67-1.71-9.34-3.48-19 6.89-25.44 4.93-3.06 9.77-4.06 14.42-2.98 5.56 1.31 10.88 5.65 14.96 12.23 2.89 4.65 4.92 9.27 6.23 13.83-2.05.97-3.83 1.69-6.06 2.75-1.03-4.33-2.71-8.45-4.96-12.09-3.51-5.62-10.49-10.4-18.61-5.36-6.14 3.81-4.7 11.32-3.31 18.59 1.85 9.61 3.76 19.53-7.04 26.24-4.7 2.93-9.36 3.89-13.85 2.84-7.48-1.75-13.01-8.5-16.33-13.84-3.64-5.86-4.81-9.31-6.65-14.99 1.97-.95 3.94-1.91 6.6-3.2.66 3.65 2.53 9.96 5.05 14.04 4.06 6.54 12.03 11.22 18.78 7.05zm-227.69-248.71-19.39-5.68-22.46 76.5 19.4 5.7 22.45-76.52zm-35.29 67.23c1.34-4.54 18.15-61.8 19.48-66.35 2.7.79 6.55 1.93 9.25 2.71-1.33 4.55-18.14 61.81-19.47 66.36-2.7-.79-6.56-1.93-9.26-2.72zm343.76 270.11c-4.6 1.23-60.61 15.89-60.61 15.89l5.14 19.56 60.67-15.88c1 3.93 5.4 20.63 5.4 20.63l16.4-4.31-15.9-60.83-16.4 4.31s4.3 16.71 5.3 20.63zm7.3-18.49c1.2 4.44 12.1 46.17 13.3 50.6-2.2.57-4.1 1.07-6.3 1.64-1-3.93-5.4-20.64-5.4-20.64l-60.6 15.89c-.71-2.72-1.73-6.61-2.45-9.34 4.69-1.22 60.65-15.88 60.65-15.88s-4.4-16.71-5.4-20.63c2.2-.57 4.1-1.06 6.2-1.64zm-81.29-4.65 73.29-31.45-8-18.57-73.29 31.45 8 18.57zm66.29-34.22c-4.33 1.87-59.17 25.41-63.52 27.28-1.11-2.58-2.7-6.27-3.81-8.86 4.35-1.86 59.19-25.41 63.55-27.27 1.11 2.58 2.68 6.27 3.78 8.85zm-646.96-181.31-8.71-14.61s-21.07 12.53-24.83 14.76c-2.48-4.17-32.06-53.88-32.06-53.88l-17.38 10.33 40.78 68.51 42.2-25.11zm-67.44-46.48c2.48 4.17 32.06 53.88 32.06 53.88s21.08-12.54 24.83-14.77c1.16 1.93 2.15 3.6 3.3 5.54-3.76 2.23-29.36 17.47-33.12 19.7-2.42-4.08-32.93-55.35-35.36-59.42 2.41-1.44 5.87-3.49 8.29-4.93zm563.36 130.93s19.41-18.02 22.66-21.03c.72.78 1.46 1.58 1.46 1.58 1.8 1.95 2.6 3.32 2.6 4.89 0 1.34-.58 2.84-1.62 4.95 0 .01-11.74 24.01-11.74 24.01l15.23 16.43 14.86-32.14c.55-1.3 1.63-4.08 1.8-7.09 7.12 2.98 15.17 1.81 21.14-3.74 4.87-4.53 7.44-9.48 7.63-14.71.38-10.2-8.22-19.44-15.81-27.6l-13.52-14.58-58.43 54.21 13.74 14.82zm44.41-61.56c2.51 2.71 9.93 10.71 9.93 10.71 6.76 7.27 14.41 15.49 14.41 23.38 0 .14-.01.29-.01.44-.14 3.82-2.08 7.43-5.95 11.02-5.65 5.25-13.54 5.4-19.64.39l-1.78-1.5-3.57 3.53 1.44 1.79c1.3 1.63 1.1 4.29-.62 8.34.03-.05-8.01 17.32-11.51 24.9-2.68-2.88-5.97-6.42-7.4-7.98 1.36-2.8 10.13-20.74 10.13-20.74 1.35-2.74 2.19-5.08 2.19-7.37 0-2.69-1.16-5.31-4.03-8.39l-5.06-5.47s-19.42 18.03-22.65 21.04c-1.92-2.06-4.65-5-6.56-7.06 3.47-3.23 47.2-43.8 50.68-47.03zm-766.54 124.27c-3.07-1.55-6.01-1.88-8.76-.97-4.85 1.59-7.95 6.62-10.59 11.84l-3.4 6.74 22.58 11.44 3.42-6.73c2.05-4.07 8.3-16.43-3.25-22.32zm-15.66 15.28c.51-1 1.03-2.03 1.03-2.03 1.98-3.91 4.4-8.05 7.35-9.14.06-.03.11-.04.17-.06 1.39-.45 2.92-.23 4.71.67 4.93 2.51 5.2 6.77.93 15.2 0 0-.52 1.02-1.02 2.02-3.01-1.52-10.15-5.13-13.17-6.66zm55.92 28.32s-23.62-11.96-27.58-13.96c.49-.96.98-1.93.98-1.93 1.2-2.36 2.22-3.58 3.69-4.13 1.26-.46 2.86-.43 5.21-.19l26.59 2.69 10.13-19.98-35.31-2.8c-1.4-.07-4.38-.11-7.26.77.32-7.72-3.56-14.86-10.83-18.54-5.94-3-11.47-3.69-16.45-2.06-9.7 3.18-15.39 14.45-20.411 24.4l-8.992 17.73 71.103 36.03 9.13-18.03zm-73.124-20.32c1.672-3.29 6.604-13.02 6.604-13.02 4.48-8.87 9.54-18.89 16.93-21.62.14-.06.28-.10.42-.15 3.64-1.19 7.69-.62 12.39 1.76 6.89 3.48 9.77 10.83 7.18 18.29l-.79 2.19 4.55 2.13 1.19-1.98c1.07-1.78 3.63-2.51 8.03-2.31-.06 0 19.02 1.52 27.34 2.17-1.77 3.52-3.95 7.83-4.92 9.71-3.09-.31-22.97-2.31-22.97-2.31-3.03-.32-5.52-.30-7.66.50-2.53.93-4.58 2.93-6.48 6.68l-3.38 6.64s23.64 11.97 27.59 13.96c-1.27 2.52-3.08 6.09-4.36 8.6-4.22-2.13-57.433-29.1-61.664-31.24zm198.57-132.78-11.02-12.98s-18.93 16.06-22.27 18.9c-2.24-2.64-7.87-9.28-10.1-11.91 3.27-2.78 20.25-17.17 20.25-17.17l-11-13s-16.98 14.4-20.24 17.18c-2.09-2.45-6.36-7.49-8.45-9.95 3.33-2.83 22.11-18.76 22.11-18.76l-10.99-12.98-37.55 31.82 51.54 60.82 37.72-31.97zm-52.32-53.21c1.45 1.72 2.7 3.19 4.15 4.9-3.33 2.83-22.11 18.77-22.11 18.77l15.28 18.01s16.97-14.4 20.24-17.17c1.46 1.72 2.72 3.21 4.17 4.93-3.27 2.76-20.25 17.16-20.25 17.16l16.93 19.98s18.95-16.07 22.28-18.9c1.46 1.72 2.72 3.2 4.18 4.92-3.34 2.83-26.31 22.3-29.65 25.13-3.06-3.62-41.65-49.13-44.72-52.75 3.34-2.83 26.16-22.16 29.5-24.98zm270.18-25.17c11.2-.77 19.49-4.14 24.62-10.04 4.8-5.51 6.89-13.23 6.22-22.948l-3.46-50.082-20.15 1.39 3.13 45.512c.50 7.336-.59 12.598-3.24 15.638-1.86 2.14-4.57 3.3-8.28 3.56-3.72.25-6.57-.53-8.72-2.4-3.04-2.65-4.84-7.716-5.34-15.044l-3.13-45.506-20.18 1.38 3.46 50.087c1.4 20.383 13.2 29.953 35.07 28.453zm-23.26-74.28c.32 4.64 2.76 40.23 2.76 40.23.62 8.91 2.95 15.01 7.15 18.67 3.22 2.8 7.44 4.04 12.55 3.68 5.11-.35 9.11-2.15 11.91-5.35 3.12-3.58 4.66-8.75 4.66-15.727 0-1.195-2.9-43.993-2.9-43.993l9.6-.660s3.2 46.895 3.2 47.895c0 6.795-1.69 12.175-5.04 16.025-4.17 4.79-11.23 7.57-20.99 8.24-18.89 1.3-28.24-6.19-29.44-23.542 0 0-2.42-35.038-3.09-44.818 2.8-.190 6.83-.460 9.63-.650zm-391.63 388.42c9.621 2.69 18.451 2.18 24.861-1.43 4.95-2.78 8.31-7.25 10-13.28 4.66-16.72-8.4-26.79-22.19-30.64-14.003-3.91-30.085-.84-34.468 14.82-4.363 15.67 7.805 26.62 21.797 30.53zm-16.699-29.1c3.625-12.99 17.32-14.13 27.95-11.16 4.87 1.37 19.26 6.46 19.26 18.99 0 1.59-.23 3.3-.74 5.14-1.3 4.63-3.82 8.02-7.5 10.1-5.11 2.87-12.71 3.21-20.845.94-10.625-2.97-21.746-11.04-18.125-24.01zm332.88-286.18s-22.9 8.77-26.97 10.33c-1.74-4.53-22.43-58.56-22.43-58.56l-18.88 7.24 28.5 74.43 45.87-17.56-6.09-15.88zm-36.73 26.62c-1.7-4.43-23.03-60.144-24.72-64.56 2.62-1.01 6.38-2.45 9-3.46 1.74 4.532 22.43 58.57 22.43 58.57s22.9-8.79 26.97-10.35c.81 2.1 1.5 3.91 2.31 6.01-4.09 1.56-31.91 12.23-35.99 13.79zm266.82-98.89-19.43-2.48s-4.28 33.58-6.04 47.347c-4.91-13.707-18.07-50.417-18.07-50.417l-22.42-2.86-10.1 79.06 19.42 2.5s4.29-33.63 6.04-47.38c4.93 13.656 18.19 50.46 18.19 50.46l22.31 2.85 10.1-79.08zm-28.54 71.4c-1.04-2.89-21.12-58.62-21.12-58.62l-4.53-1.01s-6.42 50.7-7.03 55.46c-2.69-.34-6.23-.80-8.92-1.15.60-4.69 8.16-63.88 8.76-68.58 3.44.44 11.71 1.5 13.96 1.79 1.04 2.89 20.97 58.73 20.97 58.73l4.53.62s6.46-50.44 7.07-55.2c2.69.34 6.24.79 8.93 1.14-.60 4.69-8.16 63.88-8.76 68.58-3.43-.43-11.61-1.48-13.86-1.76zm-438.64 79.96-12.2 15.32s26.48 21.09 37.33 29.74c-14.26-2.92-52.46-10.73-52.46-10.73l-14.09 17.68 62.34 49.66 12.22-15.29s-26.53-21.12-37.38-29.76c14.23 2.88 52.58 10.66 52.58 10.66l14.02-17.61-62.36-49.67zm46.22 61.44c-3.01-.60-61.06-12.36-61.06-12.36l-3.22 3.34s40 31.81 43.76 34.81c-1.69 2.12-3.92 4.9-5.61 7.02-3.7-2.95-50.37-40.13-54.07-43.08 2.16-2.71 7.35-9.24 8.76-11 3.02.61 61.08 12.56 61.08 12.56l2.89-3.55s-39.76-31.72-43.51-34.7c1.68-2.12 3.9-4.93 5.6-7.05 3.7 2.96 50.37 40.14 54.08 43.09-2.16 2.71-7.29 9.16-8.7 10.92zm-129.49 189.74c12.45 3.49 23.79 2.65 32.79-2.41 8.38-4.72 14.45-13.06 17.54-24.12 6.4-22.89-5.11-42.04-29.29-48.8-23.95-6.69-43.529 3.77-49.954 26.65l-.004.01c-6.477 23.24 4.601 41.89 28.918 48.67zm-23.821-47.25c5.614-20.09 22.258-28.9 43.441-22.98 21.41 5.97 31.23 22.17 25.62 42.27-2.74 9.83-7.81 16.87-15.05 20.94-7.75 4.36-17.7 5.03-28.768 1.93-17.372-4.84-26.872-16.07-26.872-30.97 0-3.54.536-7.28 1.629-11.19zm17.559 136.22c24.902 1.61 40.822-13.67 42.572-40.83 0 0 .02-2.1.02-4.95 0-5.82-1.59-14.83-1.59-14.83l-18.94-.32 1.68 3.77c1.4 3.17 2.19 9.72 1.84 15.24-.89 13.71-10.83 21.96-25.316 21.04-7.368-.47-13.696-3.31-17.817-8-3.687-4.19-5.429-9.67-5.035-15.82.266-4.17 1.008-9.15 4.539-14.52l2.266-3.45-18.508-2.78-.840 1.78c-2.379 5.06-4.027 11.63-4.414 17.57-.867 13.5 2.418 24.89 9.492 32.93 6.86 7.8 17.25 12.35 30.051 13.17zm-34.27-45.76c.239-3.65 1.352-8.98 3.313-13.85 1.977.30 3.781.70 6.523 1.12-2.433 4.96-3.179 9.55-3.425 13.46-.047.69-.067 1.38-.067 2.06 0 6.74 2.192 12.8 6.406 17.58 5.055 5.75 12.672 9.22 21.446 9.79 17.426 1.11 29.846-9.32 30.926-25.98.07-1.03.10-2.09.10-3.14 0-3.95-.57-7.64-1.36-10.83 2.65.04 4.56.06 6.63.09 1.07 5.45 1.07 14.29 1.07 14.29-1.56 24.22-15.03 37.3-36.956 35.89-11.527-.74-20.422-4.57-26.418-11.38-5.469-6.21-8.309-14.9-8.309-25.27 0-1.25.039-2.53.121-3.83zm757.63 447.48 11.59 16.58 16.51-11.58-11.59-16.56-16.51 11.56zm12.89 9.21c-1.62-2.3-3.92-5.6-5.52-7.9 2.28-1.61 5.55-3.89 7.85-5.51 1.61 2.31 3.91 5.6 5.52 7.91-2.29 1.6-5.55 3.89-7.85 5.5zm-122.88 46.04 7.1 18.9 18.88-7.1-7.1-18.88-18.88 7.08zm10.19 12.1c-.98-2.6-2.4-6.4-3.38-9 2.62-1 6.35-2.4 8.97-3.4.99 2.7 2.4 6.4 3.4 9.1-2.63.9-6.36 2.3-8.99 3.3zm57.83-96.79c-10.36-3.13-22.33-.93-36.63 6.71l-20.22 10.82 37.63 70.26 20.22-10.79c14.28-7.64 22.74-16.39 25.88-26.76 2.73-9.01 1.18-19.06-4.61-29.86-5.77-10.8-13.27-17.65-22.27-20.38zm21.82 48.7c-2.68 8.84-10.52 16.78-23.31 23.63 0 0-12.03 6.43-15.56 8.33-2.23-4.18-30.41-56.78-32.64-60.96 3.53-1.88 15.56-8.32 15.56-8.32 12.8-6.87 23.77-8.99 32.59-6.31 7.62 2.3 14.06 8.29 19.16 17.81 3.51 6.56 5.27 12.74 5.27 18.43 0 2.56-.36 5.03-1.07 7.39zm223.62-328.17c-8.1-2.12-15.12-1.5-20.84 1.84-7.66 4.49-10.74 12.6-11.9 17.05 0 0-.31 2.11-.60 4.08-3.04-.86-7.22-2.03-9.93-2.79 1.09-4.16 7.26-27.74 7.26-27.74l-15.85-4.12-12.12 46.3s43.81 12.38 44.52 12.38c-1.18-7.91 1.17-16.09 1.17-16.09 1.33-5.11 3.67-8.86 6.59-10.58 2-1.18 4.3-1.42 7-.72 9.4 2.46 7.5 12.41 6.8 15.41-1.5 5.4-4.5 9.39-6.6 12.3l-2.7 3.45 18.5 5.49s1.7-2.89 3.8-7.57c3.8-8.81 8.7-23.72 1.6-36.46-3.5-6.07-9.3-10.3-16.7-12.23zm13.9 36.24s-3.1 9.8-5.2 13.69c-2.1-.59-4.5-1.2-7.3-2 2.2-2.99 4.5-6.56 5.8-11.57.5-2.02.8-4.2.8-6.37 0-6.66-2.9-13.27-11.4-15.5-4-1.05-7.7-.62-10.94 1.27-4.17 2.44-7.39 7.35-9.07 13.81 0 .01-1.54 6.16-1.54 10.53-4.73-1.33-28.59-8.04-32.6-9.17 1.08-4.13 8.37-31.96 9.47-36.16 2.04.52 3.57.92 5.61 1.46-1.1 4.22-7.22 27.62-7.22 27.62s20.93 5.86 20.93 5.84c0-3.96 1.14-9.47 1.14-9.47.95-3.65 3.44-10.3 9.45-13.81 4.46-2.61 10.07-3.05 16.77-1.29 6 1.57 10.7 4.95 13.5 9.78 2 3.42 3.1 7.47 3.1 11.98 0 2.94-.5 6.08-1.3 9.36zm-40.31 46.16c-14.09-6.77-26.88-2.58-33.39 10.95-1.45 3.02-2.18 5.97-2.18 8.88 0 .93.64 1.83.78 2.76-4.04-3.05-8.16-7.41-8.16-13.11 0-1.83.43-3.79 1.42-5.86 2.11-4.37 4.94-7.17 7.67-9.55l2.59-2.23-14.65-10.12-1.56 1.54c-4.02 3.99-7.2 8.46-9.7 13.66-9.11 18.99.43 37 26.19 49.36 22.33 10.7 37.7 7.71 45.7-8.93 7.5-15.66 2.1-29.26-14.71-37.35zm9.92 35.06c-6.65 13.85-18.92 15.9-38.62 6.45-10.82-5.2-26.57-15.41-26.57-30.71 0-3.58.87-7.45 2.86-11.59 2.01-4.4 6.78-10.41 7.25-10.41.15.16 3.41 2.23 5.46 3.64-2.34 2.3-4.71 4.97-6.6 8.9-1.31 2.74-1.95 5.5-1.95 8.19 0 8.01 5.65 15.56 16.23 21.16l.93.49 4.31-1.56-1.43-2.68c-2.63-4.59-2.76-8.81-.42-13.71 5.25-10.9 14.85-13.98 26.34-8.46 9.92 4.75 20.1 13.87 12.21 30.29zm-369.98 205.27-12.31 84.63 20.56-4.7s2.1-15.2 2.49-18.1c2.94-.7 22.81-5.3 25.76-5.9 1.63 2.4 10.02 15.2 10.02 15.2l21.64-5-48.27-70.71-19.89 4.58zm48.91 65.13c-1.63-2.5-10.02-15.2-10.02-15.2l-32.88 7.6s-2.09 15.1-2.49 18c-1.98.5-5.93 1.4-9.49 2.2.98-6.7 10.21-70.14 10.68-73.39 2.47-.57 10.38-2.39 12.84-2.96 1.85 2.71 38.01 55.65 41.86 61.35-3.77.8-8.42 1.9-10.5 2.4zm171.56-187.35-2.93 31.23 17.41 2.07s.75-8.53 1.18-13.3c6.5 6.33 39.08 38.03 39.08 38.03l14.05-14.45-57.1-55.59-11.69 12.01zm61.32 43.68c-1.95 2.01-4.73 4.86-6.68 6.87-3.45-3.36-43.27-42.11-43.27-42.11s-1.34 15.21-1.67 18.96c-2.38-.29-4.6-.55-6.89-.82.39-4.07 2.13-22.67 2.28-24.24.88-.90 4.55-4.67 6.7-6.87 3.39 3.3 46.14 44.91 49.53 48.21zm73.95-147.37c-5.14-2.45-10.11-3.04-14.01-1.66-2.86 1.01-5.1 3.07-6.48 5.96-.83 1.71-1.24 3.47-1.24 5.21 0 1.2.20 2.4.61 3.56 1.72 4.91 6.52 8.07 10.24 9.86 4.74 2.28 9.39 2.82 13.1 1.52 2.96-1.04 5.31-3.22 6.8-6.33 3.2-6.7-.42-13.98-9.02-18.12zm4.25 15.84c-.89 1.85-2.12 3.03-3.78 3.62-2.37.83-5.6.37-9.06-1.3h-.01c-3.98-1.91-6.66-4.34-7.53-6.84-.54-1.51-.40-3.06.41-4.72.79-1.66 1.92-2.73 3.47-3.28 2.54-.89 6.16-.37 9.96 1.45 1.6.77 9.46 4.94 6.54 11.07zm-72.06 39.92s.01 0 .01.01l-.01-.01c-2.82-2.03-6.03-2.89-9.05-2.4-2.98.48-5.61 2.18-7.58 4.94-3.91 5.45-4.64 13.29 1.53 17.72 7 5.03 15.05-.32 18.94-2.89l.81-.55.27-.94c.34-1.17.51-2.5.51-3.88 0-4.4-1.74-9.36-5.43-12zm-.05 13.51c-4.86 3.11-8.83 4.71-11.96 2.45-4.04-2.9-2.11-7.87-.33-10.34 1.14-1.58 2.57-2.55 4.13-2.8 1.65-.26 3.42.24 5.12 1.46l.01.01c2.12 1.52 3.23 4.81 3.23 7.69 0 .55-.12 1.03-.20 1.53zm8.79 8.76-.86.63-.19 1.05c-.27 1.56-.51 3.31-.51 5.15 0 4.24 1.24 8.87 6 12.29 5.99 4.32 14.27 2.75 18.85-3.57 4.57-6.36 3.55-13.8-2.45-18.11-5.78-4.17-12.79-3.31-20.84 2.56zm19 12.45c-2.48 3.44-7.46 5.27-11.46 2.38h-.01c-2.6-1.86-3.8-4.29-3.8-7.94 0-.89.16-2.16.30-3.2 5.65-3.84 10.11-4.56 13.72-1.96 4.36 3.13 3.4 7.74 1.25 10.72zm10.01-27.48c-11.4-8.39-21.23-2.65-21.23-2.92 0-7.76-4.62-14-9.56-17.56-11.78-8.47-25.3-.82-33.48 10.5-9.46 13.14-8.4 26.28 2.75 34.32 10.58 7.04 19.93 1.99 19.9 2.29-.07.61-.15 1.23-.15 1.81 0 7.83 2.87 13.73 8.68 17.92 12.23 8.8 25.83 5.32 36.36-9.31 10.29-14.31 9.07-28.16-3.27-37.05zm-1.02 33.97c-5.13 7.12-15.72 17.64-28.98 8.09-5.67-4.08-7.52-10.01-5.98-19.22l.17-1.58-2.65-2.15-1.62.87c-6.46 3.78-13.15 3.8-18.35.06-12.44-8.95-5.23-21.81-1.55-26.93 6.64-9.2 17.29-15.64 26.1-9.3 4.54 3.27 8.74 9.44 6.9 16.91l-.46 1.91 3.07 1.85 1.48-.68c9-5 14.08-3.6 19.8.50 13.42 9.66 7.06 22.74 2.07 29.67zm-191.63 99.23c-6.73-2.04-14.23-1.25-20.56 2.16l-9.63 5.14 26.55 49.6 9.64-5.17c6.34-3.39 11.16-9.21 13.19-15.94 2.13-7.03 1.23-14.51-2.59-21.64s-9.56-12.03-16.6-14.15zm14.13 34.25c-1.63 5.41-5.51 10.07-10.63 12.82 0 0-2.83 1.52-4.97 2.66-2.13-3.95-19.44-36.3-21.56-40.26 2.16-1.15 4.97-2.66 4.97-2.66 5.1-2.74 11.13-3.38 16.53-1.74 5.67 1.7 10.33 5.71 13.47 11.58 2.05 3.81 3.09 7.73 3.09 11.56 0 2.05-.31 4.07-.90 6.04zm-487.89-87.36s-21.57 25.98-30.46 36.68c3.23-14.23 11.84-52.16 11.84-52.16l-17.34-14.4-50.95 61.33 15.04 12.47s21.62-26.04 30.49-36.71c-3.2 14.2-11.78 52.25-11.78 52.25l17.25 14.33 50.95-61.34-15.04-12.45zm-36.6 66.35c-2.66-2.21-8.95-7.44-10.68-8.88.67-3 13.69-61.02 13.69-61.02l-3.44-2.74s-32.47 39.08-35.54 42.77c-2.08-1.73-4.8-3.99-6.89-5.72 3.03-3.65 41.16-49.55 44.19-53.2 2.67 2.22 9.03 7.51 10.77 8.96-.68 2.99-13.78 60.86-13.78 60.86l3.4 2.93s32.52-39.18 35.58-42.87c2.08 1.73 4.8 3.99 6.89 5.72-3.03 3.64-41.16 49.55-44.19 53.19zm-83.24-190.32c3.2-9.15 2.28-19.39-2.65-29.61-5.01-10.35-12.44-17.5-21.51-20.67-9.64-3.36-20.82-2.2-32.3 3.34-22.973 11.11-30.746 31.46-20.285 53.11 4.887 10.14 12.295 17.18 21.415 20.37 9.89 3.45 21.21 2.32 32.76-3.24 11.36-5.48 19.17-13.54 22.57-23.3zm-53.58 21.54c-7.78-2.71-14.138-8.82-18.4-17.68-9.179-18.99-2.519-36.2 17.82-46.03 10.2-4.92 19.97-6 28.26-3.11 7.83 2.73 14.04 8.77 18.48 17.97 2.66 5.5 4 10.96 4 16.17 0 3.25-.52 6.4-1.57 9.4-2.94 8.41-9.81 15.42-19.88 20.27-10.25 4.95-20.18 6-28.71 3.01zm106.72 37.94-35.83 28.18c-12.82 10.06-18.68 6-22.36 1.33-2.28-2.9-3.23-5.68-2.9-8.48.48-4.01 3.67-8.34 9.47-12.91l35.84-28.19-12.46-15.86-39.45 31.04c-7.68 6.03-12.01 12.78-12.87 20.04-.93 7.75 2.1 16.12 9.02 24.89 6.9 8.78 14.32 13.7 22.06 14.63 7.26.87 14.82-1.75 22.49-7.79l39.45-31.01-12.46-15.87zm-30.26 42.72c-6.52 5.14-12.78 7.39-18.59 6.69-6.3-.75-12.53-5.01-18.54-12.64-5.35-6.79-8.05-13.13-8.05-18.89 0-.70.04-1.41.12-2.1.70-5.82 4.36-11.38 10.9-16.51 0 0 27.59-21.71 35.29-27.78 1.73 2.21 4.19 5.34 5.93 7.54-3.67 2.88-31.7 24.93-31.7 24.93-7.04 5.54-10.78 10.91-11.44 16.44-.07.57-.10 1.14-.10 1.72 0 3.62 1.37 7.21 4.1 10.66 7.4 9.41 17.42 9.25 29.77-.44 0 0 24.51-19.28 31.69-24.92 1.72 2.21 4.19 5.35 5.92 7.55-3.71 2.92-35.3 27.75-35.3 27.75zm-36.09-126.71c-2.66-5.52-6.75-9.27-12.13-11.16-6.91-2.41-15.8-1.42-24.36 2.71-9.03 4.36-15.34 10.59-17.76 17.55-.75 2.17-1.133 4.37-1.133 6.6 0 3.25.805 6.55 2.413 9.88 2.7 5.6 6.78 9.38 12.12 11.25 6.95 2.42 15.74 1.36 24.76-3 8.56-4.12 14.85-10.46 17.27-17.36 1.88-5.4 1.48-10.94-1.18-16.47zm-3.82 14.72c-1.95 5.6-7.27 10.83-14.57 14.35-7.63 3.69-15.18 4.7-20.72 2.76-3.96-1.38-7.02-4.26-9.09-8.55h-.01c-2.07-4.29-2.43-8.48-1.04-12.44 1.93-5.54 7.41-10.84 15.06-14.53 7.31-3.52 14.72-4.43 20.32-2.47 4.01 1.4 7.08 4.24 9.1 8.46 2.04 4.22 2.36 8.4.95 12.42zm-53.688-58.2 16.478-4.35s-5.34-20.16-6.42-24.24c3.11-.84 9.49-2.52 12.61-3.34 1.09 4.14 6.74 25.47 6.74 25.47l16.44-4.36-11.89-44.97-77.067 20.39 5.16 19.49s27.242-7.2 31.563-8.34c1.074 4.09 6.386 24.25 6.386 24.25zm-36.644-31.64c4.582-1.22 62.262-16.48 66.832-17.69 1.11 4.17 8.09 30.59 9.2 34.76-2.17.57-4.04 1.07-6.22 1.65-1.1-4.14-6.75-25.48-6.75-25.48l-22.828 6.04s5.328 20.15 6.418 24.24c-2.18.58-4.06 1.08-6.238 1.65-1.078-4.09-6.395-24.25-6.395-24.25s-27.246 7.2-31.562 8.34c-.719-2.7-1.739-6.56-2.457-9.26zm326.22 367.15 47.3 13.8 4.78-16.3s-23.74-6.9-27.93-8.2c.97-3.3 3.4-11.64 4.37-14.95 4.11 1.2 25.41 7.45 25.41 7.45l4.75-16.37s-21.29-6.21-25.41-7.42c.91-3.09 2.77-9.43 3.67-12.52 4.18 1.23 27.74 8.1 27.74 8.1l4.8-16.35-47.11-13.76-22.37 76.52zm62.91-59.16c-.63 2.15-1.18 4.03-1.81 6.19-4.19-1.22-27.75-8.1-27.75-8.1l-6.64 22.68s21.31 6.21 25.41 7.41c-.62 2.16-1.16 4.03-1.8 6.19-4.11-1.2-25.4-7.42-25.4-7.42l-7.32 25.11s23.72 7 27.92 8.2c-.63 2.2-1.18 4-1.81 6.2-4.19-1.3-32.95-9.7-37.14-10.9 1.33-4.5 18.06-61.81 19.39-66.36 4.19 1.23 32.76 9.57 36.95 10.8zm58.99 15.98-10.89-.85-4.51 56.03 10.9.9c7.16.6 14.35-1.7 19.7-6.2 5.6-4.8 8.9-11.6 9.55-19.7 1.47-18.17-11.66-29.11-24.75-30.18zm19.48 29.78c-.54 6.7-3.2 12.2-7.7 16-4.3 3.7-10.08 5.5-15.86 5 0 0-3.2-.2-5.62-.4.36-4.5 3.3-41.07 3.65-45.54 2.45.18 5.63.43 5.63.43 10.22.84 20 8.68 20 22.21 0 .7-.03 1.5-.10 2.3zm-21.39-41.69-22.87-1.83-6.39 79.42 22.85 1.9c30.1 2.4 46.43-9.8 48.55-36.1 2.11-26.37-12.07-40.97-42.14-43.39zm36.87 42.99c-1.87 23.2-15.88 33.4-42.85 31.2 0 0-12.3-1-17.58-1.4.37-4.7 5.16-64.21 5.53-68.93 4 .32 17.61 1.41 17.61 1.41 25.17 2.02 37.47 12.91 37.47 33.22 0 1.4-.06 2.9-.18 4.5zm95.99-35.79-4.29 37.89 28.38-6.6-20.35-32.26-3.74.97zm4.15 9.59c3.98 6.31 9.16 14.53 11.5 18.2-3.95.9-9.92 2.3-13.87 3.2.48-4.33 1.55-13.98 2.37-21.4zm-296.43-66.34-20.37-10.51-36.56 70.88 20.42 10.51c26.82 13.76 46.56 8.89 58.68-14.59 12.12-23.51 4.66-42.45-22.17-56.29zm17.47 53.86c-10.65 20.66-27.52 24.68-51.56 12.31 0 0-10.99-5.65-15.71-8.09 2.18-4.2 29.53-57.25 31.71-61.46 3.56 1.83 15.67 8.08 15.67 8.08 16.6 8.57 24.84 18.89 24.84 31.27 0 5.54-1.65 11.5-4.95 17.89zm-20.28-42.11-9.71-5.02-25.81 50.02 9.74 5c6.39 3.3 13.9 3.96 20.61 1.81 6.99-2.24 12.64-7.2 16.34-14.39 3.71-7.2 4.5-14.7 2.26-21.7-2.14-6.7-7.04-12.42-13.43-15.72zm6.47 35c-3.05 5.9-7.63 9.98-13.25 11.78-5.38 1.72-11.42 1.19-16.58-1.48 0 0-2.86-1.47-5.03-2.59 2.06-3.99 18.9-36.6 20.95-40.6 2.18 1.13 5.02 2.59 5.02 2.59 5.16 2.66 9.1 7.26 10.81 12.63.66 2.07.99 4.2.99 6.37 0 3.73-.98 7.55-2.91 11.3zm153.88-292.31c.05-.01-9.49.89-9.49.89l-27.52 2.54-24.37.81-.06 8.48 20.53-.59 27.76-2.21c25.72-2.86 34.96-1.79 35.05-1.79l1.79.23v-8.42l-1.4-.15c-.45-.06-10.9-1.25-22.29.21m0 27.76c.05-.02-11.28 1.05-11.28 1.05l-25.73 2.37c-.01 0-24.37.83-24.37.83l-.06 8.48 20.53-.59 27.76-2.2c25.73-2.87 34.97-1.83 35.06-1.82l1.78.22v-8.4l-1.4-.16c-.45-.06-10.9-1.24-22.29.22zm0 15.82c.07 0-17.15 1.59-17.15 1.59l-19.86 1.82c-.01 0-24.37.82-24.37.82l-.06 8.47 20.53-.59 27.76-2.19c25.73-2.85 34.97-1.81 35.05-1.8l1.79.22v-8.43l-1.41-.16c-.44-.05-10.89-1.21-22.28.25zm0-59.54c.06-.01-14.06 1.3-14.06 1.3l-22.94 2.08c-.01 0-24.37.82-24.37.82l-.07 8.5 20.53-.60 27.76-2.21c25.72-2.85 34.97-1.8 35.05-1.79l1.79.21v-8.41l-1.4-.16c-.45-.06-10.9-1.23-22.29.26zm0-71.19c.05-.01-10.96 1.02-10.96 1.02l-26.05 2.39-24.37.83-.06 8.48 20.53-.60 27.76-2.23c25.72-2.82 34.97-1.76 35.05-1.75l1.79.21v-8.42l-1.41-.16c-.44-.06-10.89-1.22-22.28.23zm0-15.83c.06-.01-13.04 1.22-13.04 1.22l-23.97 2.22-24.37.82-.06 8.49 20.54-.62 27.75-2.21c25.73-2.82 34.97-1.78 35.06-1.77l1.78.21v-8.43l-1.41-.15c-.44-.06-10.89-1.22-22.28.22zm0 43.55c.05-.01-10.25.94-10.25.94l-26.75 2.44c-.01 0-24.37.84-24.37.84l-.07 8.49 20.52-.58c.01 0 27.77-2.23 27.77-2.23 25.72-2.84 34.96-1.77 35.05-1.76l1.79.23v-8.45l-1.4-.16c-.45-.05-10.9-1.24-22.29.24zm0 15.82c.07-.01-19.47 1.8-19.47 1.8l-17.56 1.62c-.03 0-24.35.79-24.35.79l-.06 8.48 20.52-.57 27.77-2.22c25.73-2.85 34.97-1.82 35.06-1.81l1.78.22v-8.41l-1.4-.16c-.45-.05-10.9-1.24-22.29.26zm96.55-33.65c.02 0 27.8 2.23 27.8 2.23l20.54.60-.08-8.48-24.37-.83-37.1-3.42c-11.29-1.44-21.8-.28-22.24-.22l-1.42.16v8.42l1.79-.21c.09-.01 9.39-1.07 35.08 1.75zm0-15.82c.02.02 27.8 2.23 27.8 2.23l20.54.62-.08-8.49-24.36-.82-37.11-3.45c-11.29-1.43-21.81-.27-22.24-.21l-1.42.15v8.43l1.79-.21c.09-.01 9.39-1.05 35.08 1.75zm0 87c.02.01 27.8 2.22 27.8 2.22l20.54.60-.08-8.5-24.36-.82c-.02 0-37.12-3.39-37.12-3.39-11.28-1.48-21.79-.31-22.23-.25l-1.42.16v8.41l1.79-.21c.09-.01 9.39-1.06 35.08 1.78zm-293.13-374.34v325.11c0 180.01 234.8 284.4 237.17 285.44l1.08.47 1.07-.48c2.36-1.06 235.8-107.14 235.8-279.58l-.03-330.97-475.09.01zm5.33 5.33c5.22 0 459.21-.02 464.44-.02 0 2.95.01 105.92.01 195.29h-464.45v-195.27zm237.26 261.54c.40-.89 2.23-3.96 9.54-5.69.01 0 11.19-2.25 23.45-.91.08.01 18.84 1.92 18.84 1.92l28.69 2.37 25.63.22s3.35.02 6.41.04c0 7.93.04 180.5.04 188.38-5.93.07-24.11.26-24.11.26l-37.02-2.27-33.64-1.8c-9.34.02-14.43 3.97-17.83 7.52v-190.04zm-8.54 336.36c-32.78-15.57-228.72-115.53-228.72-278.12v-111.74h228.75v42.16c-1.87-1.03-4.19-1.94-7.14-2.63-.62-.13-12.7-2.59-26.28-1.08l-18.87 1.9-27.94 2.33c-.02 0-25.43.22-25.43.22l-15 .07.05 4.24v3.56h-19.34v19.37h-24.5v32.87h24.5v37.99h-24.5v32.89h24.5v37.97h-24.5v32.89h24.5v19.76h125.93c1.97 3.94 6.38 8.3 13.99 9.6v115.75zm.03-337.11v190.91c-3.15-3.51-8.13-7.62-17.38-7.64l-33.62 1.8-37.05 2.27s-16.34-.17-24.08-.26c0-7.88.03-180.45.04-188.38 3.07-.02 6.42-.04 6.42-.04l25.63-.22 28.66-2.37 18.82-1.91c12.27-1.35 23.48.91 23.58.93 5.8 1.37 8.09 3.61 8.98 4.91zm-140.07 25.9v15.84h-15.86v-15.84h15.86zm0 70.86v15.86h-15.86v-15.86h15.86zm0 70.86v15.86h-15.86v-15.86h15.86zm144.22 45.8c-9.24-.01-11.02-6.16-11.19-6.86l-.80-3.25-123.6-.06v-196.71h10.82l-.03 188.96 32.79.35 37.63-2.3 32.83-1.77c7.25.02 10 3.41 12.66 6.69 2.12 2.61 4.52 5.58 8.75 5.58 4.14 0 6.67-2.89 8.9-5.44 2.91-3.35 5.94-6.81 13.44-6.83l32.86 1.77 37.6 2.3c.02 0 32.99-.35 32.99-.35l-.17-4.21-.04-184.75h10.6v196.71h-123.48l-.89 3.15c-.21.72-2.27 7.01-11.67 7.02zm4.33 123.58v-115.66c7.59-1.33 12.1-5.68 14.18-9.58h126.05v-19.76h24.36v-32.89h-24.36v-37.97h24.36v-32.89h-24.36v-37.99h24.36v-32.87h-24.36v-19.37h-19.12v-7.8l-14.94-.07-25.43-.22-27.97-2.33-18.9-1.91c-13.58-1.5-25.65.97-26.14 1.06-3.26.77-5.71 1.81-7.7 2.95v-42.45h227.2c0 63.83.01 117.59.01 117.59 0 155.31-194.03 256.06-227.24 272.16zm140.23-153.52v-15.86h15.85v15.86h-15.85zm0-70.86v-15.86h15.85v15.86h-15.85zm0-70.88v-15.84h15.85v15.84h-15.85zm-403.68-330.47-.01 350.08c0 194.16 254.05 305.42 256.62 306.53l2.54 1.09 2.53-1.11c10.46-4.57 256.01-114.14 256.01-300.26l-.02-356.35-517.67.02zm259.1 643.72c-24.19-11.02-246.34-117.11-246.34-293.64 0 0 .02-325.01.02-337.31 12.29 0 479.83-.01 492.12-.01 0 12.31.02 343.57.02 343.57 0 168.92-221.65 276.21-245.82 287.39zm-.08-759c-216.62 0-392.86 176.25-392.86 392.89s176.24 392.88 392.86 392.88c216.64 0 392.88-176.24 392.88-392.88s-176.24-392.89-392.88-392.89zm0 773c-209.58 0-380.08-170.51-380.08-380.11 0-209.59 170.5-380.12 380.08-380.12 209.6 0 380.11 170.53 380.11 380.12 0 209.6-170.51 380.11-380.11 380.11zm55-244.95c.02.01 27.79 2.21 27.79 2.21.01 0 20.55.64 20.55.64l-.08-8.51-24.36-.85c-.02 0-37.12-3.4-37.12-3.4-11.28-1.47-21.79-.32-22.23-.26l-1.42.16v8.46l1.79-.22c.09-.01 9.39-1.07 35.08 1.77zm0-59.28c.02.01 27.79 2.24 27.79 2.24.01 0 20.55.58 20.55.58l-.08-8.49-24.36-.84c-.01 0-37.11-3.39-37.11-3.39-11.29-1.47-21.81-.28-22.25-.23l-1.41.16v8.45l1.79-.23c.10-.01 9.39-1.07 35.08 1.75zm0 15.82c.02.01 27.8 2.23 27.8 2.23l20.54.57-.08-8.48-24.38-.79-37.11-3.43c-11.27-1.49-21.78-.30-22.23-.25l-1.41.16v8.41l1.79-.22c.09-.01 9.39-1.04 35.08 1.8zm0 87.21c.02.01 27.79 2.2 27.79 2.2.01 0 20.55.59 20.55.59l-.08-8.47-24.38-.82-37.11-3.41c-11.27-1.46-21.78-.30-22.22-.25l-1.42.16v8.43l1.79-.22c.09-.01 9.39-1.05 35.08 1.79zm0-15.79c.02 0 27.79 2.2 27.79 2.2.01 0 20.55.59 20.55.59l-.08-8.48-24.38-.83-37.09-3.44c-11.29-1.44-21.8-.26-22.25-.20l-1.41.16v8.4l1.79-.22c.09-.01 9.39-1.05 35.08 1.82zm-584.03-163.1c0 291.72 237.32 529.1 529.03 529.1 291.73 0 529.12-237.38 529.12-529.1s-237.39-529.04-529.12-529.04c-291.71 0-529.03 237.32-529.03 529.04m12.773 0c0-284.67 231.59-516.27 516.26-516.27 284.69 0 516.32 231.6 516.32 516.27 0 284.68-231.63 516.3-516.32 516.3-284.67 0-516.26-231.62-516.26-516.3zm108.28 0c0 224.97 183.02 408 407.98 408 224.98 0 408.02-183.03 408.02-408.02 0-224.97-183.04-408.01-408.02-408.01-224.96 0-407.98 183.04-407.98 408.03m5.32 0c0-222.05 180.64-402.7 402.66-402.7 222.05 0 402.69 180.64 402.69 402.68 0 222.05-180.64 402.71-402.69 402.71-222.02 0-402.66-180.65-402.66-402.69zm-140.2 0c0 299.35 243.52 542.9 542.86 542.9 299.36 0 542.92-243.55 542.92-542.9 0-299.36-243.56-542.91-542.92-542.91-299.32 0-542.86 243.55-542.86 542.91m5.3292 0c0-296.43 241.14-537.59 537.53-537.59 296.42 0 537.62 241.16 537.62 537.59 0 296.42-241.2 537.6-537.62 537.6-296.39 0-537.53-241.18-537.53-537.6z"/></svg>