<?xml version="1.0" encoding="UTF-8" standalone="no"?>
<svg
   xmlns:dc="http://purl.org/dc/elements/1.1/"
   xmlns:cc="http://creativecommons.org/ns#"
   xmlns:rdf="http://www.w3.org/1999/02/22-rdf-syntax-ns#"
   xmlns:svg="http://www.w3.org/2000/svg"
   xmlns="http://www.w3.org/2000/svg"
   viewBox="0 0 1122.52 293.66"
   height="293.66"
   width="1122.52"
   xml:space="preserve"
   id="svg2"
   version="1.1"><metadata
     id="metadata8"><rdf:RDF><cc:Work
         rdf:about=""><dc:format>image/svg+xml</dc:format><dc:type
           rdf:resource="http://purl.org/dc/dcmitype/StillImage" /></cc:Work></rdf:RDF></metadata><defs
     id="defs6"><clipPath
       id="clipPath18"
       clipPathUnits="userSpaceOnUse"><path
         id="path16"
         d="M 0,220.245 H 841.89 V 0 H 0 Z" /></clipPath></defs><g
     transform="matrix(1.3333333,0,0,-1.3333333,0,293.66)"
     id="g10"><g
       id="g12"><g
         clip-path="url(#clipPath18)"
         id="g14"><g
           transform="translate(344.3979,71.0947)"
           id="g20"><path
             id="path22"
             style="fill:#1d1d1b;fill-opacity:1;fill-rule:nonzero;stroke:none"
             d="m 0,0 c 0,1.7 -1.108,2.958 -3.373,3.448 v 1.1 c 1.254,0 5.43,-0.168 6.605,-0.168 1.016,0 5.06,0.168 6.318,0.168 v -1.1 C 7.448,3.038 6.344,1.797 6.344,0 v -21.581 c 0,-6.834 3.753,-10.697 11.603,-10.697 6.764,0 12.027,3.037 12.027,10.189 V 0.084 c 0,1.603 -1.007,2.874 -3.541,3.364 v 1.1 c 0.922,0 4.375,-0.168 5.554,-0.168 1.007,0 4.631,0.168 5.558,0.168 v -1.1 C 35.1,2.865 34.013,1.771 34.013,0.084 V -20.9 c 0,-9.418 -5.479,-14.827 -17.302,-14.827 C 5.704,-35.727 0,-30.724 0,-21.876 Z" /></g><g
           transform="translate(391.6123,37.0596)"
           id="g24"><path
             id="path26"
             style="fill:#1d1d1b;fill-opacity:1;fill-rule:nonzero;stroke:none"
             d="m 0,0 c 2.561,0.477 3.572,1.774 3.572,3.364 v 29.828 c 0,2.53 -1.347,3.668 -3.643,4.295 v 1.1 c 1.299,-0.097 3.479,-0.154 4.592,-0.154 1.011,0 2.583,0.017 3.642,0.154 L 34.035,8.167 v 25.952 c 0,1.599 -1.015,2.87 -3.54,3.368 v 1.1 c 0.927,0 4.256,-0.172 5.439,-0.172 1.029,0 4.596,0.172 5.536,0.172 v -1.1 c -2.468,-0.582 -3.659,-1.686 -3.659,-3.368 v -35.81 h -1.559 c -0.981,0.225 -2.835,1.28 -5.66,4.379 L 7.444,29.651 V 3.364 C 7.444,1.766 8.366,0.499 10.892,0 v -1.104 c -0.927,0 -4.256,0.176 -5.439,0.176 -1.02,0 -4.513,-0.176 -5.453,-0.176 z" /></g><g
           transform="translate(595.7627,45.1035)"
           id="g28"><path
             id="path30"
             style="fill:#1d1d1b;fill-opacity:1;fill-rule:nonzero;stroke:none"
             d="m 0,0 h 1.095 c 0.579,-2.229 1.854,-4.261 3.642,-5.435 1.86,-1.311 4.778,-1.938 7.135,-1.938 5.205,0 8.504,2.578 8.504,6.658 0,4.225 -4.226,6.419 -9.289,8.949 -3.767,1.885 -11.166,4.997 -11.166,12.15 0,6.663 5.082,10.808 13.21,10.808 5.364,0 7.881,-1.311 11.501,-1.143 l -0.07,-8.084 h -1.105 c -1.448,4.764 -5.774,6.424 -10.512,6.424 -5.298,0 -7.28,-3.03 -7.28,-6.111 0,-4.411 4.317,-6.635 9.209,-8.817 5.502,-2.45 11.471,-5.545 11.471,-12.437 0,-6.525 -5.104,-11.25 -14.433,-11.25 -5.55,0 -8.879,1.585 -11.797,1.944 z" /></g><g
           transform="translate(706.9463,52.375)"
           id="g32"><path
             id="path34"
             style="fill:#1d1d1b;fill-opacity:1;fill-rule:nonzero;stroke:none"
             d="m 0,0 -10.534,16.9 c -1.797,2.967 -3.174,4.531 -5.179,5.272 v 1.096 c 1.444,0 5.343,-0.173 6.45,-0.173 1.002,0 5.21,0.173 6.729,0.173 v -1.096 c -1.347,-0.238 -1.978,-0.913 -1.978,-1.929 0,-0.896 0.61,-2.049 1.223,-3.051 C -2.688,16.199 4.478,4.313 4.478,4.313 l 7.482,12.874 c 0.756,1.29 1.29,2.57 1.29,3.414 0,0.768 -0.544,1.404 -1.819,1.571 v 1.096 c 1.267,0 3.929,-0.173 4.777,-0.173 0.848,0 3.907,0.173 5.165,0.173 V 22.247 C 18.495,21.068 16.698,18.543 14.954,15.616 L 5.378,-0.389 m 0.653,2.018 v -13.501 c 0,-1.338 1.02,-3.02 3.324,-3.443 v -1.105 c -1.284,0 -5.478,0.177 -6.692,0.177 -1.02,0 -5.043,-0.177 -6.495,-0.177 v 1.105 c 2.313,0.423 3.422,2.105 3.422,3.443 V 1.037" /></g><g
           transform="translate(511.2061,75.6426)"
           id="g36"><path
             id="path38"
             style="fill:#1d1d1b;fill-opacity:1;fill-rule:nonzero;stroke:none"
             d="m 0,0 h 24.702 c 0.764,0 2.102,0.088 2.865,0.419 h 1.105 l -0.173,-8.026 h -1.095 c -0.94,2.525 -1.916,4.547 -6.697,4.547 H 9.982 v -13.987 h 8.266 c 1.205,0 2.666,0.102 3.298,0.252 1.858,0.406 2.676,1.44 3.051,3.024 H 25.7 c -0.079,-1.209 -0.079,-3.969 -0.079,-4.786 0,-0.821 0.079,-3.726 0.079,-5.042 h -1.103 c -0.531,1.581 -1.254,2.782 -3.051,3.223 -0.632,0.168 -2.119,0.305 -3.298,0.305 H 9.982 v -16.407 h 11.665 c 5.095,0 6.575,2.124 7.841,5.126 l 1.091,-0.255 -1.091,-8.244 c -3.788,0.336 -6.061,0.336 -10.362,0.336 H 6.8 c -1.188,0 -5.546,-0.173 -6.813,-0.173 v 1.1 c 2.225,0.424 3.524,1.524 3.524,3.656 v 30.344 c 0,1.881 -1.012,3.056 -3.511,3.475 z" /></g><g
           transform="translate(448.1152,70.8389)"
           id="g40"><path
             id="path42"
             style="fill:#1d1d1b;fill-opacity:1;fill-rule:nonzero;stroke:none"
             d="m 0,0 c 0,2.035 -1.214,3.156 -3.594,3.669 v 1.09 c 1.325,0 5.613,-0.167 6.862,-0.167 1.046,0 5.453,0.167 6.795,0.167 V 3.669 C 7.696,3.156 6.455,2.142 6.455,0 v -30.133 c 0,-2.035 1.219,-3.143 3.608,-3.646 v -1.105 c -1.338,0 -5.564,0.173 -6.795,0.173 -1.065,0 -5.537,-0.173 -6.866,-0.173 v 1.105 C -1.165,-33.325 0,-32.261 0,-30.133 Z" /></g><g
           transform="translate(635.5029,70.8389)"
           id="g44"><path
             id="path46"
             style="fill:#1d1d1b;fill-opacity:1;fill-rule:nonzero;stroke:none"
             d="m 0,0 c 0,2.035 -1.228,3.156 -3.603,3.669 v 1.09 c 1.325,0 5.616,-0.167 6.856,-0.167 1.056,0 5.462,0.167 6.8,0.167 V 3.669 C 7.687,3.156 6.45,2.142 6.45,0 v -30.133 c 0,-2.035 1.219,-3.143 3.603,-3.646 v -1.105 c -1.329,0 -5.55,0.173 -6.8,0.173 -1.046,0 -5.531,-0.173 -6.856,-0.173 v 1.105 C -1.175,-33.325 0,-32.261 0,-30.133 Z" /></g><g
           transform="translate(669.8379,75.4746)"
           id="g48"><path
             id="path50"
             style="fill:#1d1d1b;fill-opacity:1;fill-rule:nonzero;stroke:none"
             d="m 0,0 c -13.541,0 -15.708,0.252 -18.477,0.424 l 0.023,-8.177 h 1.103 c 1.011,3.625 3.029,4.468 5.643,4.468 h 8.494 v -31.484 c 0,-2.127 -1.165,-3.192 -3.602,-3.646 v -1.105 c 1.337,0 5.849,0.173 6.891,0.173 1.241,0 5.48,-0.173 6.8,-0.173 v 1.105 c -2.394,0.503 -3.607,1.611 -3.607,3.646 v 31.484 h 8.427 c 2.711,0 4.65,-0.923 5.66,-4.468 h 1.091 l 0.018,8.177 C 15.713,0.252 13.546,0 0,0" /></g><g
           transform="translate(561.7852,40.7061)"
           id="g52"><path
             id="path54"
             style="fill:#1d1d1b;fill-opacity:1;fill-rule:nonzero;stroke:none"
             d="m 0,0 c 0,-2.035 1.293,-3.139 3.682,-3.646 v -1.105 c -1.325,0 -5.656,0.173 -6.892,0.173 -1.06,0 -5.289,-0.173 -6.622,-0.173 v 1.105 C -7.616,-3.223 -6.31,-2.128 -6.31,0 v 30.441 c 0,1.872 -1.019,3.051 -3.513,3.475 v 1.095 c 1.324,0 5.513,-0.167 6.697,-0.167 1.939,0 7.448,0.326 9.616,0.326 9.492,0 14.777,-3.925 14.777,-10.653 0,-5.289 -3.934,-8.866 -9.992,-10.327 0,0 1.383,-0.803 2.76,-2.406 1.674,-1.973 6.194,-8.46 8.07,-10.728 1.873,-2.275 4.27,-4.813 6.839,-4.928 v -0.887 c -1.231,-0.269 -3.205,-0.504 -4.715,-0.504 -3.223,0 -5.796,1.139 -8.295,4.163 C 13.771,1.532 10.102,6.993 7.942,9.753 6.561,11.51 4.887,12.883 1.823,13.387 1.231,13.488 0.671,13.572 0,13.651 Z m 0,16.177 c 1.263,-0.172 3.121,-0.252 4.958,-0.252 7.431,0 9.771,4.274 9.771,8.057 0,5.351 -3.573,8.667 -10.076,8.667 -1.346,0 -3.298,-0.168 -4.653,-0.423 z" /></g><g
           transform="translate(467.6963,70.7109)"
           id="g56"><path
             id="path58"
             style="fill:#1d1d1b;fill-opacity:1;fill-rule:nonzero;stroke:none"
             d="m 0,0 c -0.865,1.916 -2.194,3.32 -4.459,3.818 v 1.118 c 1.408,0 6.287,-0.177 7.359,-0.177 0.986,0 5.25,0.177 6.699,0.177 V 3.85 C 8.313,3.603 6.848,2.892 6.848,1.576 c 0,-0.94 0.569,-2.221 1.66,-4.632 l 10.225,-23.266 9.678,23.306 c 0.764,1.881 1.316,3.338 1.316,4.451 0,1.231 -1.135,2.084 -2.743,2.415 v 1.086 c 1.286,0 4.438,-0.177 5.418,-0.177 0.896,0 4.596,0.177 6.009,0.177 V 3.818 C 35.996,3.165 34.525,1.836 33.17,-1.312 L 18.927,-34.896 h -3.223 z" /></g><g
           transform="translate(504.2129,176.627)"
           id="g60"><path
             id="path62"
             style="fill:#1d1d1b;fill-opacity:1;fill-rule:nonzero;stroke:none"
             d="m 0,0 c -1.646,3.634 -4.172,6.283 -8.45,7.232 v 2.115 c 2.662,0 11.501,-0.318 13.532,-0.318 1.872,0 10.433,0.318 13.161,0.318 V 7.285 c -2.42,-0.473 -5.201,-1.824 -5.201,-4.318 0,-1.761 1.095,-4.195 3.126,-8.755 l 19.395,-44.093 18.353,44.168 c 1.431,3.576 2.499,6.309 2.499,8.424 0,2.349 -2.172,3.942 -5.214,4.574 v 2.062 c 2.428,0 8.331,-0.318 10.207,-0.318 1.705,0 8.716,0.318 11.383,0.318 V 7.351 C 68.217,6.11 65.418,3.483 62.87,-2.481 L 35.89,-66.142 h -6.106 z" /></g><g
           transform="translate(243.0513,112.9092)"
           id="g64"><path
             id="path66"
             style="fill:#1d1d1b;fill-opacity:1;fill-rule:nonzero;stroke:none"
             d="M 0,0 C 3.523,0.804 6,2.406 6,6.397 V 64.76 c 0,3.832 -2.305,5.422 -6,6.384 v 2.071 c 1.85,0 9.819,-0.314 11.757,-0.314 2.234,0 10.587,0.314 12.424,0.314 V 71.144 C 20.662,70.345 18.053,68.747 18.053,64.76 V 40.38 h 43.479 v 24.38 c 0,3.987 -2.318,5.585 -5.991,6.384 v 2.071 c 1.836,0 10.04,-0.314 12.269,-0.314 1.925,0 10.08,0.314 11.898,0.314 V 71.144 C 76.186,70.345 73.576,68.747 73.576,64.76 V 6.397 c 0,-3.832 2.45,-5.439 6.132,-6.397 v -1.911 c -1.818,0 -9.973,0.158 -11.898,0.158 -2.229,0 -10.433,-0.158 -12.269,-0.158 V 0 c 3.497,0.804 5.991,2.406 5.991,6.397 V 33.979 H 18.053 V 6.397 c 0,-3.991 2.446,-5.439 6.128,-6.397 v -1.911 c -1.837,0 -10.19,0.158 -12.424,0.158 C 9.819,-1.753 1.85,-1.911 0,-1.911 Z" /></g><g
           transform="translate(745.9668,112.9092)"
           id="g68"><path
             id="path70"
             style="fill:#1d1d1b;fill-opacity:1;fill-rule:nonzero;stroke:none"
             d="M 0,0 C 4.512,0.804 6.998,2.596 6.998,6.715 V 64.76 c 0,4 -2.451,5.585 -6.812,6.384 v 2.071 c 2.511,0 10.688,-0.314 12.953,-0.314 3.656,0 13.854,0.799 21.793,0.799 26.746,0 42.984,-14.936 42.984,-37.647 0,-22.075 -16.896,-38.433 -44.473,-38.433 -7.951,0 -17.381,0.627 -21.072,0.627 C 10.128,-1.753 2.503,-2.07 0,-2.07 Z m 19.042,3.846 c 2.724,-0.495 7.757,-0.804 11.726,-0.804 22.468,0 34.164,13.523 34.164,32.384 0,19.554 -12.34,33.312 -33.347,33.312 -4.292,0 -9.655,-0.322 -12.543,-0.791 z" /></g><g
           transform="translate(443.2236,119.8364)"
           id="g72"><path
             id="path74"
             style="fill:#1d1d1b;fill-opacity:1;fill-rule:nonzero;stroke:none"
             d="m 0,0 c 0,-3.868 2.45,-5.969 6.958,-6.927 v -2.071 c -2.512,0 -10.693,0.318 -13.046,0.318 -1.987,0 -10.014,-0.318 -12.521,-0.318 v 2.071 c 4.185,0.803 6.653,2.887 6.653,6.927 v 57.629 c 0,3.546 -1.916,5.788 -6.645,6.588 v 2.071 c 2.513,0 10.442,-0.314 12.667,-0.314 3.678,0 14.107,0.613 18.221,0.613 17.987,0 28,-7.439 28,-20.163 0,-10.031 -7.47,-16.781 -18.935,-19.567 0,0 2.6,-1.515 5.217,-4.565 3.175,-3.731 11.935,-16.27 15.476,-20.565 3.54,-4.301 8.083,-9.104 12.94,-9.325 V -9.29 c -2.327,-0.502 -6.053,-0.931 -8.901,-0.931 -6.132,0 -11.002,2.146 -15.739,7.886 C 26.261,2.645 19.117,13.232 15.024,18.459 12.411,21.789 9.259,24.384 3.471,25.342 2.331,25.537 1.259,25.687 0,25.828 Z m 0,30.609 c 2.38,-0.313 5.898,-0.472 9.387,-0.472 14.066,0 18.485,8.097 18.485,15.25 0,10.158 -6.764,16.424 -19.086,16.424 C 6.247,61.811 2.548,61.488 0,61.02 Z" /></g><g
           transform="translate(680.293,119.8364)"
           id="g76"><path
             id="path78"
             style="fill:#1d1d1b;fill-opacity:1;fill-rule:nonzero;stroke:none"
             d="m 0,0 c 0,-3.868 2.459,-5.969 6.972,-6.927 v -2.071 c -2.508,0 -10.681,0.318 -13.034,0.318 -2.022,0 -10.022,-0.318 -12.539,-0.318 v 2.071 c 4.177,0.803 6.65,2.887 6.65,6.927 v 57.629 c 0,3.546 -1.934,5.788 -6.636,6.588 v 2.071 c 2.521,0 10.424,-0.314 12.667,-0.314 3.686,0 14.109,0.613 18.198,0.613 18.018,0 28,-7.439 28,-20.163 0,-10.031 -7.452,-16.781 -18.926,-19.567 0,0 2.613,-1.515 5.209,-4.565 C 29.766,18.561 38.525,6.022 42.053,1.727 45.607,-2.574 50.15,-7.377 54.98,-7.598 V -9.29 c -2.295,-0.502 -6.043,-0.931 -8.861,-0.931 -6.145,0 -11.037,2.146 -15.762,7.886 C 26.273,2.645 19.152,13.232 15.024,18.459 12.41,21.789 9.268,24.384 3.492,25.342 2.336,25.537 1.275,25.687 0,25.828 Z m 0,30.609 c 2.41,-0.313 5.907,-0.472 9.399,-0.472 14.072,0 18.478,8.097 18.478,15.25 0,10.158 -6.769,16.424 -19.068,16.424 C 6.247,61.811 2.565,61.488 0,61.02 Z" /></g><g
           transform="translate(334.1992,112.9229)"
           id="g80"><path
             id="path82"
             style="fill:#1d1d1b;fill-opacity:1;fill-rule:nonzero;stroke:none"
             d="m 0,0 c 4.759,1.112 7.373,4.194 9.108,8.318 l 24.08,57.938 c 1.024,2.397 2.216,7.325 2.216,7.325 h 6.738 c 0,0 1.205,-4.941 2.207,-7.343 L 69.797,8.159 c 1.815,-4 3.779,-6.888 8.839,-8.159 l -0.013,-1.93 c -2.755,0 -11.32,0.159 -13.268,0.159 -1.938,0 -10.119,-0.159 -12.869,-0.159 L 52.495,0 c 3.704,0.909 4.874,2.794 4.874,4.618 0,1.549 -0.64,3.298 -1.417,5.112 L 50.481,22.208 H 22.441 L 17.431,9.66 C 16.87,8.238 16.203,6.229 16.203,4.874 16.203,2.781 17.298,1.112 21.501,0 l -0.009,-1.93 c -2.49,0 -9.064,0.159 -10.604,0.159 L -0.004,-1.93 Z M 47.943,28.124 35.969,56.022 24.817,28.124 Z" /></g><g
           transform="translate(572.7559,112.9229)"
           id="g84"><path
             id="path86"
             style="fill:#1d1d1b;fill-opacity:1;fill-rule:nonzero;stroke:none"
             d="m 0,0 c 4.756,1.112 7.378,4.194 9.104,8.318 l 24.088,57.938 c 1.025,2.397 2.23,7.325 2.23,7.325 h 6.737 c 0,0 1.193,-4.941 2.191,-7.343 L 69.807,8.159 c 1.8,-4 3.783,-6.888 8.821,-8.159 l -0.009,-1.93 c -2.746,0 -11.32,0.159 -13.281,0.159 -1.92,0 -10.097,-0.159 -12.852,-0.159 V 0 c 3.727,0.909 4.879,2.794 4.879,4.618 0,1.549 -0.632,3.298 -1.395,5.112 L 50.478,22.208 H 22.437 L 17.422,9.66 C 16.861,8.238 16.199,6.229 16.199,4.874 16.199,2.781 17.294,1.112 21.497,0 v -1.93 c -2.499,0 -9.063,0.159 -10.613,0.159 L -0.009,-1.93 Z M 47.943,28.124 35.961,56.022 24.817,28.124 Z" /></g><g
           transform="translate(20.7368,209.5498)"
           id="g88"><path
             id="path90"
             style="fill:#a81d28;fill-opacity:1;fill-rule:nonzero;stroke:none"
             d="m 0,0 h 167.895 v -63.422 c 0,-29.059 -10.817,-90.684 -83.321,-136.548 0,0 -78.561,32.809 -84.574,136.548 z" /></g><g
           transform="translate(20.3926,209.7178)"
           id="g92"><path
             id="path94"
             style="fill:none;stroke:#12110c;stroke-width:0.23;stroke-linecap:butt;stroke-linejoin:miter;stroke-miterlimit:4;stroke-dasharray:none;stroke-opacity:1"
             d="m 0,0 h 168.058 v -63.466 c 0,-29.069 -10.83,-90.728 -83.4,-136.623 0,0 -78.636,32.83 -84.658,136.623 z" /></g><g
           transform="translate(147.8145,128.0527)"
           id="g96"><path
             id="path98"
             style="fill:#ffffff;fill-opacity:1;fill-rule:nonzero;stroke:none"
             d="m 0,0 c 0,0 -1.497,-4.772 -8.154,0.133 l -22.857,0.552 c 0,0 -2.993,-0.963 -3.4,2.168 0,0 0.548,6.255 0.27,6.803 0,0 0.137,1.766 -2.866,1.766 0,0 -4.618,-0.543 -4.755,3.545 0,0 -0.807,4.353 5.581,4.208 0,0 2.04,-0.949 2.177,1.642 0,0 -0.269,17.691 -0.137,19.042 0,0 0.547,1.625 -2.588,1.903 0,0 -4.485,-0.949 -5.033,2.035 0,0 -0.269,4.49 2.729,4.768 0,0 3.669,-0.278 4.348,0.68 0,0 0.822,-0.538 0.681,2.711 l 0.141,5.59 c 0,0 0.393,1.492 2.711,1.346 0,0 4.22,-0.269 4.772,0.146 0,0 0.941,1.218 1.219,1.771 0,0 2.181,0.132 2.583,-0.415 0,0 3.267,-2.177 15.646,-1.356 0,0 1.908,0 2.305,-0.548 0,0 2.322,-1.765 3.678,0.133 0,0 2.04,0.415 8.159,0.269 0,0 6.675,-1.761 11.289,2.049 L 20,60.667 c 0,0 1.903,-3.121 3.263,-2.177 0,0 4.084,0.402 4.759,-0.41 0,0 1.356,-2.027 0.68,-7.351 0,0 -0.807,-2.305 3.135,-2.305 0,0 4.495,0.821 3.942,-3.395 0,0 1.223,-4.764 -6.251,-4.088 0,0 -0.958,-1.36 -0.826,-2.314 0,0 -0.132,-15.501 -0.269,-17.28 0,0 -0.133,-2.451 3.126,-2.309 0,0 4.358,0.282 4.503,-3.669 0,0 0.539,-5.17 -5.726,-4.212 0,0 -1.903,-0.278 -2.186,-1.501 L 27.895,2.853 c 0,0 0.127,-3.4 -3.674,-2.579 -0.543,0 -21.219,-0.42 -22.993,0.123 C 1.228,0.397 0.265,0.534 0,0" /></g><g
           transform="translate(103.8721,105.3154)"
           id="g100"><path
             id="path102"
             style="fill:#ffffff;fill-opacity:1;fill-rule:nonzero;stroke:none"
             d="m 0,0 c 0,0 0.954,0.402 1.223,1.073 0,0 2.861,0.279 3.262,0.684 L 13.47,1.073 c 0,0 8.839,-0.671 12.649,2.062 0,0 1.369,0 2.322,-0.415 0,0 1.894,-0.415 2.437,-1.219 l 5.175,0.137 c 0,0 2.993,-0.962 2.715,-2.869 v -2.442 c 0,0 -0.547,-4.901 0.813,-5.179 h 3.955 c 0,0 3.268,-1.493 2.857,-3.395 0,0 0.137,-2.711 -2.715,-3.263 0,0 -2.87,-0.812 -3.811,-0.684 0,0 -0.958,-1.219 -1.099,-2.715 l -0.397,-17.824 c 0,0 -0.278,-1.903 2.583,-1.633 0,0 4.207,0.41 5.439,-1.912 0,0 1.09,-3.938 -1.086,-4.618 l -1.629,-0.808 -3.546,-0.566 c 0,0 -1.487,-0.123 -1.629,-2.706 v -4.754 c 0,0 0.142,-3.277 -2.45,-3.277 l -3.81,-0.273 c 0,0 -0.95,-0.804 -2.852,-0.261 0,0 -23.131,-0.419 -23.948,-0.142 L 2.72,-58.234 c 0,0 -2.99,-2.72 -5.44,-0.671 l -1.903,1.497 c 0,0 -1.364,-0.275 -1.898,-0.133 -0.547,0.133 -25.581,-0.278 -25.581,-0.278 0,0 -5.307,-0.552 -5.709,1.227 0,0 -0.679,6.932 -0.41,7.762 0,0 0,2.031 -1.223,2.163 0,0 -5.307,0.274 -5.444,0.826 0,0 -2.861,2.03 -2.044,4.067 0,0 0.958,2.732 3.81,3.002 0,0 4.353,-0.689 4.353,0.538 0,0 0.279,0.817 0.279,2.172 0,0 0.269,16.199 0.132,17.285 0,0 0.406,2.04 -1.364,2.04 0,0 -1.903,-0.539 -3.122,0.273 0,0 -3.267,-0.137 -3.947,2.451 0,0 -0.547,1.629 0.265,3.002 0,0 1.502,2.989 5.855,2.032 0,0 2.45,-0.685 2.719,1.077 l -0.128,6.543 c 0,0 -0.552,1.761 2.852,2.711 0,0 4.353,-1.219 5.709,0.953 0,0 1.501,3.003 2.711,0.962 0,0 2.596,-2.455 9.669,-2.194 0,0 12.247,0.962 12.516,0.428 0,0 2.994,-0.428 3.806,-1.368 z" /></g><g
           transform="translate(66.8872,128.0527)"
           id="g104"><path
             id="path106"
             style="fill:#ffffff;fill-opacity:1;fill-rule:nonzero;stroke:none"
             d="M 0,0 C 0,0 -1.501,-4.772 -8.167,0.137 L -31.02,0.685 c 0,0 -2.993,-0.963 -3.404,2.171 0,0 0.548,6.252 0.265,6.8 0,0 0.146,1.775 -2.852,1.775 0,0 -4.618,-0.556 -4.751,3.527 0,0 -0.821,4.367 5.572,4.217 0,0 2.031,-0.949 2.177,1.637 0,0 -0.274,17.683 -0.146,19.051 0,0 0.556,1.616 -2.574,1.895 0,0 -4.495,-0.945 -5.029,2.048 0,0 -0.278,4.481 2.711,4.759 0,0 3.674,-0.278 4.358,0.663 0,0 0.817,-0.526 0.68,2.742 l 0.137,5.571 c 0,0 0.41,1.497 2.71,1.36 0,0 4.23,-0.269 4.777,0.137 0,0 0.95,1.218 1.21,1.771 0,0 2.19,0.128 2.596,-0.402 0,0 3.258,-2.19 15.651,-1.369 0,0 1.894,0 2.305,-0.548 0,0 2.309,-1.765 3.669,0.142 0,0 2.04,0.406 8.167,0.269 0,0 6.654,-1.766 11.286,2.036 l 1.492,-0.279 c 0,0 1.903,-3.117 3.276,-2.168 0,0 4.075,0.411 4.759,-0.41 0,0 1.364,-2.04 0.671,-7.351 0,0 -0.808,-2.309 3.135,-2.309 0,0 4.485,0.808 3.947,-3.391 0,0 1.227,-4.764 -6.256,-4.088 0,0 -0.958,-1.364 -0.826,-2.314 0,0 -0.132,-15.501 -0.265,-17.28 0,0 -0.132,-2.433 3.131,-2.309 0,0 4.353,0.287 4.485,-3.674 0,0 0.543,-5.165 -5.709,-4.207 0,0 -1.907,-0.282 -2.185,-1.501 l -0.265,-6.8 c 0,0 0.137,-3.403 -3.682,-2.591 C 23.66,0.265 2.994,-0.137 1.218,0.397 1.218,0.397 0.269,0.534 0,0" /></g><g
           transform="translate(147.8145,128.0527)"
           id="g108"><path
             id="path110"
             style="fill:#12110c;fill-opacity:1;fill-rule:nonzero;stroke:none"
             d="m 0,0 c 0,0 -1.497,-4.772 -8.154,0.133 l -22.857,0.552 c 0,0 -2.993,-0.963 -3.4,2.168 0,0 0.548,6.255 0.27,6.803 0,0 0.137,1.766 -2.866,1.766 0,0 -4.618,-0.543 -4.755,3.545 0,0 -0.807,4.353 5.581,4.208 0,0 2.04,-0.949 2.177,1.642 0,0 -0.269,17.691 -0.137,19.042 0,0 0.547,1.625 -2.588,1.903 0,0 -4.485,-0.949 -5.033,2.035 0,0 -0.269,4.49 2.729,4.768 0,0 3.669,-0.278 4.348,0.68 0,0 0.822,-0.538 0.681,2.711 l 0.141,5.59 c 0,0 0.393,1.492 2.711,1.346 0,0 4.22,-0.269 4.772,0.146 0,0 0.941,1.218 1.219,1.771 0,0 2.181,0.132 2.583,-0.415 0,0 3.267,-2.177 15.646,-1.356 0,0 1.908,0 2.305,-0.548 0,0 2.322,-1.765 3.678,0.133 0,0 2.04,0.415 8.159,0.269 0,0 6.675,-1.761 11.289,2.049 L 20,60.667 c 0,0 1.903,-3.121 3.263,-2.177 0,0 4.084,0.402 4.759,-0.41 0,0 1.356,-2.027 0.68,-7.351 0,0 -0.807,-2.305 3.135,-2.305 0,0 4.495,0.821 3.942,-3.395 0,0 1.223,-4.764 -6.251,-4.088 0,0 -0.958,-1.36 -0.826,-2.314 0,0 -0.132,-15.501 -0.269,-17.28 0,0 -0.133,-2.451 3.126,-2.309 0,0 4.358,0.282 4.503,-3.669 0,0 0.539,-5.17 -5.726,-4.212 0,0 -1.903,-0.278 -2.186,-1.501 L 27.895,2.853 c 0,0 0.127,-3.4 -3.674,-2.579 -0.543,0 -21.219,-0.42 -22.993,0.123 C 1.228,0.397 0.265,0.534 0,0" /></g><g
           transform="translate(147.8145,128.0488)"
           id="g112"><path
             id="path114"
             style="fill:none;stroke:#12110c;stroke-width:0.01;stroke-linecap:butt;stroke-linejoin:miter;stroke-miterlimit:4;stroke-dasharray:none;stroke-opacity:1"
             d="m 0,0 c 0,0 -1.497,-4.773 -8.154,0.132 l -22.862,0.552 c 0,0 -2.993,-0.962 -3.399,2.172 0,0 0.552,6.256 0.269,6.804 0,0 0.137,1.766 -2.861,1.766 0,0 -4.622,-0.548 -4.759,3.541 0,0 -0.808,4.353 5.58,4.212 0,0 2.04,-0.95 2.177,1.637 0,0 -0.269,17.692 -0.137,19.047 0,0 0.552,1.629 -2.583,1.903 0,0 -4.49,-0.95 -5.037,2.035 0,0 -0.265,4.495 2.728,4.768 0,0 3.669,-0.273 4.35,0.68 0,0 0.825,-0.538 0.679,2.716 l 0.146,5.589 c 0,0 0.388,1.492 2.715,1.346 0,0 4.216,-0.269 4.764,0.146 0,0 0.941,1.214 1.223,1.767 0,0 2.177,0.136 2.583,-0.412 0,0 3.263,-2.176 15.646,-1.355 0,0 1.908,0 2.305,-0.547 0,0 2.322,-1.766 3.678,0.132 0,0 2.04,0.415 8.159,0.269 0,0 6.675,-1.761 11.293,2.049 l 1.502,-0.269 c 0,0 1.902,-3.126 3.258,-2.181 0,0 4.084,0.401 4.759,-0.406 0,0 1.36,-2.036 0.685,-7.351 0,0 -0.812,-2.314 3.134,-2.314 0,0 4.491,0.821 3.938,-3.391 0,0 1.223,-4.768 -6.251,-4.088 0,0 -0.954,-1.36 -0.821,-2.318 0,0 -0.133,-15.501 -0.27,-17.276 0,0 -0.137,-2.45 3.126,-2.318 0,0 4.362,0.283 4.503,-3.664 0,0 0.535,-5.17 -5.726,-4.212 0,0 -1.903,-0.283 -2.185,-1.501 l -0.26,-6.804 c 0,0 0.127,-3.404 -3.669,-2.583 C 23.683,0.273 3.002,-0.142 1.228,0.401 1.228,0.401 0.265,0.534 0,0 Z" /></g><g
           transform="translate(122.106,184.1016)"
           id="g116"><path
             id="path118"
             style="fill:#ffffff;fill-opacity:1;fill-rule:nonzero;stroke:none"
             d="m 0,0 c 0,0 0.269,-2.724 0.269,-3.413 0,-0.675 -0.401,-39.307 -0.401,-39.307 0,0 0.401,-2.993 -2.173,-4.494 0,0 -0.689,-0.265 -0.817,1.638 l 0.266,40.799 c 0,0 0.273,5.047 2.856,4.777" /></g><g
           transform="translate(122.1104,184.106)"
           id="g120"><path
             id="path122"
             style="fill:none;stroke:#12110c;stroke-width:0.012;stroke-linecap:butt;stroke-linejoin:miter;stroke-miterlimit:4;stroke-dasharray:none;stroke-opacity:1"
             d="m 0,0 c 0,0 0.265,-2.724 0.265,-3.413 0,-0.679 -0.397,-39.316 -0.397,-39.316 0,0 0.397,-2.993 -2.177,-4.489 0,0 -0.689,-0.27 -0.826,1.633 l 0.274,40.808 c 0,0 0.269,5.047 2.861,4.777 z" /></g><g
           transform="translate(117.6201,136.4854)"
           id="g124"><path
             id="path126"
             style="fill:#ffffff;fill-opacity:1;fill-rule:nonzero;stroke:none"
             d="M 0,0 C 0,0 0.27,38.362 0.142,39.042 0,39.713 0.27,38.486 0.27,38.486 c 0,0 -0.407,6.676 1.364,9.404 0,0 -0.552,2.3 -3.678,-0.552 l -0.137,-5.571 c 0,0 0,-3.135 -2.852,-2.998 0,0 -3.267,0.141 -4.764,-1.356 0,0 -0.816,-2.997 2.309,-2.459 0,0 4.901,0 5.175,-2.026 L -2.587,12.38 c 0,0 1.09,-3.417 -2.715,-3.417 0,0 -4.64,0.291 -4.495,-2.566 0,0 0.958,-2.445 4.901,-1.637 0,0 2.852,-0.534 2.715,-3.267 v -5.166 c 0,0 -0.274,-2.053 2.451,-2.181 h 21.222 c 0,0 1.082,-0.132 1.082,1.228 0,0 -0.132,1.085 -1.762,1.085 L 3.13,-3.267 C 3.13,-3.267 0.27,-4.225 0,0" /></g><g
           transform="translate(121.7041,136.5474)"
           id="g128"><path
             id="path130"
             style="fill:#ffffff;fill-opacity:1;fill-rule:nonzero;stroke:none"
             d="m 0,0 c 0,0 -0.547,-1.903 1.492,-1.505 h 14.014 l 3.801,-0.826 c 0,0 3.943,0.962 0,3.135 0,0 -12.512,-0.124 -13.598,0.141 0,0 -2.587,0.676 -3.144,0.812 C 2.565,1.757 1.219,2.3 0,0" /></g><g
           transform="translate(121.6997,136.5474)"
           id="g132"><path
             id="path134"
             style="fill:none;stroke:#12110c;stroke-width:0.012;stroke-linecap:butt;stroke-linejoin:miter;stroke-miterlimit:4;stroke-dasharray:none;stroke-opacity:1"
             d="M 0,0 C 0,0 -0.547,-1.907 1.492,-1.51 H 15.51 l 3.802,-0.825 c 0,0 3.946,0.966 0,3.143 0,0 -12.513,-0.123 -13.604,0.137 0,0 -2.586,0.68 -3.138,0.817 C 2.57,1.762 1.219,2.305 0,0 Z" /></g><g
           transform="translate(144.958,134.6401)"
           id="g136"><path
             id="path138"
             style="fill:#ffffff;fill-opacity:1;fill-rule:nonzero;stroke:none"
             d="m 0,0 c 0,0 -2.583,0 -2.45,-3.408 0,0 0.273,-2.574 2.993,-2.574 0,0 2.441,0.401 2.181,3.121 0,0 -1.501,3.4 -2.724,2.861" /></g><g
           transform="translate(146.8652,135.9956)"
           id="g140"><path
             id="path142"
             style="fill:#ffffff;fill-opacity:1;fill-rule:nonzero;stroke:none"
             d="m 0,0 c 0,0 1.223,1.355 2.044,1.355 0,0 13.603,-1.218 15.899,0.411 0,0 2.053,0.406 2.6,0 0,0 2.036,-1.629 2.036,-2.583 0,0 -0.133,-1.231 -2.583,-0.534 0,0 -15.373,-0.15 -16.19,-0.15 0,0 -4.225,-0.945 -3.806,1.501" /></g><g
           transform="translate(146.8608,135.9956)"
           id="g144"><path
             id="path146"
             style="fill:none;stroke:#12110c;stroke-width:0.012;stroke-linecap:butt;stroke-linejoin:miter;stroke-miterlimit:4;stroke-dasharray:none;stroke-opacity:1"
             d="m 0,0 c 0,0 1.223,1.36 2.044,1.36 0,0 13.607,-1.219 15.908,0.411 0,0 2.052,0.406 2.6,0 0,0 2.035,-1.63 2.035,-2.592 0,0 -0.132,-1.232 -2.583,-0.534 0,0 -15.381,-0.15 -16.198,-0.15 0,0 -4.225,-0.945 -3.806,1.505 z" /></g><g
           transform="translate(148.6313,131.585)"
           id="g148"><path
             id="path150"
             style="fill:#ffffff;fill-opacity:1;fill-rule:nonzero;stroke:none"
             d="m 0,0 c 0,0 0,1.1 1.907,1.1 l 19.038,0.132 c 0,0 1.775,-0.954 1.775,2.305 0,0 0.697,14.829 0.759,31.156 0.022,4.861 0.243,9.96 0.071,14.685 0,0 -0.424,2.044 -0.971,2.459 0,0 0,2.172 2.317,1.355 0,0 2.04,-0.137 1.497,-3.276 l 0.141,-4.741 c 0,0 -0.41,-2.053 3.254,-1.502 0,0 3.669,-0.551 3.815,-1.902 0,0 1.086,-2.733 -3.259,-2.455 h -3.143 c 0,0 -1.355,-0.813 -0.949,-2.451 l -0.406,-19.73 c 0,0 -0.274,-3.395 2.993,-3.267 0,0 3.395,0.141 4.079,-0.95 0,0 2.327,-3.399 -2.715,-3.126 0,0 -3.13,0.142 -3.81,-0.41 0,0 -0.547,-0.675 -0.954,-7.077 0,0 0.278,-3.81 -2.583,-3.391 0,0 -18.913,-0.269 -20.679,0.132 0,0 -1.903,-0.551 -2.177,0.954" /></g><g
           transform="translate(124.1499,185.3379)"
           id="g152"><path
             id="path154"
             style="fill:#ffffff;fill-opacity:1;fill-rule:nonzero;stroke:none"
             d="m 0,0 -0.411,-43.682 c 0,0 -0.132,-2.027 3.268,-2.437 0,0 3.942,-0.406 4.887,0 0,0 2.601,0.141 9.254,-0.137 0,0 1.642,-1.647 1.779,0.41 0,0 1.077,35.356 0.548,42.72 0,0 -0.15,3.126 -2.455,3.263 0,0 -10.34,-0.835 -11.293,0 L 1.493,1.214 C 1.493,1.214 -0.141,1.082 0,0" /></g><g
           transform="translate(145.6382,183.1523)"
           id="g156"><path
             id="path158"
             style="fill:#ffffff;fill-opacity:1;fill-rule:nonzero;stroke:none"
             d="m 0,0 c 0,0 -0.406,-20.543 -0.27,-21.223 l -0.269,-17.272 -0.552,-5.991 c 0,0 0.821,-1.222 1.502,-0.41 0,0 4.353,1.104 7.072,0.675 0,0 8.716,-0.808 10.477,0.561 0,0 1.364,-0.68 1.762,1.497 0,0 0.538,38.079 0.287,38.759 0,0 0.525,5.457 0.251,5.987 0,0 -0.119,1.223 -2.437,0.141 0,0 0.265,-1.095 -12.649,-0.671 C 5.174,2.053 0.278,2.186 0,0" /></g><g
           transform="translate(167.2759,183.6909)"
           id="g160"><path
             id="path162"
             style="fill:#ffffff;fill-opacity:1;fill-rule:nonzero;stroke:none"
             d="m 0,0 -0.132,-42.98 c 0,0 1.086,-3.823 2.852,-3.422 0,0 0.265,0.826 0.397,2.186 L 3.669,-3.263 C 3.669,-3.263 2.3,3.254 0,0" /></g><g
           transform="translate(167.2715,183.6953)"
           id="g164"><path
             id="path166"
             style="fill:none;stroke:#12110c;stroke-width:0.012;stroke-linecap:butt;stroke-linejoin:miter;stroke-miterlimit:4;stroke-dasharray:none;stroke-opacity:1"
             d="m 0,0 -0.132,-42.989 c 0,0 1.09,-3.824 2.856,-3.422 0,0 0.27,0.826 0.402,2.186 L 3.673,-3.263 C 3.673,-3.263 2.305,3.254 0,0 Z" /></g><g
           transform="translate(150.5693,170.8213)"
           id="g168"><path
             id="path170"
             style="fill:#12110c;fill-opacity:1;fill-rule:nonzero;stroke:none"
             d="M 0,0 C -0.406,1.086 2.313,1.223 2.313,1.223 L 3.678,0.954 C 4.632,1.086 5.585,0.676 5.585,0.676 6.535,-0.817 4.901,-1.629 4.901,-1.629 L 4.358,-3.404 c -0.141,-1.501 0,-14.424 0,-14.424 0.274,-0.671 1.36,-1.89 1.36,-1.89 0,-1.231 -1.501,-0.962 -1.501,-0.962 l -3.939,-0.137 c -1.227,0.137 -0.821,1.502 -0.821,1.502 1.36,0.679 1.771,3.134 1.771,3.134 V -2.72 Z" /></g><g
           transform="translate(132.2075,158.168)"
           id="g172"><path
             id="path174"
             style="fill:#12110c;fill-opacity:1;fill-rule:nonzero;stroke:none"
             d="M 0,0 -0.269,-4.216 0.945,-6.252 C 1.771,-7.338 0.406,-8.164 0.406,-8.164 l -4.353,0.407 c -0.808,0.419 0,1.775 0,1.775 1.091,0.67 1.227,2.45 1.227,2.45 l -0.136,7.889 0.136,5.713 c 0,0.685 -1.086,1.899 -1.086,1.899 -0.949,0.137 -0.68,1.36 -0.68,1.36 0.27,0.684 2.574,0.278 2.574,0.278 H 3.81 C 9.254,11.836 8.437,7.89 8.437,7.89 8.848,3.951 4.631,2.309 4.631,2.309 L 4.349,0.132 8.3,-6.115 c 0.68,-0.547 0.548,-1.099 0.548,-1.099 -0.548,-1.497 -2.729,0 -2.729,0 L 1.228,0.41 C 0.817,0.958 0,0 0,0 M 0.137,10.755 C 0.269,7.753 0.269,3.673 0.269,3.673 c 2.592,-2.044 4.08,0.821 4.08,0.821 3.395,3.259 0,6.261 -0.539,7.069 -0.552,0.821 -3.271,0.141 -3.271,0.141 z" /></g><g
           transform="translate(103.8721,105.3154)"
           id="g176"><path
             id="path178"
             style="fill:#12110c;fill-opacity:1;fill-rule:nonzero;stroke:none"
             d="m 0,0 c 0,0 0.954,0.402 1.223,1.073 0,0 2.861,0.279 3.262,0.684 L 13.47,1.073 c 0,0 8.839,-0.671 12.649,2.062 0,0 1.369,0 2.322,-0.415 0,0 1.894,-0.415 2.437,-1.219 l 5.175,0.137 c 0,0 2.993,-0.962 2.715,-2.869 v -2.442 c 0,0 -0.547,-4.901 0.813,-5.179 h 3.955 c 0,0 3.268,-1.493 2.857,-3.395 0,0 0.137,-2.711 -2.715,-3.263 0,0 -2.87,-0.812 -3.811,-0.684 0,0 -0.958,-1.219 -1.099,-2.715 l -0.397,-17.824 c 0,0 -0.278,-1.903 2.583,-1.633 0,0 4.207,0.41 5.439,-1.912 0,0 1.09,-3.938 -1.086,-4.618 l -1.629,-0.808 -3.546,-0.566 c 0,0 -1.487,-0.123 -1.629,-2.706 v -4.754 c 0,0 0.142,-3.277 -2.45,-3.277 l -3.81,-0.273 c 0,0 -0.95,-0.804 -2.852,-0.261 0,0 -23.131,-0.419 -23.948,-0.142 L 2.72,-58.234 c 0,0 -2.99,-2.72 -5.44,-0.671 l -1.903,1.497 c 0,0 -1.364,-0.275 -1.898,-0.133 -0.547,0.133 -25.581,-0.278 -25.581,-0.278 0,0 -5.307,-0.552 -5.709,1.227 0,0 -0.679,6.932 -0.41,7.762 0,0 0,2.031 -1.223,2.163 0,0 -5.307,0.274 -5.444,0.826 0,0 -2.861,2.03 -2.044,4.067 0,0 0.958,2.732 3.81,3.002 0,0 4.353,-0.689 4.353,0.538 0,0 0.279,0.817 0.279,2.172 0,0 0.269,16.199 0.132,17.285 0,0 0.406,2.04 -1.364,2.04 0,0 -1.903,-0.539 -3.122,0.273 0,0 -3.267,-0.137 -3.947,2.451 0,0 -0.547,1.629 0.265,3.002 0,0 1.502,2.989 5.855,2.032 0,0 2.45,-0.685 2.719,1.077 l -0.128,6.543 c 0,0 -0.552,1.761 2.852,2.711 0,0 4.353,-1.219 5.709,0.953 0,0 1.501,3.003 2.711,0.962 0,0 2.596,-2.455 9.669,-2.194 0,0 12.247,0.962 12.516,0.428 0,0 2.994,-0.428 3.806,-1.368 z" /></g><g
           transform="translate(103.8721,105.4834)"
           id="g180"><path
             id="path182"
             style="fill:none;stroke:#12110c;stroke-width:0.01;stroke-linecap:butt;stroke-linejoin:miter;stroke-miterlimit:4;stroke-dasharray:none;stroke-opacity:1"
             d="m 0,0 c 0,0 0.944,0.397 1.223,1.077 0,0 2.856,0.278 3.262,0.685 l 8.981,-0.685 c 0,0 8.843,-0.68 12.653,2.053 0,0 1.369,0 2.322,-0.415 0,0 1.899,-0.41 2.433,-1.214 l 5.183,0.133 c 0,0 2.989,-0.963 2.711,-2.865 v -2.447 c 0,0 -0.543,-4.9 0.817,-5.17 h 3.951 c 0,0 3.263,-1.501 2.861,-3.404 0,0 0.137,-2.711 -2.719,-3.263 0,0 -2.865,-0.812 -3.806,-0.679 0,0 -0.958,-1.223 -1.104,-2.72 l -0.402,-17.828 c 0,0 -0.273,-1.894 2.583,-1.629 0,0 4.212,0.401 5.448,-1.907 0,0 1.091,-3.943 -1.086,-4.627 l -1.633,-0.813 -3.546,-0.552 c 0,0 -1.492,-0.132 -1.624,-2.706 v -4.773 c 0,0 0.132,-3.262 -2.451,-3.262 l -3.81,-0.274 c 0,0 -0.954,-0.813 -2.856,-0.27 0,0 -23.131,-0.41 -23.948,-0.128 l -2.728,-0.551 c 0,0 -2.985,-2.724 -5.435,-0.671 l -1.907,1.497 c 0,0 -1.36,-0.275 -1.898,-0.147 -0.548,0.147 -25.577,-0.273 -25.577,-0.273 0,0 -5.311,-0.548 -5.717,1.227 0,0 -0.676,6.941 -0.407,7.762 0,0 0,2.031 -1.227,2.168 0,0 -5.302,0.269 -5.443,0.817 0,0 -2.857,2.043 -2.041,4.079 0,0 0.958,2.728 3.815,3.003 0,0 4.349,-0.699 4.349,0.543 0,0 0.278,0.812 0.278,2.163 0,0 0.269,16.198 0.137,17.285 0,0 0.406,2.048 -1.369,2.048 0,0 -1.902,-0.543 -3.126,0.265 0,0 -3.262,-0.133 -3.942,2.45 0,0 -0.552,1.629 0.269,2.998 0,0 1.493,2.994 5.85,2.04 0,0 2.45,-0.689 2.724,1.077 l -0.137,6.539 c 0,0 -0.547,1.761 2.857,2.719 0,0 4.353,-1.227 5.713,0.95 0,0 1.492,2.997 2.711,0.966 0,0 2.596,-2.455 9.664,-2.194 0,0 12.252,0.963 12.517,0.424 0,0 2.998,-0.424 3.81,-1.373 z" /></g><g
           transform="translate(107.4082,51.8496)"
           id="g184"><path
             id="path186"
             style="fill:#ffffff;fill-opacity:1;fill-rule:nonzero;stroke:none"
             d="m 0,0 c 0,0 1.638,0.826 2.729,0.543 1.09,-0.27 17.002,0.133 17.002,0.133 0,0 6.936,-0.539 8.031,0.424 l 1.62,0.538 c 0,0 0.684,0.812 0.684,1.894 0,1.099 0.137,4.773 0.137,4.773 l 0.415,1.35 c 0,0 -0.141,1.361 0,37.692 0,0 0.534,2.843 -1.236,4.622 0,0 0,1.078 0.543,0.949 0.552,-0.146 0.278,-0.146 0.278,-0.146 0,0 2.446,0.694 2.848,-0.259 0,0 1.099,-3.254 0.141,-5.166 0,0 -0.274,-3.951 1.784,-3.951 0,0 0.803,-0.822 2.437,-0.407 0,0 3.536,-0.415 3.536,-1.492 0,0 0,-2.459 -2.45,-2.049 l -3.271,-0.264 c 0,0 -2.177,-0.42 -1.899,-2.995 C 33.607,33.603 33.192,15.1 33.192,15.1 c 0,0 0,-2.186 3.409,-2.049 0,0 4.212,0.141 4.212,-1.077 0,0 1.085,-2.72 -1.903,-2.862 0,0 -5.718,0.142 -5.303,-1.487 0,0 -0.415,-3.819 -0.689,-4.49 0,0 0.557,-3.135 -0.136,-3.683 0,0 -0.402,-1.761 -4.071,-1.492 0,0 -23.395,0.133 -27.073,-0.137 0,0 -2.181,0.27 -1.638,2.177" /></g><g
           transform="translate(103.2007,54.4326)"
           id="g188"><path
             id="path190"
             style="fill:#ffffff;fill-opacity:1;fill-rule:nonzero;stroke:none"
             d="m 0,0 c 0,0 2.309,-0.402 2.309,-2.583 0,-2.172 0.137,-3.399 -1.231,-3.669 -1.356,-0.273 -2.848,0.128 -3.25,1.895 C -2.591,-2.583 -1.912,-0.402 0,0" /></g><g
           transform="translate(105.916,55.5186)"
           id="g192"><path
             id="path194"
             style="fill:#ffffff;fill-opacity:1;fill-rule:nonzero;stroke:none"
             d="m 0,0 c 0,0 2.446,1.643 3.399,1.359 0,0 12.376,-0.807 16.195,-0.14 3.805,0.684 1.492,0.14 1.492,0.14 0,0 3.268,0 4.212,1.233 0,0 0.958,0.261 1.501,-0.689 l 2.031,-2.185 c 0,0 0.154,-1.347 -2.168,-1.21 0,0 -22.181,0 -22.852,-0.137 0,0 -4.216,-0.671 -3.81,1.629" /></g><g
           transform="translate(105.9116,55.5186)"
           id="g196"><path
             id="path198"
             style="fill:none;stroke:#12110c;stroke-width:0.012;stroke-linecap:butt;stroke-linejoin:miter;stroke-miterlimit:4;stroke-dasharray:none;stroke-opacity:1"
             d="m 0,0 c 0,0 2.446,1.643 3.399,1.364 0,0 12.385,-0.812 16.199,-0.145 3.811,0.688 1.492,0.145 1.492,0.145 0,0 3.272,0 4.217,1.237 0,0 0.954,0.255 1.501,-0.694 l 2.031,-2.189 c 0,0 0.15,-1.352 -2.168,-1.21 0,0 -22.181,0 -22.861,-0.142 0,0 -4.216,-0.671 -3.81,1.634 z" /></g><g
           transform="translate(73.6777,103.8145)"
           id="g200"><path
             id="path202"
             style="fill:#ffffff;fill-opacity:1;fill-rule:nonzero;stroke:none"
             d="M 0,0 C 0,0 0.954,0 0.816,-1.634 L 0.539,-42.715 c 0,0 0.415,-2.728 -1.899,-4.49 0,0 -1.232,-1.492 -1.232,0.812 l 0.556,41.903 c 0,0 0.129,3.131 2.036,4.49" /></g><g
           transform="translate(73.6777,103.8184)"
           id="g204"><path
             id="path206"
             style="fill:none;stroke:#12110c;stroke-width:0.012;stroke-linecap:butt;stroke-linejoin:miter;stroke-miterlimit:4;stroke-dasharray:none;stroke-opacity:1"
             d="M 0,0 C 0,0 0.954,0 0.825,-1.633 L 0.539,-42.724 c 0,0 0.415,-2.728 -1.903,-4.49 0,0 -1.237,-1.492 -1.237,0.813 l 0.557,41.907 c 0,0 0.132,3.135 2.044,4.494 z" /></g><g
           transform="translate(71.501,103.541)"
           id="g208"><path
             id="path210"
             style="fill:#ffffff;fill-opacity:1;fill-rule:nonzero;stroke:none"
             d="m 0,0 c 0,0 -1.634,-2.998 -1.497,-3.683 l -0.137,-9.103 c 0,0 -0.137,-5.85 0,-6.534 0.137,-0.676 -0.137,-17.82 -0.137,-17.82 0,0 -0.136,-3.257 0,-4.352 v -7.343 c 0,0 -0.273,-3.271 2.173,-2.441 0,0 23.947,0.538 25.448,0.124 0,0 2.168,-0.403 1.364,-1.493 0,0 0,-0.959 -1.51,-0.68 0,0 -11.289,-1.081 -21.488,-0.68 0,0 -6.803,-0.401 -7.218,0.401 0,0 -1.082,0.138 -1.082,4.089 0,0 0,3.664 -0.265,4.345 0,0 0.265,1.929 -3.134,2.322 0,0 -4.76,-0.821 -4.897,2.035 0,0 0.676,2.04 5.307,1.775 0,0 3.4,-0.547 2.724,2.181 l 0.402,20.12 c 0,0 0.419,3.553 -1.903,3.695 0,0 -2.168,0.11 -2.861,-0.142 0,0 -3.942,0 -3.669,2.296 0,0 1.36,2.455 5.307,1.908 0,0 2.989,-0.54 3.126,2.852 0,0 -0.137,6.944 1.492,7.209 0,0 3.409,-0.123 2.455,-1.081" /></g><g
           transform="translate(75.5762,58.5166)"
           id="g212"><path
             id="path214"
             style="fill:#ffffff;fill-opacity:1;fill-rule:nonzero;stroke:none"
             d="m 0,0 c 0,0 1.907,-2.031 5.042,-1.912 l 18.485,-0.265 c 0,0 2.054,-0.145 1.925,-1.222 0,0 -0.291,-1.63 -2.728,-1.087 L 0.41,-4.217 -2.044,-4.366 c 0,0 -1.634,0.282 0.962,3.408 z" /></g><g
           transform="translate(75.5713,58.5205)"
           id="g216"><path
             id="path218"
             style="fill:none;stroke:#12110c;stroke-width:0.012;stroke-linecap:butt;stroke-linejoin:miter;stroke-miterlimit:4;stroke-dasharray:none;stroke-opacity:1"
             d="m 0,0 c 0,0 1.908,-2.035 5.047,-1.911 l 18.49,-0.27 c 0,0 2.048,-0.141 1.925,-1.222 0,0 -0.287,-1.634 -2.724,-1.096 L 0.411,-4.229 -2.044,-4.37 c 0,0 -1.629,0.277 0.962,3.412 z" /></g><g
           transform="translate(132.7153,60.2959)"
           id="g220"><path
             id="path222"
             style="fill:#ffffff;fill-opacity:1;fill-rule:nonzero;stroke:none"
             d="m 0,0 c 0,0 1.633,-3.135 2.45,-3.563 0,0 1.497,-1.753 1.091,1.373 L 3.81,36.993 c 0,0 -0.411,1.364 0,3.532 l -1.629,2.994 c 0,0 -1.775,1.359 -1.775,-0.813 L 0.137,0.936 Z" /></g><g
           transform="translate(132.7109,60.291)"
           id="g224"><path
             id="path226"
             style="fill:none;stroke:#12110c;stroke-width:0.012;stroke-linecap:butt;stroke-linejoin:miter;stroke-miterlimit:4;stroke-dasharray:none;stroke-opacity:1"
             d="m 0,0 c 0,0 1.638,-3.13 2.459,-3.563 0,0 1.497,-1.757 1.091,1.377 l 0.269,39.193 c 0,0 -0.411,1.355 0,3.523 l -1.633,2.997 c 0,0 -1.78,1.356 -1.78,-0.816 L 0.137,0.937 Z" /></g><g
           transform="translate(102.5166,78.9229)"
           id="g228"><path
             id="path230"
             style="fill:#ffffff;fill-opacity:1;fill-rule:nonzero;stroke:none"
             d="m 0,0 c 0,0 0.137,-3.254 -0.278,-6.376 -0.221,-1.726 0.551,-9.673 -0.137,-13.748 0,0 -0.124,-1.364 -2.994,-0.146 0,0 -17.408,-0.401 -17.951,0.146 0,0 -4.759,-0.146 -5.17,2.309 0,0 0.68,18.636 0.274,19.329 0,0 -0.274,10.199 0,11.148 0,0 0.406,9.386 0.137,10.473 0,0 0.137,2.177 -0.274,3.271 0,0 0,1.36 2.318,0.547 0,0 0.804,-1.501 5.298,-0.834 0,0 3.271,-0.539 6.402,-0.128 0,0 6.931,0.543 8.706,0 0,0 2.724,0.543 3.527,-2.459 l -0.136,-8.428 0.812,-2.72 0.958,0.676 0.402,2.044 0.137,8.98 c 0,0 0.543,1.638 2.728,1.907 0,0 3.4,0.415 3.952,0.128 0.543,-0.261 7.876,-0.667 9.929,-0.261 2.035,0.407 2.437,-1.359 8.57,1.762 0,0 1.633,-0.137 1.633,-1.214 0,0 -0.556,-11.581 0,-13.744 0,0 0,-21.219 -0.424,-22.716 l 0.278,-6.802 c 0,0 0.27,-2.995 -4.481,-3.268 0,0 2.994,-0.41 -15.792,0.133 0,0 -2.989,0.14 -6.252,-1.352 0,0 -0.68,0.133 -0.68,1.899 0,0 0.539,6.388 0,12.658 L 1.228,0.149 Z" /></g><g
           transform="translate(90.269,88.5742)"
           id="g232"><path
             id="path234"
             style="fill:#12110c;fill-opacity:1;fill-rule:nonzero;stroke:none"
             d="m 0,0 c 0,0 0.411,-10.063 0,-11.422 l -0.128,-2.182 c 0,0 0.539,-1.487 1.356,-2.039 0,0 0.684,-1.898 -0.954,-1.766 0,0 -3.395,0.274 -4.212,0.145 0,0 -1.912,0 0,2.434 0,0 0.68,0.967 0.539,3.408 0,0 0,11.422 0.278,12.097 0,0 0.269,1.506 -0.685,1.916 L -5.444,2.45 -7.475,0.547 c 0,0 -0.415,-2.049 -1.368,0.128 v 1.099 l 1.232,3.263 0.817,0.142 c 0,0 1.218,-0.818 2.304,-1.1 h 6.402 l 2.309,1.1 c 0,0 0.949,-0.142 0.689,-1.365 0,0 0.397,-3.139 -1.369,-3.537 0,0 -1.09,0.398 -1.629,1.904 0,0 -1.77,0.944 -1.912,-2.181" /></g><g
           transform="translate(120.3311,92.2471)"
           id="g236"><path
             id="path238"
             style="fill:#12110c;fill-opacity:1;fill-rule:nonzero;stroke:none"
             d="m 0,0 c 0,0 -5.161,0.411 -5.289,-5.165 0,0 -0.561,-3.819 5.161,-6.27 0,0 4.221,-2.031 3.938,-4.614 0,0 -0.543,-4.627 -5.033,-2.317 0,0 -2.172,1.095 -2.027,2.317 0,0 -0.692,1.501 -1.505,1.224 0,0 -0.958,-0.266 -0.534,-4.76 0,0 0,-1.77 2.039,0 l 1.073,-0.278 c 0,0 3.678,-2.993 6.8,0.688 0,0 3.408,3.126 0.953,6.932 0,0 -1.766,2.711 -4.891,4.075 0,0 -2.994,1.373 -3.669,3.683 0,0 0.953,4.088 4.618,1.911 0,0 1.364,-1.634 2.176,-1.911 0,0 1.091,0 0.813,2.459 L 4.366,0 c 0,0 -0.273,1.515 -2.185,0 0,0 -1.77,-0.671 -2.181,0" /></g><g
           transform="translate(103.7393,95.1123)"
           id="g240"><path
             id="path242"
             style="fill:#12110c;fill-opacity:1;fill-rule:nonzero;stroke:none"
             d="m 0,0 c 0.949,-0.693 1.086,-2.049 1.086,-2.049 2.72,-7.205 5.038,-17.69 5.038,-17.69 0.675,-1.347 1.903,-2.442 1.903,-2.442 2.313,-0.812 0,-1.488 0,-1.488 -0.954,-0.415 -4.075,0.124 -4.075,0.124 -1.643,0.291 -0.967,0.821 -0.967,0.821 0.688,0.68 0.141,3.409 0.141,3.409 -0.141,1.077 -1.355,2.851 -1.355,2.851 -0.543,0.275 -1.497,-0.949 -1.497,-0.949 0,0 -1.492,-0.547 -1.638,0 -0.137,0.553 -1.086,1.068 -1.086,1.068 -1.634,0 -2.309,-4.056 -2.309,-4.056 0.949,-3.405 0,-2.853 0,-2.853 -0.812,-1.1 -3.404,-0.291 -3.404,-0.291 -1.223,0.291 -0.398,1.24 -0.398,1.24 1.488,0.261 1.894,1.904 1.894,1.904 0.685,0.949 5.029,18.63 5.029,18.63 C -1.218,-0.949 -0.954,0.68 0,0 m -2.167,-8.976 c -0.142,-0.684 -1.1,-4.494 -1.1,-4.494 l 0.817,-1.373 c 0,0 2.181,-0.124 2.993,-0.124 0.808,0 0.954,0.667 0.954,1.361 0,0.674 -1.497,4.754 -1.497,4.754 l -0.688,0.817 z" /></g><g
           transform="translate(66.8872,128.0527)"
           id="g244"><path
             id="path246"
             style="fill:#12110c;fill-opacity:1;fill-rule:nonzero;stroke:none"
             d="M 0,0 C 0,0 -1.501,-4.772 -8.167,0.137 L -31.02,0.685 c 0,0 -2.993,-0.963 -3.404,2.171 0,0 0.548,6.252 0.265,6.8 0,0 0.146,1.775 -2.852,1.775 0,0 -4.618,-0.556 -4.751,3.527 0,0 -0.821,4.367 5.572,4.217 0,0 2.031,-0.949 2.177,1.637 0,0 -0.274,17.683 -0.146,19.051 0,0 0.556,1.616 -2.574,1.895 0,0 -4.495,-0.945 -5.029,2.048 0,0 -0.278,4.481 2.711,4.759 0,0 3.674,-0.278 4.358,0.663 0,0 0.817,-0.526 0.68,2.742 l 0.137,5.571 c 0,0 0.41,1.497 2.71,1.36 0,0 4.23,-0.269 4.777,0.137 0,0 0.95,1.218 1.21,1.771 0,0 2.19,0.128 2.596,-0.402 0,0 3.258,-2.19 15.651,-1.369 0,0 1.894,0 2.305,-0.548 0,0 2.309,-1.765 3.669,0.142 0,0 2.04,0.406 8.167,0.269 0,0 6.654,-1.766 11.286,2.036 l 1.492,-0.279 c 0,0 1.903,-3.117 3.276,-2.168 0,0 4.075,0.411 4.759,-0.41 0,0 1.364,-2.04 0.671,-7.351 0,0 -0.808,-2.309 3.135,-2.309 0,0 4.485,0.808 3.947,-3.391 0,0 1.227,-4.764 -6.256,-4.088 0,0 -0.958,-1.364 -0.826,-2.314 0,0 -0.132,-15.501 -0.265,-17.28 0,0 -0.132,-2.433 3.131,-2.309 0,0 4.353,0.287 4.485,-3.674 0,0 0.543,-5.165 -5.709,-4.207 0,0 -1.907,-0.282 -2.185,-1.501 l -0.265,-6.8 c 0,0 0.137,-3.403 -3.682,-2.591 C 23.66,0.265 2.994,-0.137 1.218,0.397 1.218,0.397 0.269,0.534 0,0" /></g><g
           transform="translate(66.8872,128.0488)"
           id="g248"><path
             id="path250"
             style="fill:none;stroke:#12110c;stroke-width:0.01;stroke-linecap:butt;stroke-linejoin:miter;stroke-miterlimit:4;stroke-dasharray:none;stroke-opacity:1"
             d="m 0,0 c 0,0 -1.501,-4.773 -8.167,0.137 l -22.857,0.547 c 0,0 -2.994,-0.962 -3.404,2.176 0,0 0.552,6.252 0.269,6.8 0,0 0.141,1.77 -2.857,1.77 0,0 -4.618,-0.556 -4.75,3.528 0,0 -0.817,4.371 5.576,4.221 0,0 2.031,-0.95 2.172,1.633 0,0 -0.274,17.691 -0.141,19.055 0,0 0.556,1.621 -2.578,1.895 0,0 -4.495,-0.946 -5.029,2.052 0,0 -0.278,4.482 2.715,4.755 0,0 3.669,-0.273 4.358,0.671 0,0 0.817,-0.534 0.675,2.734 l 0.142,5.576 c 0,0 0.406,1.496 2.71,1.355 0,0 4.226,-0.265 4.773,0.141 0,0 0.954,1.214 1.214,1.767 0,0 2.185,0.132 2.596,-0.402 0,0 3.254,-2.186 15.651,-1.365 0,0 1.894,0 2.305,-0.547 0,0 2.309,-1.766 3.669,0.141 0,0 2.044,0.406 8.167,0.265 0,0 6.659,-1.757 11.286,2.04 l 1.496,-0.278 c 0,0 1.903,-3.117 3.272,-2.168 0,0 4.075,0.406 4.768,-0.406 0,0 1.355,-2.045 0.667,-7.351 0,0 -0.813,-2.318 3.13,-2.318 0,0 4.494,0.816 3.947,-3.387 0,0 1.227,-4.768 -6.252,-4.088 0,0 -0.962,-1.364 -0.825,-2.318 0,0 -0.137,-15.501 -0.265,-17.276 0,0 -0.137,-2.441 3.126,-2.318 0,0 4.353,0.292 4.49,-3.673 0,0 0.538,-5.161 -5.714,-4.203 0,0 -1.902,-0.287 -2.18,-1.501 l -0.27,-6.8 c 0,0 0.146,-3.408 -3.677,-2.595 -0.543,0 -21.214,-0.398 -22.99,0.136 C 1.218,0.401 0.269,0.534 0,0 Z" /></g><g
           transform="translate(41.1738,184.0928)"
           id="g252"><path
             id="path254"
             style="fill:#ffffff;fill-opacity:1;fill-rule:nonzero;stroke:none"
             d="m 0,0 c 0,0 0.274,-2.715 0.274,-3.395 0,-0.68 -0.415,-39.316 -0.415,-39.316 0,0 0.415,-3.002 -2.176,-4.49 0,0 -0.676,-0.278 -0.817,1.625 l 0.278,40.812 c 0,0 0.269,5.038 2.856,4.764" /></g><g
           transform="translate(41.1787,184.0972)"
           id="g256"><path
             id="path258"
             style="fill:none;stroke:#12110c;stroke-width:0.012;stroke-linecap:butt;stroke-linejoin:miter;stroke-miterlimit:4;stroke-dasharray:none;stroke-opacity:1"
             d="m 0,0 c 0,0 0.273,-2.715 0.273,-3.395 0,-0.68 -0.415,-39.32 -0.415,-39.32 0,0 0.415,-3.002 -2.18,-4.499 0,0 -0.676,-0.274 -0.817,1.629 l 0.269,40.817 c 0,0 0.274,5.038 2.87,4.768 z" /></g><g
           transform="translate(36.6841,136.4854)"
           id="g260"><path
             id="path262"
             style="fill:#ffffff;fill-opacity:1;fill-rule:nonzero;stroke:none"
             d="M 0,0 C 0,0 0.265,38.362 0.137,39.047 0,39.718 0.265,38.495 0.265,38.495 c 0,0 -0.397,6.658 1.368,9.386 0,0 -0.547,2.314 -3.677,-0.538 l -0.124,-5.581 c 0,0 0,-3.13 -2.865,-2.993 0,0 -3.267,0.141 -4.768,-1.365 0,0 -0.813,-2.988 2.309,-2.45 0,0 4.905,0 5.174,-2.026 L -2.587,12.38 c 0,0 1.09,-3.4 -2.724,-3.4 0,0 -4.623,0.261 -4.49,-2.596 0,0 0.953,-2.45 4.905,-1.629 0,0 2.852,-0.547 2.728,-3.254 v -5.183 c 0,0 -0.287,-2.044 2.433,-2.168 h 21.227 c 0,0 1.087,-0.136 1.087,1.228 0,0 -0.138,1.073 -1.762,1.073 L 3.139,-3.267 C 3.139,-3.267 0.265,-4.221 0,0" /></g><g
           transform="translate(40.3574,136.2075)"
           id="g264"><path
             id="path266"
             style="fill:#ffffff;fill-opacity:1;fill-rule:nonzero;stroke:none"
             d="m 0,0 c 0,0 -0.539,-1.912 1.492,-1.492 h 14.013 l 3.81,-0.813 c 0,0 3.956,0.95 0,3.131 0,0 -12.516,-0.146 -13.607,0.128 0,0 -2.578,0.679 -3.125,0.817 C 2.583,1.771 1.219,2.309 0,0" /></g><g
           transform="translate(40.353,136.2119)"
           id="g268"><path
             id="path270"
             style="fill:none;stroke:#12110c;stroke-width:0.012;stroke-linecap:butt;stroke-linejoin:miter;stroke-miterlimit:4;stroke-dasharray:none;stroke-opacity:1"
             d="M 0,0 C 0,0 -0.539,-1.92 1.492,-1.492 H 15.51 l 3.815,-0.821 c 0,0 3.955,0.949 0,3.134 0,0 -12.522,-0.145 -13.612,0.137 0,0 -2.583,0.676 -3.13,0.808 C 2.583,1.766 1.218,2.309 0,0 Z" /></g><g
           transform="translate(63.6245,134.2959)"
           id="g272"><path
             id="path274"
             style="fill:#ffffff;fill-opacity:1;fill-rule:nonzero;stroke:none"
             d="m 0,0 c 0,0 -2.591,0 -2.455,-3.382 0,0 0.274,-2.6 2.989,-2.6 0,0 2.451,0.423 2.186,3.13 0,0 -1.502,3.408 -2.72,2.852" /></g><g
           transform="translate(65.5229,135.6689)"
           id="g276"><path
             id="path278"
             style="fill:#ffffff;fill-opacity:1;fill-rule:nonzero;stroke:none"
             d="m 0,0 c 0,0 1.219,1.36 2.044,1.36 0,0 13.599,-1.228 15.912,0.402 0,0 2.048,0.406 2.583,0 0,0 2.04,-1.63 2.04,-2.579 0,0 -0.133,-1.236 -2.575,-0.556 0,0 -15.386,-0.128 -16.194,-0.128 0,0 -4.221,-0.949 -3.81,1.501" /></g><g
           transform="translate(65.5186,135.6689)"
           id="g280"><path
             id="path282"
             style="fill:none;stroke:#12110c;stroke-width:0.012;stroke-linecap:butt;stroke-linejoin:miter;stroke-miterlimit:4;stroke-dasharray:none;stroke-opacity:1"
             d="m 0,0 c 0,0 1.223,1.364 2.044,1.364 0,0 13.603,-1.232 15.916,0.398 0,0 2.053,0.41 2.587,0 0,0 2.04,-1.63 2.04,-2.583 0,0 -0.132,-1.237 -2.574,-0.552 0,0 -15.386,-0.133 -16.203,-0.133 0,0 -4.221,-0.949 -3.81,1.506 z" /></g><g
           transform="translate(67.6997,131.585)"
           id="g284"><path
             id="path286"
             style="fill:#ffffff;fill-opacity:1;fill-rule:nonzero;stroke:none"
             d="m 0,0 c 0,0 0,1.082 1.894,1.082 l 19.06,0.141 c 0,0 1.761,-0.94 1.761,2.314 0,0 0.698,14.834 0.76,31.161 0.026,4.856 0.238,9.955 0.053,14.68 0,0 -0.406,2.035 -0.949,2.455 0,0 0,2.176 2.322,1.351 0,0 2.026,-0.129 1.487,-3.254 l 0.133,-4.764 c 0,0 -0.406,-2.04 3.267,-1.497 0,0 3.669,-0.543 3.801,-1.903 0,0 1.1,-2.728 -3.249,-2.45 h -3.126 c 0,0 -1.364,-0.813 -0.958,-2.451 L 25.85,17.144 c 0,0 -0.283,-3.4 2.993,-3.276 0,0 3.4,0.141 4.071,-0.945 0,0 2.322,-3.404 -2.715,-3.131 0,0 -3.131,0.142 -3.811,-0.401 0,0 -0.538,-0.693 -0.949,-7.078 0,0 0.269,-3.81 -2.587,-3.399 0,0 -18.91,-0.265 -20.671,0.137 0,0 -1.912,-0.548 -2.181,0.949" /></g><g
           transform="translate(43.2051,185.3291)"
           id="g288"><path
             id="path290"
             style="fill:#ffffff;fill-opacity:1;fill-rule:nonzero;stroke:none"
             d="m 0,0 -0.397,-43.673 c 0,0 -0.137,-2.027 3.262,-2.437 0,0 3.952,-0.411 4.897,0 0,0 2.578,0.132 9.249,-0.142 0,0 1.634,-1.624 1.766,0.406 0,0 1.091,35.378 0.547,42.72 0,0 -0.132,3.126 -2.454,3.263 0,0 -10.331,-0.813 -11.285,0 L 1.51,1.228 C 1.51,1.228 -0.132,1.099 0,0" /></g><g
           transform="translate(86.3311,183.6953)"
           id="g292"><path
             id="path294"
             style="fill:#ffffff;fill-opacity:1;fill-rule:nonzero;stroke:#12110c;stroke-width:0.012;stroke-linecap:butt;stroke-linejoin:miter;stroke-miterlimit:4;stroke-dasharray:none;stroke-opacity:1"
             d="m 0,0 -0.133,-42.993 c 0,0 1.091,-3.82 2.866,-3.413 0,0 0.269,0.821 0.402,2.19 L 3.687,-3.263 C 3.687,-3.263 2.322,3.268 0,0" /></g><g
           transform="translate(86.3311,183.6953)"
           id="g296"><path
             id="path298"
             style="fill:none;stroke:#12110c;stroke-width:0.012;stroke-linecap:butt;stroke-linejoin:miter;stroke-miterlimit:4;stroke-dasharray:none;stroke-opacity:1"
             d="m 0,0 -0.133,-42.993 c 0,0 1.091,-3.82 2.866,-3.413 0,0 0.269,0.821 0.402,2.19 L 3.687,-3.263 C 3.687,-3.263 2.322,3.268 0,0 Z" /></g><g
           transform="translate(64.7148,183.3291)"
           id="g300"><path
             id="path302"
             style="fill:#ffffff;fill-opacity:1;fill-rule:nonzero;stroke:none"
             d="m 0,0 c 0,0 -0.41,-20.539 -0.282,-21.228 l -0.257,-17.28 -0.551,-5.969 c 0,0 0.808,-1.241 1.492,-0.419 0,0 4.358,1.082 7.077,0.679 0,0 8.711,-0.821 10.473,0.544 0,0 1.36,-0.676 1.77,1.501 0,0 0.539,38.084 0.269,38.768 0,0 0.548,5.435 0.27,5.973 0,0 -0.137,1.237 -2.437,0.155 0,0 0.264,-1.099 -12.654,-0.693 0,0 -4.9,0.141 -5.17,-2.031" /></g><g
           transform="translate(60.5117,170.7461)"
           id="g304"><path
             id="path306"
             style="fill:#12110c;fill-opacity:1;fill-rule:nonzero;stroke:none"
             d="m 0,0 -1.231,-2.596 c 0,0 -2.981,-13.188 -4.61,-15.903 0,0 -0.274,-2.729 -2.587,-0.547 0,0 -5.311,16.728 -5.581,17.275 l -1.77,1.224 c 0,0 -1.073,1.496 0.821,1.629 l 5.033,-0.133 c 0,0 1.629,-1.355 -0.543,-2.869 0,0 0.27,-2.173 3.126,-10.46 0,0 0.812,-3.13 1.766,-0.816 l 2.724,9.66 -0.817,2.856 c 0,0 -0.821,1.36 0.411,1.492 0,0 2.857,0.27 3.258,-0.812" /></g><g
           transform="translate(68.4102,168.5654)"
           id="g308"><path
             id="path310"
             style="fill:#12110c;fill-opacity:1;fill-rule:nonzero;stroke:none"
             d="m 0,0 -0.146,-14.42 -0.397,-1.086 c 0,0 -1.364,-1.762 -0.415,-1.903 0,0 -1.214,-0.821 8.702,-0.953 0,0 3.819,-0.676 2.861,4.22 0,0 -0.406,1.767 -1.775,-0.821 0,0 -0.406,-2.167 -5.293,-1.492 0,0 -1.091,0.949 -1.091,2.035 v 5.991 c 0,0 -0.145,1.502 2.172,1.347 0,0 2.583,-1.625 2.994,-0.936 0,0 0.949,2.168 0,3.532 0,0 -1.228,0.128 -1.36,-0.415 0,0 -0.817,-1.624 -3.13,-0.671 0,0 -1.086,2.172 -0.407,3.943 0,0 -0.269,3.403 2.045,3.126 0,0 2.719,-0.539 2.984,-1.365 0,0 0.68,-1.638 1.369,0.269 L 8.424,2.724 c 0,0 -0.397,0.954 -1.082,0.68 0,0 -4.627,-0.68 -5.178,-0.128 L -1.51,2.861 c 0,0 -0.538,-1.364 1.1,-2.036 C -0.41,0.825 0,0.547 0,0" /></g></g></g></g></svg>