<?xml version="1.0" encoding="UTF-8"?>
<svg xmlns="http://www.w3.org/2000/svg" height="304.909822735" width="327.965819871" version="1.1"  viewBox="0 0 320 297.5">
	<path fill-opacity="0" d="m0 0h320v297.5h-320v-297.5z"/>
	<path fill="#4a8156" d="m101.41 8.39c0.83-0.755 1.99-0.93 3.08-0.9 36.99 0 73.985 0.01 110.98-0.005 1.32-0.035 2.615 0.275 3.895 0.565 15.215 15.485 30.695 30.72 46 46.12 11.165 11.135 22.295 22.31 33.465 33.445 0.91 0.865 1.755 2.01 1.67 3.34v111.58c-0.01 0.75-0.105 1.505-0.25 2.25-0.09 0.245-0.275 0.74-0.365 0.985-26.815 26.86-53.64 53.705-80.515 80.505-0.59 0.215-1.175 0.445-1.755 0.685-36.87 0.09-73.745-0.01-110.62 0.055-1.62 0.08-3.23-0.08-4.77-0.585-26.57-26.63-53.205-53.21-79.795-79.83-0.92-1-2.1-2.105-1.93-3.595 0.01-37.35 0-74.705 0.005-112.06-0.085-1.175 0.57-2.245 1.385-3.04 26.505-26.495 53.01-53.01 79.525-79.51z"/>
	<path fill="#fafcfb" d="m105.72 15.555c36.52-0.005 73.04-0.015 109.56 0.005 25.56 25.54 51.055 51.155 76.685 76.63 0 36.515 0.005 73.035-0.005 109.55-2.095 2.085-4.195 4.165-6.22 6.315-0.51-0.175-1.145-0.595-1.535 0.01 0.1 0.395 0.225 0.785 0.37 1.175-23.38 23.125-46.525 46.495-69.82 69.71-36.165 0.035-72.325 0.045-108.49-0.005-25.78-25.7-51.49-51.47-77.235-77.205 0.01-36.515 0.01-73.03 0.005-109.54 25.62-25.485 51.13-51.09 76.685-76.645z"/>
	<g fill="#4a8156">
		<path d="m141.32 28.385c1.095 0.74 2.245 1.385 3.435 1.95 0.57 0.175 1.13 0.375 1.69 0.585-0.79 2.285-0.405 4.745-0.03 7.07 0.325 3.38 1.015 6.715 1.245 10.1 0.195 0.69 0.545 1.47 0.06 2.135-0.79 1.995-2.58 3.29-3.79 4.995 0.015-0.27 0.045-0.815 0.06-1.085-1.14-0.465-2.28-0.945-3.475-1.26-0.825-0.96-1.44-2.07-2.045-3.18-0.89 0.2-1.795 0.335-2.69 0.475-0.505 0.185-1.015 0.36-1.525 0.525-1.165 0.295-2.325 0.61-3.47 0.975-1.585 0.565-3.18 1.1-4.8 1.535 0.535 1.99 0.82 4.115 0.38 6.15-0.775 1.055-2.1 1.48-3.17 2.155-0.39-0.02-1.165-0.055-1.555-0.075 0.785-0.57 1.595-1.11 2.405-1.645 0.09-1.825-0.48-3.545-1.51-5.035-0.03-0.235-0.1-0.705-0.13-0.94-0.81-1.525-1.645-3.06-2.09-4.745-0.595-0.49-1.205-0.96-1.83-1.405 1.295-1.135 2.42-2.45 3.36-3.895 1.085 2.035 1.83 4.22 2.75 6.33 0.845-0.56 1.76-1.115 2.055-2.16-0.545-0.755-1.08-1.51-1.645-2.245 0.885-1.28 1.915-2.445 2.8-3.72 0.165 0.175 0.495 0.53 0.66 0.705 0.03 0.25 0.1 0.745 0.135 0.995 0.205 0.5 0.405 1 0.6 1.505 0.16 0.52 0.315 1.04 0.465 1.565 0.15 0.34 0.45 1.015 0.6 1.355 0.72-0.375 1.44-0.75 2.16-1.13-0.21-0.555-0.41-1.12-0.6-1.685-0.12-0.28-0.355-0.845-0.475-1.125-0.305-0.16-0.905-0.48-1.21-0.64 1.365-0.955 2.475-2.19 3.615-3.385 0.36 1.005 0.695 2.025 0.93 3.075 0.305 1.11 0.6 2.22 0.955 3.315 0.8-0.27 1.6-0.525 2.41-0.77-0.465-1.805-0.78-3.645-1.255-5.45-0.415-1.7-0.755-3.425-0.9-5.175-0.485-1.055-1.3-1.815-2.53-1.755 1.71-1.01 3.47-2.105 4.455-3.9 0.15 0.17 0.46 0.515 0.615 0.69 0.07 0.495 0.15 0.99 0.23 1.485 0.58 2.495 1.03 5.02 1.53 7.53 0.265 1.1 0.44 2.22 0.72 3.32 0.075 0.535 0.16 1.07 0.24 1.605 0.585 1.935 0.87 3.94 1.41 5.88 0.37-0.015 1.105-0.04 1.47-0.055 0.14-0.46 0.28-0.915 0.41-1.38-0.505-1.38-0.51-2.865-0.78-4.295-0.675-5.305-1.605-10.57-2.345-15.87z"/>
		<path d="m185.71 29.98c0.53 0 1.06-0.005 1.595-0.005 0.395 0.405 0.79 0.805 1.19 1.205 0.01 0.31 0.035 0.925 0.05 1.235-0.765 0.5-1.475 1.405-2.495 1.12-0.585-0.32-1.1-0.75-1.63-1.135 0.02-0.295 0.06-0.88 0.08-1.175 0.4-0.415 0.805-0.83 1.21-1.245z"/>
		<path d="m177.14 32h1.5c-0.145 0.22-0.425 0.655-0.57 0.875-0.005 1.335-0.03 2.69-0.37 3.995-0.055 0.225-0.17 0.68-0.225 0.905 1.115 0.955 2.495 1.67 3.275 2.965 1.15 1.51 1.38 3.445 2.18 5.13 1.23 0.17 2.445 0.43 3.67 0.655 0.26 0.16 0.775 0.48 1.035 0.64-0.415 1.745-0.845 3.55-0.3 5.32 0.53-0.21 1.06-0.425 1.595-0.645 0.325-1.04 0.585-2.1 0.885-3.15 0.16-0.505 0.33-1.01 0.505-1.51 0.165-0.745 0.34-1.485 0.535-2.225-0.715-0.275-1.435-0.54-2.145-0.825-0.465-0.07-0.93-0.14-1.39-0.21-0.625-0.2-1.245-0.39-1.87-0.565 0.01-0.83 0.03-1.66 0.07-2.49 0.28-0.74 0.535-1.49 0.79-2.235 0.83-1.11 1.825-2.085 2.815-3.055 2.615-1.065 5.395-0.48 8.07-0.045 0.455-0.455 0.92-0.905 1.39-1.355-0.24 0.685-0.465 1.375-0.685 2.065-0.27 0.69-0.525 1.39-0.79 2.08-0.055 0.22-0.155 0.665-0.205 0.89-0.625 1.69-1.155 3.415-1.76 5.115-0.065 0.215-0.185 0.635-0.245 0.845-0.365 1.015-0.7 2.035-1.02 3.065-0.24 0.69-0.47 1.39-0.705 2.085-0.185 0.51-0.375 1.015-0.565 1.52-0.02 0.24-0.05 0.72-0.07 0.955-0.69 1.13-1.62 2.075-2.725 2.795-0.175-0.075-0.515-0.22-0.69-0.295-0.9 0.585-1.805 1.17-2.665 1.81 0-0.34 0.005-1.02 0.005-1.365-1.015-1.04-2.25-1.935-2.95-3.23-0.125-0.945-0.09-1.9-0.09-2.845-0.745-0.145-1.49-0.285-2.22-0.465-1.725-0.53-3.52-0.735-5.32-0.725-0.205 0.955-0.305 1.925-0.425 2.89-0.6 0.895-1.27 1.74-1.98 2.545l-1.4 0.66c-1.01-0.19-2.005-0.435-3.005-0.645-1.94-1.505-2.18-3.985-2.255-6.25-0.115-0.14-0.35-0.41-0.465-0.55-2.62-0.245-5.255-0.055-7.88-0.12-2.875-0.16-5.67 0.805-8.55 0.55 0.02-1.135 0.04-2.265 0.06-3.4 0.795-0.18 1.595-0.35 2.375-0.595 3.1-0.32 6.295 0.325 9.33-0.545-0.655-0.875-1.16-2.045-2.33-2.31-3.34-0.63-6.66 0.565-10.015 0.385 1.39-1.395 2.23-3.18 2.73-5.07 0.6 0.325 1.115 0.95 1.855 0.92 2.475 0.105 5.015-0.25 7.395 0.625 0.815 0.665 1.665 1.29 2.41 2.04 0.215 0.54 0.435 1.085 0.66 1.63 0.225 0.745 0.47 1.485 0.72 2.225 0.775-0.02 1.56-0.04 2.34-0.06 0.005-0.275 0.015-0.82 0.02-1.09 1.15-1.71 2.53-3.245 4.32-4.305 0.225-0.025 0.685-0.065 0.915-0.09 0.32-0.16 0.955-0.485 1.275-0.645-0.02-0.915-0.035-1.825-0.04-2.735-0.445-0.03-1.335-0.085-1.785-0.115 0.83-0.415 1.68-0.79 2.535-1.15 0.56-0.15 1.125-0.29 1.695-0.42 0.185-0.215 0.56-0.64 0.75-0.85z"/>
		<path d="m123.2 32.99l1.56-0.045c0.465 0.47 0.93 0.935 1.395 1.405-0.23 0.69-0.48 1.375-0.725 2.06-0.485 0.21-0.97 0.42-1.45 0.635-0.48-0.225-0.96-0.45-1.44-0.67-0.235-0.68-0.475-1.36-0.685-2.045 0.45-0.445 0.895-0.89 1.345-1.34z"/>
		<path d="m124.76 37.45c0.23 0.015 0.69 0.04 0.92 0.05 0.33 0.165 0.985 0.5 1.315 0.665 0.88 1.385 0.085 3.085-1.525 3.365-1.295-0.385-2.19-1.38-2.135-2.775 0.48-0.435 0.955-0.865 1.425-1.305z"/>
	</g>
	<g fill="#fafcfb">
		<path d="m189.76 39.885c0.845-0.575 1.72-1.09 2.6-1.61 0.045 0.89 0.09 1.78 0.13 2.675-0.6-0.005-1.2-0.01-1.8-0.01-0.23-0.265-0.695-0.79-0.93-1.055z"/>
		<path d="m172.15 41.61c0.345-0.01 1.03-0.03 1.37-0.04-0.255 0.795-0.505 1.595-0.725 2.4-0.275 0-0.82-0.005-1.095-0.01-0.205-0.245-0.615-0.74-0.82-0.985 0.42-0.455 0.845-0.91 1.27-1.365z"/>
		<path d="m177.24 41.85c0.625 0.845 1.235 1.7 1.855 2.55-0.81 0.025-1.62 0.055-2.42 0.1 0.2-0.88 0.375-1.765 0.565-2.65z"/>
	</g>
	<g fill="#4a8156">
		<path d="m205.46 42.61c1.13 0.255 2.275 0.43 3.4 0.725 0.29 0.055 0.865 0.165 1.155 0.22 0.915 0.27 1.845 0.5 2.765 0.765 1.35 0.31 2.705 0.62 4.04 0.995 1.335 0.315 2.67 0.635 3.995 1 1.965 0.485 3.95 0.875 5.94 1.265 0.49 0.29 0.985 0.575 1.485 0.865-1.535 0.05-3.065 0.225-4.55 0.61-0.845 0.595-1.66 1.225-2.445 1.895-0.76-0.67-1.56-1.285-2.41-1.835-0.895-0.135-1.8-0.195-2.685-0.395-0.825-0.165-1.65-0.305-2.46-0.515-0.85-0.155-1.695-0.305-2.525-0.515-0.64-0.08-1.28-0.16-1.915-0.23 3.275 2.245 6.905 3.915 10.22 6.105 1.545 0.87 3.175 1.81 4.065 3.415 0.735 1.11 0.46 2.485 0.515 3.74-1.355 2.1-2.815 4.135-4.44 6.035-0.02 0.255-0.06 0.77-0.08 1.03 0.255 0.22 0.765 0.655 1.02 0.875 2.095-1.825 3.46-4.275 5.28-6.34 1.975-2.545 3.865-5.15 5.78-7.74-0.2-0.335-0.59-1.01-0.79-1.345 0.675 0.205 1.345 0.43 2.015 0.665 1.305 0.055 2.605 0.08 3.915 0.12-2.73 4.61-6.74 8.3-9.74 12.725 0.59 0.585 1.18 1.175 1.77 1.765 0.45-0.075 0.9-0.15 1.36-0.23 0.975-0.425 1.845 0.205 2.695 0.605 0.725 0.06 1.455 0.12 2.19 0.185 0.02 0.845 0.05 1.69 0.1 2.53 0.36 1.785 0.52 3.675 2.025 4.92 0.8-0.79 1.61-1.575 2.445-2.33 2.45-1.6 4.205-4.02 6.38-5.945-0.02-0.605-0.035-1.21-0.05-1.815 0.955 0.5 1.92 0.985 2.875 1.49 0.905 0.04 1.81 0.075 2.72 0.11l-0.02 0.66c-2.14 1.425-3.685 3.545-5.805 4.99-1.92 1.935-4.195 3.465-6.05 5.465-0.98 1.01-2.175 1.77-3.3 2.61-1.145-1.445-2.235-2.94-3.59-4.195-1.045 0.34-2.15 0.635-3.25 0.44-1.47-0.405-2.445-1.655-3.5-2.66-0.215-1.04-0.58-2.095-0.26-3.16 0.065-0.22 0.205-0.665 0.275-0.885-0.415-0.42-0.83-0.84-1.24-1.255-0.67 0.435-1.345 0.875-2 1.33-0.565 0.21-1.12 0.43-1.665 0.66-1.36-0.19-2.74-0.615-4.095-0.155-0.005-1.245-0.27-2.46-0.745-3.61-0.6-1.28 0-2.565 0.595-3.71-4.27-3.735-9.66-5.765-14.605-8.415-0.975-0.465-1.95-0.91-2.965-1.275-1.52-0.715-3.07-1.365-4.615-2.03 0.86-0.395 1.72-0.785 2.585-1.165 0.92-0.7 1.76-1.49 2.595-2.285 0.24 0.665 0.495 1.33 0.75 1.99 1.585 0.54 3.15 1.16 4.625 1.96 0.99 0.505 1.99 1 2.98 1.51 0.675 0.325 1.35 0.65 2.025 0.985 2.045 1.095 3.975 2.38 6 3.51 0.985 0.595 1.955 1.205 2.94 1.8 0.455-0.66 0.9-1.335 1.355-2.005-0.61-0.445-1.22-0.885-1.84-1.3-1.225-1.035-2.565-1.915-3.96-2.7-3.825-2.23-7.76-4.365-11.925-5.885 0.295-1.375 0.805-2.685 1.28-4 0.45-0.885 0.895-1.77 1.365-2.64z"/>
		<path d="m100.15 43.205c3.66 5.61 7.04 11.405 10.385 17.205-3.995 2.765-8.005 5.51-12.035 8.23 0.025-2.295 0.015-4.615-0.66-6.835-0.17-0.525-0.33-1.05-0.485-1.58-0.745-1.565-1.6-3.07-2.525-4.53 1.24 1.065 2.375 2.255 3.53 3.415 0.545 1.235 1.185 2.435 1.93 3.56 1.715-1.245 3.47-2.435 5.275-3.545-1.96-2.975-3.65-6.125-5.57-9.13-0.455-0.805-1.23-1.33-2.025-1.76 0.46-0.66 0.92-1.32 1.4-1.965 0.065-0.25 0.19-0.755 0.255-1.005 0.19-0.68 0.365-1.37 0.53-2.06z"/>
		<path d="m114.9 46.74c0.28-0.655 0.57-1.305 0.85-1.96 0.38 0.845 0.775 1.68 1.19 2.505 0.045 0.235 0.13 0.71 0.17 0.945 0.62 1.185 1.22 2.38 1.865 3.555 0.035 0.235 0.1 0.7 0.135 0.935 0.535 1.005 1.055 2.025 1.605 3.03 0.62 1.715 1.305 3.675 0.51 5.45-0.47 1.28-1.69 2.035-2.865 2.575-0.42 0.08-1.26 0.24-1.68 0.32 0.99-0.925 2.595-1.64 2.705-3.14-0.51-1.37-1.27-2.63-1.94-3.925-0.4 0.23-0.795 0.465-1.195 0.695-0.475 0.165-0.955 0.32-1.44 0.465-0.64 0.37-1.3 0.715-1.96 1.04-0.585-0.83-1.155-1.67-1.79-2.46-0.605-2.11-1.135-4.565 0.025-6.58 0.76-1.585 2.065-3 3.815-3.45z"/>
	</g>
	<path fill="#fafcfb" d="m170.54 48.005c0.69 0.015 1.385 0.03 2.08 0.045 0.065 1.355-0.535 2.445-1.955 2.635-0.055-0.895-0.09-1.79-0.125-2.68z"/>
	<path fill="#fafcfb" d="m114.08 51.745c0.165-0.2 0.495-0.6 0.66-0.8 0.38 0.83 0.765 1.655 1.17 2.475-0.615 0.205-1.225 0.43-1.835 0.64 0.005-0.77 0-1.545 0.005-2.315z"/>
	<g fill="#4a8156">
		<path d="m133.82 54.885c0.685-0.645 1.315-1.38 2.085-1.92 0.76 0.28 1.52 0.635 2.1 1.22 0.45 1.24-0.515 2.14-1.255 2.975-0.43-0.045-1.29-0.145-1.72-0.19-0.405-0.695-0.805-1.395-1.21-2.085z"/>
		<path d="m89.865 61.995c0.665 0.71 1.325 1.425 1.97 2.155 2.21 3.005 4.855 5.66 7.14 8.615 0.065 0.445 0.13 0.89 0.2 1.34 0.11 0.575 0.14 1.16 0.085 1.745-0.075 0.245-0.22 0.73-0.295 0.975-0.745 0.74-1.49 1.475-2.23 2.22-0.35-0.025-1.05-0.08-1.4-0.105 0.54-0.54 1.08-1.085 1.625-1.625-0.01-0.68-0.02-1.355-0.025-2.035-0.765-0.99-1.495-2.005-2.31-2.95-1.575 1.1-3.095 2.285-4.39 3.71-2.025-2.05-4.7-4.355-4.3-7.55 0.05-2.76 2.465-4.445 3.93-6.495z"/>
		<path d="m76.725 65.115l1.275-0.75c-0.22 0.76-0.41 1.53-0.585 2.305 3.805 3.645 7.425 7.48 11.225 11.13-0.665 0.68-1.375 1.31-2.09 1.935-2.655-1.525-4.365-4.19-6.905-5.875-2.53-2.58-5.32-4.87-8-7.285 0.86-0.055 1.72-0.115 2.585-0.17 0.82-0.445 1.66-0.87 2.495-1.29z"/>
	</g>
	<path fill="#fafcfb" d="m89.97 67.375c0.57 0.495 1.14 0.995 1.715 1.485-0.22 1.14-1.11 1.655-2.195 1.825 0.055-1.115 0.155-2.235 0.48-3.31z"/>
	<g fill="#4a8156">
		<path d="m69.52 68.83c4.215 3.11 7.99 6.78 12 10.14 1.155 0.845 2.23 1.815 3.075 2.975-0.695 1.59-2.035 2.745-2.995 4.16 0.235 0.535 0.465 1.07 0.695 1.61 0.355 1.255-0.045 2.5-0.35 3.715-1.52 1.6-3.565 2.81-5.84 2.68-1.3 1.945-2.44 3.99-3.715 5.955-0.345-0.01-1.035-0.03-1.375-0.04 0.17 0.63 0.355 1.26 0.465 1.91-0.72 1.855-1.77 3.565-2.625 5.365-0.615 1.26-1.075 2.58-1.54 3.9-1.06-0.22-2.09-0.555-3.085-0.98-0.52-0.195-1.04-0.395-1.555-0.6-0.225-0.04-0.68-0.115-0.905-0.15l-1.545-0.78c-0.85-0.305-1.685-0.635-2.505-0.99-2.225-0.735-4.355-1.975-6.785-1.68 0.01-1.08 0.015-2.155 0.02-3.235-0.37-0.615-0.735-1.23-1.105-1.84 0.34 0.02 1.02 0.06 1.355 0.08 0.52 0.27 1.035 0.54 1.55 0.81 0.855 0.285 1.69 0.615 2.52 0.955 1.19 0.445 2.345 0.98 3.495 1.52 1.17 0.415 2.31 0.905 3.485 1.32 0.835 0.365 1.69 0.7 2.545 1.015 1.005-1.675 1.83-3.44 2.68-5.195-0.305 0.045-0.91 0.125-1.215 0.165-0.915 0.495-1.83 0.98-2.715 1.52-0.72-0.3-1.585-0.55-1.925-1.335-0.245-1.12-0.18-2.28-0.245-3.42-0.94-1.235-1.05-2.815-1.34-4.285 0.58-0.085 1.16-0.155 1.74-0.21 0.525-0.305 1.045-0.605 1.565-0.91 0.145 0.165 0.44 0.495 0.585 0.655 1.27-1.325 2.88-2.335 4.78-2.315 0.2 0.37 0.595 1.1 0.795 1.47 0.045 1.325 0.065 2.655 0.105 3.985 1.23-1.595 2.34-3.285 3.265-5.075-0.395-2.295-0.53-4.625-0.375-6.955 0.175 0.205 0.535 0.615 0.71 0.82 0.285-0.33 0.575-0.66 0.865-0.985 0.815-0.135 1.63-0.29 2.43-0.505 0.61-0.05 1.215-0.1 1.825-0.145 0.455-0.5 0.905-0.995 1.355-1.495-3.43-2.445-6.275-5.615-9.68-8.09-0.28 0.205-0.83 0.61-1.105 0.815 0.525-2.07 0.6-4.2 0.62-6.325z"/>
		<path d="m160.45 71.49c-0.345-1.265 1.205-1.43 2.04-1.74 0.26 0.23 0.775 0.7 1.03 0.935 0.005 0.685 0.01 1.375 0.02 2.065-0.34 0.19-1.02 0.575-1.36 0.765-0.685-0.58-1.975-0.9-1.73-2.025z"/>
		<path d="m238.32 83.37c5.27-4.125 10.185-8.7 15.56-12.695-0.66 2.125-0.22 4.37 0.665 6.355-0.715-0.22-1.43-0.425-2.145-0.61-3.92 3.435-8.235 6.38-12.285 9.655-0.58-0.915-1.175-1.82-1.795-2.705z"/>
		<path d="m142.48 72.125c0.26-0.195 0.785-0.59 1.045-0.79 0.68 0.19 1.355 0.39 2.035 0.6-0.015 0.63-0.025 1.265-0.035 1.9l-0.92 0.9c-0.73-0.21-1.455-0.43-2.18-0.655 0.015-0.655 0.035-1.305 0.055-1.955z"/>
		<path d="m171.21 74.495c0.17-0.02 0.515-0.05 0.685-0.065-0.235 0.93-0.44 1.87-0.665 2.805-0.73 1.045-1.44 2.11-2.175 3.15 0.145 0.115 0.44 0.345 0.585 0.46 0.9 0.12 1.8 0.24 2.69 0.44 3.05 0.32 5.975 1.275 8.905 2.13 0.525-0.56 0.9-1.235 1.34-1.86-0.255-0.475-0.51-0.945-0.755-1.415 1.13-0.255 2.25-0.545 3.385-0.79-0.165 0.635-0.345 1.27-0.53 1.905-0.33 1.01-0.655 2.02-0.955 3.045-0.245 0.605-0.485 1.22-0.835 1.78-0.58-0.085-1.155-0.205-1.715-0.36-1.62-0.63-3.29-1.11-4.975-1.52-0.67-0.15-1.34-0.305-2-0.48-0.86-0.165-1.72-0.325-2.56-0.56-1.175-0.105-2.36-0.185-3.505-0.485-1.135-0.09-2.27-0.135-3.4-0.19 2.415-2.425 5.1-4.78 6.48-7.99z"/>
		<path d="m161.08 77.165c0.605-0.835 1.58-1.27 2.41-1.835 0.01 3.095 0.475 6.37-0.795 9.29-0.585 0.515-1.365 0.835-2.125 0.96-0.825-0.385-1.59-0.865-2.355-1.34 0.905-0.22 1.825-0.41 2.73-0.665 0.07-2.135-0.145-4.29 0.135-6.41z"/>
		<path d="m143.8 78.44c0.85-0.895 1.725-1.77 2.595-2.64 0.82 2.5 1.3 5.095 1.76 7.685-0.325 0.045-0.975 0.135-1.3 0.175-0.69 0.205-1.385 0.375-2.08 0.545-0.905 0.245-1.815 0.44-2.72 0.665-2.39-1.77-3.47-4.925-6.29-6.13 1.145 2.25 3.1 3.935 4.53 6-1.255 0.835-2.61 1.515-4.06 1.94-0.48 0.23-0.955 0.465-1.43 0.695-2.71 1.345-5.235 3.03-8.01 4.25 0.165-0.655 0.34-1.31 0.53-1.96 0.74-2.97 0.74-6.035 0.415-9.065 2.45 1.53 1.685 4.63 1.83 7.04 1.08-0.505 2.155-1.025 3.205-1.59 0.24-0.035 0.72-0.105 0.96-0.14 0.93-0.51 1.86-1.02 2.78-1.545-1.17-1.885-2.535-3.63-3.77-5.465 0.93-0.9 1.92-1.73 2.99-2.465 0.52 0.015 1.04 0.03 1.565 0.05 1.96 1.85 3.42 4.145 5.405 5.97 0.23-0.025 0.69-0.08 0.92-0.11 0.6-0.195 1.205-0.37 1.82-0.53-0.005-0.28-0.01-0.835-0.01-1.115-0.53-0.765-1.08-1.52-1.635-2.26z"/>
		<path d="m151.28 76.63c2.14 0.41 4.325 0.37 6.495 0.325 0.425 0.425 0.85 0.845 1.285 1.265-0.185 1.4 0.445 3.155-0.655 4.26-1.995 0.17-4-0.005-5.995 0.16-0.97 0.27-1.97 0.38-2.965 0.5 0.005-0.68 0.015-1.36 0.025-2.04 0.975-0.135 1.95-0.26 2.905-0.51 1.59-0.11 3.205-0.095 4.76-0.52-0.205-0.265-0.61-0.8-0.81-1.065-1.145 0.025-2.29 0.055-3.43 0.14-1.155 0.4-2.385 0.395-3.585 0.45 0.635-1 1.23-2.035 1.97-2.965z"/>
		<path d="m256.7 77.58c0.705-0.13 1.43-0.16 2.155-0.225 0.235 0.745 0.485 1.485 0.72 2.235-0.21 0.36-0.625 1.09-0.835 1.455-0.72-0.005-1.435-0.005-2.15-0.005-0.37-0.625-0.735-1.245-1.105-1.87 0.39-0.535 0.75-1.105 1.215-1.59z"/>
		<path d="m187.09 82.59c0.835-0.395 1.74-0.595 2.635-0.82-0.54 1.715-1.24 3.375-2.015 4.995-0.43 1.1-0.7 2.52-1.955 2.965-1.31 0.91-2.66-0.445-3.62-1.245 0.68-0.51 1.565-0.475 2.365-0.62 0.46-0.855 0.89-1.73 1.305-2.61 0.34-0.92 0.54-1.965 1.285-2.665z"/>
		<path d="m198.65 82.245c1.305-0.235 2.64-0.305 3.965-0.36-1.845 2.935-3.68 5.88-5.515 8.825 2.595 2.06 5.31 3.99 7.73 6.26 0.18-0.195 0.55-0.59 0.73-0.785-0.665-0.485-1.345-0.955-2.035-1.395-0.24-0.65-0.465-1.295-0.69-1.945 0.885-1.225 1.86-2.99 3.69-2.35 1.44 0.965 2.775 2.08 4.09 3.215-0.865 1.24-1.875 2.365-2.88 3.49-0.705 1.03-1.565 1.94-2.395 2.87-2.695-2.305-5.51-4.465-8.37-6.555-1.11-1.05-2.335 0.125-3.495 0.4-1.41-0.36-3.005-0.785-3.87-2.055-1.01-1.77-1.055-4.28 0.505-5.755 1.405-1.3 3.45-1.345 5.225-1.725-0.585 0.99-1.285 1.91-2.025 2.795-0.75-0.06-1.43-0.405-2.165-0.53-0.38 0.34-0.76 0.685-1.135 1.03 0.005 0.73 0.02 1.46 0.04 2.195 0.57 0.52 1.14 1.04 1.71 1.57 0.645-0.005 1.295-0.005 1.945-0.005 1.53-2.545 3.36-4.89 4.91-7.415 0.445-0.51-0.03-1.2 0.035-1.775z"/>
		<path d="m259.6 81.915c0.36 0.02 1.085 0.05 1.445 0.065 0.475 0.225 0.96 0.45 1.445 0.67 0.035 0.715 0.08 1.43 0.13 2.15-0.655 0.42-1.31 0.835-1.96 1.255-0.84-0.625-1.585-1.35-2.225-2.17 0.39-0.655 0.775-1.315 1.165-1.97z"/>
		<path d="m246.61 84.815c0.895-0.355 1.855-0.345 2.76-0.01 0.495 0.07 0.995 0.14 1.5 0.205 0.935 0.63 1.81 1.34 2.655 2.09 0.235-0.21 0.715-0.625 0.95-0.83 0.005-0.37 0.005-1.115 0.005-1.485 0.92 0.505 1.83 1.035 2.76 1.545 0.26 0.145 0.79 0.445 1.055 0.595 0.375 0.04 1.135 0.12 1.515 0.16-1.95 1.75-4.34 2.88-6.525 4.295-1.115 0.69-2.2 1.43-3.26 2.195 0.87 1.69 1.925 3.275 2.775 4.975 0.16-0.195 0.485-0.575 0.645-0.77 0.01-1.245 0.01-2.485 0.01-3.73 1.535-0.89 3.1 0.045 4.6 0.515 0.005 0.225 0.01 0.67 0.015 0.895 0.355 0.015 1.06 0.045 1.415 0.06 1.005 0.445 2.04 0.835 3.095 1.17-0.295 1.225-0.53 2.46-0.665 3.715-0.21 0.18-0.63 0.54-0.84 0.725-0.025 0.89-0.045 1.78-0.065 2.67-0.49 0.465-0.98 0.93-1.46 1.395-1.375-0.62-2.745-1.255-4.14-1.83 0.595 1.69 0.98 3.595 2.235 4.94 1.21 0.205 2.445 0.215 3.66 0.4 1.68 0.61 3.39 1.585 4.08 3.335 0.49 1.28 1.255 2.415 2.235 3.38-0.635 0.115-1.26 0.245-1.885 0.39-0.525 0.2-1.045 0.405-1.56 0.62-0.21 0.065-0.63 0.195-0.84 0.26-0.675 0.18-1.355 0.33-2.03 0.48-1 0.36-2.01 0.69-3.025 0.985-0.27 0.13-0.81 0.395-1.075 0.525-1.105-2.415-1.92-4.94-2.88-7.41-0.24-0.5-0.47-1.005-0.7-1.505-0.72-2.18-1.92-4.16-2.675-6.33 0.24-0.44 0.475-0.88 0.71-1.32-0.35-0.02-1.045-0.06-1.395-0.08-2.56-4.575-5.145-9.15-8.27-13.375-0.005-0.26-0.025-0.78-0.03-1.04 0.73-0.62 1.465-1.245 2.25-1.8 0.505-0.265 1.015-0.525 1.525-0.79 0.215-0.055 0.65-0.165 0.87-0.215z"/>
		<path d="m174.36 84.915c0.43 0 1.295-0.005 1.725-0.01 0.26 0.2 0.785 0.595 1.045 0.795-0.14 0.98 0.09 2.155-0.805 2.835-0.855-0.095-1.67-0.39-2.5-0.6 0.15-1.015 0.31-2.02 0.535-3.02z"/>
		<path d="m206.43 88.14c0.625-0.745 1.31-1.44 2.065-2.055 0.545 0.625 1.15 1.215 1.595 1.93-0.015 0.845-0.79 1.4-1.195 2.07-0.315-0.015-0.95-0.045-1.265-0.06-0.405-0.63-0.8-1.26-1.2-1.885z"/>
	</g>
	<path fill="#fafcfb" d="m75.825 88.07c0.845-0.41 2.505-0.985 2.635 0.46 0.355 1.165-1.075 1.32-1.82 1.685-0.3-0.71-0.56-1.425-0.815-2.145z"/>
	<g fill="#4a8156">
		<path d="m119.34 87.79c0.96-0.605 1.895 0.49 2.81 0.74-0.535 0.815-1.085 1.62-1.665 2.405-0.465-0.63-0.87-1.3-1.29-1.955-0.17 0.195-0.505 0.585-0.675 0.78 0.025 0.475 0.05 0.955 0.085 1.44 0.145 0.315 0.44 0.955 0.59 1.275 0.81-0.02 1.62-0.03 2.435-0.045 1.03-1.33 2.455-0.81 3.735-0.175-1.36 1.545-3.265 2.435-4.79 3.79-1.785 1.275-3.18 3-4.935 4.31-0.405 1.77-0.365 4.075-2.485 4.675-0.64 0.01-1.28 0.055-1.91 0.135-1 1.12-1.915 2.315-2.96 3.4-2.16-1.455-4.375-2.84-6.44-4.435-0.845-0.675-1.875-1.04-2.87-1.41-0.01-1.155-0.02-2.31-0.025-3.46 2.85 2.18 5.67 4.41 8.605 6.475 0.635-0.69 1.285-1.37 1.925-2.055-1.175-1.69-0.06-3.415 1.075-4.745 1.34-0.005 2.68 0 4.02 0.055-2-2.515-4.025-5.09-6.705-6.92 0.215-0.92 0.465-1.83 0.715-2.74 2.48 2.525 5.165 4.87 7.36 7.665 1.075-0.625 2.07-1.37 3.065-2.115-1.175-1.285-3.135-2.76-2.38-4.74 0.31-1.305 1.605-1.86 2.71-2.35z"/>
		<path d="m137.42 87.44c0.31 0.025 0.92 0.075 1.23 0.1 0.34 0.17 1.03 0.5 1.375 0.665 0.015 0.63 0.03 1.26 0.055 1.89-1.08 0.47-2.23 0.41-3.32-0.005 0.195-0.89 0.4-1.775 0.66-2.65z"/>
		<path d="m209.9 92.06c-0.885-1.435-0.02-2.925 1.315-3.655 0.605 0.425 1.23 0.835 1.805 1.315-0.115 0.78-0.355 1.535-0.55 2.295-0.86 0.015-1.715 0.025-2.57 0.045z"/>
	</g>
	<path fill="#fafcfb" d="m246.97 88.43c1.125 0.075 2.26 0.21 3.365 0.475-0.405 0.255-1.225 0.755-1.63 1.005-0.235 0.01-0.695 0.03-0.93 0.04-0.275-0.505-0.54-1.015-0.805-1.52z"/>
	<g fill="#4a8156">
		<path d="m134.06 89.035c0.45-0.055 1.355-0.16 1.805-0.21 0.435 0.745 0.9 1.575 0.64 2.47-0.505 0.43-1.065 0.79-1.61 1.16-0.425-0.205-0.85-0.405-1.275-0.6-0.19-0.385-0.38-0.765-0.57-1.145 0.35-0.555 0.66-1.13 1.01-1.675z"/>
		<path d="m153.28 93.055c2.26-0.24 4.5-0.74 6.795-0.6-0.03 4.315-0.02 8.63-0.02 12.945-2.285 0.74-4.695 0.76-7.07 0.63 0.065-4.13-1.185-8.15-1.065-12.275l1.36-0.7z"/>
		<path d="m160.92 92.425c2.89-0.045 5.715 0.71 8.615 0.645 0.005 0.94 0.005 1.88-0.02 2.82-0.74 2.77-0.6 5.7-1.325 8.485-0.08 0.55-0.155 1.105-0.22 1.66-2.23-0.065-4.535 0.34-6.7-0.285-0.375-0.865-0.335-1.825-0.35-2.745 0.03-3.525 0.02-7.055 0-10.58z"/>
	</g>
	<path fill="#fafcfb" d="m205.14 93.35c0.405-0.1 1.215-0.3 1.62-0.4 0.235 0.61 0.475 1.215 0.725 1.825-0.785-0.48-1.585-0.92-2.345-1.425z"/>
	<g fill="#4a8156">
		<path d="m101.82 97.255c0.65-1.235 1.41-2.4 2.185-3.56v1.945c0.29-0.225 0.87-0.675 1.155-0.9 0.085 1.955-0.59 3.835-2.135 5.085 0-0.375 0.01-1.125 0.015-1.5 0.43-0.845 0.83-1.71 1.155-2.605-1.1 1.235-1.77 2.915-3.33 3.67 0.295-0.725 0.64-1.42 0.955-2.135z"/>
		<path d="m146.56 95.99c1.165-0.88 2.465-1.565 3.785-2.195 0.165 0.735 0.36 1.465 0.585 2.19 0.12 3.485 1.37 6.89 1.06 10.385-0.76 0.58-1.69 0.855-2.545 1.24-0.905-2.23-1.17-4.635-1.83-6.93-0.385-1.555-0.69-3.13-1.055-4.69z"/>
		<path d="m171.08 93.965c0.555 0.295 1.12 0.585 1.685 0.875 0.625 0.415 1.235 0.855 1.85 1.29-0.495 3.85-1.375 7.64-2.245 11.425-0.27-0.02-0.82-0.05-1.095-0.065-0.775-0.42-1.56-0.82-2.355-1.195 0.04-2.455 0.46-4.885 0.88-7.295 0.26-1.35 0.565-2.685 0.705-4.055 0.145-0.245 0.43-0.735 0.575-0.98z"/>
	</g>
	<path fill="#fafcfb" d="m64.35 99.04c0.29-1.3 0.735-2.63 1.95-3.345 0.075 0.72 0.14 1.445 0.205 2.17-0.715 0.4-1.435 0.79-2.155 1.175z"/>
	<path fill="#fafcfb" d="m256.18 97.63c0.78 0.94 1.375 2.015 1.915 3.11-0.675-0.255-1.39-0.42-1.975-0.855-0.03-0.755-0.01-1.505 0.06-2.255z"/>
	<path fill="#4a8156" d="m206.22 100.84c1.23-1.16 2.76-1.88 4.29-2.55 1.715 0.945 2.955 2.44 4.025 4.04-1.97 2.035-4.315 3.635-6.55 5.36-1.065-0.715-2.075-1.495-3.045-2.325 0.02-0.3 0.05-0.895 0.065-1.195 0.215-0.195 0.64-0.575 0.855-0.765 0.425 0.695 0.85 1.395 1.275 2.095 0.62-0.37 1.24-0.73 1.865-1.095-1.015-1.115-1.89-2.35-2.78-3.565z"/>
	<path fill="#fafcfb" d="m209.73 101.04c0.635-0.33 1.575 0.585 1.215 1.225-0.615 0.29-1.495-0.625-1.215-1.225z"/>
	<path fill="#fafcfb" d="m111.63 101.62c0.475-0.67 1.85-0.015 1.265 0.755-0.48 0.67-1.86 0.01-1.265-0.755z"/>
	<g fill="#4a8156">
		<path d="m153.36 107.7c0.72-0.23 1.445-0.465 2.155-0.73 1.515-0.04 3.03-0.025 4.545-0.01-0.01 3.525 0.025 7.05-0.025 10.57-1.805 0.035-3.61 0.06-5.415 0.055-0.895-3.235-0.55-6.62-1.26-9.885z"/>
		<path d="m161.72 106.96c1.805-0.015 3.615-0.035 5.43-0.05 0.935 2.6-0.15 5.305-0.435 7.925-0.225 1.06 0.12 2.405-0.845 3.155-1.02 0.125-2.045 0.07-3.065 0.07-0.615-0.425-1.24-0.825-1.86-1.235 0.015-2.835-0.035-5.67 0.035-8.505 0.185-0.34 0.555-1.02 0.74-1.36z"/>
		<path d="m151.21 107.4c0.305 0.02 0.915 0.065 1.225 0.085 0.285 2.705 0.76 5.39 0.72 8.12 0.19 0.78 0.73 1.81 0.05 2.51-0.745 0.595-1.705 0.805-2.565 1.165-0.43-3.27-1.095-6.535-1.18-9.83-0.095-1.075 1.11-1.44 1.75-2.05z"/>
		<path d="m168.64 108.22c0.28-1.165 1.56-0.19 2.33-0.245 0.345 0.65 1.18 1.175 1.055 1.99-0.365 2.805-0.955 5.585-1.07 8.42-0.21 0.185-0.635 0.55-0.845 0.73-0.34-0.03-1.015-0.09-1.35-0.12-0.61-0.385-1.225-0.76-1.84-1.135 0.715-3.185 0.805-6.495 1.72-9.64z"/>
		<path d="m59.67 112.17c0.88-0.15 1.78-0.145 2.655 0.05 1.21 0.455 2.675 0.51 3.635 1.46 0.11 0.71-0.085 1.43-0.215 2.125-0.685 1.615-1.14 3.315-1.575 5.015-0.52 2.28-1.055 4.56-1.77 6.79-0.52-0.055-1.04-0.11-1.56-0.16-0.645-0.245-1.29-0.475-1.94-0.69 0.725-3.775 1.89-7.44 2.68-11.195-0.355-0.01-1.065-0.025-1.415-0.035-1.51 1.46-2.625 3.36-2.79 5.49-0.235 0.93-0.425 1.87-0.665 2.805-0.225 0.835-0.47 1.665-0.745 2.49-1.215-1.735-2.54-3.475-4.48-4.45 1.68-0.765 2.365-2.49 2.855-4.135 0.17-0.53 0.35-1.055 0.54-1.575 0.02-0.255 0.07-0.775 0.09-1.03 1.295-1.38 2.815-2.545 4.7-2.955z"/>
	</g>
	<path fill="#fafcfb" d="m258.9 111.92c1.085 0.03 2.135 0.265 2.87 1.12-0.665 0.36-1.33 0.72-1.99 1.085-0.3-0.735-0.595-1.47-0.88-2.205z"/>
	<g fill="#4a8156">
		<path d="m272.72 116.96c0.315-0.56 0.65-1.11 0.98-1.66 0.9 1.675 2.265 3.005 3.9 3.97-0.355 0.155-1.06 0.465-1.41 0.625-1.13 0.23-2.245 0.52-3.36 0.79-2.15 0.645-4.37 0.98-6.555 1.485-1.255 0.345-2.52 0.655-3.78 0.985-0.14 2.905 0.675 5.7 1.225 8.52 0.29 1.32 0.31 2.68 0.35 4.025 0.215 0.38 0.65 1.135 0.87 1.515 0.49-0.285 0.975-0.575 1.45-0.895 0.175-1.59 0.055-3.195 0-4.785-0.27-0.885-0.465-1.79-0.66-2.69-0.215-1.155-0.265-2.335-0.335-3.5 1.675 0.975 3.21 2.235 5.07 2.87-1.085 2.965 0.4 6.015 0.09 9.05-1.025 1.41-2.245 2.855-4.075 3.15-1.775 0.155-3.55 0.285-5.31 0.555-1.415-1.35-0.215-3.68-1.06-5.37-0.115-0.91-0.195-1.825-0.29-2.735-0.45-2.85-0.98-5.69-1.495-8.535-0.3-1.055-0.53-2.125-0.86-3.165 0.93-0.255 1.85-0.56 2.77-0.87 0.65-0.18 1.3-0.335 1.96-0.485 2.475-0.88 5.085-1.3 7.57-2.16 0.69-0.17 1.38-0.35 2.065-0.565 0.225-0.03 0.665-0.09 0.89-0.125z"/>
		<path d="m154.37 118.92c1.59-0.61 3.35-0.645 5.01-0.35 0.765 0.575 0.61 1.59 0.67 2.43 0.015 2.51-0.015 5.025-0.04 7.54-1.48 0.03-2.96 0.03-4.44 0.02-0.07-0.305-0.215-0.91-0.29-1.215-0.44-2.79-0.835-5.6-0.91-8.425z"/>
		<path d="m161.48 118.28c0.625 0.18 1.245 0.37 1.87 0.57 0.855 0.05 1.715 0.065 2.565 0.18 0.575 3.01-0.22 5.995-0.445 8.99-1.335 0.01-2.67 0.015-4 0.005-0.03-3.245-0.015-6.495 0.01-9.745z"/>
		<path d="m150.7 120.53c0.37-0.39 0.745-0.775 1.125-1.16 0.405 0.035 1.215 0.105 1.62 0.135 0.505 2.885 0.655 5.805 0.98 8.71-0.305 0.41-0.62 0.815-0.94 1.215-0.645 0.16-1.275 0.37-1.895 0.595-0.14-0.815-0.265-1.63-0.505-2.42-0.205-2.355 0.02-4.735-0.385-7.075z"/>
		<path d="m167.02 119.37c0.785 0.09 1.57 0.185 2.355 0.3 0.445 0.53 1.36 0.955 1.125 1.8-0.47 2.545-0.52 5.125-0.565 7.71-1.19-0.11-2.355-0.355-3.495-0.68-0.245-3.07 0.44-6.08 0.58-9.13z"/>
		<path d="m50.63 129.34c2.02-0.865 4.16-0.795 6.22-0.13 1.695 0.845 3.42 2.17 3.89 4.095 0.625 2.005 0.195 4.13-0.265 6.12-1.895 1.92-4.595 3.375-7.335 2.435-3.69-1.435-5.695-5.105-8.32-7.835-0.3-0.015-0.905-0.04-1.21-0.055 0.845 1.23 0.095 2.305-0.79 3.235-1.105-0.165-2.1-0.64-2.975-1.325 0.22-0.79 0.46-1.57 0.7-2.35 1.06-0.34 2.155-0.56 3.225-0.87 0.51 0.155 1.03 0.29 1.555 0.395 2.85 1.705 4.605 4.705 7.42 6.46 1.465-0.135 3.155 0.155 4.365-0.865 1.21-1.485 1.23-3.805-0.01-5.27-1.08-0.9-2.545-0.82-3.865-0.875-0.405 0.42-0.805 0.84-1.21 1.26-1.105-1.11-2.29-2.135-3.625-2.965 0.43-0.425 0.855-0.85 1.285-1.275 0.235-0.05 0.705-0.14 0.945-0.185z"/>
		<path d="m155.46 129.44c1.525-0.03 3.05-0.025 4.58 0 0.055 10.045-0.11 20.095 0.08 30.135 0.55 1.405 0.42 2.935 0.43 4.41-0.055 6.01 0.03 12.015-0.03 18.02 0.075 1.025-0.92 1.6-1.485 2.295 0 1.05 0.005 2.105 0.015 3.155 1.135-0.01 2.275-0.015 3.415-0.02-0.01-1.19-0.015-2.375-0.04-3.56-0.49-0.71-1.095-1.42-0.955-2.34 0.015-17.375-0.07-34.75 0.005-52.12 1.18 0.025 2.365 0.04 3.55 0.065 0.2 6.335-0.43 12.72 0.5 19.01 0.045 11.18 0.005 22.36 0.025 33.54 0.13 0.935-0.53 1.645-1.005 2.36-0.015 1.02-0.015 2.045-0.02 3.07 0.64-0.02 1.28-0.035 1.92-0.045 0.005-17.305 0.035-34.615 0.005-51.92 0.015-2.045-0.175-4.13 0.4-6.115 0.915 0.385 1.845 0.75 2.76 1.145-0.185 9.32-0.015 18.645-0.095 27.965-0.115 2.195 0.55 4.325 0.51 6.515 0.005 5.885 0.04 11.77-0.02 17.655-1.61 1.465-1.575 3.62-1.485 5.62 1.13 0.525 2.25 1.07 3.37 1.63-4.62 0.38-9.3-0.32-13.87 0.57-2.775 0.135-5.56 0.07-8.33-0.02 0.775-0.69 1.59-1.335 2.49-1.86 0.445-0.25 0.875-0.52 1.295-0.815-0.01-2.455-2.245-4.29-2.01-6.77-0.005-16.695 0.025-33.39 0.005-50.085 0.985-0.5 2.01-0.91 3.075-1.2-0.02 19.23 0.01 38.46-0.01 57.695 0.795 0.01 1.595 0.025 2.395 0.04 0.005-1.07 0.01-2.145 0.015-3.21-0.455-0.68-0.91-1.355-1.395-2.01-0.215-17.6-0.03-35.205-0.09-52.805z"/>
		<path d="m253.32 135.3c0.025-1.265 0.735-2.255 1.585-3.125 1.205 0.19 2.035 1.025 2.695 1.99-0.585 0.92-1.295 1.745-2.2 2.36-0.69-0.415-1.39-0.815-2.08-1.225z"/>
		<path d="m255 148.58c3.03-1.175 6.36-0.41 9.525-0.59 0 0.85 0 1.7 0.005 2.555-2.115 0.02-4.235 0.02-6.35 0.05-0.18 0.165-0.535 0.49-0.715 0.655 0.815 0.195 1.64 0.385 2.445 0.65 2.25 0.03 4.6 0.4 6.765-0.395 0.635-1.16 1.57-2.095 2.495-3.025 0.47-0.05 0.94-0.105 1.42-0.16 2.93-0.97 5.92 0.275 8.89 0.165 1.875 1.89 2.31 5.295 0.21 7.185-0.97 1.37-2.745 0.795-4.145 0.77-1.335-0.445-2.75-0.41-4.135-0.46-0.25-0.845-0.45-1.71-0.635-2.57 2.15-0.66 4.42-0.4 6.63-0.455 0.02-0.335 0.055-1.01 0.07-1.345-1.97-0.805-4.16-0.68-6.23-0.485-1.88 0.72-2.85 2.655-4.46 3.765-3.735 0.685-7.45-0.475-11.185-0.28-1.525-1.735-1.14-3.99-0.6-6.03z"/>
		<path d="m40.935 149.94c4.84-0.085 9.725 0.425 14.52-0.415 3.83-0.15 7.67-0.025 11.5-0.06 0.03 0.85 0.06 1.705 0.085 2.56-2.68 0.01-5.355 0.005-8.035 0.06-0.005 0.18-0.005 0.55-0.005 0.73 1.95 0.29 3.905 0.6 5.83 1.02 0.555 0.05 1.115 0.1 1.67 0.145 0.74 0.89 1.1 1.97 1.235 3.11-1.2-0.05-2.405-0.09-3.585-0.345-1.65-0.345-3.31-0.665-4.96-1.035-2.08-0.495-4.2-0.8-6.345-0.66-0.695 0.39-1.405 0.77-2.115 1.14l-1.485 0.75c-1.51 0.735-3.025 1.47-4.505 2.265-1.07 0.51-2.185 0.905-3.285 1.345 0.005-1.125 0.005-2.25 0.01-3.37 1.1-0.485 2.185-1.01 3.275-1.525 2.135-0.77 4.215-1.76 6.055-3.1-1.28-0.005-2.59-0.04-3.805 0.41-2.005 0.155-4.02 0.1-6.025-0.005-0.005-1.01-0.015-2.015-0.03-3.02z"/>
		<path d="m254.68 157.52c1.455-0.245 2.925 0.04 4.36 0.28 4.63 0.41 9.28 0.875 13.875 1.555 1.28 0.075 2.57 0.095 3.855 0.135 0.25-0.74 0.515-1.475 0.805-2.2 1.025 0.195 2.035 0.465 3.045 0.755-0.155 1.68-0.535 3.33-0.685 5.015-1.595 0.005-3.2 0.075-4.775-0.23-3.665-0.615-7.37-0.99-11.025-1.645-2.04-0.155-4.04-0.61-6.07-0.81-1.21-0.3-2.46-0.365-3.695-0.405-0.275-0.84-0.725-1.915 0.31-2.45z"/>
		<path d="m63.565 158.62c1.28-0.135 2.56-0.28 3.805-0.62 0.16 0.855 0.335 1.715 0.555 2.56-1.185 0.32-2.395 0.535-3.61 0.69-1.14 0.205-2.295 0.315-3.445 0.46-1.145 0.285-2.325 0.37-3.5 0.485-1.45 0.295-2.935 0.39-4.385 0.705-2.05 0.205-4.07 0.6-6.12 0.805-1.59 0.34-3.22 0.405-4.8 0.795-0.08-1.02-0.2-2.03-0.48-3.01 1.955-0.525 3.98-0.545 5.99-0.615 2.76-0.74 5.645-0.71 8.435-1.26 2.51-0.395 5.05-0.575 7.555-0.995z"/>
		<path d="m65.135 161.76c0.885-0.18 1.78-0.295 2.68-0.4 0.24 0.765 0.5 1.52 0.785 2.275-0.54 0.47-1.175 0.815-1.715 1.29-3.065 0.92-5.865 2.58-8.77 3.905 1.7-0.285 3.39-0.61 5.065-1.02 0.815-0.225 1.65-0.395 2.48-0.56 1.23-0.18 3.35-0.86 3.825 0.755 0.5 0.805-0.8 1.065-1.18 1.53-0.235 0.045-0.705 0.13-0.945 0.175-0.835 0.215-1.68 0.36-2.53 0.505-1.34 0.35-2.685 0.655-4.035 0.97-0.655 0.19-1.32 0.36-1.98 0.525-0.665 0.175-1.335 0.33-2.005 0.49-1.335 0.36-2.68 0.675-4.035 0.96-0.855 0.26-1.72 0.5-2.575 0.775-0.455 0.075-0.905 0.15-1.36 0.225-1.49 0.48-3.025 0.83-4.59 0.965-0.265-0.805-0.555-1.6-0.85-2.385 0.58-0.395 1.17-0.77 1.76-1.155 1.35-0.62 2.68-1.305 4.09-1.78 1.54-0.715 3.06-1.465 4.55-2.275 0.24-0.025 0.72-0.08 0.955-0.11 0.845-0.47 1.7-0.93 2.54-1.405-1.45 0.38-2.935 0.6-4.43 0.685-3.005 0.475-5.98 1.18-9.02 1.375-0.225 0.155-0.675 0.46-0.9 0.615-0.355-1.04-0.49-2.125-0.58-3.205 0.58-0.05 1.16-0.095 1.74-0.145 1.265-0.32 2.57-0.445 3.845-0.725 1.745-0.22 3.465-0.58 5.205-0.83 0.985-0.235 1.995-0.345 3-0.5 1.99-0.39 4-0.655 6-1 0.985-0.225 1.985-0.37 2.98-0.525z"/>
		<path d="m254.06 162.7c2.245 0.49 4.605-0.045 6.815 0.645 1.79 0.12 3.605 0.075 5.375 0.435 2.04 0.39 4.175-0.09 6.17 0.56 1.51 0.105 3.03 0.125 4.545 0.205 0.875 0.25 1.77 0.425 2.67 0.61-0.19 0.965-0.415 1.92-0.65 2.875-0.75-0.025-1.495-0.04-2.235-0.065-0.48-0.2-0.955-0.395-1.435-0.585-0.18 0.345-0.54 1.04-0.72 1.385-0.035 0.67-0.06 1.345-0.085 2.02 1.045 0.31 2.135 0.545 3.125 1.035 0.455 0.52 0.36 1.295 0.555 1.935-0.29 0.23-0.88 0.69-1.175 0.92-0.32-0.125-0.96-0.38-1.28-0.505-0.54-0.165-1.075-0.33-1.605-0.505-0.215-0.055-0.645-0.175-0.86-0.23-0.675-0.275-1.35-0.52-2.02-0.785-0.52-0.155-1.04-0.315-1.555-0.48-0.5-0.16-1-0.32-1.49-0.48-1-0.33-1.995-0.66-2.985-0.99-0.52-0.195-1.035-0.385-1.545-0.58-0.22-0.055-0.67-0.17-0.895-0.225-0.505-0.18-1.005-0.35-1.51-0.51-0.7-0.26-1.4-0.505-2.095-0.77l-0.9-0.18c-0.7-0.28-1.41-0.54-2.105-0.82-0.235-0.035-0.695-0.1-0.925-0.135-0.75-0.35-1.54-0.615-2.22-1.08-0.12-0.895-0.11-1.8-0.135-2.695 0.385-0.34 0.775-0.675 1.17-1.005z"/>
	</g>
	<path fill="#fafcfb" d="m264.17 167.06c1.475-0.045 2.955-0.025 4.43 0.07 0.95 0.27 1.93 0.395 2.905 0.545-0.01 0.275-0.03 0.83-0.04 1.105-0.155 0.145-0.47 0.43-0.63 0.575-0.51-0.21-1.025-0.395-1.545-0.555-0.5-0.165-0.995-0.33-1.485-0.495-1.22-0.4-2.445-0.78-3.635-1.245z"/>
	<path fill="#4a8156" d="m252.67 169.85c1.375 0.255 2.74 0.575 4.09 0.96 0.69 0.16 1.38 0.325 2.07 0.505 0.65 0.14 1.3 0.29 1.95 0.45 0.51 0.195 1.025 0.4 1.535 0.605 0.205 0.035 0.62 0.105 0.825 0.14 0.33 0.485 0.685 0.95 1.075 1.4 1.185-0.06 2.38-0.64 3.565-0.22 1.355 0.385 2.71 0.77 4.07 1.15 0.225 0.07 0.67 0.21 0.895 0.28 0.825 0.245 1.67 0.44 2.515 0.645 0.67 0.245 1.44 0.43 1.84 1.085-0.105 0.78-0.31 1.545-0.505 2.31-1.49-0.215-2.96-0.55-4.39-0.99-0.225-0.07-0.665-0.205-0.89-0.27-0.705-0.26-1.415-0.495-2.11-0.75-0.69-0.145-1.365-0.31-2.04-0.48-0.525-0.055-1.04-0.11-1.555-0.16-0.02 0.325-0.06 0.985-0.08 1.31 0.305 0.135 0.925 0.405 1.23 0.535 0.23 0.065 0.69 0.19 0.92 0.25 0.86 0.26 1.74 0.46 2.615 0.7 0.495 0.155 0.995 0.315 1.5 0.485 0.48 0.18 0.965 0.365 1.455 0.56 0.87 0.24 1.74 0.495 2.625 0.7-0.19 0.885-0.31 1.775-0.48 2.665-1.105 0.325-2.17-0.185-3.2-0.525-0.21-0.065-0.635-0.2-0.85-0.265-1.695-0.59-3.405-1.135-5.095-1.75-2.02-0.63-4.035-1.295-6.035-1.99-0.51-0.16-1.01-0.32-1.51-0.48-0.505-0.185-1.005-0.37-1.5-0.56-0.225-0.055-0.675-0.16-0.9-0.215-0.69-0.265-1.38-0.505-2.06-0.76-1.29-0.39-2.56-0.835-3.83-1.28 0.28-1.225 0.51-2.465 0.64-3.72 0.53-0.78 1.065-1.555 1.615-2.32z"/>
	<path fill="#4a8156" d="m61.67 172.32c2.335-0.575 4.645-1.27 7-1.775 0.665 0.455 1.225 1.04 1.825 1.57 0.385 1.56 0.575 3.155 0.6 4.76-0.755 0.27-1.51 0.555-2.265 0.82-1.02 0.345-2.04 0.685-3.065 1.01-1.165 0.325-2.335 0.605-3.495 0.945-0.735 0.28-1.48 0.54-2.21 0.825-0.165-0.23-0.49-0.695-0.655-0.925 0.04-0.64 0.08-1.28 0.12-1.915 1.6-0.41 3.17-0.935 4.705-1.545 0.24-0.06 0.715-0.18 0.955-0.235 0.595-0.2 1.195-0.38 1.8-0.54 0.215-0.415 0.43-0.83 0.64-1.245-0.735 0.015-1.47 0.025-2.205 0.045-0.71 0.225-1.43 0.42-2.15 0.605-1.66 0.545-3.31 1.12-5.025 1.46-0.49 0.18-0.975 0.355-1.465 0.53-0.655 0.175-1.315 0.32-1.975 0.475-0.685 0.24-1.37 0.475-2.05 0.725-1.01 0.2-2.01 0.455-3.01 0.695-0.36 0.19-1.08 0.565-1.44 0.75 0.29 0.55 0.565 1.11 0.9 1.64 1.185-0.085 2.215-0.755 3.3-1.185-0.015-0.285-0.04-0.855-0.055-1.14 0.81-0.255 1.61-0.525 2.405-0.815 0.32 0.605 0.62 1.22 0.9 1.85 0.155 0.68 0.28 1.37 0.39 2.06-0.34 0.165-1.03 0.495-1.37 0.66-0.84 0.235-1.67 0.5-2.5 0.75-0.49 0.175-0.975 0.35-1.465 0.525-1.215 0.39-2.435 0.785-3.645 1.195-0.155-0.305-0.47-0.92-0.625-1.225-0.04-0.205-0.115-0.62-0.155-0.825-0.805-1.585-1.96-3.315-1.31-5.165 0.58-0.69 1.36-1.16 2.085-1.675 0.25-0.035 0.755-0.1 1.005-0.135 1.33-0.41 2.68-0.75 4.04-1.05 0.645-0.19 1.3-0.35 1.955-0.51 0.675-0.19 1.355-0.345 2.035-0.49 1.53-0.43 3.08-0.765 4.605-1.205 0.22-0.075 0.65-0.22 0.87-0.295z"/>
	<path fill="#fafcfb" d="m254.62 172.86c0.28 0.14 0.84 0.41 1.12 0.55 1.7 0.345 3.34 0.925 5.055 1.205 0.785 0.47 1.51 1.045 2.075 1.785-1.07 0.01-2.14-0.005-3.19-0.21-0.225-0.085-0.68-0.25-0.905-0.33-0.705-0.295-1.415-0.57-2.115-0.865-0.205-0.02-0.625-0.065-0.835-0.09-0.325-0.16-0.985-0.485-1.31-0.645 0.025-0.35 0.08-1.05 0.105-1.4z"/>
	<g fill="#4a8156">
		<path d="m181.63 174.7c0.73 1.16 1.56 2.275 2.68 3.095 0.035-0.44 0.115-1.325 0.15-1.77 0.335-0.16 0.995-0.485 1.33-0.65 0.175 0.77 0.255 1.56 0.39 2.34 0.34-0.77 0.675-1.54 1.005-2.31 0.235 0.195 0.7 0.59 0.935 0.79 0.155 1.45-0.34 2.67-1.71 3.285-0.635-0.245-1.28-0.475-1.915-0.695-0.74 1.655 0.46 3.295 0.76 4.915 0.435 1.24 0.13 2.52-0.365 3.69-0.995-1.84-1.41-3.89-1.895-5.895-0.295-1.54-1.49-2.66-2.04-4.09 0.065-0.935 0.43-1.81 0.675-2.705z"/>
		<path d="m192.9 174.68c0.48 1.335 0.865 2.7 1.27 4.06 0.38 1.01 0.75 2.02 1.17 3.015 0.575 0.86 1.155 1.715 1.75 2.57-0.075 1.045-0.285 2.08-0.705 3.045-0.91-1.305-1.61-2.725-2.345-4.125-0.03-0.24-0.1-0.71-0.13-0.95-0.38-0.64-0.745-1.275-1.115-1.91-0.91 2.295-1.56 5.115-3.8 6.485-0.02-1.03-0.03-2.055-0.025-3.085 0.87-1.295 1.68-2.625 2.415-4 0.25-0.995 0.5-1.985 0.72-2.985 0.27-0.705 0.535-1.415 0.795-2.12z"/>
		<path d="m121.64 176.13c0.625-0.18 1.255-0.375 1.88-0.575 0.585 0.195 1.18 0.39 1.775 0.575 0.29 0.115 0.87 0.34 1.16 0.455 0.49 1.17 0.95 2.36 1.29 3.59 0.1 0.45 0.185 0.91 0.265 1.375-0.64 1.69-0.275 3.87-1.83 5.12-1 1.115-2.51 1.435-3.945 1.425-0.77-0.59-1.54-1.175-2.3-1.775 0.015-0.31 0.035-0.925 0.045-1.235 0.57-0.045 1.14-0.085 1.715-0.12 0.485 0.655 0.805 1.76 1.845 1.545 0.765 0.125 1.225-0.68 1.82-1.03 0.15-1 0.37-1.99 0.655-2.96-1.315 0.77-2.785 1.16-4.315 1.13-0.74-0.905-1.68-1.74-1.955-2.925-0.44-1.015 0.13-2.065 0.31-3.07 0.525-0.51 1.055-1.015 1.585-1.525z"/>
		<path d="m139.66 176.06c1.045-0.225 2.11-0.645 3.175-0.26 0.28 0.055 0.835 0.17 1.115 0.23 1.3 1.095 1.8 2.65 1.63 4.325-0.525 0.42-1.045 0.845-1.57 1.265 0.7 0.795 1.35 1.63 1.95 2.51-0.45 1.215-0.535 2.845-1.92 3.415-1.165 0.765-2.6 0.41-3.89 0.31-1.715-0.58-2.865-2.645-1.455-4.14 0.56 0.715 1.11 1.44 1.6 2.21 0.655 0.235 1.31 0.465 1.97 0.695 0.635-0.645 1.26-1.305 1.855-1.985-0.275-0.48-0.55-0.965-0.825-1.44-0.265-0.155-0.795-0.47-1.06-0.625-0.325-0.035-0.98-0.11-1.31-0.145 0.01-0.32 0.03-0.97 0.04-1.29 0.83-0.22 1.66-0.46 2.485-0.705 0-0.8 0-1.59 0.01-2.385-0.92-1.115-2.15-0.84-3.35-0.435-0.245 0.635-0.49 1.265-0.73 1.905-0.36 0-1.075 0.005-1.435 0.01 0.02-0.605 0.04-1.21 0.06-1.81 0.555-0.55 1.105-1.1 1.655-1.655z"/>
		<path d="m176.5 175.14c1.06 0.625 1.765 1.645 2.5 2.605 0.015 0.245 0.04 0.74 0.055 0.99 0.31 0.495 0.62 0.995 0.93 1.495 0.705 2.19 0.56 4.5 0.505 6.765-0.22 0-0.665-0.005-0.885-0.005-0.15-1.415-0.44-2.8-0.765-4.18-0.165-0.54-0.33-1.08-0.48-1.62-1.28-1.785-2.33-3.775-1.86-6.05z"/>
		<path d="m197.94 176.06c0.485-0.26 0.965-0.51 1.455-0.76 0.045 0.385 0.135 1.15 0.18 1.535 0.215 0.19 0.65 0.57 0.87 0.76 0.8-0.645 1.595-1.305 2.44-1.89 0.055 0.445 0.165 1.335 0.215 1.78 0.325 0.01 0.98 0.025 1.305 0.035 0.04-0.45 0.11-1.35 0.145-1.8 1.765 0.505 0.74 2.455 0.48 3.665-0.3 0.105-0.9 0.315-1.2 0.415-0.975-0.165-1.97-0.2-2.95-0.295 0.58 2.22 1.275 4.44 1.24 6.765-0.25 0.22-0.755 0.655-1.005 0.87-0.16-1.355-0.52-2.675-1.025-3.935-0.055-0.22-0.16-0.655-0.21-0.875-0.515-1.42-1.095-2.82-1.875-4.12-0.03-0.72-0.045-1.435-0.065-2.15z"/>
		<path d="m116.38 175.84c0.395 0.295 0.79 0.6 1.185 0.91-0.05 3.23 0 6.46-0.03 9.69h1.525c-0.01 0.39-0.03 1.165-0.04 1.55-1.5 0.025-3 0.03-4.495 0.025-0.02-0.39-0.06-1.175-0.08-1.565 0.24 0 0.72 0.01 0.96 0.01 0.6-1.97 0.685-4.04 0.5-6.08-0.225-0.675-0.425-1.355-0.6-2.045-0.425 0.49-0.86 0.975-1.28 1.475-0.025-0.725-0.045-1.45-0.065-2.17 0.79-0.63 1.595-1.225 2.42-1.8z"/>
		<path d="m131.67 176c1.045 0 2.085 0.005 3.13 0.01 0.57 0.57 1.145 1.14 1.735 1.705-0.045 0.39-0.125 1.175-0.165 1.57-1.06-0.125-1.74-0.86-2.225-1.75-0.625-0.025-1.245-0.045-1.865-0.06-0.385 0.41-0.77 0.825-1.16 1.24-0.05 0.245-0.155 0.735-0.205 0.98-0.2 0.645-0.385 1.3-0.555 1.96 0.435-0.355 0.875-0.71 1.31-1.065 0.51-0.13 1.025-0.255 1.535-0.385 0.72 0.13 1.44 0.24 2.165 0.35 0.335 0.375 0.67 0.75 1.01 1.125 0.2 0.615 0.405 1.225 0.63 1.835 0.02 0.6 0.04 1.2 0.06 1.805-0.72 1.1-1.665 2.015-2.77 2.715-0.87-0.005-1.735-0.01-2.6-0.01-0.73-0.515-1.45-1.045-2.155-1.59-0.055-0.26-0.17-0.77-0.225-1.03-0.55-2.205-0.62-4.585 0.015-6.78 0.05-0.27 0.15-0.8 0.2-1.065 0.695-0.545 1.41-1.06 2.135-1.56z"/>
		<path d="m250 176.92c0.295 0.02 0.895 0.07 1.195 0.09 0.33 0.165 1 0.495 1.33 0.66-0.01 0.7-0.02 1.405-0.03 2.105 0.325 0.155 0.97 0.465 1.295 0.62 0.225 0.025 0.675 0.07 0.9 0.095 0.535 0.31 1.075 0.62 1.62 0.935 0.21 0.03 0.625 0.09 0.835 0.12 0.54 0.205 1.085 0.405 1.635 0.6 0.465 0.155 0.93 0.31 1.4 0.46 0.295-0.6 0.6-1.195 0.91-1.785 1.015 0.175 2.015 0.42 3.02 0.67-0.195 0.92-0.425 1.84-0.375 2.79 1.205 0.27 2.4 0.61 3.575 1.005 0.48 0.18 0.965 0.36 1.455 0.545 0.74 0.215 1.475 0.45 2.215 0.685-0.04-0.4-0.115-1.195-0.155-1.595 0.77-0.225 1.565-0.365 2.37-0.315 0.47 0.385 0.945 0.775 1.42 1.175-0.94 1.555-1.06 3.695-2.59 4.825-1.68-0.52-3.26-1.295-4.86-2.005-0.215-0.025-0.65-0.075-0.865-0.1-0.515-0.29-1.035-0.565-1.56-0.83-1.365-0.465-2.7-1.005-4.03-1.545-0.235-0.035-0.71-0.1-0.95-0.135-0.51-0.295-1.015-0.585-1.52-0.87-0.245-0.025-0.74-0.08-0.985-0.105-0.505-0.31-1.01-0.62-1.51-0.93-0.23-0.03-0.69-0.1-0.92-0.13-1.375-0.66-2.825-1.16-4.185-1.845-0.325 0-0.965 0.005-1.285 0.005-0.76-1.755-0.365-3.64 0.645-5.195z"/>
	</g>
	<path fill="#fafcfb" d="m122.64 177.54c0.83 0 1.665 0 2.495 0.01 0.585 1.61 0.475 3.39-0.805 4.64-1.32-0.005-2.26-0.75-2.82-1.905 0.015-0.25 0.055-0.755 0.07-1.01 0.35-0.585 0.71-1.155 1.06-1.735z"/>
	<path fill="#4a8156" d="m68.805 183.16c1.455-0.565 2.89-1.17 4.33-1.765 0.185 0.175 0.555 0.52 0.735 0.695 0.325 1.065 0.8 2.075 1.155 3.13-0.645 0.895-1.79 1.125-2.755 1.52-0.26-0.565-0.525-1.105-0.795-1.65-1.08 0.33-2.125 0.765-3.215 1.055-1.145 0.59-2.31 1.135-3.445 1.75-0.39 0.195-0.78 0.4-1.17 0.615 0.19 0.485 0.34 0.98 0.455 1.49-0.445 0.87-1.42 1.215-2.235 1.635-0.58-0.64-1.045-1.37-1.535-2.07l-1.545 0.81c-1.24 0.375-2.41 0.94-3.535 1.57-0.245 0.045-0.73 0.13-0.975 0.175-1.225 0.65-2.47 1.27-3.705 1.905-0.35-0.6-0.705-1.2-1.06-1.8-0.025-0.27-0.07-0.82-0.09-1.095 0.59-0.37 1.185-0.74 1.775-1.105 0.26-0.045 0.775-0.125 1.03-0.17 1.14-0.6 2.315-1.13 3.535-1.54 0.5-0.23 1-0.465 1.5-0.695 1.685-0.595 3.34-1.255 4.98-1.965 0.855-0.315 1.7-0.665 2.53-1.04 1.365-0.43 2.725-0.875 4.035-1.455z"/>
	<path fill="#fafcfb" d="m132.22 182.04c0.67-0.005 1.345-0.015 2.02-0.02 0.17 0.33 0.52 0.98 0.69 1.31 0.01 0.635 0.02 1.275 0.03 1.915-0.39 0.4-0.775 0.8-1.155 1.2-0.52-0.005-1.035-0.005-1.55-0.005-0.41-0.4-0.815-0.795-1.225-1.19 0.005-0.68 0.015-1.36 0.025-2.035 0.385-0.395 0.775-0.785 1.165-1.175z"/>
	<g fill="#4a8156">
		<path d="m247.77 182.25c1.025 0.265 2.035 0.59 3.015 1 0.835 0.335 1.67 0.685 2.505 1.04 0.86 0.315 1.705 0.675 2.545 1.06 0.215 0.045 0.64 0.135 0.855 0.18 0.84 0.435 1.685 0.855 2.54 1.275 1.19 0.405 2.345 0.905 3.55 1.295 0.495 0.26 0.995 0.53 1.5 0.8 0.23 0.025 0.685 0.085 0.91 0.11 0.84 0.455 1.685 0.895 2.54 1.325 1.475 0.455 2.89 1.07 4.315 1.665-0.42 1.005-0.74 2.05-1.255 3.015-0.96-0.105-1.885-0.38-2.82-0.59-1.805-0.465-3.645-0.8-5.49-1.04-1.42-0.31-2.845-0.565-4.26-0.875 2.135 1.185 4.34 2.25 6.535 3.325 1.685 0.51 3.245 1.335 4.765 2.205-0.535 1.005-1.055 2.02-1.575 3.035-0.55-0.315-1.105-0.625-1.655-0.935-0.86-0.41-1.72-0.825-2.58-1.22-1.005-0.515-2.01-1.015-3.005-1.53-1.98-1.035-4.005-1.985-6.015-2.965-0.99-0.52-1.985-1.02-2.985-1.51-1.885-1.01-3.85-1.865-5.74-2.855-0.725-0.28-0.945-1.04-1.23-1.67 0.46-0.405 0.92-0.815 1.38-1.23 1.07 0.24 2.16 0.385 3.23 0.64 0.82 0.15 1.64 0.295 2.45 0.505 1.835 0.515 3.73 0.685 5.595 1.045-0.255-0.145-0.775-0.43-1.03-0.575-1.63-0.555-3.145-1.375-4.67-2.155-0.225-0.035-0.67-0.105-0.895-0.135-1.25-0.695-2.53-1.325-3.795-1.975 0.27-0.75 0.535-1.505 0.77-2.26z"/>
		<path d="m72.155 188.89c1.125-0.55 2.28-1.025 3.42-1.54 0.435 0.425 0.87 0.855 1.305 1.285 0.215 0.73 0.445 1.45 0.7 2.175-4.26 3.395-8.94 6.215-13.355 9.39-2.535 1.715-5 3.53-7.525 5.255-0.235-0.05-0.705-0.145-0.94-0.19-0.26-0.845-0.975-1.685-0.745-2.585 0.84-0.91 1.935-1.53 2.925-2.265-0.4-0.805-0.785-1.615-1.165-2.425-1.295 0.475-2.615 0.885-3.96 1.18-0.32-0.585-0.645-1.17-0.975-1.745 0.225-0.45 0.45-0.895 0.675-1.335 0.6-0.125 1.195-0.26 1.795-0.395 0.85-0.355 1.7-0.725 2.53-1.125 0.21-0.05 0.62-0.155 0.83-0.205 0.84-0.39 1.695-0.76 2.565-1.08 0.5-0.17 0.995-0.335 1.495-0.495 0.82-0.355 1.65-0.685 2.495-0.975 0.505-0.25 1.01-0.5 1.52-0.745 0.82-0.245 1.635-0.5 2.455-0.745 1.02-0.485 2.08-0.885 3.13-1.3 0.21-0.035 0.62-0.1 0.825-0.135z"/>
		<path d="m244.1 189.77c3.875 2.01 7.925 3.705 11.615 6.065 1.2 0.585 2.395 1.175 3.595 1.77 1.13 0.595 2.28 1.15 3.425 1.725 0.255 0.125 0.77 0.375 1.03 0.5 0.675 0.42 1.335 0.86 2.02 1.275 0.58 0.3 1.165 0.61 1.745 0.925-0.465 0.88-0.895 1.78-1.32 2.685-3.455-2.37-7.45-3.75-10.96-6.01-0.99-0.525-1.985-1.04-2.985-1.53-3.03-1.445-5.925-3.165-8.83-4.83 0.13-0.88 0.415-1.725 0.665-2.575z"/>
		<path d="m242.84 192.84c1.695 0.83 3.28 1.865 4.96 2.735 3.195 1.665 6.185 3.71 9.46 5.23 2.67 1.695 5.44 3.23 8.23 4.72-0.39 0.82-0.78 1.645-1.145 2.475-0.275-0.005-0.82-0.015-1.095-0.02-2.405-1.225-4.51-2.95-6.955-4.095 1.94 2.41 4.73 3.925 6.63 6.375-0.43-0.16-1.3-0.475-1.73-0.635-0.225-0.06-0.665-0.175-0.89-0.235-0.845-0.395-1.7-0.75-2.585-1.03-0.495-0.235-0.99-0.465-1.485-0.695-0.825-0.25-1.645-0.525-2.47-0.76 2.56 1.805 5.17 3.545 7.825 5.22-0.605 0.935-1.225 1.865-1.805 2.815-5.44-3.8-11.1-7.28-16.45-11.21-1.645-1.245-3.725-2.005-4.97-3.715 0.005-0.75 0.495-1.31 1.125-1.65 1.045 0 1.96 0.58 2.885 1.005 0.2 0.04 0.605 0.12 0.81 0.16 0.525 0.28 1.06 0.565 1.595 0.84 0.805 0.23 1.605 0.48 2.415 0.715 0.39 0.125 1.18 0.37 1.57 0.49-2.375-2.26-5.22-3.99-7.425-6.44 0.515-0.755 1.02-1.515 1.5-2.295z"/>
	</g>
	<path fill="#fafcfb" d="m63.8 195.22c1.17-0.405 2.335-0.82 3.525-1.185-1.805 1.325-3.75 2.44-5.535 3.79-0.425 0.22-0.845 0.445-1.26 0.68-0.13-0.565-0.29-1.125-0.39-1.69 0.255-0.175 0.765-0.515 1.02-0.685 0.915-0.195 1.78-0.555 2.64-0.91z"/>
	<g fill="#4a8156">
		<path d="m78.5 193.8c0.925 0.35 1.52 1.125 2.055 1.915-2.72 1.765-5.485 3.47-8.255 5.165-0.63 0.4-1.24 0.83-1.85 1.265 0.195 0.21 0.59 0.64 0.79 0.855 0.23-0.025 0.69-0.08 0.92-0.11 2.175-1.435 4.475-2.69 6.555-4.275 0.715-0.35 1.425-0.71 2.13-1.08 0.23-0.02 0.695-0.07 0.925-0.09 0.31 0.585 0.62 1.175 0.94 1.765-3.88 3.035-8.165 5.5-12.19 8.33-2.975 2.185-6.03 4.27-9.17 6.205-0.715-0.835-1.355-1.725-1.985-2.62 3.095-2.065 6.265-4.02 9.35-6.095-0.46-0.28-0.755-1.145-1.38-0.91-2.055 1.135-4.07 2.335-6.115 3.49-0.78 0.485-1.535 1.01-2.26 1.575-1.075-0.41-1.64-1.425-2.255-2.32 1.925-1.725 4.38-2.66 6.53-4.05 0.93-0.65 1.925-1.18 2.93-1.7 0.71-0.41 1.4-0.85 2.11-1.26 2.12-1.29 4.225-2.615 6.43-3.765 1.265-0.77 2.535-1.515 3.795-2.29z"/>
		<path d="m148.47 195.5c3.625-0.755 7.575-1.025 10.98 0.68 0.41 0.415 0.82 0.835 1.24 1.26 0.235-0.01 0.71-0.035 0.95-0.05 0.975-0.715 2.04-1.28 3.095-1.87 2.64-0.945 5.44-0.445 8.07 0.275 1.36 0.33 2.72 0.66 4.055 1.075 0.31 0.025 0.93 0.07 1.24 0.09 0.205 0.13 0.62 0.385 0.83 0.515 0.71-0.02 1.425-0.035 2.145-0.05 0.215 0.155 0.65 0.47 0.87 0.625 2.095-0.345 4.26-0.95 6.355-0.24 0.93 2.42 2.28 4.64 3.58 6.87 1.375 2.76 2.79 5.5 4.1 8.29-0.95 0.785-2.275 0.5-3.405 0.755-2.275 0.435-4.6 0.36-6.905 0.395 1.305 0.445 2.65 0.76 4.015 1.01 1.035 0.265 2.095 0.43 3.135 0.695 1.705 0.23 3.375 0.66 5.01 1.19 0.735 1.245 1.47 2.49 2.155 3.77l0.06 1.38c-0.64-0.165-1.28-0.34-1.91-0.53-10.715-0.95-21.35-2.67-32.035-3.92-0.2-0.045-0.6-0.145-0.8-0.195-0.95 0.94-1.965 1.81-3.045 2.595-1.21-0.12-2.405-0.365-3.59-0.635-0.655-0.67-1.31-1.34-1.955-2.01-3.025 0.435-6.055 0.875-9.06 1.415-6.27 0.87-12.51 1.965-18.785 2.81-2.18 0.44-4.38 0.835-6.605 0.92 0.44-1.69 1.14-3.315 2.11-4.765 0.63-0.945 1.895-0.895 2.875-1.185 1.965-0.28 3.935-0.55 5.9-0.865 1.075-0.35 2.215-0.385 3.34-0.39l0.035-0.295c-3.37-0.535-6.79-0.69-10.115-1.475 1.295-2.385 2.13-4.98 3.425-7.36 1.31-2.76 2.965-5.375 3.86-8.315 2.31-0.005 4.615 0.05 6.925-0.06 1.845-0.605 3.75-0.995 5.605-1.56 0.745-0.29 1.5-0.555 2.25-0.845z"/>
		<path d="m62.03 214.6c6.85-5.075 14.085-9.65 21.01-14.635 1.375 1.76 3.585 3.21 3.595 5.685-0.2 0.29-0.61 0.865-0.815 1.15-3.635 2.91-7.39 5.665-11.115 8.45-2.315 1.81-4.59 3.67-7.02 5.32-0.7-0.245-1.4-0.47-2.105-0.67-1.535-1.5-2.705-3.335-3.55-5.3z"/>
	</g>
	<path fill="#fafcfb" d="m81.33 204.88c0.58-0.555 1.25 0.09 1.85 0.22-3.935 3.455-8.325 6.355-12.45 9.575-0.535 0.325-1.065 0.655-1.61 0.965-0.465 0.445-0.925 0.895-1.38 1.355-0.44-0.305-0.875-0.62-1.31-0.93 0.885-1.335 2.27-2.19 3.525-3.13 3.76-2.73 7.4-5.65 11.375-8.055z"/>
	<path fill="#4a8156" d="m231 209.3c1.03-1.37 1.94-2.9 3.405-3.86 1.15 0.29 2.12 0.995 2.325 2.235-0.815 0.735-1.625 1.48-2.435 2.225 1.45 2.375 4.12 3.69 6.075 5.63 0.605-0.185 1.205-0.385 1.815-0.585-1.3-1.31-2.805-2.38-4.195-3.58l-0.06-1.5c0.745-0.15 1.495-0.27 2.26-0.28 1.165 0.99 2.285 2.045 3.55 2.92 0.425-0.435 0.85-0.87 1.28-1.3 0.74 0.755 1.48 1.51 2.225 2.27-0.23 0.28-0.69 0.845-0.92 1.125 2.95 2.07 5.46 4.7 8.41 6.77-1.31 1.825-2.63 3.71-4.48 5.035-0.63 0.13-1.27 0.15-1.895 0.22-2.585-1.955-4.8-4.33-7.405-6.255 0.005-0.555 0.015-1.11 0.03-1.66-0.605-0.175-1.2-0.365-1.795-0.56-0.26-0.055-0.785-0.155-1.045-0.205-2.39-2.395-4.785-4.785-7.18-7.17 0.005-0.495 0.02-0.985 0.035-1.475z"/>
	<path fill="#fafcfb" d="m160.04 207.36c0.23 0.215 0.685 0.65 0.915 0.87-0.02 1.255-0.03 2.51-0.045 3.77h-0.81c-0.015-1.55-0.03-3.095-0.06-4.64z"/>
	<g fill="#4a8156">
		<path d="m90.27 208.96c0.415 0.41 0.835 0.82 1.255 1.235-0.01 0.28-0.035 0.84-0.05 1.12-2.08 1.975-3.935 4.21-6.255 5.92-2.6 2.045-4.545 4.8-7.21 6.775-0.96 0.71-1.8 1.56-2.635 2.415l0.8 1c0.28 0 0.845 0 1.125 0.005 1.585-1.64 3.14-3.34 4.985-4.695 2.29-1.865 4.2-4.13 6.34-6.15 1.63-1.505 2.97-3.415 5.02-4.395 0.34 0.655 0.68 1.31 1.025 1.965-5.635 5.62-11.28 11.235-16.875 16.895-2.675 0.485-5.18-1.34-6.16-3.745-0.01-0.74 0.275-1.445 0.41-2.165 2.33-2.535 5.24-4.425 7.56-6.975 1.93-1.215 3.34-3.065 5.21-4.365 1.745-1.7 3.685-3.17 5.455-4.84z"/>
		<path d="m224.81 215.86c0.71-0.685 1.405-1.39 2.2-1.98 1.615 1.235 2.93 2.8 4.385 4.215 2.045 2.115 4.3 4.05 6.055 6.435 2.405 2.71 5.135 5.115 7.615 7.755-0.59 0.93-1.36 1.705-2.305 2.275-2.145-2.075-4.17-4.275-6.385-6.275 1.625 2.505 3.5 4.86 4.815 7.555-2.78-1.575-5.065-3.875-7.835-5.47 2.035 2.315 3.855 4.8 5.835 7.16-0.65 0.695-1.305 1.395-1.945 2.1-5.785-6.43-11.125-13.245-16.7-19.86 0.2-0.395 0.395-0.79 0.59-1.18 0.385-0.18 0.77-0.355 1.155-0.53 2.05 1.465 3.91 3.185 6.02 4.57 0.425 0.335 0.855 0.675 1.285 1.015-1.405-2.705-3.12-5.235-4.785-7.785z"/>
		<path d="m82.095 228.57c4-5.17 9.3-9.155 13.415-14.225 0.785 0.615 1.475 1.34 2.175 2.045-0.735 1.33-1.505 2.64-2.28 3.945-0.625 1.185-1.305 2.34-2.035 3.465-0.315 0.65-0.665 1.285-0.96 1.95 0.905-0.865 1.81-1.745 2.56-2.75 1.2-1.655 2.905-2.89 3.925-4.685 0.855 0.215 1.685 0.52 2.475 0.91-0.55 1.4-1.345 2.685-2.425 3.74-2.875 3.455-5.855 6.825-8.615 10.37-1.995 2.06-3.475 4.605-5.825 6.31-0.725-0.54-1.365-1.175-2.03-1.775 2.115-3.255 3.525-6.9 5.645-10.14 0.36-0.8 0.71-1.605 1.025-2.42-1.815 1.62-3.61 3.285-5.18 5.15-1.305 1.715-2.745 3.34-4.445 4.67-0.755-0.56-1.42-1.225-2.11-1.86 1.54-1.59 3.19-3.07 4.685-4.7z"/>
	</g>
	<path fill="#fafcfb" d="m243.32 218.03c0.385-0.385 0.77-0.77 1.16-1.15 1.82 1.755 3.98 3.13 5.64 5.07-0.2 0.27-0.59 0.815-0.79 1.09-2.115-1.525-4.115-3.22-6.01-5.01z"/>
	<g fill="#4a8156">
		<path d="m92.605 232.08c2.97-3.985 6.185-7.78 9.205-11.725 0.565 0.27 1.14 0.54 1.715 0.81 0.01 0.53 0.015 1.06 0.025 1.595-0.805 0.8-1.61 1.61-2.25 2.555-2.75 3.715-5.66 7.295-8.42 11.005-1.68 1.76-2.715 4.07-4.595 5.63-1.115 0.53-1.77-0.85-2.57-1.37 2.53-2.64 4.485-5.755 6.89-8.5z"/>
		<path d="m219.18 220.49l1.04 0.08c4.735 5.86 9.33 11.845 14.17 17.62 0.205 0.66 0.425 1.315 0.66 1.975-1.22 2.38-3.525 4.38-6.375 3.93-5.155-6.33-9.375-13.345-14.205-19.91 0.41-0.395 0.825-0.785 1.24-1.17 0.275-0.025 0.83-0.07 1.105-0.095 3.19 3.775 5.995 7.86 8.895 11.865 1.595 1.945 2.885 4.15 4.74 5.88 0.395-0.37 0.795-0.74 1.195-1.105-2.75-3.625-5.57-7.205-8.29-10.86-1.385-1.8-2.625-3.72-4.2-5.36-0.37-0.57-0.765-1.115-1.155-1.655 0.39-0.4 0.785-0.8 1.18-1.195z"/>
		<path d="m99.61 231.24c1.68-3.09 3.35-6.19 5.295-9.12 0.575 0.58 1.145 1.165 1.715 1.75-1.87 4.07-4.535 7.725-6.315 11.835 0.975-1.155 1.98-2.295 2.835-3.545 1.95-1.955 3.5-4.255 5.28-6.355 0.895-1.015 1.93 0.36 2.715 0.82-0.61 0.895-1.24 1.775-1.92 2.62-4.63 5.975-9.575 11.705-14.06 17.785-0.23-0.005-0.69-0.025-0.92-0.03-0.765-0.63-1.59-1.18-2.295-1.875 1.17-2.76 2.83-5.265 4.215-7.915 1.245-1.935 2.28-3.995 3.455-5.97z"/>
		<path d="m209.96 227.15c1.125-1.13 2.475-1.97 3.885-2.695 0.545 0.81 1.105 1.62 1.71 2.395-0.515 0.435-1.025 0.865-1.535 1.3 0.97 1.765 2.06 3.465 3.185 5.135 0.51 0.735 0.99 1.49 1.48 2.245 0.44-0.44 0.875-0.88 1.325-1.31 0.765 0.76 1.53 1.53 2.29 2.305-0.58 0.55-1.16 1.105-1.74 1.655 1.23 2.145 2.4 4.395 4.115 6.2 0.695-0.115 1.38-0.31 2.065-0.475 0.5 0.495 1 0.985 1.51 1.48-0.765 1.975-2.97 2.66-4.665 3.635-0.885-1.44-1.865-2.825-2.76-4.26-1.32-2.375-2.91-4.59-4.22-6.965-2.24-3.535-4.455-7.08-6.645-10.645z"/>
		<path d="m110.6 229.19c0.62-0.55 0.855-1.965 1.9-1.685 1.16 0.445 2.145 1.23 3.21 1.865-0.38 0.96-0.83 1.89-1.27 2.825-0.555-0.265-1.105-0.535-1.65-0.8-1.545 2.345-3.155 4.685-4.315 7.26 0.485 0.425 1.01 0.8 1.535 1.18 0.01 0.23 0.025 0.68 0.03 0.905-0.445 0.525-0.865 1.08-1.33 1.59-0.675 0.01-1.315-0.265-1.985-0.235-0.55 0.465-0.95 1.075-1.355 1.665-0.8 1.495-1.705 2.925-2.5 4.425 0.705 0.48 1.42 0.94 2.135 1.405-0.435 0.865-0.85 1.74-1.255 2.62-1.915-0.58-3.6-1.655-5.2-2.825 2.365-3.89 4.725-7.78 7.045-11.695 0.7-1.135 1.42-2.255 2.055-3.43 1.02-1.665 2.095-3.31 2.95-5.07z"/>
		<path d="m206.68 228.45c0.275 0.01 0.82 0.025 1.095 0.035 3.25 5.53 6.355 11.155 9.595 16.695 0.48 0.99 0.97 2.015 1.83 2.745 0.655-0.11 1.295-0.325 1.945-0.49 0.525 0.77 1.07 1.52 1.62 2.275-1.565 0.97-3.24 1.76-4.77 2.79-0.22-0.42-0.435-0.84-0.64-1.26-1.01-1.59-1.92-3.235-2.745-4.925-0.505-0.83-1.015-1.655-1.495-2.49-1.055-2.255-2.475-4.31-3.535-6.565-1.18-1.725-2.06-3.625-2.955-5.505-0.41-0.62-0.845-1.22-1.275-1.82 0.435-0.505 0.89-0.99 1.33-1.485z"/>
		<path d="m116.06 231.2c0.235-0.455 0.53-0.87 0.88-1.235 1.725 0.83 3.51 1.585 5.08 2.695 0.38 1.68-0.625 3.145-1.32 4.585-0.145 0.26-0.445 0.79-0.59 1.05-0.03 0.22-0.095 0.665-0.125 0.885-1.08 1.755-1.545 4.035-3.4 5.18-0.03 0.96-0.06 1.92-0.095 2.885-0.305 0.505-0.61 1.015-0.91 1.525-0.025 0.25-0.07 0.75-0.09 1-1.22 2.22-2.305 4.515-3.535 6.73-0.715-0.38-1.43-0.765-2.14-1.15 0.15-0.555 0.305-1.105 0.465-1.65 0.56-1.535 1.31-2.99 2.025-4.455 0.305-0.9 0.695-1.775 1.085-2.635 0.035-0.45 0.075-0.895 0.115-1.335-0.215-0.2-0.645-0.595-0.86-0.79-1.44 2.165-2.665 4.465-3.75 6.825-0.605 1.12-1.025 2.61-2.475 2.845-0.365-0.24-1.09-0.715-1.455-0.95 0-0.485 0.005-0.965 0.015-1.44 0.69-1.205 1.395-2.4 2.15-3.565 0.575-1.145 1.135-2.3 1.695-3.455 0.745-1.515 1.505-3.03 2.425-4.45 1.745-2.96 2.965-6.195 4.81-9.095z"/>
		<path d="m202.15 231.08c0.595-0.165 1.19-0.34 1.78-0.535 0.9 0.565 1.735 1.245 2.315 2.16 1.24 2.74 2.54 5.46 4.17 7.995 0.32 0.655 0.65 1.31 0.99 1.96 1.19 2.745 2.74 5.315 3.965 8.045 0.27 1.01 0.46 2.405-0.445 3.17-1.485 1.465-3.645 1.755-5.635 1.785-1.235-1.265-1.98-2.875-2.77-4.43-0.035-0.24-0.11-0.72-0.15-0.96-0.35-0.69-0.69-1.38-1.02-2.075-0.275-0.49-0.55-0.97-0.825-1.45-0.03-0.235-0.095-0.7-0.13-0.93-0.63-1.2-1.215-2.415-1.865-3.6-0.04-0.23-0.115-0.69-0.15-0.92-0.635-1.195-1.25-2.39-1.875-3.585-0.03-0.23-0.1-0.69-0.135-0.92-0.43-0.83-0.845-1.665-1.27-2.495 0.19-0.545 0.36-1.095 0.505-1.65 0.86-0.505 1.695-1.045 2.545-1.565z"/>
		<path d="m120.78 239.22c1.005-2.02 1.39-4.975 3.805-5.76 1.375 0.325 2.59 1.1 3.88 1.645 0.18 0.195 0.54 0.585 0.715 0.78-0.145 0.815-0.28 1.64-0.46 2.455-0.06 0.23-0.18 0.695-0.24 0.925-0.275 0.48-0.545 0.965-0.815 1.455-0.15 0.53-0.31 1.06-0.48 1.59-0.065 0.225-0.195 0.68-0.26 0.905-0.16 0.34-0.49 1.025-0.65 1.365-0.235-0.03-0.705-0.095-0.94-0.125-0.35-0.16-1.045-0.49-1.39-0.65 0.305-0.88 0.6-1.765 0.905-2.645 0.05-0.215 0.155-0.645 0.205-0.86 0.73-1.105 1.105-2.35 0.37-3.565-1.37 2.835-3.485 5.6-2.865 8.945 0.475 0.63 0.935 1.285 1.38 1.945 0.11 0.72 0.225 1.445 0.375 2.17-0.21 0.845-0.4 1.695-0.64 2.54-0.065 0.21-0.19 0.64-0.255 0.855-0.185 0.51-0.37 1.02-0.545 1.54-0.375 0.86-0.725 1.73-1.04 2.62-0.515 0.57-1.03 1.14-1.535 1.72-1.88 0.155-3.685-0.315-5.345-1.16-0.365-1.26-0.72-2.59-0.41-3.895 0.465-1.34 1.2-2.565 1.87-3.81 0-0.325-0.005-0.98-0.005-1.305 1.145-0.71 2.305-0.04 3.09 0.865-0.185 0.66-0.405 1.315-0.615 1.975-0.9 1.355-0.93 2.97-0.81 4.54 0.585-0.425 1.15-0.87 1.71-1.32 0.29-0.96 0.64-1.895 1.05-2.805 0.075-0.215 0.215-0.64 0.285-0.855 0.155-0.615 0.27-1.235 0.375-1.855-1.245-1.485-2.015-3.285-2.35-5.185 0.385-1.73 0.86-3.445 1.635-5.04z"/>
	</g>
	<path fill="#fafcfb" d="m116.61 235.68c0.48-0.735 1.03-1.415 1.68-2 0.045 0.635 0.09 1.275 0.13 1.92-0.44 0.86-0.8 1.755-1.115 2.665-0.57 1.235-1.195 2.45-1.83 3.655-0.37 0-1.115 0-1.485-0.005 0.035-0.28 0.105-0.845 0.14-1.125 0.865-1.685 1.745-3.37 2.48-5.11z"/>
	<path fill="#4a8156" d="m195.34 233.98c0.865-0.02 1.73-0.03 2.6-0.03 0.52 0.72 1.03 1.455 1.495 2.22 0.275 0.905 0.63 1.78 0.995 2.655 0.06 0.21 0.18 0.625 0.24 0.835 0.38 0.845 0.745 1.705 1.045 2.59 0.195 0.46 0.4 0.925 0.605 1.385-0.15 0.8-0.25 1.61-0.34 2.425 0.85 0.605 1.645 1.285 2.4 2.015 0.78 2.475 1.885 4.845 3.065 7.155 0.19 0.71 0.41 1.41 0.565 2.14-0.9 0.345-1.835 0.59-2.765 0.825-0.375-0.84-0.76-1.67-1.17-2.485l-0.2-0.92c-0.38-0.82-0.75-1.645-1.09-2.475-0.36-0.91-0.715-1.825-0.97-2.77-0.62-0.48-1.245-0.94-1.89-1.37 0.125 0.705 0.28 1.405 0.47 2.1 0.065 0.215 0.19 0.645 0.255 0.865 0.375 1.01 0.7 2.04 1.06 3.065 0.18 0.49 0.36 0.99 0.54 1.495 0.4 1.215 0.715 2.46 0.925 3.725-1.08 0.175-2.185 0.62-3.265 0.195 0.005-0.315 0.015-0.95 0.025-1.265-0.305-0.72-0.575-1.44-0.865-2.155-0.05-0.21-0.15-0.635-0.2-0.85-0.19-0.52-0.37-1.04-0.54-1.555-0.375-0.835-0.725-1.68-1.03-2.535-0.17-0.49-0.33-0.975-0.49-1.46-0.23-0.685-0.44-1.375-0.665-2.055-0.415-1.16-0.895-2.29-1.32-3.44-0.175-0.5-0.345-1-0.505-1.5-0.175-0.51-0.34-1.02-0.505-1.525-0.335-0.995-0.67-1.99-0.995-2.98-0.33-0.815-0.965-1.59-0.82-2.515 1.085-0.65 2.235-1.185 3.34-1.805z"/>
	<path fill="#fafcfb" d="m202.38 234.64c0.345-0.03 1.03-0.1 1.37-0.135 0.84 1.755 1.71 3.495 2.565 5.24 1.925 3.145 3.535 6.46 5.17 9.765 0.385 0.755 0.48 1.61 0.65 2.435-0.35-0.005-1.05-0.01-1.4-0.01-0.685-1.43-1.41-2.835-2.155-4.225-0.03-0.235-0.09-0.7-0.115-0.93-0.73-1.35-1.415-2.72-2.085-4.095-0.34-0.665-0.675-1.34-1-2.01-1.02-2-2.035-4.005-3-6.035z"/>
	<g fill="#4a8156">
		<path d="m130.68 235.78c0.805 0.27 1.595 0.59 2.35 0.99-0.525 1.88-1.245 3.7-1.9 5.54-0.045 0.225-0.135 0.665-0.18 0.89-0.275 0.68-0.52 1.375-0.785 2.065-0.35 1.175-0.66 2.365-0.995 3.545-0.065 0.225-0.185 0.68-0.25 0.905-0.18 0.485-0.36 0.975-0.53 1.47-0.255 0.7-0.495 1.415-0.765 2.12-0.065 0.46-0.13 0.925-0.19 1.395-0.58 1.49-1.095 3.005-1.555 4.54-0.285 0.75-0.555 1.51-0.835 2.27-0.795-0.46-2.175-0.35-2.495-1.345 0.38-1.49 0.845-2.96 1.26-4.44 0.32-1.02 0.655-2.03 0.97-3.05 0.175-0.505 0.355-1.005 0.545-1.5 0.15-0.485 0.31-0.97 0.475-1.445 0.685-2.02 1.335-4.055 2.065-6.06 0.045-0.22 0.125-0.655 0.165-0.87 0.415-1.035 0.835-2.065 1.295-3.075 0.145-0.495 0.295-0.99 0.45-1.48 0.29-0.825 0.6-1.645 0.905-2.465z"/>
		<path d="m187.7 236.8c1.055-0.295 2.12-0.56 3.17-0.89 0.415 0.825 0.785 1.67 1.18 2.505-0.655 0.37-1.31 0.745-1.96 1.12 0.195 0.55 0.405 1.1 0.635 1.645 0.16 0.51 0.31 1.025 0.46 1.55 0.26 0.865 0.455 1.75 0.71 2.625 0.065 0.2 0.19 0.605 0.25 0.805 0.185 0.505 0.37 1.015 0.55 1.53 0.805 2.355 1.39 4.78 2.21 7.135 0.055 0.225 0.165 0.67 0.22 0.89 0.19 0.49 0.38 0.98 0.565 1.475 0.165 0.5 0.33 1.005 0.49 1.51 0.26 0.795 0.505 1.6 0.765 2.4-0.92 0.445-1.875 0.81-2.835 1.16-0.285-0.665-0.555-1.325-0.8-1.995-0.245-0.68-0.48-1.36-0.725-2.03-0.98-3.355-1.775-6.775-3.015-10.05-0.06-0.45-0.12-0.9-0.175-1.35-0.215-0.51-0.425-1.02-0.62-1.525-0.22-0.855-0.41-1.71-0.635-2.555-0.26-0.745-0.535-1.485-0.8-2.22-0.55-0.005-1.1-0.005-1.65 0-0.18-0.34-0.535-1.025-0.715-1.365-0.015-0.565-0.02-1.125-0.025-1.68 0.3-0.03 0.895-0.09 1.195-0.12 0.51-0.2 1.03-0.39 1.555-0.57z"/>
		<path d="m133.64 236.84c1.235 0.335 2.47 0.65 3.7 1 0.49 0.05 0.985 0.105 1.48 0.16 0.195 0.235 0.595 0.715 0.795 0.95-0.04 0.32-0.115 0.955-0.155 1.27-0.17 0.325-0.51 0.975-0.685 1.3-0.55 0.01-1.105 0.025-1.65 0.045-0.05 0.275-0.15 0.815-0.2 1.09-0.465 1.53-0.82 3.095-1.22 4.65-0.335 1.33-0.67 2.66-1.03 3.99-0.81 3.35-1.61 6.705-2.525 10.03-0.065 0.55-0.13 1.105-0.19 1.66-0.665 0.025-1.33 0.055-1.995 0.09-0.27-0.195-0.815-0.585-1.085-0.78 0.12-0.72 0.25-1.43 0.41-2.13 0.82-3 1.715-5.975 2.52-8.98 0.28-1.18 0.61-2.35 0.98-3.5 0.32-1.33 0.655-2.655 1.045-3.96 0.295-0.985 0.7-1.98 0.605-3.025-0.495-0.385-1.01-0.735-1.55-1.045 0.26-0.94 0.525-1.875 0.75-2.815z"/>
	</g>
	<path fill="#fafcfb" d="m195.34 237.42c1.54-0.1 2.225 1.005 2.51 2.345 0.125 0.49 0.255 0.98 0.39 1.475 0.17 0.255 0.51 0.765 0.675 1.02 0.055 0.22 0.165 0.655 0.215 0.875 0.165 0.74 0.315 1.485 0.435 2.245-0.35 0.03-1.04 0.095-1.39 0.125-0.14-0.575-0.29-1.145-0.445-1.71-0.165-0.27-0.505-0.815-0.67-1.09-0.035-0.22-0.1-0.66-0.135-0.88-0.205-0.535-0.4-1.07-0.59-1.605-0.395-0.915-0.73-1.85-0.995-2.8z"/>
	<g fill="#4a8156">
		<path d="m180.79 238.56c1.075-0.215 2.145-0.46 3.225-0.675 0.035 0.32 0.105 0.97 0.14 1.295 0.175 0.53 0.345 1.065 0.51 1.605-0.675 0.265-1.34 0.535-2.01 0.8 0.275 1.06 0.455 2.145 0.725 3.21 0.27 1.825 0.705 3.62 1.28 5.37 0.62-0.22 1.235-0.45 1.85-0.685 0.385 0.935 0.735 1.89 1.11 2.835-0.715 0.29-1.42 0.59-2.125 0.885 0.04 0.8 0.08 1.61 0.135 2.415 0.19 0.62 0.365 1.25 0.525 1.885 0.335 0.93 0.23 2.13 0.995 2.84 0.765 0.12 1.54 0.14 2.32 0.2 0.265 0.93 0.505 1.865 0.71 2.82-0.84 0.155-1.67 0.305-2.495 0.505-0.3 0.075-0.9 0.215-1.195 0.285-0.6 0.135-1.19 0.3-1.795 0.36-0.455-0.415-0.7-0.93-0.735-1.535-0.525-3.595-1.62-7.075-2.14-10.67-0.28-1.035-0.45-2.095-0.705-3.13-0.255-1.455-0.58-2.89-0.795-4.345-0.455-1.825-0.815-3.675-0.935-5.55 0.35-0.18 1.055-0.54 1.405-0.72z"/>
		<path d="m140.84 238.44c0.645 0.225 1.3 0.445 1.955 0.655 0.18 0.295 0.535 0.88 0.715 1.17 0.02 2.605 0.03 5.215 0.03 7.825 0.225-0.19 0.665-0.565 0.885-0.75l0.08-1.06c0.47-0.87 0.935-1.735 1.41-2.595 0.02-0.22 0.055-0.655 0.075-0.875 0.53-0.925 0.945-1.94 1.66-2.75 0.785-0.22 1.575 0.095 2.34 0.27-0.21 0.635-0.42 1.28-0.62 1.93-0.38 0.81-0.735 1.635-1.04 2.475-0.355 0.825-0.69 1.66-0.97 2.52-0.22 0.5-0.445 1.005-0.665 1.51-0.42 1.195-0.95 2.35-1.505 3.49-0.31 0.87-0.65 1.725-1.02 2.575-0.32 1.83-0.61 3.67-0.98 5.49-0.235 1.785-0.61 3.545-0.785 5.34-1.02-0.295-2.035-0.59-3.06-0.845 0.245-1.735 0.555-3.46 0.99-5.155 0.125-1 0.215-2 0.425-2.985 0.19-0.865 0.36-1.73 0.605-2.575-0.02-0.19-0.055-0.57-0.075-0.765-0.705-2.805-0.03-5.735-0.525-8.565-0.39-2.09-0.525-4.275 0.075-6.33z"/>
		<path d="m171.46 240.62c1.59-1.17 3.705-1.335 5.61-1.105 0.585 0.235 0.975 0.8 1.45 1.2 0.12 2.355 0.79 4.63 1.19 6.945 0.46 1.87 0.48 3.84 0.21 5.74-1.135 1.16-3.66 0.585-3.92 2.515 0.59 1.145 0.54 2.45 0.68 3.695 0.21 2.025 1.08 4.135 0.555 6.145-0.86 0.215-1.75 0.285-2.62 0.395-0.24-1.045-0.545-2.085-0.595-3.16-0.19-3.895-0.85-7.745-1.22-11.625-0.365-1.62-0.27-3.315-0.715-4.92-0.03-1.96-0.365-3.89-0.625-5.825z"/>
		<path d="m157.12 240.84c1.635-0.925 3.17 0.21 4.44 1.19-0.035 3.32-0.015 6.645 0.01 9.97-0.02 1.47 0.075 2.99-0.42 4.41-0.2 2.75-0.135 5.52-0.06 8.275-0.815 1.85-3.105 2.805-4.965 1.965-0.58-0.045-1.155-0.085-1.725-0.12-0.235-0.155-0.705-0.47-0.935-0.625-0.62-1.885-0.665-3.905-0.345-5.85 0.575-2.81 0.105-5.715 0.75-8.52 0.1-3.535 0.305-7.095 1.13-10.545 0.705-0.05 1.41-0.095 2.12-0.15z"/>
		<path d="m161.94 241.06c1.445-0.505 2.99-0.84 4.52-0.525 0.935 1 0.515 2.405 0.145 3.55-0.395-0.015-1.18-0.05-1.575-0.07-0.015 2.755 0 5.51-0.02 8.27 0.775 0.24 1.88 0.03 2.335 0.86 0.18 0.785 0.2 1.6 0.29 2.405-0.705 0-1.405 0.005-2.105 0.01-0.25 0.935-0.6 1.9-0.335 2.88 0.58 2.835 0.33 5.745 0.285 8.62-0.99-0.01-1.98-0.01-2.965-0.005-0.195-3.68 0.25-7.395-0.535-11.025-0.035-4.99 0-9.98-0.04-14.97z"/>
	</g>
	<path fill="#fafcfb" d="m174.42 242.84c0.59 0.13 1.175 0.3 1.745 0.51 0.34 0.975 0.42 2.02 0.705 3.015 0.05 1.555 0.085 3.125 0.42 4.655-0.405 0.195-0.81 0.395-1.21 0.6-0.555-2.55-0.995-5.14-1.075-7.745-0.145-0.26-0.44-0.775-0.585-1.035z"/>
	<path fill="#fafcfb" d="m157.67 244c0.185 0.005 0.55 0.01 0.735 0.015-0.135 6.495 0.635 13.075-0.56 19.5-0.325-0.015-0.975-0.05-1.3-0.07 0.03-3.805-0.285-7.64 0.425-11.405-0.03-2.705 0.365-5.365 0.7-8.04z"/>
</svg>
