<?xml version="1.0" encoding="UTF-8" standalone="no"?>
<!-- Created with Inkscape (http://www.inkscape.org/) -->
<!-- http://info.muni.cz/images/pdfmuni/muni1010.pdf -->
<svg
   xmlns:svg="http://www.w3.org/2000/svg"
   xmlns="http://www.w3.org/2000/svg"
   version="1.0"
   width="250"
   height="250">
  <path
     d="M 125,249.99999 C 194.03546,249.99999 249.99999,194.03545 249.99999,124.99999 C 249.99999,55.964535 194.03546,-2.381572e-06 125,-2.381572e-06 C 55.964541,-2.381572e-06 3.452568e-06,55.964535 3.452568e-06,124.99999 C 3.452568e-06,194.03545 55.964541,249.99999 125,249.99999"
     style="fill:#ffffff;fill-opacity:1;fill-rule:nonzero;stroke:none" />
  <path
     d="M 108.84792,187.66218 L 108.84792,133.47881 L 108.85638,133.47881 L 120.671,172.48501 C 120.70825,172.62723 120.74889,172.76776 120.79799,172.90321 C 121.46339,174.77242 123.26149,176.11507 125.38297,176.11507 C 127.518,176.11507 129.32795,174.75549 129.9815,172.86596 L 130.0797,172.5375 L 141.81813,133.67013 L 141.82829,133.67013 L 141.82829,187.66218 C 141.82829,187.88736 141.84861,188.10747 141.86384,188.32927 C 136.74214,190.03763 131.17176,190.98578 125.33726,190.98578 C 119.50614,190.98578 113.93406,190.03763 108.81405,188.32927 C 108.82929,188.10916 108.84792,187.88736 108.84792,187.66218 M 89.009577,65.266209 L 89.009577,175.44629 C 83.518774,169.15125 80.266282,161.38658 80.266282,152.99038 L 80.266282,65.4406 C 80.266282,59.871914 75.694846,55.358044 70.053355,55.358044 C 64.411864,55.358044 59.840428,59.871914 59.840428,65.4406 L 59.840428,152.99038 C 59.840428,185.05985 89.22291,211.15089 125.33726,211.15089 C 161.45329,211.15089 190.83578,185.05985 190.83578,152.99038 L 190.83578,65.4406 C 190.83578,59.871914 186.26434,55.358044 180.62285,55.358044 C 174.98305,55.358044 170.40992,59.871914 170.40992,65.4406 L 170.40992,152.99038 C 170.40992,161.38658 167.15743,169.15125 161.66663,175.44629 L 161.66663,65.266209 C 161.66663,60.395089 158.03826,56.263866 153.1536,55.573071 C 148.26724,54.883969 143.61115,57.843551 142.22787,62.519961 C 142.22787,62.519961 133.13917,93.216308 125.36265,119.48006 C 117.56412,93.216308 108.44665,62.513188 108.44665,62.513188 C 107.05828,57.838471 102.40219,54.882276 97.51922,55.574764 C 92.634556,56.265559 89.009577,60.395089 89.009577,65.266209 M 33.60885,180.69666 L 32.559113,178.80714 L 39.489071,175.02639 C 39.910659,175.86618 40.435528,176.70597 40.855423,177.54576 C 42.325055,180.06513 42.220081,182.27127 39.803992,183.63593 C 36.759755,185.21223 35.078482,183.21773 33.60885,180.69666 M 41.695212,185.94704 C 44.424529,184.47741 44.531196,181.32651 42.535002,177.75571 C 41.485265,175.86618 40.330554,174.49983 39.595738,173.0302 C 38.755948,171.66554 38.124413,170.29919 37.704518,169.24945 L 37.284623,169.4594 L 37.809492,172.08543 C 37.914465,172.82025 37.809492,173.0302 35.185149,174.39655 L 25.207566,179.85687 C 23.108092,181.01159 22.896451,181.01159 22.266609,180.38005 L 20.377082,178.70047 L 19.955494,178.91042 C 20.796977,180.1718 21.846714,181.64143 22.58153,183.00609 C 23.108092,183.95085 24.051162,185.84207 24.577724,186.99847 L 24.997619,186.78853 L 24.47275,184.26746 C 24.367776,183.42767 24.892645,183.00609 28.463445,181.01159 L 31.71763,179.33201 L 32.874034,181.43148 C 31.614349,184.26746 29.408208,188.57308 27.412014,191.93393 C 27.833602,192.56377 28.358471,193.29859 28.673392,193.92843 L 29.618155,195.81965 L 30.03805,195.60801 C 29.408208,193.92843 29.513182,193.71849 31.089481,190.88419 L 34.658587,184.05752 C 36.44314,186.26196 38.859229,187.52165 41.695212,185.94704 M 63.118317,226.06394 L 61.648685,212.83217 L 71.624574,212.20063 C 73.200873,212.09566 74.460558,212.62222 75.300348,212.93545 L 75.615269,212.62222 C 74.565532,211.99238 73.620768,211.36084 72.674311,210.731 C 71.519601,209.89121 70.574837,208.94645 69.5251,208.10666 L 69.210179,208.42158 C 70.049968,209.57629 70.574837,210.20613 70.36489,210.52105 C 70.259916,210.731 69.315152,210.94095 67.738854,211.04592 L 58.812701,211.88571 L 59.967412,223.33293 C 59.967412,223.75451 60.074079,223.96277 59.967412,224.17272 C 59.757465,224.38436 59.232596,224.17272 57.553017,223.54457 L 57.238095,223.85779 C 58.392806,224.5943 59.547517,225.22415 60.703921,226.06394 C 61.963606,227.0087 63.118317,228.05844 64.274721,229.00489 L 64.484668,228.68997 C 63.958107,228.05844 63.538212,227.32531 63.328264,227.0087 C 63.328264,226.90373 63.118317,226.27388 63.118317,226.06394 M 54.297138,216.61291 C 55.346875,215.14159 56.503279,213.56698 57.65799,212.09566 C 58.812701,210.62603 59.967412,209.1547 61.123816,207.68676 C 63.013343,205.37565 63.118317,205.27067 63.749852,205.48062 L 66.374195,206.32041 L 66.689116,206.00549 C 65.324458,205.1657 64.064773,204.32591 62.803396,203.37945 C 61.347309,202.33988 60.201063,201.40188 59.159792,200.364 C 59.208892,200.32675 59.266459,200.28442 59.339263,200.23024 C 58.602754,199.59871 57.867938,198.96886 57.238095,198.12907 C 56.503279,197.39426 55.871744,196.44949 55.243595,195.50473 L 54.928674,195.81965 C 55.346875,196.65944 55.978411,197.91913 55.661796,198.23405 C 55.031954,198.75892 48.520197,200.12358 45.685907,200.75511 C 46.105802,199.59871 49.151733,192.24885 49.676601,191.82727 C 50.20147,191.40906 50.831312,191.61732 52.302637,192.77372 L 52.722532,192.45711 C 51.672795,191.51404 50.726339,190.56927 49.781575,189.51784 C 48.941785,188.46811 48.101996,187.3117 47.365486,186.26196 L 47.050565,186.47191 C 47.262206,187.10345 47.47046,187.83826 47.577127,188.46811 C 46.525697,191.72398 45.370986,194.55827 42.954897,200.23024 L 39.279124,203.27617 C 38.33436,204.01099 37.809492,203.90602 36.44314,203.06453 L 35.185149,202.22474 L 34.868534,202.53966 C 35.814991,203.48612 37.074676,204.7458 38.124413,205.90052 C 39.069176,207.05692 40.120607,208.52655 40.855423,209.57629 L 41.275318,209.36634 L 40.645475,207.99999 C 40.01394,206.53036 40.01394,206.00549 40.960396,205.27067 L 44.63617,202.22474 L 54.928674,200.12358 C 56.818201,199.80865 57.972911,199.59871 58.917675,200.54516 C 58.917675,200.54516 58.919368,200.54347 59.037887,200.45543 C 58.992172,200.51807 58.922754,200.6095 58.812701,200.75511 L 60.389,202.96125 C 60.703921,203.48612 60.597254,203.69437 58.917675,206.00549 C 57.762964,207.47512 56.713227,209.05142 55.556823,210.52105 C 54.402112,211.99238 53.142427,213.46201 51.987716,214.93164 C 50.516391,216.82286 50.411417,216.82286 49.571628,216.61291 L 47.155539,215.8781 L 46.840618,216.19302 C 48.101996,216.92784 49.571628,217.8726 50.831312,218.81906 C 51.987716,219.65885 53.352375,220.81356 54.507086,221.75832 L 54.717033,221.4434 L 53.247401,219.34223 C 52.827506,218.71239 52.827506,218.50244 54.297138,216.61291 M 7.8784368,104.97844 C 8.3000248,104.3486 8.614946,104.03368 9.5597095,104.03368 C 11.55421,104.24363 23.108092,105.71495 25.207566,106.23982 C 25.732435,106.3431 25.837408,106.65972 26.047356,108.02437 L 26.257303,109.38903 L 26.678891,109.4957 C 26.992119,107.49951 27.412014,105.50331 27.936883,103.71876 C 23.631267,100.56785 19.327345,97.311976 15.229983,93.74287 C 20.587029,92.901387 25.837408,91.956623 31.089481,91.326781 C 31.614349,89.540535 32.244192,87.546034 32.874034,85.654814 L 32.454139,85.54984 L 31.297735,87.124446 C 30.982814,87.651008 30.562919,87.755981 30.03805,87.651008 C 27.728628,87.021165 20.167134,84.290156 15.544905,82.400629 C 14.601834,81.980734 14.495167,81.770786 14.28522,80.719356 L 14.180246,78.934803 L 13.760351,78.829829 C 13.550404,79.98454 13.340456,81.245918 13.025535,82.400629 C 12.710614,83.660313 12.290719,84.919998 11.870824,86.181376 L 12.290719,86.286349 L 13.235483,84.815024 C 13.655378,84.080208 14.075273,83.870261 14.810089,84.080208 C 16.806282,84.605077 25.31254,87.336087 29.198261,88.700745 C 23.001425,89.752175 16.806282,90.906886 10.399499,91.536728 L 10.294525,91.956623 C 15.334957,95.632397 19.955494,99.201503 25.102592,103.29886 C 23.526293,103.19389 11.55421,101.61759 9.9796043,101.30267 C 9.7696569,101.1977 9.349762,100.7778 9.349762,99.728065 L 9.1398146,98.153459 L 8.7199197,98.046792 C 8.5099723,99.413144 8.3000248,100.7778 7.8784368,102.24743 C 7.5652088,103.61379 7.0386471,104.97844 6.6187522,106.3431 L 7.0386471,106.44977 L 7.8784368,104.97844 z M 20.796977,158.85197 L 29.828103,159.48351 L 23.108092,165.4687 L 20.796977,158.85197 z M 34.553613,159.06361 L 34.343666,158.43208 C 28.148523,158.11716 20.167134,157.38234 13.235483,156.96245 C 12.603947,156.43588 11.975798,155.70107 11.449236,155.17789 L 11.031035,155.28117 C 11.55421,156.3326 11.975798,157.38234 12.395693,158.43208 C 12.815588,159.58848 13.130509,160.74319 13.44543,161.8979 L 13.865325,161.79462 L 13.865325,158.95695 C 15.651571,158.74869 17.541098,158.64202 19.430625,158.85197 C 19.852213,160.11335 20.377082,161.26806 20.796977,162.52775 C 21.216872,163.78912 21.636767,164.94383 22.056661,166.20352 C 21.321845,166.93833 18.905757,168.82786 17.751046,169.66934 C 17.01623,168.93453 16.17644,167.77982 15.756545,167.14828 L 15.334957,167.25495 C 15.966493,168.51463 16.596335,169.77432 17.01623,171.034 C 17.541098,172.6103 18.065967,174.1866 18.485862,175.76121 L 18.905757,175.55126 L 18.800783,172.82025 C 23.947881,168.30299 29.198261,163.4742 34.553613,159.06361 M 77.611462,224.48764 C 78.451252,222.80806 79.291042,221.12848 80.130832,219.4489 C 81.497183,216.92784 81.705438,216.71789 82.336973,216.82286 L 85.067983,217.13778 L 85.27793,216.71789 C 83.806605,216.19302 82.336973,215.66815 80.972315,214.93164 C 79.291042,214.19683 78.031357,213.46201 76.666699,212.7255 L 76.456752,213.04212 L 78.451252,214.93164 C 78.976121,215.45651 78.871147,215.66815 77.611462,218.29419 C 76.76998,219.97377 76.035164,221.65335 75.195374,223.33293 C 74.355584,225.0142 73.515794,226.69378 72.571031,228.27008 C 71.519601,230.47452 71.41632,230.47452 70.574837,230.36955 L 67.948801,230.05463 L 67.84552,230.47452 C 69.103512,230.99939 70.784785,231.62924 72.25611,232.36574 C 73.515794,232.89061 75.0904,233.83538 76.351778,234.57019 L 76.561725,234.1503 L 74.775479,232.46903 C 74.145637,231.84088 74.145637,231.62924 75.195374,229.52976 C 75.93019,227.84849 76.76998,226.16891 77.611462,224.48764 M 15.441624,149.50593 C 21.74174,148.14127 18.590836,139.00517 23.423013,137.95374 C 25.522487,137.53384 27.412014,139.00517 27.728628,140.89469 C 27.936883,141.94443 28.04355,142.99586 27.833602,144.15057 L 24.682697,145.93513 L 24.682697,146.35671 L 28.988313,145.6202 C 29.303234,144.25555 29.303234,142.25935 28.988313,140.99967 C 28.358471,137.74548 25.837408,134.69955 22.056661,135.43437 C 16.281414,136.58908 18.590836,145.93513 14.180246,146.88158 C 11.345956,147.40645 9.7696569,145.41026 9.2447883,142.99586 C 9.1398146,142.25935 9.0348409,140.78972 9.349762,139.84496 L 13.130509,137.95374 L 13.025535,137.53384 L 7.8784368,138.0604 C 7.5652088,139.94993 7.6701825,141.20961 7.9851037,142.68094 C 9.2447883,148.66614 12.710614,150.03079 15.441624,149.50593 M 14.075273,124.40705 L 14.075273,117.47709 L 22.476556,121.0462 L 14.075273,124.40705 z M 26.992119,121.46778 C 21.321845,119.26164 14.075273,115.90079 7.6701825,113.06481 C 7.2502876,112.32999 6.9353665,111.4902 6.6187522,110.75538 L 6.1988573,110.75538 C 6.303831,111.9101 6.4088048,113.06481 6.4088048,114.21952 C 6.4088048,115.37592 6.303831,116.63561 6.1988573,117.79201 L 6.6187522,117.79201 L 7.5652088,115.16597 C 9.349762,115.58587 11.240982,116.11074 12.815588,116.95053 L 12.815588,120.83625 C 12.815588,122.09763 12.815588,123.46228 12.710614,124.72197 C 11.764158,125.14186 8.8248934,126.1916 7.458542,126.50821 C 7.1436208,125.56176 6.7237259,124.1971 6.5137785,123.46228 L 6.0938836,123.46228 C 6.1988573,124.82694 6.303831,126.1916 6.303831,127.55795 C 6.303831,129.23753 6.1988573,130.81383 5.9889099,132.49341 L 6.5137785,132.49341 L 7.458542,129.86737 C 13.865325,127.348 20.377082,124.61699 26.992119,122.20091 L 26.992119,121.46778 z M 188.50942,213.56698 L 186.82984,214.82667 L 181.99936,208.84147 C 182.73418,208.21163 183.46899,207.68676 184.20381,207.05692 C 186.51492,205.27067 188.82435,204.95575 190.50562,207.1602 C 192.71007,209.78624 190.82054,211.78074 188.50942,213.56698 M 199.22182,214.40677 L 191.7653,212.09566 C 193.7598,209.99618 194.59959,207.37184 192.60509,204.95575 C 190.71557,202.53966 187.45969,202.85458 184.20381,205.37565 C 182.52423,206.742 181.26285,207.99999 179.89819,209.05142 C 178.63851,210.10116 177.37882,210.83597 176.32739,211.46751 L 176.64401,211.78074 L 179.26835,210.94095 C 179.89819,210.62603 180.10814,210.731 181.99936,213.04212 L 189.03599,221.75832 C 190.61059,223.64785 190.61059,223.85779 190.08572,224.5943 L 188.6144,226.69378 L 188.92932,227.0087 C 189.98075,226.06394 191.34541,224.80256 192.60509,223.85779 C 193.55155,223.12298 195.23113,221.96827 196.38584,221.23345 L 196.07092,220.91853 L 193.65652,221.75832 C 192.81504,222.07324 192.29017,221.65335 189.76911,218.50244 L 187.45969,215.66815 L 189.45588,214.19683 C 192.50012,214.93164 197.22563,216.40297 200.9014,217.76763 C 201.53294,217.24276 202.05781,216.71789 202.68765,216.19302 C 203.21252,215.77143 203.84236,215.35154 204.4722,215.03662 L 204.26225,214.61672 C 202.58267,215.45651 202.37273,215.45651 199.22182,214.40677 M 215.81444,167.35823 C 215.39455,167.045 215.1846,166.62341 215.28957,165.99357 L 215.6045,163.78912 L 214.97465,163.4742 C 214.44978,164.83886 213.92492,166.09855 213.29507,167.35823 C 212.76851,168.51463 212.0337,169.66934 211.40385,170.71908 L 211.82375,170.92903 L 213.50502,169.4594 C 214.23984,168.82786 214.55476,168.72458 215.39455,169.0395 C 216.75921,169.56437 218.23053,170.29919 219.49022,170.92903 L 226.42187,174.1866 L 226.42187,174.28988 L 211.71877,176.91592 C 210.45909,177.12587 209.30269,177.33581 208.043,177.33581 C 207.72808,178.1756 207.41316,179.12206 206.99326,179.96185 C 206.57337,180.80164 205.94183,181.64143 205.41697,182.48122 L 205.83686,182.69117 C 206.57337,181.95635 207.30819,181.22153 208.14798,180.59169 L 208.88279,180.48672 L 214.44978,183.21773 C 218.02058,184.89731 222.22123,187.20673 223.06102,187.73329 C 223.27096,187.83826 223.37594,188.25816 223.37594,188.67805 L 223.06102,191.19912 L 223.48091,191.40906 C 224.00578,190.14769 224.42567,188.99297 225.05552,187.73329 C 225.68536,186.57689 226.42187,185.3172 227.15668,184.1608 L 226.73679,183.95085 L 225.26546,185.52715 C 224.53065,186.26196 224.21573,186.26196 223.79583,186.15699 C 223.16599,185.94704 217.599,183.32101 213.81994,181.53645 L 210.66904,179.96185 L 221.27477,178.07063 C 224.84557,177.44079 228.31139,176.81094 231.98717,176.28608 L 232.30209,175.65454 C 229.0479,174.1866 225.79033,172.6103 224.63562,171.98046 C 222.95604,171.24395 218.12556,168.51463 215.81444,167.35823 M 226.31689,128.29277 C 225.79033,128.08282 225.47541,127.7679 225.37044,127.03139 L 224.95054,124.93192 L 224.42567,124.82694 C 224.21573,126.1916 224.11075,127.55795 223.90081,128.92261 C 223.69086,130.18399 223.37594,131.44367 222.95604,132.70336 L 223.48091,132.81002 L 224.63562,130.9188 C 225.16049,130.07901 225.47541,129.86737 226.31689,129.97235 C 227.8915,130.18399 229.36283,130.39394 230.93743,130.60388 L 238.39395,131.86357 L 238.49723,131.96854 L 225.16049,138.58527 C 224.00578,139.11014 222.95604,139.63501 221.69466,140.0549 C 221.69466,140.89469 221.69466,141.83946 221.48472,142.78591 C 221.37974,143.73068 221.06482,144.67544 220.7499,145.6202 L 221.1698,145.72518 C 221.69466,144.78041 222.11456,143.94062 222.74609,143.10084 L 223.48091,142.78591 L 229.57108,143.83565 C 233.56347,144.46549 238.18231,145.41026 239.12877,145.72518 C 239.44369,145.83015 239.65364,146.14507 239.75861,146.56666 L 240.28348,149.08603 L 240.70337,149.08603 C 240.80835,147.82635 240.91332,146.46169 241.12327,145.20031 C 241.33322,143.83565 241.64814,142.4693 242.06972,141.20961 L 241.64814,141.10464 L 240.5984,142.99586 C 240.1785,143.83565 239.86358,144.0456 239.44369,144.0456 C 238.81385,144.0456 232.61701,143.10084 228.52134,142.36433 L 225.05552,141.73448 L 234.6132,137.00897 C 237.86739,135.32939 241.01829,133.75309 244.37915,132.28346 L 244.48412,131.54865 C 240.91332,131.02378 237.34252,130.39394 236.08284,130.18399 C 234.29828,129.97235 228.83626,128.71266 226.31689,128.29277 M 213.1901,192.35383 C 208.88279,188.888 206.78332,187.3117 205.41697,186.26196 C 204.8921,185.84207 204.99707,185.3172 205.20702,184.47741 L 205.62861,183.11106 L 205.31368,182.79614 C 204.57718,183.84588 203.94733,184.89731 203.21252,185.84207 C 202.37273,186.89181 201.42627,187.83826 200.48151,188.78303 L 200.79812,189.09795 L 202.37273,188.04652 C 203.10754,187.62662 203.52744,187.41837 204.05231,187.62662 C 205.94183,188.78303 209.93253,191.82727 212.97846,194.14007 C 215.91942,196.44949 216.33931,199.17881 214.23984,201.69987 C 211.19391,205.58559 208.56787,204.7458 205.31368,202.22474 C 201.53294,199.28379 199.43177,197.70918 197.96214,196.55278 C 197.12066,195.81965 197.22563,195.50473 197.75219,193.82346 L 198.27706,192.35383 L 197.85716,192.03891 C 196.91071,193.40356 196.07092,194.76822 195.02118,196.02791 C 194.07642,197.18431 193.12996,198.23405 192.08022,199.39045 L 192.39514,199.70537 L 194.49631,198.444 C 195.3361,197.91913 195.86097,198.23405 197.96214,199.91532 L 204.8921,205.27067 C 208.67284,208.10666 212.24364,206.84528 215.07963,203.37945 C 217.91392,199.70537 218.02058,196.02791 213.1901,192.35383 M 234.40326,152.13027 L 234.29828,152.55186 C 235.87289,153.60159 236.71268,154.23144 237.0276,154.7563 C 237.34252,155.07123 237.23755,155.59609 236.18781,158.74869 C 235.76792,160.00838 235.24305,161.37303 234.71818,162.73769 C 233.45849,162.42277 231.98717,162.10785 230.62251,161.68796 L 226.52684,160.42827 L 227.57658,157.27737 C 228.73129,153.81154 228.83626,153.49662 229.67605,153.39165 L 232.19712,153.39165 L 232.30209,152.97175 C 231.0424,152.55186 229.88769,152.23693 228.62801,151.81535 C 227.57658,151.50043 226.42187,151.08222 225.26546,150.7673 L 225.16049,151.1855 L 227.05171,152.55186 C 227.57658,153.07672 227.57658,153.39165 226.42187,156.96245 L 225.37044,160.00838 L 221.69466,158.85197 C 220.43498,158.43208 219.38524,158.01218 218.33381,157.69726 C 218.65043,156.54255 219.07032,155.17789 219.59519,153.49662 C 220.7499,150.13577 220.7499,149.82085 221.69466,149.82085 L 224.21573,149.82085 L 224.3207,149.40264 C 223.69086,149.191 222.64112,148.87608 222.11456,148.77111 C 221.69466,148.66614 220.64493,148.24624 219.91011,147.93132 C 219.1753,150.55736 218.44048,153.39165 217.49402,156.22594 C 216.75921,158.43208 215.91942,160.63822 214.97465,163.05261 L 215.39455,163.15928 L 217.07413,160.95314 C 217.49402,160.42827 217.70566,160.3233 220.53995,161.26806 L 231.4623,164.62891 C 233.77172,165.36373 233.87839,165.4687 233.87839,166.41516 L 233.87839,168.93453 L 234.29828,169.0395 C 234.92643,166.93833 235.66294,163.99907 236.50273,161.4797 C 237.0276,159.79674 238.60221,155.28117 239.23374,153.81154 L 236.92263,153.07672 C 236.08284,152.86678 235.24305,152.44688 234.40326,152.13027 M 123.71355,224.17272 C 122.45386,224.06943 121.08921,223.96277 119.82783,223.75451 L 119.82783,224.17272 L 121.82402,225.11917 C 122.76879,225.53907 122.97873,225.74901 122.97873,226.69378 C 122.97873,228.1651 122.97873,229.63474 122.87376,231.21103 L 122.34889,238.66586 L 114.15755,226.48383 C 113.42274,225.43409 112.7912,224.38436 112.26633,223.22965 C 111.32157,223.33293 110.37681,223.4379 109.43035,223.33293 C 108.48728,223.33293 107.43585,223.12298 106.49109,222.91303 L 106.38611,223.33293 C 107.43585,223.75451 108.38061,224.17272 109.32707,224.5943 L 109.64199,225.22415 L 109.32707,231.31431 C 109.11543,235.3067 108.59056,239.92555 108.38061,240.872 C 108.38061,241.18692 108.06569,241.39687 107.54082,241.50184 L 105.12643,242.23666 L 105.12643,242.76153 C 106.49109,242.65656 107.85575,242.65656 109.11543,242.65656 C 110.58676,242.76153 111.95141,242.97148 113.31777,243.18142 L 113.31777,242.76153 L 111.32157,242.02671 C 110.37681,241.71179 110.27014,241.39687 110.16686,240.872 C 110.06189,240.34544 110.37681,234.25527 110.69173,230.1596 L 110.90168,226.69378 L 116.78359,235.51496 C 118.77809,238.45591 120.77429,241.39687 122.66381,244.4428 L 123.39863,244.4428 C 123.5036,240.97698 123.71355,237.40448 123.81852,236.14649 C 123.9235,234.36025 124.44837,228.89992 124.76329,226.48383 C 124.76329,225.85399 125.18487,225.64235 125.81472,225.43409 L 128.01917,224.80256 L 128.01917,224.17272 C 126.54953,224.27769 125.18487,224.27769 123.71355,224.17272 M 26.992119,76.203793 C 28.778366,76.203793 30.143024,74.839135 30.143024,73.157862 C 30.143024,71.478282 28.778366,70.111931 26.992119,70.111931 C 25.31254,70.111931 23.947881,71.478282 23.947881,73.157862 C 23.947881,74.839135 25.31254,76.203793 26.992119,76.203793 M 88.218887,230.68617 L 93.994135,223.75451 L 95.148846,232.46903 L 88.218887,230.68617 z M 96.303557,219.65885 L 95.673715,219.55218 C 91.894661,224.27769 86.747562,230.26458 82.336973,235.62162 C 81.497183,235.83157 80.550727,235.93654 79.710937,235.93654 L 79.605963,236.35475 C 80.762367,236.56469 81.917078,236.77633 83.071789,237.09126 C 84.331474,237.40448 85.487878,237.82607 86.642589,238.24597 L 86.747562,237.82607 L 84.331474,236.24977 C 85.27793,234.67517 86.222694,232.99559 87.482378,231.7359 C 88.743756,232.05082 90.003441,232.36574 91.263125,232.68067 C 92.627784,233.10056 93.889161,233.41548 95.148846,233.83538 C 95.358793,234.78014 95.463767,237.93105 95.463767,239.19073 C 94.519004,239.2957 93.049372,239.40237 92.314556,239.40237 L 92.102915,239.71729 C 93.57424,240.03052 94.938899,240.24216 96.303557,240.66036 C 97.879856,241.08195 99.454462,241.60682 101.03076,242.13169 L 101.13573,241.71179 L 98.824619,240.24216 C 97.98483,233.41548 96.935092,226.48383 96.303557,219.65885 M 173.913,233.20553 C 173.17649,233.52046 172.44167,233.83538 171.70686,234.1503 C 171.18199,233.31051 170.76209,232.46903 170.3422,231.52596 L 167.92611,226.27388 L 169.9223,225.32743 C 173.17649,223.85779 176.32739,223.75451 177.69205,226.79875 C 179.26835,230.1596 176.64401,232.05082 173.913,233.20553 M 167.50621,225.32743 L 165.72166,221.4434 C 165.09013,220.18371 164.7752,219.34223 164.25034,218.08255 C 165.1951,217.55768 165.82664,217.34773 166.7714,216.92784 C 169.18579,215.77143 171.60188,215.8781 172.86326,218.71239 C 174.43787,221.86329 171.60188,223.4379 169.71236,224.27769 L 167.50621,225.32743 z M 172.23173,223.85779 L 172.23173,223.75451 C 174.85776,222.28319 176.74729,219.76382 175.69755,217.4527 C 174.12295,214.09185 170.44717,214.19683 167.29627,215.56318 C 165.72166,216.19302 163.62049,217.4527 162.46578,217.97757 C 161.31107,218.39747 159.83975,218.92234 158.16017,219.55218 L 158.37011,219.97377 L 161.09943,219.65885 C 161.83594,219.55218 162.04589,219.76382 163.2006,222.38986 L 167.92611,232.57569 C 168.97585,234.78014 168.87087,234.88511 168.24103,235.51496 L 166.3515,237.19623 L 166.45648,237.61612 C 167.71616,236.98628 168.87087,236.35475 170.23722,235.7249 C 171.9168,234.88511 174.33289,234.1503 176.53734,233.20553 C 180.63301,231.41929 181.68275,228.27008 180.52804,225.64235 C 178.95343,222.38986 175.17268,222.80806 172.23173,223.85779 M 136.2105,235.40998 L 138.83654,226.90373 L 143.24713,234.57019 L 136.2105,235.40998 z M 149.65391,240.34544 C 146.29306,234.46691 142.72226,228.37505 139.46638,222.28319 L 138.73156,222.38986 C 137.15696,228.1651 134.6359,235.62162 132.64139,242.23666 C 131.90489,242.65656 131.0651,243.07645 130.33028,243.49635 L 130.43525,243.91793 C 131.58996,243.70629 132.74637,243.39137 133.90108,243.28809 C 135.16076,243.18142 136.31548,243.07645 137.57685,243.07645 L 137.57685,242.65656 L 134.74087,242.02671 C 134.95082,240.24216 135.26574,238.35094 135.89558,236.77633 C 137.26024,236.56469 138.52162,236.35475 139.7813,236.24977 C 141.14765,236.03983 142.51231,235.93654 143.772,235.83157 C 144.29856,236.67136 145.66322,239.50565 146.18808,240.66036 C 145.34829,241.18692 143.98194,241.71179 143.24713,242.02671 L 143.3521,242.44661 C 144.71845,242.13169 146.08311,241.92174 147.44777,241.71179 C 149.12904,241.50184 150.80862,241.50184 152.4882,241.39687 L 152.38323,240.97698 L 149.65391,240.34544 z M 100.82081,9.8333125 C 101.55563,9.9382863 101.6606,10.148234 102.0805,12.984217 L 103.76008,24.114818 C 104.07669,26.425933 103.97172,26.530906 103.2369,26.950801 L 100.92579,28.105512 L 100.92579,28.5271 C 103.2369,28.105512 106.17617,27.580644 108.90718,27.160749 C 110.69173,26.845828 115.52221,26.320959 117.09682,26.215985 L 116.78359,23.90487 C 116.67862,22.960107 116.67862,22.015343 116.57195,21.175554 L 116.15375,21.278834 C 115.83883,23.065081 115.62888,24.114818 115.31227,24.639686 C 115.10232,25.061274 114.57745,25.166248 111.32157,25.689423 C 109.85194,25.79609 108.38061,26.006038 106.91098,26.111011 C 106.70103,24.849634 106.38611,23.484975 106.17617,22.120317 L 105.54632,17.919675 L 108.80051,17.49978 C 112.58126,16.868245 112.89787,16.973219 113.31777,17.604754 L 114.47248,19.809202 L 114.89237,19.704228 C 114.68242,18.444544 114.47248,17.289833 114.26253,16.028455 C 114.05258,14.873744 113.94761,13.719033 113.84263,12.562629 L 113.31777,12.562629 L 112.89787,14.873744 C 112.68623,15.60856 112.37131,15.713534 108.59056,16.238403 L 105.33638,16.764964 L 104.81151,12.984217 C 104.60156,11.722839 104.49489,10.568129 104.39161,9.5183914 C 105.54632,9.3084439 107.01596,8.9935228 108.80051,8.7835754 C 112.37131,8.2587068 112.58126,8.2587068 113.10782,8.9935228 L 114.26253,11.197971 L 114.68242,11.092997 C 114.57745,10.463155 114.26253,9.4134177 114.26253,8.9935228 C 114.15755,8.4669611 114.05258,7.4172239 113.94761,6.5774341 C 111.2166,7.1023027 108.38061,7.732145 105.33638,8.1520399 C 103.02526,8.4669611 100.61087,8.6769085 97.98483,8.8868559 L 98.089803,9.4134177 L 100.82081,9.8333125 z M 219.1753,90.801912 C 218.86037,89.752175 218.65043,88.805719 218.65043,87.651008 L 221.48472,85.341586 L 221.37974,85.024972 L 217.28577,86.286349 C 217.1791,87.755981 217.49402,89.752175 218.02058,90.906886 C 219.1753,94.057791 222.22123,96.682134 225.79033,95.317475 C 231.25235,93.216308 227.47161,84.395129 231.67225,82.820523 C 234.40326,81.770786 236.29278,83.55534 237.13257,85.866454 C 237.44749,86.496297 237.76242,87.965929 237.55247,89.015666 L 234.19162,91.431755 L 234.29828,91.85165 L 239.33871,90.486991 C 239.33871,88.597464 239.02379,87.336087 238.49723,85.969735 C 236.29278,80.299461 232.61701,79.459671 230.09764,80.404435 C 224.00578,82.71555 228.62801,91.326781 224.00578,93.008054 C 222.00959,93.74287 219.91011,92.586466 219.1753,90.801912 M 125.81472,7.6271713 C 126.75948,7.6271713 127.70424,7.6271713 128.75398,7.732145 C 131.69494,7.8371188 133.58616,9.0984965 133.48118,11.827813 C 133.26954,15.188665 130.54023,15.503586 127.70424,15.398613 L 125.4998,15.293639 L 125.81472,7.6271713 z M 128.54573,26.215985 L 128.54573,25.79609 L 126.02466,24.849634 C 125.18487,24.639686 125.18487,23.90487 125.28816,19.914176 L 125.4998,16.343376 L 127.91419,16.450043 C 129.70044,18.969412 132.42975,23.065081 134.216,26.530906 C 135.05579,26.425933 135.89558,26.425933 136.6304,26.425933 C 137.36521,26.530906 138.10172,26.530906 138.83654,26.63588 L 138.83654,26.215985 C 137.05029,25.901064 136.94532,25.586143 135.16076,22.855133 L 131.17007,16.343376 C 134.00605,16.028455 136.42045,14.663797 136.52542,11.512892 C 136.6304,8.4669611 134.00605,6.6824079 129.80541,6.4724604 C 127.59927,6.3674867 125.81472,6.5774341 124.13344,6.4724604 C 122.45386,6.4724604 120.98423,6.262513 119.82783,6.0525655 L 119.82783,6.4724604 L 122.45386,7.5221976 C 123.08371,7.732145 123.18868,7.9437856 123.08371,10.88305 L 122.55884,22.015343 C 122.45386,24.324765 122.34889,24.534713 121.50741,24.74466 L 118.98804,25.481169 L 118.98804,25.901064 C 120.45767,25.79609 122.34889,25.79609 123.9235,25.79609 C 125.07821,25.901064 127.17938,26.111011 128.54573,26.215985 M 199.53674,59.611173 C 203.52744,64.336683 207.30819,63.811815 209.40766,62.132235 C 214.34481,57.931593 206.99326,51.419837 210.77401,48.270625 C 212.34862,46.904273 214.76471,47.324168 216.02439,48.7938 C 216.75921,49.528616 217.28577,50.475073 217.599,51.52481 L 215.70947,54.675715 L 216.02439,54.885662 L 219.38524,52.3646 C 218.96535,50.999942 218.02058,49.213695 217.1791,48.163958 C 214.97465,45.642896 211.19391,44.173264 208.35792,46.589352 C 203.84236,50.368406 210.45909,57.510005 207.09824,60.347682 C 204.78712,62.237209 202.4777,61.187472 200.79812,59.296252 C 200.37823,58.771383 199.53674,57.510005 199.3268,56.460268 L 201.74289,53.099416 L 201.42627,52.784495 L 197.12066,55.620478 C 197.75219,57.406725 198.48701,58.561436 199.53674,59.611173 M 215.70947,69.693729 C 215.70947,71.373309 217.07413,72.737967 218.86037,72.737967 C 220.53995,72.737967 221.90461,71.373309 221.90461,69.693729 C 221.90461,68.012457 220.53995,66.647798 218.86037,66.647798 C 217.07413,66.647798 215.70947,68.012457 215.70947,69.693729 M 197.01568,34.93219 L 194.49631,43.438448 L 189.03599,39.132832 L 197.01568,34.93219 z M 179.0584,40.707438 L 178.74348,41.022359 C 179.79322,41.653894 180.73798,42.283737 181.68275,42.913579 C 182.6292,43.753369 183.46899,44.593159 184.41376,45.432948 L 184.6237,45.118027 L 183.15407,42.703632 C 184.6237,41.653894 186.2,40.49749 187.87958,39.762674 C 188.92932,40.604157 189.87578,41.338973 190.92551,42.178763 C 191.97525,43.018553 193.02499,43.858342 194.07642,44.698132 C 193.7598,45.642896 192.71007,48.583853 192.1852,49.845231 C 191.24043,49.528616 189.87578,49.003748 189.14096,48.688827 L 188.82435,49.003748 C 190.08572,49.740257 191.24043,50.475073 192.29017,51.419837 C 193.65652,52.3646 194.81123,53.521004 196.07092,54.675715 L 196.28087,54.25582 L 194.81123,51.944705 C 196.80573,45.432948 198.69695,38.712937 200.79812,32.20118 L 200.27156,31.676312 C 194.91621,34.617269 187.77461,38.083095 181.57947,41.338973 C 180.73798,41.234 179.79322,40.919078 179.0584,40.707438 M 167.50621,35.037164 L 167.29627,35.352085 C 168.66093,35.981927 169.9223,36.508489 171.70686,37.348279 C 173.38813,38.293042 174.54284,39.027858 175.80252,39.762674 L 176.01247,39.447753 C 174.22792,37.6632 173.80802,37.033358 173.913,36.61177 C 173.913,36.086901 174.22792,35.352085 174.96273,33.987427 L 181.4728,22.120317 C 185.67513,24.324765 185.88508,24.534713 185.78011,25.689423 L 185.36021,28.31546 L 185.78011,28.5271 L 188.30117,23.799897 C 185.78011,22.750159 183.36402,21.595448 180.94793,20.334071 C 178.53353,19.074386 176.11745,17.708035 173.80802,16.343376 L 171.28696,20.963913 L 171.70686,21.175554 L 173.70305,19.389307 C 174.54284,18.654491 174.96273,18.759465 179.0584,20.860632 L 172.65162,32.726049 C 171.9168,34.0924 171.49691,34.827216 171.07701,35.142138 C 170.76209,35.352085 170.02728,35.457059 167.50621,35.037164 M 155.00926,30.626575 C 156.37392,31.046469 158.16017,31.571338 159.6298,32.0979 C 160.89118,32.516101 162.57076,33.252611 163.93542,33.882453 L 164.14536,33.462558 L 162.15086,31.886259 C 161.51933,31.361391 161.41605,31.256417 162.25584,29.050276 C 162.88568,27.265722 163.51552,25.481169 164.14536,23.694923 C 164.7752,22.015343 165.51002,20.229097 166.24653,18.549517 C 167.29627,15.818508 167.40124,15.60856 168.03108,15.60856 L 170.86707,15.713534 L 170.97204,15.293639 C 169.50241,14.873744 168.03108,14.453849 166.56145,13.928981 C 164.88018,13.404112 163.41055,12.669296 162.04589,12.037761 L 161.94091,12.457656 L 164.14536,14.243902 C 164.56526,14.558823 164.56526,14.76877 163.51552,17.604754 C 162.88568,19.284334 162.36081,21.07058 161.62599,22.855133 C 160.99446,24.534713 160.25964,26.320959 159.6298,28.000538 C 158.68504,30.20668 158.58006,30.311653 157.74027,30.311653 L 155.21921,30.20668 L 155.00926,30.626575 z M 154.37942,24.74466 C 155.84905,18.549517 145.87316,17.604754 147.02787,12.879244 C 147.44777,10.778076 149.65391,9.7283388 151.54344,10.148234 C 152.59317,10.358181 153.53794,10.778076 154.48439,11.407918 L 154.90429,15.083692 L 155.32418,15.083692 L 156.37392,10.988023 C 155.21921,10.148234 153.43296,9.3084439 152.06831,9.0984965 C 148.81412,8.3619874 144.92671,9.3084439 144.08692,12.984217 C 142.72226,18.654491 152.4882,20.439044 151.43846,24.639686 C 150.80862,27.47567 148.28756,28.105512 145.87316,27.580644 C 145.13835,27.370696 143.66702,26.845828 142.93221,26.111011 L 142.72226,22.015343 L 142.30236,21.91037 L 140.62109,26.740854 C 142.30236,27.790591 143.56205,28.210486 145.03337,28.5271 C 151.12354,29.891758 153.74958,27.370696 154.37942,24.74466 M 76.351778,16.658297 C 77.401515,16.658297 77.611462,16.658297 78.451252,17.604754 C 81.812104,21.175554 87.482378,27.47567 91.368099,32.0979 L 91.999634,31.886259 C 92.207889,23.694923 92.417836,17.079885 92.942705,12.457656 C 93.049372,11.302945 93.364293,10.88305 94.519004,10.148234 L 94.309056,9.7283388 C 93.469267,10.148234 92.627784,10.568129 91.68302,10.88305 C 90.633283,11.302945 89.373598,11.512892 88.218887,11.827813 L 88.428835,12.247708 C 89.898467,12.142734 90.84323,12.142734 91.053178,12.457656 C 91.159845,12.772577 91.159845,13.194165 91.159845,13.719033 C 91.263125,17.394807 91.053178,22.120317 90.84323,26.950801 C 88.322168,24.431432 81.180569,16.658297 80.972315,16.028455 C 80.865648,15.713534 81.077288,15.503586 82.336973,14.663797 L 83.281736,13.928981 L 83.176763,13.509086 C 81.917078,14.138928 80.657393,14.663797 79.396016,15.083692 C 78.031357,15.60856 76.666699,15.925174 75.195374,16.238403 L 75.405321,16.658297 L 76.351778,16.658297 z M 67.109011,22.120317 C 67.738854,22.015343 67.948801,22.225291 69.315152,24.74466 C 70.259916,26.320959 71.204679,28.000538 72.151136,29.681811 C 72.990926,31.256417 73.830715,32.937689 74.670505,34.617269 C 75.826909,36.716743 75.826909,36.926691 75.195374,37.451559 L 73.410821,39.342779 L 73.620768,39.657701 C 74.880453,38.922885 76.456752,37.978121 77.82141,37.243305 C 79.081095,36.61177 80.762367,35.876954 82.127026,35.352085 L 81.917078,34.93219 L 79.291042,35.352085 C 78.556226,35.457059 78.346279,35.457059 77.191568,33.355891 C 76.245111,31.676312 75.300348,30.101706 74.460558,28.420433 C 73.515794,26.740854 72.674311,25.061274 71.834522,23.484975 C 70.574837,20.860632 70.469863,20.648992 70.889758,20.229097 L 72.780978,18.234596 L 72.571031,17.814701 C 71.309653,18.654491 69.944995,19.494281 68.580336,20.229097 C 67.004037,20.963913 65.534405,21.595448 64.168054,22.225291 L 64.378001,22.540212 L 67.109011,22.120317 z M 29.198261,54.150846 C 30.03805,53.730951 30.562919,54.045873 32.559113,55.725452 L 39.279124,61.397419 C 42.849923,64.441657 46.525697,63.39192 49.466654,60.031068 C 52.512585,56.565242 52.827506,52.889469 48.205276,48.898774 C 44.006327,45.223001 42.010134,43.648395 40.750449,42.493684 C 40.22558,42.073789 40.330554,41.548921 40.645475,40.707438 L 41.06537,39.342779 L 40.750449,39.027858 C 40.01394,40.077595 39.384098,41.022359 38.544308,41.968816 C 37.599544,42.913579 36.654781,43.858342 35.708324,44.803106 L 36.024939,45.118027 L 37.599544,44.173264 C 38.33436,43.648395 38.859229,43.543421 39.279124,43.858342 C 41.06537,45.014747 44.951091,48.270625 47.890355,50.68502 C 50.726339,53.099416 50.936286,55.9354 48.731838,58.351488 C 45.475959,62.132235 42.849923,61.080805 39.803992,58.456462 C 36.128219,55.305557 34.133718,53.624285 32.76906,52.3646 C 32.032551,51.629784 32.032551,51.314863 32.664086,49.635283 L 33.188955,48.163958 L 32.874034,47.954011 C 31.92927,49.213695 30.87784,50.580047 29.828103,51.734758 C 28.883339,52.889469 27.833602,53.835925 26.678891,54.990636 L 26.992119,55.200584 L 29.198261,54.150846 z M 47.262206,35.667006 L 47.890355,35.876954 L 51.672795,40.812412 C 54.087191,43.963316 56.713227,47.744063 57.238095,48.583853 C 57.448043,48.7938 57.343069,49.213695 57.133122,49.635283 L 55.661796,51.734758 L 55.978411,52.049679 C 57.028148,51.209889 57.972911,50.368406 59.022649,49.528616 C 60.179053,48.688827 61.333764,47.954011 62.593448,47.219195 L 62.278527,46.904273 L 60.282333,47.63909 C 59.339263,47.954011 59.022649,47.849037 58.602754,47.534116 C 58.182859,47.114221 54.402112,42.283737 51.881049,39.027858 L 49.781575,36.296848 L 49.886549,36.191875 L 60.179053,39.237806 C 63.643185,40.182569 67.109011,41.127333 70.469863,42.38871 L 71.099706,41.862149 C 68.895258,39.132832 66.689116,36.296848 65.9543,35.247111 C 64.799589,33.882453 61.648685,29.261916 60.179053,27.265722 C 59.862438,26.740854 59.967412,26.320959 60.389,25.79609 L 61.648685,23.90487 L 61.22879,23.484975 C 60.179053,24.431432 59.127622,25.374502 57.972911,26.215985 C 56.923174,26.950801 55.768463,27.580644 54.717033,28.31546 L 54.928674,28.630381 L 57.133122,28.105512 C 58.077885,27.790591 58.392806,27.895565 59.022649,28.5271 C 60.074079,29.681811 61.018842,30.836522 61.858632,32.0979 L 66.479169,38.083095 L 52.090997,33.987427 C 50.936286,33.672506 49.781575,33.252611 48.626864,32.726049 C 47.995329,33.355891 47.262206,33.987427 46.525697,34.617269 C 45.685907,35.142138 44.846117,35.667006 43.901354,36.191875 L 44.216275,36.508489 C 45.161038,36.191875 46.210776,35.876954 47.262206,35.667006 M 232.30209,100.46288 C 230.51754,100.7778 228.62801,101.1977 226.73679,101.51431 C 223.90081,102.14246 223.58588,102.14246 223.27096,101.61759 L 221.80133,99.30817 L 221.37974,99.413144 C 221.90461,100.88278 222.3262,102.3541 222.64112,103.82373 C 223.06102,105.50331 223.27096,106.97464 223.48091,108.44427 L 223.90081,108.3393 L 224.21573,105.71495 C 224.3207,105.08511 224.53065,104.97844 227.36663,104.24363 C 229.25616,103.82373 231.0424,103.40384 232.93193,102.98394 C 234.82315,102.56405 236.71268,102.14246 238.49723,101.82754 C 240.91332,101.30267 241.01829,101.40764 241.43988,102.03918 L 242.80454,104.24363 L 243.22444,104.13865 C 242.80454,102.774 242.27967,101.09272 241.96475,99.518117 C 241.64814,98.258433 241.33322,96.472186 241.12327,95.002554 L 240.70337,95.107528 L 240.49343,97.626897 C 240.38845,98.466687 240.28348,98.573354 237.86739,99.098222 C 236.08284,99.518117 234.19162,100.04299 232.30209,100.46288 M 239.02379,121.46778 L 239.02379,121.88768 L 244.1692,122.20091 C 244.79904,120.41635 244.90401,119.15667 244.90401,117.58037 C 244.69407,111.59517 241.43988,109.59898 238.70887,109.70395 C 232.19712,110.02057 233.77172,119.57656 228.83626,119.78651 C 226.73679,119.78651 225.16049,118.10693 225.05552,116.11074 C 225.05552,115.061 225.16049,114.11624 225.58039,113.06481 L 228.94293,111.70015 L 228.94293,111.38523 L 224.63562,111.27856 C 224.11075,112.64491 223.79583,114.63941 223.79583,115.90079 C 223.90081,119.26164 225.89531,122.62249 229.67605,122.51583 C 235.66294,122.30757 234.92643,112.64491 239.44369,112.53994 C 242.27967,112.43496 243.53936,114.63941 243.64433,117.0555 C 243.64433,117.89698 243.53936,119.26164 243.01449,120.20641 L 239.02379,121.46778 z"
     style="fill:#233d79;fill-opacity:1;fill-rule:nonzero;stroke:none" />
</svg>
