<svg xmlns="http://www.w3.org/2000/svg" width="1570" height="400" version="1.1">
  <path d="M27.473 389.927l-6.294-1.493.676-4.674c.373-2.57.8-4.817.95-4.993.15-.175 2.647.388 5.549 1.252 13.05 3.881 23.897-.752 23.897-10.208 0-6.112-3.023-9.389-14.436-15.648-5.77-3.165-11.61-7.085-12.977-8.713-6.323-7.526-5.742-18.962 1.322-26.038 6.159-6.17 15.92-8.093 28.09-5.536l5.495 1.155-.349 5.004c-.192 2.752-.459 5.122-.593 5.265-.135.144-2.17-.42-4.523-1.251-8.396-2.967-18.44-1.322-20.983 3.437-1.776 3.324-1.166 7.746 1.507 10.928 1.395 1.66 6.453 5.143 11.24 7.738 10.997 5.962 15.558 10.572 17.187 17.372 3.111 12.992-3.134 23.048-16.474 26.529-7.139 1.862-11.008 1.837-19.284-.126zm134.188.263c-6.785-1.68-10.847-3.954-15.643-8.757-8.226-8.24-12.142-22.705-9.97-36.82 1.545-10.027 5.012-16.85 11.657-22.933 6.927-6.342 13.26-8.622 23.947-8.622 10.688 0 17.02 2.28 23.948 8.622 6.644 6.084 10.112 12.906 11.656 22.934 2.822 18.328-4.578 36.1-17.827 42.814-7.89 4-18.505 5.055-27.768 2.762zm19.983-10.5c8.51-3.947 13.545-12.836 14.277-25.21.552-9.341-1.473-17.06-6.042-23.03-4.777-6.242-9.627-8.413-18.8-8.413-6.616 0-8.1.353-11.794 2.802-8.368 5.549-12.731 16.211-11.9 29.08 1.08 16.694 10.13 26.625 24.267 26.625 3.73 0 7.505-.7 9.992-1.854zm62.387 10.605c-8.204-2.332-14.252-8.102-17.593-16.783-1.418-3.684-1.774-9.055-2.101-31.708l-.395-27.274H235.1v24.84c0 27.492.802 32.739 5.722 37.44 3.536 3.38 7.27 4.778 12.762 4.778 5.492 0 9.227-1.398 12.763-4.777 4.92-4.702 5.722-9.95 5.722-37.441v-24.84h11.158l-.404 27.274c-.337 22.727-.693 28.046-2.136 31.91-2.355 6.307-7.605 12.18-13.27 14.848-5.809 2.735-16.953 3.561-23.386 1.733zm416.217-.105c-6.785-1.68-10.848-3.954-15.643-8.757-8.226-8.24-12.143-22.705-9.97-36.82 1.545-10.027 5.012-16.85 11.657-22.933 6.927-6.342 13.26-8.622 23.947-8.622 10.688 0 17.02 2.28 23.948 8.622 6.644 6.084 10.112 12.906 11.656 22.934 2.822 18.328-4.578 36.1-17.827 42.814-7.89 4-18.505 5.055-27.768 2.762zm19.983-10.5c8.51-3.947 13.545-12.836 14.277-25.21.552-9.341-1.473-17.06-6.042-23.03-4.777-6.242-9.627-8.413-18.8-8.413-6.616 0-8.1.353-11.794 2.802-8.368 5.549-12.731 16.211-11.9 29.08 1.08 16.694 10.13 26.625 24.267 26.625 3.73 0 7.505-.7 9.992-1.854zm306.185 10.605c-8.204-2.332-14.252-8.102-17.593-16.783-1.418-3.684-1.774-9.055-2.102-31.708l-.394-27.274h11.158v24.84c0 27.492.802 32.739 5.721 37.44 3.537 3.38 7.271 4.778 12.763 4.778s9.227-1.398 12.763-4.777c4.92-4.702 5.722-9.95 5.722-37.441v-24.84h11.158l-.404 27.274c-.337 22.727-.693 28.046-2.136 31.91-2.356 6.307-7.605 12.18-13.27 14.848-5.81 2.735-16.953 3.561-23.386 1.733zm370.955-.368l-6.294-1.493.676-4.674c.373-2.57.8-4.817.95-4.993.15-.175 2.647.388 5.55 1.252 13.049 3.881 23.896-.752 23.896-10.208 0-6.112-3.023-9.389-14.436-15.648-5.77-3.165-11.61-7.085-12.977-8.713-6.322-7.526-5.742-18.962 1.322-26.038 6.16-6.17 15.92-8.093 28.09-5.536l5.495 1.155-.349 5.004c-.192 2.752-.459 5.122-.593 5.265-.135.144-2.17-.42-4.523-1.251-8.396-2.967-18.44-1.322-20.983 3.437-1.776 3.324-1.166 7.746 1.507 10.928 1.395 1.66 6.453 5.143 11.24 7.738 10.997 5.962 15.558 10.572 17.187 17.372 3.111 12.992-3.134 23.048-16.474 26.529-7.139 1.862-11.008 1.837-19.284-.126zM79.229 352.563V314.53h41.965v10.009H90.22v21.018h28.976v10.009H90.22v25.021h30.974v10.009H79.23v-38.033zm223.814 0V314.53h10.991v66.057h30.975v10.009h-41.966v-38.033zm84.93 0V314.53h14.756l16.852 30.579 16.852 30.578.264-30.578.264-30.579h10.962V390.683l-7.103-.294-7.103-.294-17.127-30.88-17.126-30.88-.264 31.13-.264 31.13h-10.962v-38.032zm72.374 36.281c.313-.963 7.47-17.965 15.907-37.782l15.339-36.031h11.604l15.827 37.437c8.705 20.591 15.827 37.593 15.827 37.783 0 .19-2.585.344-5.745.342l-5.745-.002-3.62-9.256-3.621-9.255-18.92-.271-18.92-.272-3.844 9.53-3.845 9.529h-5.406c-4.7 0-5.332-.23-4.838-1.752zm51.096-28.024c-3.609-9.857-14.053-35.279-14.493-35.274-.418.004-10.51 24.502-14.888 36.14-.184.49 6.46.886 14.845.886 14.033 0 15.129-.133 14.536-1.752zm95.349-8.257V314.53h10.991v76.066h-10.991v-38.033zm115.904 0V314.53h14.756l16.852 30.579 16.852 30.578.264-30.578.264-30.579h10.962V390.683l-7.103-.294-7.104-.294-17.126-30.88-17.127-30.88-.264 31.13-.264 31.13h-10.962v-38.032zm72.374 36.281c.312-.963 7.47-17.965 15.907-37.782l15.338-36.031h11.604l15.828 37.437c8.705 20.591 15.827 37.593 15.827 37.783 0 .19-2.585.344-5.745.342l-5.745-.002-3.62-9.256-3.621-9.255-18.92-.271-18.92-.272-3.844 9.53-3.845 9.529h-5.406c-4.7 0-5.332-.23-4.838-1.752zm51.096-28.024c-3.609-9.857-14.054-35.279-14.493-35.274-.419.004-10.51 24.502-14.888 36.14-.184.49 6.46.886 14.844.886 14.033 0 15.13-.133 14.537-1.752zm35.398-8.257V314.53h10.991v66.057h30.974v10.009h-41.965v-38.033zm163.864 0V314.53h14.757l16.851 30.579 16.852 30.578.264-30.578.265-30.579h10.962V390.683l-7.104-.294-7.103-.294-17.127-30.88-17.126-30.88-.264 31.13-.264 31.13H1045.428v-38.032zm79.934 0V314.53h10.991v76.066h-10.991v-38.033zm36.308.25l-14.134-37.782 5.513-.304c3.032-.167 5.704-.111 5.938.123.235.235 5.364 14.559 11.398 31.831s11.24 32.08 11.57 32.905c.814 2.039 1.296.843 14.023-34.77l10.817-30.267 5.613-.01 5.614-.009-14.357 37.689c-7.895 20.728-14.356 37.843-14.356 38.032 0 .19-3.039.345-6.753.345h-6.753l-14.133-37.783zm67.606-.25V314.53h41.965v10.009h-30.974v21.018h28.976v10.009h-28.976v25.021h30.974v10.009h-41.965v-38.033zm58.951-.632v-38.666l15.737.474c13.559.408 16.467.792 21.01 2.77 5.952 2.59 8.47 5.548 10.198 11.971 1.97 7.33.569 12.863-4.488 17.73-2.375 2.285-5.792 4.48-7.594 4.875l-3.275.72 2.731 1.994c2.89 2.108 4.47 4.935 13.72 24.536l5.786 12.26-6.18-.004-6.18-.005-5.994-14.14c-3.297-7.778-7.187-15.432-8.644-17.01-2.401-2.6-3.267-2.87-9.243-2.87h-6.593v34.03h-10.991V351.93zm28.341-6.753c4.591-1.922 7.63-6.12 7.63-10.543 0-7.626-5.46-11.097-17.454-11.097h-7.526v23.02h7.026c3.865 0 8.51-.621 10.324-1.38zm92.559 7.385V314.53h10.991v76.066h-10.991v-38.033zm111.907 22.002v-16.032l-13.803-20.75c-7.592-11.413-14.138-21.314-14.547-22.002-.562-.945.735-1.25 5.302-1.25h6.045l11.374 17.07 11.373 17.072 10.867-17.056 10.867-17.055 6.251-.016 6.252-.016-14.495 21.765-14.495 21.765v32.536h-10.991v-16.031zM561.83 356.566v-33.028h-23.98v-10.009H595.8v10.009H572.82v66.057h-10.991v-33.029zm893.26 0v-33.028h-23.98v-10.009h57.952v10.009h-22.981v66.057h-10.991v-33.029zM369.988 215.946V187.42h132.89v-9.927c0-5.46-.273-10.64-.607-11.51-.544-1.422-7.374-1.583-66.944-1.583h-66.338v-15.987l33.222-.264 33.223-.264.276-14.762.277-14.763h-77.989v-18.015H532.853v18.015h-74.938v30.026h63.947v57.049h-132.89v22.02H524.86v17.014H369.988v-28.525zM171.153 176.91v-66.557H126.19V91.338h44.963V28.283h19.983V243.47h-19.983V176.91zm627.48-40.534V29.284h19.983V96.342h22.981V29.284h19.984V243.47h-19.984V114.358h-22.98v129.111h-19.984V136.377zm383.446 73.813l-.264-33.279-70.691-.256-70.691-.257.01-4.748c.007-2.61.29-6.436.63-8.5l.62-3.754h129.631V29.284h22.981v39.034h30.974v20.017h-30.974v71.061h7.993V243.47h-19.956l-.263-33.279zm210.062 8.758v-10.51h27.977v-96.082h21.982v96.083h25.979v-96.083h19.983v96.083h26.834l2.166-5.755c1.191-3.166 3.252-10.554 4.579-16.418 5.243-23.169 5.645-28.374 6.113-79.165l.441-47.79h-127.061V39.292h145.879V95.62c0 43.982-.328 58.983-1.497 68.44-1.688 13.654-4.643 28.825-7.427 38.122l-1.873 6.256H1564v21.018H1392.14v-10.51zM11.71 168.298L6 160.182l6.39-5.58c16.962-14.815 22.626-22.04 33.174-42.32 7.119-13.686 9.803-21.173 12.149-33.882 1.322-7.164 3.492-30.498 3.521-37.857.009-2.185.307-2.252 10-2.252h9.992V49.25c0 12.935 2.156 30.584 5.02 41.087 2.5 9.174 11.972 28.88 18.762 39.034 4.676 6.994 14.138 16.918 25.475 26.718l4.793 4.144-5.605 7.839c-3.083 4.311-5.974 7.97-6.423 8.132-1.542.555-16.606-11.624-24.11-19.492-8.768-9.193-15.796-19.556-23.552-34.73l-5.568-10.892-3.233 7.448c-7.058 16.26-17.6 31.944-28.059 41.743-6.838 6.408-19.211 16.13-20.528 16.13-.43 0-3.35-3.651-6.49-8.114zm680.011-57.443V45.298H773.654v17.015h-59.951v96.083h61.949v18.015H691.72v-65.556zm385.967 35.124c-6.868-2.223-12.777-6.22-18.187-12.3-6.232-7.004-9.183-14.334-9.828-24.41-1.093-17.083 7.7-31.862 23.611-39.69 5.099-2.508 6.63-2.762 16.607-2.762 9.85 0 11.588.28 16.74 2.698 7.507 3.524 16.232 11.88 19.803 18.965 10.293 20.422 1.681 45.479-19.005 55.298-5.707 2.71-7.763 3.137-16.039 3.336-5.894.141-11.088-.289-13.702-1.135zm18.96-19.184c7.823-2.67 14.715-12.011 14.715-19.944 0-8.68-7.889-18.334-16.713-20.455-8.85-2.126-17.336 1.676-22.534 10.098-6.036 9.779-2.35 23.345 7.777 28.62 6.764 3.522 10.315 3.879 16.755 1.68zM440.568 92.21c-20.348-2.88-35.609-20.808-35.609-41.832 0-31.575 32.733-51.318 61.554-37.127 12.184 6 21.025 19.317 22.075 33.253 2.117 28.11-20.467 49.606-48.02 45.706zm12.493-20.05c5.171-1.552 11.694-7.297 13.96-12.295 4.837-10.666.397-23.356-10.105-28.883-4.736-2.493-6.283-2.823-11.198-2.394-7.276.635-13.339 3.981-17.204 9.496-2.48 3.538-3.08 5.511-3.4 11.176-.341 6.06-.054 7.493 2.417 12.04 5.235 9.634 15.32 13.924 25.53 10.86zm580.377-18.856v-8.007h43.964V25.281h22.98v20.018h42.965V61.311H1033.438v-8.007z" fill="#003380" fill-opacity="1"/>
</svg>
