<?xml version="1.0" encoding="utf-8"?>
<!-- Generator: Adobe Illustrator 24.1.1, SVG Export Plug-In . SVG Version: 6.00 Build 0)  -->
<svg version="1.1" id="sharif_logo" xmlns="http://www.w3.org/2000/svg" xmlns:xlink="http://www.w3.org/1999/xlink" x="0px"
	 y="0px" viewBox="0 0 425.2 425.2" style="enable-background:new 0 0 425.2 425.2;" xml:space="preserve">
<title>Sharif University of Technology logo</title>
<desc>This is a redesign of Sharif University of Technology's logo, which improves on existing versions. The work was performed by Hamed Amanollahi and supervised by Pooria Soltani at the International Affairs Office, Sharif University of Technology, 2021. The HEX color code of the design is #1966AB, which is the year of establishment of the university, and the color blue in Farsi (Abi).</desc>
<style type="text/css">
	.st0{fill:#1966AB;}
</style>
<path id="outer_ring" class="st0" d="M212.59,0c117.42,0,212.6,95.18,212.6,212.6c0,117.41-95.18,212.6-212.6,212.6
	C95.18,425.2,0,330.01,0,212.6C0,95.18,95.18,0,212.59,0z M418.12,212.6C418.12,99.1,326.1,7.09,212.6,7.09S7.08,99.1,7.08,212.6
	s92.01,205.51,205.51,205.51S418.12,326.1,418.12,212.6z"/>
<path id="gear" class="st0" d="M409.89,191.21c-0.51-4.73-1.18-9.41-2.02-14.04h-11.01h-3.41h-14.47
	c-1.23-5.81-2.76-11.51-4.56-17.08l12.53-7.24l2.94-1.69l9.55-5.52c-1.61-4.51-3.38-8.94-5.31-13.29
	c-2.41-5.46-5.07-10.79-7.96-15.97l-3.25-5.64c-3.15-5.27-6.55-10.38-10.16-15.31c-2.8-3.82-5.73-7.53-8.79-11.14l-9.52,5.5
	l-2.98,1.72l-12.53,7.23c-3.94-4.38-8.11-8.55-12.48-12.48l7.23-12.53l1.73-2.98l5.49-9.52c-3.64-3.08-7.38-6.04-11.24-8.86
	c-4.82-3.53-9.82-6.85-14.97-9.94l-6.06-3.5c-5.16-2.87-10.47-5.51-15.9-7.91c-4.31-1.91-8.71-3.67-13.18-5.26l-5.52,9.56l-1.7,2.94
	l-7.23,12.52c-5.57-1.8-11.26-3.33-17.07-4.56V31.76v-3.41V17.33c-4.67-0.85-9.4-1.53-14.18-2.04c-6.57-0.69-13.23-1.07-19.98-1.11
	h-2.56c-6.79,0.04-13.5,0.42-20.11,1.13c-4.73,0.51-9.42,1.18-14.04,2.02v11.02v3.41v14.46c-5.81,1.23-11.51,2.76-17.08,4.56
	l-7.23-12.53l-1.7-2.93l-5.51-9.57c-4.51,1.62-8.95,3.39-13.3,5.33c-5.31,2.34-10.51,4.92-15.56,7.72l-6.47,3.74
	c-5.12,3.07-10.08,6.38-14.88,9.9c-3.82,2.8-7.54,5.73-11.14,8.79l5.49,9.52l1.72,2.98l7.24,12.53c-4.38,3.93-8.55,8.1-12.48,12.48
	l-12.53-7.23l-2.99-1.72l-9.51-5.5c-3.09,3.64-6.04,7.39-8.87,11.25c-3.58,4.9-6.95,9.97-10.08,15.2l-3.25,5.64
	c-2.91,5.22-5.58,10.58-8.01,16.08c-1.91,4.31-3.67,8.71-5.26,13.18l9.55,5.52l2.94,1.69l12.53,7.24
	c-1.81,5.57-3.34,11.27-4.57,17.08H31.75h-3.41H17.33c-0.85,4.67-1.53,9.4-2.04,14.17c-0.74,6.98-1.12,14.08-1.12,21.26
	c0,7.23,0.39,14.36,1.14,21.39c0.51,4.73,1.18,9.41,2.02,14.04h11.01h3.41h14.46c1.23,5.81,2.76,11.51,4.56,17.08l-12.52,7.23
	l-2.94,1.7l-9.56,5.51c1.61,4.51,3.39,8.95,5.32,13.3c2.39,5.41,5.02,10.7,7.88,15.84l3.4,5.89c3.13,5.22,6.5,10.29,10.09,15.18
	c2.8,3.82,5.73,7.54,8.79,11.15l9.51-5.5l2.99-1.72l12.53-7.23c3.93,4.38,8.1,8.55,12.48,12.48l-7.24,12.53l-1.72,2.98l-5.49,9.52
	c3.64,3.08,7.39,6.04,11.25,8.86c4.77,3.49,9.69,6.77,14.77,9.83l6.33,3.66c5.14,2.84,10.41,5.47,15.82,7.85
	c4.31,1.91,8.71,3.67,13.18,5.27l5.52-9.56l1.69-2.93l7.23-12.53c5.57,1.8,11.27,3.33,17.08,4.56v14.46v3.41v11.01
	c4.67,0.85,9.39,1.53,14.17,2.03c6.98,0.75,14.08,1.13,21.26,1.13c7.23,0,14.36-0.39,21.39-1.14c4.73-0.51,9.42-1.18,14.05-2.02
	v-11.01v-3.41v-14.46c5.81-1.23,11.5-2.76,17.07-4.56l7.23,12.52l1.7,2.94l5.52,9.56c4.51-1.62,8.94-3.39,13.29-5.32
	c5.43-2.4,10.73-5.04,15.89-7.91l5.96-3.44c5.18-3.11,10.2-6.45,15.06-10.02c3.82-2.79,7.54-5.72,11.15-8.78l-5.49-9.52l-1.73-2.98
	l-7.23-12.53c4.37-3.93,8.54-8.1,12.48-12.48l12.53,7.23l2.98,1.72l9.52,5.5c3.09-3.64,6.04-7.39,8.87-11.25
	c3.55-4.86,6.9-9.89,10.01-15.08l3.4-5.89c2.88-5.18,5.52-10.5,7.93-15.95c1.91-4.32,3.67-8.72,5.27-13.19l-9.56-5.51l-2.94-1.7
	l-12.53-7.23c1.8-5.57,3.33-11.27,4.56-17.08h14.47h3.41h11.01c0.85-4.67,1.53-9.4,2.04-14.17c0.74-6.98,1.12-14.08,1.12-21.26
	C411.03,205.37,410.64,198.24,409.89,191.21z M381.36,233.86h-14.29c-0.65,4.8-1.52,9.52-2.6,14.17c-0.77,3.31-1.65,6.59-2.63,9.82
	c-1.39,4.58-2.98,9.07-4.76,13.46l12.37,7.15l12.38,7.14c-2.37,5.5-5.01,10.87-7.9,16.07c-1.12,2.05-2.29,4.07-3.5,6.06
	c-3.08,5.1-6.4,10.04-9.95,14.8l-12.36-7.14l-12.39-7.15c-2.95,3.8-6.07,7.46-9.36,10.96c-2.31,2.47-4.7,4.86-7.17,7.17
	c-3.47,3.26-7.1,6.35-10.86,9.28l7.15,12.39l7.14,12.36c-4.93,3.68-10.04,7.11-15.34,10.29c-1.83,1.1-3.69,2.17-5.56,3.21
	c-5.19,2.87-10.53,5.5-16.01,7.86l-7.13-12.36l-7.15-12.38c-4.43,1.81-8.97,3.41-13.59,4.81c-3.23,0.98-6.5,1.86-9.81,2.62
	c-4.61,1.08-9.3,1.94-14.05,2.6v14.29v14.28c-7.02,0.81-14.16,1.23-21.39,1.23c-7.19,0-14.28-0.41-21.26-1.21v-14.28v-14.3
	c-4.8-0.65-9.52-1.52-14.17-2.6c-3.31-0.77-6.58-1.65-9.81-2.63c-4.58-1.38-9.08-2.98-13.47-4.76l-7.15,12.38l-7.14,12.37
	c-5.56-2.4-10.98-5.07-16.23-7.98c-1.9-1.05-3.77-2.14-5.62-3.25c-5.2-3.12-10.22-6.5-15.07-10.11l7.14-12.37l7.15-12.38
	c-3.8-2.95-7.46-6.08-10.97-9.37c-2.46-2.31-4.85-4.7-7.16-7.16c-3.26-3.47-6.36-7.1-9.29-10.86l-12.38,7.15l-12.37,7.14
	c-3.64-4.88-7.04-9.95-10.19-15.18c-1.11-1.85-2.2-3.72-3.25-5.62c-2.89-5.22-5.54-10.59-7.93-16.11l12.37-7.14l12.38-7.15
	c-1.81-4.43-3.41-8.96-4.81-13.59c-0.98-3.23-1.86-6.5-2.63-9.81c-1.07-4.61-1.93-9.29-2.58-14.04h-14.3H29.57
	c-0.81-7.02-1.23-14.16-1.23-21.39c0-7.19,0.41-14.28,1.21-21.26h14.28h14.3c0.65-4.8,1.52-9.52,2.6-14.17
	c0.77-3.32,1.65-6.59,2.63-9.82c1.38-4.58,2.97-9.07,4.76-13.46l-12.38-7.15l-12.37-7.14c2.4-5.56,5.07-10.98,7.98-16.23
	c1.05-1.9,2.14-3.77,3.25-5.62c3.13-5.2,6.5-10.23,10.12-15.08l12.36,7.14l12.38,7.15c2.95-3.8,6.08-7.46,9.36-10.96
	c2.31-2.47,4.7-4.86,7.17-7.17c3.47-3.26,7.1-6.36,10.86-9.28l-7.15-12.38l-7.13-12.37c4.88-3.64,9.94-7.04,15.17-10.19
	c1.85-1.11,3.72-2.2,5.62-3.25c5.22-2.89,10.59-5.54,16.11-7.93l7.14,12.37l7.15,12.37c4.43-1.8,8.96-3.41,13.58-4.81
	c3.23-0.98,6.51-1.86,9.82-2.63c4.61-1.07,9.29-1.93,14.04-2.58V43.86V29.58c7.02-0.81,14.16-1.23,21.39-1.23
	c7.19,0,14.28,0.41,21.26,1.21v14.28v14.29c4.8,0.65,9.53,1.52,14.18,2.61c3.31,0.76,6.58,1.64,9.81,2.62
	c4.58,1.38,9.07,2.98,13.47,4.76l7.14-12.37l7.14-12.37c5.52,2.38,10.9,5.03,16.13,7.92c1.87,1.04,3.73,2.11,5.56,3.21
	c5.26,3.16,10.35,6.57,15.24,10.22l-7.14,12.36l-7.14,12.37c3.8,2.96,7.45,6.08,10.95,9.36c2.47,2.32,4.86,4.71,7.18,7.18
	c3.25,3.47,6.35,7.09,9.28,10.85l12.38-7.14l12.36-7.14c3.58,4.79,6.93,9.77,10.03,14.9c1.21,1.99,2.38,4.01,3.5,6.06
	c2.87,5.17,5.49,10.49,7.84,15.95l-12.37,7.14l-12.37,7.14c1.81,4.43,3.41,8.97,4.81,13.59c0.98,3.23,1.86,6.5,2.63,9.82
	c1.07,4.6,1.93,9.29,2.59,14.04h14.28h14.29c0.81,7.02,1.23,14.16,1.23,21.39c0,7.19-0.41,14.28-1.21,21.26H381.36z"/>
<g id="text">
	<path class="st0" d="M205.94,85.17c-0.48-1.78-0.93-2.17-2.53-2.3c-0.97-0.08-1.64-1.05-1.27-1.98c0.19-0.49,0.56-0.94,0.95-1.31
		c1.12-0.9,2.98-1.7,4.38-1.87c2-0.23,3.83-0.02,5.7,1.04c0.36,0.2,0.71,0.44,1.03,0.72c1.16,1.03,1.19,2.03,0.16,3.18
		c-0.41,0.46-0.81,0.97-1.11,1.5c-0.38,0.68-0.18,1.2,0.55,1.41c1.39,0.39,2.8,0.41,4.16-0.09c0.36-0.13,0.66-0.49,0.94-0.79
		c1.05-1.1,1.85-1.06,2.76,0.15c0.8,1.07,1.87,1.64,3.19,1.75c1.01,0.09,1.83-0.29,2.51-1.03c1.69-1.82,2.09-1.78,3.48,0.31
		c0.43,0.65,0.83,1.33,1.75,1.42c0.54,0.05,0.93-0.07,1.33-0.45c2.48-2.29,5.18-4.23,8.42-5.32c3.2-1.08,6.11-0.4,8.68,1.66
		c2.03,1.63,2.67,3.85,2.08,6.34c-0.29,1.23-0.82,2.43-1.43,3.54c-1.27,2.27-3.31,3.08-5.84,2.7c-3.18-0.48-6.35-0.97-9.53-1.47
		c-1.44-0.23-2.87-0.55-4.32-0.76c-1.48-0.21-2.7-0.91-3.86-1.79c-0.23-0.17-0.71-0.27-0.94-0.15c-2.97,1.53-5.76,1.18-8.4-0.75
		c-0.5-0.37-0.9-0.47-1.48-0.14c-0.61,0.35-1.29,0.55-1.94,0.82c-2.39,1.01-4.53,0.53-6.36-1.2c-0.68-0.64-1.18-0.6-1.96-0.25
		c-1.73,0.78-3.5,1.53-5.31,2.11c-3.41,1.08-6.26-0.19-7.94-3.38c-0.45-0.85-0.86-1.74-1.36-2.56c-0.67-1.08-1.68-1.57-2.94-1.34
		c-1.77,0.32-3.39,1.04-4.85,2.1c-0.23,0.17-0.52,0.56-0.46,0.73c0.1,0.26,0.45,0.52,0.74,0.58c1.32,0.31,2.67,0.49,3.99,0.82
		c3.18,0.79,4.08,2.29,2.94,5.34c-2.01,5.39-5.86,8.92-11.38,10.57c-2.15,0.64-4.35,0.86-6.59,0.42c-3.45-0.68-5.83-3.44-6.08-6.95
		c-0.23-3.31,0.03-6.58,0.65-9.83c0.1-0.51,0.09-1.22,0.83-1.23c0.68-0.01,0.88,0.62,0.96,1.16c0.08,0.61,0.08,1.24,0.02,1.86
		c-0.25,2.28-0.34,4.53,0.42,6.74c0.4,1.14,1.13,1.86,2.36,2.01c3.63,0.46,7.18,0.16,10.42-1.64c1.16-0.64,2.53-1.58,3.22-2.79
		c0.18-0.32-0.03-0.53-0.59-0.62c-0.46-0.07-0.94-0.12-1.4-0.13c-3.92-0.06-5.83-3.8-4.03-7.25c0.79-1.52,1.97-2.73,3.35-3.68
		c1.61-1.11,3.29-2.12,4.99-3.07c2.69-1.5,5.05,0.04,6.18,1.79c0.54,0.83,0.99,1.72,1.56,2.53c1.02,1.45,2.31,2.16,3.96,2
		C201.3,86.32,202.29,86.03,205.94,85.17z M236.24,88.54c0.74,0.1,1.35,0.21,1.72,0.26c3.1,0.43,6.2,0.85,9.31,1.26
		c0.41,0.05,0.84,0.08,1.25,0.02c0.66-0.08,0.81-0.4,0.5-0.98c-0.56-1.03-1.3-1.94-2.46-2.29c-0.81-0.24-1.68-0.39-2.53-0.38
		C241.48,86.46,238.53,87.54,236.24,88.54z"/>
	<path class="st0" d="M281.62,108.89c-0.44,0.17-0.81,0.24-1.1,0.43c-1.39,0.93-2.87,0.76-4.29,0.23c-1.46-0.55-2.86-1.27-4.26-1.97
		c-1.76-0.89-2.45-2.44-2.42-4.32c0.03-2.61,0.99-4.97,2.18-7.21c1.21-2.28,2.65-4.44,3.89-6.71c0.91-1.67,1.79-3.38,2.41-5.16
		c0.86-2.48,2.76-3.66,5.02-4.43c1.09-0.37,1.67,0.29,1.36,1.41c-0.12,0.42-0.32,0.82-0.55,1.2c-3.11,5.2-6.25,10.38-9.32,15.61
		c-1.2,2.05-0.94,3.53,0.97,4.92c1.59,1.16,3.35,2.12,5.1,3.04c1.13,0.59,1.86,0.1,1.71-1.16c-0.18-1.49-0.53-2.98-1-4.41
		c-0.56-1.71-1.29-3.36-1.98-5.03c-0.44-1.06-0.27-1.79,0.7-2.43c0.8-0.53,1.66-0.79,2.67-0.68c6.44,0.73,12.88,1.42,19.32,2.12
		c0.83,0.09,1.67,0.14,2.49,0.29c0.32,0.06,0.79,0.35,0.82,0.58c0.03,0.3-0.24,0.72-0.5,0.95c-1.87,1.6-4.1,1.75-6.43,1.53
		c-3.9-0.35-7.81-0.65-11.72-0.97c-0.17-0.01-0.35,0.04-0.61,0.07c0.23,1.28,0.56,2.49,0.63,3.73c0.14,2.37,0.28,4.75,0.16,7.12
		c-0.1,1.93,0.6,3.28,2.1,4.33c1.53,1.07,3.07,2.07,5.07,2c0.82-0.03,1.04,0.32,1,1.14c-0.12,2.26,0.91,3.19,3.16,2.77
		c1.46-0.27,2.13,0.39,1.82,1.78c-0.46,2.07,0.95,3.55,3.06,3.49c1.7-0.05,2.15,0.4,2.03,2.13c-0.05,0.66,0.12,1.17,0.6,1.61
		c1.29,1.15,2.54,2.34,3.86,3.44c0.33,0.28,0.91,0.5,1.31,0.42c0.61-0.11,0.62-0.76,0.61-1.29c-0.01-0.94,0.02-1.89-0.08-2.82
		c-0.12-1.14,0.25-2.03,1.18-2.63c0.81-0.52,1.66-0.98,2.54-1.38c1.29-0.58,2.07-0.01,1.9,1.41c-0.14,1.19-0.4,2.37-0.73,3.52
		c-0.56,1.97-1.63,3.67-3,5.18c-0.75,0.83-1.53,1.64-2.3,2.46c-0.99,1.06-2.19,1.26-3.51,0.78c-0.48-0.18-0.99-0.41-1.37-0.75
		c-1.64-1.45-3.29-2.91-4.82-4.46c-0.52-0.53-0.81-1.33-1.06-2.06c-0.15-0.44-0.32-0.7-0.75-0.88c-0.89-0.38-1.76-0.8-2.61-1.25
		c-1.25-0.65-1.86-1.75-1.95-3.1c-0.04-0.57-0.25-0.74-0.77-0.85c-1.63-0.34-3.18-1.05-3.65-2.72c-0.36-1.25-1.09-1.63-2.1-2.12
		c-1.49-0.73-2.9-1.65-4.22-2.67c-1.54-1.19-2.29-2.88-2.45-4.82C281.69,109.89,281.66,109.47,281.62,108.89z"/>
	<path class="st0" d="M120.52,112.17c-0.34-0.74,0.17-1.62,0.99-1.66c3.15-0.14,5.94,0.64,8.23,3.09c0.32,0.34,0.61,0.72,0.95,1.04
		c1.9,1.76,1.89,3.86,1.01,6.05c-1.49,3.71-3.75,6.87-6.89,9.36c-0.82,0.65-1.68,1.25-2.46,1.94c-0.45,0.4-0.94,0.88-1.13,1.42
		c-1.4,3.9-3.75,7.22-6.15,10.52c-1.81,2.5-3.63,4.99-5.46,7.47c-2.04,2.74-4.58,4.83-8,5.54c-4.18,0.87-6.64-1-8.19-4.46
		c-0.13-0.29-0.16-0.79,0.01-0.99c0.17-0.2,0.7-0.3,0.97-0.19c3.44,1.38,6.22-0.05,8.54-2.32c2.17-2.13,4.08-4.55,5.92-6.98
		c2.39-3.14,4.59-6.42,6.89-9.63c0.32-0.45,0.23-0.63-0.12-1.07c-2.09-2.64-3.64-5.56-3.67-9.04c-0.01-1.54,0.79-2.71,2.27-3.27
		c1.53-0.57,3.1-0.66,4.28,0.69c0.99,1.13,1.83,2.4,2.65,3.67c0.34,0.53,0.62,0.65,1.1,0.29c0.54-0.41,1.13-0.78,1.56-1.29
		c1.27-1.49,2.52-3,3.67-4.58c0.65-0.89,0.3-1.67-0.8-1.79c-0.87-0.09-1.75-0.03-2.63,0.01c-1.23,0.05-2.1-0.34-2.56-1.59
		C121.2,113.66,120.87,112.93,120.52,112.17z M117.38,127.16c1.25,0.05,2.01-0.54,2.06-1.59c0.02-0.53-1.22-1.35-2.07-1.36
		c-0.78-0.01-1.47,0.82-1.5,1.8C115.85,126.77,116.31,127.12,117.38,127.16z"/>
	<path class="st0" d="M134.12,109.8c-0.1-0.65,0.44-1.24,1.1-1.17c0.29,0.03,0.59,0.06,0.88,0.11c3.71,0.63,6.47-1.09,8.86-3.62
		c0.56-0.6,0.82-1.33,0.82-2.17c0-0.57,0.5-1.01,1.06-0.92c1.3,0.22,3.35,0.28,5.24-0.85c0.94-0.67,1.18-1.8,1.19-2.84
		c0-0.66,0.69-1.11,1.3-0.83c1.62,0.75,3.04,0.83,4.08,0.46c0.28-0.08,0.66-0.29,0.71-0.51c0.05-0.19-0.23-0.63-0.46-0.71
		c-1.3-0.47-1.2-1.5-1.14-2.56c0.04-0.6,0.05-1.2,0.06-1.82c0.01-0.67,0.69-1.14,1.31-0.88c0.89,0.38,1.69,0.89,2.43,1.52
		c2.37,2,3.06,5.69,1.6,8.44c-0.82,1.55-2.36,2.59-4.05,2.86c-0.47,0.07-1.47,0.11-2.51-0.15c-0.21-0.05-0.42,0.07-0.47,0.28
		c-0.38,1.4-1.27,2.42-2.44,3.24c-1.2,0.84-2.49,1.41-3.98,1.48c-0.22,0.01-0.55,0.16-0.62,0.33c-0.76,1.85-2.33,2.83-3.95,3.77
		c-1.29,0.74-1.23,0.72-0.88,2.14c0.76,3.14,1.05,6.34,0.88,9.56c-0.1,1.87-1,3.39-2.38,4.62c-1.97,1.75-4.34,2.68-6.91,3.08
		c-0.76,0.12-1.3-0.73-0.89-1.37c0.38-0.59,0.87-1.11,1.33-1.65c2.5-2.94,4.46-6.19,5.37-9.98c0.22-0.93,0.15-1.98,0-2.94
		c-0.15-0.93-0.86-1.66-1.78-1.84c-1.47-0.3-2.96-0.52-4.45-0.71c-0.43-0.06-0.76-0.4-0.82-0.83
		C134.49,112.17,134.31,111.01,134.12,109.8z"/>
	<path class="st0" d="M332.91,149.72c-0.31,1.8-1.28,3.28-2.72,4.55c-1.29,1.14-2.77,1.93-4.4,2.51c-1.3,0.46-2.52,0.32-3.69-0.35
		c-2.45-1.39-4.48-3.25-6.06-5.58c-1.3-1.92-0.93-3.52,1.03-4.78c0.28-0.18,0.59-0.34,0.9-0.47c1.31-0.55,1.63-0.46,2.56,0.59
		c1.55,1.77,3.11,3.53,4.68,5.28c0.29,0.33,0.64,0.62,1.01,0.86c0.64,0.42,1.11,0.29,1.31-0.46c0.16-0.62,0.23-1.29,0.19-1.93
		c-0.15-2.56-0.56-5.09-1.49-7.5c-0.46-1.19-0.36-1.4,0.8-1.86c1.04-0.42,2.08-0.85,3.12-1.27c1.06-0.43,1.81-0.19,2.13,0.92
		c0.32,1.12,0.49,2.29,0.59,3.46C333.26,148.05,332.99,149.25,332.91,149.72z"/>
	<path class="st0" d="M259.7,101.4c-1.81-0.29-3.55-0.98-4.41-2.89c-0.86-1.9-0.46-3.73,0.69-5.41c0.26-0.39,0.59-0.73,0.88-1.1
		c0.55-0.73,1.05-1.51,1.54-2.27c0.9-1.39,2.26-2.49,3.45-3.69c0.13-0.13,0.46-0.17,0.65-0.1c1.36,0.48,2.69,1.03,3.72,2.09
		c1.06,1.08,1.51,2.34,1.2,3.86c-0.52,2.48-1.38,4.82-2.88,6.88C263.4,100.36,261.93,101.45,259.7,101.4z M262.99,94.79
		c-0.01-0.08-0.02-0.18-0.04-0.28c-0.14-0.99-1.62-2.47-2.67-2.62c-0.13-0.02-0.36,0.09-0.43,0.2c-0.74,1.29,0.31,3.49,1.77,3.77
		C262.34,96,262.97,95.52,262.99,94.79z"/>
	<path class="st0" d="M312.37,143.73c-0.09-0.2-0.01-0.54,0.12-0.83c0.29-0.62,0.86-1.17,1.29-1.7c1.21-1.53,2.44-3.05,3.73-4.51
		c2.3-2.6,4.68-5.14,7.06-7.66c0.49-0.52,1.09-1.03,1.74-1.31c0.71-0.31,1.54-0.48,2.32-0.5c0.89-0.02,1.17,0.5,0.76,1.31
		c-0.32,0.65-0.74,1.27-1.22,1.81c-3.57,4.03-7.15,8.04-10.74,12.05c-0.84,0.93-1.84,1.57-3.06,1.8
		C313.55,144.36,312.51,144.03,312.37,143.73z"/>
	<path class="st0" d="M292.51,89.57l8.73,0.78c0.18,0.02,0.26,0.25,0.12,0.37l-0.66,0.56c-0.56,0.48-1.29,0.71-2.02,0.64l-8.7-0.78
		c-0.18-0.02-0.26-0.24-0.12-0.36l0.6-0.53C291.02,89.75,291.76,89.5,292.51,89.57z"/>
	<path class="st0" d="M319.97,115.75l-1.97,0.57c-0.75,0.22-1.18,1-0.97,1.76l0.44,1.53c0.22,0.75,1,1.18,1.76,0.97l1.97-0.57
		c0.75-0.22,1.18-1,0.97-1.76l-0.44-1.53C321.5,115.96,320.72,115.53,319.97,115.75z"/>
	<path class="st0" d="M308.16,108.96l-2.01,0.41c-0.77,0.16-1.26,0.91-1.1,1.67l0.32,1.56c0.16,0.77,0.91,1.26,1.67,1.1l2.01-0.41
		c0.77-0.16,1.26-0.91,1.1-1.67l-0.32-1.56C309.67,109.29,308.93,108.8,308.16,108.96z"/>
	<path class="st0" d="M303.94,105.44l-2.01,0.41c-0.77,0.16-1.26,0.91-1.1,1.67l0.32,1.56c0.16,0.77,0.91,1.26,1.67,1.1l2.01-0.41
		c0.77-0.16,1.26-0.91,1.1-1.67l-0.32-1.56C305.46,105.78,304.71,105.28,303.94,105.44z"/>
	<path class="st0" d="M224.63,71.12L222.91,70c-0.66-0.43-1.53-0.24-1.96,0.41l-0.87,1.33c-0.43,0.66-0.24,1.53,0.41,1.96l1.72,1.12
		c0.66,0.43,1.53,0.24,1.96-0.41l0.87-1.33C225.47,72.43,225.28,71.55,224.63,71.12z"/>
	<path class="st0" d="M309.26,103.18l-2.01,0.41c-0.77,0.16-1.26,0.91-1.1,1.67l0.32,1.56c0.16,0.77,0.91,1.26,1.67,1.1l2.01-0.41
		c0.77-0.16,1.26-0.91,1.1-1.67l-0.32-1.56C310.78,103.51,310.03,103.02,309.26,103.18z"/>
	<path class="st0" d="M142.96,91.49l1.93,0.7c0.74,0.27,1.11,1.08,0.84,1.82l-0.55,1.49c-0.27,0.74-1.08,1.11-1.82,0.84l-1.93-0.7
		c-0.74-0.27-1.11-1.08-0.84-1.82l0.55-1.49C141.41,91.6,142.23,91.22,142.96,91.49z"/>
	<path class="st0" d="M147.65,88.63l1.93,0.7c0.74,0.27,1.11,1.08,0.84,1.82l-0.55,1.49c-0.27,0.74-1.08,1.11-1.82,0.84l-1.93-0.7
		c-0.74-0.27-1.11-1.08-0.84-1.82l0.55-1.49C146.1,88.74,146.91,88.36,147.65,88.63z"/>
	<path class="st0" d="M192.53,70.16l1.51,1.39c0.58,0.53,0.61,1.43,0.09,2l-1.08,1.17c-0.53,0.58-1.43,0.61-2,0.09l-1.51-1.39
		c-0.58-0.53-0.61-1.43-0.09-2l1.08-1.17C191.05,69.66,191.95,69.63,192.53,70.16z"/>
	<path class="st0" d="M197.95,69.31l1.51,1.39c0.58,0.53,0.61,1.43,0.09,2l-1.08,1.17c-0.53,0.58-1.43,0.61-2,0.09l-1.51-1.39
		c-0.58-0.53-0.61-1.43-0.09-2l1.08-1.17C196.48,68.82,197.38,68.78,197.95,69.31z"/>
	<path class="st0" d="M123.93,140.3l2.05-0.14c0.78-0.05,1.46,0.54,1.51,1.32l0.1,1.59c0.05,0.78-0.54,1.46-1.32,1.51l-2.05,0.14
		c-0.78,0.05-1.46-0.54-1.51-1.32l-0.1-1.59C122.56,141.03,123.15,140.35,123.93,140.3z"/>
	<path class="st0" d="M127.06,135.79l2.05-0.14c0.78-0.05,1.46,0.54,1.51,1.32l0.1,1.59c0.05,0.78-0.54,1.46-1.32,1.51l-2.05,0.14
		c-0.78,0.05-1.46-0.54-1.51-1.32l-0.1-1.59C125.69,136.52,126.28,135.84,127.06,135.79z"/>
	<path class="st0" d="M100.05,132.59l2.05-0.14c0.78-0.05,1.46,0.54,1.51,1.32l0.1,1.59c0.05,0.78-0.54,1.46-1.32,1.51l-2.05,0.14
		c-0.78,0.05-1.46-0.54-1.51-1.32l-0.1-1.59C98.67,133.32,99.26,132.64,100.05,132.59z"/>
	<path class="st0" d="M142.72,85.61l1.93,0.7c0.74,0.27,1.11,1.08,0.84,1.82l-0.55,1.49c-0.27,0.74-1.08,1.11-1.82,0.84l-1.93-0.7
		c-0.74-0.27-1.11-1.08-0.84-1.82l0.55-1.49C141.17,85.72,141.98,85.34,142.72,85.61z"/>
</g>
<g id="mark">
	<path class="st0" d="M212.59,321.27l-17.72,21.3c9.78,0,17.72,7.93,17.72,17.71c0-9.78,7.93-17.71,17.71-17.71L212.59,321.27z"/>
	<circle class="st0" cx="212.59" cy="303.56" r="10.63"/>
	<g>
		<path class="st0" d="M230.3,313.25v21.26h60.27v-7.09c0-19.57-15.87-35.43-35.44-35.43H230.3v14.17h28.35
			c1.96,0,3.73,0.79,5.01,2.08c1.29,1.28,2.08,3.05,2.08,5.01L230.3,313.25L230.3,313.25z"/>
		<path class="st0" d="M194.88,313.25v21.26h-60.27v-7.09c0-19.57,15.87-35.43,35.44-35.43h24.83v14.17h-28.35
			c-1.96,0-3.73,0.79-5.01,2.08c-1.29,1.28-2.08,3.05-2.08,5.01L194.88,313.25L194.88,313.25z"/>
	</g>
	<g>
		<path class="st0" d="M276.09,290.44c4.77,2.71,8.95,6.31,12.34,10.58c1.66-17.82,16.66-31.78,34.91-31.78h24.54
			c-1.45-5.05-3.6-9.81-6.33-14.17h-18.21C300.96,255.07,282.07,270,276.09,290.44z"/>
		<path class="st0" d="M149.09,290.44c-4.77,2.71-8.95,6.31-12.34,10.58c-1.66-17.82-16.66-31.78-34.91-31.78H77.3
			c1.45-5.05,3.6-9.81,6.33-14.17h18.21C124.22,255.07,143.11,270,149.09,290.44z"/>
	</g>
	<g>
		<path class="st0" d="M282.71,239.57c-0.58,0-1.13,0.15-1.61,0.4c-0.04,0.01-0.07,0.03-0.09,0.04
			c-16.99,8.78-29.25,25.35-32.15,44.89h-11.47c0-31.12,25.23-56.35,56.35-56.35c8.62,0,16.79,1.94,24.09,5.4
			c7.09,3.35,13.36,8.14,18.45,14c0.01,0.01,0.02,0.02,0.03,0.04h-12.96c-25.23,0-46.59,16.58-53.77,39.44
			c-4.24-1.54-8.8-2.42-13.55-2.52c2.82-16.75,13.45-30.91,28.08-38.53c0.14-0.06,0.27-0.13,0.39-0.2c1.06-0.62,1.77-1.77,1.77-3.08
			C286.26,241.15,284.67,239.56,282.71,239.57z"/>
		<path class="st0" d="M142.47,239.57c0.58,0,1.13,0.15,1.61,0.4c0.04,0.01,0.07,0.03,0.09,0.04c16.99,8.78,29.25,25.35,32.15,44.89
			h11.47c0-31.12-25.23-56.35-56.35-56.35c-8.62,0-16.79,1.94-24.09,5.4c-7.09,3.35-13.36,8.14-18.45,14
			c-0.01,0.01-0.02,0.02-0.03,0.04h12.96c25.23,0,46.59,16.58,53.77,39.44c4.24-1.54,8.8-2.42,13.55-2.52
			c-2.82-16.75-13.45-30.91-28.08-38.53c-0.14-0.06-0.27-0.13-0.39-0.2c-1.06-0.62-1.77-1.77-1.77-3.08
			C138.92,241.15,140.51,239.56,142.47,239.57z"/>
	</g>
	<g>
		<path class="st0" d="M286.99,185.69v36.13c2.22-0.24,4.47-0.36,6.75-0.36c2.51,0,4.99,0.15,7.43,0.44v-50.39
			c-3.92,0-7.46,1.59-10.03,4.15C288.58,178.23,286.99,181.78,286.99,185.69z"/>
		<path class="st0" d="M138.19,185.69v36.13c-2.22-0.24-4.47-0.36-6.75-0.36c-2.51,0-4.99,0.15-7.43,0.44v-50.39
			c3.92,0,7.46,1.59,10.03,4.15C136.6,178.23,138.19,181.78,138.19,185.69z"/>
	</g>
	<g>
		<path class="st0" d="M237.36,177.54v78.25c3.59-6.94,8.41-13.12,14.19-18.27v-46.73c0-0.97,0.4-1.86,1.04-2.5s1.53-1.04,2.51-1.04
			c1.95,0,3.54,1.59,3.54,3.54v41.26c6.37-4.24,13.56-7.36,21.27-9.08v-58.62c0-4.89,1.98-9.33,5.19-12.53
			c1.44-1.44,3.12-2.63,4.98-3.5c-5.29-3.31-11.55-5.23-18.27-5.23c-9.51,0-18.12,3.85-24.36,10.09
			C241.22,159.41,237.36,168.02,237.36,177.54z"/>
		<path class="st0" d="M187.82,177.54v78.25c-3.59-6.94-8.41-13.12-14.19-18.27v-46.73c0-0.97-0.4-1.86-1.04-2.5
			s-1.53-1.04-2.51-1.04c-1.95,0-3.54,1.59-3.54,3.54v41.26c-6.37-4.24-13.56-7.36-21.27-9.08v-58.62c0-4.89-1.98-9.33-5.19-12.53
			c-1.44-1.44-3.12-2.63-4.98-3.5c5.29-3.31,11.55-5.23,18.27-5.23c9.51,0,18.12,3.85,24.36,10.09
			C183.96,159.41,187.82,168.02,187.82,177.54z"/>
	</g>
	<g>
		<path class="st0" d="M216.13,164.42V284.9h14.17V162c0-11.74,4.76-22.37,12.45-30.07c4.44-4.44,9.86-7.9,15.9-10.03
			c-11.74,0-22.37,4.76-30.06,12.45C220.89,142.05,216.13,152.68,216.13,164.42z"/>
		<path class="st0" d="M209.05,164.42V284.9h-14.17V162c0-11.74-4.76-22.37-12.45-30.07c-4.44-4.44-9.86-7.9-15.9-10.03
			c11.74,0,22.37,4.76,30.06,12.45C204.29,142.05,209.05,152.68,209.05,164.42z"/>
	</g>
	<path class="st0" d="M235.62,114.82c-7.34,0-13.99,2.98-18.79,7.78c-1.65,1.65-3.08,3.51-4.24,5.54c-1.16-2.03-2.59-3.89-4.24-5.54
		c-4.8-4.8-11.45-7.78-18.79-7.78c-3.41,0-6.66,0.64-9.66,1.82c8.33,2.33,15.77,6.77,21.71,12.71c4.7,4.7,8.47,10.34,10.98,16.62
		c2.51-6.28,6.28-11.92,10.98-16.62c5.94-5.94,13.38-10.38,21.71-12.71C242.28,115.46,239.03,114.82,235.62,114.82z"/>
	<path class="st0" d="M212.59,103.32c-5.88,0.01-10.62,4.76-10.62,10.63v0.01c3.33,1.49,6.34,3.59,8.89,6.14
		c0.61,0.61,1.19,1.24,1.73,1.9c0.54-0.66,1.12-1.29,1.73-1.9c2.55-2.55,5.56-4.65,8.89-6.14v-0.01
		C223.21,108.08,218.47,103.33,212.59,103.32z"/>
</g>
</svg>
