<svg xmlns="http://www.w3.org/2000/svg" viewBox="0 0 200 200">
  <path d="M0 0h200v200H0V0z" fill="#005096" />
  <path d="M65.4 110.1H75v14.8h.2c1.4-3 5.3-4.8 8.8-4.8 9.7 0 10.4 7.1 10.4 11.3v18.5h-9.5v-14.1c0-4.1.5-7.9-4.8-7.9-3.5 0-5.1 3-5.1 6.2V150h-9.5l-.1-39.9zm-22.7 17.1h-4.6V121h4.6c0-8.3 2.8-10.9 10.9-10.9l4.6.2v6.7l-2.6-.2c-2.1 0-3.5.4-3.5 2.8v1.2h5.6v6.2H52v22.9h-9.5v-22.8l.2.1zm70.7-17.1h9.2l-8.5 39.9h-9.2l8.5-39.9zm20.1 0h9L134 150h-9l8.5-39.9zm19.9 0h9.2l-8.5 39.9H145l8.4-39.9zm-129.9 0h9.2L24.2 150H15l8.5-39.9zm44.8 65.4c0 1.6 1.4 2.3 2.8 2.3 1.1 0 2.5-.4 2.5-1.8 0-1.1-1.6-1.6-4.2-2.1-2.1-.5-4.4-1.2-4.4-3.7 0-3.5 3-4.4 6-4.4s5.8 1.1 6 4.4h-3.5c-.2-1.4-1.2-1.8-2.6-1.8-.9 0-2.1.2-2.1 1.2 0 1.4 2.1 1.6 4.2 2.1s4.4 1.2 4.4 3.9c0 3.5-3.2 4.8-6.2 4.8-3.2 0-6.3-1.2-6.3-4.8h3.5l-.1-.1zm16.7-9.2h2.8v2.5H85v6.7c0 1.2.4 1.6 1.6 1.6l1.2-.2v3l-2.1.2c-2.3 0-4.2-.5-4.2-3.2v-8.1h-2.3v-2.5h2.3v-4.1h3.7v4.1H85zm5.8 9.5H95v4.1h-4.2v-4.1zm10.3-9.5h3.5v1.8a4.6 4.6 0 014.1-2.1c4.2 0 6.2 3.5 6.2 7.4 0 3.7-1.9 7.1-6 7.1-1.6 0-3.2-.7-4.1-2.1v6.5h-3.7v-18.6zm10 6.9c0-2.1-.9-4.4-3.4-4.4s-3.2 2.1-3.2 4.4.9 4.4 3.4 4.4c2.5-.2 3.2-2.3 3.2-4.4zm13.2-7.4c4.2 0 7.1 2.8 7.1 7.2s-2.8 7.2-7.1 7.2-7.1-2.8-7.1-7.2c.1-4.2 2.9-7.2 7.1-7.2zm-4.5-4.8h3.5v3.2h-3.5V161zm4.5 16.4c2.6 0 3.4-2.1 3.4-4.4 0-2.1-.7-4.4-3.4-4.4-2.5 0-3.4 2.1-3.4 4.4s.8 4.4 3.4 4.4zm.9-16.4h3.5v3.2h-3.5V161zm9.2 0h3.7v18.9h-3.7V161zm12 5.3h2.8v2.5h-2.8v6.7c0 1.2.4 1.6 1.6 1.6l1.2-.2v3l-2.1.2c-2.3 0-4.2-.5-4.2-3.2v-8.1h-2.3v-2.5h2.3v-4.1h3.5v4.1zm8.1 7.8c.2 2.3 1.2 3.5 3.4 3.5 1.6 0 2.6-.9 3-1.8h3.2a6.1 6.1 0 01-6 4.6h-.4c-4.2 0-7.1-3-7.1-7.2 0-4.1 2.8-7.2 7.1-7.2 4.6 0 6.9 3.9 6.7 8.1h-9.9zm6-2.5c-.4-1.9-1.2-2.8-3-2.8-2.3 0-3 1.8-3.2 2.8h6.2zm6.5-5.3h3.5v1.9a4.7 4.7 0 014.2-2.3c4.1 0 4.9 2.3 4.9 5.6v8.5H176v-7.8c0-2.3-.7-3.4-2.5-3.4-2.1 0-3 1.1-3 3.9v7.2h-3.7v-13.8l.2.2z" fill="#fff"/>
</svg>
