<?xml version="1.0" encoding="UTF-8" standalone="no"?>
<svg
   version="1.1"
   id="svg872"
   xml:space="preserve"
   width="449.49011"
   height="202.3438"
   viewBox="0 0 449.49013 202.3438"
   xmlns="http://www.w3.org/2000/svg"
   xmlns:svg="http://www.w3.org/2000/svg"><defs
     id="defs876" /><g
     id="g878"
     transform="matrix(1.3333333,0,0,-1.3333333,-333.00986,1400.8664)"><g
       id="g880"
       transform="scale(0.1)"><g
         id="g1074"><path
           d="m 2888.66,9488.25 c 1.95,-0.06 4.21,1.34 5.02,3.11 l 364.13,795.14 c 0.81,1.8 0.97,4.2 0.35,5.4 -0.61,1.2 -2.72,2.2 -4.67,2.2 h -503.48 c -5.42,-0.1 -6.38,-0.7 -7.13,-1.9 -0.8,-1.2 0.18,-4.4 1,-6.2 l 52.01,-113 c 0.81,-1.8 2.87,-3.9 4.58,-4.8 1.71,-0.9 4.7,-1.6 6.65,-1.6 l 242.63,-0.2 c 1.96,0 3.99,-0.8 4.53,-1.9 0.53,-1 0.31,-3.3 -0.51,-5.1 l -164.15,-359.29 c -0.81,-1.78 -2.04,-3.31 -2.73,-3.4 -0.68,-0.1 -1.91,1.27 -2.72,3.05 l -224,488.84 c -0.81,1.8 -2.73,4 -4.25,4.9 -1.53,0.8 -4.37,1.6 -6.32,1.6 h -132.25 c -1.95,0 -3.97,-0.9 -4.5,-2 -0.51,-1.1 -0.27,-3.4 0.54,-5.2 l 365.18,-796.14 c 0.81,-1.78 3.07,-3.28 5.02,-3.34 l 5.07,-0.17"
           style="fill:#001c55;fill-opacity:1;fill-rule:nonzero;stroke:none"
           id="path884" /><path
           d="m 2647.23,10341.9 c 5.49,27.6 31.32,48 66.76,47.7 96.94,-0.7 195.4,-47.5 274.61,-47.6 8.75,-0.1 26.75,-1.2 37.93,4.2 8.03,3.9 13.37,6.3 19.61,16.3 3.99,6.4 5.48,14.3 10.75,21 6.81,8.8 16.46,12.6 26.93,17.3 5.31,2.4 11.55,5.5 15.49,9.6 3.84,3.9 4.7,6 7.25,11.5 2.33,5.2 4.12,15.8 7.76,21.1 3.51,5.1 11.36,11.3 16.16,13.9 5.77,3.1 12.62,8.9 18.5,15.9 6,7.1 9.56,18.2 12.39,32.2 0.07,0.4 -0.37,2.2 -2.04,1.2 -0.1,0 -0.21,-0.1 -0.31,-0.1 -3.52,-1.9 -67.33,-44.2 -188.31,-42.4 -74.25,1.1 -230.03,38.6 -295.18,39.1 -52.47,0.4 -119.74,-15.5 -157.18,-77.9 -17.29,-28.9 -20.27,-70.3 -20.77,-81.9 -0.09,-2 0.84,-3.1 2.58,-3.1 18.46,-0.1 126.46,-0.2 144.21,-0.2 1.58,0 2.71,1.5 2.86,2.2"
           style="fill:#001c55;fill-opacity:1;fill-rule:nonzero;stroke:none"
           id="path886" /><path
           d="m 3176.83,9739.18 c -0.4,1.97 0.72,4.36 2.49,5.3 l 50.41,26.93 c 1.77,0.95 2.67,3.27 2,5.17 l -10.94,30.82 c -0.67,1.89 -2.84,3.15 -4.82,2.79 l -56.79,-10.31 c -1.98,-0.36 -4.38,0.79 -5.32,2.57 l -18.56,31.94 c -1.08,1.69 -0.86,4.31 0.48,5.8 l 38.48,42.91 c 1.34,1.5 1.39,4 0.11,5.54 l -20.82,25.22 c -1.28,1.56 -3.75,2 -5.48,0.98 l -14.63,-8.54 c -1.73,-1.02 -3.84,-3.34 -4.68,-5.17 l -63.49,-137.85 c -0.84,-1.83 -1.28,-3.8 -0.97,-4.4 0,0 0,0 0.27,-0.54 12.42,-24.66 19.95,-52.26 20.97,-81.68 3.42,-97.87 -64.49,-181.56 -157.02,-201.34 -0.59,-0.13 -0.59,-0.13 -0.59,-0.13 -0.64,-0.13 -1.87,-1.73 -2.73,-3.54 l -18.08,-38.3 c -0.86,-1.83 -3.21,-3.31 -5.22,-3.31 h -32.63 c -2.01,0 -4.36,1.48 -5.22,3.3 l -18.5,38.88 c -0.86,1.82 -2.27,3.46 -3.12,3.65 0,0 0,0 -0.76,0.17 -85.54,19.8 -150.66,94.8 -153.87,186.73 -1.18,33.79 6.24,65.84 20.17,94.2 0.27,0.55 0.27,0.55 0.27,0.55 1.27,1.47 1.6,4.17 0.74,5.98 l -66.69,141.08 c -0.86,1.81 -2.96,4.17 -4.66,5.23 l -12.44,7.74 c -1.71,1.06 -4.18,0.68 -5.48,-0.85 l -21.22,-24.88 c -1.3,-1.53 -1.31,-4.04 -0.01,-5.57 l 39.12,-46.14 c 1.3,-1.53 1.48,-4.16 0.39,-5.86 l -17.88,-30.45 c -0.96,-1.77 -3.36,-2.88 -5.33,-2.46 l -58.59,12.32 c -1.96,0.42 -4.15,-0.79 -4.85,-2.67 l -11.43,-30.63 c -0.7,-1.89 0.15,-4.24 1.9,-5.24 l 52.49,-29.95 c 1.74,-0.99 2.83,-3.42 2.41,-5.38 l -6.1,-34.7 c -0.27,-2 -2.12,-3.86 -4.11,-4.14 l -59.61,-8.5 c -1.99,-0.29 -3.63,-2.16 -3.64,-4.18 l -0.27,-32.7 c -0.02,-2.01 1.59,-3.93 3.58,-4.27 l 59.73,-10.21 c 1.98,-0.34 3.81,-2.25 4.05,-4.25 l 5.69,-34.85 c 0.38,-1.97 -0.75,-4.36 -2.53,-5.31 l -52.68,-28.16 c -1.77,-0.95 -2.68,-3.28 -2,-5.17 l 10.93,-30.81 c 0.67,-1.9 2.84,-3.16 4.82,-2.8 l 59.11,10.74 c 1.98,0.36 4.37,-0.8 5.31,-2.57 l 17.69,-30.77 c 1.07,-1.69 0.85,-4.31 -0.49,-5.81 l -39.9,-44.51 c -1.35,-1.49 -1.4,-3.98 -0.12,-5.53 l 20.82,-25.22 c 1.28,-1.55 3.75,-1.99 5.48,-0.97 l 51.75,30.23 c 1.74,1.02 4.37,0.73 5.85,-0.64 l 27.14,-23.17 c 1.57,-1.25 2.25,-3.8 1.5,-5.66 l -22.1,-55.01 c -0.75,-1.88 0.06,-4.23 1.79,-5.26 l 28.19,-16.57 c 1.73,-1.02 4.2,-0.59 5.48,0.96 l 37.97,45.72 c 1.29,1.55 3.85,2.18 5.71,1.4 l 33.73,-12.68 c 1.91,-0.63 3.41,-2.8 3.35,-4.81 l -1.93,-58.68 c -0.07,-2.01 1.5,-3.94 3.47,-4.31 l 32.16,-5.94 c 1.98,-0.36 4.15,0.89 4.83,2.77 l 19.83,55.39 c 0.68,1.89 2.88,3.34 4.88,3.23 0,0 19.3,-1.15 31.02,-0.74 3.04,0.1 5.34,0.36 5.34,0.36 2,0.22 4.15,-1.16 4.78,-3.07 l 18.15,-55.49 c 0.63,-1.91 2.76,-3.2 4.75,-2.87 l 32.24,5.42 c 1.99,0.33 3.6,2.25 3.59,4.26 l -0.3,58.43 c -0.01,2.01 1.55,4.14 3.47,4.74 l 34.58,12.21 c 1.87,0.74 4.41,0.05 5.66,-1.53 l 35.64,-45.42 c 1.24,-1.59 3.69,-2.07 5.44,-1.08 l 28.45,16.12 c 1.75,0.99 2.61,3.35 1.91,5.23 l -20.07,54.28 c -0.7,1.88 0.03,4.43 1.61,5.67 l 28.33,23.67 c 1.49,1.35 4.1,1.59 5.81,0.53 l 48.88,-30.41 c 1.71,-1.05 4.17,-0.67 5.48,0.85 l 21.22,24.88 c 1.31,1.54 1.31,4.04 0.01,5.58 l -37.38,44.08 c -1.31,1.53 -1.47,4.17 -0.38,5.86 l 18.89,31.93 c 0.97,1.76 3.37,2.87 5.33,2.46 l 55.82,-11.75 c 1.97,-0.41 4.16,0.79 4.86,2.67 l 11.43,30.64 c 0.71,1.88 -0.15,4.24 -1.89,5.23 l -49.9,28.47 c -1.75,0.99 -2.84,3.43 -2.42,5.39 l 6.43,36.59 c 0.26,1.99 2.11,3.85 4.1,4.14 l 56.7,8.09 c 1.99,0.28 3.63,2.15 3.65,4.17 l 0.26,32.7 c 0.02,2.01 -1.59,3.93 -3.57,4.27 l -56.94,9.74 c -1.98,0.33 -3.81,2.24 -4.06,4.24 l -6.16,36.57"
           style="fill:#001c55;fill-opacity:1;fill-rule:nonzero;stroke:none"
           id="path888" /><path
           d="m 3965.62,10117 c 1.99,0 3.62,1.6 3.62,3.6 v 64 c 0,2 -1.63,3.6 -3.62,3.6 h -229.84 c -1.99,0 -1.99,0 0,0 h 16.56 c 1.99,0 1.99,0 0,0 h -18.61 c -1.98,0 -3.61,-1.6 -3.61,-3.6 v -20.8 c 0,-2 0,-5.2 0,-7.2 v -295.41 c 0,-1.99 0.07,-3.62 0.07,-3.62 0.17,0 1.87,0 3.86,0 h 231.57 c 1.99,0 3.62,1.63 3.62,3.62 v 64 c 0,1.99 -1.63,3.62 -3.62,3.62 h -160.31 c -2,0 -3.62,1.63 -3.62,3.62 v 52.27 c 0,1.99 1.62,3.62 3.62,3.62 h 79.95 c 1.99,0 3.62,1.63 3.62,3.62 v 63.96 c 0,2 -1.63,3.7 -3.62,3.7 h -79.95 c -2,0 -3.62,1.6 -3.62,3.6 v 50.2 c 0,1.9 1.62,3.6 3.62,3.6 h 160.31"
           style="fill:#001c55;fill-opacity:1;fill-rule:nonzero;stroke:none"
           id="path890" /><path
           d="m 5360.32,10182 h -23.38 c -89.18,0 -150.31,-26.1 -150.26,-147.2 v -30.8 c 0,-129.16 75.77,-149.84 152.43,-151.79 4.63,-0.1 12.65,-0.13 16.42,-0.04 77.55,1.53 155.03,21.22 155.03,151.83 v 30.8 c 0.05,121.1 -61.07,147.2 -150.24,147.2 m 10.28,-257.98 h -43.94 c -38.52,0 -65.05,12.67 -65.09,53.83 l 0.04,83.85 c -0.04,34.8 24.08,49.1 74.68,49.1 h 24.65 c 50.62,0 74.75,-14.3 74.71,-49.1 l 0.04,-83.85 c -0.04,-41.16 -26.58,-53.83 -65.09,-53.83"
           style="fill:#001c55;fill-opacity:1;fill-rule:nonzero;stroke:none"
           id="path892" /><path
           d="m 4910.72,10188.4 c -2,0 -3.63,-1.7 -3.63,-3.6 l 0.04,-188.55 c 0,-1.99 -1.1,-2.43 -2.45,-0.96 l -175.92,190.41 c -1.35,1.5 -4.09,2.7 -6.07,2.7 h -39.5 c -2,0 -3.62,-1.7 -3.62,-3.6 l 0.03,-324.55 c 0,-1.99 1.63,-3.62 3.63,-3.62 h 63.95 c 1.99,0 3.61,1.63 3.61,3.62 v 188.45 c 0,2 1.11,2.5 2.47,1 l 175.88,-190.41 c 1.36,-1.46 4.09,-2.66 6.08,-2.66 h 39.5 c 1.99,0 3.61,1.63 3.61,3.62 l -0.01,324.55 c 0,1.9 -1.63,3.6 -3.61,3.6 h -63.99"
           style="fill:#001c55;fill-opacity:1;fill-rule:nonzero;stroke:none"
           id="path894" /><path
           d="m 5801.13,10188.4 c -1.99,0 -3.62,-1.7 -3.62,-3.6 l 0.04,-188.54 c 0,-1.99 -1.1,-2.42 -2.46,-0.96 l -175.93,190.4 c -1.34,1.5 -4.08,2.7 -6.07,2.7 h -39.5 c -1.98,0 -3.62,-1.7 -3.62,-3.6 l 0.05,-324.54 c 0,-1.99 1.63,-3.62 3.62,-3.62 h 63.95 c 1.99,0 3.62,1.63 3.62,3.62 v 188.44 c 0,2 1.11,2.5 2.46,1 l 175.89,-190.4 c 1.35,-1.46 4.09,-2.66 6.08,-2.66 h 39.49 c 1.99,0 3.62,1.63 3.62,3.62 l -0.03,324.54 c 0,1.9 -1.62,3.6 -3.61,3.6 h -63.98"
           style="fill:#001c55;fill-opacity:1;fill-rule:nonzero;stroke:none"
           id="path896" /><path
           d="m 5128.63,9861.36 c 0,-1.99 -1.62,-3.62 -3.62,-3.62 h -64 c -1.99,0 -3.62,1.63 -3.62,3.62 v 323.44 c 0,2 1.63,3.6 3.62,3.6 h 64 c 2,0 3.62,-1.6 3.62,-3.6 v -323.44"
           style="fill:#001c55;fill-opacity:1;fill-rule:nonzero;stroke:none"
           id="path898" /><path
           d="m 4530.34,10188.4 c -2,0 -3.63,-1.7 -3.63,-3.6 v -122.2 c 0,-2 -1.63,-3.6 -3.61,-3.6 h -141.02 c -1.99,0 -3.62,1.6 -3.62,3.6 v 122.2 c 0,1.9 -1.63,3.6 -3.61,3.6 h -64.01 c -1.99,0 -3.62,-1.7 -3.62,-3.6 v -323.46 c 0,-1.98 1.63,-3.61 3.62,-3.61 h 64.01 c 1.98,0 3.61,1.63 3.61,3.61 v 122.82 c 0,1.98 1.63,3.62 3.62,3.62 h 141.02 c 1.98,0 3.61,-1.64 3.61,-3.62 v -122.82 c 0,-1.98 1.63,-3.61 3.63,-3.61 h 64 c 1.98,0 3.61,1.63 3.61,3.61 v 323.46 c 0,1.9 -1.63,3.6 -3.61,3.6 h -64"
           style="fill:#001c55;fill-opacity:1;fill-rule:nonzero;stroke:none"
           id="path900" /><path
           d="m 3693.15,10184.8 c 0,1.9 -1.63,3.6 -3.62,3.6 h -278.59 c -1.99,0 -3.62,-1.7 -3.62,-3.6 v -64 c 0,-2 1.63,-3.7 3.62,-3.7 h 100.05 c 1.99,0 3.62,-1.6 3.62,-3.6 v -252.16 c 0,-1.98 1.63,-3.61 3.62,-3.61 h 64.01 c 1.99,0 3.62,1.63 3.62,3.61 v 252.16 c 0,2 1.63,3.6 3.62,3.6 h 100.05 c 1.99,0 3.62,1.7 3.62,3.7 v 64"
           style="fill:#001c55;fill-opacity:1;fill-rule:nonzero;stroke:none"
           id="path902" /><path
           d="m 4160.85,10186.8 81.27,-2.1 c 0,0 1.52,-0.3 2.47,-1.1 1,-0.9 1.13,-2.4 1.13,-2.4 l 0.07,-63.4 c 0,-1.6 -0.72,-2.4 -1.08,-2.8 -0.75,-0.9 -2.19,-1.2 -3.62,-1.2 l -80.89,1.8 c -50.61,0 -74.72,-14.2 -74.69,-49.1 l -0.03,-83.83 c 0.03,-41.16 25.58,-52.8 65.1,-53.83 39.53,-1.02 90.97,2.18 90.97,2.18 0,0 1.86,0.12 3.13,-1.05 1.26,-1.17 1.16,-2.44 1.16,-2.44 l -0.11,-63.15 c 0,0 0.04,-1.95 -1.27,-3.2 -1.33,-1.24 -3.81,-1.22 -3.81,-1.22 0,0 -7.61,-3.32 -63.75,-3.08 -81.8,0.34 -166.31,14.99 -166.31,151.92 v 30.8 c -0.04,121.1 61.08,147.2 150.26,147.2"
           style="fill:#001c55;fill-opacity:1;fill-rule:nonzero;stroke:none"
           id="path904" /><path
           d="m 3421.87,9426.77 v 237.17 h 35.98 v -237.17 h -35.98"
           style="fill:#001c55;fill-opacity:1;fill-rule:nonzero;stroke:none"
           id="path906" /><path
           d="m 3570.43,9424.77 c -27.65,0 -50.96,4.67 -70.95,24.32 l 22.32,22.32 c 13.66,-13.99 31.98,-17.65 48.63,-17.65 20.65,0 36.98,7.32 36.98,23.32 0,11.32 -6.33,18.65 -22.66,19.98 l -26.98,2.33 c -31.64,2.67 -49.96,16.99 -49.96,46.63 0,32.98 28.31,51.63 63.62,51.63 25.32,0 46.97,-5.33 62.62,-18.98 l -21.32,-21.65 c -10.66,8.99 -25.64,12.32 -41.63,12.32 -20.32,0 -30.65,-8.99 -30.65,-21.65 0,-10 5.33,-17.65 23.32,-19.32 l 26.65,-2.33 c 31.64,-2.66 50.3,-17.65 50.3,-47.63 0,-35.32 -29.98,-53.64 -70.29,-53.64"
           style="fill:#001c55;fill-opacity:1;fill-rule:nonzero;stroke:none"
           id="path908" /><path
           d="m 3774.96,9556.01 c -7.66,7.67 -13.66,11.33 -25.32,11.33 -18.32,0 -33.64,-14.66 -33.64,-37.97 v -102.6 h -33.98 v 168.88 h 33.32 v -18.32 c 8.65,11.99 25.98,20.32 44.96,20.32 16.32,0 28.65,-4.32 40.31,-15.98 l -25.65,-25.66"
           style="fill:#001c55;fill-opacity:1;fill-rule:nonzero;stroke:none"
           id="path910" /><path
           d="m 3915.2,9501.39 h -39.64 c -19.99,0 -30.31,-8.99 -30.31,-24.31 0,-15.33 9.66,-23.99 30.97,-23.99 13,0 22.66,1 31.65,9.66 4.99,4.99 7.33,12.99 7.33,24.98 z m 0.66,-74.62 v 15.33 c -12.32,-12.33 -23.98,-17.33 -44.96,-17.33 -20.99,0 -34.98,5 -45.31,15.33 -8.66,8.99 -13.32,21.99 -13.32,36.3 0,28.32 19.65,48.64 58.29,48.64 h 44.64 v 11.99 c 0,21.32 -10.66,31.65 -36.97,31.65 -18.66,0 -27.65,-4.34 -36.98,-16.33 l -22.32,20.99 c 15.99,18.65 32.65,24.31 60.63,24.31 46.3,0 69.61,-19.65 69.61,-57.95 v -112.93 h -33.31"
           style="fill:#001c55;fill-opacity:1;fill-rule:nonzero;stroke:none"
           id="path912" /><path
           d="m 4097.74,9548.02 c -5.33,12.66 -17.32,21.32 -33.31,21.32 -15.98,0 -28.31,-8.66 -33.64,-21.32 -3.33,-7.66 -4,-12.65 -4.33,-22.98 h 75.95 c -0.34,10.33 -1.34,15.32 -4.67,22.98 z m -71.28,-46.63 c 0,-28.98 15.32,-47.3 42.97,-47.3 18.99,0 28.98,5.33 40.97,17.32 l 21.65,-20.32 c -17.32,-17.32 -33.64,-26.32 -63.29,-26.32 -42.3,0 -75.94,22.33 -75.94,86.61 0,54.63 28.31,86.27 71.61,86.27 45.3,0 71.62,-33.31 71.62,-81.27 v -14.99 h -109.59"
           style="fill:#001c55;fill-opacity:1;fill-rule:nonzero;stroke:none"
           id="path914" /><path
           d="m 4226.32,9426.77 c -32.31,0 -46.3,21.66 -46.3,46.64 v 190.53 H 4214 v -188.53 c 0,-12.99 4.66,-19.65 18.32,-19.65 h 14.99 v -28.99 h -20.99"
           style="fill:#001c55;fill-opacity:1;fill-rule:nonzero;stroke:none"
           id="path916" /><path
           d="m 4368.55,9426.77 v 237.17 h 35.97 v -237.17 h -35.97"
           style="fill:#001c55;fill-opacity:1;fill-rule:nonzero;stroke:none"
           id="path918" /><path
           d="m 4565.41,9426.77 v 102.93 c 0,26.31 -14.99,37.64 -33.97,37.64 -18.99,0 -34.97,-11.66 -34.97,-37.64 v -102.93 h -33.98 v 168.88 h 33.31 v -16.98 c 11.65,12.65 27.98,18.98 44.97,18.98 17.32,0 31.65,-5.66 41.64,-15.32 12.98,-12.65 16.99,-28.64 16.99,-47.63 v -107.93 h -33.99"
           style="fill:#001c55;fill-opacity:1;fill-rule:nonzero;stroke:none"
           id="path920" /><path
           d="m 4706.32,9424.77 c -27.64,0 -50.97,4.67 -70.95,24.32 l 22.32,22.32 c 13.66,-13.99 31.98,-17.65 48.63,-17.65 20.66,0 36.97,7.32 36.97,23.32 0,11.32 -6.32,18.65 -22.64,19.98 l -26.98,2.33 c -31.65,2.67 -49.98,16.99 -49.98,46.63 0,32.98 28.33,51.63 63.63,51.63 25.32,0 46.97,-5.33 62.62,-18.98 l -21.31,-21.65 c -10.67,8.99 -25.65,12.32 -41.64,12.32 -20.32,0 -30.65,-8.99 -30.65,-21.65 0,-10 5.33,-17.65 23.32,-19.32 l 26.65,-2.33 c 31.64,-2.66 50.29,-17.65 50.29,-47.63 0,-35.32 -29.98,-53.64 -70.28,-53.64"
           style="fill:#001c55;fill-opacity:1;fill-rule:nonzero;stroke:none"
           id="path922" /><path
           d="m 4864.89,9426.77 c -31.65,0 -46.31,22.65 -46.31,46.97 v 92.94 h -19.32 v 25.97 h 19.32 v 51.3 h 33.98 v -51.3 h 32.64 v -25.97 h -32.64 v -91.27 c 0,-12.33 6,-19.65 18.65,-19.65 h 13.99 v -28.99 h -20.31"
           style="fill:#001c55;fill-opacity:1;fill-rule:nonzero;stroke:none"
           id="path924" /><path
           d="m 4928.51,9426.77 v 168.88 h 33.97 v -168.88 z m -1.01,202.19 v 35.98 h 35.98 v -35.98 h -35.98"
           style="fill:#001c55;fill-opacity:1;fill-rule:nonzero;stroke:none"
           id="path926" /><path
           d="m 5066.74,9426.77 c -31.64,0 -46.3,22.65 -46.3,46.97 v 92.94 h -19.31 v 25.97 h 19.31 v 51.3 h 33.98 v -51.3 h 32.64 v -25.97 h -32.64 v -91.27 c 0,-12.33 5.99,-19.65 18.65,-19.65 h 13.99 v -28.99 h -20.32"
           style="fill:#001c55;fill-opacity:1;fill-rule:nonzero;stroke:none"
           id="path928" /><path
           d="m 5232.29,9426.77 v 17 c -11.66,-12.67 -27.98,-19 -44.96,-19 -17.33,0 -31.65,5.67 -41.64,15.33 -12.99,12.66 -16.99,28.65 -16.99,47.63 v 107.92 h 33.97 v -102.92 c 0,-26.32 14.99,-37.64 33.98,-37.64 18.99,0 34.97,11.66 34.97,37.64 v 102.92 h 33.98 v -168.88 h -33.31"
           style="fill:#001c55;fill-opacity:1;fill-rule:nonzero;stroke:none"
           id="path930" /><path
           d="m 5369.87,9426.77 c -31.64,0 -46.3,22.65 -46.3,46.97 v 92.94 h -19.32 v 25.97 h 19.32 v 51.3 h 33.97 v -51.3 h 32.65 v -25.97 h -32.65 v -91.27 c 0,-12.33 6,-19.65 18.66,-19.65 h 13.99 v -28.99 h -20.32"
           style="fill:#001c55;fill-opacity:1;fill-rule:nonzero;stroke:none"
           id="path932" /><path
           d="m 5528.75,9548.02 c -5.32,12.66 -17.31,21.32 -33.3,21.32 -15.99,0 -28.32,-8.66 -33.65,-21.32 -3.33,-7.66 -3.99,-12.65 -4.33,-22.98 h 75.95 c -0.33,10.33 -1.33,15.32 -4.67,22.98 z m -71.28,-46.63 c 0,-28.98 15.33,-47.3 42.97,-47.3 18.99,0 28.99,5.33 40.98,17.32 l 21.65,-20.32 c -17.32,-17.32 -33.64,-26.32 -63.29,-26.32 -42.31,0 -75.95,22.33 -75.95,86.61 0,54.63 28.31,86.27 71.62,86.27 45.3,0 71.61,-33.31 71.61,-81.27 v -14.99 h -109.59"
           style="fill:#001c55;fill-opacity:1;fill-rule:nonzero;stroke:none"
           id="path934" /><path
           d="m 3505.14,9190.11 c -6.32,6.33 -14.99,9.66 -24.98,9.66 -9.99,0 -18.32,-3.33 -24.65,-9.66 -10.32,-10.32 -11.65,-27.97 -11.65,-46.29 0,-18.32 1.33,-35.98 11.65,-46.3 6.33,-6.34 14.66,-10 24.65,-10 9.99,0 18.66,3.66 24.98,10 10.33,10.32 11.67,27.98 11.67,46.3 0,18.32 -1.34,35.97 -11.67,46.29 z m 25.65,-112.92 c -10.99,-11.32 -27.64,-19.99 -50.63,-19.99 -22.98,0 -39.3,8.67 -50.29,19.99 -15.99,16.66 -19.99,37.97 -19.99,66.63 0,28.31 4,49.62 19.99,66.28 10.99,11.32 27.31,19.99 50.29,19.99 22.99,0 39.64,-8.67 50.63,-19.99 15.99,-16.66 19.99,-37.97 19.99,-66.28 0,-28.66 -4,-49.97 -19.99,-66.63"
           style="fill:#001c55;fill-opacity:1;fill-rule:nonzero;stroke:none"
           id="path936" /><path
           d="m 3636.06,9199.11 v -139.9 h -33.98 v 139.9 h -19.32 v 25.98 h 19.32 v 25.98 c 0,24.32 14.66,46.96 46.3,46.96 h 21.32 v -28.97 h -14.99 c -12.66,0 -18.65,-7.33 -18.65,-19.66 v -24.31 h 33.64 v -25.98 h -33.64"
           style="fill:#001c55;fill-opacity:1;fill-rule:nonzero;stroke:none"
           id="path938" /><path
           d="m 3870.22,9264.06 v -204.85 h -35.97 v 204.85 h -65.29 v 32.31 h 166.55 v -32.31 h -65.29"
           style="fill:#001c55;fill-opacity:1;fill-rule:nonzero;stroke:none"
           id="path940" /><path
           d="m 4046.77,9180.46 c -5.33,12.65 -17.32,21.31 -33.31,21.31 -15.99,0 -28.32,-8.66 -33.64,-21.31 -3.33,-7.67 -4,-12.66 -4.33,-22.99 h 75.94 c -0.33,10.33 -1.33,15.32 -4.66,22.99 z m -71.28,-46.64 c 0,-28.98 15.32,-47.3 42.97,-47.3 18.98,0 28.97,5.33 40.97,17.33 l 21.65,-20.33 c -17.32,-17.32 -33.65,-26.32 -63.29,-26.32 -42.3,0 -75.95,22.33 -75.95,86.62 0,54.62 28.32,86.27 71.62,86.27 45.3,0 71.62,-33.32 71.62,-81.28 v -14.99 h -109.59"
           style="fill:#001c55;fill-opacity:1;fill-rule:nonzero;stroke:none"
           id="path942" /><path
           d="m 4196.66,9057.2 c -37.97,0 -75.27,23.32 -75.27,86.62 0,63.29 37.3,86.27 75.27,86.27 23.32,0 39.64,-6.66 55.64,-23.66 l -23.32,-22.64 c -10.66,11.66 -18.99,15.98 -32.32,15.98 -12.98,0 -23.98,-5.33 -31.31,-14.99 -7.32,-9.32 -9.99,-21.32 -9.99,-40.96 0,-19.66 2.67,-31.99 9.99,-41.31 7.33,-9.66 18.33,-14.99 31.31,-14.99 13.33,0 21.66,4.33 32.32,15.99 l 23.32,-22.32 c -16,-16.98 -32.32,-23.99 -55.64,-23.99"
           style="fill:#001c55;fill-opacity:1;fill-rule:nonzero;stroke:none"
           id="path944" /><path
           d="m 4393.86,9059.21 v 103.59 c 0,25.64 -14.99,36.97 -33.97,36.97 -18.99,0 -34.31,-11.66 -34.31,-36.97 v -103.59 h -33.98 v 237.16 h 33.98 v -85.27 c 11.66,12.66 26.98,18.99 43.63,18.99 37.64,0 58.63,-25.32 58.63,-61.96 v -108.92 h -33.98"
           style="fill:#001c55;fill-opacity:1;fill-rule:nonzero;stroke:none"
           id="path946" /><path
           d="m 4583.07,9059.21 v 102.93 c 0,26.3 -14.99,37.63 -33.97,37.63 -18.99,0 -34.99,-11.66 -34.99,-37.63 v -102.93 h -33.97 v 168.87 h 33.31 v -16.98 c 11.66,12.66 27.98,18.99 44.97,18.99 17.32,0 31.64,-5.67 41.63,-15.33 13,-12.65 16.99,-28.64 16.99,-47.63 v -107.92 h -33.97"
           style="fill:#001c55;fill-opacity:1;fill-rule:nonzero;stroke:none"
           id="path948" /><path
           d="m 4756.61,9190.11 c -6.32,6.33 -14.99,9.66 -24.98,9.66 -9.99,0 -18.32,-3.33 -24.64,-9.66 -10.33,-10.32 -11.66,-27.97 -11.66,-46.29 0,-18.32 1.33,-35.98 11.66,-46.3 6.32,-6.34 14.65,-10 24.64,-10 9.99,0 18.66,3.66 24.98,10 10.34,10.32 11.66,27.98 11.66,46.3 0,18.32 -1.32,35.97 -11.66,46.29 z m 25.66,-112.92 c -11,-11.32 -27.65,-19.99 -50.64,-19.99 -22.97,0 -39.3,8.67 -50.29,19.99 -15.99,16.66 -19.99,37.97 -19.99,66.63 0,28.31 4,49.62 19.99,66.28 10.99,11.32 27.32,19.99 50.29,19.99 22.99,0 39.64,-8.67 50.64,-19.99 15.99,-16.66 19.98,-37.97 19.98,-66.28 0,-28.66 -3.99,-49.97 -19.98,-66.63"
           style="fill:#001c55;fill-opacity:1;fill-rule:nonzero;stroke:none"
           id="path950" /><path
           d="m 4893.52,9059.21 c -32.31,0 -46.3,21.65 -46.3,46.63 v 190.53 h 33.97 v -188.53 c 0,-12.99 4.67,-19.65 18.33,-19.65 h 14.99 v -28.98 h -20.99"
           style="fill:#001c55;fill-opacity:1;fill-rule:nonzero;stroke:none"
           id="path952" /><path
           d="m 5032.43,9190.11 c -6.33,6.33 -15,9.66 -24.99,9.66 -9.99,0 -18.32,-3.33 -24.64,-9.66 -10.33,-10.32 -11.66,-27.97 -11.66,-46.29 0,-18.32 1.33,-35.98 11.66,-46.3 6.32,-6.34 14.65,-10 24.64,-10 9.99,0 18.66,3.66 24.99,10 10.33,10.32 11.66,27.98 11.66,46.3 0,18.32 -1.33,35.97 -11.66,46.29 z m 25.65,-112.92 c -11,-11.32 -27.65,-19.99 -50.64,-19.99 -22.97,0 -39.3,8.67 -50.29,19.99 -15.99,16.66 -19.99,37.97 -19.99,66.63 0,28.31 4,49.62 19.99,66.28 10.99,11.32 27.32,19.99 50.29,19.99 22.99,0 39.64,-8.67 50.64,-19.99 15.99,-16.66 19.98,-37.97 19.98,-66.28 0,-28.66 -3.99,-49.97 -19.98,-66.63"
           style="fill:#001c55;fill-opacity:1;fill-rule:nonzero;stroke:none"
           id="path954" /><path
           d="m 5184.65,9199.77 c -30.64,0 -34.64,-26.31 -34.64,-52.96 0,-26.65 4,-52.96 34.64,-52.96 30.65,0 34.32,26.31 34.32,52.96 0,26.65 -3.67,52.96 -34.32,52.96 z m -3.99,-210.85 c -25.65,0 -41.97,6 -59.63,22.32 l 21.65,21.65 c 10.66,-9.99 19.99,-14.99 36.65,-14.99 28.64,0 39.64,20.32 39.64,42.98 v 21.65 c -12.34,-14.66 -26.32,-19.33 -43.64,-19.33 -16.99,0 -30.98,5.66 -40.31,14.99 -16.32,16.33 -18.98,39.97 -18.98,68.62 0,28.65 2.66,52.3 18.98,68.62 9.33,9.32 23.66,14.66 40.64,14.66 17.99,0 31.65,-4.66 44.3,-19.99 v 17.98 h 32.98 V 9060.2 c 0,-41.3 -27.31,-71.28 -72.28,-71.28"
           style="fill:#001c55;fill-opacity:1;fill-rule:nonzero;stroke:none"
           id="path956" /><path
           d="m 5359.87,9025.56 c -3.33,-9.32 -7.33,-15.98 -12.33,-20.98 -9.32,-9.33 -21.65,-12.33 -34.64,-12.33 h -13.66 v 30.65 h 8.66 c 14.33,0 19.33,4.33 24.32,17.99 l 9.33,26.31 -58.96,160.88 h 35.98 l 40.3,-118.91 39.31,118.91 h 36.31 l -74.62,-202.52"
           style="fill:#001c55;fill-opacity:1;fill-rule:nonzero;stroke:none"
           id="path958" /></g></g></g></svg>
