<?xml version="1.0" encoding="utf-8"?>
<!-- Generator: Adobe Illustrator 17.1.0, SVG Export Plug-In . SVG Version: 6.00 Build 0)  -->
<!DOCTYPE svg PUBLIC "-//W3C//DTD SVG 1.1//EN" "http://www.w3.org/Graphics/SVG/1.1/DTD/svg11.dtd">
<svg version="1.1" id="Layer_1" xmlns="http://www.w3.org/2000/svg" xmlns:xlink="http://www.w3.org/1999/xlink" x="0px" y="0px"
	 width="300px" height="300px" viewBox="0 0 300 300" enable-background="new 0 0 300 300" xml:space="preserve">
<g>
	<g>
		<ellipse fill="#0074BD" cx="149.7" cy="149.7" rx="113.2" ry="113.3"/>
		<path fill="#FFFFFF" d="M134.2,158.6c0,0,2.4-1.3,5.3-3.5c0,0,1.3,1.2,2.4,2.4c0,0-1.3,0.8-1.9,1.1c-0.6,0.3-1,0.7-1.4,2.1
			C138.7,160.6,135.7,159.6,134.2,158.6z"/>
		<path fill="#FFFFFF" d="M140.4,160.8c0,0,1.7,1,5.9,1.1c4.3,0,8.9-3.5,9.8-4.5c0.9-1.1,4.3-5.8,4.8-8.4c0.6-2.6,1.3-7.3,1.5-8.8
			c0.2-1.5,0.6-3.2,1.6-5c1-1.8,2.6-4.7,3.1-6.2c0.5-1.5,0.9-2.4,1.4-2.6c0.5-0.3,0.8,0.1,1.1,0.6c0.3,0.5,0.3,0.8,0,1.5
			s-0.6,1.6-0.7,2c-0.1,0.4-0.2,1,0.9,1.2c1,0.2,3.4-0.4,6.9,0.1c3.6,0.5,8.1,2.2,10.7,2.7c2.5,0.5,6.3,0.4,9.7-1.3
			c3.4-1.6,7-5.5,8.7-9s2.9-7.7,3.3-11.2c0.4-3.5,1.2-6.9,2-11c0.8-4.1,2.9-11.8,3.5-13.9s2.2-6.9,2.5-7.7c0.3-0.8,0.3-1.8,0-2.3
			c-0.3-0.5-1.1-0.6-1.7-0.2c-0.6,0.4-4.8,3.3-6.2,5.3c-1.3,2.1-1.5,2.6-1.6,5.2c-0.1,2.6-0.1,4.2-0.9,10c-0.8,5.8-1.5,8.7-3,12.6
			c-1.5,3.8-3.6,5.5-4.3,5.8s-1.3-0.1-1.4-0.7c-0.2-0.6,0-1,0.6-1.8c0.6-0.8,2.7-3.5,4-8.6s2.6-12.8,2.7-15.8c0.1-3,0.1-6.3-0.3-7.3
			c-0.4-1-1.6-1.6-3-0.8c-1.4,0.8-2.5,1.7-3.8,4.6s-1.5,4.3-1.2,5.8c0.3,1.6,0.9,3.1,1,5.1c0.1,2.1-0.3,4.7-1.6,8.7
			c-1.3,3.9-1.5,4.6-2.7,7.1c-1.2,2.5-1.8,3.8-2.9,4.6c-1.1,0.8-2,0-2.2-0.3c-0.2-0.3-0.1-1.1,0.8-2.2c0.9-1.1,2.7-3.7,3.9-7.2
			c1.2-3.5,2.3-8,2.2-10.9c0-2.9-1.1-6.7-2.3-7.6c-1.2-0.9-2.3-0.3-3.5,1.8c-1.2,2.1-2.3,5.9-2.4,7.7c0,1.8,0.5,2.7,0.6,4.3
			c0,1.7-0.1,4-1.3,6.8c-1.2,2.9-3.2,6.6-4.2,7.4c-1,0.8-1.7,0.6-2.1,0.1c-0.4-0.5,0.1-1.3,0.9-2.2c0.8-0.9,3.6-4.8,4.2-8.7
			c0.6-3.9,0.2-5.3-0.7-6.6c-0.9-1.3-2.2-2.7-3.6-1c-1.4,1.7-3,4.9-3.1,7.2s0.4,2.3,0.3,4.2c-0.1,1.9-0.9,4.5-2.6,6
			c-1.7,1.6-2.3-0.1-1.3-1.3c1.1-1.2,2.4-2.8,2.2-5.2c-0.2-2.5-1-3.2-1.7-3.3c-0.7-0.1-2.3,1.2-2.7,3.3c-0.4,2.1-0.5,4.2-1.6,5.8
			c-1.1,1.6-1.7,1.7-2.1-0.4c-0.4-2.1-0.6-2.8-3.5-8.4c-0.5-0.9-3.1-5.6-4.5-8.8s-2.2-5.9-2.2-6.9s0.9-2.7,1.6-3.9
			c0.7-1.2,5.1-6.9,6.4-8.5c1.3-1.6,6.6-8.7,7.9-10.7s1.9-3.1,1.9-4.3c0-1.2-0.3-2.7-1.6-3.6s-3.6-0.7-4.9,0.2
			c-1.3,0.9-2.1,2.1-4,5.8c-1.9,3.7-6.1,11.6-7.1,13.5c-1,1.9-2.1,4.1-2.8,5c-0.7,1-1.3,1.1-0.4-1.6c1-2.7,4.8-12,5.6-13.6
			c0.8-1.6,4.3-10.2,5-11.5c0.7-1.4,0.9-2.1,1.1-2.8c0.3-0.7,0.2-1.5-0.5-2.2s-1.4-1.6-3.3-1.7c-1.9,0-3.2,0.2-3.5,1.5
			s-3.2,13-3.5,14.5c-0.4,1.5-2.8,12.6-3.3,14.4s-0.8,2.6-1,3c-0.2,0.3-0.4,0.8-0.3-1.4s1.3-11.3,1.6-13.9
			c0.3-2.6,1.1-12.2,1.2-14.6c0.1-2.4-0.3-4.5-1.1-5.3s-3.2-1.2-4.9-1c-1.7,0.1-2.9,0.7-3.5,2.5s-0.5,3.9,0,7.9
			c0.5,4.1,2.1,14,2.4,15.8c0.3,1.8,0.9,4.6,1.1,7.3c0.3,2.8,0,4.1-0.7,2.2c-0.7-1.9-3.3-12.1-3.6-13.3c-0.3-1.2-2.8-11.2-3.2-12.6
			s-0.9-3.5-1.2-4.4c-0.3-0.9-1-1.7-2.4-2c-1.4-0.3-3.5,0.2-4.7,2c-0.3,0.5-0.4,1.3-0.2,2.1s5.1,12.2,5.8,13.7
			c0.7,1.6,5,12,5.6,13.6s0.8,2.1,0.6,2.3s-1.2-0.7-2-2.3c-0.9-1.6-2.5-4.9-4.8-9.1c-2.3-4.2-6.1-11.2-6.8-12.4
			c-0.8-1.2-2-2.8-4-3.1c-1.9-0.3-3.8,1-4,3.2c-0.2,2.2,0.1,2.7,2,5.6c1.8,2.9,9.9,14.1,11.1,15.6c1.2,1.5,2.6,3.6,3.4,5.5
			c0.8,1.9,0.8,2.3,0.6,3.6s-1.6,5.6-2.5,7.6c-0.9,2-2.1,3.2-3,4.8c-0.9,1.6-2,3.7-2.3,5.8c-0.3,2.1-0.1,4.2-0.2,5.1
			c-0.1,0.8-0.5,1.8-1.7,0.3c-1.2-1.6-1.6-4.4-1.8-6c-0.3-1.6-1-3.2-2.1-3.6c-1.1-0.4-2,0.8-2.1,2.6s0,3.6,1.3,5
			c1.3,1.4,1.6,2.1,1.3,2.6c-0.3,0.5-1.4,0.5-2.6-1.3c-1.2-1.8-1.8-4.1-1.6-6.6c0.3-2.6,0.4-4.2-0.8-6.6c-1.3-2.4-2.3-3.8-3.2-3.9
			s-2.2,0.7-3,2.7c-0.8,2.1-0.6,5,0.3,7.4c0.8,2.4,2,4.9,3.4,6.6c1.4,1.7,1.7,1.9,1.3,2.6c-0.4,0.6-1.6,0.6-2.4-0.4
			c-0.8-0.9-3.2-5-4.2-8s-1-5.9-0.8-7.8c0.2-1.9,0.6-3.8-0.5-6.8c-1.1-3.1-2.1-4.8-3.4-5.3c-1.3-0.5-2.6,0.5-3.4,3.8
			c-0.8,3.3-0.5,6.9,0.3,10.3c0.8,3.3,1.8,6.7,3.5,9.3c1.7,2.6,2.4,3.2,2.6,3.9c0.2,0.8-0.5,1.3-1.2,1.4s-1.4-0.6-2.2-1.7
			s-3.2-6-4.3-9.7s-1.8-6-1.8-9.3c0-3.3,1.2-4.9,1-6.7c-0.2-1.8-1.8-6.3-3.3-7.5c-1.5-1.3-2.9-2.2-4-1.4s-1.3,1.6-1.1,5.7
			c0.1,4.1,0.9,9.1,1.4,11.9c0.5,2.8,1.7,9.1,3.5,12.1c1.8,3,2.6,3.4,2.6,4.2c0,0.9-1.2,1.6-2.4,0.5s-4.1-4.3-6-14.3
			c-0.2-1.1-1.2-7.4-1.4-12.8c-0.1-2,0.1-3.6-1.2-5.5s-5-4.9-6.2-5.6c-1.2-0.7-1.8-0.3-2,0.1s-0.5,1.1,0.3,3.3
			c0.8,2.2,2.1,6.4,3.4,11.4c1.4,4.9,2.9,12.2,3.4,14.6c0.5,2.5,0.6,4.2,1,7.1s1.7,7.2,3.9,11.1c2.3,3.9,6,6.8,8.9,8.1
			c2.9,1.2,7,1.5,10.4,0.4c3.4-1.1,6.9-2.1,9.5-2.4c2.6-0.3,5.9,0.2,6.8-0.1c1-0.3,0.6-1.4,0.3-2.1c-0.3-0.7-0.9-1.7-0.6-2.3
			c0.3-0.6,0.7-1,1.1-0.8s1.2,1.4,1.5,3.4c0.3,2,0.4,3,1.5,5.4c1.1,2.4,3.1,6,4.2,7.9c1.1,1.9,2.1,3.9,2.5,6s-0.1,3.1-1.2,4.9
			c0,0,0.4,0.5,1.5,1.5s1.9,2.2,1.9,2.2s-0.7,0.8-1.8,1.6C141.1,159.7,140.6,160.1,140.4,160.8z"/>
		<path fill="none" stroke="#19F900" stroke-miterlimit="10" d="M146.4,156.7c0,0-0.9,0.6-0.7,1.6c0.2,1,1.1,1.5,2.3,1.1
			s1-2,0.4-2.5S147.4,156.2,146.4,156.7z"/>
		<path fill="#FFFFFF" d="M157,170.1c0,0,6.4-7.6,7-8.4c0.6-0.8,1.4-1.8,1.4-2.1s-0.6-0.8-1.3-0.6c-0.7,0.2-3.2,0.9-5.2,2
			c-2,1.1-2.3,2.1-2.9,3.5c-0.6,1.4-1,3.1-1,3.6C155.1,168.6,156.1,169.6,157,170.1z"/>
		<path fill="#FFFFFF" d="M159.7,169.7c0,0,7-8.4,7.5-8.8s0.7-0.2,0.9,0c0.2,0.2,0.6,0.8,0.4,2.3c-0.2,1.5-1.4,4.9-3.4,6.6
			c-1.9,1.6-4.5,2.5-5.1,2.5s-0.8-0.4-0.9-1C159,170.7,159.1,170.4,159.7,169.7z"/>
		<path fill="#FFFFFF" d="M150.2,177.2v47.2l0.6,0.8c0,0,5.2-2.7,9.7-3.1s7.1-0.3,13.2,0.9c6.1,1.1,9.6,2,13.2,2.1
			c3.6,0,7.3-0.9,8.2-1.8c0,0-2-10.6-2.3-12.2c-0.3-1.6-3.1-16.4-3.4-18s-3.2-17.5-3.2-17.5s-0.4,0.6-4.2,1s-7.4,0.5-9.1,0.3
			c-1.8-0.2-5.9-1.2-7.7-1.6S154.9,173.3,150.2,177.2z"/>
		<path fill="#FFFFFF" d="M152.1,228.5l4.4,4.3c0,0,3.6-3.4,9.7-3.4c6.1,0.1,9.7,1.7,17.1,2.1c7.5,0.5,12.5-1.3,15.5-2.5l-3-3
			c0,0-3.5,1-6.8,1.4c-3.3,0.4-5.4,0-10.4-0.9c-5-0.9-9.9-1.7-13.1-1.9C162.4,224.5,157.6,225.3,152.1,228.5z"/>
		<path fill="#FFFFFF" d="M158.3,235.8c0,0,44.2,0,46.2,0s3-1.2,2.5-3.7c-0.5-2.6-9.5-47.9-9.7-49.1c-0.2-1.1-0.4-2.3-2.6-2.1
			l8.8,48.7c0,0-1.8,2.3-8.9,3.6c-7.1,1.3-11.2,1.4-16.8,0.5c-5.6-0.9-9.4-1.7-11.6-1.6C163.9,232.3,161,232.9,158.3,235.8z"/>
		<path fill="#FFFFFF" d="M148.4,228.9c0,0,2.9,2.7,3.9,3.7s1.1,1.5,0.9,2.1c-0.3,0.7-2.9,2-5,2.1s-3.3-0.6-4.1-1.4
			c-0.9-0.8-0.8-1.6-0.1-2.2S148.4,228.9,148.4,228.9z"/>
		<path fill="#FFFFFF" d="M144.7,228.2c0,0-5-3-10.1-3.6c-5-0.5-10,0.8-14.2,1.4c-4.2,0.7-12.2,3.3-18.8-0.2l-2.9,3
			c0,0,1.4,1,7.3,2.2c5.9,1.1,9.1,0.4,13.3-0.3c4.2-0.7,8.8-1.7,11.4-1.8c2.6-0.1,6.8,1.5,9.3,3.5L144.7,228.2z"/>
		<path fill="#FFFFFF" d="M139,235.8c0,0-45,0-46.5,0s-3.1-1-2.5-4c0.6-3,9.5-47.8,9.8-48.9c0.3-1.1,0.8-2.1,2.6-2l-8.8,48.7
			c0,0,1.2,2.2,9.3,3.7s11.4,1.1,19.4-0.1S132.9,230.6,139,235.8z"/>
		<path fill="#FFFFFF" d="M146.6,223.7l-0.5,1c0,0-5.1-2.6-10.7-3.3c-5.6-0.6-15.5,1.7-18.9,2.3s-11.5,1.5-14.2-1.3l8.7-46.8
			c0,0,2.7,1.4,11.1,1.3c8.4-0.1,14.5-5.2,24.5,0.2V223.7z"/>
		<path fill="#FFFFFF" d="M96.7,227.4l3.1-3.2l8.3-47c0,0-1.7,1.1-3.2,2.9L96.7,227.4z"/>
		<polygon fill="#FFFFFF" points="197.7,224.6 200.8,227.6 192.2,180.4 189.1,177.5 		"/>
		<path fill="#FFFFFF" d="M135.2,155.8l-1.7,1c0,0-5.6-1.8-8-2.4c-2.4-0.7-5.6-0.8-8.9-0.3c-3.3,0.6-9.5,2.8-11,3.3
			c-1.5,0.5-3.2,1.5-4.2,2.3c-1,0.8-2.1,1.8-2.1,1.8s-0.5,0-0.7-1c0,0,2.3-1.8,4-2.9c0.3-0.2-0.2-0.6-1-0.7s-1.9-0.3-3.9-0.3
			s-8.3-0.5-10.3-1.7c0,0,0.3-0.5,1-0.6c0,0,2.3,1,9.7,1.3c7.4,0.3,8.6,0.2,12.1-0.8c3.5-1,3.9-1.2,4.3-1.9c0,0-0.3-0.3-1.5-1
			s-2.2-1.3-2.2-1.3s0.1-0.6,0.5-0.8c0,0,2.6,1.4,3.3,1.8c0,0,1.3-0.1,6.1,0.5C125.3,152.6,134.4,155.5,135.2,155.8z"/>
		<path fill="#FFFFFF" d="M125.1,156.4c0,0-1.5,1-7.7,11.7c-0.3,0.6,0.3,0.9,1.5,0.5c1.3-0.4,5.1-2.2,6.7-5.3S126,157.7,125.1,156.4
			z"/>
		<path fill="#FFFFFF" d="M122.5,156.1c0,0-0.7,2.3-7.2,11.1c-0.3,0.4-1,0.1-1-0.5c0-0.6-0.1-4.2,1.3-7.6s3-4.2,4.8-4.3
			C122.3,154.7,123,154.7,122.5,156.1z"/>
		<path fill="#FFFFFF" d="M98.2,142.3c0,0,2.9,2.4,4.5,3.5c1.6,1.2,4.8,3.6,5.1,3.9c0.3,0.3,0.4,0.5,0.4,0.9c0,0.4-0.4,1.1-1.4,1.3
			s-3,0.5-5.9-2.2c-2.8-2.7-3.4-5.2-3.7-6.6C97.2,142.1,97.1,141.6,98.2,142.3z"/>
		<path fill="#FFFFFF" d="M99.2,140.6c0,0,1.1,1,3.2,2.6s6.7,4.9,7.8,5.8c0,0,0.9-1.6,1-3.2c0-1.6-1.2-3.3-3.4-4.5s-4.5-2.2-6.4-2.3
			c-1.9-0.1-2.2,0.2-2.5,0.4C98.6,139.6,98.8,140.2,99.2,140.6z"/>
		<path fill="#FFFFFF" d="M85.5,153.3c0,0-1-0.8-4.7-2.6s-6.7-3.5-7.3-3.8c-0.6-0.3-0.9-0.6-0.4-1c0.4-0.3,1-0.7,3.2-0.7
			c2.2,0,3.9-0.1,6.1,1.1c2.2,1.2,4.2,3.7,4.6,4.4c0.4,0.7,0.2,1.5-0.2,2C86.3,153.3,86,153.6,85.5,153.3z"/>
		<path fill="#FFFFFF" d="M84.2,154.7c0,0-3.1-1.3-5.5-2.6c-2.4-1.3-5.3-2.6-6.1-3.2s-0.9-0.8-1.2-0.7c-0.3,0.1-0.4,1.1,0.5,2.3
			c0.9,1.2,2.6,2.9,4.1,4.3c1.4,1.4,3.2,2.4,4.9,2.5c1.8,0.1,3.5-0.4,4-0.8C85.5,156.2,85.9,155.5,84.2,154.7z"/>
		<path fill="#FFFFFF" d="M88.6,174.3c0,0,4-4.3,5.3-6.1s2.7-3.5,3.5-4c0.8-0.5,1-0.6,1.2-0.3c0.2,0.3,0.6,1.8,0.2,3.9
			c-0.4,2.1-1.3,3.4-3.5,5c-2.2,1.6-4.2,2.5-5,2.6c-0.8,0.2-1.6,0.1-1.8-0.1C88.3,175,88.3,174.6,88.6,174.3z"/>
		<path fill="#FFFFFF" d="M87.3,172.5c0,0,5-5.7,6-7c1-1.3,2.6-2.7,2.7-3.5c0-0.8-0.5-1-1.3-1c-0.8,0-4.1,0.3-5.5,2.1
			c-1.4,1.8-2.5,5.4-2.8,6.5c-0.4,1.1-0.3,2.1-0.2,2.6S86.8,173.1,87.3,172.5z"/>
		<polygon fill="#FFFFFF" points="199,150.1 196,150.6 196,164.6 199,164.6 		"/>
		<path fill="#FFFFFF" d="M230.2,150.3l-0.8,2.8h-6.2l-1.2,3c0,0,3.8,1.2,5.4,3.6c1.6,2.4,1.3,5.5-0.1,7.4c-1.4,1.8-3.4,3.4-6.4,3.4
			c-1.8,0-3.2-0.9-3.3-1.6c-0.1-0.7,0.7-1.3,1-1.5c0.3-0.2,0.5-0.2,1,0.1c0.5,0.3,1.1,0.9,2.5,0.9c1.4,0,3.6-1,3.8-3.7
			s-2.2-4.9-5.7-6.1c-0.9-0.3-0.5-1.1-0.3-1.8c0.3-0.7,2.5-6.3,2.5-6.3H230.2z"/>
		<path fill="#FFFFFF" d="M244.1,162l-0.7,2.5h-11.7v-1.3c0,0,4.1-3.2,5.8-5.3c1.7-2.1,2.1-3.3,1.5-4.7c-0.5-1.4-3.8-2.3-5.8,1.1
			h-0.8l-0.2-0.5v-1.4c0,0,1.8-2.6,5.5-2.6c3.7,0,4.6,2.4,4.6,4.3c0,1.9-1.5,4.1-6.9,7.8L244.1,162z"/>
		<path fill="#FFFFFF" d="M215.4,156.6c-0.9-1.1-2.5-2-3.3-2.4c1-0.5,3.2-1.6,3.6-3.2c0.6-2.2,0.3-4.2-1.9-5.3
			c-2.1-1.1-6.5-1.1-8.4,0.8c-1.9,1.9-2.7,5.8,2.3,8.3c-3.1,1.2-4.7,3.3-4.4,6c0.3,2.9,3.3,4.2,6.4,4.2c3.2-0.1,4.9-1.2,6.1-2.7
			C217,160.7,216.6,158,215.4,156.6z M207.3,151.1c-1.4-1.8-0.5-3.7,1-4.3c1.4-0.6,3.7-0.5,4.5,1.4c0.8,1.8,0.1,4-2.3,5.3
			C209.7,153.1,208.3,152.4,207.3,151.1z M213.5,161c-0.4,1.6-2.3,2.4-4,2.4c-1.7,0-3.4-1.4-3.4-3.5c0-2,1.1-3.4,2.9-4.3
			c0.6,0.3,1.9,1,2.8,1.7C213.1,158.2,214,159.3,213.5,161z"/>
		<path fill="#FFFFFF" d="M146.8,163.9h-2.2c2.8,3.5,7.3,8.4,10.1,11.2c1-0.2,2-0.4,2.9-0.4C152.3,170.2,146.8,163.9,146.8,163.9z"
			/>
		<path fill="#0074BD" d="M170.2,184.9c4.4,1.2,9.1,0.4,9.1,0.4l-0.6-2.2c0,0-3.9,0.6-6.8,0c-2.9-0.7-7-2.9-12.8-7.4
			c-0.4-0.3-0.9-0.7-1.4-1.1c-1,0.1-2,0.2-2.9,0.4c0.9,0.9,1.7,1.6,2.2,1.9C159,178.4,165.8,183.6,170.2,184.9z"/>
	</g>
	<g>
		<path fill="#0074BD" d="M80.4,254.2c-1,1.4-2.4,2.1-4.2,2.3c-1.8,0.1-3.4-0.4-5-1.5c-0.9-0.7-1.8-1.4-2.7-2.2l-3.1,4.2
			c-0.4,0.5-0.6,1-0.7,1.3c0,0.3,0.1,0.7,0.3,1.1c0.2,0.4,0.7,0.9,1.3,1.4c0.1,0.1,0.1,0.3,0,0.5c-0.2,0.2-0.3,0.3-0.4,0.2
			c-0.5-0.4-1.1-0.9-1.8-1.5c-0.7-0.6-1.2-1-1.7-1.4c-0.5-0.4-1.1-0.8-1.8-1.2c-0.8-0.5-1.4-0.9-1.9-1.3c-0.1-0.1-0.1-0.3,0.1-0.5
			c0.1-0.2,0.3-0.3,0.4-0.2c1,0.6,1.8,0.9,2.3,0.9s1.1-0.3,1.6-1.1l8.3-11.1c0.4-0.5,0.6-1,0.7-1.3c0-0.3-0.1-0.7-0.3-1.1
			c-0.2-0.4-0.7-0.9-1.3-1.4c-0.1-0.1-0.1-0.2,0.1-0.5c0.2-0.2,0.3-0.3,0.4-0.2c0.5,0.4,1.1,0.9,1.8,1.5c0.7,0.6,1.2,1,1.7,1.4
			c0.5,0.4,1.1,0.8,1.8,1.2c0.8,0.5,1.4,0.9,1.9,1.3c1.9,1.4,3.1,2.9,3.5,4.5C81.9,251.1,81.5,252.7,80.4,254.2z M77.8,252.3
			c0.9-1.3,1.4-2.5,1.3-3.6c-0.1-1.2-0.6-2.1-1.7-2.9c-0.6-0.5-1.1-0.8-1.5-0.9c-0.4-0.2-0.8-0.2-1-0.1c-0.3,0.1-0.7,0.5-1.1,1.1
			l-4,5.4c-0.3,0.3-0.3,0.6-0.2,0.9c0.1,0.3,0.5,0.7,1.2,1.2c1.3,1,2.5,1.3,3.8,1.1C75.7,254.3,76.8,253.6,77.8,252.3z"/>
		<path fill="#0074BD" d="M92.9,276.9c-0.1,0.2-0.3,0.3-0.4,0.3c-0.6-0.3-1.3-0.7-2-1.1c-0.6-0.4-1.2-0.7-1.6-1
			c-0.5-0.3-1.2-0.6-2-1c-0.8-0.4-1.6-0.7-2.1-1c-0.1-0.1-0.1-0.2,0-0.5c0.1-0.2,0.2-0.3,0.3-0.3c0.8,0.4,1.4,0.6,1.8,0.6
			c0.4,0,0.7-0.2,0.9-0.5c0.1-0.2,0.2-0.6,0.3-1.2l0.8-5.1l-5.3-2.8l-3.6,3.2c-0.5,0.4-0.8,0.8-0.9,1.1c-0.4,0.8,0.1,1.6,1.4,2.4
			c0.1,0.1,0.1,0.2,0,0.4c-0.1,0.2-0.3,0.3-0.4,0.2c-0.5-0.3-1.1-0.6-1.7-1c-0.6-0.4-1.1-0.7-1.6-0.9c-0.4-0.2-0.9-0.4-1.4-0.7
			c-0.6-0.3-1.1-0.5-1.5-0.7c-0.1-0.1-0.1-0.2,0-0.4c0.1-0.2,0.3-0.3,0.5-0.2c0.8,0.3,1.4,0.4,2,0.3c0.6-0.1,1.4-0.5,2.4-1.3
			L92.7,254c0.1-0.1,0.3-0.1,0.5,0c0.2,0.1,0.3,0.2,0.3,0.4l-2.5,17.7c-0.1,1-0.1,1.8,0.2,2.5c0.3,0.7,0.9,1.3,1.7,1.8
			C93,276.6,93,276.7,92.9,276.9z M89.1,265.1l1.2-7.8l-5.9,5.3L89.1,265.1z"/>
		<path fill="#0074BD" d="M117.2,284.9c-0.1,0.3-0.2,0.4-0.3,0.3c-0.4-0.1-1-0.4-1.8-0.7c-0.8-0.3-1.5-0.6-2-0.7
			c-0.6-0.2-1.3-0.4-2.2-0.6c-1-0.2-1.8-0.5-2.4-0.7c-0.1,0-0.2-0.2-0.1-0.5c0.1-0.2,0.2-0.3,0.3-0.3c1.4,0.2,2.1,0.1,2.2-0.3
			c0.1-0.3,0-0.9-0.2-1.7l-2-6.4l-5.3,4.1c-0.4,0.3-0.7,0.6-0.8,1c-0.1,0.3,0,0.7,0.3,1c0.3,0.3,0.8,0.6,1.6,1
			c0.1,0.1,0.1,0.2,0,0.4c-0.1,0.3-0.2,0.4-0.3,0.3c-0.6-0.2-1.4-0.5-2.2-0.8c-0.7-0.3-1.3-0.5-1.8-0.7c-0.4-0.1-0.9-0.3-1.6-0.4
			c-0.7-0.2-1.3-0.3-1.9-0.5c-0.1,0-0.2-0.2-0.1-0.5c0.1-0.2,0.2-0.3,0.4-0.3c1,0.2,1.7,0.2,2.4,0.1c0.6-0.1,1.4-0.5,2.4-1.2
			l6.6-4.6l-2.7-8.7c-0.4-1.2-0.7-2-1.2-2.4c-0.4-0.4-1.1-0.8-2.1-1.3c-0.1,0-0.2-0.2-0.1-0.5s0.2-0.4,0.3-0.3
			c0.4,0.1,1.1,0.4,1.8,0.7c0.9,0.3,1.5,0.6,2,0.7c0.6,0.2,1.3,0.4,2.2,0.6c1,0.2,1.7,0.5,2.4,0.6c0.1,0,0.2,0.2,0.1,0.5
			c-0.1,0.3-0.2,0.4-0.3,0.3c-0.8-0.1-1.4-0.2-1.7-0.1c-0.3,0-0.5,0.2-0.6,0.4c-0.1,0.3,0,0.9,0.2,1.7l1.9,6l5-3.9
			c0.5-0.4,0.8-0.8,0.9-1c0.1-0.3,0-0.6-0.3-1c-0.3-0.3-0.9-0.7-1.7-1c-0.1,0-0.1-0.2,0-0.4c0.1-0.3,0.2-0.4,0.3-0.3
			c0.6,0.2,1.3,0.4,2,0.7c0.7,0.3,1.3,0.5,1.9,0.7c0.4,0.1,1,0.3,1.6,0.4c0.7,0.2,1.4,0.3,2.1,0.6c0.1,0,0.2,0.2,0.1,0.5
			c0,0.1-0.1,0.2-0.2,0.2c-0.1,0.1-0.2,0.1-0.2,0.1c-1-0.2-1.9-0.2-2.5-0.1c-0.6,0.1-1.4,0.5-2.3,1.2l-6.3,4.3l2.8,9
			c0.4,1.2,0.8,2,1.2,2.4c0.4,0.4,1.1,0.8,2.1,1.2C117.3,284.5,117.3,284.7,117.2,284.9z"/>
		<path fill="#0074BD" d="M146.9,284c-0.9,1.6-1.7,3.2-2.3,4.7c-3.7-0.4-6.3-0.7-7.8-0.8c-1.5-0.1-4.2-0.3-7.8-0.5
			c-0.2,0-0.2-0.2-0.2-0.4c0-0.2,0.1-0.4,0.3-0.4c0.8,0,1.4-0.1,1.9-0.2c0.4-0.1,0.8-0.3,1-0.6c0.2-0.3,0.3-0.7,0.4-1.4l1.2-13.8
			c0.1-0.7,0-1.2-0.1-1.4c-0.1-0.3-0.4-0.5-0.8-0.7c-0.4-0.2-1-0.4-1.9-0.6c-0.2,0-0.2-0.2-0.2-0.4c0-0.3,0.1-0.4,0.3-0.4
			c2.4,0.3,5,0.6,7.5,0.8c2.6,0.2,5.1,0.4,7.6,0.5c0.1,1.5,0.3,3,0.6,4.6c0,0.2-0.2,0.3-0.5,0.2c-0.2,0-0.3-0.1-0.3-0.2
			c-0.5-2.4-2-3.6-4.3-3.8l-3-0.2c-1.1-0.1-1.7,0.4-1.8,1.6l-0.5,6.5l3.7,0.3c1,0.1,1.7-0.1,2-0.5c0.4-0.4,0.7-1.2,0.9-2.3
			c0-0.2,0.2-0.2,0.4-0.2c0.3,0,0.4,0.1,0.4,0.3c0,0.5-0.1,1.1-0.2,1.8c-0.1,0.7-0.2,1.3-0.2,1.7c0,0.5-0.1,1-0.1,1.8
			c0,0.8,0,1.4-0.1,1.9c0,0.2-0.2,0.2-0.4,0.2c-0.3,0-0.4-0.1-0.4-0.3c0-1.2-0.2-2.1-0.6-2.6c-0.3-0.5-1-0.8-1.9-0.9l-3.7-0.3
			l-0.6,7.2c-0.1,1.1,0.4,1.8,1.5,1.9l3.2,0.3c1.2,0.1,2.3-0.2,3.5-0.8c1.2-0.7,2.1-1.5,2.8-2.6c0-0.1,0.1-0.1,0.3-0.1
			c0.1,0,0.3,0.1,0.4,0.1C146.9,283.8,146.9,283.9,146.9,284z"/>
		<path fill="#0074BD" d="M169.3,271.8c0,0.2-0.2,0.3-0.5,0.3c-0.2,0-0.3,0-0.3-0.2c-0.5-1.3-1.2-2.3-2-2.8c-0.8-0.5-2-0.7-3.5-0.6
			l-1.4,0.1c-0.5,0-0.8,0.1-1,0.3c-0.2,0.2-0.2,0.5-0.2,0.9l1.2,14.8c0.1,0.7,0.2,1.1,0.4,1.4c0.2,0.3,0.5,0.5,1,0.6
			c0.4,0.1,1.1,0.2,1.9,0.2c0.2,0,0.2,0.1,0.3,0.4c0,0.3,0,0.4-0.2,0.4c-0.7,0.1-1.4,0.1-2.3,0.1c-0.9,0-1.6,0-2.2,0.1
			c-0.6,0-1.3,0.1-2.2,0.3c-0.9,0.1-1.7,0.2-2.3,0.3c-0.2,0-0.2-0.1-0.3-0.4c0-0.2,0-0.4,0.2-0.4c1.2-0.2,2-0.5,2.4-0.8
			c0.4-0.3,0.6-1,0.5-1.9l-1.2-14.8c0-0.4-0.1-0.7-0.3-0.9c-0.2-0.1-0.5-0.2-1-0.2l-1.1,0.1c-1.4,0.1-2.6,0.6-3.7,1.3
			c-1.1,0.8-1.7,1.7-2,2.9c0,0.2-0.1,0.2-0.3,0.2c-0.3,0-0.5-0.1-0.5-0.3c0.4-1.5,0.8-3.2,1.2-5.1c1.3,0.2,4.4,0.1,9.1-0.3
			c4.9-0.4,8-0.8,9.3-1.1C168.3,268.1,168.7,269.8,169.3,271.8z"/>
		<path fill="#0074BD" d="M196.2,274.7c0.1,1.8,0.3,3.6,0.6,5.5c-3.6,1-6.2,1.7-7.7,2.2c-1.5,0.5-4,1.3-7.5,2.5
			c-0.1,0-0.3-0.1-0.3-0.3c-0.1-0.2,0-0.4,0.1-0.4c1.1-0.5,1.8-0.9,2.1-1.3c0.3-0.4,0.3-1.1,0.1-1.9l-4.1-13.2
			c-0.2-0.7-0.4-1.1-0.7-1.3c-0.2-0.2-0.6-0.3-1.1-0.4c-0.5,0-1.1,0-1.9,0.2c-0.1,0-0.3-0.1-0.3-0.3c-0.1-0.3,0-0.4,0.1-0.5
			c0.6-0.2,1.4-0.4,2.3-0.6c0.8-0.2,1.6-0.4,2.1-0.6c0.6-0.2,1.3-0.4,2.1-0.7c0.8-0.3,1.6-0.6,2.2-0.8c0.1,0,0.3,0.1,0.3,0.3
			c0.1,0.3,0,0.4-0.1,0.5c-0.8,0.3-1.3,0.6-1.7,0.9c-0.4,0.3-0.6,0.6-0.7,0.9c-0.1,0.3,0,0.8,0.2,1.5l4.2,13.6
			c0.3,1.1,1.1,1.5,2.1,1.1l2.8-0.9c1.1-0.4,2-1,2.6-1.8c0.6-0.9,1-2.2,1.3-4.2c0-0.1,0.1-0.2,0.2-0.2c0.1,0,0.2,0,0.4,0
			C196.1,274.6,196.2,274.6,196.2,274.7z"/>
		<path fill="#0074BD" d="M211.7,250.9c0.1,0.2,0.1,0.4,0,0.5c-1,0.7-1.7,1.3-1.9,1.7c-0.2,0.5-0.2,1.1,0.3,1.9l4.2,8.2
			c1.2,2.3,1.6,4.4,1.1,6.3c-0.4,1.9-1.7,3.4-3.7,4.4c-2.3,1.2-4.5,1.5-6.4,0.9c-1.9-0.6-3.5-2-4.6-4.1l-4.4-8.6
			c-0.3-0.6-0.6-1-0.9-1.2c-0.3-0.2-0.6-0.2-1.1-0.2c-0.5,0-1.1,0.2-1.9,0.5c-0.1,0.1-0.3,0-0.4-0.3c-0.1-0.2-0.1-0.4,0-0.5
			c0.6-0.3,1.3-0.6,2.1-1c0.8-0.3,1.5-0.6,2-0.9c0.5-0.3,1.2-0.6,1.9-1.1c0.8-0.5,1.5-0.8,2-1.1c0.1-0.1,0.3,0,0.4,0.3
			c0.1,0.2,0.1,0.4,0,0.5c-0.7,0.5-1.2,0.9-1.5,1.2c-0.3,0.3-0.5,0.7-0.5,1c0,0.3,0.1,0.8,0.4,1.4l4.2,8.2c1.1,2.1,2.3,3.5,3.6,4.1
			c1.3,0.6,2.9,0.4,4.7-0.5c3.4-1.8,4-4.8,1.8-9.2l-4.1-7.9c-0.4-0.8-0.9-1.3-1.4-1.3c-0.5-0.1-1.4,0.1-2.5,0.5
			c-0.1,0.1-0.3,0-0.4-0.3c-0.1-0.2-0.1-0.4,0-0.5c0.4-0.2,0.9-0.4,1.6-0.7c0.7-0.3,1.3-0.5,1.7-0.8c0.4-0.2,0.9-0.5,1.5-0.9
			c0.6-0.4,1.1-0.7,1.6-0.9C211.5,250.5,211.6,250.6,211.7,250.9z"/>
		<path fill="#0074BD" d="M241.4,252.7c0.2,0.2,0.2,0.4,0.1,0.5c-0.4,0.3-0.9,0.6-1.6,1.1c-0.7,0.5-1.3,0.9-1.7,1.2
			c-0.5,0.4-1,0.8-1.8,1.5c-0.8,0.7-1.4,1.2-1.9,1.6c-0.1,0.1-0.3,0-0.4-0.2c-0.1-0.2-0.2-0.3-0.1-0.5c1-1,1.3-1.6,1-2
			c-0.2-0.3-0.7-0.5-1.5-0.8l-6.4-2l0.4,6.7c0,0.5,0.1,0.9,0.3,1.2c0.2,0.3,0.5,0.4,0.9,0.3c0.4-0.1,1-0.3,1.8-0.8
			c0.1-0.1,0.2,0,0.4,0.2c0.2,0.2,0.2,0.4,0.1,0.5c-0.5,0.4-1.2,0.9-1.9,1.3c-0.6,0.4-1.2,0.8-1.6,1.1c-0.3,0.3-0.8,0.6-1.2,1.1
			c-0.5,0.5-1,0.9-1.5,1.3c-0.1,0.1-0.3,0-0.4-0.2c-0.1-0.2-0.1-0.4,0-0.5c0.7-0.7,1.2-1.3,1.4-1.9c0.2-0.6,0.4-1.5,0.4-2.6l0-8
			l-8.7-2.7c-1.2-0.4-2-0.5-2.6-0.4c-0.6,0.1-1.3,0.4-2.2,1c-0.1,0.1-0.3,0-0.4-0.2c-0.2-0.2-0.2-0.4-0.1-0.5
			c0.4-0.3,0.9-0.7,1.6-1.1c0.8-0.5,1.3-0.9,1.8-1.2c0.5-0.4,1.1-0.9,1.7-1.5c0.7-0.6,1.4-1.2,1.9-1.6c0.1-0.1,0.3,0,0.4,0.2
			c0.2,0.2,0.2,0.4,0.1,0.5c-0.6,0.6-0.9,1-1.1,1.3c-0.1,0.3-0.1,0.5,0,0.7c0.2,0.3,0.7,0.5,1.5,0.8l6,1.9l-0.3-6.3
			c-0.1-0.7-0.2-1.1-0.3-1.3c-0.2-0.3-0.5-0.4-1-0.3c-0.4,0.1-1,0.3-1.8,0.8c-0.1,0.1-0.2,0-0.4-0.2c-0.2-0.2-0.2-0.4-0.1-0.5
			c0.5-0.4,1.1-0.8,1.8-1.2c0.6-0.4,1.2-0.8,1.6-1.2c0.4-0.3,0.8-0.6,1.2-1c0.6-0.5,1.1-1,1.7-1.4c0.1-0.1,0.3,0,0.4,0.2
			c0.1,0.1,0.1,0.2,0.1,0.3s0,0.2-0.1,0.2c-0.8,0.7-1.3,1.4-1.5,2c-0.2,0.6-0.4,1.5-0.4,2.6l0,7.6l9,2.9c1.2,0.4,2.1,0.5,2.6,0.4
			c0.5-0.1,1.3-0.4,2.2-1C241.1,252.5,241.2,252.5,241.4,252.7z"/>
	</g>
	<g>
		<path fill="#0074BD" d="M49.3,226.2c1.5-1.3,3-1.8,4.7-1.7c1.6,0.1,3.1,1,4.4,2.5c0.6,0.7,1.1,1.6,1.7,2.7c0.5,1,1,1.8,1.4,2.4
			c-1.2,1.1-2.4,2.3-3.6,3.5c-0.1,0.1-0.3,0-0.5-0.2c-0.1-0.2-0.2-0.3-0.1-0.4c1-1.6,1.6-2.9,1.6-4c0-1.1-0.4-2.2-1.4-3.4
			c-0.8-0.9-1.6-1.4-2.6-1.4c-0.9-0.1-1.9,0.3-2.8,1.1c-0.6,0.5-1,1.2-1.1,2.1c-0.2,0.9,0,2.4,0.3,4.5c0.4,2.4,0.6,4.2,0.3,5.2
			c-0.2,1.1-0.7,1.9-1.5,2.6c-1.2,1-2.6,1.4-4.2,1.3c-1.6-0.2-3-1-4.2-2.4c-0.4-0.5-0.9-1.2-1.3-2c-0.4-0.7-0.8-1.4-1.2-1.8
			c1.2-1.2,2.3-2.3,3.2-3.3c0.1-0.1,0.3-0.1,0.4,0.1c0.2,0.2,0.2,0.4,0.1,0.5c-0.9,1.2-1.4,2.3-1.5,3.2c-0.1,0.9,0.3,1.8,1,2.7
			c0.7,0.8,1.5,1.3,2.4,1.4c0.9,0.1,1.8-0.2,2.6-0.9c0.5-0.4,0.9-1.1,1-1.9c0.1-0.8,0-2.3-0.4-4.3c-0.4-2.5-0.6-4.2-0.3-5.3
			C48.1,227.7,48.6,226.9,49.3,226.2z"/>
		<path fill="#0074BD" d="M46.9,212.9c0.2-0.2,0.4-0.2,0.5,0c0.4,0.5,0.8,1.2,1.2,2c0.4,0.8,0.8,1.4,1.1,1.9
			c0.3,0.5,0.8,1.1,1.3,1.8c0.6,0.7,1,1.4,1.4,1.9c0.1,0.1,0,0.3-0.2,0.4c-0.2,0.1-0.4,0.1-0.5,0c-0.8-0.9-1.4-1.5-1.9-1.7
			c-0.5-0.2-1.1,0-1.9,0.5l-11.5,7.6c-0.6,0.4-0.9,0.7-1.1,1c-0.1,0.3-0.2,0.7,0,1.1c0.1,0.4,0.3,1,0.7,1.8c0.1,0.1,0,0.3-0.2,0.4
			c-0.2,0.1-0.4,0.2-0.5,0c-0.4-0.6-0.8-1.2-1.2-2c-0.4-0.8-0.8-1.4-1.1-1.9c-0.3-0.5-0.8-1.1-1.3-1.8c-0.5-0.7-1-1.4-1.4-1.9
			c-0.1-0.1,0-0.3,0.2-0.4c0.2-0.1,0.4-0.2,0.5,0c0.5,0.6,1,1.1,1.4,1.4c0.4,0.3,0.7,0.4,1,0.4c0.3,0,0.8-0.2,1.3-0.6l11.5-7.6
			c0.6-0.4,0.9-0.7,1.1-1c0.1-0.3,0.2-0.7,0.1-1.1c-0.1-0.4-0.3-1-0.7-1.8C46.7,213.1,46.7,213,46.9,212.9z"/>
		<path fill="#0074BD" d="M28.1,194.2c0.2-0.1,0.4-0.1,0.5,0c0.6,1,1.2,1.7,1.6,1.9c0.5,0.3,1.1,0.2,1.9-0.2l1.6-0.7
			c1.4-0.6,2.3-1.2,2.7-1.6c1,1,2,2.1,2.9,3.3c0.9,1.2,1.6,2.4,2.1,3.4c0.9,2,1.4,4,1.3,5.9c-0.1,1.9-0.7,3.6-1.8,5.2
			c-1.1,1.5-2.5,2.7-4.4,3.6c-1.8,0.8-3.7,1.1-5.6,0.9c-1.9-0.2-3.7-1-5.3-2.2c-1.6-1.2-2.9-2.9-3.8-5c-0.4-0.8-0.7-1.9-1.1-3.4
			c-0.3-1.3-0.6-2.3-0.9-2.9c1.2-0.7,2.6-1.6,4.2-2.7c0.1-0.1,0.3,0,0.4,0.3c0.1,0.2,0.1,0.3-0.1,0.4c-2.6,2.2-3.1,4.9-1.6,8.3
			c1,2.1,2.6,3.5,5,4.1c2.4,0.6,4.8,0.4,7.3-0.8c2.4-1.1,4.2-2.8,5.2-5c1-2.2,1.1-4.3,0.2-6.3c-1.4-3-2.8-4.1-4.3-3.5l-3.5,1.6
			c-0.5,0.2-0.7,0.6-0.7,1.2c0,0.6,0.3,1.8,1,3.7c0.1,0.1,0,0.3-0.3,0.4c-0.2,0.1-0.4,0.1-0.5,0c-0.3-0.6-0.7-1.5-1.2-2.7
			c-0.5-1.1-0.8-2-1.1-2.5c-0.2-0.5-0.6-1.2-1.1-2.1c-0.5-0.9-0.9-1.7-1.1-2.3C27.8,194.5,27.9,194.4,28.1,194.2z"/>
		<path fill="#0074BD" d="M33.2,179.9c0.3-0.1,0.4,0,0.5,0.1c0.2,0.6,0.4,1.4,0.6,2.3c0.2,0.8,0.4,1.6,0.5,2.1
			c0.2,0.6,0.4,1.3,0.7,2.1c0.3,0.9,0.6,1.6,0.7,2.3c0,0.2-0.1,0.3-0.3,0.3c-0.2,0.1-0.4,0-0.4-0.1c-0.5-1.1-0.9-1.8-1.3-2.1
			c-0.4-0.3-1.1-0.4-1.9-0.1L19,190.6c-0.7,0.2-1.1,0.4-1.3,0.7c-0.2,0.2-0.3,0.6-0.4,1.1c0,0.5,0,1.1,0.2,1.9
			c0,0.2-0.1,0.3-0.3,0.3c-0.3,0.1-0.4,0-0.5-0.1c-0.2-0.6-0.4-1.4-0.6-2.3c-0.2-0.8-0.4-1.6-0.5-2.1c-0.2-0.6-0.4-1.3-0.7-2.1
			c-0.3-0.9-0.6-1.6-0.7-2.2c0-0.2,0.1-0.3,0.3-0.3c0.3-0.1,0.4,0,0.5,0.1c0.3,0.8,0.6,1.3,0.9,1.7c0.3,0.4,0.6,0.6,0.9,0.7
			c0.3,0.1,0.8,0,1.5-0.2l13.3-3.9c0.6-0.2,1.1-0.4,1.3-0.6c0.2-0.2,0.3-0.6,0.4-1c0-0.5,0-1.1-0.2-1.9
			C32.9,180.1,33,180,33.2,179.9z"/>
		<path fill="#0074BD" d="M24.9,161.8c1.8,0.2,3.6,0.3,5.5,0.2c0.5,3.7,0.8,6.4,1.1,8c0.2,1.6,0.7,4.2,1.4,7.8
			c0,0.2-0.1,0.3-0.4,0.3c-0.2,0-0.4,0-0.4-0.2c-0.3-1.2-0.7-1.9-1-2.3c-0.4-0.4-1-0.5-1.9-0.3l-13.6,2.2c-0.7,0.1-1.1,0.3-1.4,0.5
			c-0.2,0.2-0.4,0.5-0.5,1c-0.1,0.5-0.1,1.1-0.1,1.9c0,0.2-0.1,0.3-0.4,0.3c-0.3,0-0.4,0-0.4-0.2c-0.1-0.6-0.2-1.4-0.3-2.3
			c-0.1-0.9-0.2-1.6-0.3-2.2s-0.2-1.3-0.4-2.2c-0.2-0.9-0.4-1.6-0.5-2.3c0-0.2,0.1-0.3,0.4-0.3c0.3,0,0.4,0,0.4,0.2
			c0.2,0.8,0.5,1.4,0.7,1.8c0.2,0.4,0.5,0.7,0.8,0.8c0.3,0.1,0.8,0.1,1.5,0l14.1-2.3c1.1-0.2,1.6-0.8,1.4-2l-0.5-2.9
			c-0.2-1.2-0.7-2.2-1.4-2.9c-0.8-0.7-2.1-1.3-3.9-1.9c-0.1,0-0.1-0.1-0.2-0.3c0-0.1,0-0.3,0.1-0.4
			C24.8,161.8,24.8,161.8,24.9,161.8z"/>
		<path fill="#0074BD" d="M24.6,143.5c1.7,0.4,3.5,0.8,5.4,1c-0.1,3.8-0.1,6.4,0,8c0,1.6,0.1,4.2,0.3,7.9c0,0.2-0.1,0.2-0.4,0.2
			c-0.2,0-0.4-0.1-0.4-0.2c-0.2-1.2-0.4-2-0.7-2.4c-0.3-0.4-0.9-0.6-1.8-0.6l-13.8,0.2c-0.7,0-1.2,0.1-1.4,0.3
			c-0.3,0.2-0.5,0.5-0.6,0.9c-0.2,0.4-0.3,1.1-0.4,1.9c0,0.2-0.1,0.2-0.4,0.2c-0.3,0-0.4-0.1-0.4-0.2c0-0.7,0-1.4,0-2.4
			c0-0.9,0.1-1.6,0.1-2.2c0-0.6-0.1-1.3-0.1-2.2c-0.1-0.9-0.1-1.7-0.1-2.3c0-0.2,0.1-0.2,0.4-0.2c0.3,0,0.4,0.1,0.4,0.2
			c0.1,0.8,0.3,1.5,0.4,1.9c0.2,0.4,0.4,0.7,0.7,0.9c0.3,0.2,0.8,0.2,1.5,0.2l14.2-0.2c1.2,0,1.7-0.6,1.7-1.7l0-2.9
			c0-1.2-0.4-2.2-1-3c-0.7-0.8-1.9-1.6-3.6-2.4c-0.1,0-0.1-0.1-0.1-0.3c0-0.1,0-0.2,0.1-0.4C24.4,143.5,24.5,143.5,24.6,143.5z"/>
		<path fill="#0074BD" d="M13.3,118.7c0.3,0,0.4,0.1,0.4,0.3c0,1.2,0.1,2.1,0.3,2.6c0.2,0.5,0.8,0.8,1.7,0.9l9.1,1.4
			c2.6,0.4,4.5,1.3,5.8,2.8c1.3,1.5,1.7,3.3,1.4,5.6c-0.4,2.6-1.4,4.5-3,5.8c-1.6,1.2-3.6,1.7-6,1.3l-9.6-1.4
			c-0.7-0.1-1.2-0.1-1.5,0c-0.3,0.1-0.6,0.4-0.8,0.8c-0.2,0.4-0.5,1-0.7,1.8c0,0.2-0.2,0.2-0.4,0.2c-0.3,0-0.4-0.1-0.4-0.3
			c0.1-0.7,0.2-1.4,0.4-2.3c0.2-0.8,0.3-1.6,0.4-2.2c0.1-0.6,0.2-1.3,0.2-2.2c0.1-0.9,0.2-1.7,0.3-2.3c0-0.2,0.2-0.2,0.4-0.2
			c0.3,0,0.4,0.1,0.4,0.3c0,0.8,0,1.5,0.1,1.9c0.1,0.5,0.3,0.8,0.5,1c0.3,0.2,0.7,0.4,1.4,0.5l9.2,1.4c2.4,0.4,4.2,0.2,5.4-0.6
			c1.2-0.7,2-2.1,2.3-4.2c0.6-3.8-1.6-6.1-6.4-6.8l-8.8-1.3c-0.9-0.1-1.5,0-1.9,0.4c-0.4,0.4-0.7,1.2-1,2.3c0,0.2-0.2,0.2-0.4,0.2
			c-0.3,0-0.4-0.1-0.4-0.3c0.1-0.4,0.2-1,0.3-1.7c0.2-0.7,0.3-1.3,0.4-1.8c0.1-0.5,0.1-1.1,0.2-1.8c0-0.7,0.1-1.3,0.2-1.8
			C12.9,118.7,13.1,118.6,13.3,118.7z"/>
		<path fill="#0074BD" d="M42.1,95.8c0.3,0.1,0.4,0.2,0.3,0.4c-0.2,0.6-0.5,1.4-0.9,2.2c-0.4,0.8-0.7,1.5-0.9,2.1
			c-0.2,0.6-0.4,1.3-0.7,2.1c-0.3,0.9-0.5,1.6-0.7,2.2c-0.1,0.2-0.2,0.2-0.5,0.1c-0.2-0.1-0.3-0.2-0.3-0.4c0.3-1.1,0.4-1.9,0.2-2.4
			c-0.1-0.5-0.5-0.9-1.3-1.2l-0.2-0.1l-13.5-4.4l14.1,12.9c0.1,0.1,0.2,0.3,0.1,0.5c-0.1,0.2-0.2,0.3-0.4,0.3l-18.3,0.3l12.3,5.7
			c0.1,0.1,0.3,0.1,0.4,0.2c0.6,0.2,1.1,0.2,1.6-0.1c0.4-0.3,0.9-1,1.4-2c0.1-0.1,0.2-0.1,0.5-0.1c0.3,0.1,0.3,0.2,0.3,0.4
			c-0.2,0.5-0.5,1.1-0.8,1.9c-0.3,0.8-0.6,1.3-0.8,1.8c-0.2,0.5-0.4,1.1-0.6,1.9c-0.2,0.8-0.4,1.4-0.6,1.8c0,0.1-0.2,0.1-0.5,0
			c-0.2-0.1-0.3-0.2-0.3-0.4c0.3-1.2,0.4-2.1,0.3-2.7c-0.1-0.6-0.6-1-1.4-1.4l-12.4-6.3c-0.2-0.1-0.3-0.1-0.4-0.2
			c-0.6-0.2-1.1-0.2-1.5,0.1c-0.4,0.3-0.9,1-1.5,2.1c0,0.1-0.2,0.1-0.5,0.1c-0.1,0-0.2-0.1-0.2-0.2c-0.1-0.1-0.1-0.2-0.1-0.2
			c0.1-0.3,0.3-0.8,0.6-1.4c0.3-0.5,0.4-0.9,0.5-1.1c0.1-0.3,0.3-0.8,0.4-1.4c0.2-0.6,0.3-1.1,0.5-1.5l17.5-0.2l-13-11.8
			c0.1-0.4,0.3-0.8,0.6-1.4c0.3-0.5,0.4-0.9,0.6-1.2c0.1-0.4,0.3-0.9,0.4-1.4c0.2-0.6,0.3-1.1,0.5-1.5c0.1-0.2,0.2-0.2,0.5-0.1
			c0.3,0.1,0.3,0.2,0.3,0.4c-0.3,1.1-0.4,1.9-0.2,2.4c0.1,0.5,0.5,0.9,1.3,1.2l0.2,0.1l13.2,4.2c0.7,0.2,1.1,0.3,1.5,0.2
			c0.3-0.1,0.6-0.3,0.9-0.6c0.3-0.4,0.7-0.9,1-1.6C41.7,95.7,41.9,95.7,42.1,95.8z"/>
		<path fill="#0074BD" d="M43.1,60c0.2,0.2,0.3,0.3,0.2,0.4c-0.6,1.1-0.9,1.9-0.9,2.4c0,0.5,0.4,1,1.1,1.6l7.4,5.4
			c2.1,1.5,3.4,3.3,3.8,5.1c0.5,1.9,0,3.8-1.4,5.6c-1.5,2.1-3.3,3.4-5.3,3.7c-2,0.4-4-0.2-6-1.6l-7.8-5.7c-0.5-0.4-1-0.6-1.3-0.6
			c-0.3,0-0.7,0.1-1.1,0.3c-0.4,0.3-0.9,0.7-1.4,1.3c-0.1,0.1-0.2,0.1-0.5,0c-0.2-0.2-0.3-0.3-0.2-0.4c0.4-0.5,0.9-1.1,1.4-1.8
			c0.6-0.7,1-1.2,1.4-1.7c0.4-0.5,0.8-1.1,1.2-1.8c0.5-0.8,0.9-1.4,1.3-2c0.1-0.1,0.2-0.1,0.5,0c0.2,0.2,0.3,0.3,0.2,0.4
			c-0.4,0.7-0.7,1.3-0.8,1.8c-0.1,0.4-0.1,0.8,0,1.1c0.1,0.3,0.5,0.7,1,1.1l7.5,5.4c1.9,1.4,3.6,2.1,5.1,2c1.4-0.1,2.8-0.9,4-2.6
			c2.3-3.1,1.4-6.1-2.5-9l-7.2-5.2c-0.7-0.5-1.4-0.7-1.9-0.5c-0.5,0.2-1.2,0.7-2,1.6c-0.1,0.1-0.2,0.1-0.5,0
			c-0.2-0.2-0.3-0.3-0.2-0.4c0.3-0.4,0.6-0.8,1.1-1.4c0.5-0.6,0.9-1.1,1.2-1.4c0.3-0.4,0.6-0.9,1-1.5c0.4-0.6,0.7-1.1,1-1.5
			C42.7,59.9,42.9,59.9,43.1,60z"/>
		<path fill="#0074BD" d="M63.7,40.3c0.2,0.2,0.2,0.3,0.1,0.5c-0.8,0.9-1.3,1.7-1.4,2.2c-0.1,0.5,0.1,1.1,0.7,1.8l11.5,12.9
			c0.1,0.1,0.1,0.3-0.1,0.5c-0.1,0.1-0.3,0.1-0.5,0.1l-22.8-2.2l9.1,10.1c0,0.1,0.1,0.1,0.1,0.2c0.5,0.5,1,0.8,1.6,0.7
			c0.6-0.1,1.3-0.5,2.3-1.2c0.1-0.1,0.3,0,0.4,0.1c0.2,0.2,0.2,0.4,0.1,0.5c-0.4,0.3-0.9,0.8-1.6,1.4c-0.7,0.5-1.1,0.9-1.5,1.2
			c-0.4,0.3-0.8,0.8-1.4,1.4c-0.6,0.6-1,1-1.3,1.3c-0.1,0.1-0.3,0.1-0.5-0.1c-0.2-0.2-0.2-0.3-0.1-0.5c0.8-0.9,1.3-1.7,1.4-2.2
			c0.1-0.5-0.1-1.1-0.7-1.8l-9-10.5l-0.1-0.1c-0.5-0.6-1.1-0.8-1.6-0.7c-0.6,0.1-1.3,0.5-2.4,1.2c-0.1,0.1-0.2,0-0.4-0.2
			c-0.2-0.2-0.2-0.3-0.1-0.5c0.3-0.2,0.6-0.5,1.1-0.9c0.4-0.3,0.8-0.6,1-0.8c0.3-0.2,0.5-0.5,0.8-0.9c0.3-0.4,0.6-0.7,0.9-0.9
			l21.1,1.9l-8.5-9.2c-0.6-0.6-1.1-0.9-1.7-0.8c-0.6,0.1-1.4,0.5-2.4,1.3c-0.1,0.1-0.3,0-0.4-0.1c-0.2-0.2-0.2-0.4-0.1-0.5
			c0.4-0.4,0.9-0.8,1.6-1.4c0.6-0.5,1.1-0.9,1.5-1.2c0.4-0.3,0.8-0.8,1.4-1.4c0.6-0.6,1-1,1.3-1.3C63.4,40,63.6,40.1,63.7,40.3z"/>
		<path fill="#0074BD" d="M86.2,49.1c0.2,0.2,0.2,0.4,0,0.5c-0.5,0.4-1.2,0.8-2,1.2c-0.7,0.4-1.4,0.8-1.9,1.2
			c-0.5,0.3-1.1,0.8-1.8,1.3c-0.7,0.6-1.4,1-1.9,1.4c-0.1,0.1-0.3,0-0.4-0.2c-0.1-0.2-0.1-0.4,0-0.5c0.9-0.8,1.5-1.4,1.6-1.9
			c0.2-0.5,0-1.1-0.5-1.9l-7.7-11.4c-0.4-0.6-0.7-0.9-1-1.1c-0.3-0.1-0.7-0.1-1.1,0c-0.4,0.1-1,0.4-1.8,0.7c-0.1,0.1-0.3,0-0.4-0.2
			c-0.2-0.2-0.2-0.4,0-0.5c0.6-0.4,1.2-0.8,2-1.3c0.7-0.4,1.4-0.8,1.9-1.2c0.5-0.3,1.1-0.8,1.8-1.3c0.7-0.6,1.3-1,1.9-1.4
			c0.1-0.1,0.3,0,0.4,0.2c0.2,0.2,0.2,0.4,0,0.5c-0.6,0.5-1.1,1-1.3,1.4c-0.3,0.4-0.4,0.7-0.4,1c0,0.3,0.2,0.8,0.6,1.3l7.7,11.4
			c0.4,0.6,0.7,0.9,1,1c0.3,0.1,0.7,0.2,1.1,0c0.4-0.1,1-0.3,1.8-0.7C85.9,48.8,86.1,48.9,86.2,49.1z"/>
		<path fill="#0074BD" d="M98.8,20.6c0.1,0.3,0.1,0.5-0.1,0.6c-0.7,0.4-1.2,0.9-1.5,1.4C97,23,96.9,24,96.9,25.3l0.7,18.4
			c0,0.2-0.1,0.3-0.3,0.4c-0.2,0.1-0.3,0.1-0.5-0.1L83.6,31.7c-0.7-0.7-1.3-1.1-1.6-1.3c-0.4-0.2-0.7-0.2-1.2-0.2
			c-0.4,0-1.1,0.2-1.9,0.5c-0.1,0-0.1,0-0.2,0c-0.1,0-0.2-0.1-0.2-0.2c-0.1-0.2-0.1-0.4,0-0.5c0.6-0.3,1.3-0.6,2-0.9
			c0.7-0.3,1.3-0.5,1.9-0.8c0.5-0.3,1.2-0.6,2-1c0.8-0.5,1.5-0.8,2.1-1.1c0.1-0.1,0.3,0,0.4,0.3c0.1,0.2,0.1,0.4,0,0.4
			c-0.8,0.4-1.3,0.8-1.5,1.1c-0.3,0.3-0.3,0.7-0.1,1c0.1,0.2,0.4,0.6,0.9,1l10.4,9.8l-0.9-14c-0.1-0.6-0.2-1-0.3-1.3
			c-0.4-0.9-1.4-1-3-0.3c-0.1,0.1-0.2,0-0.3-0.3c-0.1-0.2-0.1-0.4,0.1-0.5c0.4-0.2,1-0.4,1.7-0.7c0.8-0.3,1.4-0.6,1.9-0.8
			c0.4-0.2,0.9-0.5,1.5-0.8c0.6-0.4,1.1-0.6,1.5-0.8C98.6,20.3,98.7,20.4,98.8,20.6z"/>
		<path fill="#0074BD" d="M123.6,29.2c-0.3,1.8-0.5,3.6-0.5,5.2c-3.6,0.9-6.1,1.6-7.7,2c-1.5,0.4-4,1.2-7.5,2.4
			c-0.2,0-0.3-0.1-0.3-0.3c-0.1-0.2,0-0.4,0.1-0.4c0.8-0.3,1.3-0.6,1.7-0.9c0.4-0.3,0.6-0.6,0.7-0.9c0.1-0.3,0-0.8-0.2-1.5
			l-3.8-13.3c-0.2-0.6-0.4-1.1-0.6-1.3c-0.2-0.2-0.6-0.4-1-0.4c-0.5,0-1.1,0-1.9,0.1c-0.2,0-0.3-0.1-0.3-0.3c-0.1-0.3,0-0.4,0.1-0.5
			c2.4-0.6,4.9-1.2,7.4-1.9c2.5-0.7,4.9-1.5,7.3-2.3c0.6,1.4,1.4,2.7,2.2,4c0.1,0.2-0.1,0.3-0.4,0.4c-0.2,0-0.3,0-0.4-0.1
			c-1.3-2-3.1-2.7-5.4-2l-2.9,0.8c-1.1,0.3-1.5,1-1.2,2.2l1.8,6.3l3.6-1c0.9-0.3,1.5-0.7,1.7-1.2c0.2-0.5,0.2-1.4,0-2.5
			c0-0.2,0.1-0.3,0.3-0.3c0.3-0.1,0.4,0,0.5,0.1c0.1,0.5,0.3,1.1,0.4,1.8c0.1,0.7,0.3,1.3,0.4,1.7c0.1,0.4,0.3,1,0.6,1.7
			c0.3,0.7,0.5,1.3,0.6,1.8c0,0.2-0.1,0.3-0.3,0.3c-0.3,0.1-0.4,0-0.5-0.1c-0.5-1.1-1-1.8-1.4-2.2c-0.5-0.4-1.2-0.4-2.1-0.1l-3.6,1
			l2,6.9c0.3,1.1,1,1.5,2.1,1.2l3.1-0.9c1.1-0.3,2.1-1,3-2.1c0.9-1,1.4-2.2,1.6-3.4c0-0.1,0.1-0.2,0.2-0.2c0.1,0,0.3,0,0.4,0
			C123.5,29,123.6,29.1,123.6,29.2z"/>
		<path fill="#0074BD" d="M145.6,30.9c0,0.3,0,0.4-0.2,0.4c-0.4,0-1,0.1-1.8,0.1c-0.6,0-1,0-1.2,0.1c-0.3,0-0.7,0.1-1.3,0.2
			c-0.6,0.1-1,0.2-1.3,0.2l-5.3-6.7c-0.7-0.9-1.3-1.5-1.7-1.7c-0.4-0.2-1.2-0.3-2.4-0.2l0.7,6.3c0.1,0.7,0.2,1.1,0.4,1.4
			c0.2,0.3,0.5,0.4,1,0.5c0.5,0.1,1.1,0.2,1.9,0.2c0.2,0,0.3,0.1,0.3,0.4c0,0.3,0,0.4-0.2,0.4c-0.7,0.1-1.4,0.1-2.4,0.2
			c-0.9,0-1.6,0.1-2.2,0.2c-0.6,0.1-1.3,0.2-2.2,0.3c-0.9,0.2-1.7,0.3-2.3,0.4c-0.2,0-0.3-0.1-0.3-0.4c0-0.2,0-0.4,0.2-0.4
			c0.8-0.2,1.4-0.4,1.8-0.6c0.4-0.2,0.7-0.5,0.8-0.8c0.1-0.3,0.2-0.8,0.1-1.5l-1.6-13.7c-0.1-0.7-0.2-1.1-0.4-1.4s-0.5-0.4-1-0.6
			c-0.4-0.1-1.1-0.2-1.9-0.2c-0.2,0-0.2-0.1-0.3-0.4c0-0.3,0-0.4,0.2-0.4c0.7-0.1,1.4-0.1,2.3-0.2c0.9,0,1.6-0.1,2.2-0.2
			c0.6-0.1,1.3-0.2,2.2-0.3c0.9-0.2,1.7-0.3,2.3-0.4c2.2-0.3,3.9,0,5.2,0.8c1.3,0.8,2,2,2.2,3.6c0.1,1-0.2,2-0.8,3
			c-0.7,1-1.7,1.8-3,2.4l5.4,6.8c0.5,0.6,1,1,1.7,1.2c0.7,0.2,1.5,0.3,2.5,0.4C145.5,30.5,145.6,30.7,145.6,30.9z M136.5,17.2
			c-0.3-2.8-1.7-4.1-4.2-3.8c-0.8,0.1-1.4,0.2-1.8,0.4c-0.4,0.2-0.7,0.4-0.8,0.7c-0.1,0.3-0.1,0.8,0,1.5l0.8,6.5
			c0.6,0,1.3,0,2.2-0.1c1.6-0.2,2.7-0.7,3.3-1.5C136.4,20,136.7,18.8,136.5,17.2z"/>
		<path fill="#0074BD" d="M159.3,26.1c-0.1,1.9-0.7,3.5-1.9,4.6c-1.2,1.1-2.8,1.6-4.8,1.6c-0.9,0-1.9-0.2-3.1-0.6
			c-1.1-0.3-2-0.5-2.7-0.5c0-1.7-0.1-3.3-0.2-5c0-0.2,0.2-0.2,0.4-0.2c0.2,0,0.3,0.1,0.4,0.2c0.5,1.8,1.1,3.1,1.9,3.9
			c0.8,0.8,2,1.2,3.4,1.2c1.2,0,2.1-0.3,2.8-0.9c0.7-0.7,1-1.6,1.1-2.8c0-0.8-0.2-1.5-0.8-2.2c-0.5-0.7-1.7-1.6-3.6-2.7
			c-2.1-1.3-3.5-2.4-4.1-3.2c-0.6-0.9-0.9-1.8-0.9-2.9c0-1.6,0.7-2.9,1.9-4c1.2-1.1,2.7-1.6,4.6-1.5c0.7,0,1.5,0.1,2.4,0.3
			c0.8,0.2,1.6,0.3,2.2,0.3c0.1,1.7,0.2,3.2,0.3,4.6c0,0.2-0.1,0.2-0.4,0.2c-0.3,0-0.4-0.1-0.4-0.2c-0.3-1.5-0.7-2.5-1.4-3.2
			c-0.6-0.7-1.5-1-2.7-1c-1.1,0-2,0.3-2.7,0.9c-0.7,0.6-1,1.5-1.1,2.6c0,0.7,0.2,1.4,0.8,2c0.5,0.6,1.7,1.5,3.5,2.6
			c2.1,1.3,3.5,2.4,4.1,3.3C159,24.1,159.3,25.1,159.3,26.1z"/>
		<path fill="#0074BD" d="M170.8,33.2c0,0.3-0.1,0.4-0.3,0.4c-0.7-0.1-1.4-0.2-2.3-0.4c-0.8-0.2-1.6-0.3-2.2-0.4
			c-0.6-0.1-1.3-0.2-2.2-0.2c-0.9-0.1-1.7-0.2-2.4-0.3c-0.2,0-0.2-0.2-0.2-0.4c0-0.2,0.1-0.4,0.3-0.4c1.2,0,2-0.1,2.5-0.3
			c0.5-0.2,0.8-0.8,0.9-1.7l2-13.7c0.1-0.7,0.1-1.2,0-1.5c-0.1-0.3-0.4-0.6-0.8-0.8c-0.4-0.2-1-0.4-1.8-0.7c-0.2,0-0.2-0.2-0.2-0.4
			c0-0.3,0.1-0.4,0.3-0.4c0.7,0.1,1.4,0.2,2.3,0.4c0.8,0.2,1.6,0.3,2.2,0.4c0.6,0.1,1.3,0.2,2.2,0.2c0.9,0.1,1.7,0.2,2.3,0.3
			c0.2,0,0.2,0.2,0.2,0.4c0,0.3-0.1,0.4-0.3,0.4c-0.8,0-1.5,0-1.9,0.1c-0.5,0.1-0.8,0.3-1,0.5c-0.2,0.2-0.4,0.7-0.5,1.4l-2,13.7
			c-0.1,0.7-0.1,1.2,0,1.5c0.1,0.3,0.4,0.6,0.8,0.8c0.4,0.2,1,0.4,1.8,0.7C170.8,32.8,170.8,33,170.8,33.2z"/>
		<path fill="#0074BD" d="M196.3,24.4c-0.1,0.2-0.2,0.2-0.6,0.1c-0.2,0-0.2-0.1-0.2-0.3c0-1.4-0.3-2.5-0.9-3.3
			c-0.6-0.8-1.6-1.4-3.1-1.8l-1.3-0.4c-0.5-0.1-0.8-0.2-1-0.1c-0.2,0.1-0.4,0.4-0.5,0.8l-4.2,14.3c-0.2,0.6-0.2,1.1-0.2,1.4
			c0.1,0.3,0.3,0.6,0.7,0.9c0.4,0.3,0.9,0.6,1.7,0.9c0.1,0.1,0.2,0.2,0.1,0.4c-0.1,0.3-0.2,0.4-0.3,0.3c-0.6-0.2-1.4-0.4-2.2-0.7
			c-0.8-0.3-1.5-0.5-2.1-0.7c-0.6-0.2-1.3-0.3-2.2-0.5c-0.9-0.2-1.7-0.4-2.3-0.6c-0.2,0-0.2-0.2-0.1-0.5c0.1-0.2,0.2-0.3,0.3-0.3
			c1.2,0.2,2,0.2,2.5,0c0.5-0.2,0.9-0.7,1.1-1.6l4.2-14.3c0.1-0.4,0.1-0.7,0-0.9c-0.1-0.2-0.4-0.4-0.9-0.5l-1.1-0.3
			c-1.3-0.4-2.6-0.4-3.9,0c-1.3,0.4-2.2,1-2.9,2c-0.1,0.1-0.2,0.2-0.4,0.1c-0.3-0.1-0.5-0.2-0.4-0.4c0.9-1.3,1.9-2.7,2.9-4.4
			c1.2,0.6,4.1,1.6,8.7,3c4.7,1.4,7.7,2.1,9.1,2.2C196.7,20.6,196.5,22.3,196.3,24.4z"/>
		<path fill="#0074BD" d="M209.5,47.3c-0.1,0.2-0.2,0.3-0.4,0.3c-0.6-0.3-1.3-0.6-2-1.1c-0.6-0.4-1.2-0.7-1.7-0.9
			c-0.5-0.3-1.2-0.5-2.1-0.9c-0.9-0.3-1.6-0.7-2.2-0.9c-0.1-0.1-0.2-0.2,0-0.5c0.1-0.2,0.2-0.3,0.3-0.3c0.8,0.3,1.4,0.5,1.9,0.5
			c0.4,0,0.7-0.2,0.9-0.6c0.1-0.2,0.2-0.6,0.3-1.2l0.6-5.2l-5.5-2.6l-3.5,3.4c-0.5,0.5-0.8,0.8-0.9,1.1c-0.4,0.8,0.2,1.5,1.6,2.3
			c0.1,0.1,0.1,0.2,0,0.4c-0.1,0.2-0.2,0.3-0.4,0.3c-0.5-0.3-1.1-0.6-1.7-0.9c-0.6-0.3-1.1-0.6-1.6-0.9c-0.4-0.2-0.9-0.4-1.5-0.6
			c-0.6-0.2-1.2-0.4-1.6-0.6c-0.1-0.1-0.1-0.2,0-0.4c0.1-0.2,0.3-0.3,0.5-0.3c0.8,0.3,1.5,0.3,2,0.2c0.6-0.1,1.4-0.6,2.3-1.4
			l13.4-12.3c0.1-0.1,0.3-0.1,0.5,0c0.2,0.1,0.3,0.2,0.3,0.4l-1.7,17.9c-0.1,1,0,1.8,0.4,2.5c0.3,0.7,0.9,1.2,1.8,1.8
			C209.6,46.9,209.6,47.1,209.5,47.3z M205.1,35.6l0.8-7.9l-5.7,5.6L205.1,35.6z"/>
		<path fill="#0074BD" d="M232.9,45c-0.1,0.2-0.3,0.1-0.6-0.1c-0.1-0.1-0.2-0.2-0.1-0.3c0.4-1.4,0.5-2.5,0.1-3.4
			c-0.3-0.9-1.1-1.8-2.4-2.7l-1.2-0.8c-0.4-0.3-0.7-0.4-1-0.4c-0.2,0-0.5,0.2-0.7,0.6l-8.3,12.4c-0.4,0.6-0.6,1-0.6,1.3
			c0,0.3,0.1,0.7,0.4,1.1c0.3,0.4,0.7,0.8,1.3,1.4c0.1,0.1,0.1,0.3,0,0.5c-0.2,0.2-0.3,0.3-0.4,0.2c-0.5-0.4-1.2-0.8-1.9-1.4
			c-0.7-0.5-1.3-1-1.8-1.3c-0.5-0.3-1.1-0.7-1.9-1.2c-0.8-0.5-1.5-0.9-2-1.2c-0.1-0.1-0.1-0.2,0-0.5c0.1-0.2,0.3-0.3,0.4-0.2
			c1.1,0.5,1.9,0.8,2.4,0.8c0.5,0,1-0.4,1.5-1.2l8.3-12.4c0.2-0.4,0.3-0.7,0.3-0.9c-0.1-0.2-0.3-0.5-0.7-0.8l-1-0.6
			c-1.2-0.8-2.4-1.2-3.7-1.2c-1.3,0-2.4,0.3-3.4,1c-0.1,0.1-0.3,0.1-0.4,0c-0.3-0.2-0.4-0.4-0.2-0.5c1.3-0.9,2.6-2,4.1-3.3
			c1,1,3.4,2.8,7.4,5.4c4.1,2.7,6.7,4.4,8,4.9C234.3,41.4,233.6,43,232.9,45z"/>
		<path fill="#0074BD" d="M232.2,64.9c-0.2,0.2-0.3,0.3-0.4,0.2c-0.5-0.4-1.1-1-1.7-1.6c-0.6-0.6-1.1-1.1-1.6-1.5
			c-0.4-0.4-1-0.9-1.7-1.4c-0.7-0.6-1.3-1.1-1.8-1.5c-0.1-0.1-0.1-0.3,0.1-0.5c0.2-0.2,0.3-0.2,0.4-0.1c1,0.7,1.7,1.1,2.3,1.1
			c0.5,0.1,1.1-0.3,1.7-0.9l9.2-10.3c0.5-0.5,0.7-0.9,0.8-1.3c0.1-0.3,0-0.7-0.2-1.1c-0.2-0.4-0.6-0.9-1.2-1.6
			c-0.1-0.1-0.1-0.3,0.1-0.5c0.2-0.2,0.3-0.3,0.4-0.1c0.5,0.4,1.1,1,1.7,1.6c0.6,0.6,1.1,1.1,1.6,1.5c0.4,0.4,1,0.9,1.7,1.4
			c0.7,0.6,1.3,1.1,1.8,1.5c0.1,0.1,0.1,0.3-0.1,0.5c-0.2,0.2-0.3,0.2-0.4,0.1c-0.7-0.5-1.2-0.8-1.7-1c-0.4-0.2-0.8-0.2-1.1-0.1
			c-0.3,0.1-0.7,0.4-1.2,0.9l-9.2,10.3c-0.4,0.5-0.7,0.9-0.8,1.2c-0.1,0.3,0,0.7,0.2,1.1c0.2,0.4,0.6,0.9,1.1,1.5
			C232.4,64.6,232.4,64.7,232.2,64.9z"/>
		<path fill="#0074BD" d="M246.6,72.3c-1.4,1.3-3,1.9-4.6,1.8c-1.6-0.1-3.1-0.9-4.4-2.3c-0.6-0.6-1.2-1.5-1.8-2.6
			c-0.5-1-1-1.8-1.5-2.3c1.2-1.2,2.3-2.4,3.5-3.6c0.1-0.1,0.3,0,0.5,0.2c0.1,0.2,0.2,0.3,0.1,0.4c-1,1.6-1.5,3-1.5,4.1
			c0,1.1,0.5,2.2,1.5,3.3c0.8,0.9,1.7,1.3,2.6,1.4c0.9,0,1.9-0.4,2.8-1.2c0.6-0.5,0.9-1.2,1.1-2.1c0.1-0.9,0-2.4-0.5-4.5
			c-0.5-2.4-0.7-4.1-0.5-5.2c0.2-1.1,0.7-1.9,1.4-2.6c1.2-1.1,2.6-1.5,4.2-1.4c1.6,0.1,3,0.9,4.2,2.2c0.5,0.5,0.9,1.2,1.4,1.9
			c0.4,0.7,0.9,1.3,1.3,1.8c-1.2,1.2-2.2,2.4-3.1,3.4c-0.1,0.1-0.3,0.1-0.4-0.1c-0.2-0.2-0.2-0.4-0.1-0.5c0.9-1.2,1.3-2.3,1.4-3.2
			c0-0.9-0.3-1.8-1.1-2.7c-0.7-0.8-1.6-1.3-2.5-1.3c-0.9-0.1-1.8,0.3-2.6,1c-0.5,0.5-0.8,1.1-0.9,1.9c-0.1,0.8,0.1,2.3,0.5,4.3
			c0.5,2.4,0.7,4.2,0.5,5.3C247.8,70.7,247.3,71.6,246.6,72.3z"/>
		<path fill="#0074BD" d="M270.2,90.8c-0.2,0.1-0.3,0-0.5-0.3c-0.1-0.1-0.1-0.3,0-0.4c1-1.1,1.5-2.1,1.6-3.1c0.1-1-0.3-2.1-1.1-3.4
			l-0.7-1.2c-0.2-0.4-0.5-0.7-0.7-0.7c-0.2-0.1-0.5,0-0.9,0.2l-12.8,7.6c-0.6,0.3-0.9,0.7-1.1,1c-0.2,0.3-0.2,0.7-0.1,1.1
			c0.1,0.5,0.3,1.1,0.6,1.8c0.1,0.1,0,0.3-0.2,0.4c-0.2,0.1-0.4,0.1-0.5,0c-0.3-0.6-0.7-1.3-1.1-2.1c-0.4-0.8-0.7-1.4-1-1.9
			c-0.3-0.5-0.7-1.1-1.2-1.9c-0.5-0.8-0.9-1.4-1.3-2c-0.1-0.1,0-0.3,0.2-0.4c0.2-0.1,0.4-0.1,0.5,0c0.7,0.9,1.3,1.5,1.8,1.7
			c0.5,0.2,1.1,0.1,1.9-0.4l12.8-7.6c0.4-0.2,0.6-0.4,0.6-0.7c0-0.2-0.1-0.6-0.3-1l-0.6-1c-0.7-1.2-1.7-2.1-2.8-2.7
			c-1.2-0.6-2.3-0.8-3.5-0.5c-0.2,0-0.3,0-0.4-0.2c-0.2-0.3-0.2-0.5,0-0.6c1.5-0.3,3.3-0.7,5.1-1.2c0.5,1.3,1.9,4,4.4,8.1
			c2.5,4.2,4.2,6.8,5.2,7.8C273.1,88.2,271.8,89.3,270.2,90.8z"/>
		<path fill="#0074BD" d="M283.2,112.2c-0.3,0.1-0.4,0.1-0.5-0.1c-0.6-1.1-1.1-1.8-1.5-2.1c-0.4-0.3-1.1-0.3-1.9,0l-8.6,3.2
			c-2.4,0.9-4.6,1-6.4,0.4c-1.8-0.7-3.1-2.1-4-4.2c-0.9-2.5-1-4.6-0.2-6.5c0.8-1.9,2.4-3.2,4.6-4.1l9.1-3.4c0.6-0.2,1.1-0.5,1.3-0.7
			c0.2-0.2,0.3-0.6,0.3-1.1c0-0.5-0.1-1.1-0.3-1.9c-0.1-0.1,0-0.3,0.3-0.4c0.3-0.1,0.4-0.1,0.5,0.1c0.2,0.6,0.5,1.4,0.7,2.2
			c0.2,0.8,0.5,1.5,0.7,2.1c0.2,0.6,0.5,1.2,0.9,2c0.4,0.8,0.7,1.6,0.9,2.2c0.1,0.1,0,0.3-0.3,0.4c-0.3,0.1-0.4,0.1-0.5-0.1
			c-0.4-0.7-0.7-1.3-1-1.6c-0.3-0.3-0.6-0.6-0.9-0.6c-0.3-0.1-0.8,0-1.4,0.3l-8.7,3.2c-2.3,0.8-3.8,1.9-4.5,3.1
			c-0.7,1.2-0.7,2.8,0,4.8c1.4,3.6,4.3,4.6,8.9,2.9l8.3-3.1c0.9-0.3,1.3-0.7,1.5-1.3c0.1-0.5,0.1-1.4-0.2-2.5
			c-0.1-0.1,0-0.3,0.3-0.4c0.3-0.1,0.4-0.1,0.5,0.1c0.2,0.4,0.3,1,0.5,1.7c0.2,0.7,0.4,1.3,0.6,1.8c0.2,0.4,0.4,1,0.7,1.6
			c0.3,0.7,0.5,1.2,0.7,1.7C283.6,112,283.5,112.1,283.2,112.2z"/>
		<path fill="#0074BD" d="M283,132.7c-0.2,0-0.3-0.1-0.4-0.5c0-0.2,0-0.3,0.1-0.3c1-0.6,1.8-1.3,2.2-2.2c0.4-0.9,0.5-2,0.3-3.2
			l-0.5-2.6c-0.2-1.1-0.9-1.6-2.1-1.4l-6.4,1.2l0.6,3.3c0.2,1,0.5,1.6,1,1.8c0.5,0.3,1.3,0.4,2.5,0.3c0.2,0,0.3,0.1,0.3,0.3
			c0.1,0.3,0,0.4-0.2,0.4c-0.5,0.1-1.1,0.2-1.8,0.3c-0.7,0.1-1.3,0.2-1.7,0.2c-0.5,0.1-1,0.2-1.7,0.4c-0.7,0.2-1.3,0.3-1.8,0.4
			c-0.2,0-0.3-0.1-0.3-0.4c0-0.3,0-0.4,0.2-0.4c1.1-0.4,1.9-0.8,2.3-1.2c0.4-0.5,0.5-1.1,0.3-2.1l-0.6-3.3l-6.7,1.3
			c-0.7,0.1-1.1,0.3-1.4,0.5c-0.2,0.2-0.4,0.6-0.5,1c-0.1,0.5-0.1,1.1,0,1.9c0,0.2-0.1,0.3-0.3,0.3c-0.3,0.1-0.4,0-0.4-0.2
			c-0.1-0.6-0.2-1.4-0.4-2.3c-0.1-0.9-0.2-1.6-0.3-2.2c-0.1-0.6-0.3-1.3-0.5-2.1c-0.2-0.9-0.4-1.6-0.5-2.3c0-0.2,0.1-0.3,0.4-0.3
			c0.2,0,0.4,0,0.4,0.2c0.2,0.8,0.5,1.4,0.7,1.8c0.2,0.4,0.5,0.7,0.8,0.8c0.3,0.1,0.8,0.1,1.5,0l13.6-2.6c0.7-0.1,1.1-0.3,1.4-0.5
			c0.2-0.2,0.4-0.5,0.5-1c0.1-0.5,0.1-1.1,0-1.9c0-0.2,0.1-0.3,0.4-0.3c0.3-0.1,0.4,0,0.4,0.2c0.3,2.5,0.8,5,1.3,7.5
			c0.5,2.4,1,4.8,1.6,7.2C285.6,131.4,284.2,132.1,283,132.7z"/>
		<path fill="#0074BD" d="M283.8,155.8c-0.2,0-0.3-0.2-0.3-0.5c0-0.2,0.1-0.3,0.2-0.3c1.4-0.5,2.3-1.1,2.9-1.9
			c0.5-0.8,0.8-2,0.7-3.5l0-1.4c0-0.5-0.1-0.8-0.3-1c-0.2-0.2-0.5-0.2-0.9-0.2l-14.9,0.5c-0.7,0-1.1,0.1-1.4,0.3
			c-0.3,0.2-0.5,0.5-0.6,0.9c-0.1,0.4-0.3,1.1-0.3,1.9c0,0.2-0.1,0.2-0.4,0.2c-0.3,0-0.4-0.1-0.4-0.2c0-0.7,0-1.4,0-2.4
			c0-0.9,0-1.6,0-2.2c0-0.6-0.1-1.3-0.2-2.2c-0.1-0.9-0.1-1.7-0.2-2.4c0-0.2,0.1-0.2,0.4-0.3c0.2,0,0.4,0.1,0.4,0.2
			c0.2,1.2,0.4,2,0.7,2.4c0.3,0.4,0.9,0.6,1.8,0.6L286,144c0.4,0,0.7-0.1,0.9-0.3c0.2-0.2,0.2-0.5,0.2-1l0-1.1
			c0-1.4-0.4-2.6-1.2-3.7c-0.7-1.1-1.7-1.8-2.8-2.1c-0.1,0-0.2-0.1-0.2-0.3c0-0.3,0.1-0.5,0.3-0.5c1.5,0.5,3.2,1,5.1,1.4
			c-0.2,1.3-0.3,4.4-0.1,9.2c0.2,4.9,0.4,8,0.7,9.3C287.6,155,285.9,155.3,283.8,155.8z"/>
		<path fill="#0074BD" d="M270.7,174.9c-1.6-1-3.1-1.8-4.6-2.5c0.6-3.7,1-6.3,1.2-7.8c0.2-1.5,0.5-4.2,0.8-7.9
			c0-0.2,0.2-0.2,0.4-0.2c0.2,0,0.4,0.1,0.4,0.3c0,0.8,0,1.5,0.2,1.9c0.1,0.4,0.3,0.8,0.5,1c0.3,0.2,0.7,0.3,1.4,0.4l13.7,1.7
			c0.7,0.1,1.2,0.1,1.4-0.1c0.3-0.1,0.6-0.4,0.8-0.8c0.2-0.4,0.4-1,0.6-1.8c0-0.2,0.2-0.2,0.4-0.2c0.3,0,0.4,0.1,0.4,0.3
			c-0.4,2.4-0.8,5-1.1,7.5c-0.3,2.6-0.6,5.1-0.8,7.6c-1.5,0-3.1,0.2-4.6,0.4c-0.2,0-0.3-0.2-0.2-0.5c0-0.2,0.1-0.3,0.2-0.3
			c2.4-0.4,3.7-1.8,4-4.2l0.4-3c0.1-1.1-0.4-1.8-1.5-1.9l-6.5-0.8l-0.5,3.7c-0.1,1,0,1.7,0.4,2.1c0.4,0.4,1.2,0.7,2.3,1
			c0.2,0,0.2,0.2,0.2,0.4c0,0.3-0.1,0.4-0.3,0.4c-0.5-0.1-1.1-0.2-1.8-0.3c-0.7-0.1-1.3-0.2-1.7-0.3c-0.5-0.1-1-0.1-1.8-0.1
			c-0.8,0-1.4-0.1-1.9-0.1c-0.2,0-0.2-0.2-0.2-0.4c0-0.3,0.1-0.4,0.3-0.4c1.2,0,2.1-0.2,2.6-0.5c0.5-0.3,0.8-0.9,1-1.9l0.5-3.7
			l-7.2-0.9c-1.1-0.1-1.8,0.4-1.9,1.5l-0.4,3.2c-0.1,1.2,0.1,2.4,0.7,3.6c0.6,1.2,1.4,2.2,2.5,2.9c0.1,0,0.1,0.1,0.1,0.3
			c0,0.1-0.1,0.3-0.2,0.4C270.9,174.9,270.8,174.9,270.7,174.9z"/>
		<path fill="#0074BD" d="M277.8,204c-0.2-0.1-0.3-0.2-0.3-0.3c0.2-1.2,0.3-2.1,0.1-2.6c-0.2-0.5-0.7-0.9-1.5-1.2l-16.4-5.5
			c-0.2-0.1-0.2-0.2-0.2-0.4c0-0.1,0.2-0.2,0.4-0.4l20.9-9.4l-12.9-4.3c-0.1,0-0.1-0.1-0.2-0.1c-0.7-0.2-1.3-0.2-1.7,0.2
			c-0.4,0.4-0.9,1.1-1.4,2.2c-0.1,0.1-0.2,0.2-0.4,0.1c-0.3-0.1-0.4-0.2-0.3-0.3c0.2-0.5,0.4-1.1,0.7-2c0.3-0.8,0.5-1.4,0.7-1.8
			c0.1-0.5,0.3-1.1,0.5-1.9c0.2-0.8,0.3-1.4,0.5-1.8c0-0.2,0.2-0.2,0.5-0.1c0.2,0.1,0.3,0.2,0.3,0.4c-0.2,1.2-0.3,2.1-0.1,2.6
			c0.2,0.5,0.7,0.9,1.5,1.2l13,4.6l0.1,0c0.8,0.2,1.4,0.2,1.8-0.2c0.4-0.3,0.9-1.1,1.4-2.2c0-0.1,0.2-0.2,0.4-0.1
			c0.3,0.1,0.4,0.2,0.3,0.3c-0.1,0.3-0.3,0.8-0.5,1.4c-0.2,0.5-0.4,0.9-0.5,1.2c-0.1,0.3-0.2,0.7-0.3,1.2c-0.1,0.5-0.2,0.9-0.3,1.2
			l-19.3,8.8l11.9,3.8c0.8,0.3,1.4,0.2,1.9-0.2c0.5-0.4,1-1.1,1.5-2.3c0.1-0.1,0.2-0.2,0.4-0.1c0.3,0.1,0.4,0.2,0.3,0.3
			c-0.2,0.5-0.4,1.2-0.7,2c-0.3,0.8-0.5,1.4-0.7,1.8c-0.1,0.5-0.3,1.1-0.5,1.9c-0.2,0.8-0.3,1.4-0.5,1.8
			C278.2,204,278.1,204.1,277.8,204z"/>
		<path fill="#0074BD" d="M257.6,212.2c-1.7-0.9-2.9-2.1-3.4-3.7c-0.5-1.6-0.3-3.2,0.6-5c0.4-0.8,1-1.6,1.8-2.6
			c0.8-0.9,1.3-1.6,1.6-2.2c1.5,0.7,3,1.3,4.6,1.9c0.1,0.1,0.1,0.2,0,0.5c-0.1,0.2-0.2,0.3-0.4,0.2c-1.9-0.3-3.3-0.3-4.3,0.1
			c-1,0.4-1.9,1.3-2.6,2.6c-0.5,1.1-0.6,2-0.3,2.9c0.3,0.9,1,1.6,2.1,2.2c0.7,0.4,1.5,0.4,2.4,0.2c0.9-0.2,2.2-0.9,4-2.1
			c2.1-1.3,3.6-2.1,4.7-2.3c1.1-0.2,2-0.1,3,0.4c1.4,0.7,2.4,1.9,2.8,3.4c0.4,1.6,0.3,3.1-0.6,4.8c-0.3,0.6-0.8,1.3-1.3,2
			c-0.5,0.7-0.9,1.3-1.2,1.8c-1.6-0.7-3-1.2-4.3-1.6c-0.1-0.1-0.2-0.2,0-0.4c0.1-0.2,0.3-0.3,0.4-0.3c1.5,0.4,2.6,0.4,3.5,0.1
			c0.9-0.3,1.6-1,2.1-2c0.5-1,0.6-1.9,0.3-2.8c-0.3-0.9-0.9-1.6-1.9-2.1c-0.6-0.3-1.3-0.4-2.1-0.2c-0.8,0.2-2.1,0.9-3.9,2
			c-2.1,1.4-3.7,2.1-4.7,2.4C259.5,212.8,258.5,212.7,257.6,212.2z"/>
		<path fill="#0074BD" d="M246.2,219.6c-0.2-0.2-0.3-0.3-0.2-0.4c0.4-0.5,0.8-1.2,1.4-1.9c0.5-0.7,1-1.3,1.3-1.8
			c0.3-0.5,0.7-1.1,1.1-1.9c0.5-0.8,0.9-1.5,1.2-2c0.1-0.1,0.2-0.1,0.5,0c0.2,0.1,0.3,0.3,0.2,0.4c-0.5,1.1-0.8,1.9-0.8,2.4
			c0,0.5,0.4,1,1.2,1.5l11.5,7.6c0.6,0.4,1,0.6,1.3,0.6c0.3,0,0.7-0.1,1.1-0.4c0.4-0.3,0.8-0.7,1.4-1.4c0.1-0.1,0.2-0.1,0.5,0
			c0.2,0.1,0.3,0.3,0.2,0.4c-0.4,0.6-0.8,1.2-1.4,1.9c-0.5,0.7-1,1.3-1.3,1.8c-0.3,0.5-0.7,1.1-1.1,1.9c-0.4,0.8-0.9,1.5-1.2,2
			c-0.1,0.1-0.2,0.1-0.5,0c-0.2-0.1-0.3-0.3-0.2-0.4c0.4-0.7,0.6-1.3,0.7-1.8c0.1-0.5,0.1-0.8-0.1-1.1c-0.1-0.3-0.5-0.6-1.1-1
			l-11.5-7.6c-0.6-0.4-1-0.6-1.3-0.6c-0.3,0-0.7,0.1-1,0.4c-0.4,0.3-0.8,0.7-1.4,1.4C246.6,219.8,246.4,219.8,246.2,219.6z"/>
		<path fill="#0074BD" d="M240.9,234.9c-1.5-1.2-2.3-2.7-2.4-4.3c-0.1-1.6,0.4-3.2,1.7-4.7c0.6-0.7,1.4-1.4,2.4-2.1
			c0.9-0.7,1.6-1.3,2.1-1.8c1.3,1,2.7,2,4.1,2.9c0.1,0.1,0.1,0.3-0.1,0.5c-0.1,0.2-0.3,0.2-0.4,0.1c-1.7-0.8-3.2-1.1-4.3-0.9
			c-1.1,0.2-2.1,0.8-3.1,2c-0.8,0.9-1.1,1.8-1,2.8c0.1,0.9,0.6,1.8,1.6,2.6c0.6,0.5,1.4,0.8,2.2,0.8c0.9,0,2.3-0.4,4.4-1.1
			c2.3-0.9,4-1.3,5.1-1.2c1.1,0,2,0.4,2.8,1.1c1.2,1,1.9,2.3,2,4s-0.5,3.1-1.6,4.5c-0.4,0.5-1,1.1-1.7,1.6c-0.7,0.5-1.2,1-1.6,1.5
			c-1.4-1-2.7-1.9-3.8-2.5c-0.1-0.1-0.1-0.2,0.1-0.4c0.2-0.2,0.3-0.3,0.5-0.2c1.3,0.7,2.5,1,3.4,0.9c0.9-0.1,1.7-0.6,2.5-1.5
			c0.7-0.8,1-1.7,0.9-2.6c-0.1-0.9-0.5-1.7-1.4-2.4c-0.5-0.4-1.2-0.7-2.1-0.6c-0.8,0-2.2,0.4-4.2,1.1c-2.3,0.9-4.1,1.3-5.1,1.2
			C242.6,235.9,241.7,235.5,240.9,234.9z"/>
	</g>
</g>
</svg>
