<svg xmlns="http://www.w3.org/2000/svg" height="108.88" viewBox="0 0 254.2325 108.87875" width="254.23"><g transform="matrix(1.25 0 0 -1.25 161.55 828.38)"><path d="m164.3 1.1055c-31.12 0-54.02 23.49-54.02 53.442v0.29c0 30.686 23.63 53.142 52.99 53.142 22.62 0 35.68-9.833 45.37-23.191l-21.43-15.269c-6.17 7.488-12.48 12.48-23.2 12.48-14.39 0-24.52-12.041-24.52-27.453v-0.293c0-14.978 10.13-27.313 24.52-27.313 9.83 0 16.59 4.847 22.46 12.043l21.44-16.589c-9.11-12.48-22.61-21.29-43.61-21.29zm60.35 2.0527v102.77h28.48v-102.77l-28.48-0.0018zm-223.76 0.002v57.697c0 32.153 18.353 46.983 47.419 46.983 29.217 0 48.157-14.683 48.157-47.717v-56.963l-28.778 0.0002v57.844c0 14.389-7.485 21.142-19.084 21.142-11.452 0-18.941-7.045-18.941-21.876v-57.11l-28.773 0.0002z" transform="matrix(.8 0 0 -.8 -129.24 662.7)" fill="#0064a4"/></g></svg>
