<svg xmlns="http://www.w3.org/2000/svg" height="249.99" viewBox="0 0 250 249.99493" width="250"><g transform="matrix(1.25 0 0 -1.25 -1063.6 277.87)"><g style=""><path d="m950.79 221.43c-54.701 0-99.198-44.501-99.198-99.198 0-54.701 44.497-99.198 99.198-99.198s99.202 44.497 99.202 99.198c0 54.697-44.501 99.198-99.202 99.198" fill="#000e2f"/><path d="m950.79 24.902c-53.663 0-97.324 43.659-97.324 97.326 0 53.665 43.661 97.324 97.324 97.324 53.667 0 97.323-43.659 97.323-97.324 0-53.667-43.657-97.326-97.323-97.326" fill="#fff"/><path d="m950.79 216.72c-52.189 0-94.494-42.307-94.494-94.496 0-52.187 42.305-94.496 94.494-94.496s94.496 42.309 94.496 94.496c0 52.189-42.307 94.496-94.496 94.496" fill="#000e2f"/><path d="m120.29 16.211l-14.28 1.523 0.09 0.889c2.33-0.081 2.35 0.063 2.81 4.104l1.02 9.621c0.22 2.234 0.2 2.403 0.18 2.716-0.07 0.942-0.64 1.169-2.1 1.465l0.1 0.891c1.33-0.17 2.64-0.365 3.98-0.512 1.28-0.134 2.6-0.216 3.88-0.322l-0.09-0.897c-1.46 0.046-2.2 0.035-2.62-0.734-0.31-0.531-0.56-2.874-0.65-3.767l-0.43-3.959 2.1-0.221c2.51-0.185 3.14 0.168 3.97 2.957l0.7-0.072c-0.18-1.223-0.31-2.139-0.43-3.338-0.13-1.116-0.27-2.936-0.4-4.416l-0.69 0.074c-0.35 3.34-0.98 3.432-4 3.756l-1.37 0.142-0.85-8.031 3.48-0.371c3.58-0.352 3.98 0.024 7.83 3.539l0.49-0.447c-1.33-2.116-1.61-2.594-2.72-4.59zm22.16 1.203c-4.53 0.115-8.76 3.258-9.71 8.873-1.02 6.116 2.72 10.778 8.19 11.699 3.65 0.613 6.61-0.566 9.03-3.316l-0.72-0.631c-1.15 1.167-3.29 3.34-6.94 2.725-4.94-0.833-6.84-6.154-6.03-10.994 0.96-5.668 5.01-7.775 8.41-7.204 1.99 0.334 3.86 1.586 4.93 3.985 0.57 1.207 0.7 2.109 0.85 3.129l0.58 0.039 0.89-5.793-1.61 0.953c-0.99-1.048-2.69-2.784-5.92-3.328-0.65-0.109-1.3-0.153-1.95-0.137zm-47.854 3.383c-1.325-0.056-2.67 0.148-3.963 0.617-4.691 1.716-7.961 6.863-6 12.832 1.9 5.784 7.698 8.422 12.918 6.709 4.659-1.531 8.369-6.614 6.299-12.902-1.51-4.597-5.281-7.089-9.254-7.256zm-1.897 1.035c3.889-0.161 6.829 4.111 7.831 7.166 1.32 4.021 1.25 9.716-3.126 11.15-4.37 1.433-8.059-2.7-9.527-7.173-1.217-3.705-1.288-9.14 3.1-10.787 0.591-0.221 1.167-0.333 1.722-0.356zm70.661 1.647c-3.72 0.012-7.47 2.079-9.29 6.423-2.35 5.615 0.29 11.409 5.36 13.537 4.53 1.898 10.66 0.486 13.21-5.617 2.5-5.948-0.49-11.708-5.63-13.679-1.17-0.444-2.41-0.669-3.65-0.664zm1.8 1.121c0.52 0.035 1.06 0.149 1.61 0.353 4.73 1.771 4.17 8.016 2.75 11.404-1.64 3.907-5.43 8.152-9.67 6.375-4.24-1.781-4.32-7.317-2.5-11.664 1.32-3.146 4.17-6.719 7.81-6.468zm-95.81 6.589c-0.833 0.674-1.68 1.319-2.545 1.936-0.886 0.643-1.789 1.258-2.733 1.873l0.541 0.748c0.964-0.63 1.885-1.221 2.494-0.381 0.276 0.387 0.324 0.84 0.438 1.86l0.654 6.998-6.674-2.83c-0.485-0.238-1.299-0.654-1.509-0.948-0.544-0.751 0.041-1.24 1.81-2.662l-0.553-0.771c-1.214 0.946-2.475 1.89-3.73 2.791-1.247 0.901-2.358 1.667-3.775 2.621l0.537 0.752c1.601-0.947 1.885-0.942 4.203-0.024 3.034 1.235 6.078 2.435 9.109 3.67l1.707 2.366c0.691 0.953 1.681 2.381 1.772 2.935 0.121 0.741-0.375 1.208-1.688 2.361l0.53 0.729c1.146-0.898 2.297-1.797 3.458-2.635 1.205-0.87 2.441-1.693 3.678-2.516l-0.521-0.73c-1.771 1.141-2.421 1.437-3.256 0.516-0.529-0.585-0.968-1.2-2.358-3.075l-1.72-2.386-0.506-6.168c-0.273-4.026-0.249-4.901 1.176-6.278l-0.539-0.752zm111.89 0.084l-0.53 0.723c0.9 0.906 1.2 1.44 1.51 2.758l-7.43 10.463c-1.49 1.968-1.75 2.298-2.21 2.465-0.66 0.22-1.39-0.249-2.11-0.744l-0.51 0.744c0.97 0.627 1.96 1.272 2.88 1.91 1.01 0.701 1.99 1.404 2.99 2.131l0.51-0.743c-1.84-1.434-2.39-2.055-1.53-3.566 0.76-1.354 6.36-9.532 7.65-11.275l0.72 21.515 0.36 0.284c1.54-1.891 9.64-11.72 10.57-12.803 1.55-1.812 1.95-1.634 3.52-0.647l0.53-0.718c-1.03-0.732-1.83-1.291-2.74-1.954-0.94-0.703-1.85-1.409-2.76-2.115l-0.54 0.725c2.44 1.9 2.51 1.996 0.58 4.547-0.82 1.07-1.85 2.404-6.81 8.527-0.09-3.302-0.33-11.549-0.48-14.691-0.12-2.247-0.06-3.042 0-4.454-0.71-0.493-1.4-0.969-2.1-1.488s-1.39-1.057-2.07-1.594zm-130.3 13.881l-11.088 11.94c1.293 2.158 1.593 2.7 2.721 4.937l0.631-0.258c-0.686-4.083-0.734-4.237-0.719-4.796-0.002-1.19 0.44-1.704 1.106-2.463l1.599-1.725 10.172 9.445c0.663 0.61 1.628 1.549 2.008 2.088 0.357 0.484 0.652 0.951-1.221 3.043l0.662 0.612c1.023-1.152 2.029-2.319 3.086-3.448 1.028-1.113 2.081-2.162 3.131-3.256l-0.656-0.607c-1.554 1.425-2.059 1.804-2.826 1.432-0.468-0.238-1.57-1.23-2.291-1.901l-10.178-9.443c1.948-2.136 2.347-2.568 3.174-2.834 0.898-0.276 3.827 0.035 5.603 0.223l0.211-0.639c-2.254-0.946-2.799-1.188-5.125-2.35zm151.09 2.229l-0.69 0.574c0.65 1.096 0.82 1.688 0.81 3.039l-9.71 8.391c-1.92 1.553-2.25 1.813-2.73 1.861-0.7 0.061-1.3-0.57-1.88-1.221l-0.67 0.596c0.78 0.84 1.59 1.703 2.33 2.543 0.82 0.919 1.6 1.842 2.4 2.783l0.67-0.595c-1.44-1.835-1.83-2.574-0.63-3.834 1.06-1.129 8.46-7.734 10.11-9.116l-4.42 21.063 0.27 0.355c1.95-1.465 12.16-9.076 13.33-9.906 1.94-1.387 2.28-1.119 3.57 0.215l0.69-0.574c-0.83-0.954-1.48-1.691-2.19-2.551-0.76-0.909-1.48-1.808-2.19-2.709l-0.69 0.574c1.91 2.427 1.96 2.536-0.53 4.555-1.04 0.842-2.36 1.89-8.64 6.652 0.7-3.231 2.43-11.293 3.03-14.383 0.43-2.211 0.68-2.965 1.08-4.324-0.58-0.648-1.14-1.278-1.7-1.943-0.55-0.671-1.09-1.359-1.62-2.045zm-164.78 13.57c-0.615 1.108-1.24 2.177-1.934 3.199-0.723 1.063-1.516 2.084-2.316 3.069l0.74 0.502c1.101-1.321 1.457-1.553 2.571-0.996 0.607 0.306 1.295 0.742 4.17 2.658l4.244 2.877c0.926 0.635 1.855 1.265 2.746 1.9 2.047 1.427 2.246 1.627 1.166 3.674l0.742 0.504c0.678-1.101 1.376-2.22 2.109-3.313 0.678-0.999 1.389-1.941 2.143-2.953l-0.744-0.504c-1.506 1.822-1.776 1.673-4.608-0.25l-8.283-5.623c-2.922-1.983-3.13-2.125-2.004-4.24l-0.742-0.504zm87.672 2.688c-0.6 3.367-0.7 15.077-0.71 19.181 0 0.782-0.37 1.111-1.41 0.301-2.89-2.229-4.68-4.043-6.9-7.613-0.58-0.934-1.85-2.882-1.86-2.879 0 0.01 0.5 2.176 1.49 3.785 2.69 4.385 5.4 6.856 7.22 8.293 0.33 0.261 1.34 0.759 1.37 1.781 0.04 1.293 0 8.178-0.04 10.951-0.04 2.689-0.12 3.779-0.1 5.639 0.02 1.07-0.64 1.18-1.31 0.75-1.3-0.85-2.19-1.31-3.47-2.17-3.74-2.528-6.61-5.001-10.69-7.881 0.55 1.202 3.79 4.084 4.53 4.709 2.41 2.032 4.97 3.962 7.53 5.782 0.26 0.19 1.4 1.05 2.35 1.6 0.9 0.54 1.08 1.18 1.05 1.93 0.07 1.32-0.01 4.65 0.03 7.18 0 2.65 0.06 8.15 0.07 12.2 0.04 0.69-0.48 1.05-1.36 0.48-2.72-1.78-4.49-2.79-7.11-4.73-3.78-2.78-7.09-5.49-7.09-5.52 0-0.02 0.92 1.97 3.35 3.95 2.54 2.07 5.12 4.13 7.83 6.05 1.17 0.84 2.46 1.66 3.74 2.41 0.51 0.36 0.71 0.97 0.71 1.25 0.03 5.62 0.25 13.11 0.8 16.89 0.55-3.78 0.77-11.27 0.79-16.89 0.01-0.28 0.2-0.89 0.72-1.25 1.27-0.75 2.56-1.57 3.74-2.41 2.71-1.92 5.29-3.98 7.82-6.05 2.44-1.98 3.36-3.97 3.36-3.95 0.01 0.03-3.32 2.74-7.09 5.52-2.63 1.94-4.4 2.95-7.12 4.73-0.87 0.57-1.38 0.21-1.35-0.48 0.01-4.05 0.07-9.55 0.07-12.2 0.04-2.53-0.05-5.86 0.03-7.18-0.03-0.75 0.14-1.39 1.05-1.93 0.94-0.55 2.08-1.41 2.35-1.6 2.56-1.82 5.12-3.75 7.52-5.782 0.75-0.625 3.99-3.507 4.54-4.709-4.08 2.88-6.95 5.353-10.7 7.881-1.27 0.86-2.17 1.32-3.47 2.17-0.66 0.43-1.32 0.32-1.3-0.75 0.01-1.86-0.07-2.95-0.1-5.639-0.04-2.773-0.08-9.658-0.04-10.951 0.02-1.022 1.03-1.52 1.37-1.781 1.82-1.437 4.52-3.908 7.22-8.293 0.99-1.609 1.48-3.775 1.48-3.785 0-0.003-1.27 1.945-1.85 2.879-2.22 3.57-4.02 5.384-6.9 7.613-1.05 0.81-1.42 0.481-1.42-0.301-0.01-4.104-0.14-15.814-0.74-19.181zm93.33 4.513l-0.8 0.407c0.46 1.272 0.63 1.787 0.09 2.343-0.36 0.441-2.92 1.744-3.69 2.139l-4.7 2.4c-2.5 1.273-3.71 1.862-4.93 2.424-1.16 0.562-1.69 0.703-2.81-1.121l-0.79 0.408 7.17 14.043c2.39-0.498 2.99-0.617 5.47-1.002l0.02-0.703c-5.78-0.89-6-1.317-7.08-3.379l-0.67-1.322c-1.71-3.446-1.61-3.498 1.8-5.271l4.25-2.168 0.98 1.923c1.42 2.774 1.55 3.399-1.01 5.428l0.33 0.649c1.11-0.625 2.24-1.235 3.39-1.825 1.19-0.612 2.41-1.196 3.61-1.75l-0.33-0.644c-2.87 0.739-3.48 0.515-4.65-1.846l-1.27-2.469 7.17-3.664 1.31 2.576c1.43 2.923 1.65 3.849 1.2 5.43-0.17 0.653-0.17 0.652-1.39 3.822l0.6 0.299c1.38-1.844 1.8-2.336 3.35-4.166l-6.62-12.961zm-188.38 4.391l0.262 1.412c-0.987 0.671-2.062 1.393-2.869 3.027-1.544 3.115-0.377 6.32 2.465 7.727 3.395 1.68 5.743-0.666 6.867-1.797 1.761-1.789 2.133-2.166 2.986-2.621 1.43-0.731 2.683-0.485 3.535-0.063 2.538 1.255 2.425 3.951 1.692 5.434-0.729 1.485-2.319 2.67-4.202 2.928-1.239 0.167-2.209-0.087-3.236-0.348l-0.273 0.676c2.262 0.931 2.874 1.206 5.48 2.461l-0.221-1.83c0.833-0.494 2.176-1.237 3.254-3.426 1.597-3.219 0.842-6.938-2.429-8.555-3.77-1.867-6.18 0.663-7.6 2.151-1.49 1.548-2.189 2.265-3.328 2.609-0.926 0.294-1.892 0.156-2.725-0.254-1.505-0.744-2.442-2.583-1.375-4.744 1.594-3.221 5.597-2.458 6.996-2.172l0.161-0.644-5.44-1.971zm191.63 17.689c-1.08-0.026-2.21 0.106-3.39 0.424-5.98 1.612-8.67 6.95-7.23 12.312 0.97 3.58 3.27 5.77 6.78 6.83l0.28-0.92c-1.55-0.57-4.41-1.6-5.38-5.17-1.3-4.847 2.75-8.783 7.49-10.064 5.55-1.497 9.15 1.309 10.05 4.639 0.53 1.955 0.16 4.165-1.57 6.145-0.86 1.01-1.62 1.51-2.49 2.07l0.21 0.55 5.63-1.61-1.54-1.06c0.55-1.34 1.42-3.61 0.56-6.776-1.11-4.135-4.71-7.254-9.4-7.37zm-196.42 1.746c-1.373 0.02-2.77 0.624-3.672 1.903-0.746 1.017-1.247 2.737-1.619 4.094-0.149 0.539-0.788 2.953-0.922 3.443-0.316 1.16-0.672 2.34-0.988 3.5l0.859 0.24c0.539-1.19 0.787-1.79 1.569-1.78 0.873 0.01 3.733 0.8 4.492 1l7.787 2.15c3.887 1.1 3.993 1.15 3.707 3.47l0.879 0.2c0.278-1.52 0.476-2.68 0.76-3.97 0.296-1.34 0.65-2.67 1.002-4l-0.877-0.19c-0.777 2.35-0.826 2.75-2.797 2.29-0.873-0.21-2.178-0.54-5.586-1.48 0.104-0.38 0.225-0.72 0.334-1.1 0.101-0.38 0.556-2.135 0.556-2.135 1.959-0.427 3.814-0.836 6.129-1.287 1.901-0.367 2.595-0.662 3.713-0.91 0 0 0.392-1.35 0.617-2.041 0.243-0.746 0.509-1.457 0.788-2.193l-0.848-0.282c-0.625 1.331-0.971 1.957-2.752 2.327-0.787 0.161-7.771 1.628-7.771 1.628-0.122-0.612-0.201-1.968-1.678-3.365-0.805-0.774-1.739-1.178-2.336-1.34-0.433-0.119-0.888-0.178-1.346-0.172zm-0.89 2.872c0.601-0.045 1.237 0.022 1.871 0.197 1.381 0.379 2.338 1.138 2.884 2.097 0.448 0.798 0.827 1.857 0.159 4.294-0.102 0.38-0.239 0.75-0.375 1.15l-8.627-2.38 0.441-1.591c0.493-1.695 0.742-2.589 1.984-3.295 0.496-0.272 1.061-0.428 1.663-0.472zm203.75 14.768l-0.24 0.63c3.4 2.35 3.55 2.43 3.93 2.83 0.86 0.83 0.93 1.5 1.01 2.5l0.12 2.36-13.86 0.73c-0.9 0.05-2.24 0.09-2.89-0.02-0.6-0.08-1.14-0.2-1.34-2.99l-0.9 0.05c0.11 1.53 0.25 3.07 0.33 4.61 0.08 1.51 0.1 3 0.15 4.52l0.9-0.05c0.06-2.11 0.13-2.73 0.94-3.03 0.49-0.16 1.98-0.27 2.96-0.32l13.86-0.73c0.18 2.88 0.21 3.47-0.17 4.25-0.43 0.84-2.69 2.73-4.07 3.86l0.32 0.61c2.25-0.96 2.8-1.19 5.25-2.05l-0.85-16.27c-2.45-0.58-3.05-0.74-5.45-1.49zm-196.41 1.09l-0.375 0.59c4.54 3.69 4.51 4.16 4.406 6.49l-0.085 1.49c-0.274 3.83-0.391 3.82-4.229 3.63l-4.76-0.27 0.127-2.16c0.18-3.11 0.381-3.71 3.61-4.18l0.043-0.72c-1.263-0.02-2.555-0.07-3.84-0.14-1.346-0.08-2.69-0.18-4-0.31l-0.043 0.72c2.849 0.81 3.265 1.31 3.088 3.95l-0.157 2.77-8.039-0.46 0.168-2.89c0.241-3.24 0.518-4.15 1.707-5.29 0.476-0.48 0.477-0.48 3.131-2.61l-0.365-0.55c-2.133 0.89-2.73 1.11-4.994 1.91l-0.836 14.53 0.894 0.05c0.248-1.33 0.361-1.86 1.108-2.07 0.541-0.19 3.392-0.03 4.265 0.02l5.264 0.3c2.796 0.16 4.139 0.27 5.483 0.4 1.282 0.1 1.809 0.24 1.855 2.38l0.898 0.05 0.907-15.73c-2.316-0.78-2.898-0.99-5.231-1.9zm182.55 19.35c-0.06 1.29-0.14 2.61-0.27 3.92-0.11 1.2-0.29 2.37-0.46 3.62l0.89 0.09c0.45-2.32 0.77-2.32 4.17-1.99l9.97 0.98c3.51 0.34 3.76 0.36 3.78 2.76l0.9 0.08c0.01-1.26 0.04-2.5 0.16-3.73 0.13-1.28 0.34-2.56 0.57-3.8l-0.89-0.09c-0.33 1.69-0.54 2.06-1.78 2.11-0.68 0.02-1.5-0.03-4.93-0.34l-5.11-0.5c-1.12-0.11-2.23-0.22-3.32-0.35-2.48-0.27-2.75-0.35-2.78-2.67l-0.9-0.09zm-197.06 0.73l-0.917 0.13c0.204 1.07 0.389 2.15 0.541 3.26 0.154 1.09 0.278 2.14 0.369 3.24l0.92-0.13c-0.122-1.06-0.26-2.63 1.074-2.81 0.503-0.08 1.99 0.23 2.658 0.36 3.15 0.63 6.603 1.45 11.707 2.66-2.214 1.02-2.422 1.13-4.512 2.22-1.232 0.65-7.862 4.1-8.664 4.22-1.136 0.16-1.319-0.75-1.674-2.46l-0.916 0.13c0.248 1.38 0.476 2.79 0.668 4.18 0.195 1.37 0.362 2.78 0.491 4.1l0.918-0.13c-0.031-1.81 0.437-2.33 2.57-3.48l15.348-8.1-0.086-0.61c-5.076-1.25-10.152-2.51-15.248-3.69-4.013-0.97-4.601-1.08-5.247-3.09zm202.63 10.32c-4.49 0.13-7.99 3.13-9.14 7.49-0.94 3.58-0.03 6.64 2.49 9.29l0.7-0.65c-1.06-1.27-3.03-3.59-2.09-7.16 1.27-4.86 6.74-6.26 11.49-5.02 5.56 1.46 7.29 5.69 6.41 9.02-0.5 1.96-1.92 3.7-4.4 4.55-1.26 0.46-2.17 0.51-3.2 0.56l-0.09 0.59 5.69 1.4-0.8-1.69c1.13-0.89 3.01-2.42 3.84-5.6 1.34-5.1-1.36-10.73-7.65-12.39-1.12-0.29-2.21-0.42-3.25-0.39zm-181.2 6.03l-0.863 0.26c0.465 2.32 0.172 2.44-3.108 3.41l-9.589 2.86c-3.391 1.01-3.627 1.08-4.553-1.13l-0.86 0.26c0.469 1.18 0.904 2.33 1.25 3.52 0.375 1.24 0.659 2.5 0.915 3.74l0.859-0.26c-0.332-1.69-0.279-2.11 0.857-2.63 0.618-0.26 1.39-0.53 4.69-1.54l4.916-1.47c1.073-0.32 2.149-0.64 3.207-0.92 2.401-0.69 2.68-0.72 3.584 1.41l0.855-0.25c-0.42-1.22-0.85-2.47-1.224-3.73-0.347-1.16-0.63-2.3-0.936-3.53zm3.83 11.45c-2.226 1-13.886 6.12-15.207 6.66-2.209 0.92-2.476 0.58-3.435-1.01l-0.797 0.4c0.592 1.12 1.056 1.98 1.562 2.98 0.532 1.05 1.02 2.09 1.516 3.13l0.801-0.4c-1.316-2.79-1.335-2.91 1.537-4.32 1.214-0.59 2.733-1.31 9.922-4.54-1.41 2.99-4.912 10.46-6.19 13.34-0.913 2.06-1.32 2.73-2.021 3.96 0.417 0.76 0.819 1.51 1.209 2.28 0.392 0.78 0.757 1.57 1.127 2.36l0.798-0.41c-0.389-1.21-0.418-1.82-0.107-3.14l11.348-5.99c2.226-1.08 2.605-1.26 3.084-1.2 0.698 0.1 1.138 0.85 1.55 1.61l0.793-0.43c-0.576-0.99-1.164-2.02-1.703-3-0.592-1.08-1.141-2.15-1.711-3.25l-0.789 0.43c0.995 2.11 1.212 2.92-0.248 3.87-1.288 0.87-9.977 5.64-11.908 6.61l9.059-19.52-0.19-0.42zm167.71 3.36c-0.62 0-1.26 0.09-1.94 0.32-1.67 0.57-3.33 1.91-4.43 4-1.16 2.17-1.85 5.52 0.47 8.4 1.16 1.4 2.48 2.2 7.62 5.18 0.3 0.16 1.24 0.66 2.84 1.66 0.9 0.58 1.07 0.73 1.27 0.96 0.55 0.64 0.28 1.33-0.17 2.3l0.79 0.42c0.45-0.91 0.92-1.84 1.39-2.73 0.52-0.99 1.08-2 1.63-2.97l-0.79-0.42c-1.52 2.4-1.65 2.33-5.81 0.12-6.57-3.48-8.21-4.76-8.99-7.05-0.53-1.51-0.36-3.04 0.35-4.38 0.81-1.51 2.7-3.36 5.63-3.08 1.63 0.17 3.09 0.94 4.4 1.64l4.99 2.64c3.38 1.82 3.53 1.9 2.49 4.33l0.79 0.42c0.61-1.2 1.17-2.37 1.78-3.53 0.61-1.14 1.27-2.28 1.86-3.33l-0.79-0.42c-1.18 1.75-1.48 1.82-3.67 0.69l-7.06-3.75c-1.26-0.64-2.81-1.44-4.65-1.42zm-13.96 17.16c-0.98 1.19-1.93 2.4-2.93 3.58-0.98 1.15-1.99 2.25-2.99 3.38l0.68 0.59c1.49-1.5 1.98-1.9 2.76-1.56 0.48 0.22 1.63 1.16 2.38 1.79l10.58 8.99c-1.85 2.22-2.23 2.66-3.04 2.97-0.89 0.31-3.83 0.13-5.61 0.02l-0.19 0.66c2.3 0.84 2.86 1.05 5.23 2.11l10.55-12.42c-1.38-2.1-1.71-2.63-2.94-4.82l-0.62 0.3c0.87 4.04 0.92 4.2 0.93 4.75 0.06 1.19-0.35 1.73-0.99 2.51l-1.52 1.8-10.58-8.98c-0.69-0.59-1.7-1.48-2.1-2-0.38-0.47-0.69-0.92 1.08-3.1l-0.68-0.57zm-144.41 0.35c-0.61 0.01-1.25 0.11-1.912 0.32-1.738 0.54-2.972 1.48-7.658 5.14-0.253 0.22-1.069 0.91-2.592 2.02-0.87 0.62-1.074 0.72-1.365 0.82-0.795 0.27-1.326-0.24-2.063-1.01l-0.685 0.58c0.673 0.75 1.367 1.53 2.019 2.29 0.724 0.86 1.448 1.76 2.149 2.63l0.681-0.58c-1.652-2.3-1.545-2.39 2.045-5.44 5.678-4.8 7.475-5.84 9.897-5.72 1.599 0.08 2.955 0.81 3.931 1.96 1.106 1.31 2.116 3.76 0.762 6.38-0.761 1.44-2.019 2.51-3.158 3.47l-4.301 3.64c-2.953 2.46-3.079 2.57-4.957 0.7l-0.683 0.58c0.888 1.01 1.764 1.96 2.617 2.97 0.832 0.98 1.644 2.03 2.398 2.96l0.684-0.57c-1.184-1.76-1.14-2.05 0.722-3.67l6.104-5.16c1.419-1.23 3.307-2.87 3.486-5.7 0.086-1.76-0.539-3.8-2.062-5.6-1.293-1.53-3.414-3.07-6.059-3.01zm95.833 30.76c-1.19 3.17-3.81 4.33-5.09 4.89l0.22 0.86c3.33-0.9 3.38-0.67 4.42 3.42l1.79 7.34c0.83 3.5 0.86 3.65-2.56 4.67l0.23 0.93c1.8-0.51 2.92-0.81 4.45-1.19 1.8-0.44 3.45-0.81 5.2-1.18l-0.23-0.92c-3.45 0.69-3.47 0.57-4.54-3.64l-1.84-7.54c-0.96-3.9-1.09-4.85-1.54-7.53l-0.51-0.11zm-41.51 0.86c-2.5 2.28-5.37 2.12-6.752 2.03l-0.209 0.87c3.381 0.71 3.321 0.94 2.371 5.06l-1.75 7.35c-0.861 3.49-0.9 3.64-4.414 2.98l-0.219 0.93c1.834 0.38 2.97 0.62 4.504 0.98 1.799 0.42 3.439 0.85 5.159 1.32l0.22-0.92c-3.38-0.96-3.35-1.08-2.37-5.31l1.8-7.55c0.93-3.91 1.24-4.81 2.06-7.4l-0.4-0.34zm26.88 2.03c-0.19 0-0.38 0.01-0.58 0.03-2.81 0.23-5.19 2.46-4.93 5.6 0.25 3.05 2.62 4.29 3.75 4.88-0.8 0.49-1.65 0.97-2.33 1.78-0.82 0.99-1.32 2.44-1.2 3.95 0.28 3.35 3.4 5.35 6.36 5.11 3.65-0.3 5.94-3.62 5.68-6.8-0.28-3.35-3.19-4.93-4.47-5.66 0.88-0.57 3.15-2.02 2.93-4.69-0.19-2.28-2.37-4.18-5.21-4.2zm-14.9 0.06c-2.82-0.22-5.52 1.6-5.77 4.74-0.23 3.06 1.91 4.66 2.93 5.42-0.86 0.35-1.79 0.7-2.59 1.38-0.95 0.85-1.69 2.2-1.8 3.71-0.26 3.35 2.5 5.83 5.46 6.06 3.66 0.28 6.45-2.64 6.69-5.81 0.26-3.35-2.36-5.38-3.52-6.3 0.96-0.43 3.43-1.49 3.64-4.16 0.18-2.43-1.93-4.8-5.04-5.04zm14.46 0.82c1.78-0.14 3.29 1.16 3.47 3.32 0.13 1.61-0.3 3.25-1.36 4.48-2.42-1.03-4.52-1.93-4.72-4.36-0.15-1.81 0.94-3.3 2.61-3.44zm-14.47 0.04c1.78 0.14 3.06 1.67 2.9 3.83-0.13 1.61-0.81 3.16-2.05 4.2-2.22-1.4-4.16-2.62-3.97-5.05 0.14-1.81 1.46-3.11 3.12-2.98zm-2.18 9.68c3.08 1.91 4.87 3.53 4.65 6.26-0.2 2.59-2.13 3.74-3.88 3.61-1.84-0.14-3.57-1.73-3.32-4.97 0.15-1.92 0.98-3.77 2.55-4.9zm16.04 0.18c3.33 1.4 5.35 2.72 5.58 5.45 0.21 2.58-1.51 4.03-3.26 4.18-1.84 0.15-3.8-1.15-4.07-4.38-0.16-1.92 0.36-3.88 1.75-5.25z" transform="matrix(.8 0 0 -.8 850.86 222.3)" fill="#fff"/><path d="m950.79 57.418c-35.793 0-64.808 29.018-64.808 64.808 0 35.795 29.015 64.808 64.808 64.808 35.795 0 64.806-29.013 64.806-64.808 0-35.791-29.011-64.808-64.806-64.808" fill="#fff"/><path d="m950.79 184.26c-34.21 0-62.037-27.831-62.037-62.037 0-34.208 27.827-62.037 62.037-62.037s62.039 27.829 62.039 62.037c0 34.206-27.829 62.037-62.039 62.037" fill="#000e2f"/><path d="m950.79 62.063c-33.177 0-60.16 26.989-60.16 60.165 0 33.175 26.983 60.162 60.16 60.162 33.175 0 60.164-26.987 60.164-60.162s-26.989-60.165-60.164-60.165" fill="#fff"/><path d="m124.94 52.59c-0.14 0-0.4 0.021-0.4 0.021-2.81 0.436-4.75 3.73-5.6 6.08-0.24 0.663-0.93 4.464-4.17 4.555-4.28 0.122-3.99-3.854-6.84-3.732-1.78 0.073-3.1 2.272-3.26 4.418-0.33 4.387 1.18 7.212 2.51 10.015 0.7 1.48 4.16 7.43 0.63 9.715-4.45 2.887-6.66-5.131-12.851-3.719-2.277 0.519-3.019 2.952-2.766 5.184 1.012 8.81 18.627 18.573 14.297 23.003-2.91 2.98-9.176-5.6-11.83-1.4-0.443 0.69-0.671 1.5-0.385 2.58 0.512 1.95 1.776 3.55 2.733 5.09 2.429 3.9 5.292 7.29 8.112 10.85 2 2.51-3.31 0.64-4.32 2.58-0.65 1.24-0.33 2.76 0.23 3.79 1.86 3.42 5.45 5.42 8.65 7.51 4.78 3.13 10.26 8.86 11.61 15.33 0.56 2.69 1.01 8.95 1.04 12.04-1.73-1.84-3.66-5.21-6.77-7.82-0.68-0.58 0.02-1.62 0.56-2.61 1.25-2.31 2.01-4.87 0.12-6.25-1.1-0.81-1.67-0.81-2.39-0.89-0.87 4.86-7.96 10.67-10.97 10.94 0.08 0.66 0.08 0.97 0.68 1.88 0.67 1.03 2.42 1.65 5.57 0.54 0.61-0.21 1.95-1.21 2.51-1.36 0.57-0.16 1.66-0.09 2.02 0.19 5.39 4.29 9.08 13.31 6.5 14.54-1.51 0.6-4.3-0.73-6.67-1.81-5.43-2.46-10.68-6.69-15.513-12.23-0.509-0.59-1.11-1.17-3.944-1.22-0.853-0.01-1.704-0.05-2.263-0.1 0 0-7.711-0.61-9.528-1.83 4.661 0.36 7.307 0.92 11.315 0.69 1.047-0.01 1.74-0.45 1.113-1.29-2.095-2.79-5.942-9.48-6.848-11.41-0.523-1.11-1.21-1.52-1.734-1.68-0.633-0.2-4.063-1.33-4.842-1.61-4.003-1.41-9.523-4.17-10.953-6.16 4.433 2.06 8.43 4.05 13.559 5.42 0 0 2.177 0.59 1.382-1.15-2.158-4.75-3.863-9.53-5.533-14.9-0.341-1.09-1.17-1.6-1.676-1.89-0.771-0.45-3.911-2.31-5.541-3.38-3.127-2.05-5.174-3.36-5.754-4.74-0.005-0.01 2.136 1.43 3.047 1.95 2.098 1.2 4.628 2.79 7.434 4.21 0.696 0.35 1.549 0.19 1.273-0.9-1.298-5.2-1.904-9.55-2.496-15.17-0.078-0.7-0.574-1.52-0.967-1.88-0.627-0.58-6.448-5.465-7.306-7.562 2.07 1.619 5.701 5.072 6.787 5.772 0.339 0.21 1.145 0.46 1.102-0.58-0.178-4.403-0.113-4.826-0.176-6.569-0.261-7.161 0.482-7.989 0.482-7.989l0.125 2.729c0.6 23.019 6.017 41.949 13.58 56.249 0.319 0.59 0.708 0.16 0.549-0.68-0.455-2.29 0.147-7.32-1.852-7.54-1.325-0.14-2.079-4.59-1.98-7.61 0.094-3.01 0.28-7.25-1.41-7.25-1.7 0-2.731-3.76-0.195-10.17 2.548-6.4-0.657-6.68-1.788-6.3-3.959 1.32-0.938-6.97 0.383-9.984 1.802-4.12 0.377-5.701-1.978-4.899-2.407 0.823-2.624-6.723-3.014-9.861-0.903-7.348-6.156-1.484-6.156-1.484-2.791 3.372-3.796 9.052-5.444 10.396-1.437 1.174-3.826-1.487-5.314 0.606-3.191 4.493 5.401 10.746 4.25 15.486-0.339 1.4-1.615 1.86-3.379 1.66-0.625-0.07-1.73-0.68-2.81-0.76-1.744-0.13-2.989 1.14-3.295 2.36-1.012 4.06 5.695 11.02 7.666 13.36 0.913 1.09 2.118 1.99 2.892 3.27 0.435 0.73 0.966 1.93 0.207 3.07-0.898 1.37-2.941 0.22-4.482 0.47-1.589 0.26-2.935 2.08-2.715 4.34 0.304 3.2 5.478 8.19 9.332 10.85 0.45 0.32 3.966 2.33 4.705 3.42 1.749 2.57-3.155 3.55-4.326 4.4-0.843 0.62-1.976 1.95-1.498 4.06 0.858 3.73 7.986 7.74 12.424 9.22 2.682 0.9 7.593 3.04 7.593 3.04 1.997 1.04-1.176 4.53 1.592 6.98 0.036 0.03 0.036 0.12 0.076 0.15 1.362 0.84 3.476 0.94 5.237 1.29 6.805 1.35 16.245 0.04 21.495 3.22 6.65 4.02 4.39 12.71 3.98 13.97-0.12 0.38 0.04 0.89 0.25 0.98 1.02 0.49 2.2 1.29 3.99 1.33h0.34 0.34c1.78-0.04 2.97-0.84 3.99-1.33 0.2-0.09 0.36-0.6 0.25-0.98-0.41-1.26-2.67-9.95 3.98-13.97 5.25-3.18 14.68-1.87 21.49-3.22 1.76-0.35 3.88-0.45 5.24-1.29 0.04-0.03 0.04-0.12 0.08-0.15 2.76-2.45-0.41-5.94 1.59-6.98 0 0 4.91-2.14 7.59-3.04 4.43-1.48 11.57-5.49 12.42-9.22 0.49-2.11-0.65-3.44-1.5-4.06-1.16-0.85-6.06-1.83-4.32-4.4 0.73-1.09 4.25-3.1 4.7-3.42 3.86-2.66 9.04-7.65 9.34-10.85 0.21-2.26-1.13-4.08-2.71-4.34-1.55-0.25-3.59 0.9-4.5-0.47-0.75-1.14-0.22-2.34 0.21-3.07 0.78-1.28 1.99-2.18 2.9-3.27 1.96-2.34 8.68-9.3 7.66-13.36-0.3-1.22-1.54-2.49-3.29-2.36-1.08 0.08-2.19 0.69-2.81 0.76-1.76 0.2-3.04-0.26-3.38-1.66-1.15-4.74 7.44-10.993 4.25-15.486-1.49-2.093-3.87 0.568-5.31-0.606-1.65-1.344-2.66-7.024-5.45-10.396 0 0-5.25-5.864-6.16 1.484-0.38 3.138-0.6 10.684-3 9.861-2.36-0.802-3.79 0.779-1.98 4.899 1.31 3.014 4.34 11.304 0.38 9.984-1.14-0.38-4.34-0.1-1.8 6.3 2.55 6.41 1.51 10.17-0.18 10.17-1.7 0-1.51 4.24-1.42 7.25 0.1 3.02-0.65 7.47-1.97 7.61-2 0.22-1.4 5.25-1.86 7.54-0.16 0.84 0.23 1.27 0.55 0.68 7.56-14.3 12.99-33.23 13.58-56.249l0.12-2.729s0.75 0.828 0.5 7.989c-0.07 1.743 0 2.166-0.19 6.569-0.04 1.04 0.77 0.79 1.11 0.58 1.08-0.7 4.71-4.153 6.78-5.772-0.85 2.097-6.68 6.982-7.3 7.562-0.4 0.36-0.89 1.18-0.97 1.88-0.59 5.62-1.21 9.97-2.5 15.17-0.27 1.09 0.58 1.25 1.28 0.9 2.8-1.42 5.33-3.01 7.44-4.21 0.91-0.52 3.04-1.96 3.04-1.95-0.58 1.38-2.64 2.69-5.76 4.74-1.63 1.07-4.77 2.93-5.54 3.38-0.51 0.29-1.33 0.8-1.67 1.89-1.67 5.37-3.38 10.15-5.54 14.9-0.79 1.74 1.39 1.15 1.39 1.15 5.13-1.37 9.12-3.36 13.55-5.42-1.43 1.99-6.95 4.75-10.96 6.16-0.77 0.28-4.2 1.41-4.83 1.61-0.53 0.16-1.21 0.57-1.74 1.68-0.9 1.93-4.75 8.62-6.84 11.41-0.64 0.84 0.06 1.28 1.11 1.29 4.01 0.23 6.65-0.33 11.32-0.69-1.83 1.22-9.53 1.83-9.53 1.83-0.56 0.05-1.42 0.09-2.27 0.1-2.83 0.05-3.43 0.63-3.94 1.22-4.83 5.54-10.08 9.77-15.51 12.23-2.37 1.08-5.16 2.41-6.67 1.81-2.59-1.23 1.11-10.25 6.49-14.54 0.37-0.28 1.46-0.35 2.03-0.19 0.56 0.15 1.89 1.15 2.5 1.36 3.16 1.11 4.9 0.49 5.57-0.54 0.6-0.91 0.6-1.22 0.69-1.88-3.01-0.27-10.1-6.08-10.97-10.94-0.72 0.08-1.3 0.08-2.39 0.89-1.89 1.38-1.13 3.94 0.12 6.25 0.54 0.99 1.23 2.03 0.55 2.61-3.11 2.61-5.03 5.98-6.76 7.82 0.03-3.09 0.48-9.35 1.03-12.04 1.36-6.47 6.84-12.2 11.62-15.33 3.2-2.09 6.78-4.09 8.64-7.51 0.56-1.03 0.89-2.55 0.24-3.79-1.02-1.94-6.33-0.07-4.33-2.58 2.82-3.56 5.69-6.95 8.12-10.85 0.95-1.54 2.22-3.14 2.73-5.09 0.29-1.08 0.05-1.89-0.38-2.58-2.66-4.2-8.93 4.38-11.84 1.4-4.32-4.43 13.29-14.193 14.31-23.003 0.25-2.232-0.5-4.665-2.77-5.184-6.19-1.412-8.4 6.606-12.86 3.719-3.52-2.285-0.06-8.235 0.64-9.715 1.32-2.803 2.83-5.628 2.51-10.015-0.16-2.146-1.49-4.345-3.26-4.418-2.85-0.122-2.57 3.854-6.84 3.732-3.25-0.091-3.94-3.892-4.18-4.555-0.84-2.35-2.78-5.644-5.6-6.08 0 0-0.25-0.021-0.39-0.021zm-0.02 11.049c0.6 3.37 0.73 15.08 0.74 19.181 0 0.782 0.36 1.113 1.42 0.303 2.88-2.229 4.68-4.046 6.9-7.613 0.58-0.934 1.85-2.882 1.85-2.879 0.01 0.007-0.49 2.176-1.48 3.783-2.7 4.388-5.4 6.86-7.22 8.297-0.34 0.258-1.35 0.759-1.37 1.781-0.04 1.293 0 8.178 0.04 10.951 0.03 2.697 0.11 3.777 0.1 5.647-0.02 1.06 0.64 1.17 1.3 0.74 1.3-0.85 2.2-1.31 3.47-2.17 3.75-2.528 6.62-5.001 10.7-7.881-0.56 1.202-3.8 4.084-4.54 4.709-2.41 2.032-4.96 3.962-7.52 5.782-0.27 0.19-1.41 1.05-2.35 1.6-0.91 0.53-1.08 1.18-1.05 1.93-0.08 1.32 0.01 4.65-0.03 7.18 0 2.65-0.06 8.15-0.07 12.2-0.03 0.7 0.48 1.05 1.35 0.48 2.72-1.78 4.49-2.79 7.11-4.73 3.78-2.78 7.1-5.49 7.1-5.53 0-0.01-0.92 1.98-3.36 3.96-2.53 2.07-5.11 4.12-7.82 6.05-1.18 0.84-2.47 1.66-3.74 2.41-0.52 0.36-0.71 0.97-0.72 1.25-0.02 5.62-0.24 13.12-0.79 16.88-0.55-3.76-0.77-11.26-0.8-16.88 0-0.28-0.19-0.89-0.71-1.25-1.28-0.75-2.57-1.57-3.74-2.41-2.71-1.93-5.29-3.98-7.83-6.05-2.43-1.98-3.35-3.97-3.36-3.96 0 0.04 3.33 2.75 7.1 5.53 2.62 1.94 4.39 2.95 7.11 4.73 0.88 0.57 1.39 0.22 1.36-0.48-0.01-4.05-0.07-9.55-0.07-12.2-0.04-2.53 0.04-5.86-0.03-7.18 0.03-0.75-0.15-1.4-1.05-1.93-0.95-0.55-2.09-1.41-2.35-1.6-2.56-1.82-5.12-3.75-7.53-5.782-0.74-0.625-3.98-3.507-4.54-4.709 4.09 2.88 6.96 5.353 10.7 7.881 1.28 0.86 2.18 1.32 3.48 2.17 0.66 0.43 1.32 0.32 1.3-0.74-0.02-1.87 0.06-2.95 0.1-5.647 0.04-2.773 0.08-9.658 0.04-10.951-0.03-1.022-1.04-1.523-1.37-1.781-1.82-1.437-4.53-3.909-7.22-8.297-0.99-1.607-1.49-3.776-1.49-3.783 0.01-0.003 1.28 1.945 1.86 2.879 2.22 3.567 4.01 5.384 6.9 7.613 1.04 0.81 1.41 0.479 1.41-0.303 0.01-4.101 0.11-15.811 0.71-19.181zm-23.36 79.941c-1 0.06-1.906 0.39-2.64 1.12-4.76 4.67 4 13.92 4.22 13.85 3.48-1.09 8.53-6.21 9.46-9.36-0.7-0.94-6.71-5.86-11.04-5.61zm46.75 0c-4.32-0.25-10.34 4.67-11.03 5.61 0.93 3.15 5.98 8.27 9.46 9.36 0.22 0.07 8.97-9.18 4.22-13.85-0.74-0.72-1.65-1.06-2.65-1.12z" transform="matrix(.8 0 0 -.8 850.86 222.3)" fill="#000e2f"/></g></g></svg>
