<?xml version="1.0" encoding="UTF-8"?>
<!DOCTYPE svg PUBLIC "-//W3C//DTD SVG 1.1//EN" "http://www.w3.org/Graphics/SVG/1.1/DTD/svg11.dtd">
<!-- Creator: CorelDRAW -->
<svg xmlns="http://www.w3.org/2000/svg" xml:space="preserve" width="316" height="316" style="shape-rendering:geometricPrecision; text-rendering:geometricPrecision; image-rendering:optimizeQuality; fill-rule:evenodd; clip-rule:evenodd"
viewBox="0 0 122.101 122.101"
 xmlns:xlink="http://www.w3.org/1999/xlink">
 <defs>
  <style type="text/css">
   <![CDATA[
    .str1 {stroke:#00A8D6;stroke-width:0.7056}
    .str0 {stroke:#0BAEDD;stroke-width:0.7056}
    .fil2 {fill:none}
    .fil0 {fill:#0BAEDD}
    .fil3 {fill:white}
    .fil1 {fill:white}
   ]]>
  </style>
 </defs>
 <g id="Layer_x0020_1">
  <metadata id="CorelCorpID_0Corel-Layer"/>
  <g id="_75083520">
   <ellipse id="_77310928" class="fil0" cx="62.0535" cy="60.0838" rx="54.9577" ry="54.9004"/>
   <ellipse id="_77315488" class="fil1 str0" cx="60.723" cy="6.0176" rx="4.06603" ry="4.0849"/>
   <path id="_77319576" class="fil2 str0" d="M58.7017 4.1558c-1.0831,2.7371 -0.1185,4.586 3.6767,3.8115"/>
   <ellipse id="_77319688" class="fil1 str0" transform="matrix(0.952181 -0.169242 0.166718 0.936028 52.8608 6.6568)" rx="4.2042" ry="4.2966"/>
   <path id="_77327016" class="fil2 str0" d="M50.5443 5.1775c-0.5864,2.8843 0.6875,4.5358 4.2883,3.1092"/>
   <ellipse id="_77327064" class="fil1 str0" transform="matrix(0.941935 -0.219112 0.215845 0.925955 45.1488 8.5317)" rx="4.2042" ry="4.2966"/>
   <path id="_77329664" class="fil2 str0" d="M42.7575 7.1764c-0.4336,2.9111 0.9257,4.4933 4.4462,2.8791"/>
   <ellipse id="_77329712" class="fil1 str0" transform="matrix(0.941935 -0.219112 0.215845 0.925955 37.5793 11.2961)" rx="4.2042" ry="4.2966"/>
   <path id="_77339640" class="fil2 str0" d="M35.188 9.9408c-0.4335,2.9111 0.9257,4.4933 4.4462,2.8791"/>
   <ellipse id="_77339688" class="fil3 str0" transform="matrix(0.925654 -0.279917 0.275742 0.90995 30.483 15.3728)" rx="4.2042" ry="4.2966"/>
   <path id="_77342288" class="fil2 str0" d="M28.0084 14.1759c-0.2428,2.9332 1.2167,4.4236 4.6245,2.5838"/>
   <ellipse id="_77342336" class="fil3 str0" transform="matrix(0.925654 -0.279917 0.275742 0.90995 24.0621 20.2852)" rx="4.2042" ry="4.2966"/>
   <path id="_77352264" class="fil2 str0" d="M21.5875 19.0883c-0.2428,2.9332 1.2167,4.4236 4.6246,2.5838"/>
   <ellipse id="_77352312" class="fil3 str0" transform="matrix(0.925654 -0.279917 0.275742 0.90995 18.6201 26.0368)" rx="4.2042" ry="4.2966"/>
   <path id="_77354912" class="fil2 str0" d="M16.1455 24.8399c-0.2429,2.9332 1.2166,4.4236 4.6245,2.5838"/>
   <ellipse id="_77354960" class="fil3 str0" transform="matrix(0.904357 -0.342414 0.337306 0.889014 5.72954 62.784)" rx="4.2042" ry="4.2966"/>
   <path id="_77364888" class="fil2 str0" d="M3.1789 61.7587c-0.0418,2.9429 1.5163,4.3303 4.7904,2.2623"/>
   <ellipse id="_77364936" class="fil3 str0" transform="matrix(0.904357 -0.342414 0.337306 0.889014 5.92274 54.8241)" rx="4.2042" ry="4.2966"/>
   <path id="_77371200" class="fil2 str0" d="M3.3721 53.7988c-0.0418,2.9429 1.5163,4.3303 4.7904,2.2623"/>
   <ellipse id="_77371248" class="fil3 str0" transform="matrix(0.904357 -0.342414 0.337306 0.889014 7.50348 46.9495)" rx="4.2042" ry="4.2966"/>
   <path id="_77377520" class="fil2 str0" d="M4.9528 45.9242c-0.0417,2.9429 1.5163,4.3303 4.7904,2.2623"/>
   <ellipse id="_77373728" class="fil3 str0" transform="matrix(0.92543 -0.280658 0.276472 0.909729 10.2178 39.5102)" rx="4.2042" ry="4.2966"/>
   <path id="_77383904" class="fil2 str0" d="M7.7422 38.3153c-0.2404,2.9333 1.2203,4.4226 4.6266,2.5801"/>
   <ellipse id="_77383952" class="fil3 str0" transform="matrix(0.92543 -0.280658 0.276472 0.909729 13.7773 32.3035)" rx="4.2042" ry="4.2966"/>
   <path id="_77386648" class="fil2 str0" d="M11.3017 31.1086c-0.2404,2.9333 1.2203,4.4226 4.6267,2.5801"/>
   <ellipse id="_77386728" class="fil3 str0" transform="matrix(0.904357 -0.342414 0.337306 0.889014 61.9979 116.951)" rx="4.2042" ry="4.2966"/>
   <path id="_77396656" class="fil2 str0" d="M59.4473 115.924c-0.0418,2.9429 1.5162,4.3303 4.7904,2.2623"/>
   <ellipse id="_77396704" class="fil3 str0" transform="matrix(0.904357 -0.342414 0.337306 0.889014 54.1357 116.011)" rx="4.2042" ry="4.2966"/>
   <path id="_77399304" class="fil2 str0" d="M51.5851 114.986c-0.0418,2.9429 1.5163,4.3303 4.7904,2.2623"/>
   <ellipse id="_77399352" class="fil3 str0" transform="matrix(0.904357 -0.342414 0.337306 0.889014 46.4199 114.256)" rx="4.2042" ry="4.2966"/>
   <path id="_77409168" class="fil2 str0" d="M43.8692 113.231c-0.0417,2.9429 1.5163,4.3303 4.7904,2.2623"/>
   <ellipse id="_77409216" class="fil3 str0" transform="matrix(0.942935 -0.214781 0.211577 0.926937 39.0126 111.815)" rx="4.2042" ry="4.2966"/>
   <path id="_77411832" class="fil2 str0" d="M36.6275 110.449c-0.4469,2.9091 0.905,4.4975 4.433,2.8996"/>
   <ellipse id="_77411880" class="fil3 str0" transform="matrix(0.942935 -0.214781 0.211577 0.926937 31.9294 108.401)" rx="4.2042" ry="4.2966"/>
   <path id="_77421936" class="fil2 str0" d="M29.5443 107.035c-0.4468,2.9091 0.9051,4.4975 4.433,2.8996"/>
   <ellipse id="_77421984" class="fil3 str0" transform="matrix(0.942935 -0.214781 0.211577 0.926937 25.5435 103.816)" rx="4.2042" ry="4.2966"/>
   <path id="_77424480" class="fil2 str0" d="M23.1584 102.45c-0.4469,2.9091 0.905,4.4975 4.433,2.8996"/>
   <ellipse id="_77424528" class="fil3 str0" transform="matrix(0.908866 -0.330282 0.325356 0.893448 19.6776 98.4564)" rx="4.2042" ry="4.2966"/>
   <path id="_77434584" class="fil2 str0" d="M17.1409 97.3971c-0.0812,2.942 1.458,4.3501 4.7596,2.3262"/>
   <ellipse id="_77434632" class="fil3 str0" transform="matrix(0.86676 -0.428598 0.422206 0.852055 15.0506 92.1378)" rx="4.2042" ry="4.2966"/>
   <path id="_77437120" class="fil2 str0" d="M12.4123 91.365c0.2448,2.933 1.9304,4.1626 4.9878,1.7865"/>
   <ellipse id="_77437168" class="fil3 str0" transform="matrix(0.86676 -0.428598 0.422206 0.852055 11.1101 85.6085)" rx="4.2042" ry="4.2966"/>
   <path id="_77443456" class="fil2 str0" d="M8.4718 84.8357c0.2448,2.933 1.9304,4.1626 4.9878,1.7865"/>
   <ellipse id="_77443504" class="fil3 str0" transform="matrix(0.86676 -0.428598 0.422206 0.852055 8.01151 78.4475)" rx="4.2042" ry="4.2966"/>
   <path id="_77453536" class="fil2 str0" d="M5.3732 77.6747c0.2448,2.933 1.9304,4.1626 4.9878,1.7865"/>
   <ellipse id="_77453584" class="fil3 str0" transform="matrix(0.86676 -0.428598 0.422206 0.852055 6.10773 70.7169)" rx="4.2042" ry="4.2966"/>
   <path id="_77456200" class="fil2 str0" d="M3.4694 69.9441c0.2448,2.933 1.9304,4.1626 4.9878,1.7865"/>
   <ellipse id="_77456248" class="fil1 str0" transform="matrix(-0.0612697 -0.964188 -0.949808 0.0602303 68.7227 6.6568)" rx="4.2042" ry="4.2966"/>
   <path id="_77466048" class="fil2 str0" d="M70.7108 8.554c-2.6659,1.2532 -4.5741,0.4087 -4.0407,-3.4241"/>
   <ellipse id="_77466096" class="fil1 str0" transform="matrix(0.0363469 -0.965447 -0.951047 -0.0357303 76.6483 8.2655)" rx="4.2042" ry="4.2966"/>
   <path id="_77468568" class="fil2 str0" d="M78.4347 10.3532c-2.7787,0.9784 -4.5919,-0.054 -3.6746,-3.8135"/>
   <ellipse id="_77468648" class="fil1 str0" transform="matrix(0.0753095 -0.963196 -0.94883 -0.0740319 84.2044 10.8961)" rx="4.2042" ry="4.2966"/>
   <path id="_77478616" class="fil2 str0" d="M85.9051 13.0541c-2.8159,0.8656 -4.5861,-0.239 -3.5176,-3.9585"/>
   <ellipse id="_77478664" class="fil3 str0" transform="matrix(0.0385335 -0.965362 -0.950964 -0.0378798 91.3659 14.6215)" rx="4.2042" ry="4.2966"/>
   <path id="_77481168" class="fil2 str0" d="M93.1477 16.7133c-2.781,0.9721 -4.5919,-0.0644 -3.6661,-3.8219"/>
   <ellipse id="_77481216" class="fil3 str0" transform="matrix(0.183965 -0.94849 -0.934343 -0.180844 97.6215 19.3852)" rx="4.2042" ry="4.2966"/>
   <path id="_77491304" class="fil2 str0" d="M99.0664 21.7217c-2.8959,0.5416 -4.5295,-0.7561 -3.0464,-4.3309"/>
   <ellipse id="_77491352" class="fil3 str0" transform="matrix(0.109281 -0.959942 -0.945625 -0.107426 103.194 24.9883)" rx="4.2042" ry="4.2966"/>
   <path id="_77493864" class="fil2 str0" d="M104.817 27.2049c-2.8448,0.7658 -4.5748,-0.4005 -3.3756,-4.08"/>
   <ellipse id="_77493912" class="fil3 str1" transform="matrix(0.260716 -0.930362 -0.916486 -0.256294 116.655 60.984)" rx="4.2042" ry="4.2966"/>
   <path id="_77504008" class="fil2 str1" d="M117.905 63.4303c-2.9304,0.3041 -4.4527,-1.1222 -2.683,-4.5644"/>
   <ellipse id="_77504056" class="fil3 str1" transform="matrix(0.246088 -0.93433 -0.920394 -0.241914 116.261 53.2241)" rx="4.2042" ry="4.2966"/>
   <path id="_77510536" class="fil2 str1" d="M117.55 55.6506c-2.9254,0.3499 -4.4698,-1.0524 -2.7543,-4.5219"/>
   <ellipse id="_77510584" class="fil3 str1" transform="matrix(0.328566 -0.908666 -0.895114 -0.322992 114.48 45.4495)" rx="4.2042" ry="4.2966"/>
   <path id="_77513024" class="fil2 str1" d="M115.547 47.9811c-2.945,0.0878 -4.3581,-1.4466 -2.3395,-4.7493"/>
   <ellipse id="_77513072" class="fil3 str0" transform="matrix(0.0823158 -0.962623 -0.948266 -0.0809193 111.566 38.3102)" rx="4.2042" ry="4.2966"/>
   <path id="_77523256" class="fil2 str0" d="M113.251 40.4805c-2.8223,0.8451 -4.5843,-0.2723 -3.4887,-3.9839"/>
   <ellipse id="_77523304" class="fil3 str0" transform="matrix(0.134529 -0.956737 -0.942467 -0.132246 108.007 31.2035)" rx="4.2042" ry="4.2966"/>
   <path id="_77525840" class="fil2 str0" d="M109.571 33.462c-2.864,0.6908 -4.5627,-0.5206 -3.2669,-4.1673"/>
   <ellipse id="_77525888" class="fil3 str0" transform="matrix(-0.122174 -0.958389 -0.944095 0.120102 70.0505 116.011)" rx="4.2042" ry="4.2966"/>
   <path id="_77535968" class="fil2 str0" d="M72.3774 117.596c-2.4242,1.6728 -4.4452,1.1521 -4.548,-2.7161"/>
   <ellipse id="_77536016" class="fil3 str0" transform="matrix(0.107145 -0.960182 -0.945861 -0.105326 77.7787 114.188)" rx="4.2042" ry="4.2966"/>
   <path id="_77538528" class="fil2 str0" d="M79.7932 115.926c-2.595,1.3937 -4.5456,0.6523 -4.2181,-3.2034"/>
   <ellipse id="_77538576" class="fil3 str0" transform="matrix(0.151814 -0.954152 -0.939921 -0.149238 85.2804 111.149)" rx="4.2042" ry="4.2966"/>
   <path id="_77548664" class="fil2 str0" d="M87.3001 112.841c-2.5819,1.418 -4.5394,0.6947 -4.2478,-3.164"/>
   <ellipse id="_77548712" class="fil3 str0" transform="matrix(0.0301065 -0.965661 -0.951258 -0.0295958 92.2276 107.341)" rx="4.2042" ry="4.2966"/>
   <path id="_77551184" class="fil2 str0" d="M94.0275 109.417c-2.7723,0.9962 -4.5922,-0.0244 -3.6992,-3.7898"/>
   <ellipse id="_77551232" class="fil3 str0" transform="matrix(0.227179 -0.939097 -0.92509 -0.223325 98.4428 102.416)" rx="4.2042" ry="4.2966"/>
   <path id="_77561248" class="fil2 str0" d="M99.7792 104.816c-2.9178,0.4088 -4.4902,-0.9621 -2.8451,-4.4654"/>
   <ellipse id="_77561296" class="fil3 str0" transform="matrix(0.0168607 -0.965982 -0.951575 -0.0165746 103.908 96.7564)" rx="4.2042" ry="4.2966"/>
   <path id="_77563768" class="fil2 str0" d="M105.736 98.8078c-2.7584,1.0341 -4.5922,0.0384 -3.7508,-3.7388"/>
   <ellipse id="_77563816" class="fil3 str0" transform="matrix(-0.0398447 -0.965309 -0.950911 0.0391687 108.836 90.5378)" rx="4.2042" ry="4.2966"/>
   <path id="_77573848" class="fil2 str0" d="M110.781 92.4786c-2.693,1.1938 -4.582,0.3072 -3.9637,-3.5128"/>
   <ellipse id="_77573896" class="fil3 str1" transform="matrix(0.0993994 -0.961013 -0.94668 -0.097713 112.275 83.5085)" rx="4.2042" ry="4.2966"/>
   <path id="_77580160" class="fil2 str1" d="M113.922 85.7084c-2.8368,0.7949 -4.5787,-0.3536 -3.4174,-4.0452"/>
   <ellipse id="_77580208" class="fil3 str1" transform="matrix(0.332859 -0.907106 -0.893576 -0.327211 114.974 76.3475)" rx="4.2042" ry="4.2966"/>
   <path id="_77582688" class="fil2 str1" d="M116.028 78.8841c-2.9454,0.0739 -4.3512,-1.4672 -2.3169,-4.7603"/>
   <ellipse id="_77582760" class="fil3 str1" transform="matrix(0.46953 -0.844634 -0.832036 -0.461564 116.677 68.8169)" rx="4.2042" ry="4.2966"/>
   <path id="_77592808" class="fil2 str1" d="M117.325 71.4861c-2.9212,-0.3829 -4.071,-2.123 -1.5507,-5.0615"/>
   <path id="_77592856" class="fil3" d="M56.5182 94.5485l-2.047 -1.2365c7.6543,-8.5661 -7.8876,-19.0196 -13.7886,-16.8875 -33.6522,-15.8739 -14.656,-33.8526 -13.8095,-22.2085 -7.2139,-5.8984 -5.6313,13.3119 6.1532,11.4193 -0.974,3.9028 11.4479,5.229 19.5703,10.5192 6.3174,4.1146 9.5094,12.4106 3.9216,18.394z"/>
   <path id="_77589808" class="fil3" d="M46.2668 96.1429c0.6771,-1.0222 0.872,-1.1943 1.9036,-1.8485 -3.3131,-2.9996 -6.4926,-1.531 -1.9036,1.8485z"/>
   <polygon id="_77598480" class="fil3" points="36.0303,91.9151 33.3248,90.5291 33.2439,92.1461 35.9956,93.9594 "/>
   <path id="_77598528" class="fil3" d="M44.4012 91.3145c-1.0705,0.3684 -1.5579,0.5599 -1.8499,2.0328 -6.6445,-2.8219 -3.7566,-9.4451 1.8499,-2.0328z"/>
   <path id="_77601680" class="fil3" d="M40.7938 93.9479c-1.0029,0.1421 -1.13,0.0526 -1.6649,0.9009 -3.3112,-2.7213 -2.0364,-4.6413 1.6649,-0.9009z"/>
   <path id="_77604472" class="fil3" d="M34.5503 86.6483c2.4633,0.8257 3.0311,1.6686 3.0407,2.0559l0 2.2636c-1.0036,0.1211 -1.9429,-0.8986 -3.0407,-1.9171l0 -2.4024z"/>
   <path id="_77611048" class="fil3" d="M24.5607 85.6781c3.1604,6.8529 8.2412,13.5843 12.327,10.969 0.1107,-0.0709 0.0847,-0.4392 -0.4595,-0.6882 -1.9436,-0.8893 -7.6434,-3.1107 -11.8675,-10.2808z"/>
   <path id="_77607704" class="fil3" d="M32.4775 90.0949l-0.2858 2.3746c-5.4336,-4.3574 -9.1211,-10.0654 -11.3771,-16.0314 3.4864,4.9587 6.6106,9.638 11.6629,13.6568z"/>
   <path id="_77039624" class="fil3" d="M59.7708 99.9535l1.0418 0c0.1533,-0.0001 0.2775,0.124 0.2775,0.2771l0 4.5739c0,0.153 -0.1242,0.2771 -0.2774,0.2771l-1.0419 0.0001c-0.1532,-0.0001 -0.2774,-0.1242 -0.2774,-0.2773l-0.0001 -4.5737c0.0001,-0.1532 0.1243,-0.2773 0.2776,-0.2773z"/>
   <path id="_77040528" class="fil3" d="M61.5593 96.4889c-4.65,1.0782 -12.5333,-6.0984 -14.0543,1.3692 -0.3357,0.096 -0.8917,0.1384 -1.2536,-0.2262 -6.1183,-6.1651 -11.5871,-0.4213 -6.9375,2.7147 0.1756,-1.1455 -0.0428,-2.1461 0.3201,-2.6091 2.5175,-3.2109 5.2293,4.5617 7.9864,5.6483 2.2232,0.8762 6.0694,0.3467 5.0708,-4.1215 -2.6501,1.3709 -2.8769,-0.0532 -2.9461,-0.4525 -0.4222,-2.4334 7.8161,-5.0207 7.0481,6.5959l1.9016 -0.4061 0.1383 -4.3892c0.0377,-1.1724 0.676,-1.9722 2.7262,-1.8597l0 -2.2638z"/>
   <path id="_77040064" class="fil3" d="M66.5805 94.5485l2.047 -1.2365c-7.6542,-8.5661 7.8876,-19.0196 13.7886,-16.8875 33.6522,-15.8739 14.656,-33.8526 13.8095,-22.2085 7.2139,-5.8984 5.6313,13.3119 -6.1532,11.4193 0.974,3.9028 -11.4479,5.229 -19.5703,10.5192 -6.3174,4.1146 -9.5094,12.4106 -3.9216,18.394z"/>
   <path id="_77040824" class="fil3" d="M76.8319 96.1429c-0.6771,-1.0222 -0.872,-1.1943 -1.9036,-1.8485 3.3131,-2.9996 6.4926,-1.531 1.9036,1.8485z"/>
   <polygon id="_77630208" class="fil3" points="87.0684,91.9151 89.7739,90.5291 89.8548,92.1461 87.1031,93.9594 "/>
   <path id="_77630256" class="fil3" d="M82.3049 93.9479c1.0029,0.1421 1.13,0.0526 1.6649,0.9009 3.3112,-2.7213 2.0364,-4.6413 -1.6649,-0.9009z"/>
   <path id="_77635688" class="fil3" d="M98.5379 85.6781c-3.1604,6.8529 -8.2412,13.5843 -12.327,10.969 -0.1107,-0.0709 -0.0847,-0.4392 0.4595,-0.6882 1.9436,-0.8893 7.6434,-3.1107 11.8675,-10.2808z"/>
   <path id="_77633008" class="fil3" d="M90.6212 90.0949l0.2858 2.3746c5.4336,-4.3574 9.1211,-10.0654 11.3771,-16.0314 -3.4864,4.9587 -6.6106,9.638 -11.6629,13.6568z"/>
   <path id="_77644016" class="fil3" d="M62.2861 99.9535l1.0418 0c0.1533,-0.0001 0.2775,0.124 0.2775,0.2771l0 4.5739c0,0.153 -0.1242,0.2771 -0.2775,0.2771l-1.0418 0.0001c-0.1532,-0.0001 -0.2775,-0.1242 -0.2775,-0.2773l0 -4.5737c0,-0.1532 0.1243,-0.2773 0.2775,-0.2773z"/>
   <path id="_77643832" class="fil3" d="M61.5394 96.4889c4.65,1.0782 12.5333,-6.0984 14.0543,1.3692 0.3357,0.096 0.8917,0.1384 1.2536,-0.2262 6.1184,-6.1651 11.5871,-0.4213 6.9375,2.7147 -0.1756,-1.1455 0.0428,-2.1461 -0.3201,-2.6091 -2.5175,-3.2109 -5.2293,4.5617 -7.9863,5.6483 -2.2233,0.8762 -6.0695,0.3467 -5.0709,-4.1215 2.6501,1.3709 2.8769,-0.0532 2.9461,-0.4525 0.4222,-2.4334 -7.8161,-5.0207 -7.0481,6.5959l-1.9016 -0.4061 -0.1383 -4.3892c-0.0377,-1.1724 -0.676,-1.9722 -2.7262,-1.8597l0 -2.2638z"/>
   <rect id="_77651808" class="fil3" x="42.5513" y="39.7553" width="3.42236" height="21.714"/>
   <g id="_44757456">
    <path id="_77443672" class="fil3" d="M43.8584 79.4997c-0.9719,0.6789 -1.107,0.8626 -1.5195,1.9739 -3.8289,-2.03 -3.8411,-6.8962 1.5195,-1.9739z"/>
    <path id="_77440360" class="fil3" d="M41.8113 85.9784c-0.7153,-1.7024 -0.0481,-2.8937 1.7112,-1.9635l3.4686 3.7422c1.2408,2.3067 0.0625,2.9022 -1.7574,1.7094l-3.4224 -3.4881z"/>
    <path id="_77442672" class="fil3" d="M42.6438 82.652c-1.259,0.463 -1.3247,0.4991 -1.8962,1.7094 -5.1578,-3.0682 -2.8888,-5.8153 1.8962,-1.7094z"/>
    <path id="_77447208" class="fil3" d="M40.5395 86.0708c-1.0551,0.1942 -1.4336,0.3615 -2.3007,0.9933 -3.7741,-2.095 -1.8446,-6.6217 2.3007,-0.9933z"/>
    <path id="_79088320" class="fil3" d="M33.5681 89.2748c-2.213,-0.11 -10.4974,-9.6321 -13.3548,-16.901 4.0112,5.1509 8.0423,10.1698 13.3548,13.9551l0 2.9459z"/>
    <path id="_77446208" class="fil3" d="M18.826 64.5185c4.0745,8.3666 9.0471,13.677 16.4181,18.7572l0 2.3562 -1.4337 0c-9.2296,-8.9812 -13.5749,-11.9091 -14.9844,-21.1134z"/>
    <path id="_77816304" class="fil3" d="M35.2429 82.3773c-9.014,-7.5214 -15.4482,-13.6914 -16.6482,-22.8262 4.1126,8.9988 8.909,14.4643 18.2448,21.1837 0,1.7295 0.1298,1.5376 -1.5966,1.6425z"/>
    <path id="_77452080" class="fil3" d="M20.9981 51.4622c-3.9286,9.3949 4.2266,18.5117 17.6324,25.5291 0.4142,1.7884 0.5792,2.2567 -1.6046,2.2006 -7.7383,-3.9076 -23.4039,-20.3337 -16.0278,-27.7297z"/>
    <path id="_77196488" class="fil3" d="M89.5306 89.2748c2.213,-0.11 10.4974,-9.6321 13.3548,-16.901 -4.0112,5.1509 -8.0423,10.1698 -13.3548,13.9551l0 2.9459z"/>
    <path id="_77918328" class="fil3" d="M104.273 64.5185c-4.0745,8.3666 -9.0471,13.677 -16.4181,18.7572l0 2.3562 1.4337 0c9.2296,-8.9812 13.5749,-11.9091 14.9844,-21.1134z"/>
    <path id="_77315336" class="fil3" d="M87.8558 82.3773c9.014,-7.5214 15.4482,-13.6914 16.6482,-22.8262 -4.1126,8.9988 -8.909,14.4643 -18.2448,21.1837 0,1.7295 -0.1298,1.5376 1.5966,1.6425z"/>
    <path id="_77817304" class="fil3" d="M102.101 51.4622c3.9286,9.3949 -4.2266,18.5117 -17.6324,25.5291 -0.4142,1.7884 -0.5792,2.2567 1.6046,2.2006 7.7383,-3.9076 23.404,-20.3337 16.0278,-27.7297z"/>
    <path id="_77840704" class="fil3" d="M40.8863 51.1205l-11.0995 0 0 10.8108 11.0995 0 0 -10.8108zm-7.3072 3.5112l3.7924 0 0 3.8808 -3.7924 0 0 -3.8808z"/>
    <rect id="_77813768" class="fil3" x="42.5513" y="58.1429" width="35.1486" height="3.3264"/>
    <rect id="_77819352" class="fil3" x="85.2383" y="47.7941" width="6.84473" height="3.0954"/>
    <rect id="_77444672" class="fil3" x="83.3421" y="58.0967" width="8.7409" height="3.3726"/>
    <rect id="_77818768" class="fil3" x="88.6607" y="47.7941" width="3.42236" height="13.6752"/>
   </g>
   <g id="_77838256">
    <rect id="_77388720" class="fil3" x="79.2261" y="18.5957" width="3.28362" height="3.4188"/>
    <rect id="_67202064" class="fil3" x="74.4007" y="18.6344" width="3.24568" height="3.3713"/>
    <polygon id="_67182192" class="fil3" points="80.5673,24.6941 77.4486,24.6941 77.451,31.5825 74.8366,31.5785 74.8405,26.9308 67.4039,26.9257 67.4007,31.6579 62.6256,31.6524 49.8267,31.6598 49.8277,39.8293 47.3927,39.8193 47.3958,41.5085 53.3311,41.5084 53.2537,34.5489 62.5802,34.5457 67.4018,34.5298 67.4007,39.2557 74.781,39.2496 74.7759,34.4877 80.5557,34.4842 "/>
    <rect id="_77305736" class="fil3" x="58.9719" y="21.0905" width="3.47662" height="18.435"/>
    <rect id="_77714896" class="fil3" x="58.9231" y="16.6553" width="3.42236" height="3.234"/>
    <rect id="_77715232" class="fil0" x="70.069" y="29.0831" width="2.42803" height="2.541"/>
    <rect id="_67179600" class="fil0" x="70.058" y="34.5328" width="2.52112" height="2.323"/>
    <path id="_25846928" class="fil3" d="M72.1732 16.7845l-2.6823 0c-1.4037,11.5085 -17.1883,10.0013 -17.1119,0l-3.0341 0c0.8625,13.9515 21.1322,15.1551 22.8283,0z"/>
    <path id="_77326000" class="fil3" d="M52.8856 89.9568c-0.9189,-6.4734 3.2858,-5.8485 2.5227,-0.1207 -0.0029,0.0216 -1.5232,0.4467 -2.2756,0.3286 -0.2942,-0.0462 -0.1926,0.1758 -0.2471,-0.2079z"/>
    <path id="_25846856" class="fil3" d="M53.3733 92.9315l-3.7461 0.3234c-0.1156,-5.5635 3.1384,-2.5131 3.7461,-0.3234z"/>
    <path id="_44663320" class="fil3" d="M51.8934 88.658c-1.3152,-0.3271 -2.0048,0.0617 -2.8674,1.7325 -3.3863,-5.5979 -0.0367,-8.4992 2.8674,-1.7325z"/>
    <path id="_77442208" class="fil3" d="M53.8358 83.5067c-1.7884,0.6468 -1.4851,1.0244 -1.9424,2.8182 -5.0589,-4.4304 -3.9753,-8.3827 1.9424,-2.8182z"/>
    <path id="_67201008" class="fil3" d="M47.9392 79.1407c-6.5272,-3.4467 -3.7375,1.552 -0.3006,2.6566 -0.4429,-1.4659 -0.4482,-1.7939 0.3006,-2.6566z"/>
    <path id="_67202856" class="fil3" d="M46.8414 86.129c-4.7322,-4.1482 -4.3993,-7.6546 1.8037,-2.3913 -1.4759,0.7808 -1.4866,0.7555 -1.8037,2.3913z"/>
    <path id="_77836456" class="fil3" d="M70.2131 89.9568c0.9189,-6.4734 -3.2857,-5.8485 -2.5227,-0.1207 0.0029,0.0216 1.5232,0.4467 2.2756,0.3286 0.2942,-0.0462 0.1926,0.1758 0.2471,-0.2079z"/>
    <path id="_77835808" class="fil3" d="M69.7254 92.9315l3.7461 0.3234c0.1156,-5.5635 -3.1384,-2.5131 -3.7461,-0.3234z"/>
    <path id="_77835232" class="fil3" d="M71.2053 88.658c1.3152,-0.3271 2.0048,0.0617 2.8674,1.7325 3.3863,-5.5979 0.0367,-8.4992 -2.8674,-1.7325z"/>
    <path id="_77834584" class="fil3" d="M69.2629 83.5067c1.7884,0.6468 1.4851,1.0244 1.9424,2.8182 5.0589,-4.4304 3.9753,-8.3827 -1.9424,-2.8182z"/>
    <path id="_77445672" class="fil3" d="M75.1595 79.1407c6.5272,-3.4467 3.7375,1.552 0.3006,2.6566 0.4429,-1.4659 0.4482,-1.7939 -0.3006,-2.6566z"/>
    <path id="_77922288" class="fil3" d="M78.6975 91.3145c1.0705,0.3684 1.5579,0.5599 1.8499,2.0328 6.6446,-2.8219 3.7566,-9.4451 -1.8499,-2.0328z"/>
    <path id="_77595224" class="fil3" d="M76.2573 86.129c4.7322,-4.1482 4.3993,-7.6546 -1.8037,-2.3913 1.4759,0.7808 1.4866,0.7555 1.8037,2.3913z"/>
    <path id="_78830240" class="fil3" d="M79.2403 79.4997c0.9719,0.6789 1.107,0.8626 1.5196,1.9739 3.8288,-2.03 3.8411,-6.8962 -1.5196,-1.9739z"/>
    <path id="_77597272" class="fil3" d="M81.2874 85.9784c0.7153,-1.7024 0.0482,-2.8937 -1.7112,-1.9635l-3.4686 3.7422c-1.2408,2.3067 -0.0625,2.9022 1.7574,1.7094l3.4224 -3.4881z"/>
    <path id="_78468736" class="fil3" d="M80.4549 82.652c1.259,0.463 1.3247,0.4991 1.8962,1.7094 5.1578,-3.0682 2.8888,-5.8153 -1.8962,-1.7094z"/>
    <path id="_65852776" class="fil3" d="M82.5592 86.0708c1.0551,0.1942 1.4336,0.3615 2.3007,0.9933 3.7742,-2.095 1.8446,-6.6217 -2.3007,-0.9933z"/>
    <path id="_77297208" class="fil3" d="M88.5484 86.6483c-2.4633,0.8257 -3.0311,1.6686 -3.0407,2.0559l0 2.2636c1.0036,0.1211 1.9429,-0.8986 3.0407,-1.9171l0 -2.4024z"/>
    <rect id="_77447672" class="fil3" x="79.2723" y="39.8477" width="3.38062" height="16.6828"/>
    <rect id="_77446672" class="fil3" x="74.185" y="47.9789" width="3.51486" height="13.4904"/>
    <rect id="_77305208" class="fil3" x="69.0052" y="52.5065" width="3.46861" height="7.0686"/>
    <rect id="_77823736" class="fil3" x="58.9948" y="52.5065" width="3.46861" height="7.0686"/>
    <rect id="_77840128" class="fil3" x="64.1001" y="52.5065" width="3.46861" height="7.0686"/>
    <rect id="_77819864" class="fil3" x="68.9127" y="47.8403" width="3.51486" height="3.4188"/>
    <rect id="_77741072" class="fil3" x="64.1077" y="47.8403" width="3.51486" height="3.4188"/>
    <rect id="_77820448" class="fil3" x="74.2182" y="43.7285" width="3.51486" height="2.9306"/>
    <rect id="_77821544" class="fil3" x="66.4101" y="43.7978" width="3.51486" height="2.8613"/>
    <rect id="_77820960" class="fil3" x="50.2285" y="43.9978" width="12.0886" height="2.8613"/>
    <rect id="_77842192" class="fil3" x="50.1932" y="43.9978" width="3.13386" height="15.9007"/>
    <rect id="_77448208" class="fil3" x="44.5862" y="51.2403" width="7.52023" height="3.4188"/>
    <rect id="_77843416" class="fil3" x="53.6508" y="41.9404" width="4.96237" height="1.1183"/>
   </g>
  </g>
 </g>
</svg>
