<svg xmlns="http://www.w3.org/2000/svg" width="500" height="216.05" viewbox="0 0 502 216.05">
<path fill="#00356B" d="M166.357,45.372l-50.924,85.802v57.718c5.862,13.888,20.678,15.738,34.877,16.357v8.024H50.617v-8.024c14.198-0.619,31.482-2.777,36.111-12.035v-59.571L34.876,45.988C25.927,31.173,17.285,26.237,0,25.001v-8.024h86.729v8.024c-16.359,0.925-21.605,4.014-26.234,7.719l48.148,83.33l47.222-83.024c-4.938-3.703-11.419-7.1-27.777-8.024v-8.024h74.073v8.024C185.494,25.62,175,31.173,166.357,45.372z M267.591,216.051c-16.665,0-24.691-11.421-25.308-19.443c-10.495,11.11-24.073,19.443-37.036,19.443c-16.667,0-30.866-10.186-30.866-27.775c0-8.645,2.161-17.596,6.483-24.693l61.419-22.223v-22.84c0-13.888-6.482-27.16-20.371-27.16c-8.333,0-16.358,10.183-16.974,25.926l-27.78,4.627v-3.083c9.259-27.781,39.816-38.581,54.629-38.581c28.087,0,38.272,14.813,37.964,37.653l-0.925,64.814c-0.309,12.655,6.48,15.741,12.654,15.741c4.937,0,9.875-3.086,15.741-8.949v8.949C290.432,206.484,278.396,216.051,267.591,216.051z M205.864,165.743c-1.235,4.937-2.16,9.258-2.16,16.049c0,9.258,5.247,18.516,15.431,18.516c9.259,0,14.506-3.083,22.84-9.566l0.308-41.669C234.259,152.777,214.507,161.422,205.864,165.743z M300,213.273v-7.1c13.888-0.925,17.898-4.011,20.371-9.261V37.036c0-10.494-1.545-14.813-22.841-16.666v-6.172L354.013,0l1.85,5.25l-8.949,11.11v180.553c3.086,6.175,8.949,8.336,21.604,9.261v7.1H300z M442.59,215.742c-32.406,0-57.407-25.617-57.407-61.42c0-43.828,26.854-73.767,64.817-73.767c30.554,0,47.53,17.288,47.53,44.755v5.555l-83.333-0.616c-0.616,3.394-0.928,8.952-0.928,15.74c0,31.481,19.754,52.16,45.991,52.16c15.738,0,23.765-5.556,36.108-16.049l4.63,7.097C482.407,205.249,467.9,215.742,442.59,215.742z M445.371,90.126c-15.435,0-26.234,12.344-29.939,31.787l54.324-0.616C469.755,104.939,459.567,90.126,445.371,90.126z"/>
</svg>
