<?xml version="1.0" encoding="utf-8" standalone="no"?>
<!DOCTYPE svg PUBLIC "-//W3C//DTD SVG 1.1//EN"
  "http://www.w3.org/Graphics/SVG/1.1/DTD/svg11.dtd">
<svg xmlns:xlink="http://www.w3.org/1999/xlink" width="245.692187pt" height="184.798125pt" viewBox="0 0 245.692187 184.798125" xmlns="http://www.w3.org/2000/svg" version="1.1">
 <metadata>
  <rdf:RDF xmlns:dc="http://purl.org/dc/elements/1.1/" xmlns:cc="http://creativecommons.org/ns#" xmlns:rdf="http://www.w3.org/1999/02/22-rdf-syntax-ns#">
   <cc:Work>
    <dc:type rdf:resource="http://purl.org/dc/dcmitype/StillImage"/>
    <dc:date>2022-12-10T17:08:45.125022</dc:date>
    <dc:format>image/svg+xml</dc:format>
    <dc:creator>
     <cc:Agent>
      <dc:title>Matplotlib v3.5.1, https://matplotlib.org/</dc:title>
     </cc:Agent>
    </dc:creator>
   </cc:Work>
  </rdf:RDF>
 </metadata>
 <defs>
  <style type="text/css">*{stroke-linejoin: round; stroke-linecap: butt}</style>
 </defs>
 <g id="figure_1">
  <g id="patch_1">
   <path d="M 0 184.798125 
L 245.692187 184.798125 
L 245.692187 0 
L 0 0 
z
" style="fill: #ffffff"/>
  </g>
  <g id="axes_1">
   <g id="patch_2">
    <path d="M 28.942188 160.92 
L 224.242188 160.92 
L 224.242188 22.32 
L 28.942188 22.32 
z
" style="fill: #ffffff"/>
   </g>
   <g id="matplotlib.axis_1">
    <g id="xtick_1">
     <g id="line2d_1">
      <defs>
       <path id="m46486f1853" d="M 0 0 
L 0 3.5 
" style="stroke: #000000; stroke-width: 0.8"/>
      </defs>
      <g>
       <use xlink:href="#m46486f1853" x="37.81946" y="160.92" style="stroke: #000000; stroke-width: 0.8"/>
      </g>
     </g>
     <g id="text_1">
      <!-- 0 -->
      <g transform="translate(34.63821 175.518438)scale(0.1 -0.1)">
       <defs>
        <path id="DejaVuSans-30" d="M 2034 4250 
Q 1547 4250 1301 3770 
Q 1056 3291 1056 2328 
Q 1056 1369 1301 889 
Q 1547 409 2034 409 
Q 2525 409 2770 889 
Q 3016 1369 3016 2328 
Q 3016 3291 2770 3770 
Q 2525 4250 2034 4250 
z
M 2034 4750 
Q 2819 4750 3233 4129 
Q 3647 3509 3647 2328 
Q 3647 1150 3233 529 
Q 2819 -91 2034 -91 
Q 1250 -91 836 529 
Q 422 1150 422 2328 
Q 422 3509 836 4129 
Q 1250 4750 2034 4750 
z
" transform="scale(0.015625)"/>
       </defs>
       <use xlink:href="#DejaVuSans-30"/>
      </g>
     </g>
    </g>
    <g id="xtick_2">
     <g id="line2d_2">
      <g>
       <use xlink:href="#m46486f1853" x="73.328551" y="160.92" style="stroke: #000000; stroke-width: 0.8"/>
      </g>
     </g>
     <g id="text_2">
      <!-- 5 -->
      <g transform="translate(70.147301 175.518438)scale(0.1 -0.1)">
       <defs>
        <path id="DejaVuSans-35" d="M 691 4666 
L 3169 4666 
L 3169 4134 
L 1269 4134 
L 1269 2991 
Q 1406 3038 1543 3061 
Q 1681 3084 1819 3084 
Q 2600 3084 3056 2656 
Q 3513 2228 3513 1497 
Q 3513 744 3044 326 
Q 2575 -91 1722 -91 
Q 1428 -91 1123 -41 
Q 819 9 494 109 
L 494 744 
Q 775 591 1075 516 
Q 1375 441 1709 441 
Q 2250 441 2565 725 
Q 2881 1009 2881 1497 
Q 2881 1984 2565 2268 
Q 2250 2553 1709 2553 
Q 1456 2553 1204 2497 
Q 953 2441 691 2322 
L 691 4666 
z
" transform="scale(0.015625)"/>
       </defs>
       <use xlink:href="#DejaVuSans-35"/>
      </g>
     </g>
    </g>
    <g id="xtick_3">
     <g id="line2d_3">
      <g>
       <use xlink:href="#m46486f1853" x="108.837642" y="160.92" style="stroke: #000000; stroke-width: 0.8"/>
      </g>
     </g>
     <g id="text_3">
      <!-- 10 -->
      <g transform="translate(102.475142 175.518438)scale(0.1 -0.1)">
       <defs>
        <path id="DejaVuSans-31" d="M 794 531 
L 1825 531 
L 1825 4091 
L 703 3866 
L 703 4441 
L 1819 4666 
L 2450 4666 
L 2450 531 
L 3481 531 
L 3481 0 
L 794 0 
L 794 531 
z
" transform="scale(0.015625)"/>
       </defs>
       <use xlink:href="#DejaVuSans-31"/>
       <use xlink:href="#DejaVuSans-30" x="63.623047"/>
      </g>
     </g>
    </g>
    <g id="xtick_4">
     <g id="line2d_4">
      <g>
       <use xlink:href="#m46486f1853" x="144.346733" y="160.92" style="stroke: #000000; stroke-width: 0.8"/>
      </g>
     </g>
     <g id="text_4">
      <!-- 15 -->
      <g transform="translate(137.984233 175.518438)scale(0.1 -0.1)">
       <use xlink:href="#DejaVuSans-31"/>
       <use xlink:href="#DejaVuSans-35" x="63.623047"/>
      </g>
     </g>
    </g>
    <g id="xtick_5">
     <g id="line2d_5">
      <g>
       <use xlink:href="#m46486f1853" x="179.855824" y="160.92" style="stroke: #000000; stroke-width: 0.8"/>
      </g>
     </g>
     <g id="text_5">
      <!-- 20 -->
      <g transform="translate(173.493324 175.518438)scale(0.1 -0.1)">
       <defs>
        <path id="DejaVuSans-32" d="M 1228 531 
L 3431 531 
L 3431 0 
L 469 0 
L 469 531 
Q 828 903 1448 1529 
Q 2069 2156 2228 2338 
Q 2531 2678 2651 2914 
Q 2772 3150 2772 3378 
Q 2772 3750 2511 3984 
Q 2250 4219 1831 4219 
Q 1534 4219 1204 4116 
Q 875 4013 500 3803 
L 500 4441 
Q 881 4594 1212 4672 
Q 1544 4750 1819 4750 
Q 2544 4750 2975 4387 
Q 3406 4025 3406 3419 
Q 3406 3131 3298 2873 
Q 3191 2616 2906 2266 
Q 2828 2175 2409 1742 
Q 1991 1309 1228 531 
z
" transform="scale(0.015625)"/>
       </defs>
       <use xlink:href="#DejaVuSans-32"/>
       <use xlink:href="#DejaVuSans-30" x="63.623047"/>
      </g>
     </g>
    </g>
    <g id="xtick_6">
     <g id="line2d_6">
      <g>
       <use xlink:href="#m46486f1853" x="215.364915" y="160.92" style="stroke: #000000; stroke-width: 0.8"/>
      </g>
     </g>
     <g id="text_6">
      <!-- 25 -->
      <g transform="translate(209.002415 175.518438)scale(0.1 -0.1)">
       <use xlink:href="#DejaVuSans-32"/>
       <use xlink:href="#DejaVuSans-35" x="63.623047"/>
      </g>
     </g>
    </g>
   </g>
   <g id="matplotlib.axis_2">
    <g id="ytick_1">
     <g id="line2d_7">
      <defs>
       <path id="m1ad9b93155" d="M 0 0 
L -3.5 0 
" style="stroke: #000000; stroke-width: 0.8"/>
      </defs>
      <g>
       <use xlink:href="#m1ad9b93155" x="28.942188" y="124.308052" style="stroke: #000000; stroke-width: 0.8"/>
      </g>
     </g>
     <g id="text_7">
      <!-- −2 -->
      <g transform="translate(7.2 128.107271)scale(0.1 -0.1)">
       <defs>
        <path id="DejaVuSans-2212" d="M 678 2272 
L 4684 2272 
L 4684 1741 
L 678 1741 
L 678 2272 
z
" transform="scale(0.015625)"/>
       </defs>
       <use xlink:href="#DejaVuSans-2212"/>
       <use xlink:href="#DejaVuSans-32" x="83.789062"/>
      </g>
     </g>
    </g>
    <g id="ytick_2">
     <g id="line2d_8">
      <g>
       <use xlink:href="#m1ad9b93155" x="28.942188" y="82.599231" style="stroke: #000000; stroke-width: 0.8"/>
      </g>
     </g>
     <g id="text_8">
      <!-- 0 -->
      <g transform="translate(15.579688 86.39845)scale(0.1 -0.1)">
       <use xlink:href="#DejaVuSans-30"/>
      </g>
     </g>
    </g>
    <g id="ytick_3">
     <g id="line2d_9">
      <g>
       <use xlink:href="#m1ad9b93155" x="28.942188" y="40.89041" style="stroke: #000000; stroke-width: 0.8"/>
      </g>
     </g>
     <g id="text_9">
      <!-- 2 -->
      <g transform="translate(15.579688 44.689629)scale(0.1 -0.1)">
       <use xlink:href="#DejaVuSans-32"/>
      </g>
     </g>
    </g>
   </g>
   <g id="line2d_10">
    <path d="M 37.81946 112.946962 
L 38.531065 113.671803 
L 39.24267 114.101506 
L 39.954275 114.21723 
L 40.66588 114.001451 
L 41.377485 113.439075 
L 42.08909 112.518579 
L 42.800695 111.233187 
L 43.5123 109.581959 
L 44.579708 106.433754 
L 45.647116 102.527715 
L 47.070326 96.299785 
L 48.849338 87.324787 
L 53.474771 63.289885 
L 54.897981 57.256515 
L 55.965388 53.501639 
L 57.032796 50.509548 
L 57.744401 48.974699 
L 58.456006 47.828553 
L 59.167611 47.086153 
L 59.879216 46.760476 
L 60.590821 46.862581 
L 61.302426 47.401565 
L 62.014031 48.384268 
L 62.725636 49.814808 
L 63.437241 51.693918 
L 64.504649 55.34486 
L 65.572056 59.96319 
L 66.639464 65.485624 
L 68.062674 74.082558 
L 69.841686 86.337871 
L 75.534527 126.953115 
L 76.957737 135.142371 
L 78.380947 141.946863 
L 79.448354 146.078952 
L 80.515762 149.371842 
L 81.583169 151.843389 
L 82.294774 153.048408 
L 83.00638 153.908958 
L 83.717985 154.43157 
L 84.42959 154.62 
L 85.141195 154.474519 
L 85.8528 153.991654 
L 86.564405 153.164292 
L 87.27601 151.982313 
L 87.987615 150.433586 
L 89.055022 147.39499 
L 90.12243 143.464881 
L 91.189837 138.623103 
L 92.257245 132.879253 
L 93.680455 123.908842 
L 95.459468 110.952021 
L 99.017493 82.437464 
L 101.152308 66.472249 
L 102.575518 57.354129 
L 103.642925 51.571997 
L 104.710333 46.79173 
L 105.77774 43.041039 
L 106.845148 40.293199 
L 107.556753 38.982235 
L 108.268358 38.049778 
L 108.979963 37.454856 
L 109.691568 37.150984 
L 110.403173 37.088007 
L 111.114778 37.214097 
L 112.182186 37.646004 
L 116.451816 39.768802 
L 120.365644 41.060265 
L 121.433051 41.852858 
L 122.144656 42.629235 
L 122.856261 43.650927 
L 123.567866 44.951203 
L 124.635274 47.475507 
L 125.702681 50.719945 
L 126.770089 54.666285 
L 128.193299 60.878203 
L 130.328114 71.514327 
L 133.174534 85.670602 
L 134.597744 91.654773 
L 135.665152 95.350104 
L 136.732559 98.256053 
L 137.444164 99.730613 
L 138.155769 100.832794 
L 138.867374 101.571795 
L 139.578979 101.966067 
L 140.290584 102.042568 
L 141.002189 101.835804 
L 141.713794 101.386748 
L 142.781202 100.361059 
L 144.560214 98.142609 
L 146.339227 96.00757 
L 147.406635 95.088653 
L 148.11824 94.713144 
L 148.829845 94.564157 
L 149.54145 94.664215 
L 150.253055 95.026932 
L 150.96466 95.656498 
L 151.676265 96.547468 
L 152.743672 98.338783 
L 153.81108 100.594279 
L 155.590092 105.024359 
L 158.08071 111.326775 
L 159.148118 113.571594 
L 160.215525 115.313531 
L 160.92713 116.134309 
L 161.638735 116.650824 
L 162.35034 116.84522 
L 163.061945 116.708478 
L 163.77355 116.240443 
L 164.485155 115.449521 
L 165.19676 114.352116 
L 166.264168 112.184381 
L 167.331575 109.484276 
L 168.754785 105.269476 
L 171.601206 95.873864 
L 174.091823 87.899356 
L 175.870836 82.815912 
L 177.649848 78.362189 
L 179.428861 74.560772 
L 180.852071 72.005959 
L 182.275281 69.920407 
L 183.342689 68.698933 
L 184.410096 67.805821 
L 185.477504 67.275017 
L 186.189109 67.138657 
L 186.900714 67.186254 
L 187.612319 67.424409 
L 188.323924 67.857365 
L 189.035529 68.486339 
L 190.102936 69.791037 
L 191.170344 71.504508 
L 192.593554 74.334889 
L 194.372566 78.470964 
L 197.218987 85.181725 
L 198.642197 87.908097 
L 199.709604 89.446936 
L 200.421209 90.187042 
L 201.132814 90.683368 
L 201.844419 90.933205 
L 202.556024 90.943411 
L 203.267629 90.730321 
L 203.979234 90.319104 
L 205.046642 89.404585 
L 206.825654 87.433486 
L 208.604667 85.509636 
L 209.672075 84.636753 
L 210.739482 84.085755 
L 211.451087 83.916828 
L 212.162692 83.905051 
L 213.2301 84.150674 
L 214.65331 84.828668 
L 215.364915 85.235844 
L 215.364915 85.235844 
" clip-path="url(#p61522a14b0)" style="fill: none; stroke: #000000; stroke-opacity: 0.5; stroke-width: 2; stroke-linecap: square"/>
   </g>
   <g id="line2d_11">
    <path d="M 37.81946 97.678448 
L 38.886868 100.09905 
L 40.310078 103.886058 
L 43.156498 111.727302 
L 44.223905 114.085061 
L 44.935511 115.300959 
L 45.647116 116.163396 
L 46.358721 116.621993 
L 46.714523 116.686682 
L 47.070326 116.635942 
L 47.781931 116.17555 
L 48.493536 115.223384 
L 49.205141 113.775096 
L 49.916746 111.839802 
L 50.984153 108.076732 
L 52.051561 103.402377 
L 53.474771 96.088017 
L 58.100204 71.076671 
L 59.167611 66.760537 
L 59.879216 64.479984 
L 60.590821 62.745409 
L 61.302426 61.6022 
L 61.658229 61.262904 
L 62.014031 61.08233 
L 62.369834 61.062186 
L 62.725636 61.203229 
L 63.081439 61.505228 
L 63.793044 62.586224 
L 64.504649 64.283481 
L 65.216254 66.559607 
L 66.283661 70.940679 
L 67.706871 78.207277 
L 70.197489 92.796765 
L 71.976502 102.690394 
L 73.043909 107.734209 
L 74.111317 111.829846 
L 74.822922 113.9618 
L 75.534527 115.589854 
L 76.246132 116.712349 
L 76.957737 117.344736 
L 77.669342 117.518327 
L 78.380947 117.278416 
L 79.092552 116.681788 
L 79.804157 115.793909 
L 80.871564 114.071901 
L 84.42959 107.77565 
L 85.496997 106.441525 
L 86.564405 105.551829 
L 87.27601 105.21361 
L 87.987615 105.068605 
L 88.69922 105.096697 
L 89.766627 105.400528 
L 91.189837 106.106349 
L 93.324652 107.178793 
L 94.39206 107.463058 
L 95.459468 107.461736 
L 96.171073 107.277069 
L 97.23848 106.710671 
L 98.305888 105.808455 
L 99.373295 104.611322 
L 100.796505 102.672112 
L 105.421938 96.00285 
L 106.845148 94.512108 
L 107.912556 93.685019 
L 108.979963 93.113085 
L 110.047371 92.779283 
L 111.114778 92.649165 
L 112.537988 92.70827 
L 116.807618 93.139034 
L 117.875026 93.001605 
L 118.942433 92.676619 
L 120.009841 92.140593 
L 121.077249 91.386132 
L 122.500459 90.060682 
L 124.279471 88.004402 
L 128.193299 83.241838 
L 129.616509 81.948528 
L 130.683916 81.259372 
L 131.751324 80.832099 
L 132.818731 80.65619 
L 133.886139 80.693891 
L 135.309349 80.968193 
L 138.155769 81.570597 
L 139.223177 81.58094 
L 140.290584 81.39375 
L 141.357992 80.997008 
L 142.781202 80.18227 
L 146.69503 77.564903 
L 147.762437 77.212622 
L 148.474042 77.161298 
L 149.185647 77.283873 
L 149.897252 77.598305 
L 150.608857 78.117206 
L 151.320462 78.847484 
L 152.38787 80.339919 
L 153.455277 82.288084 
L 154.878487 85.507257 
L 156.6575 90.264194 
L 160.571328 101.200211 
L 161.994538 104.422987 
L 163.061945 106.30635 
L 163.77355 107.257296 
L 164.485155 107.940799 
L 165.19676 108.34291 
L 165.908365 108.455938 
L 166.61997 108.278757 
L 167.331575 107.816903 
L 168.04318 107.082414 
L 169.110588 105.510742 
L 170.177995 103.451358 
L 171.601206 100.129497 
L 174.091823 93.520986 
L 176.582441 87.103224 
L 178.361453 83.199266 
L 179.784663 80.624248 
L 181.207873 78.553382 
L 182.631083 76.955976 
L 184.054294 75.778797 
L 185.477504 74.965108 
L 186.900714 74.469359 
L 188.323924 74.265799 
L 189.747134 74.35043 
L 190.814541 74.610854 
L 191.881949 75.0507 
L 192.949356 75.680362 
L 194.372566 76.829561 
L 195.795776 78.340365 
L 197.218987 80.205032 
L 198.997999 82.992566 
L 200.777012 86.208115 
L 203.267629 91.223522 
L 211.451087 108.222255 
L 213.585902 111.950804 
L 215.364915 114.683309 
L 215.364915 114.683309 
" clip-path="url(#p61522a14b0)" style="fill: none; stroke: #000000; stroke-opacity: 0.5; stroke-width: 2; stroke-linecap: square"/>
   </g>
   <g id="line2d_12">
    <path d="M 37.81946 67.524309 
L 39.598473 69.459261 
L 41.021683 70.692678 
L 42.08909 71.368663 
L 43.156498 71.805445 
L 44.223905 71.99248 
L 45.291313 71.927304 
L 46.358721 71.612867 
L 47.426128 71.056333 
L 48.493536 70.269449 
L 49.916746 68.894572 
L 51.695758 66.755276 
L 56.676993 60.367816 
L 57.744401 59.41287 
L 58.811809 58.75226 
L 59.879216 58.43114 
L 60.590821 58.420614 
L 61.302426 58.578718 
L 62.014031 58.907043 
L 63.081439 59.715778 
L 64.148846 60.891803 
L 65.216254 62.413141 
L 66.639464 64.926576 
L 68.062674 67.909642 
L 70.197489 72.995169 
L 73.755514 81.627828 
L 75.178724 84.49644 
L 76.246132 86.224062 
L 77.313539 87.509975 
L 78.025144 88.09983 
L 78.736749 88.469624 
L 79.448354 88.622048 
L 80.159959 88.567008 
L 80.871564 88.321386 
L 81.938972 87.647992 
L 83.362182 86.34148 
L 86.920207 82.732778 
L 87.987615 81.95212 
L 89.055022 81.399411 
L 90.12243 81.06434 
L 91.54564 80.869851 
L 94.39206 80.585439 
L 95.459468 80.230009 
L 96.526875 79.629497 
L 97.594283 78.759946 
L 99.017493 77.220831 
L 103.287123 72.089375 
L 104.35453 71.373466 
L 105.066135 71.149163 
L 105.77774 71.151496 
L 106.489345 71.38956 
L 107.20095 71.860834 
L 107.912556 72.55074 
L 108.979963 73.934792 
L 110.403173 76.212652 
L 112.537988 79.676928 
L 113.605396 81.013655 
L 114.317001 81.645714 
L 115.028606 82.030465 
L 115.740211 82.147626 
L 116.451816 81.990843 
L 117.163421 81.56806 
L 117.875026 80.901133 
L 118.942433 79.521455 
L 120.365644 77.231384 
L 122.500459 73.765982 
L 123.567866 72.419984 
L 124.279471 71.761545 
L 124.991076 71.322097 
L 125.702681 71.110851 
L 126.414286 71.123608 
L 127.125891 71.343265 
L 128.193299 71.99489 
L 129.616509 73.242396 
L 131.395521 74.836225 
L 132.462929 75.501795 
L 133.174534 75.732227 
L 133.886139 75.7537 
L 134.597744 75.544203 
L 135.309349 75.092186 
L 136.020954 74.396784 
L 137.088362 72.920628 
L 138.155769 70.991321 
L 139.578979 67.907813 
L 143.492807 59.069849 
L 144.560214 57.241689 
L 145.627622 55.88456 
L 146.339227 55.279354 
L 147.050832 54.931178 
L 147.762437 54.84747 
L 148.474042 55.028725 
L 149.185647 55.468369 
L 149.897252 56.152692 
L 150.96466 57.590729 
L 152.032067 59.432889 
L 153.81108 63.04153 
L 155.945895 67.349631 
L 157.013302 69.105702 
L 158.08071 70.39648 
L 158.792315 70.940325 
L 159.50392 71.201277 
L 160.215525 71.163944 
L 160.92713 70.822376 
L 161.638735 70.180211 
L 162.35034 69.250462 
L 163.417748 67.366501 
L 164.485155 64.992099 
L 166.264168 60.325827 
L 169.110588 52.687544 
L 170.533798 49.59678 
L 171.601206 47.862189 
L 172.312811 47.040145 
L 173.024416 46.510993 
L 173.736021 46.288925 
L 174.447626 46.380919 
L 175.159231 46.786413 
L 175.870836 47.497086 
L 176.582441 48.496718 
L 177.649848 50.483329 
L 178.717256 52.951681 
L 180.496268 57.725377 
L 182.986886 64.366435 
L 184.054294 66.666869 
L 185.121701 68.395533 
L 185.833306 69.167379 
L 186.544911 69.604181 
L 187.256516 69.691563 
L 187.968121 69.426345 
L 188.679726 68.816591 
L 189.391331 67.881234 
L 190.458739 65.933487 
L 191.526146 63.453435 
L 193.305159 58.592954 
L 195.795776 51.675662 
L 197.218987 48.381854 
L 198.286394 46.453804 
L 199.353802 45.0791 
L 200.065407 44.49322 
L 200.777012 44.17939 
L 201.488617 44.138211 
L 202.200222 44.365756 
L 202.911827 44.854193 
L 203.623432 45.592334 
L 204.690839 47.136294 
L 205.758247 49.152015 
L 207.181457 52.452555 
L 208.96047 57.28661 
L 213.585902 70.320695 
L 215.009112 73.460261 
L 215.364915 74.126367 
L 215.364915 74.126367 
" clip-path="url(#p61522a14b0)" style="fill: none; stroke: #000000; stroke-opacity: 0.5; stroke-width: 2; stroke-linecap: square"/>
   </g>
   <g id="line2d_13">
    <path d="M 37.81946 107.435892 
L 39.954275 101.473015 
L 43.5123 91.279096 
L 44.935511 87.840767 
L 46.002918 85.730402 
L 47.070326 84.115104 
L 47.781931 83.345046 
L 48.493536 82.836 
L 49.205141 82.595843 
L 49.916746 82.62754 
L 50.628351 82.929285 
L 51.339956 83.494724 
L 52.051561 84.313312 
L 53.118968 85.983518 
L 54.186376 88.128039 
L 55.609586 91.592628 
L 57.388599 96.600924 
L 62.014031 110.05916 
L 63.437241 113.432775 
L 64.504649 115.49149 
L 65.572056 117.056548 
L 66.283661 117.789591 
L 66.995266 118.251901 
L 67.706871 118.426964 
L 68.418476 118.301242 
L 69.130081 117.864802 
L 69.841686 117.111905 
L 70.553292 116.041656 
L 71.620699 113.852738 
L 72.688107 111.001902 
L 73.755514 107.561808 
L 75.178724 102.24402 
L 78.380947 88.952656 
L 80.159959 82.138643 
L 81.583169 77.666789 
L 82.650577 75.096342 
L 83.362182 73.809051 
L 84.073787 72.882743 
L 84.785392 72.324496 
L 85.496997 72.132388 
L 86.208602 72.295732 
L 86.920207 72.795602 
L 87.631812 73.60563 
L 88.69922 75.329228 
L 89.766627 77.5455 
L 91.54564 81.938696 
L 95.103665 91.0697 
L 96.882678 94.913211 
L 98.305888 97.484824 
L 99.729098 99.656528 
L 101.50811 101.976072 
L 107.912556 109.582917 
L 109.691568 111.466946 
L 111.114778 112.617579 
L 112.182186 113.177284 
L 113.249593 113.425833 
L 113.961198 113.405705 
L 115.028606 113.093558 
L 116.096013 112.459364 
L 117.163421 111.542219 
L 118.586631 109.979566 
L 121.077249 106.766757 
L 123.923669 103.156466 
L 126.770089 99.971575 
L 131.039719 95.224504 
L 133.530337 92.451772 
L 134.953547 91.201882 
L 136.020954 90.590319 
L 136.732559 90.387731 
L 137.444164 90.374321 
L 138.155769 90.564507 
L 138.867374 90.964532 
L 139.578979 91.571189 
L 140.646387 92.836141 
L 142.069597 95.032172 
L 144.916017 99.74583 
L 145.983425 101.020139 
L 146.69503 101.561292 
L 147.406635 101.797847 
L 148.11824 101.689989 
L 148.829845 101.208403 
L 149.54145 100.335468 
L 150.253055 99.065758 
L 150.96466 97.406126 
L 152.032067 94.229246 
L 153.099475 90.326439 
L 154.522685 84.258909 
L 159.859723 60.115224 
L 161.282933 55.240166 
L 162.35034 52.388364 
L 163.417748 50.298856 
L 164.129353 49.345403 
L 164.840958 48.745791 
L 165.552563 48.495466 
L 166.264168 48.584619 
L 166.975773 48.998793 
L 167.687378 49.719432 
L 168.398983 50.724564 
L 169.46639 52.710978 
L 170.533798 55.189785 
L 171.957008 59.092893 
L 174.091823 65.765149 
L 179.073058 81.779646 
L 180.852071 86.77978 
L 182.631083 91.097072 
L 184.054294 93.957172 
L 185.121701 95.706959 
L 186.189109 97.084495 
L 187.256516 98.062401 
L 187.968121 98.480815 
L 188.679726 98.706211 
L 189.391331 98.735133 
L 190.102936 98.566098 
L 190.814541 98.199892 
L 191.526146 97.639782 
L 192.593554 96.449799 
L 193.660961 94.869573 
L 195.084171 92.238632 
L 196.863184 88.329628 
L 201.132814 78.589046 
L 202.200222 76.694919 
L 203.267629 75.252661 
L 203.979234 74.596166 
L 204.690839 74.217448 
L 205.402444 74.141243 
L 206.114049 74.387704 
L 206.825654 74.971691 
L 207.537259 75.902194 
L 208.248864 77.18196 
L 209.316272 79.746361 
L 210.38368 83.046003 
L 211.451087 87.008343 
L 212.874297 93.143172 
L 215.009112 103.52596 
L 215.364915 105.321602 
L 215.364915 105.321602 
" clip-path="url(#p61522a14b0)" style="fill: none; stroke: #000000; stroke-opacity: 0.5; stroke-width: 2; stroke-linecap: square"/>
   </g>
   <g id="line2d_14">
    <path d="M 37.81946 100.524355 
L 39.598473 99.739888 
L 41.021683 99.341238 
L 43.156498 99.020421 
L 45.647116 98.660079 
L 47.070326 98.246416 
L 48.493536 97.568734 
L 49.916746 96.565137 
L 51.339956 95.199261 
L 52.763166 93.462965 
L 54.186376 91.383398 
L 56.321191 87.792907 
L 59.167611 82.916413 
L 60.590821 80.90563 
L 61.658229 79.76528 
L 62.725636 79.025173 
L 63.437241 78.780018 
L 64.148846 78.742251 
L 64.860451 78.910962 
L 65.572056 79.277061 
L 66.639464 80.155559 
L 67.706871 81.342272 
L 71.264897 85.60428 
L 71.976502 86.110081 
L 72.688107 86.37107 
L 73.399712 86.337667 
L 74.111317 85.966727 
L 74.822922 85.223348 
L 75.534527 84.082383 
L 76.246132 82.529754 
L 77.313539 79.427695 
L 78.380947 75.443255 
L 79.804157 68.954298 
L 81.583169 59.561931 
L 84.785392 42.502562 
L 86.208602 36.358488 
L 87.27601 32.790503 
L 87.987615 30.991707 
L 88.69922 29.690039 
L 89.410825 28.899286 
L 90.12243 28.62 
L 90.478232 28.668779 
L 91.189837 29.12966 
L 91.901442 30.048661 
L 92.613047 31.385359 
L 93.680455 34.064561 
L 94.747862 37.380628 
L 96.526875 43.75475 
L 99.729098 55.323223 
L 101.152308 59.670297 
L 102.575518 63.295525 
L 103.998728 66.208758 
L 105.421938 68.522613 
L 106.845148 70.410582 
L 109.335766 73.241163 
L 112.537988 76.910396 
L 117.519223 82.73497 
L 119.298236 84.415032 
L 120.721446 85.492754 
L 122.144656 86.303303 
L 123.567866 86.824823 
L 124.635274 87.014035 
L 125.702681 87.0227 
L 126.770089 86.849381 
L 128.193299 86.350425 
L 129.616509 85.598917 
L 134.241942 82.895079 
L 135.309349 82.574598 
L 136.376757 82.451311 
L 137.444164 82.516776 
L 138.867374 82.821123 
L 141.357992 83.402963 
L 142.425399 83.409732 
L 143.492807 83.134421 
L 144.204412 82.760551 
L 145.271819 81.886147 
L 146.339227 80.631898 
L 147.406635 79.02726 
L 148.829845 76.45174 
L 151.676265 70.603494 
L 153.81108 66.462243 
L 155.23429 64.128964 
L 156.6575 62.2463 
L 157.724907 61.15795 
L 158.792315 60.357642 
L 159.859723 59.850009 
L 160.92713 59.637112 
L 161.994538 59.718231 
L 163.061945 60.087816 
L 164.129353 60.7322 
L 165.19676 61.625947 
L 166.61997 63.133582 
L 171.601206 68.915568 
L 172.668613 69.671484 
L 173.380218 69.983372 
L 174.091823 70.122674 
L 174.803428 70.079253 
L 175.515033 69.849109 
L 176.226638 69.43481 
L 177.294046 68.490191 
L 178.361453 67.212345 
L 179.784663 65.14612 
L 182.986886 60.360504 
L 184.054294 59.170374 
L 185.121701 58.362619 
L 185.833306 58.072391 
L 186.544911 57.99587 
L 187.256516 58.137357 
L 187.968121 58.493113 
L 188.679726 59.051315 
L 189.747134 60.223218 
L 191.170344 62.252778 
L 194.728369 67.674221 
L 195.795776 68.826339 
L 196.507382 69.371133 
L 197.218987 69.718049 
L 197.930592 69.862064 
L 198.642197 69.809112 
L 199.353802 69.576279 
L 200.421209 68.953252 
L 203.979234 66.366848 
L 204.690839 66.157874 
L 205.402444 66.169091 
L 206.114049 66.43673 
L 206.825654 66.985386 
L 207.537259 67.826161 
L 208.248864 68.955489 
L 209.316272 71.145493 
L 210.739482 74.779437 
L 213.941705 83.427519 
L 215.009112 85.549787 
L 215.364915 86.095691 
L 215.364915 86.095691 
" clip-path="url(#p61522a14b0)" style="fill: none; stroke: #000000; stroke-opacity: 0.5; stroke-width: 2; stroke-linecap: square"/>
   </g>
   <g id="patch_3">
    <path d="M 28.942188 160.92 
L 28.942188 22.32 
" style="fill: none; stroke: #000000; stroke-width: 0.8; stroke-linejoin: miter; stroke-linecap: square"/>
   </g>
   <g id="patch_4">
    <path d="M 224.242188 160.92 
L 224.242188 22.32 
" style="fill: none; stroke: #000000; stroke-width: 0.8; stroke-linejoin: miter; stroke-linecap: square"/>
   </g>
   <g id="patch_5">
    <path d="M 28.942188 160.92 
L 224.242188 160.92 
" style="fill: none; stroke: #000000; stroke-width: 0.8; stroke-linejoin: miter; stroke-linecap: square"/>
   </g>
   <g id="patch_6">
    <path d="M 28.942188 22.32 
L 224.242188 22.32 
" style="fill: none; stroke: #000000; stroke-width: 0.8; stroke-linejoin: miter; stroke-linecap: square"/>
   </g>
   <g id="text_10">
    <!-- Lengthscale $\ell$=2.000, Amplitude $a$=1 -->
    <g transform="translate(14.692188 16.32)scale(0.12 -0.12)">
     <defs>
      <path id="DejaVuSans-4c" d="M 628 4666 
L 1259 4666 
L 1259 531 
L 3531 531 
L 3531 0 
L 628 0 
L 628 4666 
z
" transform="scale(0.015625)"/>
      <path id="DejaVuSans-65" d="M 3597 1894 
L 3597 1613 
L 953 1613 
Q 991 1019 1311 708 
Q 1631 397 2203 397 
Q 2534 397 2845 478 
Q 3156 559 3463 722 
L 3463 178 
Q 3153 47 2828 -22 
Q 2503 -91 2169 -91 
Q 1331 -91 842 396 
Q 353 884 353 1716 
Q 353 2575 817 3079 
Q 1281 3584 2069 3584 
Q 2775 3584 3186 3129 
Q 3597 2675 3597 1894 
z
M 3022 2063 
Q 3016 2534 2758 2815 
Q 2500 3097 2075 3097 
Q 1594 3097 1305 2825 
Q 1016 2553 972 2059 
L 3022 2063 
z
" transform="scale(0.015625)"/>
      <path id="DejaVuSans-6e" d="M 3513 2113 
L 3513 0 
L 2938 0 
L 2938 2094 
Q 2938 2591 2744 2837 
Q 2550 3084 2163 3084 
Q 1697 3084 1428 2787 
Q 1159 2491 1159 1978 
L 1159 0 
L 581 0 
L 581 3500 
L 1159 3500 
L 1159 2956 
Q 1366 3272 1645 3428 
Q 1925 3584 2291 3584 
Q 2894 3584 3203 3211 
Q 3513 2838 3513 2113 
z
" transform="scale(0.015625)"/>
      <path id="DejaVuSans-67" d="M 2906 1791 
Q 2906 2416 2648 2759 
Q 2391 3103 1925 3103 
Q 1463 3103 1205 2759 
Q 947 2416 947 1791 
Q 947 1169 1205 825 
Q 1463 481 1925 481 
Q 2391 481 2648 825 
Q 2906 1169 2906 1791 
z
M 3481 434 
Q 3481 -459 3084 -895 
Q 2688 -1331 1869 -1331 
Q 1566 -1331 1297 -1286 
Q 1028 -1241 775 -1147 
L 775 -588 
Q 1028 -725 1275 -790 
Q 1522 -856 1778 -856 
Q 2344 -856 2625 -561 
Q 2906 -266 2906 331 
L 2906 616 
Q 2728 306 2450 153 
Q 2172 0 1784 0 
Q 1141 0 747 490 
Q 353 981 353 1791 
Q 353 2603 747 3093 
Q 1141 3584 1784 3584 
Q 2172 3584 2450 3431 
Q 2728 3278 2906 2969 
L 2906 3500 
L 3481 3500 
L 3481 434 
z
" transform="scale(0.015625)"/>
      <path id="DejaVuSans-74" d="M 1172 4494 
L 1172 3500 
L 2356 3500 
L 2356 3053 
L 1172 3053 
L 1172 1153 
Q 1172 725 1289 603 
Q 1406 481 1766 481 
L 2356 481 
L 2356 0 
L 1766 0 
Q 1100 0 847 248 
Q 594 497 594 1153 
L 594 3053 
L 172 3053 
L 172 3500 
L 594 3500 
L 594 4494 
L 1172 4494 
z
" transform="scale(0.015625)"/>
      <path id="DejaVuSans-68" d="M 3513 2113 
L 3513 0 
L 2938 0 
L 2938 2094 
Q 2938 2591 2744 2837 
Q 2550 3084 2163 3084 
Q 1697 3084 1428 2787 
Q 1159 2491 1159 1978 
L 1159 0 
L 581 0 
L 581 4863 
L 1159 4863 
L 1159 2956 
Q 1366 3272 1645 3428 
Q 1925 3584 2291 3584 
Q 2894 3584 3203 3211 
Q 3513 2838 3513 2113 
z
" transform="scale(0.015625)"/>
      <path id="DejaVuSans-73" d="M 2834 3397 
L 2834 2853 
Q 2591 2978 2328 3040 
Q 2066 3103 1784 3103 
Q 1356 3103 1142 2972 
Q 928 2841 928 2578 
Q 928 2378 1081 2264 
Q 1234 2150 1697 2047 
L 1894 2003 
Q 2506 1872 2764 1633 
Q 3022 1394 3022 966 
Q 3022 478 2636 193 
Q 2250 -91 1575 -91 
Q 1294 -91 989 -36 
Q 684 19 347 128 
L 347 722 
Q 666 556 975 473 
Q 1284 391 1588 391 
Q 1994 391 2212 530 
Q 2431 669 2431 922 
Q 2431 1156 2273 1281 
Q 2116 1406 1581 1522 
L 1381 1569 
Q 847 1681 609 1914 
Q 372 2147 372 2553 
Q 372 3047 722 3315 
Q 1072 3584 1716 3584 
Q 2034 3584 2315 3537 
Q 2597 3491 2834 3397 
z
" transform="scale(0.015625)"/>
      <path id="DejaVuSans-63" d="M 3122 3366 
L 3122 2828 
Q 2878 2963 2633 3030 
Q 2388 3097 2138 3097 
Q 1578 3097 1268 2742 
Q 959 2388 959 1747 
Q 959 1106 1268 751 
Q 1578 397 2138 397 
Q 2388 397 2633 464 
Q 2878 531 3122 666 
L 3122 134 
Q 2881 22 2623 -34 
Q 2366 -91 2075 -91 
Q 1284 -91 818 406 
Q 353 903 353 1747 
Q 353 2603 823 3093 
Q 1294 3584 2113 3584 
Q 2378 3584 2631 3529 
Q 2884 3475 3122 3366 
z
" transform="scale(0.015625)"/>
      <path id="DejaVuSans-61" d="M 2194 1759 
Q 1497 1759 1228 1600 
Q 959 1441 959 1056 
Q 959 750 1161 570 
Q 1363 391 1709 391 
Q 2188 391 2477 730 
Q 2766 1069 2766 1631 
L 2766 1759 
L 2194 1759 
z
M 3341 1997 
L 3341 0 
L 2766 0 
L 2766 531 
Q 2569 213 2275 61 
Q 1981 -91 1556 -91 
Q 1019 -91 701 211 
Q 384 513 384 1019 
Q 384 1609 779 1909 
Q 1175 2209 1959 2209 
L 2766 2209 
L 2766 2266 
Q 2766 2663 2505 2880 
Q 2244 3097 1772 3097 
Q 1472 3097 1187 3025 
Q 903 2953 641 2809 
L 641 3341 
Q 956 3463 1253 3523 
Q 1550 3584 1831 3584 
Q 2591 3584 2966 3190 
Q 3341 2797 3341 1997 
z
" transform="scale(0.015625)"/>
      <path id="DejaVuSans-6c" d="M 603 4863 
L 1178 4863 
L 1178 0 
L 603 0 
L 603 4863 
z
" transform="scale(0.015625)"/>
      <path id="DejaVuSans-20" transform="scale(0.015625)"/>
      <path id="DejaVuSans-Oblique-2113" d="M 950 838 
Q 1078 213 1350 213 
Q 1531 213 1766 572 
L 2181 572 
Q 1994 253 1775 88 
Q 1538 -91 1319 -91 
Q 831 -91 634 344 
L 400 0 
L -88 0 
Q 250 459 500 888 
Q 469 1131 469 1397 
Q 469 1872 566 2347 
Q 931 4131 1256 4497 
Q 1481 4750 1866 4750 
Q 2256 4750 2256 4209 
Q 2253 3966 2197 3675 
Q 1972 2484 950 838 
z
M 947 1656 
Q 1531 2744 1709 3613 
Q 1803 4072 1803 4191 
Q 1803 4406 1725 4406 
Q 1384 4134 1081 2516 
Q 997 2063 947 1656 
z
" transform="scale(0.015625)"/>
      <path id="DejaVuSans-3d" d="M 678 2906 
L 4684 2906 
L 4684 2381 
L 678 2381 
L 678 2906 
z
M 678 1631 
L 4684 1631 
L 4684 1100 
L 678 1100 
L 678 1631 
z
" transform="scale(0.015625)"/>
      <path id="DejaVuSans-2e" d="M 684 794 
L 1344 794 
L 1344 0 
L 684 0 
L 684 794 
z
" transform="scale(0.015625)"/>
      <path id="DejaVuSans-2c" d="M 750 794 
L 1409 794 
L 1409 256 
L 897 -744 
L 494 -744 
L 750 256 
L 750 794 
z
" transform="scale(0.015625)"/>
      <path id="DejaVuSans-41" d="M 2188 4044 
L 1331 1722 
L 3047 1722 
L 2188 4044 
z
M 1831 4666 
L 2547 4666 
L 4325 0 
L 3669 0 
L 3244 1197 
L 1141 1197 
L 716 0 
L 50 0 
L 1831 4666 
z
" transform="scale(0.015625)"/>
      <path id="DejaVuSans-6d" d="M 3328 2828 
Q 3544 3216 3844 3400 
Q 4144 3584 4550 3584 
Q 5097 3584 5394 3201 
Q 5691 2819 5691 2113 
L 5691 0 
L 5113 0 
L 5113 2094 
Q 5113 2597 4934 2840 
Q 4756 3084 4391 3084 
Q 3944 3084 3684 2787 
Q 3425 2491 3425 1978 
L 3425 0 
L 2847 0 
L 2847 2094 
Q 2847 2600 2669 2842 
Q 2491 3084 2119 3084 
Q 1678 3084 1418 2786 
Q 1159 2488 1159 1978 
L 1159 0 
L 581 0 
L 581 3500 
L 1159 3500 
L 1159 2956 
Q 1356 3278 1631 3431 
Q 1906 3584 2284 3584 
Q 2666 3584 2933 3390 
Q 3200 3197 3328 2828 
z
" transform="scale(0.015625)"/>
      <path id="DejaVuSans-70" d="M 1159 525 
L 1159 -1331 
L 581 -1331 
L 581 3500 
L 1159 3500 
L 1159 2969 
Q 1341 3281 1617 3432 
Q 1894 3584 2278 3584 
Q 2916 3584 3314 3078 
Q 3713 2572 3713 1747 
Q 3713 922 3314 415 
Q 2916 -91 2278 -91 
Q 1894 -91 1617 61 
Q 1341 213 1159 525 
z
M 3116 1747 
Q 3116 2381 2855 2742 
Q 2594 3103 2138 3103 
Q 1681 3103 1420 2742 
Q 1159 2381 1159 1747 
Q 1159 1113 1420 752 
Q 1681 391 2138 391 
Q 2594 391 2855 752 
Q 3116 1113 3116 1747 
z
" transform="scale(0.015625)"/>
      <path id="DejaVuSans-69" d="M 603 3500 
L 1178 3500 
L 1178 0 
L 603 0 
L 603 3500 
z
M 603 4863 
L 1178 4863 
L 1178 4134 
L 603 4134 
L 603 4863 
z
" transform="scale(0.015625)"/>
      <path id="DejaVuSans-75" d="M 544 1381 
L 544 3500 
L 1119 3500 
L 1119 1403 
Q 1119 906 1312 657 
Q 1506 409 1894 409 
Q 2359 409 2629 706 
Q 2900 1003 2900 1516 
L 2900 3500 
L 3475 3500 
L 3475 0 
L 2900 0 
L 2900 538 
Q 2691 219 2414 64 
Q 2138 -91 1772 -91 
Q 1169 -91 856 284 
Q 544 659 544 1381 
z
M 1991 3584 
L 1991 3584 
z
" transform="scale(0.015625)"/>
      <path id="DejaVuSans-64" d="M 2906 2969 
L 2906 4863 
L 3481 4863 
L 3481 0 
L 2906 0 
L 2906 525 
Q 2725 213 2448 61 
Q 2172 -91 1784 -91 
Q 1150 -91 751 415 
Q 353 922 353 1747 
Q 353 2572 751 3078 
Q 1150 3584 1784 3584 
Q 2172 3584 2448 3432 
Q 2725 3281 2906 2969 
z
M 947 1747 
Q 947 1113 1208 752 
Q 1469 391 1925 391 
Q 2381 391 2643 752 
Q 2906 1113 2906 1747 
Q 2906 2381 2643 2742 
Q 2381 3103 1925 3103 
Q 1469 3103 1208 2742 
Q 947 2381 947 1747 
z
" transform="scale(0.015625)"/>
      <path id="DejaVuSans-Oblique-61" d="M 3438 1997 
L 3047 0 
L 2472 0 
L 2578 531 
Q 2325 219 2001 64 
Q 1678 -91 1281 -91 
Q 834 -91 548 182 
Q 263 456 263 884 
Q 263 1497 752 1853 
Q 1241 2209 2100 2209 
L 2900 2209 
L 2931 2363 
Q 2938 2388 2941 2417 
Q 2944 2447 2944 2509 
Q 2944 2788 2717 2942 
Q 2491 3097 2081 3097 
Q 1800 3097 1504 3025 
Q 1209 2953 897 2809 
L 997 3341 
Q 1322 3463 1633 3523 
Q 1944 3584 2234 3584 
Q 2853 3584 3176 3315 
Q 3500 3047 3500 2534 
Q 3500 2431 3484 2292 
Q 3469 2153 3438 1997 
z
M 2816 1759 
L 2241 1759 
Q 1534 1759 1195 1570 
Q 856 1381 856 984 
Q 856 709 1029 553 
Q 1203 397 1509 397 
Q 1978 397 2328 733 
Q 2678 1069 2791 1631 
L 2816 1759 
z
" transform="scale(0.015625)"/>
     </defs>
     <use xlink:href="#DejaVuSans-4c" transform="translate(0 0.015625)"/>
     <use xlink:href="#DejaVuSans-65" transform="translate(55.712891 0.015625)"/>
     <use xlink:href="#DejaVuSans-6e" transform="translate(117.236328 0.015625)"/>
     <use xlink:href="#DejaVuSans-67" transform="translate(180.615234 0.015625)"/>
     <use xlink:href="#DejaVuSans-74" transform="translate(244.091797 0.015625)"/>
     <use xlink:href="#DejaVuSans-68" transform="translate(283.300781 0.015625)"/>
     <use xlink:href="#DejaVuSans-73" transform="translate(346.679688 0.015625)"/>
     <use xlink:href="#DejaVuSans-63" transform="translate(398.779297 0.015625)"/>
     <use xlink:href="#DejaVuSans-61" transform="translate(453.759766 0.015625)"/>
     <use xlink:href="#DejaVuSans-6c" transform="translate(515.039062 0.015625)"/>
     <use xlink:href="#DejaVuSans-65" transform="translate(542.822266 0.015625)"/>
     <use xlink:href="#DejaVuSans-20" transform="translate(604.345703 0.015625)"/>
     <use xlink:href="#DejaVuSans-Oblique-2113" transform="translate(636.132812 0.015625)"/>
     <use xlink:href="#DejaVuSans-3d" transform="translate(677.441406 0.015625)"/>
     <use xlink:href="#DejaVuSans-32" transform="translate(761.230469 0.015625)"/>
     <use xlink:href="#DejaVuSans-2e" transform="translate(824.853516 0.015625)"/>
     <use xlink:href="#DejaVuSans-30" transform="translate(856.640625 0.015625)"/>
     <use xlink:href="#DejaVuSans-30" transform="translate(920.263672 0.015625)"/>
     <use xlink:href="#DejaVuSans-30" transform="translate(983.886719 0.015625)"/>
     <use xlink:href="#DejaVuSans-2c" transform="translate(1047.509766 0.015625)"/>
     <use xlink:href="#DejaVuSans-20" transform="translate(1079.296875 0.015625)"/>
     <use xlink:href="#DejaVuSans-41" transform="translate(1111.083984 0.015625)"/>
     <use xlink:href="#DejaVuSans-6d" transform="translate(1179.492188 0.015625)"/>
     <use xlink:href="#DejaVuSans-70" transform="translate(1276.904297 0.015625)"/>
     <use xlink:href="#DejaVuSans-6c" transform="translate(1340.380859 0.015625)"/>
     <use xlink:href="#DejaVuSans-69" transform="translate(1368.164062 0.015625)"/>
     <use xlink:href="#DejaVuSans-74" transform="translate(1395.947266 0.015625)"/>
     <use xlink:href="#DejaVuSans-75" transform="translate(1435.15625 0.015625)"/>
     <use xlink:href="#DejaVuSans-64" transform="translate(1498.535156 0.015625)"/>
     <use xlink:href="#DejaVuSans-65" transform="translate(1562.011719 0.015625)"/>
     <use xlink:href="#DejaVuSans-20" transform="translate(1623.535156 0.015625)"/>
     <use xlink:href="#DejaVuSans-Oblique-61" transform="translate(1655.322266 0.015625)"/>
     <use xlink:href="#DejaVuSans-3d" transform="translate(1716.601562 0.015625)"/>
     <use xlink:href="#DejaVuSans-31" transform="translate(1800.390625 0.015625)"/>
    </g>
   </g>
  </g>
 </g>
 <defs>
  <clipPath id="p61522a14b0">
   <rect x="28.942188" y="22.32" width="195.3" height="138.6"/>
  </clipPath>
 </defs>
</svg>
