<?xml version="1.0" encoding="utf-8" standalone="no"?>
<!DOCTYPE svg PUBLIC "-//W3C//DTD SVG 1.1//EN"
  "http://www.w3.org/Graphics/SVG/1.1/DTD/svg11.dtd">
<svg xmlns:xlink="http://www.w3.org/1999/xlink" width="245.692187pt" height="184.798125pt" viewBox="0 0 245.692187 184.798125" xmlns="http://www.w3.org/2000/svg" version="1.1">
 <metadata>
  <rdf:RDF xmlns:dc="http://purl.org/dc/elements/1.1/" xmlns:cc="http://creativecommons.org/ns#" xmlns:rdf="http://www.w3.org/1999/02/22-rdf-syntax-ns#">
   <cc:Work>
    <dc:type rdf:resource="http://purl.org/dc/dcmitype/StillImage"/>
    <dc:date>2022-12-10T17:08:44.029038</dc:date>
    <dc:format>image/svg+xml</dc:format>
    <dc:creator>
     <cc:Agent>
      <dc:title>Matplotlib v3.5.1, https://matplotlib.org/</dc:title>
     </cc:Agent>
    </dc:creator>
   </cc:Work>
  </rdf:RDF>
 </metadata>
 <defs>
  <style type="text/css">*{stroke-linejoin: round; stroke-linecap: butt}</style>
 </defs>
 <g id="figure_1">
  <g id="patch_1">
   <path d="M 0 184.798125 
L 245.692187 184.798125 
L 245.692187 0 
L 0 0 
z
" style="fill: #ffffff"/>
  </g>
  <g id="axes_1">
   <g id="patch_2">
    <path d="M 28.942188 160.92 
L 224.242188 160.92 
L 224.242188 22.32 
L 28.942188 22.32 
z
" style="fill: #ffffff"/>
   </g>
   <g id="PathCollection_1">
    <defs>
     <path id="m199da3f903" d="M 0 3 
C 0.795609 3 1.55874 2.683901 2.12132 2.12132 
C 2.683901 1.55874 3 0.795609 3 0 
C 3 -0.795609 2.683901 -1.55874 2.12132 -2.12132 
C 1.55874 -2.683901 0.795609 -3 0 -3 
C -0.795609 -3 -1.55874 -2.683901 -2.12132 -2.12132 
C -2.683901 -1.55874 -3 -0.795609 -3 0 
C -3 0.795609 -2.683901 1.55874 -2.12132 2.12132 
C -1.55874 2.683901 -0.795609 3 0 3 
z
" style="stroke: #1f77b4"/>
    </defs>
    <g clip-path="url(#p10a094c48b)">
     <use xlink:href="#m199da3f903" x="37.81946" y="89.097168" style="fill: #1f77b4; stroke: #1f77b4"/>
     <use xlink:href="#m199da3f903" x="44.921278" y="39.187181" style="fill: #1f77b4; stroke: #1f77b4"/>
     <use xlink:href="#m199da3f903" x="52.023097" y="68.961686" style="fill: #1f77b4; stroke: #1f77b4"/>
     <use xlink:href="#m199da3f903" x="59.124915" y="101.260812" style="fill: #1f77b4; stroke: #1f77b4"/>
     <use xlink:href="#m199da3f903" x="80.430369" y="104.727123" style="fill: #1f77b4; stroke: #1f77b4"/>
     <use xlink:href="#m199da3f903" x="87.532187" y="98.14589" style="fill: #1f77b4; stroke: #1f77b4"/>
     <use xlink:href="#m199da3f903" x="94.634006" y="65.059082" style="fill: #1f77b4; stroke: #1f77b4"/>
     <use xlink:href="#m199da3f903" x="101.735824" y="51.627447" style="fill: #1f77b4; stroke: #1f77b4"/>
     <use xlink:href="#m199da3f903" x="108.837642" y="78.157868" style="fill: #1f77b4; stroke: #1f77b4"/>
     <use xlink:href="#m199da3f903" x="151.448551" y="68.593773" style="fill: #1f77b4; stroke: #1f77b4"/>
     <use xlink:href="#m199da3f903" x="158.550369" y="49.375923" style="fill: #1f77b4; stroke: #1f77b4"/>
     <use xlink:href="#m199da3f903" x="172.754006" y="129.609248" style="fill: #1f77b4; stroke: #1f77b4"/>
    </g>
   </g>
   <g id="PolyCollection_1">
    <path d="M 37.81946 89.097168 
L 37.81946 89.097168 
L 38.175263 89.496414 
L 38.531065 89.51898 
L 38.886868 89.146192 
L 39.24267 88.365928 
L 39.598473 87.173251 
L 39.954275 85.570898 
L 40.310078 83.56959 
L 40.66588 81.188156 
L 41.021683 78.453458 
L 41.377485 75.400121 
L 41.733288 72.070059 
L 42.08909 68.51182 
L 42.444893 64.779752 
L 42.800695 60.933018 
L 43.156498 57.034484 
L 43.5123 53.149499 
L 43.868103 49.344616 
L 44.223905 45.686259 
L 44.579708 42.239401 
L 44.935511 39.233903 
L 45.291313 40.552941 
L 45.647116 42.131107 
L 46.002918 43.920218 
L 46.358721 45.870176 
L 46.714523 47.930317 
L 47.070326 50.050772 
L 47.426128 52.183784 
L 47.781931 54.284967 
L 48.137733 56.314439 
L 48.493536 58.237817 
L 48.849338 60.027032 
L 49.205141 61.660949 
L 49.560943 63.125763 
L 49.916746 64.415168 
L 50.272548 65.530298 
L 50.628351 66.47944 
L 50.984153 67.277533 
L 51.339956 67.945469 
L 51.695758 68.509234 
L 52.051561 69.334298 
L 52.407363 73.967684 
L 52.763166 78.512147 
L 53.118968 82.906232 
L 53.474771 87.091849 
L 53.830573 91.015172 
L 54.186376 94.627454 
L 54.542178 97.885728 
L 54.897981 100.753393 
L 55.253783 103.200678 
L 55.609586 105.204967 
L 55.965388 106.75099 
L 56.321191 107.830865 
L 56.676993 108.444013 
L 57.032796 108.596927 
L 57.388599 108.302811 
L 57.744401 107.581107 
L 58.100204 106.4569 
L 58.456006 104.960243 
L 58.811809 103.125395 
L 59.167611 101.614678 
L 59.523414 104.558687 
L 59.879216 107.471397 
L 60.235019 110.32194 
L 60.590821 113.08147 
L 60.946624 115.72381 
L 61.302426 118.22599 
L 61.658229 120.568669 
L 62.014031 122.736424 
L 62.369834 124.717917 
L 62.725636 126.505938 
L 63.081439 128.097323 
L 63.437241 129.492772 
L 63.793044 130.696564 
L 64.148846 131.716195 
L 64.504649 132.561955 
L 64.860451 133.246455 
L 65.216254 133.784127 
L 65.572056 134.190713 
L 65.927859 134.482761 
L 66.283661 134.677135 
L 66.639464 134.790561 
L 66.995266 134.839211 
L 67.351069 134.838339 
L 67.706871 134.801961 
L 68.062674 134.742599 
L 68.418476 134.671062 
L 68.774279 134.596293 
L 69.130081 134.525246 
L 69.485884 134.46281 
L 69.841686 134.411766 
L 70.197489 134.372775 
L 70.553292 134.34439 
L 70.909094 134.323103 
L 71.264897 134.303409 
L 71.620699 134.277912 
L 71.976502 134.237456 
L 72.332304 134.171297 
L 72.688107 134.067324 
L 73.043909 133.912311 
L 73.399712 133.692232 
L 73.755514 133.392612 
L 74.111317 132.998927 
L 74.467119 132.497034 
L 74.822922 131.873641 
L 75.178724 131.116782 
L 75.534527 130.21631 
L 75.890329 129.164362 
L 76.246132 127.955813 
L 76.601934 126.588674 
L 76.957737 125.064435 
L 77.313539 123.388323 
L 77.669342 121.569475 
L 78.025144 119.620999 
L 78.380947 117.559924 
L 78.736749 115.407022 
L 79.092552 113.186513 
L 79.448354 110.925639 
L 79.804157 108.654122 
L 80.159959 106.403521 
L 80.515762 105.44347 
L 80.871564 108.296926 
L 81.227367 110.909208 
L 81.583169 113.242795 
L 81.938972 115.263102 
L 82.294774 116.939282 
L 82.650577 118.244984 
L 83.00638 119.159034 
L 83.362182 119.666018 
L 83.717985 119.756756 
L 84.073787 119.428657 
L 84.42959 118.685929 
L 84.785392 117.53964 
L 85.141195 116.007639 
L 85.496997 114.114314 
L 85.8528 111.890198 
L 86.208602 109.371434 
L 86.564405 106.599097 
L 86.920207 103.618398 
L 87.27601 100.477775 
L 87.631812 98.395773 
L 87.987615 99.209336 
L 88.343417 99.865235 
L 88.69922 100.320433 
L 89.055022 100.535577 
L 89.410825 100.476017 
L 89.766627 100.11272 
L 90.12243 99.423053 
L 90.478232 98.391419 
L 90.834035 97.009724 
L 91.189837 95.277667 
L 91.54564 93.202856 
L 91.901442 90.800726 
L 92.257245 88.094291 
L 92.613047 85.113711 
L 92.96885 81.895705 
L 93.324652 78.482811 
L 93.680455 74.922524 
L 94.036257 71.266321 
L 94.39206 67.568603 
L 94.747862 65.189003 
L 95.103665 65.614779 
L 95.459468 66.037797 
L 95.81527 66.417129 
L 96.171073 66.71454 
L 96.526875 66.89561 
L 96.882678 66.93075 
L 97.23848 66.796076 
L 97.594283 66.474126 
L 97.950085 65.954389 
L 98.305888 65.233635 
L 98.66169 64.316042 
L 99.017493 63.213104 
L 99.373295 61.94334 
L 99.729098 60.531801 
L 100.0849 59.009399 
L 100.440703 57.412074 
L 100.796505 55.779822 
L 101.152308 54.15563 
L 101.50811 52.584321 
L 101.863913 52.615737 
L 102.219715 55.444631 
L 102.575518 58.352845 
L 102.93132 61.284587 
L 103.287123 64.18474 
L 103.642925 66.999988 
L 103.998728 69.67988 
L 104.35453 72.177813 
L 104.710333 74.451919 
L 105.066135 76.465819 
L 105.421938 78.189245 
L 105.77774 79.598494 
L 106.133543 80.676728 
L 106.489345 81.414095 
L 106.845148 81.807683 
L 107.20095 81.861306 
L 107.556753 81.585138 
L 107.912556 80.995199 
L 108.268358 80.112725 
L 108.624161 78.963427 
L 108.979963 79.672455 
L 109.335766 83.478167 
L 109.691568 87.279563 
L 110.047371 91.038606 
L 110.403173 94.719887 
L 110.758976 98.291203 
L 111.114778 101.724037 
L 111.470581 104.99392 
L 111.826383 108.080665 
L 112.182186 110.96849 
L 112.537988 113.646025 
L 112.893791 116.106202 
L 113.249593 118.346055 
L 113.605396 120.366429 
L 113.961198 122.171611 
L 114.317001 123.768917 
L 114.672803 125.168219 
L 115.028606 126.381467 
L 115.384408 127.422185 
L 115.740211 128.30499 
L 116.096013 129.045122 
L 116.451816 129.658017 
L 116.807618 130.158918 
L 117.163421 130.562551 
L 117.519223 130.88285 
L 117.875026 131.132748 
L 118.230828 131.324031 
L 118.586631 131.46725 
L 118.942433 131.571689 
L 119.298236 131.645372 
L 119.654038 131.695117 
L 120.009841 131.72662 
L 120.365644 131.744547 
L 120.721446 131.752659 
L 121.077249 131.753923 
L 121.433051 131.750633 
L 121.788854 131.744522 
L 122.144656 131.736865 
L 122.500459 131.728573 
L 122.856261 131.720269 
L 123.212064 131.712358 
L 123.567866 131.705083 
L 123.923669 131.698568 
L 124.279471 131.692856 
L 124.635274 131.687934 
L 124.991076 131.683753 
L 125.346879 131.680247 
L 125.702681 131.677339 
L 126.058484 131.674951 
L 126.414286 131.673005 
L 126.770089 131.671433 
L 127.125891 131.67017 
L 127.481694 131.66916 
L 127.837496 131.668355 
L 128.193299 131.667712 
L 128.549101 131.667194 
L 128.904904 131.666772 
L 129.260706 131.666417 
L 129.616509 131.666105 
L 129.972311 131.665814 
L 130.328114 131.665522 
L 130.683916 131.665207 
L 131.039719 131.664844 
L 131.395521 131.664408 
L 131.751324 131.663869 
L 132.107126 131.663189 
L 132.462929 131.662325 
L 132.818731 131.661223 
L 133.174534 131.659819 
L 133.530337 131.658031 
L 133.886139 131.655761 
L 134.241942 131.652888 
L 134.597744 131.649264 
L 134.953547 131.644706 
L 135.309349 131.63899 
L 135.665152 131.631839 
L 136.020954 131.622915 
L 136.376757 131.611799 
L 136.732559 131.597973 
L 137.088362 131.580799 
L 137.444164 131.559484 
L 137.799967 131.533049 
L 138.155769 131.500278 
L 138.511572 131.459671 
L 138.867374 131.409378 
L 139.223177 131.347127 
L 139.578979 131.270141 
L 139.934782 131.175051 
L 140.290584 131.057799 
L 140.646387 130.91354 
L 141.002189 130.736544 
L 141.357992 130.520111 
L 141.713794 130.256496 
L 142.069597 129.936856 
L 142.425399 129.551234 
L 142.781202 129.088575 
L 143.137004 128.536789 
L 143.492807 127.882866 
L 143.848609 127.113051 
L 144.204412 126.213066 
L 144.560214 125.168398 
L 144.916017 123.964636 
L 145.271819 122.587856 
L 145.627622 121.025042 
L 145.983425 119.264534 
L 146.339227 117.296494 
L 146.69503 115.11337 
L 147.050832 112.710343 
L 147.406635 110.08575 
L 147.762437 107.241461 
L 148.11824 104.183189 
L 148.474042 100.920743 
L 148.829845 97.468185 
L 149.185647 93.843898 
L 149.54145 90.07056 
L 149.897252 86.175004 
L 150.253055 82.18798 
L 150.608857 78.14381 
L 150.96466 74.079943 
L 151.320462 70.036419 
L 151.676265 69.41509 
L 152.032067 70.544476 
L 152.38787 71.462513 
L 152.743672 72.14513 
L 153.099475 72.571999 
L 153.455277 72.727185 
L 153.81108 72.599709 
L 154.166882 72.183974 
L 154.522685 71.480066 
L 154.878487 70.493901 
L 155.23429 69.237219 
L 155.590092 67.727424 
L 155.945895 65.987267 
L 156.301697 64.044394 
L 156.6575 61.930763 
L 157.013302 59.681951 
L 157.369105 57.336378 
L 157.724907 54.93447 
L 158.08071 52.517784 
L 158.436513 50.128136 
L 158.792315 51.478789 
L 159.148118 54.818049 
L 159.50392 58.418664 
L 159.859723 62.243098 
L 160.215525 66.253212 
L 160.571328 70.410963 
L 160.92713 74.679049 
L 161.282933 79.021476 
L 161.638735 83.404022 
L 161.994538 87.794593 
L 162.35034 92.163466 
L 162.706143 96.483404 
L 163.061945 100.729652 
L 163.417748 104.87983 
L 163.77355 108.913718 
L 164.129353 112.812974 
L 164.485155 116.560791 
L 164.840958 120.141528 
L 165.19676 123.54034 
L 165.552563 126.742833 
L 165.908365 129.734774 
L 166.264168 132.501871 
L 166.61997 135.029647 
L 166.975773 137.303408 
L 167.331575 139.308325 
L 167.687378 141.029612 
L 168.04318 142.4528 
L 168.398983 143.564091 
L 168.754785 144.350777 
L 169.110588 144.801689 
L 169.46639 144.907677 
L 169.822193 144.662072 
L 170.177995 144.061119 
L 170.533798 143.104365 
L 170.889601 141.794967 
L 171.245403 140.139918 
L 171.601206 138.150168 
L 171.957008 135.840649 
L 172.312811 133.230172 
L 172.668613 130.341225 
L 173.024416 132.079837 
L 173.380218 135.102807 
L 173.736021 137.851372 
L 174.091823 140.312278 
L 174.447626 142.476389 
L 174.803428 144.338857 
L 175.159231 145.899176 
L 175.515033 147.161126 
L 175.870836 148.132609 
L 176.226638 148.825376 
L 176.582441 149.254668 
L 176.938243 149.438773 
L 177.294046 149.398521 
L 177.649848 149.156738 
L 178.005651 148.737664 
L 178.361453 148.166368 
L 178.717256 147.468176 
L 179.073058 146.668122 
L 179.428861 145.790442 
L 179.784663 144.858127 
L 180.140466 143.892541 
L 180.496268 142.913115 
L 180.852071 141.937117 
L 181.207873 140.979508 
L 181.563676 140.052871 
L 181.919478 139.167419 
L 182.275281 138.331062 
L 182.631083 137.549543 
L 182.986886 136.826605 
L 183.342689 136.164209 
L 183.698491 135.562757 
L 184.054294 135.021343 
L 184.410096 134.53799 
L 184.765899 134.109891 
L 185.121701 133.733622 
L 185.477504 133.405349 
L 185.833306 133.120993 
L 186.189109 132.876387 
L 186.544911 132.667393 
L 186.900714 132.489998 
L 187.256516 132.340391 
L 187.612319 132.215012 
L 187.968121 132.110582 
L 188.323924 132.024127 
L 188.679726 131.952979 
L 189.035529 131.894769 
L 189.391331 131.847421 
L 189.747134 131.809127 
L 190.102936 131.778331 
L 190.458739 131.753703 
L 190.814541 131.734118 
L 191.170344 131.718627 
L 191.526146 131.706443 
L 191.881949 131.696912 
L 192.237751 131.689496 
L 192.593554 131.683758 
L 192.949356 131.67934 
L 193.305159 131.675959 
L 193.660961 131.673383 
L 194.016764 131.671433 
L 194.372566 131.669963 
L 194.728369 131.668862 
L 195.084171 131.66804 
L 195.439974 131.667432 
L 195.795776 131.666982 
L 196.151579 131.666653 
L 196.507382 131.666412 
L 196.863184 131.666237 
L 197.218987 131.666111 
L 197.574789 131.66602 
L 197.930592 131.665956 
L 198.286394 131.66591 
L 198.642197 131.665877 
L 198.997999 131.665854 
L 199.353802 131.665838 
L 199.709604 131.665827 
L 200.065407 131.665819 
L 200.421209 131.665814 
L 200.777012 131.66581 
L 201.132814 131.665807 
L 201.488617 131.665806 
L 201.844419 131.665805 
L 202.200222 131.665804 
L 202.556024 131.665803 
L 202.911827 131.665803 
L 203.267629 131.665803 
L 203.623432 131.665803 
L 203.979234 131.665803 
L 204.335037 131.665802 
L 204.690839 131.665802 
L 205.046642 131.665802 
L 205.402444 131.665802 
L 205.758247 131.665802 
L 206.114049 131.665802 
L 206.469852 131.665802 
L 206.825654 131.665802 
L 207.181457 131.665802 
L 207.537259 131.665802 
L 207.893062 131.665802 
L 208.248864 131.665802 
L 208.604667 131.665802 
L 208.96047 131.665802 
L 209.316272 131.665802 
L 209.672075 131.665802 
L 210.027877 131.665802 
L 210.38368 131.665802 
L 210.739482 131.665802 
L 211.095285 131.665802 
L 211.451087 131.665802 
L 211.80689 131.665802 
L 212.162692 131.665802 
L 212.518495 131.665802 
L 212.874297 131.665802 
L 213.2301 131.665802 
L 213.585902 131.665802 
L 213.941705 131.665802 
L 214.297507 131.665802 
L 214.65331 131.665802 
L 215.009112 131.665802 
L 215.364915 131.665802 
L 215.364915 40.850718 
L 215.364915 40.850718 
L 215.009112 40.850718 
L 214.65331 40.850718 
L 214.297507 40.850718 
L 213.941705 40.850718 
L 213.585902 40.850718 
L 213.2301 40.850718 
L 212.874297 40.850718 
L 212.518495 40.850718 
L 212.162692 40.850718 
L 211.80689 40.850718 
L 211.451087 40.850718 
L 211.095285 40.850718 
L 210.739482 40.850718 
L 210.38368 40.850718 
L 210.027877 40.850718 
L 209.672075 40.850718 
L 209.316272 40.850718 
L 208.96047 40.850718 
L 208.604667 40.850718 
L 208.248864 40.850718 
L 207.893062 40.850718 
L 207.537259 40.850718 
L 207.181457 40.850718 
L 206.825654 40.850718 
L 206.469852 40.850718 
L 206.114049 40.850718 
L 205.758247 40.850718 
L 205.402444 40.850718 
L 205.046642 40.850718 
L 204.690839 40.850718 
L 204.335037 40.850718 
L 203.979234 40.850718 
L 203.623432 40.850718 
L 203.267629 40.850718 
L 202.911827 40.850718 
L 202.556024 40.850719 
L 202.200222 40.850719 
L 201.844419 40.85072 
L 201.488617 40.850721 
L 201.132814 40.850723 
L 200.777012 40.850725 
L 200.421209 40.850729 
L 200.065407 40.850734 
L 199.709604 40.850742 
L 199.353802 40.850753 
L 198.997999 40.850769 
L 198.642197 40.850792 
L 198.286394 40.850825 
L 197.930592 40.850871 
L 197.574789 40.850936 
L 197.218987 40.851026 
L 196.863184 40.851153 
L 196.507382 40.851327 
L 196.151579 40.851568 
L 195.795776 40.851898 
L 195.439974 40.852347 
L 195.084171 40.852956 
L 194.728369 40.853777 
L 194.372566 40.854879 
L 194.016764 40.856349 
L 193.660961 40.8583 
L 193.305159 40.860876 
L 192.949356 40.86426 
L 192.593554 40.86868 
L 192.237751 40.874425 
L 191.881949 40.88185 
L 191.526146 40.891397 
L 191.170344 40.903608 
L 190.814541 40.919142 
L 190.458739 40.9388 
L 190.102936 40.963544 
L 189.747134 40.994526 
L 189.391331 41.033113 
L 189.035529 41.080921 
L 188.679726 41.139841 
L 188.323924 41.212079 
L 187.968121 41.300185 
L 187.612319 41.407093 
L 187.256516 41.536151 
L 186.900714 41.69116 
L 186.544911 41.876406 
L 186.189109 42.096689 
L 185.833306 42.357353 
L 185.477504 42.66431 
L 185.121701 43.024055 
L 184.765899 43.443678 
L 184.410096 43.930866 
L 184.054294 44.493889 
L 183.698491 45.141581 
L 183.342689 45.883291 
L 182.986886 46.72882 
L 182.631083 47.688336 
L 182.275281 48.772249 
L 181.919478 49.991067 
L 181.563676 51.355208 
L 181.207873 52.874779 
L 180.852071 54.55932 
L 180.496268 56.417519 
L 180.140466 58.456894 
L 179.784663 60.683456 
L 179.428861 63.101364 
L 179.073058 65.712581 
L 178.717256 68.516543 
L 178.361453 71.509859 
L 178.005651 74.686052 
L 177.649848 78.035363 
L 177.294046 81.544616 
L 176.938243 85.19718 
L 176.582441 88.973 
L 176.226638 92.848744 
L 175.870836 96.79803 
L 175.515033 100.791756 
L 175.159231 104.798514 
L 174.803428 108.785085 
L 174.447626 112.716998 
L 174.091823 116.55914 
L 173.736021 120.276394 
L 173.380218 123.834294 
L 173.024416 127.199662 
L 172.668613 128.799564 
L 172.312811 125.282569 
L 171.957008 121.552467 
L 171.601206 117.63539 
L 171.245403 113.559439 
L 170.889601 109.354103 
L 170.533798 105.049687 
L 170.177995 100.676758 
L 169.822193 96.265646 
L 169.46639 91.84599 
L 169.110588 87.446383 
L 168.754785 83.094087 
L 168.398983 78.814852 
L 168.04318 74.632821 
L 167.687378 70.570522 
L 167.331575 66.648934 
L 166.975773 62.887613 
L 166.61997 59.304845 
L 166.264168 55.917822 
L 165.908365 52.742805 
L 165.552563 49.795251 
L 165.19676 47.089897 
L 164.840958 44.640768 
L 164.485155 42.461115 
L 164.129353 40.563267 
L 163.77355 38.958406 
L 163.417748 37.656272 
L 163.061945 36.664807 
L 162.706143 35.989763 
L 162.35034 35.634282 
L 161.994538 35.598488 
L 161.638735 35.879098 
L 161.282933 36.469083 
L 160.92713 37.357402 
L 160.571328 38.528825 
L 160.215525 39.963852 
L 159.859723 41.638767 
L 159.50392 43.525795 
L 159.148118 45.593409 
L 158.792315 47.806742 
L 158.436513 48.437075 
L 158.08071 45.727002 
L 157.724907 43.379829 
L 157.369105 41.423271 
L 157.013302 39.880856 
L 156.6575 38.771353 
L 156.301697 38.108299 
L 155.945895 37.899638 
L 155.590092 38.147477 
L 155.23429 38.847974 
L 154.878487 39.991356 
L 154.522685 41.562068 
L 154.166882 43.539048 
L 153.81108 45.896125 
L 153.455277 48.602517 
L 153.099475 51.623431 
L 152.743672 54.920733 
L 152.38787 58.453686 
L 152.032067 62.179724 
L 151.676265 66.055248 
L 151.320462 68.101438 
L 150.96466 66.632827 
L 150.608857 65.039976 
L 150.253055 63.354205 
L 149.897252 61.606649 
L 149.54145 59.827517 
L 149.185647 58.04542 
L 148.829845 56.28679 
L 148.474042 54.575395 
L 148.11824 52.931961 
L 147.762437 51.373916 
L 147.406635 49.915238 
L 147.050832 48.566428 
L 146.69503 47.334574 
L 146.339227 46.223522 
L 145.983425 45.234123 
L 145.627622 44.364544 
L 145.271819 43.610634 
L 144.916017 42.966322 
L 144.560214 42.424027 
L 144.204412 41.975076 
L 143.848609 41.610093 
L 143.492807 41.319377 
L 143.137004 41.093219 
L 142.781202 40.922194 
L 142.425399 40.79738 
L 142.069597 40.710535 
L 141.713794 40.65422 
L 141.357992 40.621859 
L 141.002189 40.607774 
L 140.646387 40.60716 
L 140.290584 40.616048 
L 139.934782 40.631236 
L 139.578979 40.650203 
L 139.223177 40.671028 
L 138.867374 40.692293 
L 138.511572 40.712995 
L 138.155769 40.732467 
L 137.799967 40.750306 
L 137.444164 40.766304 
L 137.088362 40.780401 
L 136.732559 40.792637 
L 136.376757 40.80312 
L 136.020954 40.811997 
L 135.665152 40.819438 
L 135.309349 40.825616 
L 134.953547 40.830701 
L 134.597744 40.834854 
L 134.241942 40.838221 
L 133.886139 40.840932 
L 133.530337 40.843101 
L 133.174534 40.844827 
L 132.818731 40.846194 
L 132.462929 40.847273 
L 132.107126 40.848123 
L 131.751324 40.848795 
L 131.395521 40.84933 
L 131.039719 40.849763 
L 130.683916 40.850124 
L 130.328114 40.850439 
L 129.972311 40.850731 
L 129.616509 40.851023 
L 129.260706 40.851336 
L 128.904904 40.851694 
L 128.549101 40.852121 
L 128.193299 40.852646 
L 127.837496 40.853302 
L 127.481694 40.854131 
L 127.125891 40.855178 
L 126.770089 40.856503 
L 126.414286 40.858177 
L 126.058484 40.860284 
L 125.702681 40.862931 
L 125.346879 40.866245 
L 124.991076 40.870384 
L 124.635274 40.875541 
L 124.279471 40.881952 
L 123.923669 40.889913 
L 123.567866 40.899785 
L 123.212064 40.912023 
L 122.856261 40.92719 
L 122.500459 40.945991 
L 122.144656 40.969305 
L 121.788854 40.998228 
L 121.433051 41.034125 
L 121.077249 41.078683 
L 120.721446 41.13398 
L 120.365644 41.202552 
L 120.009841 41.287464 
L 119.654038 41.392392 
L 119.298236 41.521678 
L 118.942433 41.680399 
L 118.586631 41.8744 
L 118.230828 42.11031 
L 117.875026 42.395524 
L 117.519223 42.738145 
L 117.163421 43.146883 
L 116.807618 43.630896 
L 116.451816 44.199587 
L 116.096013 44.862342 
L 115.740211 45.628222 
L 115.384408 46.505607 
L 115.028606 47.501811 
L 114.672803 48.622674 
L 114.317001 49.872136 
L 113.961198 51.251831 
L 113.605396 52.760696 
L 113.249593 54.394625 
L 112.893791 56.146179 
L 112.537988 58.004375 
L 112.182186 59.954556 
L 111.826383 61.978372 
L 111.470581 64.053866 
L 111.114778 66.155681 
L 110.758976 68.255385 
L 110.403173 70.321912 
L 110.047371 72.322119 
L 109.691568 74.221448 
L 109.335766 75.984665 
L 108.979963 77.576683 
L 108.624161 75.902401 
L 108.268358 72.209149 
L 107.912556 68.634175 
L 107.556753 65.2184 
L 107.20095 62.001278 
L 106.845148 59.019887 
L 106.489345 56.308031 
L 106.133543 53.895403 
L 105.77774 51.806816 
L 105.421938 50.061529 
L 105.066135 48.672698 
L 104.710333 47.64696 
L 104.35453 46.984176 
L 103.998728 46.67734 
L 103.642925 46.712661 
L 103.287123 47.069825 
L 102.93132 47.722431 
L 102.575518 48.638596 
L 102.219715 49.781718 
L 101.863913 51.111371 
L 101.50811 49.921496 
L 101.152308 47.415627 
L 100.796505 45.149123 
L 100.440703 43.169184 
L 100.0849 41.518233 
L 99.729098 40.23302 
L 99.373295 39.343856 
L 99.017493 38.873977 
L 98.66169 38.83905 
L 98.305888 39.246844 
L 97.950085 40.09706 
L 97.594283 41.381325 
L 97.23848 43.083361 
L 96.882678 45.179306 
L 96.526875 47.638197 
L 96.171073 50.422594 
L 95.81527 53.489345 
L 95.459468 56.790457 
L 95.103665 60.274083 
L 94.747862 63.885574 
L 94.39206 64.802887 
L 94.036257 64.499102 
L 93.680455 64.319321 
L 93.324652 64.303004 
L 92.96885 64.486236 
L 92.613047 64.900674 
L 92.257245 65.572598 
L 91.901442 66.522122 
L 91.54564 67.762569 
L 91.189837 69.300023 
L 90.834035 71.133074 
L 90.478232 73.25276 
L 90.12243 75.642699 
L 89.766627 78.279407 
L 89.410825 81.132797 
L 89.055022 84.166828 
L 88.69922 87.340304 
L 88.343417 90.607788 
L 87.987615 93.9206 
L 87.631812 97.227896 
L 87.27601 97.470164 
L 86.920207 96.479557 
L 86.564405 95.471259 
L 86.208602 94.491675 
L 85.8528 93.58519 
L 85.496997 92.793119 
L 85.141195 92.152767 
L 84.785392 91.696599 
L 84.42959 91.451572 
L 84.073787 91.438613 
L 83.717985 91.67228 
L 83.362182 92.160602 
L 83.00638 92.905091 
L 82.650577 93.900935 
L 82.294774 95.137355 
L 81.938972 96.598104 
L 81.583169 98.262108 
L 81.227367 100.104196 
L 80.871564 102.095933 
L 80.515762 104.206484 
L 80.159959 102.388454 
L 79.804157 99.172733 
L 79.448354 95.837561 
L 79.092552 92.423784 
L 78.736749 88.971079 
L 78.380947 85.517262 
L 78.025144 82.097676 
L 77.669342 78.74468 
L 77.313539 75.487233 
L 76.957737 72.35059 
L 76.601934 69.356115 
L 76.246132 66.521193 
L 75.890329 63.859261 
L 75.534527 61.379928 
L 75.178724 59.089192 
L 74.822922 56.989729 
L 74.467119 55.081253 
L 74.111317 53.360917 
L 73.755514 51.823757 
L 73.399712 50.463145 
L 73.043909 49.271253 
L 72.688107 48.239507 
L 72.332304 47.359011 
L 71.976502 46.620947 
L 71.620699 46.016932 
L 71.264897 45.539325 
L 70.909094 45.181491 
L 70.553292 44.938007 
L 70.197489 44.804821 
L 69.841686 44.779361 
L 69.485884 44.860587 
L 69.130081 45.049007 
L 68.774279 45.346632 
L 68.418476 45.756891 
L 68.062674 46.284499 
L 67.706871 46.93527 
L 67.351069 47.715887 
L 66.995266 48.633625 
L 66.639464 49.696019 
L 66.283661 50.910501 
L 65.927859 52.283992 
L 65.572056 53.82247 
L 65.216254 55.530517 
L 64.860451 57.410859 
L 64.504649 59.463922 
L 64.148846 61.687399 
L 63.793044 64.075864 
L 63.437241 66.620439 
L 63.081439 69.308527 
L 62.725636 72.123634 
L 62.369834 75.045273 
L 62.014031 78.048989 
L 61.658229 81.106478 
L 61.302426 84.185829 
L 60.946624 87.251873 
L 60.590821 90.266647 
L 60.235019 93.189958 
L 59.879216 95.980036 
L 59.523414 98.59427 
L 59.167611 100.990008 
L 58.811809 98.671517 
L 58.456006 95.761815 
L 58.100204 92.917781 
L 57.744401 90.170325 
L 57.388599 87.548171 
L 57.032796 85.076997 
L 56.676993 82.778636 
L 56.321191 80.670371 
L 55.965388 78.764345 
L 55.609586 77.067113 
L 55.253783 75.579355 
L 54.897981 74.295767 
L 54.542178 73.205137 
L 54.186376 72.290619 
L 53.830573 71.530183 
L 53.474771 70.897261 
L 53.118968 70.361537 
L 52.763166 69.889901 
L 52.407363 69.447502 
L 52.051561 68.998896 
L 51.695758 64.675832 
L 51.339956 60.057473 
L 50.984153 55.544671 
L 50.628351 51.202028 
L 50.272548 47.092186 
L 49.916746 43.274724 
L 49.560943 39.805091 
L 49.205141 36.733592 
L 48.849338 34.104453 
L 48.493536 31.954974 
L 48.137733 30.314795 
L 47.781931 29.205298 
L 47.426128 28.639149 
L 47.070326 28.62 
L 46.714523 29.142361 
L 46.358721 30.191653 
L 46.002918 31.744433 
L 45.647116 33.768813 
L 45.291313 36.225041 
L 44.935511 39.066256 
L 44.579708 38.218963 
L 44.223905 37.548659 
L 43.868103 37.258007 
L 43.5123 37.375565 
L 43.156498 37.922664 
L 42.800695 38.912851 
L 42.444893 40.351537 
L 42.08909 42.235857 
L 41.733288 44.554754 
L 41.377485 47.289275 
L 41.021683 50.413049 
L 40.66588 53.892964 
L 40.310078 57.689979 
L 39.954275 61.76008 
L 39.598473 66.055319 
L 39.24267 70.524932 
L 38.886868 75.116483 
L 38.531065 79.777009 
L 38.175263 84.454143 
L 37.81946 89.097168 
z
" clip-path="url(#p10a094c48b)" style="fill: #ff7f0e; fill-opacity: 0.25"/>
   </g>
   <g id="matplotlib.axis_1">
    <g id="xtick_1">
     <g id="line2d_1">
      <defs>
       <path id="m0188b6bc33" d="M 0 0 
L 0 3.5 
" style="stroke: #000000; stroke-width: 0.8"/>
      </defs>
      <g>
       <use xlink:href="#m0188b6bc33" x="37.81946" y="160.92" style="stroke: #000000; stroke-width: 0.8"/>
      </g>
     </g>
     <g id="text_1">
      <!-- 0 -->
      <g transform="translate(34.63821 175.518438)scale(0.1 -0.1)">
       <defs>
        <path id="DejaVuSans-30" d="M 2034 4250 
Q 1547 4250 1301 3770 
Q 1056 3291 1056 2328 
Q 1056 1369 1301 889 
Q 1547 409 2034 409 
Q 2525 409 2770 889 
Q 3016 1369 3016 2328 
Q 3016 3291 2770 3770 
Q 2525 4250 2034 4250 
z
M 2034 4750 
Q 2819 4750 3233 4129 
Q 3647 3509 3647 2328 
Q 3647 1150 3233 529 
Q 2819 -91 2034 -91 
Q 1250 -91 836 529 
Q 422 1150 422 2328 
Q 422 3509 836 4129 
Q 1250 4750 2034 4750 
z
" transform="scale(0.015625)"/>
       </defs>
       <use xlink:href="#DejaVuSans-30"/>
      </g>
     </g>
    </g>
    <g id="xtick_2">
     <g id="line2d_2">
      <g>
       <use xlink:href="#m0188b6bc33" x="73.328551" y="160.92" style="stroke: #000000; stroke-width: 0.8"/>
      </g>
     </g>
     <g id="text_2">
      <!-- 5 -->
      <g transform="translate(70.147301 175.518438)scale(0.1 -0.1)">
       <defs>
        <path id="DejaVuSans-35" d="M 691 4666 
L 3169 4666 
L 3169 4134 
L 1269 4134 
L 1269 2991 
Q 1406 3038 1543 3061 
Q 1681 3084 1819 3084 
Q 2600 3084 3056 2656 
Q 3513 2228 3513 1497 
Q 3513 744 3044 326 
Q 2575 -91 1722 -91 
Q 1428 -91 1123 -41 
Q 819 9 494 109 
L 494 744 
Q 775 591 1075 516 
Q 1375 441 1709 441 
Q 2250 441 2565 725 
Q 2881 1009 2881 1497 
Q 2881 1984 2565 2268 
Q 2250 2553 1709 2553 
Q 1456 2553 1204 2497 
Q 953 2441 691 2322 
L 691 4666 
z
" transform="scale(0.015625)"/>
       </defs>
       <use xlink:href="#DejaVuSans-35"/>
      </g>
     </g>
    </g>
    <g id="xtick_3">
     <g id="line2d_3">
      <g>
       <use xlink:href="#m0188b6bc33" x="108.837642" y="160.92" style="stroke: #000000; stroke-width: 0.8"/>
      </g>
     </g>
     <g id="text_3">
      <!-- 10 -->
      <g transform="translate(102.475142 175.518438)scale(0.1 -0.1)">
       <defs>
        <path id="DejaVuSans-31" d="M 794 531 
L 1825 531 
L 1825 4091 
L 703 3866 
L 703 4441 
L 1819 4666 
L 2450 4666 
L 2450 531 
L 3481 531 
L 3481 0 
L 794 0 
L 794 531 
z
" transform="scale(0.015625)"/>
       </defs>
       <use xlink:href="#DejaVuSans-31"/>
       <use xlink:href="#DejaVuSans-30" x="63.623047"/>
      </g>
     </g>
    </g>
    <g id="xtick_4">
     <g id="line2d_4">
      <g>
       <use xlink:href="#m0188b6bc33" x="144.346733" y="160.92" style="stroke: #000000; stroke-width: 0.8"/>
      </g>
     </g>
     <g id="text_4">
      <!-- 15 -->
      <g transform="translate(137.984233 175.518438)scale(0.1 -0.1)">
       <use xlink:href="#DejaVuSans-31"/>
       <use xlink:href="#DejaVuSans-35" x="63.623047"/>
      </g>
     </g>
    </g>
    <g id="xtick_5">
     <g id="line2d_5">
      <g>
       <use xlink:href="#m0188b6bc33" x="179.855824" y="160.92" style="stroke: #000000; stroke-width: 0.8"/>
      </g>
     </g>
     <g id="text_5">
      <!-- 20 -->
      <g transform="translate(173.493324 175.518438)scale(0.1 -0.1)">
       <defs>
        <path id="DejaVuSans-32" d="M 1228 531 
L 3431 531 
L 3431 0 
L 469 0 
L 469 531 
Q 828 903 1448 1529 
Q 2069 2156 2228 2338 
Q 2531 2678 2651 2914 
Q 2772 3150 2772 3378 
Q 2772 3750 2511 3984 
Q 2250 4219 1831 4219 
Q 1534 4219 1204 4116 
Q 875 4013 500 3803 
L 500 4441 
Q 881 4594 1212 4672 
Q 1544 4750 1819 4750 
Q 2544 4750 2975 4387 
Q 3406 4025 3406 3419 
Q 3406 3131 3298 2873 
Q 3191 2616 2906 2266 
Q 2828 2175 2409 1742 
Q 1991 1309 1228 531 
z
" transform="scale(0.015625)"/>
       </defs>
       <use xlink:href="#DejaVuSans-32"/>
       <use xlink:href="#DejaVuSans-30" x="63.623047"/>
      </g>
     </g>
    </g>
    <g id="xtick_6">
     <g id="line2d_6">
      <g>
       <use xlink:href="#m0188b6bc33" x="215.364915" y="160.92" style="stroke: #000000; stroke-width: 0.8"/>
      </g>
     </g>
     <g id="text_6">
      <!-- 25 -->
      <g transform="translate(209.002415 175.518438)scale(0.1 -0.1)">
       <use xlink:href="#DejaVuSans-32"/>
       <use xlink:href="#DejaVuSans-35" x="63.623047"/>
      </g>
     </g>
    </g>
   </g>
   <g id="matplotlib.axis_2">
    <g id="ytick_1">
     <g id="line2d_7">
      <defs>
       <path id="mda741a6641" d="M 0 0 
L -3.5 0 
" style="stroke: #000000; stroke-width: 0.8"/>
      </defs>
      <g>
       <use xlink:href="#mda741a6641" x="28.942188" y="131.665802" style="stroke: #000000; stroke-width: 0.8"/>
      </g>
     </g>
     <g id="text_7">
      <!-- −2 -->
      <g transform="translate(7.2 135.465021)scale(0.1 -0.1)">
       <defs>
        <path id="DejaVuSans-2212" d="M 678 2272 
L 4684 2272 
L 4684 1741 
L 678 1741 
L 678 2272 
z
" transform="scale(0.015625)"/>
       </defs>
       <use xlink:href="#DejaVuSans-2212"/>
       <use xlink:href="#DejaVuSans-32" x="83.789062"/>
      </g>
     </g>
    </g>
    <g id="ytick_2">
     <g id="line2d_8">
      <g>
       <use xlink:href="#mda741a6641" x="28.942188" y="86.25826" style="stroke: #000000; stroke-width: 0.8"/>
      </g>
     </g>
     <g id="text_8">
      <!-- 0 -->
      <g transform="translate(15.579688 90.057479)scale(0.1 -0.1)">
       <use xlink:href="#DejaVuSans-30"/>
      </g>
     </g>
    </g>
    <g id="ytick_3">
     <g id="line2d_9">
      <g>
       <use xlink:href="#mda741a6641" x="28.942188" y="40.850718" style="stroke: #000000; stroke-width: 0.8"/>
      </g>
     </g>
     <g id="text_9">
      <!-- 2 -->
      <g transform="translate(15.579688 44.649936)scale(0.1 -0.1)">
       <use xlink:href="#DejaVuSans-32"/>
      </g>
     </g>
    </g>
   </g>
   <g id="line2d_10">
    <path d="M 37.81946 89.097168 
L 38.886868 82.131338 
L 40.310078 70.629785 
L 42.800695 49.922935 
L 43.868103 43.301312 
L 44.579708 40.229182 
L 45.291313 38.388991 
L 45.647116 37.94996 
L 46.002918 37.832326 
L 46.358721 38.030914 
L 46.714523 38.536339 
L 47.070326 39.335386 
L 47.781931 41.745133 
L 48.493536 45.096395 
L 49.560943 51.465427 
L 51.339956 64.001471 
L 53.474771 78.994555 
L 54.897981 87.52458 
L 55.965388 92.757667 
L 57.032796 96.836962 
L 57.744401 98.875716 
L 58.456006 100.361029 
L 59.167611 101.302343 
L 59.879216 101.725716 
L 60.235019 101.755949 
L 60.946624 101.487841 
L 61.658229 100.837574 
L 62.369834 99.881595 
L 63.437241 98.056606 
L 66.639464 92.24329 
L 67.706871 90.868616 
L 68.418476 90.213977 
L 69.130081 89.787127 
L 69.841686 89.595563 
L 70.553292 89.641199 
L 71.264897 89.921367 
L 71.976502 90.429201 
L 72.688107 91.153415 
L 73.755514 92.608185 
L 75.178724 95.102987 
L 79.804157 103.913428 
L 80.871564 105.196429 
L 81.583169 105.752451 
L 82.294774 106.038318 
L 83.00638 106.032063 
L 83.717985 105.714518 
L 84.42959 105.06875 
L 85.141195 104.080203 
L 85.8528 102.737694 
L 86.920207 100.048977 
L 87.987615 96.564968 
L 89.055022 92.351202 
L 90.478232 85.82209 
L 95.81527 59.953237 
L 96.882678 56.055028 
L 97.950085 53.025724 
L 98.66169 51.577546 
L 99.373295 50.643598 
L 99.729098 50.38241 
L 100.0849 50.263816 
L 100.440703 50.290629 
L 100.796505 50.464473 
L 101.50811 51.252908 
L 102.219715 52.613174 
L 102.93132 54.503509 
L 103.998728 58.17861 
L 105.421938 64.125387 
L 107.912556 74.814687 
L 108.979963 78.624569 
L 110.047371 81.680363 
L 111.114778 83.939859 
L 111.826383 85.029518 
L 112.537988 85.8252 
L 113.249593 86.37034 
L 113.961198 86.711721 
L 115.028606 86.941639 
L 116.451816 86.928802 
L 124.279471 86.287404 
L 133.530337 86.250566 
L 138.155769 86.116373 
L 140.290584 85.836924 
L 141.713794 85.455358 
L 143.137004 84.815004 
L 144.204412 84.094071 
L 145.271819 83.099245 
L 146.339227 81.760008 
L 147.406635 80.000494 
L 148.474042 77.748069 
L 149.54145 74.949038 
L 150.608857 71.591893 
L 152.032067 66.3621 
L 155.23429 54.042597 
L 156.301697 51.076346 
L 157.013302 49.781404 
L 157.369105 49.379825 
L 157.724907 49.157149 
L 158.08071 49.122393 
L 158.436513 49.282606 
L 158.792315 49.642765 
L 159.50392 50.972229 
L 160.215525 53.108532 
L 160.92713 56.018226 
L 161.994538 61.696541 
L 163.061945 68.69723 
L 164.485155 79.510953 
L 169.110588 116.124036 
L 170.177995 122.368939 
L 170.889601 125.574535 
L 171.601206 127.892779 
L 172.312811 129.256371 
L 172.668613 129.570394 
L 173.024416 129.639749 
L 173.380218 129.46855 
L 173.736021 129.063883 
L 174.447626 127.596693 
L 175.159231 125.348845 
L 176.226638 120.83706 
L 178.005651 111.711858 
L 179.784663 102.770791 
L 180.852071 98.248218 
L 181.919478 94.579243 
L 182.986886 91.777713 
L 184.054294 89.757616 
L 185.121701 88.378839 
L 186.189109 87.486538 
L 187.256516 86.938271 
L 188.679726 86.54641 
L 190.458739 86.346252 
L 193.660961 86.265842 
L 215.009112 86.25826 
L 215.364915 86.25826 
L 215.364915 86.25826 
" clip-path="url(#p10a094c48b)" style="fill: none; stroke: #1f77b4; stroke-width: 2; stroke-linecap: square"/>
   </g>
   <g id="line2d_11">
    <path d="M 37.81946 89.097169 
L 39.598473 73.211916 
L 41.377485 57.93898 
L 42.444893 50.401884 
L 43.5123 44.409267 
L 44.223905 41.357329 
L 44.935511 39.148114 
L 45.291313 38.377886 
L 45.647116 37.998814 
L 46.002918 37.996025 
L 46.358721 38.347681 
L 46.714523 39.026722 
L 47.426128 41.243159 
L 48.137733 44.388679 
L 49.205141 50.323746 
L 50.984153 61.918337 
L 53.118968 77.117376 
L 54.542178 86.490101 
L 55.609586 92.246164 
L 56.676993 96.654995 
L 57.388599 98.772225 
L 58.100204 100.227714 
L 58.811809 101.066313 
L 59.167611 101.32484 
L 59.879216 102.087669 
L 60.235019 102.247413 
L 60.590821 102.256846 
L 60.946624 102.117448 
L 61.658229 101.414167 
L 62.369834 100.214961 
L 63.437241 97.769962 
L 65.572056 92.519542 
L 66.639464 90.614777 
L 67.351069 89.79728 
L 68.062674 89.391134 
L 68.418476 89.352864 
L 68.774279 89.429924 
L 69.485884 89.946412 
L 70.197489 90.970299 
L 70.909094 92.517999 
L 71.620699 94.576939 
L 72.688107 98.480508 
L 75.178724 108.463547 
L 75.890329 110.461755 
L 76.601934 111.658145 
L 76.957737 111.914225 
L 77.313539 111.9342 
L 77.669342 111.72194 
L 78.025144 111.289382 
L 78.736749 109.849032 
L 79.804157 106.729263 
L 80.159959 105.587 
L 80.515762 105.189849 
L 81.227367 108.617856 
L 81.938972 111.091084 
L 82.294774 111.909685 
L 82.650577 112.433727 
L 83.00638 112.661495 
L 83.362182 112.598987 
L 83.717985 112.259198 
L 84.073787 111.661196 
L 84.785392 109.790619 
L 85.496997 107.217918 
L 86.920207 100.957413 
L 87.631812 97.931383 
L 88.343417 95.957713 
L 89.055022 93.241733 
L 90.12243 88.063147 
L 93.680455 69.284376 
L 96.171073 58.467196 
L 96.882678 56.244612 
L 97.594283 54.570031 
L 98.305888 53.369741 
L 99.017493 52.536848 
L 99.729098 51.972979 
L 100.440703 51.624798 
L 101.152308 51.50438 
L 101.50811 51.551364 
L 101.863913 52.039217 
L 102.93132 56.212128 
L 106.133543 70.232278 
L 107.20095 73.755791 
L 110.403173 82.768548 
L 110.758976 83.258328 
L 111.114778 83.541239 
L 111.470581 83.628307 
L 111.826383 83.53624 
L 112.537988 82.906716 
L 113.605396 81.293089 
L 114.672803 79.679976 
L 115.384408 79.026739 
L 115.740211 78.901222 
L 116.096013 78.932067 
L 116.451816 79.12929 
L 116.807618 79.497406 
L 117.519223 80.737683 
L 118.230828 82.587945 
L 119.298236 86.215437 
L 122.144656 96.667844 
L 122.856261 98.571823 
L 123.567866 99.962656 
L 124.279471 100.789899 
L 124.635274 100.988111 
L 124.991076 101.046082 
L 125.346879 100.969722 
L 126.058484 100.450203 
L 126.770089 99.522619 
L 127.837496 97.621969 
L 131.395521 90.32432 
L 132.462929 87.660788 
L 133.174534 85.42054 
L 134.241942 81.122216 
L 135.665152 73.850439 
L 137.088362 66.614486 
L 137.799967 64.033167 
L 138.155769 63.194207 
L 138.511572 62.716689 
L 138.867374 62.63344 
L 139.223177 62.964452 
L 139.578979 63.715065 
L 139.934782 64.874764 
L 140.646387 68.298374 
L 141.713794 75.348054 
L 143.137004 84.980491 
L 143.848609 88.424757 
L 144.204412 89.588802 
L 144.560214 90.338034 
L 144.916017 90.662255 
L 145.271819 90.568737 
L 145.627622 90.081133 
L 145.983425 89.237472 
L 146.69503 86.689477 
L 148.11824 79.881671 
L 149.185647 75.046687 
L 150.253055 71.384553 
L 151.676265 67.314502 
L 154.166882 52.955821 
L 154.878487 49.887764 
L 155.590092 47.703686 
L 155.945895 46.979611 
L 156.301697 46.51106 
L 156.6575 46.300644 
L 157.013302 46.347562 
L 157.369105 46.648138 
L 157.724907 47.196384 
L 158.436513 49.003 
L 158.792315 49.044052 
L 159.148118 48.723273 
L 159.50392 48.614177 
L 159.859723 48.728216 
L 160.215525 49.074373 
L 160.571328 49.659663 
L 161.282933 51.568786 
L 161.994538 54.489303 
L 162.706143 58.443386 
L 163.417748 63.433832 
L 164.485155 72.762719 
L 165.908365 87.855678 
L 168.04318 111.168381 
L 169.110588 120.336951 
L 169.822193 124.855701 
L 170.533798 127.972014 
L 171.245403 129.71981 
L 171.601206 130.120476 
L 171.957008 130.236916 
L 172.312811 130.096526 
L 172.668613 129.728276 
L 173.380218 130.512754 
L 173.736021 130.584151 
L 174.091823 130.328299 
L 174.447626 129.749839 
L 175.159231 127.685517 
L 175.870836 124.586391 
L 176.938243 118.644041 
L 179.073058 106.09085 
L 180.140466 100.999973 
L 181.207873 96.961307 
L 182.275281 93.7841 
L 183.342689 91.302426 
L 184.054294 90.048371 
L 184.765899 89.185546 
L 185.477504 88.790008 
L 185.833306 88.785744 
L 186.189109 88.914603 
L 186.900714 89.561033 
L 187.612319 90.667063 
L 188.679726 92.915693 
L 190.814541 97.721477 
L 192.593554 100.974573 
L 193.660961 103.022924 
L 194.728369 105.600304 
L 195.795776 108.810126 
L 197.574789 114.490991 
L 198.286394 116.211448 
L 198.997999 117.227817 
L 199.353802 117.403836 
L 199.709604 117.331207 
L 200.065407 116.996643 
L 200.421209 116.393102 
L 201.132814 114.383085 
L 201.844419 111.370762 
L 202.911827 105.3351 
L 205.046642 90.807391 
L 206.469852 82.016866 
L 207.537259 77.037146 
L 208.248864 74.745907 
L 208.96047 73.387278 
L 209.316272 73.075775 
L 209.672075 73.013688 
L 210.027877 73.2002 
L 210.38368 73.630933 
L 211.095285 75.188389 
L 211.80689 77.573882 
L 212.874297 82.323188 
L 215.364915 95.187267 
L 215.364915 95.187267 
" clip-path="url(#p10a094c48b)" style="fill: none; stroke: #808080; stroke-opacity: 0.25; stroke-width: 1.5; stroke-linecap: square"/>
   </g>
   <g id="line2d_12">
    <path d="M 37.81946 89.097168 
L 38.531065 86.629167 
L 39.24267 83.334128 
L 39.954275 79.159768 
L 41.021683 71.346264 
L 42.800695 55.754028 
L 44.223905 43.845653 
L 44.935511 39.196517 
L 45.291313 39.593535 
L 45.647116 40.287365 
L 46.358721 42.445718 
L 47.070326 45.408019 
L 48.493536 52.633635 
L 50.272548 61.706749 
L 51.695758 67.742935 
L 52.051561 69.268049 
L 53.830573 87.468819 
L 54.897981 96.273741 
L 55.609586 100.727108 
L 56.321191 103.828145 
L 56.676993 104.829519 
L 57.032796 105.449385 
L 57.388599 105.680713 
L 57.744401 105.520268 
L 58.100204 104.968778 
L 58.456006 104.031217 
L 59.167611 101.563491 
L 62.725636 126.802907 
L 63.437241 130.054347 
L 63.793044 131.163568 
L 64.148846 131.874367 
L 64.504649 132.154305 
L 64.860451 131.979628 
L 65.216254 131.336801 
L 65.572056 130.223712 
L 66.283661 126.639699 
L 66.995266 121.456754 
L 68.062674 111.618238 
L 69.841686 94.470463 
L 70.553292 88.952571 
L 71.264897 84.763343 
L 71.976502 82.032042 
L 72.332304 81.203733 
L 72.688107 80.709307 
L 73.043909 80.521406 
L 73.399712 80.607831 
L 73.755514 80.933723 
L 74.467119 82.16366 
L 75.178724 83.954061 
L 76.246132 87.292944 
L 77.669342 92.571401 
L 79.448354 100.315266 
L 80.159959 103.541453 
L 80.515762 104.556695 
L 82.294774 101.131052 
L 83.00638 100.218358 
L 83.717985 99.714286 
L 84.42959 99.566183 
L 86.208602 99.537449 
L 86.564405 99.349571 
L 87.27601 98.575803 
L 87.631812 97.668262 
L 91.54564 79.41277 
L 95.81527 60.128536 
L 96.882678 56.714601 
L 97.594283 54.997739 
L 98.305888 53.689032 
L 99.017493 52.73352 
L 99.729098 52.075154 
L 100.440703 51.675633 
L 101.152308 51.530685 
L 101.50811 51.564018 
L 101.863913 52.048299 
L 102.575518 54.79282 
L 103.998728 61.593251 
L 105.421938 68.409674 
L 106.489345 72.557843 
L 107.556753 75.6235 
L 108.979963 78.859891 
L 110.047371 83.373118 
L 110.758976 85.515706 
L 111.470581 86.912263 
L 112.182186 87.59503 
L 112.537988 87.694446 
L 112.893791 87.651964 
L 113.605396 87.212502 
L 114.317001 86.434196 
L 116.451816 83.789644 
L 117.163421 83.318251 
L 117.875026 83.211331 
L 118.586631 83.469702 
L 119.298236 84.022061 
L 121.433051 86.027622 
L 122.144656 86.344327 
L 122.856261 86.378319 
L 123.567866 86.184296 
L 124.991076 85.639906 
L 125.702681 85.590925 
L 126.414286 85.825037 
L 127.125891 86.338431 
L 128.904904 87.954192 
L 129.260706 88.111733 
L 129.616509 88.140608 
L 129.972311 88.011883 
L 130.328114 87.700365 
L 130.683916 87.185703 
L 131.395521 85.494428 
L 132.107126 82.897112 
L 132.818731 79.456398 
L 133.886139 73.079194 
L 136.376757 57.19754 
L 137.088362 53.728934 
L 137.799967 51.203245 
L 138.155769 50.349068 
L 138.511572 49.787664 
L 138.867374 49.528042 
L 139.223177 49.573948 
L 139.578979 49.923729 
L 139.934782 50.570233 
L 140.646387 52.697769 
L 141.357992 55.793423 
L 142.425399 61.714045 
L 144.560214 74.227795 
L 145.271819 77.425496 
L 145.983425 79.723984 
L 146.69503 80.999132 
L 147.050832 81.240938 
L 147.406635 81.224369 
L 147.762437 80.960194 
L 148.11824 80.463695 
L 148.829845 78.852337 
L 149.54145 76.569433 
L 150.608857 72.308084 
L 151.676265 67.902558 
L 152.743672 64.2504 
L 156.301697 51.143002 
L 157.013302 49.626776 
L 157.369105 49.166569 
L 157.724907 48.934749 
L 158.08071 48.950439 
L 159.148118 49.795991 
L 159.859723 50.763776 
L 160.571328 52.273263 
L 161.282933 54.393399 
L 161.994538 57.21879 
L 162.706143 60.846356 
L 163.77355 67.924144 
L 164.840958 76.897564 
L 166.61997 94.60905 
L 168.398983 111.934668 
L 169.46639 120.17851 
L 170.177995 124.318941 
L 170.889601 127.261614 
L 171.601206 129.015891 
L 171.957008 129.474566 
L 172.312811 129.678025 
L 172.668613 129.648382 
L 173.024416 129.869588 
L 173.380218 129.94917 
L 173.736021 129.720067 
L 174.091823 129.17806 
L 174.447626 128.326297 
L 175.159231 125.743749 
L 175.870836 122.142282 
L 176.938243 115.411758 
L 179.784663 96.395312 
L 181.207873 88.761536 
L 182.631083 82.590441 
L 184.054294 77.525947 
L 188.323924 63.894243 
L 189.035529 62.143983 
L 189.391331 61.53833 
L 189.747134 61.1723 
L 190.102936 61.087957 
L 190.458739 61.32163 
L 190.814541 61.901218 
L 191.170344 62.843877 
L 191.881949 65.823608 
L 192.593554 70.135594 
L 193.660961 78.340971 
L 195.439974 92.498034 
L 196.507382 98.907195 
L 197.218987 101.919283 
L 197.930592 104.017088 
L 198.642197 105.42547 
L 199.709604 106.850238 
L 201.132814 108.643924 
L 203.623432 112.2639 
L 204.335037 112.740562 
L 204.690839 112.764002 
L 205.046642 112.618862 
L 205.402444 112.292405 
L 206.114049 111.075301 
L 206.825654 109.138683 
L 207.893062 105.187904 
L 210.38368 95.023466 
L 211.451087 91.690768 
L 212.518495 89.04833 
L 214.65331 84.068381 
L 215.364915 82.128342 
L 215.364915 82.128342 
" clip-path="url(#p10a094c48b)" style="fill: none; stroke: #808080; stroke-opacity: 0.25; stroke-width: 1.5; stroke-linecap: square"/>
   </g>
   <g id="line2d_13">
    <path d="M 37.81946 89.097169 
L 38.886868 85.057076 
L 39.954275 80.068401 
L 41.021683 73.728807 
L 42.08909 65.70503 
L 43.5123 52.631928 
L 44.935511 39.237767 
L 45.647116 42.47919 
L 46.714523 48.978547 
L 48.137733 57.560587 
L 48.849338 60.883459 
L 49.560943 63.399943 
L 50.272548 65.256614 
L 52.051561 69.302225 
L 53.118968 81.071301 
L 54.186376 90.326129 
L 54.897981 94.957349 
L 55.609586 98.419884 
L 56.321191 100.814303 
L 57.032796 102.23274 
L 57.388599 102.59681 
L 57.744401 102.738182 
L 58.100204 102.661023 
L 58.456006 102.369467 
L 59.167611 101.438519 
L 60.235019 105.535344 
L 61.302426 108.767625 
L 62.014031 110.195025 
L 62.369834 110.611154 
L 62.725636 110.788286 
L 63.081439 110.695285 
L 63.437241 110.302104 
L 63.793044 109.581411 
L 64.148846 108.510181 
L 64.860451 105.255553 
L 65.572056 100.500864 
L 66.639464 90.871755 
L 69.841686 58.187717 
L 70.553292 53.810852 
L 70.909094 52.34628 
L 71.264897 51.390422 
L 71.620699 50.946424 
L 71.976502 51.005063 
L 72.332304 51.546068 
L 72.688107 52.53978 
L 73.399712 55.731487 
L 74.111317 60.229814 
L 75.178724 68.599823 
L 78.025144 92.441697 
L 79.092552 99.286434 
L 79.804157 102.647964 
L 80.159959 103.930926 
L 80.515762 104.703068 
L 80.871564 104.689524 
L 81.583169 105.003034 
L 83.362182 106.249152 
L 83.717985 106.298109 
L 84.073787 106.213016 
L 84.42959 105.977114 
L 85.141195 105.025237 
L 85.8528 103.463606 
L 86.920207 100.257897 
L 88.343417 95.249012 
L 89.410825 90.337278 
L 93.324652 70.263607 
L 95.103665 62.570841 
L 96.171073 57.642776 
L 97.23848 53.958802 
L 97.950085 52.226535 
L 98.66169 51.045325 
L 99.373295 50.382455 
L 99.729098 50.23717 
L 100.0849 50.212896 
L 100.440703 50.30786 
L 101.152308 50.84811 
L 101.863913 51.889857 
L 102.575518 53.752161 
L 103.287123 56.252991 
L 104.35453 60.969924 
L 107.20095 74.427011 
L 107.912556 76.613593 
L 108.979963 78.986596 
L 111.114778 91.04549 
L 111.826383 94.045825 
L 112.537988 96.014852 
L 112.893791 96.541815 
L 113.249593 96.741661 
L 113.605396 96.609403 
L 113.961198 96.149903 
L 114.317001 95.37775 
L 115.028606 92.999241 
L 116.096013 87.926463 
L 117.875026 78.688993 
L 118.586631 75.800725 
L 119.298236 73.767726 
L 119.654038 73.112711 
L 120.009841 72.706067 
L 120.365644 72.544727 
L 120.721446 72.619333 
L 121.077249 72.914901 
L 121.788854 74.085957 
L 122.500459 75.859526 
L 123.923669 80.311171 
L 125.346879 84.670087 
L 126.414286 87.336733 
L 127.481694 89.443988 
L 128.904904 91.717008 
L 131.039719 95.096435 
L 133.886139 99.993963 
L 134.597744 100.821527 
L 135.309349 101.241159 
L 135.665152 101.258503 
L 136.020954 101.129261 
L 136.376757 100.842231 
L 137.088362 99.761843 
L 137.799967 97.975691 
L 138.511572 95.477925 
L 139.223177 92.290745 
L 140.290584 86.317105 
L 141.713794 76.542266 
L 144.204412 58.440524 
L 144.916017 54.489752 
L 145.627622 51.713092 
L 145.983425 50.847921 
L 146.339227 50.359392 
L 146.69503 50.255494 
L 147.050832 50.532602 
L 147.406635 51.174979 
L 148.11824 53.432613 
L 148.829845 56.674206 
L 150.608857 65.700485 
L 151.320462 68.256818 
L 151.676265 66.382516 
L 152.743672 57.590723 
L 153.455277 53.348598 
L 154.166882 50.39621 
L 154.878487 48.581581 
L 155.590092 47.679447 
L 155.945895 47.494932 
L 156.301697 47.451021 
L 157.013302 47.69676 
L 157.724907 48.291981 
L 159.148118 49.949725 
L 159.50392 50.690747 
L 160.215525 52.987156 
L 160.92713 56.217739 
L 161.994538 62.376862 
L 163.77355 74.633982 
L 167.331575 99.837518 
L 169.110588 110.887475 
L 171.245403 122.665279 
L 172.668613 129.264889 
L 173.024416 128.627671 
L 173.736021 125.115973 
L 174.447626 120.437163 
L 175.515033 111.756593 
L 177.294046 94.63236 
L 180.140466 66.293754 
L 181.207873 57.805061 
L 181.919478 53.680178 
L 182.631083 51.197036 
L 182.986886 50.663349 
L 183.342689 50.636674 
L 183.698491 51.131636 
L 184.054294 52.15205 
L 184.410096 53.690131 
L 185.121701 58.229307 
L 185.833306 64.459067 
L 186.900714 75.988218 
L 189.035529 100.273707 
L 190.102936 109.833255 
L 190.814541 114.503171 
L 191.526146 117.609949 
L 191.881949 118.552353 
L 192.237751 119.086297 
L 192.593554 119.219001 
L 192.949356 118.964537 
L 193.305159 118.344034 
L 194.016764 116.124383 
L 194.728369 112.862781 
L 196.507382 102.745254 
L 197.574789 97.295448 
L 198.286394 94.518525 
L 198.997999 92.562175 
L 199.709604 91.412128 
L 200.065407 91.109443 
L 200.421209 90.963874 
L 200.777012 90.953739 
L 201.488617 91.247122 
L 202.556024 92.133136 
L 204.335037 93.690559 
L 206.825654 95.611456 
L 207.537259 96.50761 
L 208.248864 97.702075 
L 209.316272 100.043405 
L 213.585902 110.531718 
L 215.364915 113.855871 
L 215.364915 113.855871 
" clip-path="url(#p10a094c48b)" style="fill: none; stroke: #808080; stroke-opacity: 0.25; stroke-width: 1.5; stroke-linecap: square"/>
   </g>
   <g id="line2d_14">
    <path d="M 37.81946 89.097169 
L 38.531065 88.405703 
L 39.24267 87.054202 
L 39.954275 84.753307 
L 40.66588 81.23573 
L 41.377485 76.335272 
L 42.08909 70.060829 
L 43.156498 58.6458 
L 44.935511 39.248418 
L 46.002918 44.691434 
L 47.426128 52.327095 
L 48.493536 56.82747 
L 49.560943 60.216722 
L 50.984153 64.559298 
L 51.695758 67.405096 
L 52.051561 69.228161 
L 53.118968 77.877827 
L 53.830573 82.15133 
L 54.542178 85.40126 
L 55.609586 89.053398 
L 57.388599 94.632974 
L 59.167611 101.176994 
L 59.879216 99.367434 
L 62.725636 90.618073 
L 63.437241 89.574964 
L 63.793044 89.342362 
L 64.148846 89.306129 
L 64.504649 89.461656 
L 64.860451 89.79887 
L 65.572056 90.953739 
L 66.639464 93.541154 
L 68.418476 98.182279 
L 69.130081 99.465816 
L 69.841686 100.159434 
L 70.197489 100.260362 
L 70.553292 100.196506 
L 70.909094 99.975223 
L 71.620699 99.120402 
L 72.688107 97.16519 
L 73.755514 95.133903 
L 74.467119 94.149168 
L 74.822922 93.842986 
L 75.178724 93.683884 
L 75.534527 93.68229 
L 75.890329 93.842948 
L 76.246132 94.164999 
L 76.957737 95.263798 
L 77.669342 96.875146 
L 79.092552 100.967417 
L 80.159959 104.035428 
L 80.515762 104.714764 
L 82.294774 104.302445 
L 83.717985 103.804419 
L 84.42959 103.380874 
L 85.141195 102.737673 
L 85.8528 101.79995 
L 86.564405 100.511684 
L 87.27601 98.842165 
L 87.987615 96.345337 
L 89.410825 90.052665 
L 95.81527 60.028961 
L 96.882678 56.514073 
L 97.950085 53.976425 
L 98.66169 52.778695 
L 99.373295 51.940429 
L 100.0849 51.444022 
L 100.796505 51.287918 
L 101.50811 51.485604 
L 101.863913 52.002469 
L 102.575518 54.488783 
L 103.642925 59.227771 
L 106.133543 71.229974 
L 107.20095 75.033267 
L 107.912556 76.78995 
L 108.624161 77.925773 
L 108.979963 78.961114 
L 110.403173 86.199545 
L 111.114778 88.935104 
L 111.826383 90.848754 
L 112.182186 91.463859 
L 112.537988 91.843052 
L 112.893791 91.986829 
L 113.249593 91.900965 
L 113.605396 91.596225 
L 114.317001 90.394993 
L 115.028606 88.54566 
L 116.096013 84.979364 
L 119.654038 72.276812 
L 120.721446 69.372141 
L 121.433051 67.982853 
L 122.144656 67.211129 
L 122.500459 67.100894 
L 122.856261 67.190464 
L 123.212064 67.484322 
L 123.923669 68.663455 
L 124.635274 70.508308 
L 126.770089 77.019862 
L 127.481694 78.337704 
L 127.837496 78.686349 
L 128.193299 78.811814 
L 128.549101 78.714488 
L 128.904904 78.404127 
L 129.616509 77.221383 
L 130.328114 75.46595 
L 131.751324 71.121634 
L 136.020954 57.72644 
L 137.088362 55.004094 
L 137.799967 53.728758 
L 138.511572 53.01292 
L 138.867374 52.874549 
L 139.223177 52.875063 
L 139.934782 53.232162 
L 141.002189 54.302847 
L 142.069597 55.348693 
L 142.781202 55.732096 
L 143.492807 55.789269 
L 144.204412 55.589502 
L 145.271819 55.20196 
L 145.983425 55.222543 
L 146.339227 55.397637 
L 146.69503 55.708793 
L 147.406635 56.778035 
L 148.11824 58.43215 
L 149.185647 61.730912 
L 150.96466 67.434742 
L 151.320462 68.313467 
L 151.676265 66.429973 
L 153.099475 54.093221 
L 154.166882 46.945211 
L 154.878487 43.562416 
L 155.590092 41.49507 
L 155.945895 41.003554 
L 156.301697 40.8948 
L 156.6575 41.180523 
L 157.013302 41.868 
L 157.369105 42.959216 
L 158.08071 46.329965 
L 158.436513 48.581044 
L 158.792315 48.107072 
L 159.859723 43.1833 
L 160.571328 40.902765 
L 160.92713 40.187345 
L 161.282933 39.806777 
L 161.638735 39.795633 
L 161.994538 40.183886 
L 162.35034 40.995918 
L 162.706143 42.2496 
L 163.417748 46.116413 
L 164.129353 51.771482 
L 164.840958 59.06428 
L 165.908365 72.409338 
L 168.754785 110.6468 
L 169.822193 121.10051 
L 170.533798 125.933704 
L 171.245403 128.938855 
L 171.601206 129.766466 
L 171.957008 130.163765 
L 172.312811 130.15233 
L 172.668613 129.757808 
L 173.024416 130.270715 
L 173.736021 131.557328 
L 174.091823 131.926558 
L 174.447626 132.102209 
L 174.803428 132.082623 
L 175.159231 131.870762 
L 175.515033 131.47345 
L 176.226638 130.16331 
L 176.938243 128.246553 
L 178.005651 124.430617 
L 179.073058 119.644758 
L 180.140466 113.901679 
L 181.207873 107.107869 
L 182.631083 96.323173 
L 184.410096 80.544807 
L 186.900714 58.112995 
L 187.968121 50.632861 
L 188.679726 47.074328 
L 189.391331 44.922992 
L 189.747134 44.414293 
L 190.102936 44.287327 
L 190.458739 44.532832 
L 190.814541 45.131662 
L 191.526146 47.266494 
L 192.237751 50.370494 
L 195.439974 66.123334 
L 196.507382 69.617277 
L 197.930592 73.200515 
L 199.709604 77.652958 
L 201.844419 83.237049 
L 202.556024 84.61658 
L 203.267629 85.522233 
L 203.979234 85.903231 
L 204.690839 85.80143 
L 205.402444 85.345975 
L 207.181457 83.89579 
L 207.893062 83.604557 
L 208.604667 83.545139 
L 210.027877 83.605131 
L 210.739482 83.285687 
L 211.095285 82.935027 
L 211.80689 81.736788 
L 212.518495 79.792005 
L 213.2301 77.098529 
L 214.297507 71.912033 
L 215.364915 65.980381 
L 215.364915 65.980381 
" clip-path="url(#p10a094c48b)" style="fill: none; stroke: #808080; stroke-opacity: 0.25; stroke-width: 1.5; stroke-linecap: square"/>
   </g>
   <g id="line2d_15">
    <path d="M 37.81946 89.097168 
L 38.531065 87.34748 
L 39.24267 84.984697 
L 39.954275 81.815646 
L 40.66588 77.697036 
L 41.733288 69.641851 
L 43.156498 56.103263 
L 44.579708 42.119462 
L 44.935511 39.229066 
L 45.647116 41.86704 
L 47.070326 48.866342 
L 48.493536 55.619533 
L 49.916746 61.088749 
L 51.695758 67.605683 
L 52.051561 69.250072 
L 53.118968 79.19673 
L 54.186376 87.08772 
L 54.897981 91.114938 
L 55.609586 94.209977 
L 56.321191 96.487299 
L 57.032796 98.11174 
L 58.100204 99.79419 
L 59.167611 101.274162 
L 59.523414 101.192057 
L 59.879216 100.753381 
L 60.235019 99.947512 
L 60.946624 97.231467 
L 61.658229 93.127154 
L 62.725636 84.900728 
L 65.572056 60.682666 
L 66.283661 56.380262 
L 66.995266 53.329107 
L 67.706871 51.605489 
L 68.062674 51.23703 
L 68.418476 51.184625 
L 68.774279 51.433617 
L 69.130081 51.96641 
L 69.841686 53.80291 
L 70.553292 56.522269 
L 71.620699 61.867576 
L 73.043909 70.46739 
L 75.890329 88.221303 
L 76.957737 93.776004 
L 78.025144 98.298346 
L 79.092552 101.74122 
L 80.159959 104.225389 
L 80.515762 104.773793 
L 81.227367 105.054753 
L 81.938972 105.075724 
L 82.650577 104.775635 
L 83.362182 104.1438 
L 84.073787 103.22223 
L 87.27601 98.396501 
L 87.631812 97.567555 
L 88.69922 90.390329 
L 91.189837 71.721713 
L 91.901442 67.856491 
L 92.613047 65.305184 
L 92.96885 64.558425 
L 93.324652 64.154483 
L 93.680455 64.067625 
L 94.036257 64.258532 
L 94.39206 64.676126 
L 94.747862 63.814495 
L 96.171073 49.232526 
L 96.882678 43.596035 
L 97.594283 39.705202 
L 97.950085 38.4973 
L 98.305888 37.797138 
L 98.66169 37.599443 
L 99.017493 37.886174 
L 99.373295 38.627911 
L 100.0849 41.312409 
L 100.796505 45.259203 
L 101.50811 50.012355 
L 101.863913 51.181315 
L 102.575518 49.338779 
L 102.93132 48.878806 
L 103.287123 48.759323 
L 103.642925 48.993705 
L 103.998728 49.5859 
L 104.35453 50.530349 
L 105.066135 53.407539 
L 105.77774 57.40308 
L 107.20095 67.317044 
L 108.624161 76.939533 
L 108.979963 78.325185 
L 109.691568 79.36934 
L 110.403173 80.854558 
L 111.114778 82.852572 
L 112.182186 86.80768 
L 113.249593 91.715621 
L 116.096013 105.750511 
L 116.807618 108.330305 
L 117.519223 110.072351 
L 117.875026 110.573056 
L 118.230828 110.807589 
L 118.586631 110.76992 
L 118.942433 110.461567 
L 119.298236 109.891819 
L 120.009841 108.042624 
L 120.721446 105.434137 
L 122.500459 97.454717 
L 123.923669 91.515923 
L 125.346879 86.595898 
L 127.481694 80.073006 
L 128.549101 77.389063 
L 129.260706 76.23589 
L 129.616509 75.94577 
L 129.972311 75.884857 
L 130.328114 76.075198 
L 130.683916 76.531202 
L 131.039719 77.258136 
L 131.751324 79.49449 
L 132.462929 82.61909 
L 135.309349 96.696017 
L 136.020954 98.723658 
L 136.376757 99.358917 
L 136.732559 99.740198 
L 137.088362 99.876555 
L 137.444164 99.783405 
L 137.799967 99.480613 
L 138.511572 98.335844 
L 139.223177 96.616974 
L 140.290584 93.24973 
L 141.357992 89.141374 
L 143.137004 81.128523 
L 144.560214 74.918969 
L 145.271819 72.496797 
L 145.983425 70.78978 
L 146.69503 69.861067 
L 147.050832 69.66807 
L 147.406635 69.626557 
L 148.11824 69.864392 
L 149.185647 70.418765 
L 149.897252 70.459186 
L 150.253055 70.288911 
L 150.608857 69.968283 
L 151.320462 68.857909 
L 152.032067 65.55243 
L 153.81108 57.005036 
L 155.23429 51.197736 
L 155.945895 49.030546 
L 156.6575 47.66271 
L 157.013302 47.350148 
L 157.369105 47.316695 
L 157.724907 47.579446 
L 158.08071 48.149033 
L 158.436513 49.029104 
L 158.792315 49.069379 
L 159.50392 48.48104 
L 159.859723 48.396726 
L 160.215525 48.478082 
L 160.571328 48.743529 
L 160.92713 49.209549 
L 161.638735 50.79411 
L 162.35034 53.294707 
L 163.061945 56.707893 
L 164.129353 63.389545 
L 165.19676 71.625588 
L 166.61997 84.410312 
L 170.533798 121.95423 
L 171.245403 126.483617 
L 171.957008 129.191259 
L 172.312811 129.739489 
L 172.668613 129.705998 
L 173.024416 130.205168 
L 173.736021 132.097512 
L 175.159231 136.853564 
L 176.226638 140.03444 
L 176.582441 140.734733 
L 176.938243 141.163466 
L 177.294046 141.272805 
L 177.649848 141.023045 
L 178.005651 140.384647 
L 178.361453 139.339832 
L 179.073058 136.024493 
L 179.784663 131.197291 
L 180.852071 121.867702 
L 182.986886 102.199067 
L 183.698491 97.244025 
L 184.410096 93.624915 
L 185.121701 91.369343 
L 185.477504 90.705912 
L 185.833306 90.305309 
L 186.189109 90.122253 
L 186.544911 90.106138 
L 187.256516 90.361213 
L 187.968121 90.657301 
L 188.679726 90.653153 
L 189.035529 90.465194 
L 189.747134 89.651447 
L 190.458739 88.272438 
L 191.526146 85.4527 
L 192.949356 81.519477 
L 193.660961 80.045034 
L 194.372566 79.187723 
L 194.728369 79.043279 
L 195.084171 79.110792 
L 195.439974 79.403689 
L 195.795776 79.932745 
L 196.507382 81.72948 
L 197.218987 84.535396 
L 197.930592 88.342898 
L 198.997999 95.810729 
L 200.065407 105.067103 
L 201.844419 122.950697 
L 203.623432 140.639913 
L 204.690839 148.98551 
L 205.402444 152.739186 
L 205.758247 153.913044 
L 206.114049 154.553743 
L 206.469852 154.62 
L 206.825654 154.078363 
L 207.181457 152.904929 
L 207.537259 151.086737 
L 208.248864 145.525459 
L 208.96047 137.542585 
L 210.027877 121.844423 
L 213.941705 58.090402 
L 214.65331 50.626468 
L 215.364915 45.279429 
L 215.364915 45.279429 
" clip-path="url(#p10a094c48b)" style="fill: none; stroke: #808080; stroke-opacity: 0.25; stroke-width: 1.5; stroke-linecap: square"/>
   </g>
   <g id="patch_3">
    <path d="M 28.942188 160.92 
L 28.942188 22.32 
" style="fill: none; stroke: #000000; stroke-width: 0.8; stroke-linejoin: miter; stroke-linecap: square"/>
   </g>
   <g id="patch_4">
    <path d="M 224.242188 160.92 
L 224.242188 22.32 
" style="fill: none; stroke: #000000; stroke-width: 0.8; stroke-linejoin: miter; stroke-linecap: square"/>
   </g>
   <g id="patch_5">
    <path d="M 28.942188 160.92 
L 224.242188 160.92 
" style="fill: none; stroke: #000000; stroke-width: 0.8; stroke-linejoin: miter; stroke-linecap: square"/>
   </g>
   <g id="patch_6">
    <path d="M 28.942188 22.32 
L 224.242188 22.32 
" style="fill: none; stroke: #000000; stroke-width: 0.8; stroke-linejoin: miter; stroke-linecap: square"/>
   </g>
   <g id="text_10">
    <!-- Lengthscale $\ell$=0.500, Amplitude $a$=1 -->
    <g transform="translate(14.692188 16.32)scale(0.12 -0.12)">
     <defs>
      <path id="DejaVuSans-4c" d="M 628 4666 
L 1259 4666 
L 1259 531 
L 3531 531 
L 3531 0 
L 628 0 
L 628 4666 
z
" transform="scale(0.015625)"/>
      <path id="DejaVuSans-65" d="M 3597 1894 
L 3597 1613 
L 953 1613 
Q 991 1019 1311 708 
Q 1631 397 2203 397 
Q 2534 397 2845 478 
Q 3156 559 3463 722 
L 3463 178 
Q 3153 47 2828 -22 
Q 2503 -91 2169 -91 
Q 1331 -91 842 396 
Q 353 884 353 1716 
Q 353 2575 817 3079 
Q 1281 3584 2069 3584 
Q 2775 3584 3186 3129 
Q 3597 2675 3597 1894 
z
M 3022 2063 
Q 3016 2534 2758 2815 
Q 2500 3097 2075 3097 
Q 1594 3097 1305 2825 
Q 1016 2553 972 2059 
L 3022 2063 
z
" transform="scale(0.015625)"/>
      <path id="DejaVuSans-6e" d="M 3513 2113 
L 3513 0 
L 2938 0 
L 2938 2094 
Q 2938 2591 2744 2837 
Q 2550 3084 2163 3084 
Q 1697 3084 1428 2787 
Q 1159 2491 1159 1978 
L 1159 0 
L 581 0 
L 581 3500 
L 1159 3500 
L 1159 2956 
Q 1366 3272 1645 3428 
Q 1925 3584 2291 3584 
Q 2894 3584 3203 3211 
Q 3513 2838 3513 2113 
z
" transform="scale(0.015625)"/>
      <path id="DejaVuSans-67" d="M 2906 1791 
Q 2906 2416 2648 2759 
Q 2391 3103 1925 3103 
Q 1463 3103 1205 2759 
Q 947 2416 947 1791 
Q 947 1169 1205 825 
Q 1463 481 1925 481 
Q 2391 481 2648 825 
Q 2906 1169 2906 1791 
z
M 3481 434 
Q 3481 -459 3084 -895 
Q 2688 -1331 1869 -1331 
Q 1566 -1331 1297 -1286 
Q 1028 -1241 775 -1147 
L 775 -588 
Q 1028 -725 1275 -790 
Q 1522 -856 1778 -856 
Q 2344 -856 2625 -561 
Q 2906 -266 2906 331 
L 2906 616 
Q 2728 306 2450 153 
Q 2172 0 1784 0 
Q 1141 0 747 490 
Q 353 981 353 1791 
Q 353 2603 747 3093 
Q 1141 3584 1784 3584 
Q 2172 3584 2450 3431 
Q 2728 3278 2906 2969 
L 2906 3500 
L 3481 3500 
L 3481 434 
z
" transform="scale(0.015625)"/>
      <path id="DejaVuSans-74" d="M 1172 4494 
L 1172 3500 
L 2356 3500 
L 2356 3053 
L 1172 3053 
L 1172 1153 
Q 1172 725 1289 603 
Q 1406 481 1766 481 
L 2356 481 
L 2356 0 
L 1766 0 
Q 1100 0 847 248 
Q 594 497 594 1153 
L 594 3053 
L 172 3053 
L 172 3500 
L 594 3500 
L 594 4494 
L 1172 4494 
z
" transform="scale(0.015625)"/>
      <path id="DejaVuSans-68" d="M 3513 2113 
L 3513 0 
L 2938 0 
L 2938 2094 
Q 2938 2591 2744 2837 
Q 2550 3084 2163 3084 
Q 1697 3084 1428 2787 
Q 1159 2491 1159 1978 
L 1159 0 
L 581 0 
L 581 4863 
L 1159 4863 
L 1159 2956 
Q 1366 3272 1645 3428 
Q 1925 3584 2291 3584 
Q 2894 3584 3203 3211 
Q 3513 2838 3513 2113 
z
" transform="scale(0.015625)"/>
      <path id="DejaVuSans-73" d="M 2834 3397 
L 2834 2853 
Q 2591 2978 2328 3040 
Q 2066 3103 1784 3103 
Q 1356 3103 1142 2972 
Q 928 2841 928 2578 
Q 928 2378 1081 2264 
Q 1234 2150 1697 2047 
L 1894 2003 
Q 2506 1872 2764 1633 
Q 3022 1394 3022 966 
Q 3022 478 2636 193 
Q 2250 -91 1575 -91 
Q 1294 -91 989 -36 
Q 684 19 347 128 
L 347 722 
Q 666 556 975 473 
Q 1284 391 1588 391 
Q 1994 391 2212 530 
Q 2431 669 2431 922 
Q 2431 1156 2273 1281 
Q 2116 1406 1581 1522 
L 1381 1569 
Q 847 1681 609 1914 
Q 372 2147 372 2553 
Q 372 3047 722 3315 
Q 1072 3584 1716 3584 
Q 2034 3584 2315 3537 
Q 2597 3491 2834 3397 
z
" transform="scale(0.015625)"/>
      <path id="DejaVuSans-63" d="M 3122 3366 
L 3122 2828 
Q 2878 2963 2633 3030 
Q 2388 3097 2138 3097 
Q 1578 3097 1268 2742 
Q 959 2388 959 1747 
Q 959 1106 1268 751 
Q 1578 397 2138 397 
Q 2388 397 2633 464 
Q 2878 531 3122 666 
L 3122 134 
Q 2881 22 2623 -34 
Q 2366 -91 2075 -91 
Q 1284 -91 818 406 
Q 353 903 353 1747 
Q 353 2603 823 3093 
Q 1294 3584 2113 3584 
Q 2378 3584 2631 3529 
Q 2884 3475 3122 3366 
z
" transform="scale(0.015625)"/>
      <path id="DejaVuSans-61" d="M 2194 1759 
Q 1497 1759 1228 1600 
Q 959 1441 959 1056 
Q 959 750 1161 570 
Q 1363 391 1709 391 
Q 2188 391 2477 730 
Q 2766 1069 2766 1631 
L 2766 1759 
L 2194 1759 
z
M 3341 1997 
L 3341 0 
L 2766 0 
L 2766 531 
Q 2569 213 2275 61 
Q 1981 -91 1556 -91 
Q 1019 -91 701 211 
Q 384 513 384 1019 
Q 384 1609 779 1909 
Q 1175 2209 1959 2209 
L 2766 2209 
L 2766 2266 
Q 2766 2663 2505 2880 
Q 2244 3097 1772 3097 
Q 1472 3097 1187 3025 
Q 903 2953 641 2809 
L 641 3341 
Q 956 3463 1253 3523 
Q 1550 3584 1831 3584 
Q 2591 3584 2966 3190 
Q 3341 2797 3341 1997 
z
" transform="scale(0.015625)"/>
      <path id="DejaVuSans-6c" d="M 603 4863 
L 1178 4863 
L 1178 0 
L 603 0 
L 603 4863 
z
" transform="scale(0.015625)"/>
      <path id="DejaVuSans-20" transform="scale(0.015625)"/>
      <path id="DejaVuSans-Oblique-2113" d="M 950 838 
Q 1078 213 1350 213 
Q 1531 213 1766 572 
L 2181 572 
Q 1994 253 1775 88 
Q 1538 -91 1319 -91 
Q 831 -91 634 344 
L 400 0 
L -88 0 
Q 250 459 500 888 
Q 469 1131 469 1397 
Q 469 1872 566 2347 
Q 931 4131 1256 4497 
Q 1481 4750 1866 4750 
Q 2256 4750 2256 4209 
Q 2253 3966 2197 3675 
Q 1972 2484 950 838 
z
M 947 1656 
Q 1531 2744 1709 3613 
Q 1803 4072 1803 4191 
Q 1803 4406 1725 4406 
Q 1384 4134 1081 2516 
Q 997 2063 947 1656 
z
" transform="scale(0.015625)"/>
      <path id="DejaVuSans-3d" d="M 678 2906 
L 4684 2906 
L 4684 2381 
L 678 2381 
L 678 2906 
z
M 678 1631 
L 4684 1631 
L 4684 1100 
L 678 1100 
L 678 1631 
z
" transform="scale(0.015625)"/>
      <path id="DejaVuSans-2e" d="M 684 794 
L 1344 794 
L 1344 0 
L 684 0 
L 684 794 
z
" transform="scale(0.015625)"/>
      <path id="DejaVuSans-2c" d="M 750 794 
L 1409 794 
L 1409 256 
L 897 -744 
L 494 -744 
L 750 256 
L 750 794 
z
" transform="scale(0.015625)"/>
      <path id="DejaVuSans-41" d="M 2188 4044 
L 1331 1722 
L 3047 1722 
L 2188 4044 
z
M 1831 4666 
L 2547 4666 
L 4325 0 
L 3669 0 
L 3244 1197 
L 1141 1197 
L 716 0 
L 50 0 
L 1831 4666 
z
" transform="scale(0.015625)"/>
      <path id="DejaVuSans-6d" d="M 3328 2828 
Q 3544 3216 3844 3400 
Q 4144 3584 4550 3584 
Q 5097 3584 5394 3201 
Q 5691 2819 5691 2113 
L 5691 0 
L 5113 0 
L 5113 2094 
Q 5113 2597 4934 2840 
Q 4756 3084 4391 3084 
Q 3944 3084 3684 2787 
Q 3425 2491 3425 1978 
L 3425 0 
L 2847 0 
L 2847 2094 
Q 2847 2600 2669 2842 
Q 2491 3084 2119 3084 
Q 1678 3084 1418 2786 
Q 1159 2488 1159 1978 
L 1159 0 
L 581 0 
L 581 3500 
L 1159 3500 
L 1159 2956 
Q 1356 3278 1631 3431 
Q 1906 3584 2284 3584 
Q 2666 3584 2933 3390 
Q 3200 3197 3328 2828 
z
" transform="scale(0.015625)"/>
      <path id="DejaVuSans-70" d="M 1159 525 
L 1159 -1331 
L 581 -1331 
L 581 3500 
L 1159 3500 
L 1159 2969 
Q 1341 3281 1617 3432 
Q 1894 3584 2278 3584 
Q 2916 3584 3314 3078 
Q 3713 2572 3713 1747 
Q 3713 922 3314 415 
Q 2916 -91 2278 -91 
Q 1894 -91 1617 61 
Q 1341 213 1159 525 
z
M 3116 1747 
Q 3116 2381 2855 2742 
Q 2594 3103 2138 3103 
Q 1681 3103 1420 2742 
Q 1159 2381 1159 1747 
Q 1159 1113 1420 752 
Q 1681 391 2138 391 
Q 2594 391 2855 752 
Q 3116 1113 3116 1747 
z
" transform="scale(0.015625)"/>
      <path id="DejaVuSans-69" d="M 603 3500 
L 1178 3500 
L 1178 0 
L 603 0 
L 603 3500 
z
M 603 4863 
L 1178 4863 
L 1178 4134 
L 603 4134 
L 603 4863 
z
" transform="scale(0.015625)"/>
      <path id="DejaVuSans-75" d="M 544 1381 
L 544 3500 
L 1119 3500 
L 1119 1403 
Q 1119 906 1312 657 
Q 1506 409 1894 409 
Q 2359 409 2629 706 
Q 2900 1003 2900 1516 
L 2900 3500 
L 3475 3500 
L 3475 0 
L 2900 0 
L 2900 538 
Q 2691 219 2414 64 
Q 2138 -91 1772 -91 
Q 1169 -91 856 284 
Q 544 659 544 1381 
z
M 1991 3584 
L 1991 3584 
z
" transform="scale(0.015625)"/>
      <path id="DejaVuSans-64" d="M 2906 2969 
L 2906 4863 
L 3481 4863 
L 3481 0 
L 2906 0 
L 2906 525 
Q 2725 213 2448 61 
Q 2172 -91 1784 -91 
Q 1150 -91 751 415 
Q 353 922 353 1747 
Q 353 2572 751 3078 
Q 1150 3584 1784 3584 
Q 2172 3584 2448 3432 
Q 2725 3281 2906 2969 
z
M 947 1747 
Q 947 1113 1208 752 
Q 1469 391 1925 391 
Q 2381 391 2643 752 
Q 2906 1113 2906 1747 
Q 2906 2381 2643 2742 
Q 2381 3103 1925 3103 
Q 1469 3103 1208 2742 
Q 947 2381 947 1747 
z
" transform="scale(0.015625)"/>
      <path id="DejaVuSans-Oblique-61" d="M 3438 1997 
L 3047 0 
L 2472 0 
L 2578 531 
Q 2325 219 2001 64 
Q 1678 -91 1281 -91 
Q 834 -91 548 182 
Q 263 456 263 884 
Q 263 1497 752 1853 
Q 1241 2209 2100 2209 
L 2900 2209 
L 2931 2363 
Q 2938 2388 2941 2417 
Q 2944 2447 2944 2509 
Q 2944 2788 2717 2942 
Q 2491 3097 2081 3097 
Q 1800 3097 1504 3025 
Q 1209 2953 897 2809 
L 997 3341 
Q 1322 3463 1633 3523 
Q 1944 3584 2234 3584 
Q 2853 3584 3176 3315 
Q 3500 3047 3500 2534 
Q 3500 2431 3484 2292 
Q 3469 2153 3438 1997 
z
M 2816 1759 
L 2241 1759 
Q 1534 1759 1195 1570 
Q 856 1381 856 984 
Q 856 709 1029 553 
Q 1203 397 1509 397 
Q 1978 397 2328 733 
Q 2678 1069 2791 1631 
L 2816 1759 
z
" transform="scale(0.015625)"/>
     </defs>
     <use xlink:href="#DejaVuSans-4c" transform="translate(0 0.015625)"/>
     <use xlink:href="#DejaVuSans-65" transform="translate(55.712891 0.015625)"/>
     <use xlink:href="#DejaVuSans-6e" transform="translate(117.236328 0.015625)"/>
     <use xlink:href="#DejaVuSans-67" transform="translate(180.615234 0.015625)"/>
     <use xlink:href="#DejaVuSans-74" transform="translate(244.091797 0.015625)"/>
     <use xlink:href="#DejaVuSans-68" transform="translate(283.300781 0.015625)"/>
     <use xlink:href="#DejaVuSans-73" transform="translate(346.679688 0.015625)"/>
     <use xlink:href="#DejaVuSans-63" transform="translate(398.779297 0.015625)"/>
     <use xlink:href="#DejaVuSans-61" transform="translate(453.759766 0.015625)"/>
     <use xlink:href="#DejaVuSans-6c" transform="translate(515.039062 0.015625)"/>
     <use xlink:href="#DejaVuSans-65" transform="translate(542.822266 0.015625)"/>
     <use xlink:href="#DejaVuSans-20" transform="translate(604.345703 0.015625)"/>
     <use xlink:href="#DejaVuSans-Oblique-2113" transform="translate(636.132812 0.015625)"/>
     <use xlink:href="#DejaVuSans-3d" transform="translate(677.441406 0.015625)"/>
     <use xlink:href="#DejaVuSans-30" transform="translate(761.230469 0.015625)"/>
     <use xlink:href="#DejaVuSans-2e" transform="translate(824.853516 0.015625)"/>
     <use xlink:href="#DejaVuSans-35" transform="translate(856.640625 0.015625)"/>
     <use xlink:href="#DejaVuSans-30" transform="translate(920.263672 0.015625)"/>
     <use xlink:href="#DejaVuSans-30" transform="translate(983.886719 0.015625)"/>
     <use xlink:href="#DejaVuSans-2c" transform="translate(1047.509766 0.015625)"/>
     <use xlink:href="#DejaVuSans-20" transform="translate(1079.296875 0.015625)"/>
     <use xlink:href="#DejaVuSans-41" transform="translate(1111.083984 0.015625)"/>
     <use xlink:href="#DejaVuSans-6d" transform="translate(1179.492188 0.015625)"/>
     <use xlink:href="#DejaVuSans-70" transform="translate(1276.904297 0.015625)"/>
     <use xlink:href="#DejaVuSans-6c" transform="translate(1340.380859 0.015625)"/>
     <use xlink:href="#DejaVuSans-69" transform="translate(1368.164062 0.015625)"/>
     <use xlink:href="#DejaVuSans-74" transform="translate(1395.947266 0.015625)"/>
     <use xlink:href="#DejaVuSans-75" transform="translate(1435.15625 0.015625)"/>
     <use xlink:href="#DejaVuSans-64" transform="translate(1498.535156 0.015625)"/>
     <use xlink:href="#DejaVuSans-65" transform="translate(1562.011719 0.015625)"/>
     <use xlink:href="#DejaVuSans-20" transform="translate(1623.535156 0.015625)"/>
     <use xlink:href="#DejaVuSans-Oblique-61" transform="translate(1655.322266 0.015625)"/>
     <use xlink:href="#DejaVuSans-3d" transform="translate(1716.601562 0.015625)"/>
     <use xlink:href="#DejaVuSans-31" transform="translate(1800.390625 0.015625)"/>
    </g>
   </g>
  </g>
 </g>
 <defs>
  <clipPath id="p10a094c48b">
   <rect x="28.942188" y="22.32" width="195.3" height="138.6"/>
  </clipPath>
 </defs>
</svg>
