<?xml version="1.0" encoding="utf-8" standalone="no"?>
<!DOCTYPE svg PUBLIC "-//W3C//DTD SVG 1.1//EN"
  "http://www.w3.org/Graphics/SVG/1.1/DTD/svg11.dtd">
<svg xmlns:xlink="http://www.w3.org/1999/xlink" width="231.442187pt" height="169.678125pt" viewBox="0 0 231.442187 169.678125" xmlns="http://www.w3.org/2000/svg" version="1.1">
 <metadata>
  <rdf:RDF xmlns:dc="http://purl.org/dc/elements/1.1/" xmlns:cc="http://creativecommons.org/ns#" xmlns:rdf="http://www.w3.org/1999/02/22-rdf-syntax-ns#">
   <cc:Work>
    <dc:type rdf:resource="http://purl.org/dc/dcmitype/StillImage"/>
    <dc:date>2022-12-10T17:08:32.150381</dc:date>
    <dc:format>image/svg+xml</dc:format>
    <dc:creator>
     <cc:Agent>
      <dc:title>Matplotlib v3.5.1, https://matplotlib.org/</dc:title>
     </cc:Agent>
    </dc:creator>
   </cc:Work>
  </rdf:RDF>
 </metadata>
 <defs>
  <style type="text/css">*{stroke-linejoin: round; stroke-linecap: butt}</style>
 </defs>
 <g id="figure_1">
  <g id="patch_1">
   <path d="M 0 169.678125 
L 231.442187 169.678125 
L 231.442187 0 
L 0 0 
z
" style="fill: #ffffff"/>
  </g>
  <g id="axes_1">
   <g id="patch_2">
    <path d="M 28.942188 145.8 
L 224.242188 145.8 
L 224.242188 7.2 
L 28.942188 7.2 
z
" style="fill: #ffffff"/>
   </g>
   <g id="PathCollection_1">
    <defs>
     <path id="mb233eedfe1" d="M 0 3 
C 0.795609 3 1.55874 2.683901 2.12132 2.12132 
C 2.683901 1.55874 3 0.795609 3 0 
C 3 -0.795609 2.683901 -1.55874 2.12132 -2.12132 
C 1.55874 -2.683901 0.795609 -3 0 -3 
C -0.795609 -3 -1.55874 -2.683901 -2.12132 -2.12132 
C -2.683901 -1.55874 -3 -0.795609 -3 0 
C -3 0.795609 -2.683901 1.55874 -2.12132 2.12132 
C -1.55874 2.683901 -0.795609 3 0 3 
z
" style="stroke: #1f77b4"/>
    </defs>
    <g clip-path="url(#p29fc17d64a)">
     <use xlink:href="#mb233eedfe1" x="37.81946" y="63.952881" style="fill: #1f77b4; stroke: #1f77b4"/>
     <use xlink:href="#mb233eedfe1" x="44.921278" y="19.652164" style="fill: #1f77b4; stroke: #1f77b4"/>
     <use xlink:href="#mb233eedfe1" x="52.023097" y="46.08038" style="fill: #1f77b4; stroke: #1f77b4"/>
     <use xlink:href="#mb233eedfe1" x="59.124915" y="74.74948" style="fill: #1f77b4; stroke: #1f77b4"/>
     <use xlink:href="#mb233eedfe1" x="80.430369" y="77.82622" style="fill: #1f77b4; stroke: #1f77b4"/>
     <use xlink:href="#mb233eedfe1" x="87.532187" y="71.984637" style="fill: #1f77b4; stroke: #1f77b4"/>
     <use xlink:href="#mb233eedfe1" x="94.634006" y="42.61638" style="fill: #1f77b4; stroke: #1f77b4"/>
     <use xlink:href="#mb233eedfe1" x="101.735824" y="30.694296" style="fill: #1f77b4; stroke: #1f77b4"/>
     <use xlink:href="#mb233eedfe1" x="108.837642" y="54.243023" style="fill: #1f77b4; stroke: #1f77b4"/>
     <use xlink:href="#mb233eedfe1" x="151.448551" y="45.753816" style="fill: #1f77b4; stroke: #1f77b4"/>
     <use xlink:href="#mb233eedfe1" x="158.550369" y="28.695816" style="fill: #1f77b4; stroke: #1f77b4"/>
     <use xlink:href="#mb233eedfe1" x="172.754006" y="99.9119" style="fill: #1f77b4; stroke: #1f77b4"/>
    </g>
   </g>
   <g id="matplotlib.axis_1">
    <g id="xtick_1">
     <g id="line2d_1">
      <defs>
       <path id="mce2fd0c159" d="M 0 0 
L 0 3.5 
" style="stroke: #000000; stroke-width: 0.8"/>
      </defs>
      <g>
       <use xlink:href="#mce2fd0c159" x="37.81946" y="145.8" style="stroke: #000000; stroke-width: 0.8"/>
      </g>
     </g>
     <g id="text_1">
      <!-- 0 -->
      <g transform="translate(34.63821 160.398438)scale(0.1 -0.1)">
       <defs>
        <path id="DejaVuSans-30" d="M 2034 4250 
Q 1547 4250 1301 3770 
Q 1056 3291 1056 2328 
Q 1056 1369 1301 889 
Q 1547 409 2034 409 
Q 2525 409 2770 889 
Q 3016 1369 3016 2328 
Q 3016 3291 2770 3770 
Q 2525 4250 2034 4250 
z
M 2034 4750 
Q 2819 4750 3233 4129 
Q 3647 3509 3647 2328 
Q 3647 1150 3233 529 
Q 2819 -91 2034 -91 
Q 1250 -91 836 529 
Q 422 1150 422 2328 
Q 422 3509 836 4129 
Q 1250 4750 2034 4750 
z
" transform="scale(0.015625)"/>
       </defs>
       <use xlink:href="#DejaVuSans-30"/>
      </g>
     </g>
    </g>
    <g id="xtick_2">
     <g id="line2d_2">
      <g>
       <use xlink:href="#mce2fd0c159" x="73.328551" y="145.8" style="stroke: #000000; stroke-width: 0.8"/>
      </g>
     </g>
     <g id="text_2">
      <!-- 5 -->
      <g transform="translate(70.147301 160.398438)scale(0.1 -0.1)">
       <defs>
        <path id="DejaVuSans-35" d="M 691 4666 
L 3169 4666 
L 3169 4134 
L 1269 4134 
L 1269 2991 
Q 1406 3038 1543 3061 
Q 1681 3084 1819 3084 
Q 2600 3084 3056 2656 
Q 3513 2228 3513 1497 
Q 3513 744 3044 326 
Q 2575 -91 1722 -91 
Q 1428 -91 1123 -41 
Q 819 9 494 109 
L 494 744 
Q 775 591 1075 516 
Q 1375 441 1709 441 
Q 2250 441 2565 725 
Q 2881 1009 2881 1497 
Q 2881 1984 2565 2268 
Q 2250 2553 1709 2553 
Q 1456 2553 1204 2497 
Q 953 2441 691 2322 
L 691 4666 
z
" transform="scale(0.015625)"/>
       </defs>
       <use xlink:href="#DejaVuSans-35"/>
      </g>
     </g>
    </g>
    <g id="xtick_3">
     <g id="line2d_3">
      <g>
       <use xlink:href="#mce2fd0c159" x="108.837642" y="145.8" style="stroke: #000000; stroke-width: 0.8"/>
      </g>
     </g>
     <g id="text_3">
      <!-- 10 -->
      <g transform="translate(102.475142 160.398438)scale(0.1 -0.1)">
       <defs>
        <path id="DejaVuSans-31" d="M 794 531 
L 1825 531 
L 1825 4091 
L 703 3866 
L 703 4441 
L 1819 4666 
L 2450 4666 
L 2450 531 
L 3481 531 
L 3481 0 
L 794 0 
L 794 531 
z
" transform="scale(0.015625)"/>
       </defs>
       <use xlink:href="#DejaVuSans-31"/>
       <use xlink:href="#DejaVuSans-30" x="63.623047"/>
      </g>
     </g>
    </g>
    <g id="xtick_4">
     <g id="line2d_4">
      <g>
       <use xlink:href="#mce2fd0c159" x="144.346733" y="145.8" style="stroke: #000000; stroke-width: 0.8"/>
      </g>
     </g>
     <g id="text_4">
      <!-- 15 -->
      <g transform="translate(137.984233 160.398438)scale(0.1 -0.1)">
       <use xlink:href="#DejaVuSans-31"/>
       <use xlink:href="#DejaVuSans-35" x="63.623047"/>
      </g>
     </g>
    </g>
    <g id="xtick_5">
     <g id="line2d_5">
      <g>
       <use xlink:href="#mce2fd0c159" x="179.855824" y="145.8" style="stroke: #000000; stroke-width: 0.8"/>
      </g>
     </g>
     <g id="text_5">
      <!-- 20 -->
      <g transform="translate(173.493324 160.398438)scale(0.1 -0.1)">
       <defs>
        <path id="DejaVuSans-32" d="M 1228 531 
L 3431 531 
L 3431 0 
L 469 0 
L 469 531 
Q 828 903 1448 1529 
Q 2069 2156 2228 2338 
Q 2531 2678 2651 2914 
Q 2772 3150 2772 3378 
Q 2772 3750 2511 3984 
Q 2250 4219 1831 4219 
Q 1534 4219 1204 4116 
Q 875 4013 500 3803 
L 500 4441 
Q 881 4594 1212 4672 
Q 1544 4750 1819 4750 
Q 2544 4750 2975 4387 
Q 3406 4025 3406 3419 
Q 3406 3131 3298 2873 
Q 3191 2616 2906 2266 
Q 2828 2175 2409 1742 
Q 1991 1309 1228 531 
z
" transform="scale(0.015625)"/>
       </defs>
       <use xlink:href="#DejaVuSans-32"/>
       <use xlink:href="#DejaVuSans-30" x="63.623047"/>
      </g>
     </g>
    </g>
    <g id="xtick_6">
     <g id="line2d_6">
      <g>
       <use xlink:href="#mce2fd0c159" x="215.364915" y="145.8" style="stroke: #000000; stroke-width: 0.8"/>
      </g>
     </g>
     <g id="text_6">
      <!-- 25 -->
      <g transform="translate(209.002415 160.398438)scale(0.1 -0.1)">
       <use xlink:href="#DejaVuSans-32"/>
       <use xlink:href="#DejaVuSans-35" x="63.623047"/>
      </g>
     </g>
    </g>
   </g>
   <g id="matplotlib.axis_2">
    <g id="ytick_1">
     <g id="line2d_7">
      <defs>
       <path id="m8e6c2d1e42" d="M 0 0 
L -3.5 0 
" style="stroke: #000000; stroke-width: 0.8"/>
      </defs>
      <g>
       <use xlink:href="#m8e6c2d1e42" x="28.942188" y="142.041615" style="stroke: #000000; stroke-width: 0.8"/>
      </g>
     </g>
     <g id="text_7">
      <!-- −4 -->
      <g transform="translate(7.2 145.840834)scale(0.1 -0.1)">
       <defs>
        <path id="DejaVuSans-2212" d="M 678 2272 
L 4684 2272 
L 4684 1741 
L 678 1741 
L 678 2272 
z
" transform="scale(0.015625)"/>
        <path id="DejaVuSans-34" d="M 2419 4116 
L 825 1625 
L 2419 1625 
L 2419 4116 
z
M 2253 4666 
L 3047 4666 
L 3047 1625 
L 3713 1625 
L 3713 1100 
L 3047 1100 
L 3047 0 
L 2419 0 
L 2419 1100 
L 313 1100 
L 313 1709 
L 2253 4666 
z
" transform="scale(0.015625)"/>
       </defs>
       <use xlink:href="#DejaVuSans-2212"/>
       <use xlink:href="#DejaVuSans-34" x="83.789062"/>
      </g>
     </g>
    </g>
    <g id="ytick_2">
     <g id="line2d_8">
      <g>
       <use xlink:href="#m8e6c2d1e42" x="28.942188" y="101.737323" style="stroke: #000000; stroke-width: 0.8"/>
      </g>
     </g>
     <g id="text_8">
      <!-- −2 -->
      <g transform="translate(7.2 105.536542)scale(0.1 -0.1)">
       <use xlink:href="#DejaVuSans-2212"/>
       <use xlink:href="#DejaVuSans-32" x="83.789062"/>
      </g>
     </g>
    </g>
    <g id="ytick_3">
     <g id="line2d_9">
      <g>
       <use xlink:href="#m8e6c2d1e42" x="28.942188" y="61.433031" style="stroke: #000000; stroke-width: 0.8"/>
      </g>
     </g>
     <g id="text_9">
      <!-- 0 -->
      <g transform="translate(15.579688 65.23225)scale(0.1 -0.1)">
       <use xlink:href="#DejaVuSans-30"/>
      </g>
     </g>
    </g>
    <g id="ytick_4">
     <g id="line2d_10">
      <g>
       <use xlink:href="#m8e6c2d1e42" x="28.942188" y="21.128739" style="stroke: #000000; stroke-width: 0.8"/>
      </g>
     </g>
     <g id="text_10">
      <!-- 2 -->
      <g transform="translate(15.579688 24.927958)scale(0.1 -0.1)">
       <use xlink:href="#DejaVuSans-32"/>
      </g>
     </g>
    </g>
   </g>
   <g id="line2d_11">
    <path d="M 37.81946 63.952879 
L 39.954275 44.827619 
L 41.377485 34.008477 
L 42.444893 27.564317 
L 43.156498 24.229009 
L 43.868103 21.733643 
L 44.579708 20.114041 
L 44.935511 19.637365 
L 45.291313 19.382276 
L 45.647116 19.346532 
L 46.002918 19.526424 
L 46.358721 19.916811 
L 47.070326 21.30169 
L 47.781931 23.43372 
L 48.493536 26.227075 
L 49.560943 31.432802 
L 50.984153 39.659457 
L 54.186376 58.842082 
L 55.609586 65.740952 
L 56.676993 69.755384 
L 57.388599 71.81583 
L 58.100204 73.372274 
L 58.811809 74.43365 
L 59.523414 75.023854 
L 60.235019 75.179824 
L 60.946624 74.949305 
L 61.658229 74.388423 
L 62.369834 73.559167 
L 63.437241 71.955365 
L 67.351069 65.59589 
L 68.418476 64.492699 
L 69.130081 64.021791 
L 69.841686 63.780982 
L 70.553292 63.776877 
L 71.264897 64.008324 
L 71.976502 64.466956 
L 72.688107 65.137844 
L 73.755514 66.495275 
L 75.178724 68.813488 
L 79.804157 77.032343 
L 80.871564 78.292702 
L 81.583169 78.860889 
L 82.294774 79.175306 
L 83.00638 79.209573 
L 83.717985 78.942145 
L 84.42959 78.356954 
L 85.141195 77.443993 
L 85.8528 76.199811 
L 86.920207 73.722126 
L 87.987615 70.551117 
L 89.410825 65.386644 
L 91.189837 57.843245 
L 95.103665 40.754495 
L 96.526875 35.800204 
L 97.594283 32.936719 
L 98.305888 31.50747 
L 99.017493 30.495661 
L 99.729098 29.92028 
L 100.440703 29.790983 
L 101.152308 30.107856 
L 101.863913 30.861459 
L 102.575518 32.033127 
L 103.287123 33.595552 
L 104.35453 36.593098 
L 105.77774 41.575824 
L 107.556753 48.802892 
L 110.758976 62.028873 
L 112.182186 67.060517 
L 113.249593 70.248206 
L 114.317001 72.860485 
L 115.384408 74.86891 
L 116.451816 76.277418 
L 117.163421 76.898162 
L 117.875026 77.281906 
L 118.586631 77.448209 
L 119.298236 77.419721 
L 120.009841 77.221378 
L 121.077249 76.663445 
L 122.500459 75.576233 
L 127.125891 71.610507 
L 128.549101 70.821266 
L 129.616509 70.461754 
L 130.683916 70.313867 
L 131.751324 70.373171 
L 132.818731 70.620989 
L 134.241942 71.186359 
L 138.867374 73.302885 
L 139.934782 73.399296 
L 140.646387 73.286524 
L 141.357992 73.00317 
L 142.069597 72.526399 
L 142.781202 71.836003 
L 143.492807 70.915214 
L 144.560214 69.076022 
L 145.627622 66.671157 
L 146.69503 63.710802 
L 148.11824 58.981696 
L 149.897252 52.123085 
L 153.455277 37.931865 
L 154.878487 33.353286 
L 155.945895 30.778481 
L 156.6575 29.57155 
L 157.369105 28.825036 
L 157.724907 28.636108 
L 158.08071 28.57517 
L 158.436513 28.645286 
L 158.792315 28.848881 
L 159.50392 29.662843 
L 160.215525 31.022783 
L 160.92713 32.923098 
L 161.638735 35.346786 
L 162.706143 39.899145 
L 163.77355 45.424523 
L 165.19676 53.980148 
L 167.687378 70.672717 
L 170.177995 86.814797 
L 171.601206 94.660056 
L 172.668613 99.560757 
L 173.736021 103.486634 
L 174.803428 106.370374 
L 175.515033 107.702241 
L 176.226638 108.566543 
L 176.938243 108.976808 
L 177.649848 108.953937 
L 178.361453 108.525258 
L 179.073058 107.72346 
L 179.784663 106.585493 
L 180.852071 104.336445 
L 181.919478 101.564141 
L 183.698491 96.171603 
L 188.679726 80.382143 
L 190.458739 75.694523 
L 191.881949 72.518115 
L 193.305159 69.86579 
L 194.728369 67.713208 
L 196.151579 66.012747 
L 197.574789 64.703766 
L 198.997999 63.72102 
L 200.421209 63.000917 
L 202.200222 62.382802 
L 204.335037 61.932033 
L 206.825654 61.65531 
L 210.739482 61.488061 
L 215.364915 61.441713 
L 215.364915 61.441713 
" clip-path="url(#p29fc17d64a)" style="fill: none; stroke: #1f77b4; stroke-width: 2; stroke-linecap: square"/>
   </g>
   <g id="line2d_12">
    <path d="M 37.81946 63.950168 
L 39.954275 44.353943 
L 41.377485 33.441326 
L 42.444893 27.063776 
L 43.156498 23.832343 
L 43.868103 21.47906 
L 44.579708 20.028144 
L 45.291313 19.286924 
L 45.647116 19.160675 
L 46.002918 19.252817 
L 46.358721 19.560213 
L 46.714523 20.078301 
L 47.426128 21.721344 
L 48.137733 24.118192 
L 49.205141 28.938821 
L 50.272548 34.909593 
L 53.830573 56.210442 
L 55.253783 63.086971 
L 56.321191 67.362856 
L 57.388599 70.818436 
L 58.456006 73.469024 
L 59.167611 74.750823 
L 59.523414 74.665937 
L 59.879216 74.434459 
L 60.590821 73.561092 
L 61.302426 72.199678 
L 62.369834 69.427344 
L 63.793044 64.878932 
L 65.927859 57.905699 
L 66.995266 55.054564 
L 67.706871 53.569827 
L 68.418476 52.484102 
L 69.130081 51.835887 
L 69.841686 51.646524 
L 70.197489 51.72582 
L 70.909094 52.226837 
L 71.620699 53.165194 
L 72.332304 54.504721 
L 73.399712 57.155084 
L 74.822922 61.547965 
L 78.380947 73.177749 
L 79.448354 75.902024 
L 80.159959 77.358252 
L 80.515762 77.880068 
L 81.583169 78.451935 
L 82.294774 78.660706 
L 83.00638 78.676093 
L 83.717985 78.453673 
L 84.42959 77.954506 
L 85.141195 77.147375 
L 85.8528 76.010735 
L 86.564405 74.534095 
L 87.631812 71.674022 
L 89.055022 66.715448 
L 90.834035 59.414787 
L 95.459468 39.460564 
L 96.526875 35.927779 
L 97.594283 33.13303 
L 98.305888 31.731462 
L 99.017493 30.725169 
L 99.729098 30.128617 
L 100.440703 29.949499 
L 101.152308 30.18887 
L 101.50811 30.464056 
L 101.863913 30.881554 
L 102.575518 32.170816 
L 103.287123 33.857504 
L 104.35453 37.027227 
L 105.77774 42.140291 
L 108.979963 54.906253 
L 112.182186 69.525513 
L 113.961198 76.563088 
L 115.384408 81.270024 
L 116.451816 84.204373 
L 117.519223 86.628979 
L 118.586631 88.570572 
L 119.654038 90.071267 
L 120.721446 91.179678 
L 121.788854 91.9428 
L 122.856261 92.399813 
L 123.923669 92.578956 
L 124.991076 92.49772 
L 126.058484 92.166107 
L 127.125891 91.591979 
L 128.193299 90.787169 
L 129.616509 89.393472 
L 131.395521 87.261669 
L 136.376757 80.954954 
L 138.867374 78.341178 
L 141.002189 76.013141 
L 142.425399 74.058262 
L 143.492807 72.221163 
L 144.560214 69.978128 
L 145.627622 67.27742 
L 147.050832 62.940776 
L 148.474042 57.837438 
L 150.608857 49.232457 
L 153.099475 39.221159 
L 154.522685 34.334792 
L 155.590092 31.45141 
L 156.301697 30.017059 
L 157.013302 29.038073 
L 157.724907 28.562568 
L 158.08071 28.526305 
L 158.792315 28.821212 
L 159.50392 29.517285 
L 160.215525 30.713482 
L 160.92713 32.40219 
L 161.638735 34.56753 
L 162.706143 38.656134 
L 163.77355 43.656542 
L 165.19676 51.50826 
L 166.975773 62.695592 
L 172.312811 97.433941 
L 172.668613 99.441175 
L 173.024416 100.587915 
L 173.736021 101.96305 
L 174.447626 102.751808 
L 174.803428 102.929254 
L 175.159231 102.965045 
L 175.515033 102.862191 
L 176.226638 102.255407 
L 176.938243 101.143417 
L 177.649848 99.567232 
L 178.717256 96.433832 
L 179.784663 92.527266 
L 181.207873 86.418155 
L 183.698491 74.408636 
L 186.189109 62.528052 
L 187.612319 56.553532 
L 189.035529 51.579757 
L 190.102936 48.668449 
L 190.814541 47.16617 
L 191.526146 46.035086 
L 192.237751 45.284443 
L 192.949356 44.915506 
L 193.660961 44.921117 
L 194.372566 45.285508 
L 195.084171 45.984446 
L 195.795776 46.985609 
L 196.863184 48.965387 
L 198.286394 52.241717 
L 201.844419 60.838664 
L 202.911827 62.767381 
L 203.623432 63.740566 
L 204.335037 64.425155 
L 205.046642 64.797683 
L 205.758247 64.843966 
L 206.469852 64.559631 
L 207.181457 63.950352 
L 207.893062 63.031909 
L 208.96047 61.133126 
L 210.027877 58.723285 
L 211.80689 54.032717 
L 213.941705 48.456016 
L 215.009112 46.184594 
L 215.364915 45.552739 
L 215.364915 45.552739 
" clip-path="url(#p29fc17d64a)" style="fill: none; stroke: #808080; stroke-opacity: 0.25; stroke-width: 1.5; stroke-linecap: square"/>
   </g>
   <g id="line2d_13">
    <path d="M 37.81946 63.952304 
L 39.954275 44.618124 
L 41.377485 33.791457 
L 42.444893 27.392472 
L 43.156498 24.102651 
L 43.868103 21.658889 
L 44.579708 20.091715 
L 45.291313 19.356246 
L 45.647116 19.299183 
L 46.002918 19.460237 
L 46.358721 19.834618 
L 47.070326 21.196897 
L 47.781931 23.31954 
L 48.493536 26.116222 
L 49.560943 31.346324 
L 50.984153 39.623902 
L 54.186376 58.825201 
L 55.609586 65.751956 
L 56.676993 69.791045 
L 57.388599 71.859864 
L 58.100204 73.411507 
L 58.811809 74.449669 
L 59.523414 75.053519 
L 60.235019 75.279957 
L 60.946624 75.144854 
L 61.658229 74.702146 
L 62.369834 74.0093 
L 63.437241 72.629438 
L 67.706871 66.434787 
L 68.774279 65.442642 
L 69.485884 65.010866 
L 70.197489 64.781967 
L 70.909094 64.765659 
L 71.620699 64.965524 
L 72.332304 65.378909 
L 73.043909 65.996861 
L 74.111317 67.272385 
L 75.178724 68.895771 
L 76.957737 72.079933 
L 79.092552 75.91444 
L 80.159959 77.489957 
L 80.871564 78.270551 
L 81.583169 78.807756 
L 82.294774 79.097259 
L 83.00638 79.115157 
L 83.717985 78.841197 
L 84.42959 78.259485 
L 85.141195 77.359161 
L 85.8528 76.13511 
L 86.920207 73.696678 
L 87.987615 70.534231 
L 89.410825 65.323056 
L 91.189837 57.757201 
L 94.747862 42.155481 
L 96.171073 36.874434 
L 97.23848 33.716624 
L 97.950085 32.078184 
L 98.66169 30.853362 
L 99.373295 30.066347 
L 100.0849 29.731341 
L 100.440703 29.734929 
L 101.152308 30.081708 
L 101.863913 30.852652 
L 102.575518 31.987537 
L 103.287123 33.515048 
L 104.35453 36.472059 
L 105.421938 40.105718 
L 106.845148 45.716021 
L 111.114778 63.280198 
L 112.537988 68.207443 
L 113.961198 72.398217 
L 115.384408 75.800024 
L 116.451816 77.838507 
L 117.519223 79.459182 
L 118.586631 80.691007 
L 119.654038 81.568252 
L 120.721446 82.129082 
L 121.788854 82.415472 
L 122.856261 82.473889 
L 124.279471 82.287149 
L 126.770089 81.620433 
L 128.549101 81.227752 
L 129.972311 81.130315 
L 131.395521 81.275913 
L 133.174534 81.744069 
L 135.665152 82.485353 
L 136.732559 82.611778 
L 137.799967 82.495902 
L 138.511572 82.243544 
L 139.223177 81.826448 
L 139.934782 81.227144 
L 141.002189 79.957381 
L 142.069597 78.216862 
L 143.137004 75.993601 
L 144.204412 73.292711 
L 145.627622 68.986364 
L 147.050832 63.959485 
L 148.829845 56.883911 
L 153.099475 39.352122 
L 154.522685 34.551189 
L 155.590092 31.707698 
L 156.301697 30.275435 
L 157.013302 29.267004 
L 157.724907 28.719016 
L 158.08071 28.626789 
L 158.436513 28.659477 
L 158.792315 28.878586 
L 159.50392 29.800558 
L 160.215525 31.295669 
L 160.92713 33.35663 
L 161.994538 37.4592 
L 163.061945 42.656838 
L 164.485155 50.957158 
L 166.61997 65.137031 
L 169.46639 83.835611 
L 170.889601 91.779754 
L 171.957008 96.780711 
L 174.091823 105.172045 
L 174.803428 107.24728 
L 175.515033 108.793474 
L 176.226638 109.804499 
L 176.938243 110.286609 
L 177.294046 110.334638 
L 177.649848 110.258308 
L 178.361453 109.749791 
L 179.073058 108.801909 
L 179.784663 107.464767 
L 180.852071 104.856545 
L 182.275281 100.591342 
L 186.544911 87.060459 
L 187.968121 83.475428 
L 189.391331 80.576541 
L 190.814541 78.291592 
L 192.237751 76.469231 
L 194.016764 74.584315 
L 196.507382 72.28086 
L 198.642197 70.589319 
L 200.065407 69.763811 
L 201.132814 69.396188 
L 202.200222 69.29912 
L 203.267629 69.505185 
L 204.335037 70.024746 
L 205.402444 70.843422 
L 206.469852 71.92309 
L 207.893062 73.667425 
L 213.2301 80.630485 
L 214.65331 82.032477 
L 215.364915 82.625138 
L 215.364915 82.625138 
" clip-path="url(#p29fc17d64a)" style="fill: none; stroke: #808080; stroke-opacity: 0.25; stroke-width: 1.5; stroke-linecap: square"/>
   </g>
   <g id="line2d_14">
    <path d="M 37.81946 63.952558 
L 39.954275 44.987887 
L 41.377485 34.203388 
L 42.444893 27.733559 
L 43.156498 24.360393 
L 43.868103 21.815722 
L 44.579708 20.140895 
L 44.935511 19.63851 
L 45.291313 19.410713 
L 45.647116 19.400873 
L 46.002918 19.604647 
L 46.358721 20.016338 
L 47.070326 21.434225 
L 47.781931 23.584348 
L 48.493536 26.379804 
L 49.560943 31.560532 
L 50.984153 39.716567 
L 54.542178 60.798994 
L 55.609586 65.816393 
L 56.676993 69.799492 
L 57.388599 71.835824 
L 58.100204 73.373783 
L 58.811809 74.430478 
L 59.523414 75.009476 
L 60.235019 75.117761 
L 60.946624 74.80285 
L 61.658229 74.116372 
L 62.369834 73.118539 
L 63.437241 71.185243 
L 67.351069 63.285009 
L 68.418476 61.873417 
L 69.130081 61.269658 
L 69.841686 60.964776 
L 70.553292 60.970037 
L 71.264897 61.284493 
L 71.976502 61.895438 
L 72.688107 62.779306 
L 73.755514 64.542214 
L 75.178724 67.478377 
L 78.736749 75.227674 
L 79.804157 77.002509 
L 80.871564 78.289453 
L 81.583169 78.874376 
L 82.294774 79.2234 
L 83.00638 79.298346 
L 83.717985 79.066778 
L 84.42959 78.503681 
L 85.141195 77.592888 
L 85.8528 76.328101 
L 86.920207 73.779059 
L 88.343417 69.439254 
L 89.766627 64.181562 
L 91.54564 56.536919 
L 95.103665 40.827783 
L 96.526875 36.072101 
L 97.594283 33.30377 
L 98.305888 31.89698 
L 99.017493 30.869593 
L 99.729098 30.239952 
L 100.440703 30.020718 
L 101.152308 30.218503 
L 101.50811 30.474083 
L 101.863913 30.889474 
L 102.575518 32.207429 
L 103.642925 34.891184 
L 104.710333 38.26931 
L 106.489345 44.908232 
L 109.335766 56.510359 
L 111.470581 65.675526 
L 112.893791 70.71766 
L 113.961198 73.652424 
L 114.672803 75.135925 
L 115.384408 76.211802 
L 116.096013 76.866145 
L 116.807618 77.09558 
L 117.519223 76.907605 
L 118.230828 76.320713 
L 118.942433 75.3642 
L 119.654038 74.077708 
L 120.721446 71.639253 
L 122.144656 67.758874 
L 124.635274 60.815573 
L 125.702681 58.400706 
L 126.770089 56.619638 
L 127.481694 55.857375 
L 128.193299 55.468256 
L 128.904904 55.465123 
L 129.616509 55.846549 
L 130.328114 56.597003 
L 131.039719 57.687718 
L 132.107126 59.870061 
L 133.530337 63.513661 
L 137.088362 73.107881 
L 138.155769 75.267987 
L 138.867374 76.367912 
L 139.578979 77.155674 
L 140.290584 77.606068 
L 141.002189 77.701874 
L 141.713794 77.433535 
L 142.425399 76.798764 
L 143.137004 75.802058 
L 143.848609 74.454275 
L 144.916017 71.812597 
L 145.983425 68.499957 
L 147.406635 63.225341 
L 149.54145 54.135228 
L 152.032067 43.458322 
L 153.81108 36.779961 
L 154.878487 33.361052 
L 155.945895 30.69541 
L 156.6575 29.453168 
L 157.369105 28.709055 
L 157.724907 28.539325 
L 158.08071 28.511192 
L 158.792315 28.803183 
L 159.50392 29.446262 
L 160.215525 30.575532 
L 160.92713 32.191816 
L 161.638735 34.289234 
L 162.706143 38.307073 
L 163.77355 43.300727 
L 165.19676 51.270744 
L 166.975773 62.779337 
L 171.245403 91.487024 
L 172.668613 99.478629 
L 173.380218 101.647595 
L 174.091823 103.13805 
L 174.803428 104.103084 
L 175.515033 104.537984 
L 175.870836 104.556887 
L 176.226638 104.444344 
L 176.938243 103.829977 
L 177.649848 102.709 
L 178.361453 101.101914 
L 179.073058 99.035703 
L 180.140466 95.150511 
L 181.207873 90.448592 
L 182.631083 83.203626 
L 185.477504 67.144114 
L 187.612319 55.666658 
L 189.035529 49.114481 
L 190.102936 45.019764 
L 191.170344 41.741043 
L 191.881949 40.043327 
L 192.593554 38.751541 
L 193.305159 37.87238 
L 194.016764 37.406932 
L 194.728369 37.350815 
L 195.439974 37.694208 
L 196.151579 38.421801 
L 196.863184 39.512616 
L 197.930592 41.769593 
L 198.997999 44.666028 
L 200.421209 49.264281 
L 204.690839 63.718869 
L 205.758247 66.367488 
L 206.469852 67.720756 
L 207.181457 68.700268 
L 207.893062 69.282136 
L 208.604667 69.456171 
L 209.316272 69.226762 
L 210.027877 68.613066 
L 210.739482 67.648498 
L 211.80689 65.648617 
L 213.2301 62.274871 
L 215.364915 56.867161 
L 215.364915 56.867161 
" clip-path="url(#p29fc17d64a)" style="fill: none; stroke: #808080; stroke-opacity: 0.25; stroke-width: 1.5; stroke-linecap: square"/>
   </g>
   <g id="line2d_15">
    <path d="M 37.81946 63.950753 
L 40.310078 42.518534 
L 41.733288 32.284811 
L 42.800695 26.264073 
L 43.5123 23.204177 
L 44.223905 20.980977 
L 44.935511 19.641853 
L 45.291313 19.472024 
L 45.647116 19.518521 
L 46.002918 19.775933 
L 46.358721 20.237503 
L 47.070326 21.739986 
L 47.781931 23.948644 
L 48.849338 28.379785 
L 50.272548 35.808209 
L 52.407363 48.562249 
L 54.186376 59.406294 
L 55.253783 64.91241 
L 56.321191 69.320296 
L 57.032796 71.560712 
L 57.744401 73.211996 
L 58.456006 74.271994 
L 60.590821 76.038742 
L 61.302426 76.176406 
L 62.014031 76.049279 
L 62.725636 75.699371 
L 63.793044 74.849764 
L 65.216254 73.328121 
L 68.418476 69.731479 
L 69.485884 68.859286 
L 70.553292 68.29229 
L 71.264897 68.114047 
L 71.976502 68.110478 
L 72.688107 68.288574 
L 73.399712 68.649497 
L 74.467119 69.520325 
L 75.534527 70.742356 
L 76.957737 72.771908 
L 79.804157 77.06364 
L 80.871564 78.301679 
L 81.583169 78.867444 
L 82.294774 79.167371 
L 83.00638 79.183279 
L 83.717985 78.899931 
L 84.42959 78.305435 
L 85.141195 77.391851 
L 85.8528 76.155863 
L 86.920207 73.703654 
L 87.987615 70.5363 
L 89.410825 65.332692 
L 91.189837 57.772757 
L 95.103665 40.743007 
L 96.526875 35.757104 
L 97.594283 32.880656 
L 98.305888 31.449062 
L 99.017493 30.440191 
L 99.729098 29.872977 
L 100.440703 29.756887 
L 101.152308 30.091694 
L 101.863913 30.855417 
L 102.575518 32.001298 
L 103.287123 33.535419 
L 104.35453 36.489544 
L 105.421938 40.103327 
L 106.845148 45.675863 
L 110.403173 60.284875 
L 111.826383 64.882327 
L 112.893791 67.556248 
L 113.605396 68.91542 
L 114.317001 69.916933 
L 115.028606 70.555737 
L 115.740211 70.836601 
L 116.451816 70.773758 
L 117.163421 70.390187 
L 117.875026 69.71665 
L 118.942433 68.245863 
L 120.009841 66.354568 
L 122.144656 61.961726 
L 123.923669 58.442874 
L 124.991076 56.686622 
L 126.058484 55.331415 
L 126.770089 54.691181 
L 127.481694 54.282003 
L 128.193299 54.115451 
L 128.904904 54.197892 
L 129.616509 54.53062 
L 130.328114 55.109952 
L 131.039719 55.927272 
L 132.107126 57.568496 
L 133.174534 59.64682 
L 134.597744 62.934746 
L 138.511572 72.530576 
L 139.578979 74.513794 
L 140.290584 75.512309 
L 141.002189 76.197194 
L 141.713794 76.527904 
L 142.425399 76.471445 
L 143.137004 76.003964 
L 143.848609 75.112058 
L 144.560214 73.79377 
L 145.271819 72.059157 
L 146.339227 68.728415 
L 147.406635 64.637412 
L 148.829845 58.310166 
L 152.032067 43.67551 
L 154.522685 35.169015 
L 155.590092 32.200421 
L 156.301697 30.633089 
L 157.013302 29.479495 
L 157.724907 28.804798 
L 158.08071 28.664801 
L 158.436513 28.664357 
L 158.792315 28.889358 
L 159.50392 29.780766 
L 160.215525 31.151585 
L 160.92713 32.988264 
L 161.994538 36.575268 
L 163.061945 41.087215 
L 164.485155 48.362386 
L 166.264168 59.0446 
L 169.46639 80.350622 
L 171.601206 93.728439 
L 172.668613 99.485095 
L 173.380218 101.756181 
L 174.091823 103.429155 
L 174.803428 104.682356 
L 175.515033 105.553715 
L 176.226638 106.089924 
L 176.938243 106.344133 
L 177.649848 106.373481 
L 178.717256 106.124327 
L 182.275281 104.912452 
L 183.342689 104.957029 
L 184.410096 105.322522 
L 185.477504 106.01992 
L 186.544911 107.026024 
L 187.968121 108.758509 
L 190.102936 111.844074 
L 192.593554 115.395571 
L 194.016764 117.029024 
L 195.084171 117.929891 
L 196.151579 118.476684 
L 196.863184 118.612906 
L 197.574789 118.545925 
L 198.286394 118.259629 
L 198.997999 117.739557 
L 199.709604 116.973259 
L 200.421209 115.950641 
L 201.488617 113.920947 
L 202.556024 111.287677 
L 203.623432 108.058257 
L 205.046642 102.877246 
L 206.469852 96.820439 
L 208.604667 86.56893 
L 212.518495 67.467954 
L 213.941705 61.690144 
L 215.009112 58.123879 
L 215.364915 57.103974 
L 215.364915 57.103974 
" clip-path="url(#p29fc17d64a)" style="fill: none; stroke: #808080; stroke-opacity: 0.25; stroke-width: 1.5; stroke-linecap: square"/>
   </g>
   <g id="line2d_16">
    <path d="M 37.81946 63.951657 
L 40.310078 42.137328 
L 41.733288 31.878294 
L 42.800695 25.94603 
L 43.5123 22.982224 
L 44.223905 20.871344 
L 44.935511 19.635635 
L 45.291313 19.410429 
L 45.647116 19.405134 
L 46.002918 19.615573 
L 46.358721 20.036064 
L 47.070326 21.477312 
L 47.781931 23.65583 
L 48.849338 28.100466 
L 49.916746 33.623365 
L 52.051561 46.264542 
L 54.186376 59.302489 
L 55.253783 64.832524 
L 56.321191 69.298993 
L 57.032796 71.581149 
L 57.744401 73.260323 
L 58.456006 74.318402 
L 59.523414 75.298007 
L 60.235019 76.055798 
L 60.946624 76.574225 
L 62.014031 77.00969 
L 63.081439 77.172393 
L 65.216254 77.17787 
L 67.351069 77.241185 
L 70.197489 77.597874 
L 73.043909 77.892603 
L 75.534527 77.906448 
L 80.159959 77.831096 
L 80.515762 78.020332 
L 81.227367 79.418505 
L 81.938972 80.381996 
L 82.650577 80.880089 
L 83.00638 80.94879 
L 83.362182 80.895931 
L 84.073787 80.426809 
L 84.785392 79.483824 
L 85.496997 78.091084 
L 86.564405 75.239726 
L 90.12243 63.664804 
L 91.54564 57.493531 
L 95.103665 41.016864 
L 96.526875 36.776986 
L 97.594283 34.245977 
L 98.66169 32.324367 
L 99.373295 31.406857 
L 100.0849 30.799773 
L 100.796505 30.521619 
L 101.50811 30.591951 
L 101.863913 30.958929 
L 102.575518 32.672503 
L 103.642925 35.941024 
L 105.066135 41.137943 
L 107.556753 50.397221 
L 108.979963 55.075773 
L 111.114778 68.391089 
L 113.605396 83.80717 
L 115.028606 91.306707 
L 116.096013 95.877134 
L 117.163421 99.358496 
L 117.875026 101.024913 
L 118.586631 102.154526 
L 119.298236 102.753054 
L 119.654038 102.859043 
L 120.009841 102.841119 
L 120.721446 102.453424 
L 121.433051 101.637503 
L 122.144656 100.451961 
L 123.212064 98.130284 
L 124.991076 93.446706 
L 126.770089 88.788673 
L 127.837496 86.447921 
L 128.904904 84.652182 
L 129.616509 83.806462 
L 130.328114 83.255391 
L 131.039719 82.994383 
L 131.751324 83.00499 
L 132.462929 83.256055 
L 133.530337 83.98849 
L 135.309349 85.698624 
L 136.732559 86.952612 
L 137.444164 87.374642 
L 138.155769 87.588733 
L 138.867374 87.550716 
L 139.578979 87.225572 
L 140.290584 86.588283 
L 141.002189 85.62417 
L 141.713794 84.328776 
L 142.781202 81.778316 
L 143.848609 78.549389 
L 145.271819 73.344621 
L 147.050832 65.783689 
L 152.38787 42.070323 
L 154.166882 35.548507 
L 155.23429 32.362054 
L 155.945895 30.697826 
L 156.6575 29.474392 
L 157.369105 28.740833 
L 157.724907 28.569469 
L 158.08071 28.532879 
L 158.792315 28.825602 
L 159.50392 29.559567 
L 160.215525 30.837061 
L 160.92713 32.665789 
L 161.638735 35.041867 
L 162.706143 39.591808 
L 163.77355 45.21763 
L 165.19676 54.064855 
L 168.04318 73.948079 
L 169.822193 85.690699 
L 171.245403 93.5855 
L 172.312811 98.29957 
L 173.024416 101.166841 
L 174.091823 105.58816 
L 175.159231 109.077155 
L 175.870836 110.834205 
L 176.582441 112.109164 
L 177.294046 112.887235 
L 178.005651 113.162095 
L 178.361453 113.111355 
L 179.073058 112.639932 
L 179.784663 111.690983 
L 180.496268 110.292037 
L 181.563676 107.433236 
L 182.631083 103.807862 
L 184.054294 98.123543 
L 188.323924 80.267735 
L 189.391331 76.723631 
L 190.458739 73.876384 
L 191.170344 72.417198 
L 191.881949 71.333943 
L 192.593554 70.638942 
L 193.305159 70.336771 
L 194.016764 70.424488 
L 194.728369 70.891896 
L 195.439974 71.721848 
L 196.151579 72.89054 
L 197.218987 75.211143 
L 198.286394 78.09826 
L 200.065407 83.742743 
L 202.911827 93.030652 
L 203.979234 95.954687 
L 205.046642 98.2877 
L 205.758247 99.43954 
L 206.469852 100.226769 
L 207.181457 100.623719 
L 207.893062 100.614983 
L 208.604667 100.196278 
L 209.316272 99.374991 
L 210.027877 98.170385 
L 211.095285 95.715546 
L 212.162692 92.620916 
L 213.941705 86.596357 
L 215.364915 81.642457 
L 215.364915 81.642457 
" clip-path="url(#p29fc17d64a)" style="fill: none; stroke: #808080; stroke-opacity: 0.25; stroke-width: 1.5; stroke-linecap: square"/>
   </g>
   <g id="line2d_17">
    <path d="M 37.81946 63.951426 
L 40.310078 42.932988 
L 41.733288 32.758797 
L 42.800695 26.658642 
L 43.5123 23.493001 
L 44.223905 21.133152 
L 44.935511 19.643673 
L 45.291313 19.55256 
L 45.647116 19.676267 
L 46.002918 20.007417 
L 46.714523 21.256431 
L 47.426128 23.217974 
L 48.137733 25.796823 
L 49.205141 30.59278 
L 50.628351 38.144326 
L 52.407363 48.650892 
L 54.186376 59.846542 
L 55.253783 65.452832 
L 56.321191 69.844451 
L 57.032796 72.008424 
L 57.744401 73.537552 
L 58.456006 74.440802 
L 59.167611 74.819687 
L 59.879216 75.781777 
L 60.590821 76.384781 
L 61.302426 76.645853 
L 62.014031 76.586999 
L 62.725636 76.234848 
L 63.437241 75.620473 
L 64.504649 74.285839 
L 65.927859 71.9533 
L 69.130081 66.290324 
L 70.197489 64.893614 
L 70.909094 64.23775 
L 71.620699 63.845054 
L 72.332304 63.742263 
L 73.043909 63.945189 
L 73.755514 64.457314 
L 74.467119 65.268861 
L 75.534527 66.992752 
L 76.601934 69.200597 
L 80.515762 77.870113 
L 81.583169 78.235484 
L 82.294774 78.278465 
L 83.00638 78.147063 
L 83.717985 77.824902 
L 84.42959 77.292226 
L 85.141195 76.527135 
L 85.8528 75.50732 
L 86.920207 73.456031 
L 87.631812 71.643035 
L 89.055022 66.194191 
L 91.54564 55.383058 
L 94.036257 44.881559 
L 97.23848 32.961855 
L 97.950085 31.242378 
L 98.66169 30.013607 
L 99.373295 29.303483 
L 99.729098 29.14725 
L 100.0849 29.123815 
L 100.440703 29.232071 
L 101.152308 29.834139 
L 103.287123 32.806905 
L 103.998728 34.397526 
L 105.066135 37.494317 
L 106.133543 41.395137 
L 107.556753 47.700528 
L 108.979963 54.674598 
L 110.047371 57.542969 
L 110.758976 59.03363 
L 111.470581 60.155353 
L 112.182186 60.896392 
L 112.893791 61.258684 
L 113.605396 61.257252 
L 114.317001 60.919121 
L 115.028606 60.281836 
L 116.096013 58.867726 
L 117.519223 56.413245 
L 120.365644 51.25532 
L 121.433051 49.746256 
L 122.500459 48.652564 
L 123.212064 48.185501 
L 123.923669 47.938159 
L 124.635274 47.910854 
L 125.346879 48.097508 
L 126.058484 48.486783 
L 127.125891 49.416079 
L 128.193299 50.702929 
L 129.616509 52.854422 
L 131.395521 56.013892 
L 136.732559 65.886823 
L 138.155769 67.931123 
L 139.223177 69.104421 
L 140.290584 69.884465 
L 141.002189 70.14924 
L 141.713794 70.185947 
L 142.425399 69.976609 
L 143.137004 69.506267 
L 143.848609 68.763734 
L 144.560214 67.7423 
L 145.627622 65.685108 
L 146.69503 63.016479 
L 147.762437 59.786161 
L 149.185647 54.75329 
L 151.676265 44.814987 
L 153.455277 37.928889 
L 154.522685 34.431554 
L 155.590092 31.633406 
L 156.301697 30.234258 
L 157.013302 29.253159 
L 157.724907 28.720216 
L 158.08071 28.628998 
L 158.436513 28.657407 
L 158.792315 28.890878 
L 159.50392 29.85345 
L 160.215525 31.419208 
L 160.92713 33.583415 
L 161.994538 37.903149 
L 163.061945 43.386059 
L 164.485155 52.137677 
L 166.975773 69.480973 
L 169.110588 83.701924 
L 170.533798 91.567792 
L 171.601206 96.234213 
L 173.024416 101.405825 
L 174.447626 108.439316 
L 175.515033 112.694403 
L 176.582441 115.994221 
L 177.294046 117.652676 
L 178.005651 118.886351 
L 178.717256 119.714737 
L 179.428861 120.167853 
L 180.140466 120.285373 
L 180.852071 120.115391 
L 181.563676 119.712826 
L 182.631083 118.804575 
L 185.477504 116.075433 
L 186.544911 115.476082 
L 187.256516 115.3211 
L 187.968121 115.3914 
L 188.679726 115.700213 
L 189.391331 116.249782 
L 190.102936 117.031705 
L 191.170344 118.597732 
L 192.593554 121.258276 
L 196.863184 129.924467 
L 197.930592 131.4636 
L 198.642197 132.219501 
L 199.353802 132.730075 
L 200.065407 132.977168 
L 200.777012 132.948863 
L 201.488617 132.639479 
L 202.200222 132.049415 
L 202.911827 131.184968 
L 203.979234 129.401264 
L 205.046642 127.089867 
L 206.469852 123.336533 
L 208.248864 117.927065 
L 211.80689 106.879 
L 213.2301 103.12929 
L 214.65331 100.051497 
L 215.364915 98.789665 
L 215.364915 98.789665 
" clip-path="url(#p29fc17d64a)" style="fill: none; stroke: #808080; stroke-opacity: 0.25; stroke-width: 1.5; stroke-linecap: square"/>
   </g>
   <g id="line2d_18">
    <path d="M 37.81946 63.952286 
L 40.310078 42.360531 
L 41.733288 32.112995 
L 42.800695 26.129276 
L 43.5123 23.11012 
L 44.223905 20.934505 
L 44.935511 19.639351 
L 45.291313 19.446117 
L 45.647116 19.470694 
L 46.002918 19.708145 
L 46.358721 20.152134 
L 47.070326 21.627833 
L 47.781931 23.822121 
L 48.849338 28.255464 
L 49.916746 33.734041 
L 52.051561 46.263291 
L 54.186376 59.305304 
L 55.253783 64.782577 
L 56.321191 69.184452 
L 57.032796 71.436775 
L 57.744401 73.11491 
L 58.456006 74.218524 
L 59.879216 75.506261 
L 60.590821 75.84743 
L 61.302426 75.864251 
L 62.014031 75.598433 
L 62.725636 75.094888 
L 63.793044 73.996363 
L 65.216254 72.139366 
L 67.706871 68.814397 
L 68.774279 67.700874 
L 69.841686 66.923474 
L 70.553292 66.627655 
L 71.264897 66.526565 
L 71.976502 66.627777 
L 72.688107 66.932546 
L 73.399712 67.435638 
L 74.467119 68.534652 
L 75.534527 69.985314 
L 77.313539 72.908736 
L 79.448354 76.480788 
L 80.515762 77.914044 
L 81.227367 78.545593 
L 81.938972 78.934303 
L 82.650577 79.061146 
L 83.362182 78.910082 
L 84.073787 78.468111 
L 84.785392 77.725492 
L 85.496997 76.676081 
L 86.208602 75.317782 
L 87.27601 72.708212 
L 88.343417 69.262917 
L 89.766627 63.730434 
L 92.257245 52.770856 
L 94.747862 42.143318 
L 96.171073 36.730722 
L 97.23848 33.504591 
L 97.950085 31.845223 
L 98.66169 30.622494 
L 99.373295 29.860765 
L 100.0849 29.57194 
L 100.440703 29.605119 
L 101.152308 30.02035 
L 101.863913 30.839106 
L 102.575518 31.900282 
L 103.287123 33.362822 
L 104.35453 36.252771 
L 105.421938 39.868353 
L 106.845148 45.534905 
L 110.403173 60.421549 
L 112.182186 66.754533 
L 113.605396 71.058757 
L 114.672803 73.752654 
L 115.740211 75.944676 
L 116.807618 77.613816 
L 117.875026 78.760778 
L 118.586631 79.247584 
L 119.298236 79.52929 
L 120.009841 79.627596 
L 121.077249 79.493556 
L 122.500459 78.976773 
L 124.635274 78.152221 
L 125.702681 78.021728 
L 126.414286 78.119352 
L 127.125891 78.39291 
L 127.837496 78.856644 
L 128.904904 79.915759 
L 129.972311 81.382719 
L 131.395521 83.835434 
L 135.309349 91.010651 
L 136.376757 92.352651 
L 137.088362 92.962671 
L 137.799967 93.308668 
L 138.511572 93.366136 
L 139.223177 93.116443 
L 139.934782 92.546607 
L 140.646387 91.64887 
L 141.357992 90.420218 
L 142.425399 87.960511 
L 143.492807 84.779999 
L 144.560214 80.916946 
L 145.983425 74.806235 
L 147.762437 65.915878 
L 151.676265 45.079922 
L 155.23429 34.615901 
L 156.301697 32.055019 
L 157.369105 30.059867 
L 158.08071 29.12121 
L 158.436513 28.785405 
L 158.792315 29.152552 
L 159.50392 30.955902 
L 160.215525 33.417549 
L 161.282933 38.255131 
L 162.35034 44.283987 
L 163.77355 53.697087 
L 168.04318 83.444464 
L 169.110588 89.362524 
L 170.177995 94.103137 
L 170.889601 96.526319 
L 171.601206 98.327102 
L 172.312811 99.497903 
L 172.668613 99.84957 
L 173.380218 104.483131 
L 174.803428 113.811953 
L 175.870836 119.575132 
L 176.938243 124.06522 
L 177.649848 126.282446 
L 178.361453 127.849073 
L 179.073058 128.755231 
L 179.428861 128.96145 
L 179.784663 129.005322 
L 180.140466 128.889615 
L 180.496268 128.617951 
L 181.207873 127.62534 
L 181.919478 126.07227 
L 182.631083 124.014593 
L 183.698491 120.126214 
L 185.121701 113.835162 
L 190.458739 88.751858 
L 191.881949 83.801156 
L 192.949356 80.882346 
L 194.016764 78.664986 
L 194.728369 77.566426 
L 195.439974 76.754782 
L 196.151579 76.20914 
L 196.863184 75.903754 
L 197.574789 75.80904 
L 198.286394 75.892635 
L 199.353802 76.277919 
L 200.777012 77.099391 
L 204.690839 79.541352 
L 207.181457 80.681598 
L 208.96047 81.561127 
L 210.38368 82.517989 
L 211.80689 83.803287 
L 213.2301 85.414447 
L 215.364915 88.162993 
L 215.364915 88.162993 
" clip-path="url(#p29fc17d64a)" style="fill: none; stroke: #808080; stroke-opacity: 0.25; stroke-width: 1.5; stroke-linecap: square"/>
   </g>
   <g id="line2d_19">
    <path d="M 37.81946 63.952213 
L 40.310078 42.565116 
L 41.733288 32.295678 
L 42.800695 26.250985 
L 43.5123 23.184335 
L 44.223905 20.964758 
L 44.935511 19.643257 
L 45.291313 19.462043 
L 45.647116 19.49485 
L 46.002918 19.736638 
L 46.358721 20.181145 
L 47.070326 21.647535 
L 47.781931 23.822054 
L 48.849338 28.218752 
L 49.916746 33.67268 
L 51.695758 44.093461 
L 54.542178 60.984791 
L 55.609586 66.031748 
L 56.676993 70.002887 
L 57.388599 72.005814 
L 58.100204 73.488987 
L 58.811809 74.469054 
L 59.523414 75.069391 
L 60.235019 75.297499 
L 60.946624 75.122428 
L 61.658229 74.593516 
L 62.369834 73.767461 
L 63.437241 72.107365 
L 65.216254 68.759368 
L 66.995266 65.524751 
L 68.062674 63.982469 
L 69.130081 62.90154 
L 69.841686 62.481174 
L 70.553292 62.319471 
L 71.264897 62.422803 
L 71.976502 62.7893 
L 72.688107 63.409215 
L 73.755514 64.774568 
L 74.822922 66.582586 
L 76.246132 69.474678 
L 79.448354 76.222491 
L 80.515762 77.897797 
L 81.227367 78.401179 
L 81.938972 78.703476 
L 82.650577 78.782277 
L 83.362182 78.617036 
L 84.073787 78.189425 
L 84.785392 77.483837 
L 85.496997 76.48798 
L 86.208602 75.193631 
L 87.27601 72.686691 
L 87.987615 70.457897 
L 89.410825 65.042827 
L 91.54564 55.780099 
L 94.39206 43.555893 
L 96.526875 35.386993 
L 97.594283 32.373652 
L 98.305888 30.905239 
L 99.017493 29.912041 
L 99.729098 29.415723 
L 100.0849 29.356681 
L 100.440703 29.423327 
L 101.152308 29.92691 
L 102.575518 31.748475 
L 103.287123 33.070731 
L 103.998728 34.7738 
L 105.066135 38.0003 
L 106.133543 41.949522 
L 107.556753 48.115503 
L 109.335766 55.962721 
L 110.758976 60.358875 
L 111.826383 63.07234 
L 112.893791 65.264098 
L 113.961198 66.962212 
L 115.028606 68.229365 
L 116.096013 69.153392 
L 117.519223 70.032228 
L 120.721446 71.811981 
L 121.788854 72.706911 
L 122.856261 73.887468 
L 123.923669 75.404401 
L 124.991076 77.282996 
L 126.414286 80.341585 
L 127.837496 83.948964 
L 130.328114 91.026642 
L 132.462929 96.961091 
L 133.886139 100.324869 
L 134.953547 102.332536 
L 136.020954 103.779396 
L 136.732559 104.386452 
L 137.444164 104.679848 
L 138.155769 104.639523 
L 138.867374 104.248678 
L 139.578979 103.493843 
L 140.290584 102.364961 
L 141.002189 100.855591 
L 142.069597 97.873756 
L 143.137004 94.041428 
L 144.204412 89.395119 
L 145.627622 82.055887 
L 147.406635 71.431452 
L 151.320462 46.504222 
L 152.032067 44.315052 
L 153.81108 39.398185 
L 155.945895 33.456819 
L 157.013302 31.002592 
L 157.724907 29.721882 
L 158.436513 28.805369 
L 158.792315 29.194359 
L 159.50392 31.078413 
L 160.215525 33.550809 
L 161.282933 38.252483 
L 162.35034 43.959462 
L 164.129353 55.03284 
L 168.398983 82.713639 
L 169.822193 90.166803 
L 170.889601 94.673103 
L 171.957008 98.104095 
L 172.668613 99.752027 
L 175.870836 115.675741 
L 176.938243 119.107837 
L 177.649848 120.811919 
L 178.361453 122.053749 
L 179.073058 122.843338 
L 179.784663 123.19482 
L 180.496268 123.125677 
L 181.207873 122.656069 
L 181.919478 121.808404 
L 182.631083 120.607049 
L 183.698491 118.199813 
L 184.765899 115.153174 
L 186.189109 110.284337 
L 187.968121 103.314052 
L 191.881949 87.579291 
L 193.305159 82.758641 
L 194.372566 79.723297 
L 195.439974 77.259292 
L 196.507382 75.396164 
L 197.218987 74.486666 
L 197.930592 73.832804 
L 198.642197 73.41898 
L 199.353802 73.22449 
L 200.065407 73.224341 
L 201.132814 73.525755 
L 202.200222 74.094688 
L 204.690839 75.83535 
L 206.114049 76.678238 
L 207.181457 77.063565 
L 208.248864 77.152648 
L 208.96047 77.019195 
L 209.672075 76.71813 
L 210.38368 76.243577 
L 211.451087 75.206689 
L 212.518495 73.800801 
L 213.941705 71.441372 
L 215.364915 68.703806 
L 215.364915 68.703806 
" clip-path="url(#p29fc17d64a)" style="fill: none; stroke: #808080; stroke-opacity: 0.25; stroke-width: 1.5; stroke-linecap: square"/>
   </g>
   <g id="line2d_20">
    <path d="M 37.81946 63.954592 
L 40.310078 42.239099 
L 41.733288 31.957491 
L 42.800695 25.99388 
L 43.5123 23.008698 
L 44.223905 20.879131 
L 44.935511 19.642074 
L 45.291313 19.42196 
L 45.647116 19.420336 
L 46.002918 19.633021 
L 46.358721 20.054381 
L 47.070326 21.493658 
L 47.781931 23.666348 
L 48.493536 26.482155 
L 49.560943 31.678513 
L 51.339956 41.939241 
L 54.897981 63.011089 
L 55.965388 67.828785 
L 57.032796 71.459695 
L 57.744401 73.155611 
L 58.456006 74.254405 
L 60.590821 76.085534 
L 61.302426 76.314263 
L 62.014031 76.330086 
L 63.081439 76.050215 
L 64.504649 75.313621 
L 69.485884 72.289389 
L 70.909094 71.807471 
L 71.976502 71.663405 
L 73.043909 71.744424 
L 74.111317 72.076618 
L 75.178724 72.669516 
L 76.246132 73.507893 
L 77.669342 74.922608 
L 81.583169 79.074341 
L 82.294774 79.434791 
L 83.00638 79.46933 
L 83.717985 79.171412 
L 84.42959 78.538672 
L 85.141195 77.572683 
L 85.8528 76.278874 
L 86.920207 73.745241 
L 87.987615 70.55564 
L 89.410825 65.39132 
L 91.189837 57.82633 
L 95.103665 40.746023 
L 96.526875 35.775098 
L 97.594283 32.911049 
L 98.305888 31.487739 
L 99.017493 30.485366 
L 99.729098 29.920268 
L 100.440703 29.798619 
L 101.152308 30.116694 
L 101.863913 30.861378 
L 102.575518 32.054216 
L 103.287123 33.650923 
L 104.35453 36.719882 
L 105.77774 41.802113 
L 108.624161 53.395424 
L 110.047371 59.737188 
L 113.249593 73.866133 
L 115.028606 80.800066 
L 116.451816 85.56109 
L 117.519223 88.565646 
L 118.586631 91.022066 
L 119.654038 92.890388 
L 120.365644 93.798252 
L 121.077249 94.434661 
L 121.788854 94.803665 
L 122.500459 94.913883 
L 123.212064 94.778259 
L 123.923669 94.413623 
L 124.635274 93.840051 
L 125.702681 92.637786 
L 126.770089 91.098861 
L 128.193299 88.668303 
L 130.683916 83.879598 
L 134.241942 77.087541 
L 136.376757 73.500353 
L 138.155769 70.899579 
L 140.290584 68.200925 
L 143.848609 63.891188 
L 145.271819 61.748033 
L 146.69503 59.089837 
L 148.11824 55.796244 
L 149.54145 51.8495 
L 151.320462 46.182539 
L 154.166882 34.234914 
L 155.23429 31.094216 
L 155.945895 29.585993 
L 156.6575 28.596859 
L 157.369105 28.158581 
L 157.724907 28.152802 
L 158.08071 28.291364 
L 158.436513 28.574861 
L 159.50392 29.036742 
L 160.215525 29.914075 
L 160.92713 31.344971 
L 161.638735 33.336004 
L 162.35034 35.881098 
L 163.417748 40.691493 
L 164.485155 46.579018 
L 165.908365 55.767932 
L 169.110588 78.813274 
L 170.889601 90.494411 
L 171.957008 96.324139 
L 173.024416 100.996494 
L 174.447626 106.019851 
L 175.515033 109.010651 
L 176.582441 111.336261 
L 177.649848 113.006295 
L 178.361453 113.763524 
L 179.073058 114.243738 
L 179.784663 114.455563 
L 180.496268 114.409473 
L 181.207873 114.11791 
L 181.919478 113.59528 
L 182.986886 112.414181 
L 184.054294 110.811785 
L 185.477504 108.135298 
L 187.256516 104.141407 
L 189.391331 98.729553 
L 192.237751 90.836966 
L 194.728369 83.314442 
L 197.574789 73.924253 
L 203.979234 52.18187 
L 205.758247 47.001442 
L 207.537259 42.503513 
L 208.96047 39.460114 
L 210.38368 36.965627 
L 211.451087 35.495527 
L 212.518495 34.408193 
L 213.2301 33.915121 
L 213.941705 33.620654 
L 214.65331 33.534699 
L 215.364915 33.664897 
L 215.364915 33.664897 
" clip-path="url(#p29fc17d64a)" style="fill: none; stroke: #808080; stroke-opacity: 0.25; stroke-width: 1.5; stroke-linecap: square"/>
   </g>
   <g id="line2d_21">
    <path d="M 37.81946 63.955057 
L 39.954275 44.546715 
L 41.377485 33.690568 
L 42.444893 27.295457 
L 43.156498 24.022191 
L 43.868103 21.605511 
L 44.579708 20.074251 
L 45.291313 19.331574 
L 45.647116 19.252148 
L 46.002918 19.390628 
L 46.358721 19.74274 
L 47.070326 21.063672 
L 47.781931 23.153061 
L 48.493536 25.929154 
L 49.560943 31.160947 
L 50.984153 39.515185 
L 53.474771 54.633127 
L 54.897981 62.079274 
L 55.965388 66.721052 
L 57.032796 70.404903 
L 57.744401 72.303705 
L 58.456006 73.762159 
L 59.167611 74.77078 
L 59.523414 74.876079 
L 59.879216 74.8562 
L 60.590821 74.465359 
L 61.302426 73.654374 
L 62.014031 72.489094 
L 63.081439 70.237839 
L 65.216254 64.893565 
L 66.639464 61.532767 
L 67.706871 59.495281 
L 68.418476 58.46326 
L 69.130081 57.736137 
L 69.841686 57.339194 
L 70.553292 57.286434 
L 71.264897 57.580567 
L 71.976502 58.213257 
L 72.688107 59.16564 
L 73.755514 61.128574 
L 74.822922 63.61175 
L 76.601934 68.438854 
L 78.736749 74.231803 
L 79.804157 76.655384 
L 80.515762 77.875399 
L 81.583169 78.343368 
L 82.294774 78.461758 
L 83.00638 78.39284 
L 83.717985 78.109025 
L 84.42959 77.584017 
L 85.141195 76.794026 
L 85.8528 75.719146 
L 86.920207 73.542449 
L 87.631812 71.655656 
L 89.055022 66.395669 
L 91.189837 57.287825 
L 94.39206 43.553479 
L 96.526875 35.410889 
L 97.594283 32.426847 
L 98.305888 30.976204 
L 99.017493 29.993909 
L 99.729098 29.497371 
L 100.0849 29.433009 
L 100.440703 29.490497 
L 101.152308 29.963874 
L 102.219715 31.269992 
L 102.93132 32.458749 
L 103.642925 34.038813 
L 104.710333 37.090131 
L 105.77774 40.858839 
L 107.20095 46.74749 
L 109.691568 57.357523 
L 111.114778 61.979616 
L 112.182186 64.853873 
L 113.249593 67.145095 
L 114.317001 68.82082 
L 115.028606 69.59372 
L 115.740211 70.097536 
L 116.451816 70.343088 
L 117.163421 70.345363 
L 117.875026 70.122897 
L 118.586631 69.697089 
L 119.654038 68.72922 
L 120.721446 67.442993 
L 122.144656 65.386997 
L 126.770089 58.375328 
L 127.837496 57.165681 
L 128.904904 56.269342 
L 129.616509 55.880452 
L 130.328114 55.680714 
L 131.039719 55.68668 
L 131.751324 55.911724 
L 132.462929 56.364936 
L 133.174534 57.050009 
L 134.241942 58.504054 
L 135.309349 60.428911 
L 136.732559 63.570793 
L 140.290584 71.895281 
L 141.357992 73.64077 
L 142.069597 74.400116 
L 142.781202 74.767395 
L 143.137004 74.788613 
L 143.492807 74.694843 
L 144.204412 74.147465 
L 144.916017 73.105256 
L 145.627622 71.564844 
L 146.339227 69.540409 
L 147.406635 65.670733 
L 148.829845 59.253943 
L 151.676265 45.047859 
L 155.23429 34.176632 
L 156.301697 31.566475 
L 157.013302 30.206087 
L 157.724907 29.236993 
L 158.436513 28.730617 
L 158.792315 29.026417 
L 159.50392 30.349937 
L 160.215525 32.164595 
L 161.282933 35.716143 
L 162.35034 40.124559 
L 163.77355 47.059832 
L 165.552563 56.935156 
L 168.398983 74.184171 
L 171.957008 95.551002 
L 172.668613 99.453583 
L 173.380218 101.446479 
L 174.091823 102.576368 
L 174.447626 102.903299 
L 174.803428 103.076536 
L 175.159231 103.101035 
L 175.515033 102.982651 
L 176.226638 102.344439 
L 176.938243 101.222521 
L 177.649848 99.685069 
L 178.717256 96.75814 
L 180.140466 92.074105 
L 185.477504 73.58938 
L 187.256516 68.41016 
L 189.391331 62.900196 
L 191.881949 57.165495 
L 194.372566 51.989579 
L 196.507382 48.034213 
L 198.286394 45.175049 
L 199.709604 43.230946 
L 201.132814 41.621484 
L 202.556024 40.355734 
L 203.979234 39.427158 
L 205.402444 38.820715 
L 206.825654 38.522885 
L 207.893062 38.499933 
L 208.96047 38.653805 
L 210.027877 38.995021 
L 211.095285 39.538795 
L 212.162692 40.303446 
L 213.2301 41.308505 
L 214.297507 42.572873 
L 215.364915 44.113271 
L 215.364915 44.113271 
" clip-path="url(#p29fc17d64a)" style="fill: none; stroke: #808080; stroke-opacity: 0.25; stroke-width: 1.5; stroke-linecap: square"/>
   </g>
   <g id="line2d_22">
    <path d="M 37.81946 63.954186 
L 40.310078 42.567298 
L 41.733288 32.301362 
L 42.800695 26.262593 
L 43.5123 23.197455 
L 44.223905 20.974987 
L 44.935511 19.641631 
L 45.291313 19.46698 
L 45.647116 19.507752 
L 46.002918 19.758748 
L 46.358721 20.213458 
L 47.070326 21.701891 
L 47.781931 23.897862 
L 48.849338 28.317175 
L 49.916746 33.770814 
L 52.051561 46.265246 
L 54.186376 59.291002 
L 55.253783 64.745595 
L 56.321191 69.128627 
L 57.032796 71.376877 
L 57.744401 73.061903 
L 58.456006 74.18617 
L 59.523414 75.174361 
L 60.235019 75.632218 
L 60.946624 75.732687 
L 61.658229 75.518504 
L 62.369834 75.037512 
L 63.437241 73.928489 
L 64.860451 72.005897 
L 67.351069 68.560598 
L 68.418476 67.432963 
L 69.485884 66.672529 
L 70.197489 66.403495 
L 70.909094 66.338303 
L 71.620699 66.480482 
L 72.332304 66.826522 
L 73.043909 67.36615 
L 74.111317 68.500603 
L 75.534527 70.489356 
L 80.159959 77.534617 
L 81.583169 78.972217 
L 82.294774 79.328941 
L 83.00638 79.386153 
L 83.717985 79.12345 
L 84.42959 78.526554 
L 85.141195 77.58793 
L 85.8528 76.307243 
L 86.920207 73.762567 
L 88.343417 69.403196 
L 89.766627 64.07233 
L 91.54564 56.379286 
L 94.747862 42.162103 
L 96.171073 37.009183 
L 97.23848 33.918816 
L 98.305888 31.640421 
L 99.017493 30.62214 
L 99.729098 30.027875 
L 100.440703 29.86832 
L 101.152308 30.145378 
L 101.863913 30.870851 
L 102.575518 32.093556 
L 103.287123 33.707734 
L 104.35453 36.775777 
L 105.77774 41.81546 
L 108.268358 51.928531 
L 110.047371 59.597576 
L 112.537988 70.055259 
L 114.317001 76.683995 
L 116.096013 82.455984 
L 117.519223 86.420509 
L 118.942433 89.775016 
L 120.365644 92.481433 
L 121.433051 94.062106 
L 122.500459 95.246219 
L 123.567866 96.035969 
L 124.635274 96.44959 
L 125.702681 96.522646 
L 126.770089 96.305939 
L 127.837496 95.860283 
L 129.260706 95.018692 
L 131.395521 93.475485 
L 134.241942 91.152583 
L 136.020954 89.414333 
L 137.444164 87.699066 
L 138.867374 85.569117 
L 140.290584 82.930784 
L 141.713794 79.727398 
L 143.137004 75.944321 
L 144.916017 70.442665 
L 146.69503 64.204724 
L 149.54145 53.233775 
L 154.522685 33.655521 
L 155.590092 30.760627 
L 156.301697 29.40577 
L 157.013302 28.570845 
L 157.369105 28.360301 
L 157.724907 28.29231 
L 158.08071 28.369185 
L 158.792315 28.735555 
L 159.148118 28.897003 
L 159.859723 29.60554 
L 160.571328 30.844406 
L 161.282933 32.623591 
L 161.994538 34.941056 
L 163.061945 39.389682 
L 164.129353 44.90372 
L 165.552563 53.602629 
L 167.687378 68.344957 
L 170.177995 85.42828 
L 171.601206 93.977388 
L 172.668613 99.50685 
L 173.380218 101.853361 
L 174.091823 103.555399 
L 174.803428 104.68663 
L 175.515033 105.22167 
L 175.870836 105.260426 
L 176.226638 105.145291 
L 176.582441 104.876132 
L 177.294046 103.879117 
L 178.005651 102.283985 
L 178.717256 100.118003 
L 179.784663 95.888492 
L 180.852071 90.646928 
L 182.275281 82.480414 
L 187.968121 47.92639 
L 189.391331 41.254434 
L 190.458739 37.089563 
L 191.526146 33.648865 
L 192.593554 30.896343 
L 193.660961 28.769421 
L 194.728369 27.189502 
L 195.795776 26.071847 
L 196.863184 25.333853 
L 197.930592 24.901133 
L 198.997999 24.711132 
L 200.065407 24.71423 
L 201.488617 24.954839 
L 203.267629 25.546086 
L 205.402444 26.543355 
L 209.672075 28.645992 
L 211.451087 29.213025 
L 213.2301 29.505828 
L 215.364915 29.63763 
L 215.364915 29.63763 
" clip-path="url(#p29fc17d64a)" style="fill: none; stroke: #808080; stroke-opacity: 0.25; stroke-width: 1.5; stroke-linecap: square"/>
   </g>
   <g id="line2d_23">
    <path d="M 37.81946 63.952165 
L 40.66588 40.314079 
L 42.08909 30.540482 
L 43.156498 24.915531 
L 43.868103 22.150959 
L 44.579708 20.247994 
L 44.935511 19.643161 
L 45.291313 19.522914 
L 45.647116 19.614593 
L 46.002918 19.912179 
L 46.714523 21.095014 
L 47.426128 23.000554 
L 48.137733 25.542744 
L 49.205141 30.333172 
L 50.628351 37.975874 
L 52.407363 48.600912 
L 54.186376 59.595757 
L 55.253783 65.148794 
L 56.321191 69.557208 
L 57.032796 71.769984 
L 57.744401 73.37162 
L 58.456006 74.361701 
L 59.523414 75.295911 
L 60.235019 76.01199 
L 60.946624 76.412628 
L 61.658229 76.532722 
L 62.369834 76.410388 
L 63.081439 76.085723 
L 64.148846 75.309098 
L 65.572056 73.946023 
L 68.062674 71.499657 
L 69.130081 70.704221 
L 70.197489 70.176242 
L 71.264897 69.965003 
L 71.976502 70.012823 
L 73.043909 70.368418 
L 74.111317 71.044165 
L 75.178724 71.994122 
L 76.601934 73.566272 
L 79.804157 77.271059 
L 80.515762 77.945864 
L 81.227367 78.829905 
L 81.938972 79.414286 
L 82.650577 79.673316 
L 83.362182 79.587736 
L 84.073787 79.145216 
L 84.785392 78.340762 
L 85.496997 77.176903 
L 86.208602 75.663715 
L 87.27601 72.779042 
L 88.69922 68.249003 
L 90.12243 62.755868 
L 92.257245 53.263386 
L 94.747862 42.167807 
L 96.171073 37.07394 
L 97.23848 34.000511 
L 98.305888 31.713205 
L 99.017493 30.677804 
L 99.729098 30.062083 
L 100.440703 29.88208 
L 101.152308 30.14561 
L 101.863913 30.871508 
L 102.575518 32.077889 
L 103.287123 33.656157 
L 104.35453 36.636568 
L 105.77774 41.535772 
L 107.556753 48.685397 
L 110.047371 58.847836 
L 111.114778 62.29011 
L 112.182186 64.942619 
L 112.893791 66.20201 
L 113.605396 67.024716 
L 114.317001 67.401606 
L 115.028606 67.337953 
L 115.740211 66.852726 
L 116.451816 65.977301 
L 117.163421 64.753632 
L 118.230828 62.376703 
L 119.654038 58.498107 
L 123.923669 46.128131 
L 125.346879 42.769149 
L 126.770089 39.995999 
L 128.193299 37.792204 
L 129.260706 36.486718 
L 130.328114 35.464912 
L 131.395521 34.729561 
L 132.462929 34.300692 
L 133.174534 34.201649 
L 133.886139 34.266227 
L 134.597744 34.506602 
L 135.309349 34.933227 
L 136.020954 35.55312 
L 137.088362 36.847892 
L 138.155769 38.558628 
L 139.578979 41.374609 
L 143.848609 50.493985 
L 144.916017 52.024388 
L 145.627622 52.703165 
L 146.339227 53.066618 
L 147.050832 53.089414 
L 147.762437 52.757269 
L 148.474042 52.067747 
L 149.185647 51.030734 
L 150.253055 48.875454 
L 151.320462 46.115319 
L 152.38787 41.001444 
L 153.455277 36.327262 
L 154.522685 32.585 
L 155.23429 30.675713 
L 155.945895 29.271714 
L 156.6575 28.394927 
L 157.013302 28.158516 
L 157.369105 28.057814 
L 157.724907 28.092823 
L 158.08071 28.262923 
L 158.436513 28.566874 
L 159.50392 29.065188 
L 160.215525 30.035522 
L 160.92713 31.628307 
L 161.638735 33.849368 
L 162.35034 36.686799 
L 163.417748 42.027394 
L 164.485155 48.503345 
L 166.264168 61.066407 
L 169.46639 84.342662 
L 170.533798 90.783979 
L 171.601206 95.980759 
L 172.312811 98.627445 
L 172.668613 99.684557 
L 174.091823 107.084019 
L 175.870836 115.59731 
L 177.294046 121.336719 
L 178.361453 124.902826 
L 179.428861 127.773623 
L 180.496268 129.913556 
L 181.207873 130.926263 
L 181.919478 131.608494 
L 182.631083 131.965264 
L 183.342689 132.005037 
L 184.054294 131.739191 
L 184.765899 131.181359 
L 185.477504 130.346804 
L 186.544911 128.611792 
L 187.612319 126.347065 
L 188.679726 123.607909 
L 190.102936 119.307364 
L 191.881949 113.045678 
L 194.016764 104.483347 
L 196.507382 93.413709 
L 200.065407 76.361627 
L 207.181457 41.900071 
L 209.316272 32.607181 
L 211.095285 25.697969 
L 212.518495 20.880462 
L 213.941705 16.795577 
L 215.364915 13.5 
L 215.364915 13.5 
" clip-path="url(#p29fc17d64a)" style="fill: none; stroke: #808080; stroke-opacity: 0.25; stroke-width: 1.5; stroke-linecap: square"/>
   </g>
   <g id="line2d_24">
    <path d="M 37.81946 63.95092 
L 39.598473 46.963601 
L 41.021683 35.536141 
L 42.08909 28.730446 
L 42.800695 25.171933 
L 43.5123 22.455262 
L 44.223905 20.609074 
L 44.935511 19.633612 
L 45.291313 19.281509 
L 45.647116 19.155335 
L 46.002918 19.252688 
L 46.358721 19.569569 
L 46.714523 20.100443 
L 47.426128 21.774726 
L 48.137733 24.203153 
L 49.205141 29.054452 
L 50.628351 37.181383 
L 53.474771 54.456648 
L 54.897981 61.760564 
L 55.965388 66.350467 
L 57.032796 70.058735 
L 58.100204 72.864065 
L 58.811809 74.253517 
L 59.167611 74.757839 
L 59.523414 74.758879 
L 59.879216 74.622335 
L 60.590821 73.963364 
L 61.302426 72.843909 
L 62.369834 70.470025 
L 63.793044 66.474739 
L 66.283661 59.307384 
L 67.351069 56.917427 
L 68.062674 55.719472 
L 68.774279 54.889572 
L 69.485884 54.455272 
L 70.197489 54.428806 
L 70.909094 54.807459 
L 71.620699 55.574433 
L 72.332304 56.700184 
L 73.399712 58.970177 
L 74.822922 62.803544 
L 79.092552 75.132712 
L 80.159959 77.36122 
L 80.515762 77.881444 
L 81.583169 78.425296 
L 82.294774 78.594158 
L 83.00638 78.565515 
L 83.717985 78.305475 
L 84.42959 77.784003 
L 85.141195 76.976276 
L 85.8528 75.863961 
L 86.564405 74.436292 
L 87.631812 71.661147 
L 89.055022 66.526797 
L 90.834035 59.073772 
L 95.103665 40.690383 
L 96.526875 35.569693 
L 97.594283 32.633285 
L 98.305888 31.189299 
L 99.017493 30.192492 
L 99.729098 29.661645 
L 100.0849 29.573671 
L 100.440703 29.603969 
L 101.152308 30.014936 
L 101.863913 30.844379 
L 102.575518 31.898336 
L 103.287123 33.344785 
L 104.35453 36.194109 
L 105.421938 39.758226 
L 106.845148 45.380944 
L 110.047371 58.718841 
L 111.470581 63.275508 
L 112.537988 66.051794 
L 113.605396 68.222426 
L 114.672803 69.787068 
L 115.384408 70.513165 
L 116.096013 71.010721 
L 116.807618 71.308571 
L 117.875026 71.456356 
L 118.942433 71.361014 
L 121.788854 70.925516 
L 122.856261 71.016972 
L 123.923669 71.362847 
L 124.991076 71.985309 
L 126.058484 72.867042 
L 127.481694 74.349623 
L 131.039719 78.241364 
L 132.107126 79.061015 
L 133.174534 79.58808 
L 134.241942 79.789 
L 135.309349 79.658261 
L 136.376757 79.213607 
L 137.444164 78.487699 
L 138.511572 77.517734 
L 139.934782 75.896992 
L 141.357992 73.928666 
L 142.781202 71.584239 
L 144.204412 68.782944 
L 145.627622 65.424099 
L 147.050832 61.433937 
L 148.474042 56.813422 
L 150.608857 48.977465 
L 152.38787 41.731775 
L 153.81108 36.216548 
L 154.878487 32.814176 
L 155.945895 30.272656 
L 156.6575 29.145888 
L 157.369105 28.524453 
L 157.724907 28.41404 
L 158.08071 28.441597 
L 159.148118 29.002596 
L 159.859723 29.841165 
L 160.571328 31.205175 
L 161.282933 33.092905 
L 161.994538 35.492242 
L 163.061945 39.99853 
L 164.129353 45.484927 
L 165.552563 54.034648 
L 167.687378 68.466498 
L 170.533798 87.638025 
L 171.957008 95.910483 
L 172.668613 99.507843 
L 173.380218 101.898192 
L 174.091823 103.725395 
L 174.803428 105.096236 
L 175.515033 106.021456 
L 176.226638 106.520859 
L 176.938243 106.622372 
L 177.649848 106.360817 
L 178.361453 105.776593 
L 179.073058 104.9141 
L 180.140466 103.201296 
L 181.563676 100.383036 
L 186.544911 89.963355 
L 187.968121 87.610368 
L 189.391331 85.661117 
L 190.814541 84.104921 
L 192.237751 82.910487 
L 193.660961 82.035334 
L 195.084171 81.427934 
L 196.863184 80.952111 
L 199.353802 80.587195 
L 202.911827 80.305941 
L 204.690839 80.385019 
L 205.758247 80.608186 
L 206.825654 81.028205 
L 207.893062 81.696133 
L 208.96047 82.653601 
L 210.027877 83.927153 
L 211.095285 85.524312 
L 212.518495 88.131013 
L 214.297507 92.021089 
L 215.364915 94.581261 
L 215.364915 94.581261 
" clip-path="url(#p29fc17d64a)" style="fill: none; stroke: #808080; stroke-opacity: 0.25; stroke-width: 1.5; stroke-linecap: square"/>
   </g>
   <g id="line2d_25">
    <path d="M 37.81946 63.956584 
L 40.66588 40.374278 
L 42.08909 30.588368 
L 43.156498 24.944396 
L 43.868103 22.166578 
L 44.579708 20.252048 
L 44.935511 19.643868 
L 45.291313 19.527571 
L 45.647116 19.622345 
L 46.002918 19.922166 
L 46.714523 21.107054 
L 47.426128 23.011977 
L 48.137733 25.551794 
L 49.205141 30.337575 
L 50.628351 37.97599 
L 52.407363 48.60153 
L 54.186376 59.599343 
L 55.253783 65.15848 
L 56.321191 69.574797 
L 57.032796 71.791322 
L 57.744401 73.392619 
L 58.456006 74.375111 
L 59.167611 74.814815 
L 59.879216 75.732859 
L 60.590821 76.336865 
L 61.302426 76.66174 
L 62.014031 76.74497 
L 62.725636 76.624977 
L 63.793044 76.146719 
L 65.216254 75.138486 
L 69.485884 71.772603 
L 70.553292 71.251684 
L 71.620699 70.973792 
L 72.688107 70.977159 
L 73.755514 71.283914 
L 74.822922 71.894842 
L 75.890329 72.784281 
L 77.313539 74.302647 
L 81.227367 78.752095 
L 81.938972 79.266082 
L 82.650577 79.467842 
L 83.362182 79.345282 
L 84.073787 78.890629 
L 84.785392 78.100378 
L 85.496997 76.975457 
L 86.208602 75.521488 
L 87.27601 72.748585 
L 88.343417 69.384423 
L 89.766627 64.018711 
L 91.54564 56.3157 
L 94.747862 42.160159 
L 96.171073 36.993069 
L 97.23848 33.91001 
L 97.950085 32.305421 
L 98.66169 31.094834 
L 99.373295 30.297524 
L 100.0849 29.924402 
L 100.796505 29.978303 
L 101.50811 30.454481 
L 102.219715 31.451844 
L 102.93132 32.914356 
L 103.998728 35.803786 
L 105.066135 39.371797 
L 106.845148 46.254808 
L 109.691568 58.16074 
L 111.826383 67.511183 
L 113.249593 72.862347 
L 114.317001 76.155425 
L 115.384408 78.70565 
L 116.096013 79.957797 
L 116.807618 80.840654 
L 117.519223 81.356223 
L 118.230828 81.516623 
L 118.942433 81.343737 
L 119.654038 80.868465 
L 120.365644 80.129655 
L 121.433051 78.628158 
L 122.856261 76.165777 
L 125.346879 71.820838 
L 126.414286 70.390451 
L 127.125891 69.685296 
L 127.837496 69.214102 
L 128.549101 68.998119 
L 129.260706 69.050094 
L 129.972311 69.374012 
L 130.683916 69.965036 
L 131.395521 70.809676 
L 132.462929 72.502296 
L 133.886139 75.379879 
L 138.155769 84.667688 
L 139.223177 86.166022 
L 139.934782 86.791285 
L 140.646387 87.064741 
L 141.357992 86.948318 
L 142.069597 86.411809 
L 142.781202 85.434068 
L 143.492807 84.004034 
L 144.204412 82.121572 
L 145.271819 78.477759 
L 146.339227 73.932943 
L 147.762437 66.734559 
L 150.253055 52.491721 
L 151.320462 46.452107 
L 152.032067 44.101357 
L 156.301697 31.925958 
L 157.369105 29.890181 
L 158.08071 29.018564 
L 158.436513 28.754657 
L 158.792315 29.081845 
L 159.50392 30.583887 
L 160.215525 32.601525 
L 161.282933 36.495391 
L 162.35034 41.273381 
L 163.77355 48.692415 
L 165.908365 61.179286 
L 170.533798 88.621851 
L 172.312811 97.832952 
L 173.024416 100.819733 
L 173.736021 102.772245 
L 174.447626 104.078332 
L 175.159231 104.748014 
L 175.515033 104.851853 
L 175.870836 104.807642 
L 176.226638 104.62089 
L 176.938243 103.845319 
L 177.649848 102.582237 
L 178.361453 100.896148 
L 179.428861 97.725186 
L 180.852071 92.666091 
L 186.544911 71.365796 
L 188.323924 66.019358 
L 189.747134 62.35898 
L 191.170344 59.243138 
L 192.593554 56.676857 
L 193.660961 55.12596 
L 194.728369 53.911176 
L 195.795776 53.046807 
L 196.863184 52.542645 
L 197.574789 52.407783 
L 198.286394 52.431697 
L 199.353802 52.75502 
L 200.421209 53.401408 
L 201.488617 54.338491 
L 202.911827 55.974583 
L 204.335037 57.967331 
L 206.114049 60.82892 
L 208.604667 65.273674 
L 213.585902 74.333717 
L 215.364915 77.077708 
L 215.364915 77.077708 
" clip-path="url(#p29fc17d64a)" style="fill: none; stroke: #808080; stroke-opacity: 0.25; stroke-width: 1.5; stroke-linecap: square"/>
   </g>
   <g id="line2d_26">
    <path d="M 37.81946 63.951417 
L 39.954275 44.804297 
L 41.377485 33.983751 
L 42.444893 27.544245 
L 43.156498 24.213768 
L 43.868103 21.724051 
L 44.579708 20.110525 
L 44.935511 19.637789 
L 45.291313 19.379625 
L 45.647116 19.340866 
L 46.002918 19.517834 
L 46.358721 19.90543 
L 47.070326 21.285329 
L 47.781931 23.413508 
L 48.493536 26.204589 
L 49.560943 31.410872 
L 50.984153 39.647705 
L 54.186376 58.794143 
L 55.609586 65.666914 
L 56.676993 69.67515 
L 57.388599 71.74271 
L 58.100204 73.318505 
L 58.811809 74.414162 
L 59.523414 74.991697 
L 60.235019 75.07668 
L 60.946624 74.754513 
L 61.658229 74.080852 
L 62.369834 73.118226 
L 63.437241 71.279742 
L 67.351069 63.928467 
L 68.418476 62.612359 
L 69.130081 62.035626 
L 69.841686 61.724135 
L 70.553292 61.688319 
L 71.264897 61.929191 
L 71.976502 62.438723 
L 72.688107 63.20043 
L 73.755514 64.761104 
L 75.178724 67.445642 
L 79.804157 76.923088 
L 80.515762 77.907377 
L 81.227367 78.495595 
L 81.938972 78.874259 
L 82.650577 79.013757 
L 83.362182 78.887654 
L 84.073787 78.473619 
L 84.785392 77.754237 
L 85.496997 76.717834 
L 86.208602 75.359249 
L 87.27601 72.723591 
L 88.343417 69.297215 
L 89.766627 63.840438 
L 91.901442 54.526091 
L 94.747862 42.149597 
L 96.171073 36.867067 
L 97.23848 33.717578 
L 97.950085 32.08692 
L 98.66169 30.869374 
L 99.373295 30.086899 
L 100.0849 29.751649 
L 100.440703 29.752817 
L 101.152308 30.089582 
L 101.863913 30.861677 
L 102.575518 32.01928 
L 103.287123 33.57305 
L 104.35453 36.568567 
L 105.421938 40.227225 
L 107.20095 47.308826 
L 111.114778 63.424768 
L 112.537988 68.288831 
L 113.605396 71.28935 
L 114.672803 73.649075 
L 115.384408 74.845785 
L 116.096013 75.738039 
L 116.807618 76.331672 
L 117.519223 76.6401 
L 118.230828 76.68398 
L 118.942433 76.490638 
L 119.654038 76.093287 
L 120.721446 75.199026 
L 122.500459 73.271139 
L 124.279471 71.388261 
L 125.346879 70.533322 
L 126.414286 70.003475 
L 127.125891 69.860103 
L 127.837496 69.893754 
L 128.549101 70.103433 
L 129.616509 70.727814 
L 130.683916 71.6725 
L 132.107126 73.288176 
L 136.020954 78.00017 
L 137.088362 78.903509 
L 138.155769 79.487721 
L 138.867374 79.666107 
L 139.578979 79.653938 
L 140.290584 79.434001 
L 141.002189 78.990301 
L 141.713794 78.308356 
L 142.425399 77.375616 
L 143.492807 75.485379 
L 144.560214 72.990779 
L 145.627622 69.897175 
L 147.050832 64.906815 
L 148.829845 57.552932 
L 152.38787 42.242635 
L 154.166882 36.04191 
L 155.23429 32.939383 
L 156.301697 30.556509 
L 157.013302 29.462362 
L 157.724907 28.821156 
L 158.08071 28.6833 
L 158.436513 28.672978 
L 158.792315 28.904089 
L 159.50392 29.88708 
L 160.215525 31.413723 
L 160.92713 33.47102 
L 161.994538 37.497558 
L 163.061945 42.540809 
L 164.485155 50.551882 
L 166.61997 64.292223 
L 169.822193 85.026146 
L 171.245403 92.961833 
L 172.668613 99.56462 
L 173.736021 103.473154 
L 174.447626 105.447215 
L 175.159231 106.899829 
L 175.870836 107.834772 
L 176.582441 108.267933 
L 176.938243 108.304431 
L 177.649848 108.039119 
L 178.361453 107.358423 
L 179.073058 106.311632 
L 180.140466 104.175895 
L 181.563676 100.580281 
L 186.900714 86.064913 
L 188.323924 83.004518 
L 190.102936 79.769206 
L 191.881949 77.006129 
L 195.439974 72.015951 
L 200.421209 65.235537 
L 201.844419 63.630901 
L 203.267629 62.388721 
L 204.335037 61.765572 
L 205.402444 61.449227 
L 206.469852 61.461842 
L 207.537259 61.807964 
L 208.604667 62.474256 
L 209.672075 63.431619 
L 211.095285 65.090015 
L 212.874297 67.624751 
L 215.009112 71.110158 
L 215.364915 71.725813 
L 215.364915 71.725813 
" clip-path="url(#p29fc17d64a)" style="fill: none; stroke: #808080; stroke-opacity: 0.25; stroke-width: 1.5; stroke-linecap: square"/>
   </g>
   <g id="line2d_27">
    <path d="M 37.81946 63.953952 
L 39.954275 44.523258 
L 41.377485 33.671073 
L 42.444893 27.281939 
L 43.156498 24.012114 
L 43.868103 21.597916 
L 44.579708 20.068272 
L 45.291313 19.336371 
L 45.647116 19.256329 
L 46.002918 19.39407 
L 46.358721 19.745262 
L 47.070326 21.063618 
L 47.781931 23.149418 
L 48.493536 25.921256 
L 49.560943 31.147374 
L 50.984153 39.502339 
L 53.474771 54.597931 
L 54.897981 61.99677 
L 55.965388 66.610848 
L 57.032796 70.290739 
L 58.100204 73.008043 
L 58.811809 74.303998 
L 59.167611 74.764593 
L 59.523414 74.829749 
L 59.879216 74.764057 
L 60.590821 74.266182 
L 61.302426 73.331772 
L 62.014031 72.03367 
L 63.081439 69.585421 
L 66.639464 60.646819 
L 67.706871 58.755557 
L 68.418476 57.878065 
L 69.130081 57.342997 
L 69.841686 57.165196 
L 70.553292 57.345904 
L 71.264897 57.873689 
L 71.976502 58.725827 
L 73.043909 60.539062 
L 74.111317 62.866622 
L 75.890329 67.430058 
L 78.380947 73.856879 
L 79.448354 76.149474 
L 80.159959 77.412797 
L 80.515762 77.894906 
L 81.583169 78.58007 
L 82.294774 78.800875 
L 83.00638 78.794488 
L 83.717985 78.531719 
L 84.42959 77.98782 
L 85.141195 77.143457 
L 85.8528 75.985616 
L 86.920207 73.650368 
L 87.631812 71.661587 
L 89.055022 66.603935 
L 90.834035 59.192724 
L 95.103665 40.714792 
L 96.526875 35.668015 
L 97.594283 32.770477 
L 98.305888 31.338639 
L 99.017493 30.34009 
L 99.729098 29.792109 
L 100.440703 29.7015 
L 101.152308 30.064633 
L 101.863913 30.855135 
L 102.575518 31.978443 
L 103.287123 33.498052 
L 104.35453 36.450116 
L 105.421938 40.085547 
L 106.845148 45.704024 
L 111.114778 63.294847 
L 112.893791 69.451783 
L 114.672803 74.684767 
L 116.451816 79.196489 
L 123.923669 96.729018 
L 125.346879 99.564889 
L 126.414286 101.199769 
L 127.125891 101.97648 
L 127.837496 102.460145 
L 128.549101 102.622345 
L 129.260706 102.443855 
L 129.972311 101.916065 
L 130.683916 101.041814 
L 131.395521 99.835676 
L 132.462929 97.463655 
L 133.530337 94.534778 
L 135.309349 88.881928 
L 138.155769 79.724924 
L 139.578979 75.825242 
L 141.002189 72.560764 
L 142.425399 69.824245 
L 145.627622 64.020109 
L 146.69503 61.637201 
L 147.762437 58.821257 
L 149.185647 54.322883 
L 150.96466 47.681403 
L 153.81108 36.782735 
L 154.878487 33.588843 
L 155.945895 31.104501 
L 156.6575 29.898256 
L 157.369105 29.088612 
L 158.08071 28.704687 
L 158.436513 28.680756 
L 158.792315 28.92487 
L 159.50392 30.009708 
L 160.215525 31.693764 
L 160.92713 33.954226 
L 161.994538 38.339018 
L 163.061945 43.750831 
L 164.485155 52.162271 
L 170.533798 89.896702 
L 171.957008 96.681848 
L 173.380218 102.427321 
L 174.091823 104.741116 
L 174.803428 106.444298 
L 175.515033 107.518618 
L 175.870836 107.81808 
L 176.226638 107.959806 
L 176.582441 107.945407 
L 176.938243 107.777314 
L 177.649848 106.993682 
L 178.361453 105.643559 
L 179.073058 103.772407 
L 180.140466 100.110559 
L 181.207873 95.615203 
L 182.986886 86.91396 
L 187.256516 65.383238 
L 189.035529 57.833788 
L 190.814541 51.397537 
L 192.593554 45.874285 
L 194.728369 40.082771 
L 196.507382 35.808759 
L 197.930592 32.827264 
L 198.997999 30.946362 
L 200.065407 29.462375 
L 200.777012 28.735097 
L 201.488617 28.243386 
L 202.200222 28.00509 
L 202.911827 28.032997 
L 203.623432 28.334156 
L 204.335037 28.909632 
L 205.046642 29.75458 
L 206.114049 31.50339 
L 207.181457 33.77993 
L 208.604667 37.509261 
L 210.38368 42.996979 
L 215.364915 59.603807 
L 215.364915 59.603807 
" clip-path="url(#p29fc17d64a)" style="fill: none; stroke: #808080; stroke-opacity: 0.25; stroke-width: 1.5; stroke-linecap: square"/>
   </g>
   <g id="line2d_28">
    <path d="M 37.81946 63.953316 
L 39.954275 44.600711 
L 41.377485 33.724035 
L 42.444893 27.314836 
L 43.156498 24.034697 
L 43.868103 21.61181 
L 44.579708 20.073076 
L 45.291313 19.343334 
L 45.647116 19.270764 
L 46.002918 19.417212 
L 46.358721 19.778369 
L 47.070326 21.11996 
L 47.781931 23.231421 
L 48.493536 26.027363 
L 49.560943 31.274333 
L 50.984153 39.594853 
L 54.186376 58.812181 
L 55.609586 65.780684 
L 56.676993 69.858489 
L 57.388599 71.942118 
L 58.100204 73.487132 
L 58.811809 74.484542 
L 59.879216 75.33492 
L 60.590821 75.558956 
L 61.302426 75.526667 
L 62.369834 75.138517 
L 64.148846 74.085667 
L 65.572056 73.310166 
L 66.639464 72.929034 
L 67.706871 72.767498 
L 68.774279 72.82377 
L 70.197489 73.181686 
L 71.976502 73.924269 
L 80.515762 77.990544 
L 81.227367 79.195798 
L 81.938972 80.013973 
L 82.650577 80.416695 
L 83.362182 80.387503 
L 84.073787 79.92186 
L 84.785392 79.026689 
L 85.496997 77.719594 
L 86.564405 75.048253 
L 89.055022 67.323061 
L 90.478232 61.78389 
L 92.257245 53.729496 
L 94.747862 42.194151 
L 96.171073 37.429155 
L 97.23848 34.540747 
L 98.305888 32.339248 
L 99.017493 31.290796 
L 99.729098 30.599922 
L 100.440703 30.282097 
L 101.152308 30.349148 
L 101.50811 30.529587 
L 101.863913 30.914129 
L 102.575518 32.402162 
L 103.642925 35.34222 
L 105.066135 40.234322 
L 108.979963 54.987294 
L 115.384408 88.459093 
L 116.807618 94.09609 
L 117.875026 97.490633 
L 118.942433 100.072174 
L 119.654038 101.307589 
L 120.365644 102.137584 
L 121.077249 102.553754 
L 121.788854 102.553789 
L 122.500459 102.142165 
L 123.212064 101.330632 
L 123.923669 100.138696 
L 124.991076 97.699727 
L 126.058484 94.594165 
L 127.481694 89.701727 
L 131.395521 75.557923 
L 132.462929 72.484824 
L 133.530337 70.056722 
L 134.241942 68.840197 
L 134.953547 67.957967 
L 135.665152 67.405705 
L 136.376757 67.165519 
L 137.088362 67.206381 
L 137.799967 67.4851 
L 138.867374 68.228922 
L 141.713794 70.514808 
L 142.425399 70.767975 
L 143.137004 70.76145 
L 143.848609 70.442297 
L 144.560214 69.769045 
L 145.271819 68.713496 
L 145.983425 67.262089 
L 147.050832 64.35095 
L 148.11824 60.628291 
L 149.54145 54.663878 
L 152.032067 43.732156 
L 154.166882 36.797957 
L 155.590092 32.95782 
L 156.6575 30.737436 
L 157.369105 29.656274 
L 158.08071 28.944683 
L 158.436513 28.739881 
L 158.792315 29.056007 
L 159.50392 30.544309 
L 160.215525 32.654681 
L 160.92713 35.356263 
L 161.994538 40.41498 
L 163.417748 48.703303 
L 165.552563 63.116752 
L 168.04318 79.93212 
L 169.46639 88.136744 
L 170.533798 93.174102 
L 171.601206 97.073943 
L 172.312811 98.99718 
L 172.668613 99.752189 
L 173.736021 105.770836 
L 174.803428 111.245747 
L 175.870836 115.613993 
L 176.582441 117.836335 
L 177.294046 119.464794 
L 178.005651 120.472671 
L 178.361453 120.738045 
L 178.717256 120.842508 
L 179.073058 120.785458 
L 179.428861 120.566988 
L 180.140466 119.649675 
L 180.852071 118.1056 
L 181.563676 115.961605 
L 182.631083 111.708526 
L 183.698491 106.37347 
L 185.121701 97.978538 
L 190.814541 62.411285 
L 191.881949 57.394088 
L 192.949356 53.266104 
L 194.016764 50.052441 
L 195.084171 47.723719 
L 195.795776 46.62882 
L 196.507382 45.867418 
L 197.218987 45.407674 
L 197.930592 45.216444 
L 198.642197 45.26107 
L 199.353802 45.510872 
L 200.421209 46.210976 
L 201.488617 47.234911 
L 202.911827 49.009699 
L 204.335037 51.177281 
L 206.114049 54.357444 
L 208.248864 58.706342 
L 212.162692 66.880512 
L 213.585902 69.329305 
L 214.65331 70.804308 
L 215.364915 71.585892 
L 215.364915 71.585892 
" clip-path="url(#p29fc17d64a)" style="fill: none; stroke: #808080; stroke-opacity: 0.25; stroke-width: 1.5; stroke-linecap: square"/>
   </g>
   <g id="line2d_29">
    <path d="M 37.81946 63.952864 
L 39.598473 46.468571 
L 41.021683 34.912952 
L 42.08909 28.169355 
L 42.800695 24.713739 
L 43.5123 22.135106 
L 44.223905 20.447639 
L 44.579708 19.936583 
L 45.647116 18.997875 
L 46.002918 19.025619 
L 46.358721 19.280043 
L 46.714523 19.756856 
L 47.426128 21.352129 
L 48.137733 23.744572 
L 48.849338 26.843968 
L 49.916746 32.573251 
L 51.695758 43.8999 
L 52.763166 50.285485 
L 54.542178 59.652441 
L 55.965388 65.900241 
L 57.032796 69.678756 
L 58.100204 72.643918 
L 58.811809 74.181815 
L 59.167611 74.745215 
L 59.523414 74.656436 
L 59.879216 74.425551 
L 60.590821 73.56821 
L 61.302426 72.243708 
L 62.369834 69.564482 
L 63.793044 65.193573 
L 65.927859 58.504655 
L 66.995266 55.751419 
L 67.706871 54.300645 
L 68.418476 53.218645 
L 69.130081 52.541663 
L 69.841686 52.291017 
L 70.553292 52.47305 
L 71.264897 53.079506 
L 71.976502 54.088383 
L 72.688107 55.465116 
L 73.755514 58.117761 
L 75.178724 62.445656 
L 78.736749 73.86923 
L 79.804157 76.552062 
L 80.515762 77.868625 
L 81.583169 78.249168 
L 82.294774 78.349184 
L 83.00638 78.283763 
L 83.717985 78.017091 
L 84.42959 77.515663 
L 85.141195 76.749947 
L 85.8528 75.69596 
L 86.564405 74.336752 
L 87.27601 72.663678 
L 87.987615 70.424847 
L 89.410825 64.955269 
L 91.901442 54.137729 
L 94.39206 43.554653 
L 96.526875 35.400949 
L 97.594283 32.402751 
L 98.305888 30.941992 
L 99.017493 29.952029 
L 99.729098 29.453267 
L 100.0849 29.390754 
L 100.440703 29.452507 
L 101.152308 29.942598 
L 102.575518 31.767603 
L 103.287123 33.106071 
L 104.35453 35.813584 
L 105.421938 39.293068 
L 106.845148 44.951185 
L 109.691568 57.126328 
L 110.758976 60.274206 
L 111.826383 62.830554 
L 112.893791 64.754302 
L 113.605396 65.687091 
L 114.317001 66.353837 
L 115.028606 66.774585 
L 115.740211 66.975567 
L 116.451816 66.988122 
L 117.519223 66.732065 
L 118.942433 66.086367 
L 120.721446 65.269834 
L 121.788854 65.035457 
L 122.500459 65.073115 
L 123.212064 65.311036 
L 123.923669 65.783909 
L 124.635274 66.521679 
L 125.346879 67.548429 
L 126.058484 68.881288 
L 127.125891 71.472132 
L 128.193299 74.762994 
L 129.616509 80.134785 
L 131.395521 88.019196 
L 134.597744 102.71278 
L 135.665152 106.828101 
L 136.732559 110.13003 
L 137.444164 111.766971 
L 138.155769 112.884588 
L 138.867374 113.435549 
L 139.223177 113.486799 
L 139.578979 113.383828 
L 139.934782 113.124096 
L 140.646387 112.128365 
L 141.357992 110.496226 
L 142.069597 108.238082 
L 143.137004 103.733155 
L 144.204412 98.011504 
L 145.627622 88.829274 
L 147.406635 75.689349 
L 150.96466 48.97277 
L 151.320462 46.589938 
L 151.676265 45.344682 
L 152.743672 43.06749 
L 154.166882 39.352192 
L 157.013302 31.657587 
L 158.08071 29.448168 
L 158.436513 28.865777 
L 158.792315 29.323615 
L 159.50392 31.632211 
L 160.215525 34.583189 
L 161.282933 40.079962 
L 162.706143 48.989544 
L 165.19676 66.71785 
L 166.975773 78.91651 
L 168.398983 87.237572 
L 169.46639 92.262097 
L 170.533798 96.075217 
L 171.245403 97.907291 
L 171.957008 99.166689 
L 172.668613 99.864211 
L 173.380218 104.560895 
L 174.803428 113.887677 
L 175.870836 119.538571 
L 176.938243 123.900112 
L 177.649848 126.064959 
L 178.361453 127.635868 
L 179.073058 128.626083 
L 179.784663 129.058597 
L 180.140466 129.075126 
L 180.496268 128.964337 
L 181.207873 128.380266 
L 181.919478 127.347575 
L 182.631083 125.909991 
L 183.698491 123.092544 
L 184.765899 119.615188 
L 186.189109 114.200077 
L 188.323924 105.038307 
L 192.949356 84.733611 
L 194.728369 77.881447 
L 196.507382 71.934428 
L 197.930592 67.889458 
L 199.353802 64.483422 
L 200.777012 61.701465 
L 201.844419 60.015702 
L 202.911827 58.672286 
L 203.979234 57.677267 
L 205.046642 57.042755 
L 205.758247 56.827679 
L 206.469852 56.784339 
L 207.181457 56.916528 
L 207.893062 57.226525 
L 208.604667 57.714466 
L 209.672075 58.773566 
L 210.739482 60.204578 
L 212.162692 62.621961 
L 213.941705 66.267036 
L 215.364915 69.47408 
L 215.364915 69.47408 
" clip-path="url(#p29fc17d64a)" style="fill: none; stroke: #808080; stroke-opacity: 0.25; stroke-width: 1.5; stroke-linecap: square"/>
   </g>
   <g id="line2d_30">
    <path d="M 37.81946 63.951751 
L 39.954275 44.828453 
L 41.377485 34.042248 
L 42.444893 27.608693 
L 43.156498 24.269668 
L 43.868103 21.762055 
L 44.579708 20.123223 
L 44.935511 19.63968 
L 45.291313 19.396871 
L 45.647116 19.373811 
L 46.002918 19.566399 
L 46.358721 19.969117 
L 47.070326 21.376076 
L 47.781931 23.524543 
L 48.493536 26.326536 
L 49.560943 31.527504 
L 50.984153 39.712696 
L 54.542178 60.869564 
L 55.609586 65.945379 
L 56.676993 69.971611 
L 57.388599 72.010004 
L 58.100204 73.51348 
L 58.811809 74.485367 
L 59.879216 75.314633 
L 60.590821 75.4701 
L 61.302426 75.31368 
L 62.014031 74.903751 
L 63.081439 73.946062 
L 65.216254 71.512823 
L 66.639464 70.036199 
L 67.706871 69.205066 
L 68.774279 68.685956 
L 69.485884 68.528956 
L 70.197489 68.525346 
L 71.264897 68.797965 
L 72.332304 69.376824 
L 73.399712 70.218152 
L 74.822922 71.654429 
L 77.313539 74.609057 
L 79.092552 76.627777 
L 82.294774 79.705496 
L 83.00638 79.81569 
L 83.717985 79.560287 
L 84.42959 78.930895 
L 85.141195 77.92752 
L 85.8528 76.558452 
L 86.920207 73.856998 
L 88.69922 68.317129 
L 90.12243 62.889998 
L 91.901442 55.054179 
L 94.747862 42.177207 
L 96.171073 37.225272 
L 97.23848 34.250141 
L 98.305888 32.025086 
L 99.017493 30.997833 
L 99.729098 30.355526 
L 100.440703 30.109479 
L 101.152308 30.26572 
L 101.50811 30.495132 
L 101.863913 30.897942 
L 102.575518 32.283636 
L 103.642925 35.082554 
L 104.710333 38.572073 
L 106.489345 45.296932 
L 109.335766 56.714134 
L 113.249593 75.763041 
L 114.672803 81.616898 
L 116.096013 86.461552 
L 117.163421 89.335998 
L 118.230828 91.522092 
L 118.942433 92.593898 
L 119.654038 93.362167 
L 120.365644 93.835988 
L 121.077249 94.028162 
L 121.788854 93.954689 
L 122.500459 93.634236 
L 123.212064 93.087711 
L 124.279471 91.894242 
L 125.346879 90.3267 
L 126.770089 87.809453 
L 132.107126 77.701962 
L 133.174534 76.202977 
L 134.241942 75.022103 
L 135.309349 74.17084 
L 136.376757 73.625519 
L 137.444164 73.325751 
L 141.002189 72.698615 
L 142.069597 72.098399 
L 142.781202 71.468509 
L 143.492807 70.618305 
L 144.560214 68.881016 
L 145.627622 66.554284 
L 146.69503 63.64143 
L 148.11824 58.938552 
L 149.897252 52.094498 
L 153.81108 36.633087 
L 154.878487 33.293707 
L 155.945895 30.732568 
L 156.6575 29.543324 
L 157.369105 28.815598 
L 157.724907 28.63405 
L 158.08071 28.577518 
L 158.436513 28.647677 
L 158.792315 28.852326 
L 159.50392 29.70197 
L 160.215525 31.140441 
L 160.92713 33.174417 
L 161.638735 35.796981 
L 162.706143 40.782408 
L 163.77355 46.898762 
L 165.19676 56.419349 
L 169.46639 86.616795 
L 170.533798 92.473039 
L 171.601206 96.935321 
L 172.312811 99.012106 
L 172.668613 99.761405 
L 173.380218 103.92054 
L 175.515033 116.821644 
L 176.938243 124.392764 
L 178.361453 130.746096 
L 179.428861 134.509553 
L 180.140466 136.471768 
L 180.852071 137.961731 
L 181.563676 138.957802 
L 182.275281 139.446978 
L 182.631083 139.5 
L 182.986886 139.42578 
L 183.698491 138.900785 
L 184.410096 137.88875 
L 185.121701 136.41632 
L 186.189109 133.425106 
L 187.256516 129.634319 
L 188.679726 123.655855 
L 191.526146 110.298492 
L 193.660961 100.702169 
L 195.439974 93.741837 
L 196.863184 89.00149 
L 198.286394 84.975321 
L 199.709604 81.568135 
L 201.132814 78.652642 
L 202.911827 75.507017 
L 205.046642 72.206333 
L 207.537259 68.751216 
L 210.38368 65.164304 
L 212.874297 62.332646 
L 215.364915 59.846247 
L 215.364915 59.846247 
" clip-path="url(#p29fc17d64a)" style="fill: none; stroke: #808080; stroke-opacity: 0.25; stroke-width: 1.5; stroke-linecap: square"/>
   </g>
   <g id="line2d_31">
    <path d="M 37.81946 63.950576 
L 39.954275 44.417453 
L 41.377485 33.557207 
L 42.444893 27.188016 
L 43.156498 23.941323 
L 43.868103 21.555588 
L 44.579708 20.056954 
L 45.291313 19.317235 
L 45.647116 19.223147 
L 46.002918 19.348127 
L 46.358721 19.688148 
L 47.070326 20.989996 
L 47.781931 23.068164 
L 48.493536 25.841558 
L 49.560943 31.084944 
L 50.984153 39.477895 
L 53.474771 54.586129 
L 54.897981 62.006564 
L 55.965388 66.648779 
L 57.032796 70.349409 
L 58.100204 73.059064 
L 58.811809 74.323796 
L 59.167611 74.770178 
L 59.523414 74.867867 
L 59.879216 74.84216 
L 60.590821 74.447037 
L 61.302426 73.644781 
L 62.014031 72.504628 
L 63.081439 70.327104 
L 66.995266 61.505611 
L 68.062674 59.865007 
L 68.774279 59.113543 
L 69.485884 58.665686 
L 70.197489 58.534971 
L 70.909094 58.724506 
L 71.620699 59.227452 
L 72.332304 60.027655 
L 73.399712 61.729296 
L 74.467119 63.928444 
L 76.246132 68.296518 
L 78.736749 74.536008 
L 79.804157 76.754923 
L 80.515762 77.887392 
L 81.583169 78.477236 
L 82.294774 78.644764 
L 83.00638 78.599944 
L 83.717985 78.3174 
L 84.42959 77.774312 
L 85.141195 76.951296 
L 85.8528 75.833406 
L 86.920207 73.584661 
L 87.631812 71.659561 
L 89.055022 66.470299 
L 90.834035 58.963791 
L 94.747862 42.132425 
L 96.171073 36.637252 
L 97.23848 33.369443 
L 97.950085 31.696095 
L 98.66169 30.472133 
L 99.373295 29.722688 
L 100.0849 29.459756 
L 100.440703 29.510786 
L 101.152308 29.970716 
L 102.219715 31.2828 
L 102.93132 32.48327 
L 103.642925 34.073462 
L 104.710333 37.136497 
L 105.77774 40.911561 
L 107.20095 46.794013 
L 109.691568 57.426015 
L 111.114778 62.240205 
L 112.537988 66.289446 
L 113.605396 68.761128 
L 114.672803 70.733038 
L 115.740211 72.213843 
L 116.807618 73.22803 
L 117.519223 73.662544 
L 118.230828 73.91881 
L 118.942433 74.011304 
L 120.009841 73.877097 
L 121.077249 73.46449 
L 122.144656 72.829852 
L 123.567866 71.734124 
L 126.058484 69.47275 
L 128.549101 67.261745 
L 130.328114 65.97877 
L 131.751324 65.238287 
L 132.818731 64.883087 
L 133.886139 64.710643 
L 134.953547 64.717131 
L 136.376757 64.96748 
L 138.511572 65.643157 
L 140.290584 66.120192 
L 141.357992 66.182448 
L 142.425399 65.958487 
L 143.137004 65.604705 
L 143.848609 65.05906 
L 144.560214 64.301423 
L 145.627622 62.735378 
L 146.69503 60.631693 
L 147.762437 57.996692 
L 149.185647 53.738085 
L 150.96466 47.5359 
L 151.676265 44.73174 
L 153.455277 37.386566 
L 154.522685 33.772399 
L 155.590092 30.983107 
L 156.301697 29.659655 
L 157.013302 28.808352 
L 157.724907 28.456307 
L 158.08071 28.473342 
L 158.792315 28.798026 
L 159.148118 29.065722 
L 159.859723 30.029315 
L 160.571328 31.572869 
L 161.282933 33.695139 
L 162.35034 37.925493 
L 163.417748 43.305425 
L 164.840958 51.939191 
L 166.975773 66.741475 
L 169.46639 83.795372 
L 170.889601 92.000934 
L 171.957008 96.969787 
L 173.380218 102.856367 
L 174.447626 107.241741 
L 175.515033 110.75357 
L 176.226638 112.572387 
L 176.938243 113.955596 
L 177.649848 114.895301 
L 178.361453 115.390693 
L 179.073058 115.448451 
L 179.784663 115.082963 
L 180.496268 114.316267 
L 181.207873 113.177729 
L 182.275281 110.853309 
L 183.342689 107.920038 
L 184.765899 103.349078 
L 189.391331 87.761456 
L 190.814541 83.801675 
L 192.237751 80.412042 
L 194.016764 76.798582 
L 197.218987 70.597726 
L 198.642197 67.28671 
L 200.065407 63.337659 
L 201.488617 58.690571 
L 203.267629 52.038185 
L 207.893062 33.991338 
L 209.316272 29.551734 
L 210.38368 26.89029 
L 211.451087 24.885671 
L 212.162692 23.935234 
L 212.874297 23.298841 
L 213.585902 22.974039 
L 214.297507 22.952652 
L 215.009112 23.221322 
L 215.364915 23.458992 
L 215.364915 23.458992 
" clip-path="url(#p29fc17d64a)" style="fill: none; stroke: #808080; stroke-opacity: 0.25; stroke-width: 1.5; stroke-linecap: square"/>
   </g>
   <g id="patch_3">
    <path d="M 28.942188 145.8 
L 28.942188 7.2 
" style="fill: none; stroke: #000000; stroke-width: 0.8; stroke-linejoin: miter; stroke-linecap: square"/>
   </g>
   <g id="patch_4">
    <path d="M 224.242188 145.8 
L 224.242188 7.2 
" style="fill: none; stroke: #000000; stroke-width: 0.8; stroke-linejoin: miter; stroke-linecap: square"/>
   </g>
   <g id="patch_5">
    <path d="M 28.942188 145.8 
L 224.242188 145.8 
" style="fill: none; stroke: #000000; stroke-width: 0.8; stroke-linejoin: miter; stroke-linecap: square"/>
   </g>
   <g id="patch_6">
    <path d="M 28.942188 7.2 
L 224.242188 7.2 
" style="fill: none; stroke: #000000; stroke-width: 0.8; stroke-linejoin: miter; stroke-linecap: square"/>
   </g>
  </g>
 </g>
 <defs>
  <clipPath id="p29fc17d64a">
   <rect x="28.942188" y="7.2" width="195.3" height="138.6"/>
  </clipPath>
 </defs>
</svg>
