<?xml version="1.0" encoding="utf-8" standalone="no"?>
<!DOCTYPE svg PUBLIC "-//W3C//DTD SVG 1.1//EN"
  "http://www.w3.org/Graphics/SVG/1.1/DTD/svg11.dtd">
<svg xmlns:xlink="http://www.w3.org/1999/xlink" width="245.692187pt" height="184.798125pt" viewBox="0 0 245.692187 184.798125" xmlns="http://www.w3.org/2000/svg" version="1.1">
 <metadata>
  <rdf:RDF xmlns:dc="http://purl.org/dc/elements/1.1/" xmlns:cc="http://creativecommons.org/ns#" xmlns:rdf="http://www.w3.org/1999/02/22-rdf-syntax-ns#">
   <cc:Work>
    <dc:type rdf:resource="http://purl.org/dc/dcmitype/StillImage"/>
    <dc:date>2022-12-10T17:08:45.815842</dc:date>
    <dc:format>image/svg+xml</dc:format>
    <dc:creator>
     <cc:Agent>
      <dc:title>Matplotlib v3.5.1, https://matplotlib.org/</dc:title>
     </cc:Agent>
    </dc:creator>
   </cc:Work>
  </rdf:RDF>
 </metadata>
 <defs>
  <style type="text/css">*{stroke-linejoin: round; stroke-linecap: butt}</style>
 </defs>
 <g id="figure_1">
  <g id="patch_1">
   <path d="M 0 184.798125 
L 245.692187 184.798125 
L 245.692187 0 
L 0 0 
z
" style="fill: #ffffff"/>
  </g>
  <g id="axes_1">
   <g id="patch_2">
    <path d="M 28.942188 160.92 
L 224.242188 160.92 
L 224.242188 22.32 
L 28.942188 22.32 
z
" style="fill: #ffffff"/>
   </g>
   <g id="PathCollection_1">
    <defs>
     <path id="m6ba6f87df5" d="M 0 3 
C 0.795609 3 1.55874 2.683901 2.12132 2.12132 
C 2.683901 1.55874 3 0.795609 3 0 
C 3 -0.795609 2.683901 -1.55874 2.12132 -2.12132 
C 1.55874 -2.683901 0.795609 -3 0 -3 
C -0.795609 -3 -1.55874 -2.683901 -2.12132 -2.12132 
C -2.683901 -1.55874 -3 -0.795609 -3 0 
C -3 0.795609 -2.683901 1.55874 -2.12132 2.12132 
C -1.55874 2.683901 -0.795609 3 0 3 
z
" style="stroke: #1f77b4"/>
    </defs>
    <g clip-path="url(#p6e11704b01)">
     <use xlink:href="#m6ba6f87df5" x="37.81946" y="86.577476" style="fill: #1f77b4; stroke: #1f77b4"/>
     <use xlink:href="#m6ba6f87df5" x="44.921278" y="55.687613" style="fill: #1f77b4; stroke: #1f77b4"/>
     <use xlink:href="#m6ba6f87df5" x="52.023097" y="74.115396" style="fill: #1f77b4; stroke: #1f77b4"/>
     <use xlink:href="#m6ba6f87df5" x="59.124915" y="94.105695" style="fill: #1f77b4; stroke: #1f77b4"/>
     <use xlink:href="#m6ba6f87df5" x="80.430369" y="96.251035" style="fill: #1f77b4; stroke: #1f77b4"/>
     <use xlink:href="#m6ba6f87df5" x="87.532187" y="92.177834" style="fill: #1f77b4; stroke: #1f77b4"/>
     <use xlink:href="#m6ba6f87df5" x="94.634006" y="71.700029" style="fill: #1f77b4; stroke: #1f77b4"/>
     <use xlink:href="#m6ba6f87df5" x="101.735824" y="63.387036" style="fill: #1f77b4; stroke: #1f77b4"/>
     <use xlink:href="#m6ba6f87df5" x="108.837642" y="79.807018" style="fill: #1f77b4; stroke: #1f77b4"/>
     <use xlink:href="#m6ba6f87df5" x="151.448551" y="73.88769" style="fill: #1f77b4; stroke: #1f77b4"/>
     <use xlink:href="#m6ba6f87df5" x="158.550369" y="61.993542" style="fill: #1f77b4; stroke: #1f77b4"/>
     <use xlink:href="#m6ba6f87df5" x="172.754006" y="111.650867" style="fill: #1f77b4; stroke: #1f77b4"/>
    </g>
   </g>
   <g id="PolyCollection_1">
    <path d="M 37.81946 86.577475 
L 37.81946 86.577478 
L 38.175263 84.787055 
L 38.531065 82.941603 
L 38.886868 81.054039 
L 39.24267 79.137774 
L 39.598473 77.206609 
L 39.954275 75.274624 
L 40.310078 73.356062 
L 40.66588 71.465211 
L 41.021683 69.616282 
L 41.377485 67.823286 
L 41.733288 66.099908 
L 42.08909 64.459384 
L 42.444893 62.914383 
L 42.800695 61.476886 
L 43.156498 60.158076 
L 43.5123 58.968231 
L 43.868103 57.916621 
L 44.223905 57.011425 
L 44.579708 56.259642 
L 44.935511 55.687558 
L 45.291313 55.76083 
L 45.647116 55.973289 
L 46.002918 56.318059 
L 46.358721 56.78768 
L 46.714523 57.374191 
L 47.070326 58.069209 
L 47.426128 58.864017 
L 47.781931 59.749648 
L 48.137733 60.716976 
L 48.493536 61.756794 
L 48.849338 62.859904 
L 49.205141 64.017197 
L 49.560943 65.219729 
L 49.916746 66.458795 
L 50.272548 67.725994 
L 50.628351 69.013297 
L 50.984153 70.313096 
L 51.339956 71.618256 
L 51.695758 72.922155 
L 52.051561 74.258327 
L 52.407363 76.042262 
L 52.763166 77.810975 
L 53.118968 79.549966 
L 53.474771 81.245127 
L 53.830573 82.882875 
L 54.186376 84.450266 
L 54.542178 85.935114 
L 54.897981 87.326087 
L 55.253783 88.612813 
L 55.609586 89.785956 
L 55.965388 90.837293 
L 56.321191 91.759783 
L 56.676993 92.547607 
L 57.032796 93.196218 
L 57.388599 93.702359 
L 57.744401 94.064083 
L 58.100204 94.28075 
L 58.456006 94.353018 
L 58.811809 94.282821 
L 59.167611 94.188453 
L 59.523414 94.865084 
L 59.879216 95.519492 
L 60.235019 96.15302 
L 60.590821 96.766847 
L 60.946624 97.361961 
L 61.302426 97.939144 
L 61.658229 98.498948 
L 62.014031 99.04169 
L 62.369834 99.567445 
L 62.725636 100.076045 
L 63.081439 100.567087 
L 63.437241 101.03994 
L 63.793044 101.493765 
L 64.148846 101.927529 
L 64.504649 102.340034 
L 64.860451 102.729939 
L 65.216254 103.095793 
L 65.572056 103.436069 
L 65.927859 103.749195 
L 66.283661 104.033594 
L 66.639464 104.287715 
L 66.995266 104.510077 
L 67.351069 104.699299 
L 67.706871 104.854141 
L 68.062674 104.973531 
L 68.418476 105.056602 
L 68.774279 105.102719 
L 69.130081 105.111501 
L 69.485884 105.082849 
L 69.841686 105.016955 
L 70.197489 104.914325 
L 70.553292 104.775778 
L 70.909094 104.602457 
L 71.264897 104.395822 
L 71.620699 104.157645 
L 71.976502 103.89 
L 72.332304 103.595243 
L 72.688107 103.275992 
L 73.043909 102.935101 
L 73.399712 102.575625 
L 73.755514 102.200793 
L 74.111317 101.813959 
L 74.467119 101.418569 
L 74.822922 101.018112 
L 75.178724 100.616075 
L 75.534527 100.215894 
L 75.890329 99.820906 
L 76.246132 99.434302 
L 76.601934 99.059075 
L 76.957737 98.697978 
L 77.313539 98.353475 
L 77.669342 98.027701 
L 78.025144 97.722425 
L 78.380947 97.43901 
L 78.736749 97.17839 
L 79.092552 96.941041 
L 79.448354 96.726963 
L 79.804157 96.535667 
L 80.159959 96.366168 
L 80.515762 96.419826 
L 80.871564 97.066445 
L 81.227367 97.619248 
L 81.583169 98.075632 
L 81.938972 98.433751 
L 82.294774 98.692506 
L 82.650577 98.851541 
L 83.00638 98.911222 
L 83.362182 98.872611 
L 83.717985 98.737439 
L 84.073787 98.508068 
L 84.42959 98.187452 
L 84.785392 97.779087 
L 85.141195 97.286969 
L 85.496997 96.715535 
L 85.8528 96.069607 
L 86.208602 95.354341 
L 86.564405 94.575163 
L 86.920207 93.737711 
L 87.27601 92.847778 
L 87.631812 92.021002 
L 87.987615 91.422481 
L 88.343417 90.763139 
L 88.69922 90.042462 
L 89.055022 89.260644 
L 89.410825 88.418611 
L 89.766627 87.51803 
L 90.12243 86.561314 
L 90.478232 85.551621 
L 90.834035 84.492831 
L 91.189837 83.389531 
L 91.54564 82.246974 
L 91.901442 81.07104 
L 92.257245 79.868187 
L 92.613047 78.645386 
L 92.96885 77.410061 
L 93.324652 76.170013 
L 93.680455 74.93334 
L 94.036257 73.708356 
L 94.39206 72.503503 
L 94.747862 71.431377 
L 95.103665 70.615513 
L 95.459468 69.836482 
L 95.81527 69.095448 
L 96.171073 68.393493 
L 96.526875 67.731653 
L 96.882678 67.11094 
L 97.23848 66.532373 
L 97.594283 65.997 
L 97.950085 65.505922 
L 98.305888 65.060308 
L 98.66169 64.661408 
L 99.017493 64.31057 
L 99.373295 64.009242 
L 99.729098 63.758974 
L 100.0849 63.561416 
L 100.440703 63.418316 
L 100.796505 63.331503 
L 101.152308 63.302878 
L 101.50811 63.334392 
L 101.863913 63.579162 
L 102.219715 64.16763 
L 102.575518 64.831561 
L 102.93132 65.563911 
L 103.287123 66.357036 
L 103.642925 67.202763 
L 103.998728 68.092474 
L 104.35453 69.017187 
L 104.710333 69.967648 
L 105.066135 70.934413 
L 105.421938 71.907945 
L 105.77774 72.878696 
L 106.133543 73.837202 
L 106.489345 74.774165 
L 106.845148 75.680538 
L 107.20095 76.547601 
L 107.556753 77.367039 
L 107.912556 78.131011 
L 108.268358 78.832207 
L 108.624161 79.463909 
L 108.979963 80.431214 
L 109.335766 82.03364 
L 109.691568 83.692875 
L 110.047371 85.404749 
L 110.403173 87.164773 
L 110.758976 88.96816 
L 111.114778 90.80986 
L 111.470581 92.684593 
L 111.826383 94.586883 
L 112.182186 96.511102 
L 112.537988 98.451501 
L 112.893791 100.402262 
L 113.249593 102.357531 
L 113.605396 104.311467 
L 113.961198 106.25828 
L 114.317001 108.192272 
L 114.672803 110.107881 
L 115.028606 111.999717 
L 115.384408 113.862598 
L 115.740211 115.691585 
L 116.096013 117.482015 
L 116.451816 119.229528 
L 116.807618 120.930092 
L 117.163421 122.580029 
L 117.519223 124.176027 
L 117.875026 125.715161 
L 118.230828 127.194901 
L 118.586631 128.613121 
L 118.942433 129.968099 
L 119.298236 131.258521 
L 119.654038 132.483476 
L 120.009841 133.642449 
L 120.365644 134.735308 
L 120.721446 135.762295 
L 121.077249 136.724005 
L 121.433051 137.62137 
L 121.788854 138.455634 
L 122.144656 139.228332 
L 122.500459 139.941263 
L 122.856261 140.596464 
L 123.212064 141.196178 
L 123.567866 141.742825 
L 123.923669 142.238977 
L 124.279471 142.687316 
L 124.635274 143.090614 
L 124.991076 143.451692 
L 125.346879 143.773397 
L 125.702681 144.058565 
L 126.058484 144.309995 
L 126.414286 144.530416 
L 126.770089 144.722465 
L 127.125891 144.888657 
L 127.481694 145.031357 
L 127.837496 145.152763 
L 128.193299 145.25488 
L 128.549101 145.339503 
L 128.904904 145.408196 
L 129.260706 145.462278 
L 129.616509 145.502813 
L 129.972311 145.530593 
L 130.328114 145.546132 
L 130.683916 145.549662 
L 131.039719 145.541123 
L 131.395521 145.520168 
L 131.751324 145.486159 
L 132.107126 145.438172 
L 132.462929 145.375001 
L 132.818731 145.295169 
L 133.174534 145.196934 
L 133.530337 145.078307 
L 133.886139 144.93706 
L 134.241942 144.770749 
L 134.597744 144.576728 
L 134.953547 144.352176 
L 135.309349 144.094113 
L 135.665152 143.79943 
L 136.020954 143.464913 
L 136.376757 143.087274 
L 136.732559 142.663176 
L 137.088362 142.189267 
L 137.444164 141.662212 
L 137.799967 141.078726 
L 138.155769 140.435606 
L 138.511572 139.729768 
L 138.867374 138.95828 
L 139.223177 138.118396 
L 139.578979 137.207593 
L 139.934782 136.223605 
L 140.290584 135.164456 
L 140.646387 134.02849 
L 141.002189 132.814408 
L 141.357992 131.521296 
L 141.713794 130.14865 
L 142.069597 128.696406 
L 142.425399 127.164964 
L 142.781202 125.555205 
L 143.137004 123.868513 
L 143.492807 122.106789 
L 143.848609 120.272462 
L 144.204412 118.368497 
L 144.560214 116.398398 
L 144.916017 114.366209 
L 145.271819 112.276512 
L 145.627622 110.134413 
L 145.983425 107.945531 
L 146.339227 105.715984 
L 146.69503 103.452362 
L 147.050832 101.161702 
L 147.406635 98.851461 
L 147.762437 96.529475 
L 148.11824 94.203922 
L 148.474042 91.883281 
L 148.829845 89.576284 
L 149.185647 87.291866 
L 149.54145 85.039111 
L 149.897252 82.827198 
L 150.253055 80.665343 
L 150.608857 78.562738 
L 150.96466 76.52849 
L 151.320462 74.571563 
L 151.676265 73.776371 
L 152.032067 73.543431 
L 152.38787 73.240671 
L 152.743672 72.871033 
L 153.099475 72.438025 
L 153.455277 71.945704 
L 153.81108 71.398664 
L 154.166882 70.802014 
L 154.522685 70.161356 
L 154.878487 69.48275 
L 155.23429 68.772685 
L 155.590092 68.038036 
L 155.945895 67.286027 
L 156.301697 66.524182 
L 156.6575 65.760274 
L 157.013302 65.00228 
L 157.369105 64.25832 
L 157.724907 63.536605 
L 158.08071 62.845375 
L 158.436513 62.192846 
L 158.792315 62.613393 
L 159.148118 63.636793 
L 159.50392 64.787681 
L 159.859723 66.059052 
L 160.215525 67.443226 
L 160.571328 68.931898 
L 160.92713 70.516186 
L 161.282933 72.186689 
L 161.638735 73.933547 
L 161.994538 75.746501 
L 162.35034 77.614961 
L 162.706143 79.528069 
L 163.061945 81.474772 
L 163.417748 83.44389 
L 163.77355 85.424183 
L 164.129353 87.404427 
L 164.485155 89.373478 
L 164.840958 91.320341 
L 165.19676 93.234237 
L 165.552563 95.104668 
L 165.908365 96.921475 
L 166.264168 98.674899 
L 166.61997 100.355636 
L 166.975773 101.954882 
L 167.331575 103.464387 
L 167.687378 104.876491 
L 168.04318 106.184164 
L 168.398983 107.381035 
L 168.754785 108.461421 
L 169.110588 109.42035 
L 169.46639 110.253571 
L 169.822193 110.957573 
L 170.177995 111.529583 
L 170.533798 111.967571 
L 170.889601 112.270244 
L 171.245403 112.437034 
L 171.601206 112.468088 
L 171.957008 112.364243 
L 172.312811 112.127008 
L 172.668613 111.758535 
L 173.024416 113.53248 
L 173.380218 115.980674 
L 173.736021 118.390738 
L 174.091823 120.75565 
L 174.447626 123.068751 
L 174.803428 125.323784 
L 175.159231 127.514914 
L 175.515033 129.636757 
L 175.870836 131.684398 
L 176.226638 133.653411 
L 176.582441 135.539866 
L 176.938243 137.340342 
L 177.294046 139.051931 
L 177.649848 140.672235 
L 178.005651 142.199373 
L 178.361453 143.631963 
L 178.717256 144.969125 
L 179.073058 146.210457 
L 179.428861 147.356031 
L 179.784663 148.406366 
L 180.140466 149.362412 
L 180.496268 150.225529 
L 180.852071 150.997457 
L 181.207873 151.680296 
L 181.563676 152.276474 
L 181.919478 152.78872 
L 182.275281 153.220035 
L 182.631083 153.57366 
L 182.986886 153.853047 
L 183.342689 154.061828 
L 183.698491 154.203781 
L 184.054294 154.282808 
L 184.410096 154.302895 
L 184.765899 154.268092 
L 185.121701 154.182478 
L 185.477504 154.05014 
L 185.833306 153.875144 
L 186.189109 153.661513 
L 186.544911 153.413202 
L 186.900714 153.134081 
L 187.256516 152.827914 
L 187.612319 152.498339 
L 187.968121 152.14886 
L 188.323924 151.782827 
L 188.679726 151.403426 
L 189.035529 151.013675 
L 189.391331 150.616407 
L 189.747134 150.214274 
L 190.102936 149.809736 
L 190.458739 149.405062 
L 190.814541 149.002329 
L 191.170344 148.603425 
L 191.526146 148.210048 
L 191.881949 147.823711 
L 192.237751 147.445748 
L 192.593554 147.077321 
L 192.949356 146.719425 
L 193.305159 146.372894 
L 193.660961 146.038416 
L 194.016764 145.716534 
L 194.372566 145.407662 
L 194.728369 145.112091 
L 195.084171 144.829999 
L 195.439974 144.561463 
L 195.795776 144.306465 
L 196.151579 144.064905 
L 196.507382 143.83661 
L 196.863184 143.621341 
L 197.218987 143.418803 
L 197.574789 143.228654 
L 197.930592 143.050509 
L 198.286394 142.883955 
L 198.642197 142.728548 
L 198.997999 142.583827 
L 199.353802 142.449315 
L 199.709604 142.324528 
L 200.065407 142.208977 
L 200.421209 142.102171 
L 200.777012 142.003625 
L 201.132814 141.912859 
L 201.488617 141.829403 
L 201.844419 141.752798 
L 202.200222 141.682599 
L 202.556024 141.618376 
L 202.911827 141.559717 
L 203.267629 141.506225 
L 203.623432 141.457523 
L 203.979234 141.41325 
L 204.335037 141.373067 
L 204.690839 141.336652 
L 205.046642 141.303702 
L 205.402444 141.273931 
L 205.758247 141.247073 
L 206.114049 141.222879 
L 206.469852 141.201117 
L 206.825654 141.181571 
L 207.181457 141.164041 
L 207.537259 141.14834 
L 207.893062 141.134299 
L 208.248864 141.12176 
L 208.604667 141.110578 
L 208.96047 141.10062 
L 209.316272 141.091765 
L 209.672075 141.083901 
L 210.027877 141.076927 
L 210.38368 141.070752 
L 210.739482 141.06529 
L 211.095285 141.060467 
L 211.451087 141.056213 
L 211.80689 141.052466 
L 212.162692 141.049171 
L 212.518495 141.046277 
L 212.874297 141.043738 
L 213.2301 141.041514 
L 213.585902 141.039569 
L 213.941705 141.037869 
L 214.297507 141.036387 
L 214.65331 141.035095 
L 215.009112 141.033971 
L 215.364915 141.032994 
L 215.364915 28.62 
L 215.364915 28.62 
L 215.009112 28.620977 
L 214.65331 28.622102 
L 214.297507 28.623394 
L 213.941705 28.624878 
L 213.585902 28.626578 
L 213.2301 28.628525 
L 212.874297 28.630751 
L 212.518495 28.633293 
L 212.162692 28.636191 
L 211.80689 28.639491 
L 211.451087 28.643243 
L 211.095285 28.647505 
L 210.739482 28.652339 
L 210.38368 28.657814 
L 210.027877 28.664007 
L 209.672075 28.671003 
L 209.316272 28.678896 
L 208.96047 28.687788 
L 208.604667 28.697793 
L 208.248864 28.709035 
L 207.893062 28.72165 
L 207.537259 28.735788 
L 207.181457 28.75161 
L 206.825654 28.769295 
L 206.469852 28.789036 
L 206.114049 28.811041 
L 205.758247 28.83554 
L 205.402444 28.862778 
L 205.046642 28.893023 
L 204.690839 28.926562 
L 204.335037 28.963705 
L 203.979234 29.004788 
L 203.623432 29.050168 
L 203.267629 29.100232 
L 202.911827 29.155392 
L 202.556024 29.216089 
L 202.200222 29.282795 
L 201.844419 29.356012 
L 201.488617 29.436277 
L 201.132814 29.524157 
L 200.777012 29.620257 
L 200.421209 29.725216 
L 200.065407 29.839713 
L 199.709604 29.964463 
L 199.353802 30.100221 
L 198.997999 30.247783 
L 198.642197 30.407987 
L 198.286394 30.58171 
L 197.930592 30.769876 
L 197.574789 30.973448 
L 197.218987 31.193437 
L 196.863184 31.430894 
L 196.507382 31.686916 
L 196.151579 31.962641 
L 195.795776 32.259253 
L 195.439974 32.577974 
L 195.084171 32.920069 
L 194.728369 33.286839 
L 194.372566 33.679624 
L 194.016764 34.099796 
L 193.660961 34.548755 
L 193.305159 35.027928 
L 192.949356 35.538764 
L 192.593554 36.082727 
L 192.237751 36.661288 
L 191.881949 37.275921 
L 191.526146 37.928094 
L 191.170344 38.61926 
L 190.814541 39.350846 
L 190.458739 40.124242 
L 190.102936 40.940793 
L 189.747134 41.801782 
L 189.391331 42.708419 
L 189.035529 43.661823 
L 188.679726 44.663015 
L 188.323924 45.712893 
L 187.968121 46.812221 
L 187.612319 47.961613 
L 187.256516 49.161513 
L 186.900714 50.412178 
L 186.544911 51.713665 
L 186.189109 53.06581 
L 185.833306 54.46821 
L 185.477504 55.920214 
L 185.121701 57.420901 
L 184.765899 58.969066 
L 184.410096 60.563213 
L 184.054294 62.201534 
L 183.698491 63.881909 
L 183.342689 65.601887 
L 182.986886 67.358688 
L 182.631083 69.149194 
L 182.275281 70.969948 
L 181.919478 72.817155 
L 181.563676 74.686684 
L 181.207873 76.574074 
L 180.852071 78.474544 
L 180.496268 80.383002 
L 180.140466 82.29406 
L 179.784663 84.202053 
L 179.428861 86.101058 
L 179.073058 87.984918 
L 178.717256 89.847267 
L 178.361453 91.681562 
L 178.005651 93.481109 
L 177.649848 95.239107 
L 177.294046 96.948674 
L 176.938243 98.602893 
L 176.582441 100.194853 
L 176.226638 101.717689 
L 175.870836 103.164626 
L 175.515033 104.529028 
L 175.159231 105.804441 
L 174.803428 106.98464 
L 174.447626 108.06368 
L 174.091823 109.035936 
L 173.736021 109.896155 
L 173.380218 110.639498 
L 173.024416 111.261585 
L 172.668613 111.053513 
L 172.312811 108.551421 
L 171.957008 106.034103 
L 171.601206 103.509668 
L 171.245403 100.986387 
L 170.889601 98.47264 
L 170.533798 95.976873 
L 170.177995 93.507539 
L 169.822193 91.073048 
L 169.46639 88.681712 
L 169.110588 86.341691 
L 168.754785 84.06094 
L 168.398983 81.847152 
L 168.04318 79.70771 
L 167.687378 77.649633 
L 167.331575 75.679527 
L 166.975773 73.80354 
L 166.61997 72.027317 
L 166.264168 70.35596 
L 165.908365 68.79399 
L 165.552563 67.345316 
L 165.19676 66.013203 
L 164.840958 64.800251 
L 164.485155 63.708372 
L 164.129353 62.73878 
L 163.77355 61.891978 
L 163.417748 61.167757 
L 163.061945 60.565192 
L 162.706143 60.082658 
L 162.35034 59.717832 
L 161.994538 59.46772 
L 161.638735 59.32867 
L 161.282933 59.296409 
L 160.92713 59.366068 
L 160.571328 59.532224 
L 160.215525 59.788936 
L 159.859723 60.129797 
L 159.50392 60.547973 
L 159.148118 61.036263 
L 158.792315 61.587148 
L 158.436513 61.72377 
L 158.08071 60.97346 
L 157.724907 60.367213 
L 157.369105 59.908967 
L 157.013302 59.601831 
L 156.6575 59.448067 
L 156.301697 59.449086 
L 155.945895 59.605444 
L 155.590092 59.916845 
L 155.23429 60.382158 
L 154.878487 60.999425 
L 154.522685 61.765892 
L 154.166882 62.678029 
L 153.81108 63.73157 
L 153.455277 64.921547 
L 153.099475 66.242333 
L 152.743672 67.687689 
L 152.38787 69.250817 
L 152.032067 70.924409 
L 151.676265 72.700708 
L 151.320462 73.937115 
L 150.96466 74.023858 
L 150.608857 74.035361 
L 150.253055 73.970943 
L 149.897252 73.830471 
L 149.54145 73.614338 
L 149.185647 73.323451 
L 148.829845 72.959202 
L 148.474042 72.523441 
L 148.11824 72.018449 
L 147.762437 71.446907 
L 147.406635 70.811856 
L 147.050832 70.116667 
L 146.69503 69.365002 
L 146.339227 68.560775 
L 145.983425 67.708114 
L 145.627622 66.811324 
L 145.271819 65.874846 
L 144.916017 64.903221 
L 144.560214 63.901052 
L 144.204412 62.872969 
L 143.848609 61.823595 
L 143.492807 60.757513 
L 143.137004 59.679238 
L 142.781202 58.593186 
L 142.425399 57.503651 
L 142.069597 56.41478 
L 141.713794 55.330555 
L 141.357992 54.254773 
L 141.002189 53.191035 
L 140.646387 52.142731 
L 140.290584 51.113031 
L 139.934782 50.104882 
L 139.578979 49.120999 
L 139.223177 48.163871 
L 138.867374 47.235757 
L 138.511572 46.338692 
L 138.155769 45.474495 
L 137.799967 44.644773 
L 137.444164 43.850934 
L 137.088362 43.094198 
L 136.732559 42.375612 
L 136.376757 41.696059 
L 136.020954 41.056279 
L 135.665152 40.456881 
L 135.309349 39.898361 
L 134.953547 39.381118 
L 134.597744 38.905472 
L 134.241942 38.47168 
L 133.886139 38.079949 
L 133.530337 37.730457 
L 133.174534 37.423362 
L 132.818731 37.15882 
L 132.462929 36.936992 
L 132.107126 36.75806 
L 131.751324 36.622234 
L 131.395521 36.529756 
L 131.039719 36.480912 
L 130.683916 36.47603 
L 130.328114 36.515483 
L 129.972311 36.599691 
L 129.616509 36.729114 
L 129.260706 36.904249 
L 128.904904 37.125623 
L 128.549101 37.393784 
L 128.193299 37.709288 
L 127.837496 38.072688 
L 127.481694 38.484516 
L 127.125891 38.94527 
L 126.770089 39.455391 
L 126.414286 40.01525 
L 126.058484 40.625119 
L 125.702681 41.285156 
L 125.346879 41.995381 
L 124.991076 42.755652 
L 124.635274 43.565645 
L 124.279471 44.42483 
L 123.923669 45.332449 
L 123.567866 46.287498 
L 123.212064 47.288707 
L 122.856261 48.33452 
L 122.500459 49.423082 
L 122.144656 50.552222 
L 121.788854 51.719448 
L 121.433051 52.921934 
L 121.077249 54.156516 
L 120.721446 55.419692 
L 120.365644 56.707623 
L 120.009841 58.01614 
L 119.654038 59.340754 
L 119.298236 60.676668 
L 118.942433 62.018798 
L 118.586631 63.361796 
L 118.230828 64.700074 
L 117.875026 66.027837 
L 117.519223 67.339118 
L 117.163421 68.627818 
L 116.807618 69.887743 
L 116.451816 71.112659 
L 116.096013 72.296331 
L 115.740211 73.432584 
L 115.384408 74.515347 
L 115.028606 75.538717 
L 114.672803 76.49701 
L 114.317001 77.384817 
L 113.961198 78.197065 
L 113.605396 78.92907 
L 113.249593 79.576593 
L 112.893791 80.135891 
L 112.537988 80.603768 
L 112.182186 80.977619 
L 111.826383 81.255476 
L 111.470581 81.436042 
L 111.114778 81.518725 
L 110.758976 81.503663 
L 110.403173 81.391744 
L 110.047371 81.184619 
L 109.691568 80.884709 
L 109.335766 80.495202 
L 108.979963 80.02004 
L 108.624161 78.889417 
L 108.268358 77.411707 
L 107.912556 76.001155 
L 107.556753 74.660442 
L 107.20095 73.391848 
L 106.845148 72.197251 
L 106.489345 71.078128 
L 106.133543 70.035561 
L 105.77774 69.07025 
L 105.421938 68.182527 
L 105.066135 67.372372 
L 104.710333 66.639439 
L 104.35453 65.983079 
L 103.998728 65.402367 
L 103.642925 64.896132 
L 103.287123 64.462992 
L 102.93132 64.10138 
L 102.575518 63.809582 
L 102.219715 63.585768 
L 101.863913 63.428026 
L 101.50811 63.07253 
L 101.152308 62.653371 
L 100.796505 62.326536 
L 100.440703 62.096036 
L 100.0849 61.965009 
L 99.729098 61.93569 
L 99.373295 62.009391 
L 99.017493 62.186493 
L 98.66169 62.466445 
L 98.305888 62.847778 
L 97.950085 63.328124 
L 97.594283 63.90425 
L 97.23848 64.572095 
L 96.882678 65.326824 
L 96.526875 66.162882 
L 96.171073 67.074061 
L 95.81527 68.053577 
L 95.459468 69.09414 
L 95.103665 70.188046 
L 94.747862 71.327259 
L 94.39206 72.282804 
L 94.036257 73.168382 
L 93.680455 74.08653 
L 93.324652 75.035472 
L 92.96885 76.013205 
L 92.613047 77.017479 
L 92.257245 78.045774 
L 91.901442 79.095283 
L 91.54564 80.1629 
L 91.189837 81.245207 
L 90.834035 82.338475 
L 90.478232 83.438662 
L 90.12243 84.54142 
L 89.766627 85.642106 
L 89.410825 86.735802 
L 89.055022 87.817336 
L 88.69922 88.88131 
L 88.343417 89.922134 
L 87.987615 90.934066 
L 87.631812 91.911253 
L 87.27601 92.559891 
L 86.920207 93.040979 
L 86.564405 93.466691 
L 86.208602 93.839996 
L 85.8528 94.164348 
L 85.496997 94.443624 
L 85.141195 94.682063 
L 84.785392 94.884191 
L 84.42959 95.054755 
L 84.073787 95.198649 
L 83.717985 95.320847 
L 83.362182 95.426327 
L 83.00638 95.520007 
L 82.650577 95.606676 
L 82.294774 95.690935 
L 81.938972 95.777138 
L 81.583169 95.869337 
L 81.227367 95.971238 
L 80.871564 96.086157 
L 80.515762 96.216987 
L 80.159959 95.682745 
L 79.804157 94.859297 
L 79.448354 93.954302 
L 79.092552 92.97328 
L 78.736749 91.922417 
L 78.380947 90.808533 
L 78.025144 89.639028 
L 77.669342 88.421842 
L 77.313539 87.16539 
L 76.957737 85.878504 
L 76.601934 84.570369 
L 76.246132 83.250448 
L 75.890329 81.928413 
L 75.534527 80.614063 
L 75.178724 79.31725 
L 74.822922 78.047797 
L 74.467119 76.815414 
L 74.111317 75.629619 
L 73.755514 74.499658 
L 73.399712 73.434421 
L 73.043909 72.442367 
L 72.688107 71.531447 
L 72.332304 70.709034 
L 71.976502 69.98185 
L 71.620699 69.355906 
L 71.264897 68.836439 
L 70.909094 68.427863 
L 70.553292 68.133717 
L 70.197489 67.956626 
L 69.841686 67.898265 
L 69.485884 67.959334 
L 69.130081 68.139539 
L 68.774279 68.437579 
L 68.418476 68.851144 
L 68.062674 69.376918 
L 67.706871 70.010597 
L 67.351069 70.746907 
L 66.995266 71.579635 
L 66.639464 72.501673 
L 66.283661 73.505057 
L 65.927859 74.581031 
L 65.572056 75.720103 
L 65.216254 76.91212 
L 64.860451 78.146343 
L 64.504649 79.411531 
L 64.148846 80.696035 
L 63.793044 81.987885 
L 63.437241 83.274897 
L 63.081439 84.544772 
L 62.725636 85.785202 
L 62.369834 86.983982 
L 62.014031 88.129115 
L 61.658229 89.208922 
L 61.302426 90.212152 
L 60.946624 91.12809 
L 60.590821 91.946654 
L 60.235019 92.658504 
L 59.879216 93.255127 
L 59.523414 93.728934 
L 59.167611 94.073336 
L 58.811809 93.488126 
L 58.456006 92.762535 
L 58.100204 92.010054 
L 57.744401 91.229044 
L 57.388599 90.4179 
L 57.032796 89.575099 
L 56.676993 88.69925 
L 56.321191 87.789145 
L 55.965388 86.843811 
L 55.609586 85.862562 
L 55.253783 84.845047 
L 54.897981 83.791298 
L 54.542178 82.701775 
L 54.186376 81.577408 
L 53.830573 80.419631 
L 53.474771 79.230418 
L 53.118968 78.012304 
L 52.763166 76.768406 
L 52.407363 75.502439 
L 52.051561 74.218717 
L 51.695758 72.473937 
L 51.339956 70.70399 
L 50.984153 68.963376 
L 50.628351 67.266844 
L 50.272548 65.628863 
L 49.916746 64.063487 
L 49.560943 62.584229 
L 49.205141 61.203928 
L 48.849338 59.934635 
L 48.493536 58.787497 
L 48.137733 57.772657 
L 47.781931 56.899158 
L 47.426128 56.174859 
L 47.070326 55.606366 
L 46.714523 55.198972 
L 46.358721 54.956607 
L 46.002918 54.881812 
L 45.647116 54.975713 
L 45.291313 55.238018 
L 44.935511 55.667024 
L 44.579708 55.759691 
L 44.223905 55.982718 
L 43.868103 56.361334 
L 43.5123 56.899381 
L 43.156498 57.599801 
L 42.800695 58.464588 
L 42.444893 59.494759 
L 42.08909 60.690326 
L 41.733288 62.05028 
L 41.377485 63.572585 
L 41.021683 65.254183 
L 40.66588 67.091003 
L 40.310078 69.077989 
L 39.954275 71.209124 
L 39.598473 73.477476 
L 39.24267 75.875247 
L 38.886868 78.393823 
L 38.531065 81.023845 
L 38.175263 83.755276 
L 37.81946 86.577475 
z
" clip-path="url(#p6e11704b01)" style="fill: #ff7f0e; fill-opacity: 0.25"/>
   </g>
   <g id="matplotlib.axis_1">
    <g id="xtick_1">
     <g id="line2d_1">
      <defs>
       <path id="mf6e0c29668" d="M 0 0 
L 0 3.5 
" style="stroke: #000000; stroke-width: 0.8"/>
      </defs>
      <g>
       <use xlink:href="#mf6e0c29668" x="37.81946" y="160.92" style="stroke: #000000; stroke-width: 0.8"/>
      </g>
     </g>
     <g id="text_1">
      <!-- 0 -->
      <g transform="translate(34.63821 175.518438)scale(0.1 -0.1)">
       <defs>
        <path id="DejaVuSans-30" d="M 2034 4250 
Q 1547 4250 1301 3770 
Q 1056 3291 1056 2328 
Q 1056 1369 1301 889 
Q 1547 409 2034 409 
Q 2525 409 2770 889 
Q 3016 1369 3016 2328 
Q 3016 3291 2770 3770 
Q 2525 4250 2034 4250 
z
M 2034 4750 
Q 2819 4750 3233 4129 
Q 3647 3509 3647 2328 
Q 3647 1150 3233 529 
Q 2819 -91 2034 -91 
Q 1250 -91 836 529 
Q 422 1150 422 2328 
Q 422 3509 836 4129 
Q 1250 4750 2034 4750 
z
" transform="scale(0.015625)"/>
       </defs>
       <use xlink:href="#DejaVuSans-30"/>
      </g>
     </g>
    </g>
    <g id="xtick_2">
     <g id="line2d_2">
      <g>
       <use xlink:href="#mf6e0c29668" x="73.328551" y="160.92" style="stroke: #000000; stroke-width: 0.8"/>
      </g>
     </g>
     <g id="text_2">
      <!-- 5 -->
      <g transform="translate(70.147301 175.518438)scale(0.1 -0.1)">
       <defs>
        <path id="DejaVuSans-35" d="M 691 4666 
L 3169 4666 
L 3169 4134 
L 1269 4134 
L 1269 2991 
Q 1406 3038 1543 3061 
Q 1681 3084 1819 3084 
Q 2600 3084 3056 2656 
Q 3513 2228 3513 1497 
Q 3513 744 3044 326 
Q 2575 -91 1722 -91 
Q 1428 -91 1123 -41 
Q 819 9 494 109 
L 494 744 
Q 775 591 1075 516 
Q 1375 441 1709 441 
Q 2250 441 2565 725 
Q 2881 1009 2881 1497 
Q 2881 1984 2565 2268 
Q 2250 2553 1709 2553 
Q 1456 2553 1204 2497 
Q 953 2441 691 2322 
L 691 4666 
z
" transform="scale(0.015625)"/>
       </defs>
       <use xlink:href="#DejaVuSans-35"/>
      </g>
     </g>
    </g>
    <g id="xtick_3">
     <g id="line2d_3">
      <g>
       <use xlink:href="#mf6e0c29668" x="108.837642" y="160.92" style="stroke: #000000; stroke-width: 0.8"/>
      </g>
     </g>
     <g id="text_3">
      <!-- 10 -->
      <g transform="translate(102.475142 175.518438)scale(0.1 -0.1)">
       <defs>
        <path id="DejaVuSans-31" d="M 794 531 
L 1825 531 
L 1825 4091 
L 703 3866 
L 703 4441 
L 1819 4666 
L 2450 4666 
L 2450 531 
L 3481 531 
L 3481 0 
L 794 0 
L 794 531 
z
" transform="scale(0.015625)"/>
       </defs>
       <use xlink:href="#DejaVuSans-31"/>
       <use xlink:href="#DejaVuSans-30" x="63.623047"/>
      </g>
     </g>
    </g>
    <g id="xtick_4">
     <g id="line2d_4">
      <g>
       <use xlink:href="#mf6e0c29668" x="144.346733" y="160.92" style="stroke: #000000; stroke-width: 0.8"/>
      </g>
     </g>
     <g id="text_4">
      <!-- 15 -->
      <g transform="translate(137.984233 175.518438)scale(0.1 -0.1)">
       <use xlink:href="#DejaVuSans-31"/>
       <use xlink:href="#DejaVuSans-35" x="63.623047"/>
      </g>
     </g>
    </g>
    <g id="xtick_5">
     <g id="line2d_5">
      <g>
       <use xlink:href="#mf6e0c29668" x="179.855824" y="160.92" style="stroke: #000000; stroke-width: 0.8"/>
      </g>
     </g>
     <g id="text_5">
      <!-- 20 -->
      <g transform="translate(173.493324 175.518438)scale(0.1 -0.1)">
       <defs>
        <path id="DejaVuSans-32" d="M 1228 531 
L 3431 531 
L 3431 0 
L 469 0 
L 469 531 
Q 828 903 1448 1529 
Q 2069 2156 2228 2338 
Q 2531 2678 2651 2914 
Q 2772 3150 2772 3378 
Q 2772 3750 2511 3984 
Q 2250 4219 1831 4219 
Q 1534 4219 1204 4116 
Q 875 4013 500 3803 
L 500 4441 
Q 881 4594 1212 4672 
Q 1544 4750 1819 4750 
Q 2544 4750 2975 4387 
Q 3406 4025 3406 3419 
Q 3406 3131 3298 2873 
Q 3191 2616 2906 2266 
Q 2828 2175 2409 1742 
Q 1991 1309 1228 531 
z
" transform="scale(0.015625)"/>
       </defs>
       <use xlink:href="#DejaVuSans-32"/>
       <use xlink:href="#DejaVuSans-30" x="63.623047"/>
      </g>
     </g>
    </g>
    <g id="xtick_6">
     <g id="line2d_6">
      <g>
       <use xlink:href="#mf6e0c29668" x="215.364915" y="160.92" style="stroke: #000000; stroke-width: 0.8"/>
      </g>
     </g>
     <g id="text_6">
      <!-- 25 -->
      <g transform="translate(209.002415 175.518438)scale(0.1 -0.1)">
       <use xlink:href="#DejaVuSans-32"/>
       <use xlink:href="#DejaVuSans-35" x="63.623047"/>
      </g>
     </g>
    </g>
   </g>
   <g id="matplotlib.axis_2">
    <g id="ytick_1">
     <g id="line2d_7">
      <defs>
       <path id="mc1875dd8b5" d="M 0 0 
L -3.5 0 
" style="stroke: #000000; stroke-width: 0.8"/>
      </defs>
      <g>
       <use xlink:href="#mc1875dd8b5" x="28.942188" y="141.026941" style="stroke: #000000; stroke-width: 0.8"/>
      </g>
     </g>
     <g id="text_7">
      <!-- −4 -->
      <g transform="translate(7.2 144.82616)scale(0.1 -0.1)">
       <defs>
        <path id="DejaVuSans-2212" d="M 678 2272 
L 4684 2272 
L 4684 1741 
L 678 1741 
L 678 2272 
z
" transform="scale(0.015625)"/>
        <path id="DejaVuSans-34" d="M 2419 4116 
L 825 1625 
L 2419 1625 
L 2419 4116 
z
M 2253 4666 
L 3047 4666 
L 3047 1625 
L 3713 1625 
L 3713 1100 
L 3047 1100 
L 3047 0 
L 2419 0 
L 2419 1100 
L 313 1100 
L 313 1709 
L 2253 4666 
z
" transform="scale(0.015625)"/>
       </defs>
       <use xlink:href="#DejaVuSans-2212"/>
       <use xlink:href="#DejaVuSans-34" x="83.789062"/>
      </g>
     </g>
    </g>
    <g id="ytick_2">
     <g id="line2d_8">
      <g>
       <use xlink:href="#mc1875dd8b5" x="28.942188" y="112.923692" style="stroke: #000000; stroke-width: 0.8"/>
      </g>
     </g>
     <g id="text_8">
      <!-- −2 -->
      <g transform="translate(7.2 116.722911)scale(0.1 -0.1)">
       <use xlink:href="#DejaVuSans-2212"/>
       <use xlink:href="#DejaVuSans-32" x="83.789062"/>
      </g>
     </g>
    </g>
    <g id="ytick_3">
     <g id="line2d_9">
      <g>
       <use xlink:href="#mc1875dd8b5" x="28.942188" y="84.820443" style="stroke: #000000; stroke-width: 0.8"/>
      </g>
     </g>
     <g id="text_9">
      <!-- 0 -->
      <g transform="translate(15.579688 88.619662)scale(0.1 -0.1)">
       <use xlink:href="#DejaVuSans-30"/>
      </g>
     </g>
    </g>
    <g id="ytick_4">
     <g id="line2d_10">
      <g>
       <use xlink:href="#mc1875dd8b5" x="28.942188" y="56.717195" style="stroke: #000000; stroke-width: 0.8"/>
      </g>
     </g>
     <g id="text_10">
      <!-- 2 -->
      <g transform="translate(15.579688 60.516413)scale(0.1 -0.1)">
       <use xlink:href="#DejaVuSans-32"/>
      </g>
     </g>
    </g>
    <g id="ytick_5">
     <g id="line2d_11">
      <g>
       <use xlink:href="#mc1875dd8b5" x="28.942188" y="28.613946" style="stroke: #000000; stroke-width: 0.8"/>
      </g>
     </g>
     <g id="text_11">
      <!-- 4 -->
      <g transform="translate(15.579688 32.413165)scale(0.1 -0.1)">
       <use xlink:href="#DejaVuSans-34"/>
      </g>
     </g>
    </g>
   </g>
   <g id="line2d_12">
    <path d="M 37.81946 86.577476 
L 39.954275 73.241874 
L 41.377485 65.697936 
L 42.444893 61.204571 
L 43.156498 58.878938 
L 43.868103 57.138977 
L 44.579708 56.009667 
L 44.935511 55.677291 
L 45.291313 55.499424 
L 45.647116 55.474501 
L 46.002918 55.599935 
L 46.358721 55.872144 
L 47.070326 56.837788 
L 47.781931 58.324403 
L 48.493536 60.272145 
L 49.560943 63.901979 
L 50.984153 69.638236 
L 54.186376 83.013837 
L 55.609586 87.824259 
L 56.676993 90.623429 
L 57.388599 92.06013 
L 58.100204 93.145402 
L 58.811809 93.885474 
L 59.523414 94.297009 
L 60.235019 94.405762 
L 60.946624 94.245026 
L 61.658229 93.853935 
L 62.725636 92.930624 
L 64.148846 91.311782 
L 66.639464 88.394694 
L 67.706871 87.432369 
L 68.774279 86.770149 
L 69.485884 86.521091 
L 70.197489 86.435475 
L 70.909094 86.51516 
L 71.620699 86.756775 
L 72.688107 87.40372 
L 73.755514 88.350226 
L 75.178724 89.966663 
L 79.804157 95.697482 
L 80.871564 96.576301 
L 81.938972 97.105444 
L 82.650577 97.229109 
L 83.362182 97.149469 
L 84.073787 96.853359 
L 84.785392 96.331639 
L 85.496997 95.57958 
L 86.564405 94.020927 
L 87.631812 91.966127 
L 88.69922 89.461886 
L 90.12243 85.551367 
L 92.613047 77.831433 
L 94.747862 71.379318 
L 96.171073 67.733777 
L 97.23848 65.552234 
L 98.305888 63.954043 
L 99.017493 63.248532 
L 99.729098 62.847332 
L 100.440703 62.757176 
L 101.152308 62.978125 
L 101.863913 63.503594 
L 102.575518 64.320571 
L 103.642925 66.049448 
L 104.710333 68.303543 
L 106.133543 71.936382 
L 108.624161 79.176663 
L 110.758976 85.235911 
L 112.182186 88.74436 
L 113.605396 91.620269 
L 114.672803 93.302446 
L 115.740211 94.562084 
L 116.807618 95.408918 
L 117.875026 95.871499 
L 118.942433 95.993448 
L 120.009841 95.829294 
L 121.077249 95.440261 
L 122.500459 94.682172 
L 127.481694 91.757936 
L 128.904904 91.266909 
L 130.328114 91.030808 
L 131.751324 91.054197 
L 133.174534 91.310148 
L 134.953547 91.866647 
L 138.155769 92.955051 
L 139.578979 93.164296 
L 140.646387 93.08561 
L 141.713794 92.739602 
L 142.781202 92.074196 
L 143.848609 91.048029 
L 144.916017 89.634715 
L 145.983425 87.826822 
L 147.406635 84.831659 
L 148.829845 81.267743 
L 151.320462 74.254339 
L 153.455277 68.433625 
L 154.878487 65.241088 
L 155.945895 63.445735 
L 156.6575 62.604171 
L 157.369105 62.083644 
L 158.08071 61.909418 
L 158.792315 62.10027 
L 159.50392 62.667827 
L 160.215525 63.616081 
L 160.92713 64.941127 
L 161.994538 67.60711 
L 163.061945 71.019982 
L 164.485155 76.540925 
L 166.264168 84.51543 
L 170.177995 102.518561 
L 171.601206 107.988878 
L 172.668613 111.406024 
L 173.736021 114.143447 
L 174.803428 116.154212 
L 175.515033 117.082892 
L 176.226638 117.68555 
L 176.938243 117.971618 
L 177.649848 117.955671 
L 178.361453 117.656762 
L 179.073058 117.097688 
L 179.784663 116.304209 
L 180.852071 114.736001 
L 182.275281 112.094991 
L 184.054294 108.242171 
L 188.323924 98.74786 
L 190.102936 95.375265 
L 191.526146 93.069071 
L 192.949356 91.129095 
L 194.372566 89.543643 
L 195.795776 88.282859 
L 197.218987 87.30612 
L 198.642197 86.568267 
L 200.421209 85.913694 
L 202.556024 85.417233 
L 205.046642 85.098362 
L 208.604667 84.904185 
L 215.009112 84.827474 
L 215.364915 84.826497 
L 215.364915 84.826497 
" clip-path="url(#p6e11704b01)" style="fill: none; stroke: #1f77b4; stroke-width: 2; stroke-linecap: square"/>
   </g>
   <g id="line2d_13">
    <path d="M 37.81946 86.577476 
L 40.310078 71.466978 
L 41.733288 64.336334 
L 42.800695 60.176113 
L 43.5123 58.079049 
L 44.223905 56.571031 
L 44.935511 55.678795 
L 45.291313 55.538011 
L 45.647116 55.548588 
L 46.002918 55.707155 
L 46.714523 56.45007 
L 47.426128 57.722013 
L 48.137733 59.466112 
L 49.205141 62.81952 
L 50.628351 68.265726 
L 55.253783 86.941706 
L 56.321191 89.979434 
L 57.388599 92.212919 
L 58.100204 93.243144 
L 58.811809 93.916917 
L 59.879216 94.465322 
L 60.590821 94.507074 
L 61.302426 94.292767 
L 62.014031 93.86091 
L 63.081439 92.901002 
L 64.860451 90.864438 
L 66.639464 88.914181 
L 67.706871 88.044636 
L 68.774279 87.514701 
L 69.485884 87.374984 
L 70.197489 87.411328 
L 70.909094 87.619061 
L 71.976502 88.223979 
L 73.043909 89.120492 
L 74.467119 90.618576 
L 78.025144 94.523173 
L 79.448354 95.682634 
L 80.871564 96.716218 
L 81.583169 97.308628 
L 82.294774 97.677549 
L 83.00638 97.796149 
L 83.717985 97.645131 
L 84.42959 97.213599 
L 85.141195 96.499419 
L 85.8528 95.509203 
L 86.920207 93.540861 
L 89.410825 87.98265 
L 90.834035 83.958366 
L 92.96885 77.081706 
L 94.747862 71.407702 
L 96.171073 68.098748 
L 97.23848 66.098027 
L 98.305888 64.571816 
L 99.017493 63.841526 
L 99.729098 63.355474 
L 100.440703 63.124474 
L 101.152308 63.157663 
L 101.50811 63.275627 
L 101.863913 63.545103 
L 102.575518 64.598999 
L 103.642925 66.668518 
L 105.066135 70.085266 
L 108.979963 80.322479 
L 112.893791 94.306341 
L 114.317001 98.431781 
L 115.384408 100.876682 
L 116.451816 102.658155 
L 117.163421 103.444303 
L 117.875026 103.895583 
L 118.586631 104.007907 
L 119.298236 103.784189 
L 120.009841 103.234444 
L 120.721446 102.37579 
L 121.788854 100.563337 
L 122.856261 98.221637 
L 124.279471 94.52309 
L 127.837496 84.974976 
L 128.904904 82.768036 
L 129.972311 81.138349 
L 130.683916 80.422623 
L 131.395521 80.024408 
L 132.107126 79.949631 
L 132.818731 80.193217 
L 133.530337 80.739133 
L 134.241942 81.560943 
L 135.309349 83.230009 
L 136.732559 86.020407 
L 139.578979 91.831097 
L 140.646387 93.487109 
L 141.357992 94.291895 
L 142.069597 94.810028 
L 142.781202 95.010277 
L 143.492807 94.87067 
L 144.204412 94.379111 
L 144.916017 93.53367 
L 145.627622 92.342682 
L 146.69503 89.950981 
L 147.762437 86.926523 
L 149.185647 82.162569 
L 151.676265 73.40588 
L 154.878487 66.76064 
L 156.301697 64.320803 
L 157.369105 62.934066 
L 158.08071 62.284091 
L 158.436513 62.053286 
L 158.792315 62.310444 
L 159.50392 63.555912 
L 160.215525 65.255405 
L 161.282933 68.593881 
L 162.35034 72.754425 
L 163.77355 79.256018 
L 168.398983 101.404214 
L 169.46639 105.32205 
L 170.533798 108.392627 
L 171.245403 109.913202 
L 171.957008 110.988116 
L 172.668613 111.60732 
L 173.380218 114.850359 
L 175.159231 123.077068 
L 176.582441 128.537864 
L 177.649848 131.913745 
L 178.717256 134.673835 
L 179.784663 136.849558 
L 180.852071 138.491369 
L 181.919478 139.659197 
L 182.986886 140.413423 
L 184.054294 140.807527 
L 185.121701 140.883189 
L 186.189109 140.668016 
L 187.256516 140.175683 
L 188.323924 139.407839 
L 189.391331 138.357008 
L 190.458739 137.009706 
L 191.526146 135.349289 
L 192.593554 133.358274 
L 194.016764 130.161076 
L 195.439974 126.316017 
L 196.863184 121.808675 
L 198.642197 115.265816 
L 200.421209 107.821669 
L 202.911827 96.332041 
L 207.893062 73.04832 
L 210.027877 64.141866 
L 212.162692 56.096585 
L 214.65331 47.642689 
L 215.364915 45.380847 
L 215.364915 45.380847 
" clip-path="url(#p6e11704b01)" style="fill: none; stroke: #808080; stroke-opacity: 0.25; stroke-width: 1.5; stroke-linecap: square"/>
   </g>
   <g id="line2d_14">
    <path d="M 37.81946 86.577477 
L 39.598473 77.099284 
L 41.733288 65.900136 
L 42.800695 61.294282 
L 43.868103 57.803757 
L 44.579708 56.219199 
L 44.935511 55.685808 
L 45.291313 55.714036 
L 45.647116 55.879604 
L 46.358721 56.599188 
L 47.070326 57.792796 
L 47.781931 59.402508 
L 48.849338 62.460392 
L 50.272548 67.396575 
L 52.051561 74.251047 
L 53.830573 82.362274 
L 54.897981 86.519747 
L 55.965388 89.859195 
L 56.676993 91.562069 
L 57.388599 92.824786 
L 58.100204 93.6491 
L 58.811809 94.053148 
L 59.167611 94.154572 
L 59.879216 94.829116 
L 60.590821 95.247661 
L 61.302426 95.42659 
L 62.014031 95.387777 
L 62.725636 95.157907 
L 63.793044 94.522917 
L 65.216254 93.316435 
L 68.062674 90.731845 
L 69.130081 90.023318 
L 70.197489 89.5731 
L 71.264897 89.418929 
L 72.332304 89.571356 
L 73.399712 90.015785 
L 74.467119 90.716017 
L 75.890329 91.952882 
L 80.515762 96.32777 
L 81.583169 97.066541 
L 82.294774 97.312278 
L 83.00638 97.34316 
L 83.717985 97.148632 
L 84.42959 96.722183 
L 85.141195 96.061364 
L 85.8528 95.167849 
L 86.920207 93.405012 
L 87.987615 91.187224 
L 89.410825 87.599099 
L 91.189837 82.332475 
L 95.103665 70.40091 
L 96.526875 66.94133 
L 97.594283 64.940985 
L 98.305888 63.943062 
L 99.017493 63.237486 
L 99.729098 62.83757 
L 100.440703 62.749951 
L 101.152308 62.974502 
L 101.863913 63.502729 
L 102.575518 64.314441 
L 103.642925 66.033974 
L 104.710333 68.27705 
L 106.133543 71.895293 
L 108.268358 78.095758 
L 110.047371 83.174005 
L 111.470581 86.616487 
L 112.537988 88.649388 
L 113.249593 89.681294 
L 113.961198 90.425518 
L 114.672803 90.865304 
L 115.384408 90.991817 
L 116.096013 90.804468 
L 116.807618 90.310829 
L 117.519223 89.526185 
L 118.586631 87.853586 
L 119.654038 85.674312 
L 121.077249 82.17843 
L 123.212064 76.228752 
L 126.770089 66.255511 
L 128.549101 61.868311 
L 129.972311 58.88973 
L 131.039719 57.077294 
L 132.107126 55.717866 
L 132.818731 55.104506 
L 133.530337 54.751595 
L 134.241942 54.677019 
L 134.953547 54.892717 
L 135.665152 55.403087 
L 136.376757 56.203745 
L 137.088362 57.280748 
L 138.155769 59.359849 
L 139.578979 62.800852 
L 143.492807 72.993855 
L 144.560214 75.10068 
L 145.627622 76.63989 
L 146.339227 77.309079 
L 147.050832 77.677863 
L 147.762437 77.744671 
L 148.474042 77.517429 
L 149.185647 77.012877 
L 149.897252 76.255591 
L 150.96466 74.71582 
L 151.320462 74.113576 
L 152.032067 71.661102 
L 153.455277 66.926396 
L 154.522685 64.173516 
L 155.23429 62.78971 
L 155.945895 61.806447 
L 156.6575 61.251639 
L 157.369105 61.146286 
L 158.08071 61.503024 
L 158.436513 61.856049 
L 158.792315 61.875562 
L 159.50392 61.73074 
L 160.215525 61.907375 
L 160.92713 62.426524 
L 161.638735 63.303719 
L 162.35034 64.548419 
L 163.061945 66.16354 
L 164.129353 69.269781 
L 165.19676 73.153555 
L 166.61997 79.392922 
L 168.398983 88.462841 
L 172.668613 111.242292 
L 173.024416 111.872993 
L 173.736021 112.211263 
L 174.447626 112.209639 
L 175.159231 111.894528 
L 175.870836 111.296913 
L 176.582441 110.450723 
L 177.649848 108.792521 
L 179.073058 106.034815 
L 180.852071 102.035874 
L 183.698491 95.006782 
L 186.544911 87.364387 
L 188.679726 81.021092 
L 191.170344 72.886379 
L 195.439974 58.655943 
L 196.863184 54.585003 
L 198.286394 51.200148 
L 199.353802 49.194366 
L 200.421209 47.667019 
L 201.488617 46.593287 
L 202.556024 45.904563 
L 203.623432 45.491415 
L 206.469852 44.616135 
L 207.537259 43.934771 
L 208.604667 42.870634 
L 209.672075 41.367758 
L 210.739482 39.433288 
L 212.162692 36.316755 
L 215.364915 28.871784 
L 215.364915 28.871784 
" clip-path="url(#p6e11704b01)" style="fill: none; stroke: #808080; stroke-opacity: 0.25; stroke-width: 1.5; stroke-linecap: square"/>
   </g>
   <g id="line2d_15">
    <path d="M 37.81946 86.577475 
L 40.66588 69.827065 
L 41.733288 64.563309 
L 42.800695 60.31289 
L 43.5123 58.156905 
L 44.223905 56.601217 
L 44.935511 55.679219 
L 45.291313 55.546362 
L 45.647116 55.559854 
L 46.002918 55.716483 
L 46.714523 56.442674 
L 47.426128 57.685219 
L 48.137733 59.394544 
L 49.205141 62.704749 
L 50.628351 68.15472 
L 54.542178 84.098927 
L 55.609586 87.473831 
L 56.676993 90.198366 
L 57.744401 92.275206 
L 58.811809 93.765776 
L 59.167611 94.112833 
L 59.879216 94.004495 
L 60.590821 93.486443 
L 61.302426 92.59729 
L 62.369834 90.683812 
L 63.793044 87.402171 
L 66.283661 81.38384 
L 67.351069 79.353385 
L 68.062674 78.335566 
L 68.774279 77.634396 
L 69.485884 77.275247 
L 70.197489 77.268908 
L 70.909094 77.611739 
L 71.620699 78.286545 
L 72.332304 79.264003 
L 73.399712 81.20885 
L 74.822922 84.431379 
L 78.380947 92.892803 
L 79.448354 94.860927 
L 80.159959 95.912181 
L 80.515762 96.285984 
L 81.938972 96.728935 
L 83.00638 96.782063 
L 83.717985 96.624227 
L 84.42959 96.279159 
L 85.141195 95.724587 
L 85.8528 94.944685 
L 86.920207 93.336062 
L 87.987615 91.147669 
L 89.410825 87.502256 
L 91.189837 82.26918 
L 95.103665 70.411815 
L 96.526875 67.008998 
L 97.594283 65.057389 
L 98.305888 64.083909 
L 99.017493 63.389375 
L 99.729098 62.982001 
L 100.440703 62.864758 
L 101.152308 63.035814 
L 101.863913 63.518143 
L 102.575518 64.426479 
L 103.642925 66.313887 
L 104.710333 68.721468 
L 106.489345 73.456631 
L 109.335766 81.527666 
L 116.096013 104.968488 
L 117.519223 108.815217 
L 118.586631 111.207289 
L 119.654038 113.114519 
L 120.721446 114.489051 
L 121.433051 115.088694 
L 122.144656 115.421986 
L 122.856261 115.478924 
L 123.567866 115.250694 
L 124.279471 114.73001 
L 124.991076 113.911759 
L 125.702681 112.793778 
L 126.770089 110.560077 
L 127.837496 107.685454 
L 129.260706 102.966646 
L 131.039719 96.017512 
L 134.597744 81.623155 
L 136.020954 76.938825 
L 137.088362 74.171972 
L 138.155769 72.131907 
L 138.867374 71.184534 
L 139.578979 70.556205 
L 140.290584 70.225248 
L 141.002189 70.160804 
L 141.713794 70.324796 
L 142.781202 70.903735 
L 144.204412 72.052956 
L 146.339227 73.858696 
L 147.406635 74.518995 
L 148.474042 74.88631 
L 149.185647 74.934026 
L 149.897252 74.807019 
L 150.608857 74.496181 
L 151.320462 73.997419 
L 151.676265 72.799351 
L 153.099475 66.729647 
L 154.166882 63.24256 
L 154.878487 61.541052 
L 155.590092 60.393473 
L 156.301697 59.831985 
L 156.6575 59.77684 
L 157.013302 59.873126 
L 157.369105 60.120269 
L 158.08071 61.059402 
L 158.436513 61.744835 
L 158.792315 61.632467 
L 159.50392 60.732051 
L 160.215525 60.123888 
L 160.92713 59.870711 
L 161.638735 60.029367 
L 162.35034 60.647903 
L 163.061945 61.762844 
L 163.77355 63.39672 
L 164.485155 65.556157 
L 165.552563 69.752441 
L 166.61997 74.991184 
L 168.04318 83.24085 
L 172.312811 109.449111 
L 172.668613 111.238689 
L 173.024416 111.884845 
L 174.447626 112.916421 
L 177.649848 115.08771 
L 180.140466 116.890229 
L 181.207873 117.376282 
L 181.919478 117.481171 
L 182.631083 117.34594 
L 183.342689 116.916443 
L 184.054294 116.143125 
L 184.765899 114.983882 
L 185.477504 113.406539 
L 186.189109 111.390931 
L 187.256516 107.535089 
L 188.323924 102.719852 
L 189.747134 95.008483 
L 191.526146 83.943956 
L 194.728369 63.706624 
L 196.151579 56.174843 
L 197.218987 51.609639 
L 198.286394 48.15895 
L 198.997999 46.531507 
L 199.709604 45.461889 
L 200.421209 44.952071 
L 200.777012 44.904079 
L 201.132814 44.99079 
L 201.844419 45.55367 
L 202.556024 46.603524 
L 203.267629 48.090965 
L 204.335037 51.007033 
L 205.758247 55.77965 
L 208.604667 65.731221 
L 209.672075 68.676374 
L 210.38368 70.184417 
L 211.095285 71.256535 
L 211.80689 71.847486 
L 212.162692 71.952876 
L 212.518495 71.928595 
L 212.874297 71.773871 
L 213.585902 71.075911 
L 214.297507 69.876392 
L 215.009112 68.211259 
L 215.364915 67.220153 
L 215.364915 67.220153 
" clip-path="url(#p6e11704b01)" style="fill: none; stroke: #808080; stroke-opacity: 0.25; stroke-width: 1.5; stroke-linecap: square"/>
   </g>
   <g id="line2d_16">
    <path d="M 37.81946 86.577475 
L 39.598473 74.842018 
L 41.021683 66.864233 
L 42.08909 62.095161 
L 42.800695 59.596262 
L 43.5123 57.683558 
L 44.223905 56.376467 
L 44.935511 55.674972 
L 45.291313 55.441387 
L 45.647116 55.365983 
L 46.002918 55.447006 
L 46.358721 55.681521 
L 47.070326 56.593565 
L 47.781931 58.056525 
L 48.493536 60.009143 
L 49.560943 63.690843 
L 50.984153 69.54606 
L 53.830573 81.54406 
L 55.253783 86.612275 
L 56.321191 89.688518 
L 57.388599 92.019004 
L 58.100204 93.130424 
L 58.811809 93.88481 
L 59.523414 94.302382 
L 60.235019 94.440914 
L 60.946624 94.339289 
L 61.658229 94.038575 
L 62.725636 93.307075 
L 64.504649 91.678325 
L 66.639464 89.700414 
L 68.062674 88.670142 
L 69.130081 88.134978 
L 70.197489 87.838102 
L 71.264897 87.800117 
L 72.332304 88.033978 
L 73.399712 88.544195 
L 74.467119 89.323471 
L 75.534527 90.34765 
L 76.957737 92.010661 
L 80.159959 95.976213 
L 80.871564 96.495496 
L 81.938972 96.838511 
L 82.650577 96.86388 
L 83.362182 96.720209 
L 84.073787 96.402004 
L 84.785392 95.903354 
L 85.8528 94.803388 
L 86.920207 93.263828 
L 87.631812 91.9453 
L 89.055022 88.240208 
L 91.189837 81.830631 
L 94.036257 73.307897 
L 96.882678 65.785836 
L 97.950085 63.894408 
L 98.66169 63.043091 
L 99.373295 62.541423 
L 100.0849 62.395959 
L 100.796505 62.602317 
L 101.50811 63.145692 
L 102.93132 64.526549 
L 103.642925 65.581159 
L 104.710333 67.661456 
L 105.77774 70.281064 
L 107.20095 74.444234 
L 109.335766 81.047574 
L 111.114778 85.072465 
L 112.537988 87.792418 
L 113.961198 90.110393 
L 116.096013 93.084196 
L 124.279471 103.686869 
L 125.702681 104.994351 
L 126.770089 105.666393 
L 127.837496 106.040252 
L 128.904904 106.110383 
L 129.972311 105.892878 
L 131.039719 105.420401 
L 132.462929 104.465996 
L 133.886139 103.230086 
L 135.665152 101.399527 
L 137.799967 98.869835 
L 139.934782 95.996737 
L 142.425399 92.230188 
L 144.916017 88.047252 
L 147.050832 84.043692 
L 148.829845 80.269866 
L 150.96466 75.127801 
L 152.032067 72.093107 
L 153.455277 68.145339 
L 154.522685 65.732805 
L 155.590092 63.890811 
L 156.301697 63.002637 
L 157.013302 62.390965 
L 157.724907 62.052828 
L 158.436513 61.980959 
L 158.792315 62.158642 
L 159.50392 62.984593 
L 160.215525 64.330376 
L 160.92713 66.196259 
L 161.994538 69.924463 
L 163.061945 74.634194 
L 164.485155 82.02987 
L 168.04318 101.220702 
L 169.110588 105.72159 
L 170.177995 109.103502 
L 170.889601 110.635667 
L 171.601206 111.544197 
L 171.957008 111.75795 
L 172.312811 111.810058 
L 172.668613 111.700916 
L 173.024416 113.362083 
L 175.870836 130.831294 
L 177.294046 138.493329 
L 178.717256 144.921978 
L 179.784663 148.759796 
L 180.852071 151.662812 
L 181.563676 153.055755 
L 182.275281 154.008773 
L 182.986886 154.524096 
L 183.698491 154.610055 
L 184.410096 154.280523 
L 185.121701 153.554373 
L 185.833306 152.454897 
L 186.544911 151.009272 
L 187.612319 148.259462 
L 188.679726 144.91536 
L 190.102936 139.753486 
L 192.949356 128.275073 
L 195.084171 120.049768 
L 196.507382 115.394918 
L 197.574789 112.547837 
L 198.642197 110.354729 
L 199.353802 109.284879 
L 200.065407 108.537868 
L 200.777012 108.112178 
L 201.488617 107.997883 
L 202.200222 108.176841 
L 202.911827 108.623242 
L 203.623432 109.304525 
L 204.690839 110.682216 
L 206.114049 112.954903 
L 208.96047 117.665409 
L 210.027877 119.092503 
L 211.095285 120.189638 
L 212.162692 120.903406 
L 212.874297 121.150924 
L 213.585902 121.210263 
L 214.297507 121.079156 
L 215.009112 120.756171 
L 215.364915 120.522225 
L 215.364915 120.522225 
" clip-path="url(#p6e11704b01)" style="fill: none; stroke: #808080; stroke-opacity: 0.25; stroke-width: 1.5; stroke-linecap: square"/>
   </g>
   <g id="line2d_17">
    <path d="M 37.81946 86.577473 
L 39.598473 75.065794 
L 41.021683 67.177174 
L 42.08909 62.39351 
L 43.156498 58.7833 
L 43.868103 57.091571 
L 44.579708 55.997752 
L 45.291313 55.490295 
L 45.647116 55.460141 
L 46.002918 55.583543 
L 46.358721 55.856529 
L 47.070326 56.830325 
L 47.781931 58.330279 
L 48.849338 61.423249 
L 49.916746 65.296223 
L 52.051561 74.239423 
L 54.186376 83.087747 
L 55.609586 87.921267 
L 56.676993 90.70934 
L 57.388599 92.12555 
L 58.100204 93.183698 
L 58.811809 93.895933 
L 59.523414 94.30701 
L 60.235019 94.419036 
L 60.946624 94.233507 
L 61.658229 93.77847 
L 62.369834 93.086812 
L 63.437241 91.687585 
L 64.860451 89.366291 
L 67.706871 84.53166 
L 68.774279 83.124428 
L 69.841686 82.150998 
L 70.553292 81.793831 
L 71.264897 81.694763 
L 71.976502 81.864979 
L 72.688107 82.305862 
L 73.399712 83.008516 
L 74.467119 84.508526 
L 75.534527 86.446209 
L 77.313539 90.23337 
L 79.092552 93.980152 
L 80.159959 95.848799 
L 80.515762 96.265593 
L 81.938972 96.381466 
L 83.00638 96.264791 
L 84.073787 95.902741 
L 85.141195 95.220721 
L 86.208602 94.145305 
L 87.27601 92.616638 
L 87.987615 91.029036 
L 89.766627 85.995984 
L 94.39206 72.321944 
L 96.882678 65.635789 
L 97.950085 63.702784 
L 98.66169 62.843063 
L 99.373295 62.352234 
L 100.0849 62.239016 
L 100.796505 62.49965 
L 101.50811 63.117926 
L 103.287123 64.801262 
L 103.998728 65.891635 
L 105.066135 68.043021 
L 106.133543 70.783126 
L 107.556753 75.232068 
L 108.979963 80.114602 
L 110.403173 82.853549 
L 111.826383 85.000622 
L 113.249593 86.704757 
L 116.807618 90.682899 
L 118.230828 92.717734 
L 120.009841 95.736647 
L 123.923669 102.679346 
L 124.991076 104.147112 
L 126.058484 105.274077 
L 127.125891 106.021894 
L 127.837496 106.306003 
L 128.549101 106.424963 
L 129.616509 106.319945 
L 130.683916 105.924732 
L 132.107126 105.060517 
L 133.886139 103.654155 
L 137.444164 100.479222 
L 139.578979 98.381401 
L 141.357992 96.308522 
L 142.781202 94.294946 
L 144.204412 91.875482 
L 145.627622 89.008971 
L 147.406635 84.823181 
L 149.54145 79.146137 
L 154.522685 65.499369 
L 155.590092 63.453455 
L 156.301697 62.485626 
L 157.013302 61.885081 
L 157.724907 61.686618 
L 158.436513 61.915964 
L 159.50392 62.242861 
L 160.215525 62.797752 
L 160.92713 63.674653 
L 161.638735 64.875276 
L 162.706143 67.276782 
L 163.77355 70.374086 
L 164.840958 74.118746 
L 166.264168 79.991898 
L 168.04318 88.407191 
L 172.668613 111.27614 
L 173.024416 111.979521 
L 173.736021 112.593735 
L 174.447626 112.863922 
L 175.159231 112.821295 
L 175.870836 112.503669 
L 176.582441 111.953544 
L 177.649848 110.791265 
L 179.073058 108.848515 
L 182.275281 104.307971 
L 183.698491 102.680988 
L 185.121701 101.439026 
L 186.189109 100.78803 
L 187.256516 100.398763 
L 188.323924 100.299401 
L 189.035529 100.413618 
L 189.747134 100.689124 
L 190.458739 101.142115 
L 191.170344 101.789064 
L 192.237751 103.155852 
L 193.305159 105.030397 
L 194.372566 107.422989 
L 195.439974 110.305793 
L 196.863184 114.780206 
L 201.488617 130.229066 
L 202.556024 132.930346 
L 203.623432 134.99162 
L 204.335037 135.973589 
L 205.046642 136.633146 
L 205.758247 136.976296 
L 206.469852 137.020322 
L 207.181457 136.792688 
L 207.893062 136.329328 
L 208.96047 135.286396 
L 210.38368 133.495979 
L 212.874297 130.294109 
L 213.941705 129.212529 
L 215.009112 128.406965 
L 215.364915 128.203268 
L 215.364915 128.203268 
" clip-path="url(#p6e11704b01)" style="fill: none; stroke: #808080; stroke-opacity: 0.25; stroke-width: 1.5; stroke-linecap: square"/>
   </g>
   <g id="patch_3">
    <path d="M 28.942188 160.92 
L 28.942188 22.32 
" style="fill: none; stroke: #000000; stroke-width: 0.8; stroke-linejoin: miter; stroke-linecap: square"/>
   </g>
   <g id="patch_4">
    <path d="M 224.242188 160.92 
L 224.242188 22.32 
" style="fill: none; stroke: #000000; stroke-width: 0.8; stroke-linejoin: miter; stroke-linecap: square"/>
   </g>
   <g id="patch_5">
    <path d="M 28.942188 160.92 
L 224.242188 160.92 
" style="fill: none; stroke: #000000; stroke-width: 0.8; stroke-linejoin: miter; stroke-linecap: square"/>
   </g>
   <g id="patch_6">
    <path d="M 28.942188 22.32 
L 224.242188 22.32 
" style="fill: none; stroke: #000000; stroke-width: 0.8; stroke-linejoin: miter; stroke-linecap: square"/>
   </g>
   <g id="text_12">
    <!-- Lengthscale $\ell$=2, Amplitude $a$=2.000 -->
    <g transform="translate(14.692188 16.32)scale(0.12 -0.12)">
     <defs>
      <path id="DejaVuSans-4c" d="M 628 4666 
L 1259 4666 
L 1259 531 
L 3531 531 
L 3531 0 
L 628 0 
L 628 4666 
z
" transform="scale(0.015625)"/>
      <path id="DejaVuSans-65" d="M 3597 1894 
L 3597 1613 
L 953 1613 
Q 991 1019 1311 708 
Q 1631 397 2203 397 
Q 2534 397 2845 478 
Q 3156 559 3463 722 
L 3463 178 
Q 3153 47 2828 -22 
Q 2503 -91 2169 -91 
Q 1331 -91 842 396 
Q 353 884 353 1716 
Q 353 2575 817 3079 
Q 1281 3584 2069 3584 
Q 2775 3584 3186 3129 
Q 3597 2675 3597 1894 
z
M 3022 2063 
Q 3016 2534 2758 2815 
Q 2500 3097 2075 3097 
Q 1594 3097 1305 2825 
Q 1016 2553 972 2059 
L 3022 2063 
z
" transform="scale(0.015625)"/>
      <path id="DejaVuSans-6e" d="M 3513 2113 
L 3513 0 
L 2938 0 
L 2938 2094 
Q 2938 2591 2744 2837 
Q 2550 3084 2163 3084 
Q 1697 3084 1428 2787 
Q 1159 2491 1159 1978 
L 1159 0 
L 581 0 
L 581 3500 
L 1159 3500 
L 1159 2956 
Q 1366 3272 1645 3428 
Q 1925 3584 2291 3584 
Q 2894 3584 3203 3211 
Q 3513 2838 3513 2113 
z
" transform="scale(0.015625)"/>
      <path id="DejaVuSans-67" d="M 2906 1791 
Q 2906 2416 2648 2759 
Q 2391 3103 1925 3103 
Q 1463 3103 1205 2759 
Q 947 2416 947 1791 
Q 947 1169 1205 825 
Q 1463 481 1925 481 
Q 2391 481 2648 825 
Q 2906 1169 2906 1791 
z
M 3481 434 
Q 3481 -459 3084 -895 
Q 2688 -1331 1869 -1331 
Q 1566 -1331 1297 -1286 
Q 1028 -1241 775 -1147 
L 775 -588 
Q 1028 -725 1275 -790 
Q 1522 -856 1778 -856 
Q 2344 -856 2625 -561 
Q 2906 -266 2906 331 
L 2906 616 
Q 2728 306 2450 153 
Q 2172 0 1784 0 
Q 1141 0 747 490 
Q 353 981 353 1791 
Q 353 2603 747 3093 
Q 1141 3584 1784 3584 
Q 2172 3584 2450 3431 
Q 2728 3278 2906 2969 
L 2906 3500 
L 3481 3500 
L 3481 434 
z
" transform="scale(0.015625)"/>
      <path id="DejaVuSans-74" d="M 1172 4494 
L 1172 3500 
L 2356 3500 
L 2356 3053 
L 1172 3053 
L 1172 1153 
Q 1172 725 1289 603 
Q 1406 481 1766 481 
L 2356 481 
L 2356 0 
L 1766 0 
Q 1100 0 847 248 
Q 594 497 594 1153 
L 594 3053 
L 172 3053 
L 172 3500 
L 594 3500 
L 594 4494 
L 1172 4494 
z
" transform="scale(0.015625)"/>
      <path id="DejaVuSans-68" d="M 3513 2113 
L 3513 0 
L 2938 0 
L 2938 2094 
Q 2938 2591 2744 2837 
Q 2550 3084 2163 3084 
Q 1697 3084 1428 2787 
Q 1159 2491 1159 1978 
L 1159 0 
L 581 0 
L 581 4863 
L 1159 4863 
L 1159 2956 
Q 1366 3272 1645 3428 
Q 1925 3584 2291 3584 
Q 2894 3584 3203 3211 
Q 3513 2838 3513 2113 
z
" transform="scale(0.015625)"/>
      <path id="DejaVuSans-73" d="M 2834 3397 
L 2834 2853 
Q 2591 2978 2328 3040 
Q 2066 3103 1784 3103 
Q 1356 3103 1142 2972 
Q 928 2841 928 2578 
Q 928 2378 1081 2264 
Q 1234 2150 1697 2047 
L 1894 2003 
Q 2506 1872 2764 1633 
Q 3022 1394 3022 966 
Q 3022 478 2636 193 
Q 2250 -91 1575 -91 
Q 1294 -91 989 -36 
Q 684 19 347 128 
L 347 722 
Q 666 556 975 473 
Q 1284 391 1588 391 
Q 1994 391 2212 530 
Q 2431 669 2431 922 
Q 2431 1156 2273 1281 
Q 2116 1406 1581 1522 
L 1381 1569 
Q 847 1681 609 1914 
Q 372 2147 372 2553 
Q 372 3047 722 3315 
Q 1072 3584 1716 3584 
Q 2034 3584 2315 3537 
Q 2597 3491 2834 3397 
z
" transform="scale(0.015625)"/>
      <path id="DejaVuSans-63" d="M 3122 3366 
L 3122 2828 
Q 2878 2963 2633 3030 
Q 2388 3097 2138 3097 
Q 1578 3097 1268 2742 
Q 959 2388 959 1747 
Q 959 1106 1268 751 
Q 1578 397 2138 397 
Q 2388 397 2633 464 
Q 2878 531 3122 666 
L 3122 134 
Q 2881 22 2623 -34 
Q 2366 -91 2075 -91 
Q 1284 -91 818 406 
Q 353 903 353 1747 
Q 353 2603 823 3093 
Q 1294 3584 2113 3584 
Q 2378 3584 2631 3529 
Q 2884 3475 3122 3366 
z
" transform="scale(0.015625)"/>
      <path id="DejaVuSans-61" d="M 2194 1759 
Q 1497 1759 1228 1600 
Q 959 1441 959 1056 
Q 959 750 1161 570 
Q 1363 391 1709 391 
Q 2188 391 2477 730 
Q 2766 1069 2766 1631 
L 2766 1759 
L 2194 1759 
z
M 3341 1997 
L 3341 0 
L 2766 0 
L 2766 531 
Q 2569 213 2275 61 
Q 1981 -91 1556 -91 
Q 1019 -91 701 211 
Q 384 513 384 1019 
Q 384 1609 779 1909 
Q 1175 2209 1959 2209 
L 2766 2209 
L 2766 2266 
Q 2766 2663 2505 2880 
Q 2244 3097 1772 3097 
Q 1472 3097 1187 3025 
Q 903 2953 641 2809 
L 641 3341 
Q 956 3463 1253 3523 
Q 1550 3584 1831 3584 
Q 2591 3584 2966 3190 
Q 3341 2797 3341 1997 
z
" transform="scale(0.015625)"/>
      <path id="DejaVuSans-6c" d="M 603 4863 
L 1178 4863 
L 1178 0 
L 603 0 
L 603 4863 
z
" transform="scale(0.015625)"/>
      <path id="DejaVuSans-20" transform="scale(0.015625)"/>
      <path id="DejaVuSans-Oblique-2113" d="M 950 838 
Q 1078 213 1350 213 
Q 1531 213 1766 572 
L 2181 572 
Q 1994 253 1775 88 
Q 1538 -91 1319 -91 
Q 831 -91 634 344 
L 400 0 
L -88 0 
Q 250 459 500 888 
Q 469 1131 469 1397 
Q 469 1872 566 2347 
Q 931 4131 1256 4497 
Q 1481 4750 1866 4750 
Q 2256 4750 2256 4209 
Q 2253 3966 2197 3675 
Q 1972 2484 950 838 
z
M 947 1656 
Q 1531 2744 1709 3613 
Q 1803 4072 1803 4191 
Q 1803 4406 1725 4406 
Q 1384 4134 1081 2516 
Q 997 2063 947 1656 
z
" transform="scale(0.015625)"/>
      <path id="DejaVuSans-3d" d="M 678 2906 
L 4684 2906 
L 4684 2381 
L 678 2381 
L 678 2906 
z
M 678 1631 
L 4684 1631 
L 4684 1100 
L 678 1100 
L 678 1631 
z
" transform="scale(0.015625)"/>
      <path id="DejaVuSans-2c" d="M 750 794 
L 1409 794 
L 1409 256 
L 897 -744 
L 494 -744 
L 750 256 
L 750 794 
z
" transform="scale(0.015625)"/>
      <path id="DejaVuSans-41" d="M 2188 4044 
L 1331 1722 
L 3047 1722 
L 2188 4044 
z
M 1831 4666 
L 2547 4666 
L 4325 0 
L 3669 0 
L 3244 1197 
L 1141 1197 
L 716 0 
L 50 0 
L 1831 4666 
z
" transform="scale(0.015625)"/>
      <path id="DejaVuSans-6d" d="M 3328 2828 
Q 3544 3216 3844 3400 
Q 4144 3584 4550 3584 
Q 5097 3584 5394 3201 
Q 5691 2819 5691 2113 
L 5691 0 
L 5113 0 
L 5113 2094 
Q 5113 2597 4934 2840 
Q 4756 3084 4391 3084 
Q 3944 3084 3684 2787 
Q 3425 2491 3425 1978 
L 3425 0 
L 2847 0 
L 2847 2094 
Q 2847 2600 2669 2842 
Q 2491 3084 2119 3084 
Q 1678 3084 1418 2786 
Q 1159 2488 1159 1978 
L 1159 0 
L 581 0 
L 581 3500 
L 1159 3500 
L 1159 2956 
Q 1356 3278 1631 3431 
Q 1906 3584 2284 3584 
Q 2666 3584 2933 3390 
Q 3200 3197 3328 2828 
z
" transform="scale(0.015625)"/>
      <path id="DejaVuSans-70" d="M 1159 525 
L 1159 -1331 
L 581 -1331 
L 581 3500 
L 1159 3500 
L 1159 2969 
Q 1341 3281 1617 3432 
Q 1894 3584 2278 3584 
Q 2916 3584 3314 3078 
Q 3713 2572 3713 1747 
Q 3713 922 3314 415 
Q 2916 -91 2278 -91 
Q 1894 -91 1617 61 
Q 1341 213 1159 525 
z
M 3116 1747 
Q 3116 2381 2855 2742 
Q 2594 3103 2138 3103 
Q 1681 3103 1420 2742 
Q 1159 2381 1159 1747 
Q 1159 1113 1420 752 
Q 1681 391 2138 391 
Q 2594 391 2855 752 
Q 3116 1113 3116 1747 
z
" transform="scale(0.015625)"/>
      <path id="DejaVuSans-69" d="M 603 3500 
L 1178 3500 
L 1178 0 
L 603 0 
L 603 3500 
z
M 603 4863 
L 1178 4863 
L 1178 4134 
L 603 4134 
L 603 4863 
z
" transform="scale(0.015625)"/>
      <path id="DejaVuSans-75" d="M 544 1381 
L 544 3500 
L 1119 3500 
L 1119 1403 
Q 1119 906 1312 657 
Q 1506 409 1894 409 
Q 2359 409 2629 706 
Q 2900 1003 2900 1516 
L 2900 3500 
L 3475 3500 
L 3475 0 
L 2900 0 
L 2900 538 
Q 2691 219 2414 64 
Q 2138 -91 1772 -91 
Q 1169 -91 856 284 
Q 544 659 544 1381 
z
M 1991 3584 
L 1991 3584 
z
" transform="scale(0.015625)"/>
      <path id="DejaVuSans-64" d="M 2906 2969 
L 2906 4863 
L 3481 4863 
L 3481 0 
L 2906 0 
L 2906 525 
Q 2725 213 2448 61 
Q 2172 -91 1784 -91 
Q 1150 -91 751 415 
Q 353 922 353 1747 
Q 353 2572 751 3078 
Q 1150 3584 1784 3584 
Q 2172 3584 2448 3432 
Q 2725 3281 2906 2969 
z
M 947 1747 
Q 947 1113 1208 752 
Q 1469 391 1925 391 
Q 2381 391 2643 752 
Q 2906 1113 2906 1747 
Q 2906 2381 2643 2742 
Q 2381 3103 1925 3103 
Q 1469 3103 1208 2742 
Q 947 2381 947 1747 
z
" transform="scale(0.015625)"/>
      <path id="DejaVuSans-Oblique-61" d="M 3438 1997 
L 3047 0 
L 2472 0 
L 2578 531 
Q 2325 219 2001 64 
Q 1678 -91 1281 -91 
Q 834 -91 548 182 
Q 263 456 263 884 
Q 263 1497 752 1853 
Q 1241 2209 2100 2209 
L 2900 2209 
L 2931 2363 
Q 2938 2388 2941 2417 
Q 2944 2447 2944 2509 
Q 2944 2788 2717 2942 
Q 2491 3097 2081 3097 
Q 1800 3097 1504 3025 
Q 1209 2953 897 2809 
L 997 3341 
Q 1322 3463 1633 3523 
Q 1944 3584 2234 3584 
Q 2853 3584 3176 3315 
Q 3500 3047 3500 2534 
Q 3500 2431 3484 2292 
Q 3469 2153 3438 1997 
z
M 2816 1759 
L 2241 1759 
Q 1534 1759 1195 1570 
Q 856 1381 856 984 
Q 856 709 1029 553 
Q 1203 397 1509 397 
Q 1978 397 2328 733 
Q 2678 1069 2791 1631 
L 2816 1759 
z
" transform="scale(0.015625)"/>
      <path id="DejaVuSans-2e" d="M 684 794 
L 1344 794 
L 1344 0 
L 684 0 
L 684 794 
z
" transform="scale(0.015625)"/>
     </defs>
     <use xlink:href="#DejaVuSans-4c" transform="translate(0 0.015625)"/>
     <use xlink:href="#DejaVuSans-65" transform="translate(55.712891 0.015625)"/>
     <use xlink:href="#DejaVuSans-6e" transform="translate(117.236328 0.015625)"/>
     <use xlink:href="#DejaVuSans-67" transform="translate(180.615234 0.015625)"/>
     <use xlink:href="#DejaVuSans-74" transform="translate(244.091797 0.015625)"/>
     <use xlink:href="#DejaVuSans-68" transform="translate(283.300781 0.015625)"/>
     <use xlink:href="#DejaVuSans-73" transform="translate(346.679688 0.015625)"/>
     <use xlink:href="#DejaVuSans-63" transform="translate(398.779297 0.015625)"/>
     <use xlink:href="#DejaVuSans-61" transform="translate(453.759766 0.015625)"/>
     <use xlink:href="#DejaVuSans-6c" transform="translate(515.039062 0.015625)"/>
     <use xlink:href="#DejaVuSans-65" transform="translate(542.822266 0.015625)"/>
     <use xlink:href="#DejaVuSans-20" transform="translate(604.345703 0.015625)"/>
     <use xlink:href="#DejaVuSans-Oblique-2113" transform="translate(636.132812 0.015625)"/>
     <use xlink:href="#DejaVuSans-3d" transform="translate(677.441406 0.015625)"/>
     <use xlink:href="#DejaVuSans-32" transform="translate(761.230469 0.015625)"/>
     <use xlink:href="#DejaVuSans-2c" transform="translate(824.853516 0.015625)"/>
     <use xlink:href="#DejaVuSans-20" transform="translate(856.640625 0.015625)"/>
     <use xlink:href="#DejaVuSans-41" transform="translate(888.427734 0.015625)"/>
     <use xlink:href="#DejaVuSans-6d" transform="translate(956.835938 0.015625)"/>
     <use xlink:href="#DejaVuSans-70" transform="translate(1054.248047 0.015625)"/>
     <use xlink:href="#DejaVuSans-6c" transform="translate(1117.724609 0.015625)"/>
     <use xlink:href="#DejaVuSans-69" transform="translate(1145.507812 0.015625)"/>
     <use xlink:href="#DejaVuSans-74" transform="translate(1173.291016 0.015625)"/>
     <use xlink:href="#DejaVuSans-75" transform="translate(1212.5 0.015625)"/>
     <use xlink:href="#DejaVuSans-64" transform="translate(1275.878906 0.015625)"/>
     <use xlink:href="#DejaVuSans-65" transform="translate(1339.355469 0.015625)"/>
     <use xlink:href="#DejaVuSans-20" transform="translate(1400.878906 0.015625)"/>
     <use xlink:href="#DejaVuSans-Oblique-61" transform="translate(1432.666016 0.015625)"/>
     <use xlink:href="#DejaVuSans-3d" transform="translate(1493.945312 0.015625)"/>
     <use xlink:href="#DejaVuSans-32" transform="translate(1577.734375 0.015625)"/>
     <use xlink:href="#DejaVuSans-2e" transform="translate(1641.357422 0.015625)"/>
     <use xlink:href="#DejaVuSans-30" transform="translate(1673.144531 0.015625)"/>
     <use xlink:href="#DejaVuSans-30" transform="translate(1736.767578 0.015625)"/>
     <use xlink:href="#DejaVuSans-30" transform="translate(1800.390625 0.015625)"/>
    </g>
   </g>
  </g>
 </g>
 <defs>
  <clipPath id="p6e11704b01">
   <rect x="28.942188" y="22.32" width="195.3" height="138.6"/>
  </clipPath>
 </defs>
</svg>
