<?xml version="1.0" encoding="utf-8" standalone="no"?>
<!DOCTYPE svg PUBLIC "-//W3C//DTD SVG 1.1//EN"
  "http://www.w3.org/Graphics/SVG/1.1/DTD/svg11.dtd">
<svg xmlns:xlink="http://www.w3.org/1999/xlink" width="231.442187pt" height="169.678125pt" viewBox="0 0 231.442187 169.678125" xmlns="http://www.w3.org/2000/svg" version="1.1">
 <metadata>
  <rdf:RDF xmlns:dc="http://purl.org/dc/elements/1.1/" xmlns:cc="http://creativecommons.org/ns#" xmlns:rdf="http://www.w3.org/1999/02/22-rdf-syntax-ns#">
   <cc:Work>
    <dc:type rdf:resource="http://purl.org/dc/dcmitype/StillImage"/>
    <dc:date>2022-12-10T17:08:26.948301</dc:date>
    <dc:format>image/svg+xml</dc:format>
    <dc:creator>
     <cc:Agent>
      <dc:title>Matplotlib v3.5.1, https://matplotlib.org/</dc:title>
     </cc:Agent>
    </dc:creator>
   </cc:Work>
  </rdf:RDF>
 </metadata>
 <defs>
  <style type="text/css">*{stroke-linejoin: round; stroke-linecap: butt}</style>
 </defs>
 <g id="figure_1">
  <g id="patch_1">
   <path d="M 0 169.678125 
L 231.442187 169.678125 
L 231.442187 0 
L 0 0 
z
" style="fill: #ffffff"/>
  </g>
  <g id="axes_1">
   <g id="patch_2">
    <path d="M 28.942188 145.8 
L 224.242188 145.8 
L 224.242188 7.2 
L 28.942188 7.2 
z
" style="fill: #ffffff"/>
   </g>
   <g id="PathCollection_1">
    <defs>
     <path id="m81ca57b8bd" d="M 0 3 
C 0.795609 3 1.55874 2.683901 2.12132 2.12132 
C 2.683901 1.55874 3 0.795609 3 0 
C 3 -0.795609 2.683901 -1.55874 2.12132 -2.12132 
C 1.55874 -2.683901 0.795609 -3 0 -3 
C -0.795609 -3 -1.55874 -2.683901 -2.12132 -2.12132 
C -2.683901 -1.55874 -3 -0.795609 -3 0 
C -3 0.795609 -2.683901 1.55874 -2.12132 2.12132 
C -1.55874 2.683901 -0.795609 3 0 3 
z
" style="stroke: #1f77b4"/>
    </defs>
    <g clip-path="url(#pcf22c1d13c)">
     <use xlink:href="#m81ca57b8bd" x="37.81946" y="64.355677" style="fill: #1f77b4; stroke: #1f77b4"/>
     <use xlink:href="#m81ca57b8bd" x="44.921278" y="14.250236" style="fill: #1f77b4; stroke: #1f77b4"/>
     <use xlink:href="#m81ca57b8bd" x="52.023097" y="44.141342" style="fill: #1f77b4; stroke: #1f77b4"/>
     <use xlink:href="#m81ca57b8bd" x="59.124915" y="76.566955" style="fill: #1f77b4; stroke: #1f77b4"/>
     <use xlink:href="#m81ca57b8bd" x="80.430369" y="80.046841" style="fill: #1f77b4; stroke: #1f77b4"/>
     <use xlink:href="#m81ca57b8bd" x="87.532187" y="73.439835" style="fill: #1f77b4; stroke: #1f77b4"/>
     <use xlink:href="#m81ca57b8bd" x="94.634006" y="40.223454" style="fill: #1f77b4; stroke: #1f77b4"/>
     <use xlink:href="#m81ca57b8bd" x="101.735824" y="26.739219" style="fill: #1f77b4; stroke: #1f77b4"/>
     <use xlink:href="#m81ca57b8bd" x="108.837642" y="53.373537" style="fill: #1f77b4; stroke: #1f77b4"/>
     <use xlink:href="#m81ca57b8bd" x="151.448551" y="43.771988" style="fill: #1f77b4; stroke: #1f77b4"/>
     <use xlink:href="#m81ca57b8bd" x="158.550369" y="24.478878" style="fill: #1f77b4; stroke: #1f77b4"/>
     <use xlink:href="#m81ca57b8bd" x="172.754006" y="105.026407" style="fill: #1f77b4; stroke: #1f77b4"/>
    </g>
   </g>
   <g id="PolyCollection_1">
    <path d="M 37.81946 64.351116 
L 37.81946 64.360233 
L 38.175263 61.03311 
L 38.531065 57.680372 
L 38.886868 54.317533 
L 39.24267 50.964974 
L 39.598473 47.643278 
L 39.954275 44.373066 
L 40.310078 41.174827 
L 40.66588 38.068756 
L 41.021683 35.07458 
L 41.377485 32.211394 
L 41.733288 29.497498 
L 42.08909 26.950234 
L 42.444893 24.585841 
L 42.800695 22.419303 
L 43.156498 20.46422 
L 43.5123 18.732684 
L 43.868103 17.235165 
L 44.223905 15.980421 
L 44.579708 14.975424 
L 44.935511 14.24299 
L 45.291313 14.157041 
L 45.647116 14.309116 
L 46.002918 14.690459 
L 46.358721 15.292103 
L 46.714523 16.103903 
L 47.070326 17.114632 
L 47.426128 18.312088 
L 47.781931 19.683218 
L 48.137733 21.214239 
L 48.493536 22.890764 
L 48.849338 24.697937 
L 49.205141 26.620562 
L 49.560943 28.643239 
L 49.916746 30.750489 
L 50.272548 32.926889 
L 50.628351 35.157189 
L 50.984153 37.426436 
L 51.339956 39.720087 
L 51.695758 42.024118 
L 52.051561 44.357756 
L 52.407363 47.047987 
L 52.763166 49.713064 
L 53.118968 52.333047 
L 53.474771 54.889258 
L 53.830573 57.363904 
L 54.186376 59.740212 
L 54.542178 62.002552 
L 54.897981 64.136561 
L 55.253783 66.12924 
L 55.609586 67.969047 
L 55.965388 69.645965 
L 56.321191 71.151569 
L 56.676993 72.479061 
L 57.032796 73.623301 
L 57.388599 74.580818 
L 57.744401 75.349807 
L 58.100204 75.930108 
L 58.456006 76.323175 
L 58.811809 76.532033 
L 59.167611 76.654738 
L 59.523414 77.338034 
L 59.879216 77.942008 
L 60.235019 78.470783 
L 60.590821 78.928866 
L 60.946624 79.32091 
L 61.302426 79.651654 
L 61.658229 79.925858 
L 62.014031 80.148251 
L 62.369834 80.323488 
L 62.725636 80.456101 
L 63.081439 80.550462 
L 63.437241 80.610757 
L 63.793044 80.640954 
L 64.148846 80.644783 
L 64.504649 80.625728 
L 64.860451 80.587012 
L 65.216254 80.531595 
L 65.572056 80.462175 
L 65.927859 80.381196 
L 66.283661 80.290855 
L 66.639464 80.193117 
L 66.995266 80.08973 
L 67.351069 79.982243 
L 67.706871 79.87203 
L 68.062674 79.760307 
L 68.418476 79.648157 
L 68.774279 79.536553 
L 69.130081 79.426377 
L 69.485884 79.318443 
L 69.841686 79.213515 
L 70.197489 79.112327 
L 70.553292 79.015591 
L 70.909094 78.924018 
L 71.264897 78.83832 
L 71.620699 78.759218 
L 71.976502 78.687445 
L 72.332304 78.623743 
L 72.688107 78.568861 
L 73.043909 78.523542 
L 73.399712 78.488516 
L 73.755514 78.464485 
L 74.111317 78.4521 
L 74.467119 78.451948 
L 74.822922 78.464524 
L 75.178724 78.490209 
L 75.534527 78.529247 
L 75.890329 78.581716 
L 76.246132 78.647499 
L 76.601934 78.726267 
L 76.957737 78.817445 
L 77.313539 78.920193 
L 77.669342 79.033386 
L 78.025144 79.155591 
L 78.380947 79.285057 
L 78.736749 79.419699 
L 79.092552 79.557096 
L 79.448354 79.694482 
L 79.804157 79.828757 
L 80.159959 79.956496 
L 80.515762 80.2385 
L 80.871564 80.971991 
L 81.227367 81.597892 
L 81.583169 82.11178 
L 81.938972 82.510059 
L 82.294774 82.789891 
L 82.650577 82.949196 
L 83.00638 82.986655 
L 83.362182 82.901695 
L 83.717985 82.694478 
L 84.073787 82.365884 
L 84.42959 81.917486 
L 84.785392 81.351525 
L 85.141195 80.670874 
L 85.496997 79.879005 
L 85.8528 78.979953 
L 86.208602 77.978269 
L 86.564405 76.878985 
L 86.920207 75.687562 
L 87.27601 74.409877 
L 87.631812 73.141167 
L 87.987615 72.01659 
L 88.343417 70.80409 
L 88.69922 69.505269 
L 89.055022 68.122685 
L 89.410825 66.659726 
L 89.766627 65.120609 
L 90.12243 63.510369 
L 90.478232 61.834838 
L 90.834035 60.100623 
L 91.189837 58.315064 
L 91.54564 56.486192 
L 91.901442 54.622674 
L 92.257245 52.73375 
L 92.613047 50.829162 
L 92.96885 48.919079 
L 93.324652 47.014015 
L 93.680455 45.124736 
L 94.036257 43.262174 
L 94.39206 41.437362 
L 94.747862 39.745706 
L 95.103665 38.291011 
L 95.459468 36.899658 
L 95.81527 35.576176 
L 96.171073 34.324997 
L 96.526875 33.150333 
L 96.882678 32.056166 
L 97.23848 31.046253 
L 97.594283 30.124123 
L 97.950085 29.293072 
L 98.305888 28.55617 
L 98.66169 27.916252 
L 99.017493 27.375915 
L 99.373295 26.937517 
L 99.729098 26.603167 
L 100.0849 26.37472 
L 100.440703 26.253768 
L 100.796505 26.241634 
L 101.152308 26.339361 
L 101.50811 26.547733 
L 101.863913 26.989745 
L 102.219715 27.769488 
L 102.575518 28.667934 
L 102.93132 29.677197 
L 103.287123 30.788709 
L 103.642925 31.993222 
L 103.998728 33.280884 
L 104.35453 34.641332 
L 104.710333 36.06378 
L 105.066135 37.537115 
L 105.421938 39.049996 
L 105.77774 40.59095 
L 106.133543 42.14847 
L 106.489345 43.711111 
L 106.845148 45.267582 
L 107.20095 46.806838 
L 107.556753 48.318164 
L 107.912556 49.791257 
L 108.268358 51.216306 
L 108.624161 52.584067 
L 108.979963 54.219352 
L 109.335766 56.361425 
L 109.691568 58.537912 
L 110.047371 60.742109 
L 110.403173 62.967258 
L 110.758976 65.206554 
L 111.114778 67.453183 
L 111.470581 69.70036 
L 111.826383 71.94137 
L 112.182186 74.169603 
L 112.537988 76.378594 
L 112.893791 78.56206 
L 113.249593 80.71394 
L 113.605396 82.82842 
L 113.961198 84.899975 
L 114.317001 86.923394 
L 114.672803 88.893809 
L 115.028606 90.806719 
L 115.384408 92.658013 
L 115.740211 94.443989 
L 116.096013 96.161368 
L 116.451816 97.807306 
L 116.807618 99.379405 
L 117.163421 100.875715 
L 117.519223 102.294738 
L 117.875026 103.635426 
L 118.230828 104.897174 
L 118.586631 106.079815 
L 118.942433 107.183606 
L 119.298236 108.209213 
L 119.654038 109.157697 
L 120.009841 110.030493 
L 120.365644 110.829386 
L 120.721446 111.556489 
L 121.077249 112.214219 
L 121.433051 112.805264 
L 121.788854 113.33256 
L 122.144656 113.799257 
L 122.500459 114.208688 
L 122.856261 114.564343 
L 123.212064 114.86983 
L 123.567866 115.128848 
L 123.923669 115.345152 
L 124.279471 115.522525 
L 124.635274 115.664743 
L 124.991076 115.775547 
L 125.346879 115.858615 
L 125.702681 115.917528 
L 126.058484 115.955748 
L 126.414286 115.97659 
L 126.770089 115.983195 
L 127.125891 115.978512 
L 127.481694 115.965271 
L 127.837496 115.945964 
L 128.193299 115.922831 
L 128.549101 115.897836 
L 128.904904 115.872661 
L 129.260706 115.848684 
L 129.616509 115.826976 
L 129.972311 115.808289 
L 130.328114 115.793045 
L 130.683916 115.78134 
L 131.039719 115.772933 
L 131.395521 115.767247 
L 131.751324 115.763375 
L 132.107126 115.760075 
L 132.462929 115.755785 
L 132.818731 115.748619 
L 133.174534 115.736389 
L 133.530337 115.716605 
L 133.886139 115.686496 
L 134.241942 115.643023 
L 134.597744 115.582897 
L 134.953547 115.5026 
L 135.309349 115.398404 
L 135.665152 115.266397 
L 136.020954 115.102507 
L 136.376757 114.902531 
L 136.732559 114.662164 
L 137.088362 114.377029 
L 137.444164 114.042709 
L 137.799967 113.654784 
L 138.155769 113.208863 
L 138.511572 112.700622 
L 138.867374 112.125842 
L 139.223177 111.480446 
L 139.578979 110.76054 
L 139.934782 109.96245 
L 140.290584 109.082763 
L 140.646387 108.118363 
L 141.002189 107.066477 
L 141.357992 105.924704 
L 141.713794 104.691058 
L 142.069597 103.364002 
L 142.425399 101.942481 
L 142.781202 100.425952 
L 143.137004 98.814419 
L 143.492807 97.108452 
L 143.848609 95.309214 
L 144.204412 93.418483 
L 144.560214 91.438663 
L 144.916017 89.3728 
L 145.271819 87.224588 
L 145.627622 84.998373 
L 145.983425 82.699151 
L 146.339227 80.332563 
L 146.69503 77.90488 
L 147.050832 75.42299 
L 147.406635 72.894376 
L 147.762437 70.327086 
L 148.11824 67.729703 
L 148.474042 65.111309 
L 148.829845 62.48144 
L 149.185647 59.850039 
L 149.54145 57.227409 
L 149.897252 54.624152 
L 150.253055 52.051111 
L 150.608857 49.519309 
L 150.96466 47.039884 
L 151.320462 44.624037 
L 151.676265 43.155244 
L 152.032067 42.151527 
L 152.38787 41.104531 
L 152.743672 40.020972 
L 153.099475 38.908079 
L 153.455277 37.773544 
L 153.81108 36.625486 
L 154.166882 35.472403 
L 154.522685 34.323123 
L 154.878487 33.18675 
L 155.23429 32.072607 
L 155.590092 30.990178 
L 155.945895 29.949043 
L 156.301697 28.958814 
L 156.6575 28.029069 
L 157.013302 27.169286 
L 157.369105 26.388771 
L 157.724907 25.696596 
L 158.08071 25.101529 
L 158.436513 24.612 
L 158.792315 25.068186 
L 159.148118 26.089795 
L 159.50392 27.291895 
L 159.859723 28.669003 
L 160.215525 30.214695 
L 160.571328 31.921638 
L 160.92713 33.781625 
L 161.282933 35.785628 
L 161.638735 37.923851 
L 161.994538 40.185788 
L 162.35034 42.560289 
L 162.706143 45.035624 
L 163.061945 47.599562 
L 163.417748 50.239443 
L 163.77355 52.942255 
L 164.129353 55.694714 
L 164.485155 58.483349 
L 164.840958 61.294582 
L 165.19676 64.114806 
L 165.552563 66.930473 
L 165.908365 69.728173 
L 166.264168 72.494707 
L 166.61997 75.217171 
L 166.975773 77.883024 
L 167.331575 80.480157 
L 167.687378 82.996964 
L 168.04318 85.422399 
L 168.398983 87.746033 
L 168.754785 89.958106 
L 169.110588 92.049574 
L 169.46639 94.012148 
L 169.822193 95.838328 
L 170.177995 97.521435 
L 170.533798 99.055626 
L 170.889601 100.435919 
L 171.245403 101.658194 
L 171.601206 102.719206 
L 171.957008 103.616576 
L 172.312811 104.348786 
L 172.668613 104.915189 
L 173.024416 107.157635 
L 173.380218 109.883713 
L 173.736021 112.514238 
L 174.091823 115.042438 
L 174.447626 117.462177 
L 174.803428 119.767969 
L 175.159231 121.954998 
L 175.515033 124.019126 
L 175.870836 125.956897 
L 176.226638 127.765543 
L 176.582441 129.442976 
L 176.938243 130.987779 
L 177.294046 132.399199 
L 177.649848 133.677123 
L 178.005651 134.822065 
L 178.361453 135.835137 
L 178.717256 136.718024 
L 179.073058 137.472954 
L 179.428861 138.102666 
L 179.784663 138.610372 
L 180.140466 138.999728 
L 180.496268 139.274787 
L 180.852071 139.439965 
L 181.207873 139.5 
L 181.563676 139.459912 
L 181.919478 139.32496 
L 182.275281 139.100603 
L 182.631083 138.792459 
L 182.986886 138.406267 
L 183.342689 137.947847 
L 183.698491 137.423061 
L 184.054294 136.83778 
L 184.410096 136.19785 
L 184.765899 135.509057 
L 185.121701 134.777096 
L 185.477504 134.007547 
L 185.833306 133.205843 
L 186.189109 132.377253 
L 186.544911 131.526853 
L 186.900714 130.659514 
L 187.256516 129.779879 
L 187.612319 128.892356 
L 187.968121 128.001099 
L 188.323924 127.110005 
L 188.679726 126.222702 
L 189.035529 125.342549 
L 189.391331 124.472632 
L 189.747134 123.61576 
L 190.102936 122.774473 
L 190.458739 121.951042 
L 190.814541 121.147472 
L 191.170344 120.365515 
L 191.526146 119.606672 
L 191.881949 118.872206 
L 192.237751 118.163151 
L 192.593554 117.480325 
L 192.949356 116.82434 
L 193.305159 116.195615 
L 193.660961 115.594393 
L 194.016764 115.020747 
L 194.372566 114.474602 
L 194.728369 113.955744 
L 195.084171 113.463834 
L 195.439974 112.99842 
L 195.795776 112.558955 
L 196.151579 112.144805 
L 196.507382 111.755261 
L 196.863184 111.389554 
L 197.218987 111.046864 
L 197.574789 110.726328 
L 197.930592 110.427055 
L 198.286394 110.148128 
L 198.642197 109.88862 
L 198.997999 109.647594 
L 199.353802 109.424115 
L 199.709604 109.217254 
L 200.065407 109.026091 
L 200.421209 108.849727 
L 200.777012 108.687277 
L 201.132814 108.537886 
L 201.488617 108.40072 
L 201.844419 108.274977 
L 202.200222 108.159886 
L 202.556024 108.054706 
L 202.911827 107.95873 
L 203.267629 107.871286 
L 203.623432 107.791735 
L 203.979234 107.719473 
L 204.335037 107.653929 
L 204.690839 107.594566 
L 205.046642 107.540879 
L 205.402444 107.492397 
L 205.758247 107.448678 
L 206.114049 107.40931 
L 206.469852 107.373912 
L 206.825654 107.342128 
L 207.181457 107.313629 
L 207.537259 107.288113 
L 207.893062 107.265298 
L 208.248864 107.244928 
L 208.604667 107.226766 
L 208.96047 107.210594 
L 209.316272 107.196215 
L 209.672075 107.183448 
L 210.027877 107.172127 
L 210.38368 107.162103 
L 210.739482 107.153238 
L 211.095285 107.14541 
L 211.451087 107.138507 
L 211.80689 107.132427 
L 212.162692 107.12708 
L 212.518495 107.122384 
L 212.874297 107.118265 
L 213.2301 107.114657 
L 213.585902 107.111501 
L 213.941705 107.108744 
L 214.297507 107.106338 
L 214.65331 107.104242 
L 215.009112 107.102419 
L 215.364915 107.100834 
L 215.364915 15.930107 
L 215.364915 15.930107 
L 215.009112 15.931691 
L 214.65331 15.933515 
L 214.297507 15.935612 
L 213.941705 15.938018 
L 213.585902 15.940776 
L 213.2301 15.943933 
L 212.874297 15.947543 
L 212.518495 15.951665 
L 212.162692 15.956364 
L 211.80689 15.961714 
L 211.451087 15.967799 
L 211.095285 15.974709 
L 210.739482 15.982545 
L 210.38368 15.991421 
L 210.027877 16.001459 
L 209.672075 16.012798 
L 209.316272 16.025589 
L 208.96047 16.039997 
L 208.604667 16.056207 
L 208.248864 16.074418 
L 207.893062 16.09485 
L 207.537259 16.117743 
L 207.181457 16.143359 
L 206.825654 16.171983 
L 206.469852 16.203924 
L 206.114049 16.23952 
L 205.758247 16.279135 
L 205.402444 16.323163 
L 205.046642 16.372029 
L 204.690839 16.426193 
L 204.335037 16.486147 
L 203.979234 16.552421 
L 203.623432 16.625581 
L 203.267629 16.706236 
L 202.911827 16.795033 
L 202.556024 16.892661 
L 202.200222 16.999856 
L 201.844419 17.117396 
L 201.488617 17.246106 
L 201.132814 17.38686 
L 200.777012 17.540577 
L 200.421209 17.708228 
L 200.065407 17.89083 
L 199.709604 18.089453 
L 199.353802 18.305213 
L 198.997999 18.539276 
L 198.642197 18.792858 
L 198.286394 19.067222 
L 197.930592 19.363676 
L 197.574789 19.683573 
L 197.218987 20.028309 
L 196.863184 20.39932 
L 196.507382 20.798078 
L 196.151579 21.22609 
L 195.795776 21.684889 
L 195.439974 22.176036 
L 195.084171 22.701107 
L 194.728369 23.261695 
L 194.372566 23.859397 
L 194.016764 24.495809 
L 193.660961 25.172519 
L 193.305159 25.891094 
L 192.949356 26.653077 
L 192.593554 27.459967 
L 192.237751 28.313219 
L 191.881949 29.214222 
L 191.526146 30.16429 
L 191.170344 31.164649 
L 190.814541 32.216422 
L 190.458739 33.320613 
L 190.102936 34.478091 
L 189.747134 35.689575 
L 189.391331 36.955615 
L 189.035529 38.276579 
L 188.679726 39.65263 
L 188.323924 41.083712 
L 187.968121 42.569534 
L 187.612319 44.109547 
L 187.256516 45.702933 
L 186.900714 47.348587 
L 186.544911 49.0451 
L 186.189109 50.790746 
L 185.833306 52.583469 
L 185.477504 54.420869 
L 185.121701 56.300195 
L 184.765899 58.218334 
L 184.410096 60.171807 
L 184.054294 62.156763 
L 183.698491 64.168977 
L 183.342689 66.203852 
L 182.986886 68.256426 
L 182.631083 70.32137 
L 182.275281 72.393009 
L 181.919478 74.465324 
L 181.563676 76.531976 
L 181.207873 78.586321 
L 180.852071 80.621436 
L 180.496268 82.630142 
L 180.140466 84.605032 
L 179.784663 86.538509 
L 179.428861 88.422817 
L 179.073058 90.250078 
L 178.717256 92.012339 
L 178.361453 93.701609 
L 178.005651 95.30991 
L 177.649848 96.829323 
L 177.294046 98.252036 
L 176.938243 99.5704 
L 176.582441 100.776977 
L 176.226638 101.864594 
L 175.870836 102.826398 
L 175.515033 103.655909 
L 175.159231 104.34707 
L 174.803428 104.894302 
L 174.447626 105.292554 
L 174.091823 105.537351 
L 173.736021 105.624838 
L 173.380218 105.551829 
L 173.024416 105.315839 
L 172.668613 104.34332 
L 172.312811 101.448849 
L 171.957008 98.482611 
L 171.601206 95.453621 
L 171.245403 92.371329 
L 170.889601 89.245594 
L 170.533798 86.086628 
L 170.177995 82.904947 
L 169.822193 79.711306 
L 169.46639 76.51664 
L 169.110588 73.332002 
L 168.754785 70.168491 
L 168.398983 67.037191 
L 168.04318 63.949101 
L 167.687378 60.915063 
L 167.331575 57.945697 
L 166.975773 55.051334 
L 166.61997 52.241948 
L 166.264168 49.527091 
L 165.908365 46.915832 
L 165.552563 44.416701 
L 165.19676 42.037627 
L 164.840958 39.785892 
L 164.485155 37.668081 
L 164.129353 35.69004 
L 163.77355 33.85684 
L 163.417748 32.172745 
L 163.061945 30.641185 
L 162.706143 29.264736 
L 162.35034 28.04511 
L 161.994538 26.983143 
L 161.638735 26.078799 
L 161.282933 25.331171 
L 160.92713 24.738497 
L 160.571328 24.298178 
L 160.215525 24.0068 
L 159.859723 23.860166 
L 159.50392 23.853335 
L 159.148118 23.980656 
L 158.792315 24.235814 
L 158.436513 24.231456 
L 158.08071 23.583318 
L 157.724907 23.126098 
L 157.369105 22.861289 
L 157.013302 22.789332 
L 156.6575 22.90965 
L 156.301697 23.220668 
L 155.945895 23.719826 
L 155.590092 24.403614 
L 155.23429 25.267603 
L 154.878487 26.306483 
L 154.522685 27.514115 
L 154.166882 28.883573 
L 153.81108 30.407211 
L 153.455277 32.076711 
L 153.099475 33.883158 
L 152.743672 35.817098 
L 152.38787 37.868615 
L 152.032067 40.027396 
L 151.676265 42.2828 
L 151.320462 44.109396 
L 150.96466 45.00852 
L 150.608857 45.847441 
L 150.253055 46.621717 
L 149.897252 47.327494 
L 149.54145 47.961526 
L 149.185647 48.521178 
L 148.829845 49.00442 
L 148.474042 49.409821 
L 148.11824 49.736533 
L 147.762437 49.984274 
L 147.406635 50.153307 
L 147.050832 50.244416 
L 146.69503 50.258878 
L 146.339227 50.198432 
L 145.983425 50.065247 
L 145.627622 49.861885 
L 145.271819 49.59127 
L 144.916017 49.256646 
L 144.560214 48.861544 
L 144.204412 48.409737 
L 143.848609 47.90521 
L 143.492807 47.352119 
L 143.137004 46.754751 
L 142.781202 46.117496 
L 142.425399 45.444806 
L 142.069597 44.741165 
L 141.713794 44.011059 
L 141.357992 43.258948 
L 141.002189 42.489236 
L 140.646387 41.706252 
L 140.290584 40.914223 
L 139.934782 40.117261 
L 139.578979 39.319342 
L 139.223177 38.524293 
L 138.867374 37.735783 
L 138.511572 36.95731 
L 138.155769 36.192199 
L 137.799967 35.443596 
L 137.444164 34.714464 
L 137.088362 34.007587 
L 136.732559 33.325569 
L 136.376757 32.670838 
L 136.020954 32.045652 
L 135.665152 31.452106 
L 135.309349 30.892136 
L 134.953547 30.367533 
L 134.597744 29.879946 
L 134.241942 29.430894 
L 133.886139 29.021776 
L 133.530337 28.653879 
L 133.174534 28.328388 
L 132.818731 28.046395 
L 132.462929 27.808903 
L 132.107126 27.616841 
L 131.751324 27.471061 
L 131.395521 27.372348 
L 131.039719 27.321424 
L 130.683916 27.318947 
L 130.328114 27.365513 
L 129.972311 27.461655 
L 129.616509 27.607839 
L 129.260706 27.804462 
L 128.904904 28.051843 
L 128.549101 28.350218 
L 128.193299 28.699729 
L 127.837496 29.100412 
L 127.481694 29.55219 
L 127.125891 30.054852 
L 126.770089 30.608048 
L 126.414286 31.211264 
L 126.058484 31.863816 
L 125.702681 32.564826 
L 125.346879 33.31321 
L 124.991076 34.107661 
L 124.635274 34.946635 
L 124.279471 35.828332 
L 123.923669 36.750687 
L 123.567866 37.711355 
L 123.212064 38.707701 
L 122.856261 39.736791 
L 122.500459 40.795386 
L 122.144656 41.879937 
L 121.788854 42.986584 
L 121.433051 44.111161 
L 121.077249 45.249195 
L 120.721446 46.395923 
L 120.365644 47.546295 
L 120.009841 48.694999 
L 119.654038 49.836475 
L 119.298236 50.964942 
L 118.942433 52.074423 
L 118.586631 53.158781 
L 118.230828 54.211752 
L 117.875026 55.226983 
L 117.519223 56.198078 
L 117.163421 57.118642 
L 116.807618 57.982328 
L 116.451816 58.782892 
L 116.096013 59.514243 
L 115.740211 60.170503 
L 115.384408 60.746054 
L 115.028606 61.235606 
L 114.672803 61.634246 
L 114.317001 61.937496 
L 113.961198 62.14137 
L 113.605396 62.242426 
L 113.249593 62.237817 
L 112.893791 62.125337 
L 112.537988 61.903466 
L 112.182186 61.571411 
L 111.826383 61.129135 
L 111.470581 60.577392 
L 111.114778 59.917744 
L 110.758976 59.152579 
L 110.403173 58.285119 
L 110.047371 57.319421 
L 109.691568 56.260369 
L 109.335766 55.113659 
L 108.979963 53.885745 
L 108.624161 52.118051 
L 108.268358 50.064202 
L 107.912556 48.063853 
L 107.556753 46.123007 
L 107.20095 44.247404 
L 106.845148 42.442508 
L 106.489345 40.713489 
L 106.133543 39.065199 
L 105.77774 37.502159 
L 105.421938 36.028542 
L 105.066135 34.648164 
L 104.710333 33.364473 
L 104.35453 32.180549 
L 103.998728 31.099095 
L 103.642925 30.122441 
L 103.287123 29.252545 
L 102.93132 28.490996 
L 102.575518 27.83902 
L 102.219715 27.297485 
L 101.863913 26.866825 
L 101.50811 26.335164 
L 101.152308 25.812516 
L 100.796505 25.426526 
L 100.440703 25.181321 
L 100.0849 25.079954 
L 99.729098 25.124401 
L 99.373295 25.315551 
L 99.017493 25.653198 
L 98.66169 26.136045 
L 98.305888 26.761716 
L 97.950085 27.526785 
L 97.594283 28.426811 
L 97.23848 29.45638 
L 96.882678 30.609163 
L 96.526875 31.877977 
L 96.171073 33.254857 
L 95.81527 34.731136 
L 95.459468 36.297525 
L 95.103665 37.944201 
L 94.747862 39.660772 
L 94.39206 41.258136 
L 94.036257 42.824143 
L 93.680455 44.437886 
L 93.324652 46.093822 
L 92.96885 47.786149 
L 92.613047 49.508847 
L 92.257245 51.255688 
L 91.901442 53.020247 
L 91.54564 54.795918 
L 91.189837 56.575926 
L 90.834035 58.353349 
L 90.478232 60.121139 
L 90.12243 61.872147 
L 89.766627 63.599151 
L 89.410825 65.294887 
L 89.055022 66.952084 
L 88.69922 68.563497 
L 88.343417 70.121951 
L 87.987615 71.62037 
L 87.631812 73.051697 
L 87.27601 74.176207 
L 86.920207 75.122411 
L 86.564405 75.979926 
L 86.208602 76.750047 
L 85.8528 77.434693 
L 85.496997 78.036384 
L 85.141195 78.558185 
L 84.785392 79.003647 
L 84.42959 79.376746 
L 84.073787 79.681818 
L 83.717985 79.923492 
L 83.362182 80.106629 
L 83.00638 80.236252 
L 82.650577 80.317488 
L 82.294774 80.355502 
L 81.938972 80.355442 
L 81.583169 80.322382 
L 81.227367 80.261275 
L 80.871564 80.176899 
L 80.515762 80.073745 
L 80.159959 79.402135 
L 79.804157 78.469125 
L 79.448354 77.445733 
L 79.092552 76.339085 
L 78.736749 75.156908 
L 78.380947 73.907498 
L 78.025144 72.599667 
L 77.669342 71.242694 
L 77.313539 69.846263 
L 76.957737 68.420404 
L 76.601934 66.975423 
L 76.246132 65.521833 
L 75.890329 64.070285 
L 75.534527 62.631487 
L 75.178724 61.216129 
L 74.822922 59.834809 
L 74.467119 58.497945 
L 74.111317 57.215704 
L 73.755514 55.997917 
L 73.399712 54.854003 
L 73.043909 53.792893 
L 72.688107 52.822951 
L 72.332304 51.951905 
L 71.976502 51.186779 
L 71.620699 50.533821 
L 71.264897 49.998449 
L 70.909094 49.58519 
L 70.553292 49.297632 
L 70.197489 49.138374 
L 69.841686 49.108993 
L 69.485884 49.210009 
L 69.130081 49.440857 
L 68.774279 49.799877 
L 68.418476 50.284298 
L 68.062674 50.890242 
L 67.706871 51.61273 
L 67.351069 52.445697 
L 66.995266 53.38202 
L 66.639464 54.413554 
L 66.283661 55.531172 
L 65.927859 56.72482 
L 65.572056 57.983581 
L 65.216254 59.295741 
L 64.860451 60.648875 
L 64.504649 62.029928 
L 64.148846 63.425314 
L 63.793044 64.821016 
L 63.437241 66.202697 
L 63.081439 67.555813 
L 62.725636 68.865733 
L 62.369834 70.117863 
L 62.014031 71.297772 
L 61.658229 72.391319 
L 61.302426 73.384789 
L 60.946624 74.265015 
L 60.590821 75.019509 
L 60.235019 75.63659 
L 59.879216 76.105502 
L 59.523414 76.416527 
L 59.167611 76.560924 
L 58.811809 75.88745 
L 58.456006 75.033213 
L 58.100204 74.08848 
L 57.744401 73.050481 
L 57.388599 71.916999 
L 57.032796 70.686441 
L 56.676993 69.357903 
L 56.321191 67.931238 
L 55.965388 66.407106 
L 55.609586 64.787031 
L 55.253783 63.073443 
L 54.897981 61.269714 
L 54.542178 59.38019 
L 54.186376 57.410208 
L 53.830573 55.36611 
L 53.474771 53.255235 
L 53.118968 51.085916 
L 52.763166 48.867454 
L 52.407363 46.610075 
L 52.051561 44.32436 
L 51.695758 41.660487 
L 51.339956 38.978533 
L 50.984153 36.331733 
L 50.628351 33.740731 
L 50.272548 31.226024 
L 49.916746 28.807797 
L 49.560943 26.505744 
L 49.205141 24.338893 
L 48.849338 22.325432 
L 48.493536 20.482552 
L 48.137733 18.826284 
L 47.781931 17.371361 
L 47.426128 16.131076 
L 47.070326 15.117167 
L 46.714523 14.339708 
L 46.358721 13.807018 
L 46.002918 13.525583 
L 45.647116 13.5 
L 45.291313 13.732928 
L 44.935511 14.224006 
L 44.579708 14.569842 
L 44.223905 15.146053 
L 43.868103 15.973739 
L 43.5123 17.05475 
L 43.156498 18.389351 
L 42.800695 19.97621 
L 42.444893 21.812396 
L 42.08909 23.893388 
L 41.733288 26.213101 
L 41.377485 28.763921 
L 41.021683 31.53676 
L 40.66588 34.521117 
L 40.310078 37.705156 
L 39.954275 41.075799 
L 39.598473 44.618816 
L 39.24267 48.318943 
L 38.886868 52.159994 
L 38.531065 56.124984 
L 38.175263 60.196258 
L 37.81946 64.351116 
z
" clip-path="url(#pcf22c1d13c)" style="fill: #ff7f0e; fill-opacity: 0.25"/>
   </g>
   <g id="matplotlib.axis_1">
    <g id="xtick_1">
     <g id="line2d_1">
      <defs>
       <path id="mbe3762cb05" d="M 0 0 
L 0 3.5 
" style="stroke: #000000; stroke-width: 0.8"/>
      </defs>
      <g>
       <use xlink:href="#mbe3762cb05" x="37.81946" y="145.8" style="stroke: #000000; stroke-width: 0.8"/>
      </g>
     </g>
     <g id="text_1">
      <!-- 0 -->
      <g transform="translate(34.63821 160.398438)scale(0.1 -0.1)">
       <defs>
        <path id="DejaVuSans-30" d="M 2034 4250 
Q 1547 4250 1301 3770 
Q 1056 3291 1056 2328 
Q 1056 1369 1301 889 
Q 1547 409 2034 409 
Q 2525 409 2770 889 
Q 3016 1369 3016 2328 
Q 3016 3291 2770 3770 
Q 2525 4250 2034 4250 
z
M 2034 4750 
Q 2819 4750 3233 4129 
Q 3647 3509 3647 2328 
Q 3647 1150 3233 529 
Q 2819 -91 2034 -91 
Q 1250 -91 836 529 
Q 422 1150 422 2328 
Q 422 3509 836 4129 
Q 1250 4750 2034 4750 
z
" transform="scale(0.015625)"/>
       </defs>
       <use xlink:href="#DejaVuSans-30"/>
      </g>
     </g>
    </g>
    <g id="xtick_2">
     <g id="line2d_2">
      <g>
       <use xlink:href="#mbe3762cb05" x="73.328551" y="145.8" style="stroke: #000000; stroke-width: 0.8"/>
      </g>
     </g>
     <g id="text_2">
      <!-- 5 -->
      <g transform="translate(70.147301 160.398438)scale(0.1 -0.1)">
       <defs>
        <path id="DejaVuSans-35" d="M 691 4666 
L 3169 4666 
L 3169 4134 
L 1269 4134 
L 1269 2991 
Q 1406 3038 1543 3061 
Q 1681 3084 1819 3084 
Q 2600 3084 3056 2656 
Q 3513 2228 3513 1497 
Q 3513 744 3044 326 
Q 2575 -91 1722 -91 
Q 1428 -91 1123 -41 
Q 819 9 494 109 
L 494 744 
Q 775 591 1075 516 
Q 1375 441 1709 441 
Q 2250 441 2565 725 
Q 2881 1009 2881 1497 
Q 2881 1984 2565 2268 
Q 2250 2553 1709 2553 
Q 1456 2553 1204 2497 
Q 953 2441 691 2322 
L 691 4666 
z
" transform="scale(0.015625)"/>
       </defs>
       <use xlink:href="#DejaVuSans-35"/>
      </g>
     </g>
    </g>
    <g id="xtick_3">
     <g id="line2d_3">
      <g>
       <use xlink:href="#mbe3762cb05" x="108.837642" y="145.8" style="stroke: #000000; stroke-width: 0.8"/>
      </g>
     </g>
     <g id="text_3">
      <!-- 10 -->
      <g transform="translate(102.475142 160.398438)scale(0.1 -0.1)">
       <defs>
        <path id="DejaVuSans-31" d="M 794 531 
L 1825 531 
L 1825 4091 
L 703 3866 
L 703 4441 
L 1819 4666 
L 2450 4666 
L 2450 531 
L 3481 531 
L 3481 0 
L 794 0 
L 794 531 
z
" transform="scale(0.015625)"/>
       </defs>
       <use xlink:href="#DejaVuSans-31"/>
       <use xlink:href="#DejaVuSans-30" x="63.623047"/>
      </g>
     </g>
    </g>
    <g id="xtick_4">
     <g id="line2d_4">
      <g>
       <use xlink:href="#mbe3762cb05" x="144.346733" y="145.8" style="stroke: #000000; stroke-width: 0.8"/>
      </g>
     </g>
     <g id="text_4">
      <!-- 15 -->
      <g transform="translate(137.984233 160.398438)scale(0.1 -0.1)">
       <use xlink:href="#DejaVuSans-31"/>
       <use xlink:href="#DejaVuSans-35" x="63.623047"/>
      </g>
     </g>
    </g>
    <g id="xtick_5">
     <g id="line2d_5">
      <g>
       <use xlink:href="#mbe3762cb05" x="179.855824" y="145.8" style="stroke: #000000; stroke-width: 0.8"/>
      </g>
     </g>
     <g id="text_5">
      <!-- 20 -->
      <g transform="translate(173.493324 160.398438)scale(0.1 -0.1)">
       <defs>
        <path id="DejaVuSans-32" d="M 1228 531 
L 3431 531 
L 3431 0 
L 469 0 
L 469 531 
Q 828 903 1448 1529 
Q 2069 2156 2228 2338 
Q 2531 2678 2651 2914 
Q 2772 3150 2772 3378 
Q 2772 3750 2511 3984 
Q 2250 4219 1831 4219 
Q 1534 4219 1204 4116 
Q 875 4013 500 3803 
L 500 4441 
Q 881 4594 1212 4672 
Q 1544 4750 1819 4750 
Q 2544 4750 2975 4387 
Q 3406 4025 3406 3419 
Q 3406 3131 3298 2873 
Q 3191 2616 2906 2266 
Q 2828 2175 2409 1742 
Q 1991 1309 1228 531 
z
" transform="scale(0.015625)"/>
       </defs>
       <use xlink:href="#DejaVuSans-32"/>
       <use xlink:href="#DejaVuSans-30" x="63.623047"/>
      </g>
     </g>
    </g>
    <g id="xtick_6">
     <g id="line2d_6">
      <g>
       <use xlink:href="#mbe3762cb05" x="215.364915" y="145.8" style="stroke: #000000; stroke-width: 0.8"/>
      </g>
     </g>
     <g id="text_6">
      <!-- 25 -->
      <g transform="translate(209.002415 160.398438)scale(0.1 -0.1)">
       <use xlink:href="#DejaVuSans-32"/>
       <use xlink:href="#DejaVuSans-35" x="63.623047"/>
      </g>
     </g>
    </g>
   </g>
   <g id="matplotlib.axis_2">
    <g id="ytick_1">
     <g id="line2d_7">
      <defs>
       <path id="mb46f4ce0ac" d="M 0 0 
L -3.5 0 
" style="stroke: #000000; stroke-width: 0.8"/>
      </defs>
      <g>
       <use xlink:href="#mb46f4ce0ac" x="28.942188" y="107.091016" style="stroke: #000000; stroke-width: 0.8"/>
      </g>
     </g>
     <g id="text_7">
      <!-- −2 -->
      <g transform="translate(7.2 110.890234)scale(0.1 -0.1)">
       <defs>
        <path id="DejaVuSans-2212" d="M 678 2272 
L 4684 2272 
L 4684 1741 
L 678 1741 
L 678 2272 
z
" transform="scale(0.015625)"/>
       </defs>
       <use xlink:href="#DejaVuSans-2212"/>
       <use xlink:href="#DejaVuSans-32" x="83.789062"/>
      </g>
     </g>
    </g>
    <g id="ytick_2">
     <g id="line2d_8">
      <g>
       <use xlink:href="#mb46f4ce0ac" x="28.942188" y="61.505651" style="stroke: #000000; stroke-width: 0.8"/>
      </g>
     </g>
     <g id="text_8">
      <!-- 0 -->
      <g transform="translate(15.579688 65.30487)scale(0.1 -0.1)">
       <use xlink:href="#DejaVuSans-30"/>
      </g>
     </g>
    </g>
    <g id="ytick_3">
     <g id="line2d_9">
      <g>
       <use xlink:href="#mb46f4ce0ac" x="28.942188" y="15.920287" style="stroke: #000000; stroke-width: 0.8"/>
      </g>
     </g>
     <g id="text_9">
      <!-- 2 -->
      <g transform="translate(15.579688 19.719506)scale(0.1 -0.1)">
       <use xlink:href="#DejaVuSans-32"/>
      </g>
     </g>
    </g>
   </g>
   <g id="line2d_10">
    <path d="M 37.81946 64.355675 
L 39.954275 42.724432 
L 41.377485 30.487658 
L 42.444893 23.199118 
L 43.156498 19.426786 
L 43.868103 16.604452 
L 44.579708 14.772633 
L 44.935511 14.233498 
L 45.291313 13.944985 
L 45.647116 13.904558 
L 46.002918 14.108021 
L 46.358721 14.549561 
L 47.070326 16.115899 
L 47.781931 18.527289 
L 48.493536 21.686658 
L 49.560943 27.574492 
L 50.984153 36.879085 
L 54.186376 58.57521 
L 55.609586 66.378039 
L 56.676993 70.918482 
L 57.388599 73.248909 
L 58.100204 75.009294 
L 58.811809 76.209742 
L 59.523414 76.87728 
L 60.235019 77.053687 
L 60.946624 76.792963 
L 61.658229 76.158588 
L 62.369834 75.220676 
L 63.437241 73.406727 
L 66.995266 66.735875 
L 68.062674 65.325275 
L 68.774279 64.668215 
L 69.485884 64.264226 
L 70.197489 64.12535 
L 70.909094 64.254604 
L 71.620699 64.646519 
L 72.332304 65.287824 
L 73.399712 66.67126 
L 74.467119 68.474946 
L 76.246132 72.084666 
L 78.736749 77.288304 
L 79.804157 79.148941 
L 80.871564 80.574445 
L 81.583169 81.217081 
L 82.294774 81.572696 
L 83.00638 81.611454 
L 83.717985 81.308985 
L 84.42959 80.647116 
L 85.141195 79.61453 
L 85.8528 78.207323 
L 86.920207 75.404986 
L 87.987615 71.81848 
L 89.410825 65.977307 
L 91.189837 57.445495 
L 95.103665 38.117606 
L 96.526875 32.514155 
L 97.594283 29.275467 
L 98.305888 27.658943 
L 99.017493 26.514557 
L 99.729098 25.863784 
L 100.0849 25.727337 
L 100.440703 25.717545 
L 100.796505 25.83408 
L 101.50811 26.441449 
L 102.219715 27.533486 
L 102.93132 29.084096 
L 103.998728 32.18999 
L 105.066135 36.092639 
L 106.489345 42.2123 
L 111.826383 66.535253 
L 113.249593 71.475878 
L 114.317001 74.430445 
L 115.384408 76.702034 
L 116.096013 77.837806 
L 116.807618 78.680866 
L 117.519223 79.246408 
L 118.230828 79.554463 
L 118.942433 79.629014 
L 119.654038 79.497086 
L 120.721446 78.976206 
L 121.788854 78.159572 
L 123.567866 76.420101 
L 126.414286 73.593927 
L 127.837496 72.523188 
L 128.904904 71.962252 
L 129.972311 71.634972 
L 131.039719 71.547178 
L 132.107126 71.688458 
L 133.174534 72.032389 
L 134.597744 72.731422 
L 138.155769 74.700531 
L 139.223177 75.00237 
L 139.934782 75.039856 
L 140.646387 74.912308 
L 141.357992 74.591826 
L 142.069597 74.052584 
L 142.781202 73.271724 
L 143.492807 72.230285 
L 144.560214 70.150103 
L 145.627622 67.430129 
L 146.69503 64.081879 
L 148.11824 58.733118 
L 149.897252 50.975823 
L 153.455277 34.925127 
L 154.522685 30.918619 
L 155.590092 27.696896 
L 156.301697 26.089741 
L 157.013302 24.979309 
L 157.724907 24.411347 
L 158.08071 24.342424 
L 158.436513 24.421728 
L 158.792315 24.652 
L 159.50392 25.572615 
L 160.215525 27.110747 
L 160.92713 29.260061 
L 161.638735 32.001325 
L 162.706143 37.15018 
L 163.77355 43.399548 
L 165.19676 53.076216 
L 167.687378 71.956013 
L 170.177995 90.213191 
L 171.601206 99.086414 
L 172.668613 104.629254 
L 173.736021 109.069538 
L 174.447626 111.377365 
L 175.159231 113.151034 
L 175.870836 114.391648 
L 176.582441 115.109976 
L 177.294046 115.325618 
L 177.649848 115.253223 
L 178.361453 114.768373 
L 179.073058 113.861516 
L 179.784663 112.574441 
L 180.852071 110.030701 
L 181.919478 106.895142 
L 183.698491 100.796019 
L 188.679726 82.937666 
L 190.458739 77.635827 
L 191.881949 74.043214 
L 193.305159 71.043355 
L 194.728369 68.60872 
L 196.151579 66.685447 
L 197.574789 65.20495 
L 198.997999 64.093435 
L 200.421209 63.278977 
L 201.844419 62.696187 
L 203.623432 62.208658 
L 205.758247 61.863906 
L 208.604667 61.641486 
L 213.2301 61.529295 
L 215.364915 61.515471 
L 215.364915 61.515471 
" clip-path="url(#pcf22c1d13c)" style="fill: none; stroke: #1f77b4; stroke-width: 2; stroke-linecap: square"/>
   </g>
   <g id="patch_3">
    <path d="M 28.942188 145.8 
L 28.942188 7.2 
" style="fill: none; stroke: #000000; stroke-width: 0.8; stroke-linejoin: miter; stroke-linecap: square"/>
   </g>
   <g id="patch_4">
    <path d="M 224.242188 145.8 
L 224.242188 7.2 
" style="fill: none; stroke: #000000; stroke-width: 0.8; stroke-linejoin: miter; stroke-linecap: square"/>
   </g>
   <g id="patch_5">
    <path d="M 28.942188 145.8 
L 224.242188 145.8 
" style="fill: none; stroke: #000000; stroke-width: 0.8; stroke-linejoin: miter; stroke-linecap: square"/>
   </g>
   <g id="patch_6">
    <path d="M 28.942188 7.2 
L 224.242188 7.2 
" style="fill: none; stroke: #000000; stroke-width: 0.8; stroke-linejoin: miter; stroke-linecap: square"/>
   </g>
  </g>
 </g>
 <defs>
  <clipPath id="pcf22c1d13c">
   <rect x="28.942188" y="7.2" width="195.3" height="138.6"/>
  </clipPath>
 </defs>
</svg>
