<?xml version="1.0" encoding="utf-8" standalone="no"?>
<!DOCTYPE svg PUBLIC "-//W3C//DTD SVG 1.1//EN"
  "http://www.w3.org/Graphics/SVG/1.1/DTD/svg11.dtd">
<svg xmlns:xlink="http://www.w3.org/1999/xlink" width="245.692187pt" height="184.798125pt" viewBox="0 0 245.692187 184.798125" xmlns="http://www.w3.org/2000/svg" version="1.1">
 <metadata>
  <rdf:RDF xmlns:dc="http://purl.org/dc/elements/1.1/" xmlns:cc="http://creativecommons.org/ns#" xmlns:rdf="http://www.w3.org/1999/02/22-rdf-syntax-ns#">
   <cc:Work>
    <dc:type rdf:resource="http://purl.org/dc/dcmitype/StillImage"/>
    <dc:date>2022-12-10T17:08:45.641175</dc:date>
    <dc:format>image/svg+xml</dc:format>
    <dc:creator>
     <cc:Agent>
      <dc:title>Matplotlib v3.5.1, https://matplotlib.org/</dc:title>
     </cc:Agent>
    </dc:creator>
   </cc:Work>
  </rdf:RDF>
 </metadata>
 <defs>
  <style type="text/css">*{stroke-linejoin: round; stroke-linecap: butt}</style>
 </defs>
 <g id="figure_1">
  <g id="patch_1">
   <path d="M 0 184.798125 
L 245.692187 184.798125 
L 245.692187 0 
L 0 0 
z
" style="fill: #ffffff"/>
  </g>
  <g id="axes_1">
   <g id="patch_2">
    <path d="M 28.942188 160.92 
L 224.242188 160.92 
L 224.242188 22.32 
L 28.942188 22.32 
z
" style="fill: #ffffff"/>
   </g>
   <g id="PathCollection_1">
    <defs>
     <path id="m6b81b480e2" d="M 0 3 
C 0.795609 3 1.55874 2.683901 2.12132 2.12132 
C 2.683901 1.55874 3 0.795609 3 0 
C 3 -0.795609 2.683901 -1.55874 2.12132 -2.12132 
C 1.55874 -2.683901 0.795609 -3 0 -3 
C -0.795609 -3 -1.55874 -2.683901 -2.12132 -2.12132 
C -2.683901 -1.55874 -3 -0.795609 -3 0 
C -3 0.795609 -2.683901 1.55874 -2.12132 2.12132 
C -1.55874 2.683901 -0.795609 3 0 3 
z
" style="stroke: #1f77b4"/>
    </defs>
    <g clip-path="url(#p62a1f6d635)">
     <use xlink:href="#m6b81b480e2" x="37.81946" y="90.247873" style="fill: #1f77b4; stroke: #1f77b4"/>
     <use xlink:href="#m6b81b480e2" x="44.921278" y="29.0913" style="fill: #1f77b4; stroke: #1f77b4"/>
     <use xlink:href="#m6b81b480e2" x="52.023097" y="65.575114" style="fill: #1f77b4; stroke: #1f77b4"/>
     <use xlink:href="#m6b81b480e2" x="59.124915" y="105.15244" style="fill: #1f77b4; stroke: #1f77b4"/>
     <use xlink:href="#m6b81b480e2" x="80.430369" y="109.399841" style="fill: #1f77b4; stroke: #1f77b4"/>
     <use xlink:href="#m6b81b480e2" x="87.532187" y="101.33561" style="fill: #1f77b4; stroke: #1f77b4"/>
     <use xlink:href="#m6b81b480e2" x="94.634006" y="60.793107" style="fill: #1f77b4; stroke: #1f77b4"/>
     <use xlink:href="#m6b81b480e2" x="101.735824" y="44.334823" style="fill: #1f77b4; stroke: #1f77b4"/>
     <use xlink:href="#m6b81b480e2" x="108.837642" y="76.843539" style="fill: #1f77b4; stroke: #1f77b4"/>
     <use xlink:href="#m6b81b480e2" x="151.448551" y="65.124297" style="fill: #1f77b4; stroke: #1f77b4"/>
     <use xlink:href="#m6b81b480e2" x="158.550369" y="41.575946" style="fill: #1f77b4; stroke: #1f77b4"/>
     <use xlink:href="#m6b81b480e2" x="172.754006" y="139.888839" style="fill: #1f77b4; stroke: #1f77b4"/>
    </g>
   </g>
   <g id="PolyCollection_1">
    <path d="M 37.81946 90.247873 
L 37.81946 90.247874 
L 38.175263 85.732847 
L 38.531065 81.245981 
L 38.886868 76.810711 
L 39.24267 72.450414 
L 39.598473 68.188239 
L 39.954275 64.046917 
L 40.310078 60.04859 
L 40.66588 56.214626 
L 41.021683 52.565455 
L 41.377485 49.120395 
L 41.733288 45.897497 
L 42.08909 42.913398 
L 42.444893 40.183178 
L 42.800695 37.720239 
L 43.156498 35.536195 
L 43.5123 33.640772 
L 43.868103 32.041731 
L 44.223905 30.744805 
L 44.579708 29.753657 
L 44.935511 29.071882 
L 45.291313 28.744596 
L 45.647116 28.718751 
L 46.002918 28.988802 
L 46.358721 29.54727 
L 46.714523 30.384818 
L 47.070326 31.490347 
L 47.426128 32.851098 
L 47.781931 34.452775 
L 48.137733 36.279678 
L 48.493536 38.314847 
L 48.849338 40.540219 
L 49.205141 42.936785 
L 49.560943 45.484767 
L 49.916746 48.163784 
L 50.272548 50.953028 
L 50.628351 53.831449 
L 50.984153 56.77792 
L 51.339956 59.771419 
L 51.695758 62.791193 
L 52.051561 65.820844 
L 52.407363 68.882316 
L 52.763166 71.911271 
L 53.118968 74.888577 
L 53.474771 77.796079 
L 53.830573 80.616725 
L 54.186376 83.334679 
L 54.542178 85.935418 
L 54.897981 88.405815 
L 55.253783 90.734213 
L 55.609586 92.910477 
L 55.965388 94.926031 
L 56.321191 96.773883 
L 56.676993 98.448634 
L 57.032796 99.94647 
L 57.388599 101.265142 
L 57.744401 102.403935 
L 58.100204 103.363616 
L 58.456006 104.146378 
L 58.811809 104.755775 
L 59.167611 105.208029 
L 59.523414 105.587443 
L 59.879216 105.822065 
L 60.235019 105.919484 
L 60.590821 105.888065 
L 60.946624 105.736841 
L 61.302426 105.475406 
L 61.658229 105.113815 
L 62.014031 104.662477 
L 62.369834 104.132048 
L 62.725636 103.533338 
L 63.081439 102.877208 
L 63.437241 102.174484 
L 63.793044 101.435865 
L 64.148846 100.671845 
L 64.504649 99.892636 
L 64.860451 99.108101 
L 65.216254 98.327688 
L 65.572056 97.56038 
L 65.927859 96.814643 
L 66.283661 96.098385 
L 66.639464 95.41892 
L 66.995266 94.782944 
L 67.351069 94.196511 
L 67.706871 93.665016 
L 68.062674 93.193189 
L 68.418476 92.785087 
L 68.774279 92.444098 
L 69.130081 92.172944 
L 69.485884 91.973694 
L 69.841686 91.847773 
L 70.197489 91.795982 
L 70.553292 91.818515 
L 70.909094 91.914984 
L 71.264897 92.084437 
L 71.620699 92.32539 
L 71.976502 92.635846 
L 72.332304 93.013329 
L 72.688107 93.454909 
L 73.043909 93.957228 
L 73.399712 94.516532 
L 73.755514 95.128695 
L 74.111317 95.789252 
L 74.467119 96.493423 
L 74.822922 97.236139 
L 75.178724 98.012074 
L 75.534527 98.815667 
L 75.890329 99.641151 
L 76.246132 100.482577 
L 76.601934 101.333839 
L 76.957737 102.188705 
L 77.313539 103.040836 
L 77.669342 103.883814 
L 78.025144 104.71117 
L 78.380947 105.516409 
L 78.736749 106.293035 
L 79.092552 107.034582 
L 79.448354 107.734638 
L 79.804157 108.386875 
L 80.159959 108.985082 
L 80.515762 109.543265 
L 80.871564 110.092332 
L 81.227367 110.558849 
L 81.583169 110.937389 
L 81.938972 111.222915 
L 82.294774 111.410801 
L 82.650577 111.496865 
L 83.00638 111.477392 
L 83.362182 111.349162 
L 83.717985 111.109467 
L 84.073787 110.75614 
L 84.42959 110.287567 
L 84.785392 109.702709 
L 85.141195 109.001113 
L 85.496997 108.182926 
L 85.8528 107.248906 
L 86.208602 106.200427 
L 86.564405 105.039479 
L 86.920207 103.768677 
L 87.27601 102.391249 
L 87.631812 100.9219 
L 87.987615 99.380829 
L 88.343417 97.743864 
L 88.69922 96.015976 
L 89.055022 94.202768 
L 89.410825 92.310458 
L 89.766627 90.345854 
L 90.12243 88.316331 
L 90.478232 86.229793 
L 90.834035 84.094643 
L 91.189837 81.919734 
L 91.54564 79.714329 
L 91.901442 77.488048 
L 92.257245 75.250814 
L 92.613047 73.012798 
L 92.96885 70.784353 
L 93.324652 68.575958 
L 93.680455 66.398147 
L 94.036257 64.261445 
L 94.39206 62.176297 
L 94.747862 60.163309 
L 95.103665 58.243956 
L 95.459468 56.405496 
L 95.81527 54.656695 
L 96.171073 53.005923 
L 96.526875 51.461111 
L 96.882678 50.029693 
L 97.23848 48.718565 
L 97.594283 47.53404 
L 97.950085 46.481811 
L 98.305888 45.566908 
L 98.66169 44.793677 
L 99.017493 44.165741 
L 99.373295 43.685989 
L 99.729098 43.356547 
L 100.0849 43.178776 
L 100.440703 43.153256 
L 100.796505 43.279789 
L 101.152308 43.557397 
L 101.50811 43.984337 
L 101.863913 44.573068 
L 102.219715 45.33307 
L 102.575518 46.233644 
L 102.93132 47.269268 
L 103.287123 48.433716 
L 103.642925 49.720105 
L 103.998728 51.12095 
L 104.35453 52.628217 
L 104.710333 54.233387 
L 105.066135 55.927515 
L 105.421938 57.701296 
L 105.77774 59.545134 
L 106.133543 61.449209 
L 106.489345 63.403546 
L 106.845148 65.39808 
L 107.20095 67.422734 
L 107.556753 69.467473 
L 107.912556 71.522382 
L 108.268358 73.577719 
L 108.624161 75.623982 
L 108.979963 77.692665 
L 109.335766 79.805091 
L 109.691568 81.896014 
L 110.047371 83.957392 
L 110.403173 85.98156 
L 110.758976 87.961267 
L 111.114778 89.889712 
L 111.470581 91.76057 
L 111.826383 93.56802 
L 112.182186 95.306768 
L 112.537988 96.97206 
L 112.893791 98.559699 
L 113.249593 100.06605 
L 113.605396 101.488046 
L 113.961198 102.823189 
L 114.317001 104.069546 
L 114.672803 105.225738 
L 115.028606 106.290935 
L 115.384408 107.264834 
L 115.740211 108.14765 
L 116.096013 108.940087 
L 116.451816 109.64332 
L 116.807618 110.25897 
L 117.163421 110.789073 
L 117.519223 111.236052 
L 117.875026 111.60269 
L 118.230828 111.892093 
L 118.586631 112.107663 
L 118.942433 112.25306 
L 119.298236 112.332174 
L 119.654038 112.349086 
L 120.009841 112.308043 
L 120.365644 112.213418 
L 120.721446 112.069685 
L 121.077249 111.881382 
L 121.433051 111.653088 
L 121.788854 111.38939 
L 122.144656 111.09486 
L 122.500459 110.774023 
L 122.856261 110.431343 
L 123.212064 110.071189 
L 123.567866 109.697826 
L 123.923669 109.315384 
L 124.279471 108.927851 
L 124.635274 108.53905 
L 124.991076 108.152627 
L 125.346879 107.772038 
L 125.702681 107.400536 
L 126.058484 107.041163 
L 126.414286 106.696739 
L 126.770089 106.369856 
L 127.125891 106.062869 
L 127.481694 105.777892 
L 127.837496 105.516792 
L 128.193299 105.281187 
L 128.549101 105.072439 
L 128.904904 104.891655 
L 129.260706 104.739685 
L 129.616509 104.617117 
L 129.972311 104.52428 
L 130.328114 104.461242 
L 130.683916 104.427807 
L 131.039719 104.423524 
L 131.395521 104.447677 
L 131.751324 104.499295 
L 132.107126 104.57715 
L 132.462929 104.67976 
L 132.818731 104.805393 
L 133.174534 104.952067 
L 133.530337 105.117562 
L 133.886139 105.299418 
L 134.241942 105.494942 
L 134.597744 105.701222 
L 134.953547 105.915126 
L 135.309349 106.133317 
L 135.665152 106.352263 
L 136.020954 106.568249 
L 136.376757 106.777387 
L 136.732559 106.975639 
L 137.088362 107.158825 
L 137.444164 107.322647 
L 137.799967 107.462706 
L 138.155769 107.574528 
L 138.511572 107.65358 
L 138.867374 107.695303 
L 139.223177 107.695135 
L 139.578979 107.648539 
L 139.934782 107.551034 
L 140.290584 107.398225 
L 140.646387 107.18584 
L 141.002189 106.909757 
L 141.357992 106.566042 
L 141.713794 106.150985 
L 142.069597 105.661135 
L 142.425399 105.093333 
L 142.781202 104.444754 
L 143.137004 103.712934 
L 143.492807 102.895811 
L 143.848609 101.991757 
L 144.204412 100.999608 
L 144.560214 99.918697 
L 144.916017 98.74888 
L 145.271819 97.490563 
L 145.627622 96.144726 
L 145.983425 94.71294 
L 146.339227 93.197385 
L 146.69503 91.600865 
L 147.050832 89.926813 
L 147.406635 88.179296 
L 147.762437 86.363015 
L 148.11824 84.483303 
L 148.474042 82.546111 
L 148.829845 80.557995 
L 149.185647 78.526097 
L 149.54145 76.458119 
L 149.897252 74.362292 
L 150.253055 72.247343 
L 150.608857 70.122456 
L 150.96466 67.997224 
L 151.320462 65.881601 
L 151.676265 63.892332 
L 152.032067 61.97975 
L 152.38787 60.091182 
L 152.743672 58.236985 
L 153.099475 56.427673 
L 153.455277 54.67386 
L 153.81108 52.986187 
L 154.166882 51.375255 
L 154.522685 49.851559 
L 154.878487 48.425412 
L 155.23429 47.106874 
L 155.590092 45.905686 
L 155.945895 44.831193 
L 156.301697 43.892283 
L 156.6575 43.097312 
L 157.013302 42.454049 
L 157.369105 41.969606 
L 157.724907 41.650391 
L 158.08071 41.502046 
L 158.436513 41.529407 
L 158.792315 41.838045 
L 159.148118 42.383714 
L 159.50392 43.120761 
L 159.859723 44.048975 
L 160.215525 45.167147 
L 160.571328 46.473069 
L 160.92713 47.963536 
L 161.282933 49.634363 
L 161.638735 51.480402 
L 161.994538 53.495568 
L 162.35034 55.672872 
L 162.706143 58.004462 
L 163.061945 60.481666 
L 163.417748 63.095047 
L 163.77355 65.834453 
L 164.129353 68.689083 
L 164.485155 71.647554 
L 164.840958 74.697962 
L 165.19676 77.827965 
L 165.552563 81.02485 
L 165.908365 84.275614 
L 166.264168 87.567043 
L 166.61997 90.885789 
L 166.975773 94.218451 
L 167.331575 97.551656 
L 167.687378 100.872132 
L 168.04318 104.166791 
L 168.398983 107.422798 
L 168.754785 110.627646 
L 169.110588 113.769224 
L 169.46639 116.835878 
L 169.822193 119.816479 
L 170.177995 122.70047 
L 170.533798 125.477924 
L 170.889601 128.139588 
L 171.245403 130.676923 
L 171.601206 133.082138 
L 171.957008 135.348224 
L 172.312811 137.46897 
L 172.668613 139.438987 
L 173.024416 141.478516 
L 173.380218 143.438169 
L 173.736021 145.244159 
L 174.091823 146.893304 
L 174.447626 148.383236 
L 174.803428 149.712389 
L 175.159231 150.879988 
L 175.515033 151.88603 
L 175.870836 152.73126 
L 176.226638 153.417144 
L 176.582441 153.945841 
L 176.938243 154.320165 
L 177.294046 154.543547 
L 177.649848 154.62 
L 178.005651 154.554068 
L 178.361453 154.35079 
L 178.717256 154.015644 
L 179.073058 153.554511 
L 179.428861 152.973615 
L 179.784663 152.279485 
L 180.140466 151.478897 
L 180.496268 150.578836 
L 180.852071 149.586438 
L 181.207873 148.508951 
L 181.563676 147.353689 
L 181.919478 146.127984 
L 182.275281 144.839151 
L 182.631083 143.494442 
L 182.986886 142.101017 
L 183.342689 140.665898 
L 183.698491 139.195948 
L 184.054294 137.697836 
L 184.410096 136.178008 
L 184.765899 134.642669 
L 185.121701 133.097759 
L 185.477504 131.548934 
L 185.833306 130.001552 
L 186.189109 128.460659 
L 186.544911 126.930983 
L 186.900714 125.416921 
L 187.256516 123.922539 
L 187.612319 122.45157 
L 187.968121 121.00741 
L 188.323924 119.593123 
L 188.679726 118.211448 
L 189.035529 116.864798 
L 189.391331 115.555276 
L 189.747134 114.284679 
L 190.102936 113.054509 
L 190.458739 111.865988 
L 190.814541 110.720068 
L 191.170344 109.617448 
L 191.526146 108.558583 
L 191.881949 107.543706 
L 192.237751 106.572836 
L 192.593554 105.645802 
L 192.949356 104.762249 
L 193.305159 103.921662 
L 193.660961 103.123379 
L 194.016764 102.366604 
L 194.372566 101.650423 
L 194.728369 100.973822 
L 195.084171 100.335695 
L 195.439974 99.734864 
L 195.795776 99.170086 
L 196.151579 98.640068 
L 196.507382 98.143479 
L 196.863184 97.678959 
L 197.218987 97.245131 
L 197.574789 96.840606 
L 197.930592 96.463998 
L 198.286394 96.113926 
L 198.642197 95.789022 
L 198.997999 95.487939 
L 199.353802 95.209357 
L 199.709604 94.951983 
L 200.065407 94.714561 
L 200.421209 94.495871 
L 200.777012 94.294736 
L 201.132814 94.110019 
L 201.488617 93.940629 
L 201.844419 93.785523 
L 202.200222 93.643703 
L 202.556024 93.514218 
L 202.911827 93.396166 
L 203.267629 93.288693 
L 203.623432 93.19099 
L 203.979234 93.102296 
L 204.335037 93.021895 
L 204.690839 92.949115 
L 205.046642 92.883325 
L 205.402444 92.823939 
L 205.758247 92.770407 
L 206.114049 92.722221 
L 206.469852 92.678907 
L 206.825654 92.640026 
L 207.181457 92.605173 
L 207.537259 92.573974 
L 207.893062 92.546085 
L 208.248864 92.521188 
L 208.604667 92.498993 
L 208.96047 92.479234 
L 209.316272 92.461667 
L 209.672075 92.446071 
L 210.027877 92.432243 
L 210.38368 92.42 
L 210.739482 92.409175 
L 211.095285 92.399616 
L 211.451087 92.391186 
L 211.80689 92.383763 
L 212.162692 92.377234 
L 212.518495 92.371501 
L 212.874297 92.366472 
L 213.2301 92.362067 
L 213.585902 92.358214 
L 213.941705 92.354848 
L 214.297507 92.351912 
L 214.65331 92.349354 
L 215.009112 92.347128 
L 215.364915 92.345194 
L 215.364915 81.217282 
L 215.364915 81.217282 
L 215.009112 81.219216 
L 214.65331 81.221442 
L 214.297507 81.224 
L 213.941705 81.226937 
L 213.585902 81.230303 
L 213.2301 81.234156 
L 212.874297 81.238561 
L 212.518495 81.24359 
L 212.162692 81.249324 
L 211.80689 81.255853 
L 211.451087 81.263277 
L 211.095285 81.271707 
L 210.739482 81.281267 
L 210.38368 81.292094 
L 210.027877 81.304339 
L 209.672075 81.318169 
L 209.316272 81.333768 
L 208.96047 81.351338 
L 208.604667 81.371102 
L 208.248864 81.393303 
L 207.893062 81.418207 
L 207.537259 81.446106 
L 207.181457 81.477317 
L 206.825654 81.512185 
L 206.469852 81.551085 
L 206.114049 81.594424 
L 205.758247 81.64264 
L 205.402444 81.696209 
L 205.046642 81.755643 
L 204.690839 81.82149 
L 204.335037 81.894343 
L 203.979234 81.974833 
L 203.623432 82.063637 
L 203.267629 82.161474 
L 202.911827 82.269113 
L 202.556024 82.387366 
L 202.200222 82.517097 
L 201.844419 82.659216 
L 201.488617 82.814684 
L 201.132814 82.984512 
L 200.777012 83.169757 
L 200.421209 83.371527 
L 200.065407 83.590978 
L 199.709604 83.829311 
L 199.353802 84.08777 
L 198.997999 84.367645 
L 198.642197 84.67026 
L 198.286394 84.996977 
L 197.930592 85.349189 
L 197.574789 85.728314 
L 197.218987 86.135793 
L 196.863184 86.573078 
L 196.507382 87.041632 
L 196.151579 87.542916 
L 195.795776 88.078384 
L 195.439974 88.64947 
L 195.084171 89.257583 
L 194.728369 89.904092 
L 194.372566 90.590316 
L 194.016764 91.317514 
L 193.660961 92.086869 
L 193.305159 92.899476 
L 192.949356 93.756327 
L 192.593554 94.658299 
L 192.237751 95.606135 
L 191.881949 96.600433 
L 191.526146 97.641626 
L 191.170344 98.729969 
L 190.814541 99.865522 
L 190.458739 101.048134 
L 190.102936 102.277427 
L 189.747134 103.552782 
L 189.391331 104.873321 
L 189.035529 106.237896 
L 188.679726 107.645073 
L 188.323924 109.09312 
L 187.968121 110.579996 
L 187.612319 112.103341 
L 187.256516 113.660464 
L 186.900714 115.248343 
L 186.544911 116.86361 
L 186.189109 118.502557 
L 185.833306 120.161127 
L 185.477504 121.834923 
L 185.121701 123.519202 
L 184.765899 125.208892 
L 184.410096 126.898592 
L 184.054294 128.582588 
L 183.698491 130.254866 
L 183.342689 131.909131 
L 182.986886 133.538825 
L 182.631083 135.137152 
L 182.275281 136.697105 
L 181.919478 138.211492 
L 181.563676 139.672972 
L 181.207873 141.074086 
L 180.852071 142.407298 
L 180.496268 143.665031 
L 180.140466 144.839712 
L 179.784663 145.923814 
L 179.428861 146.909904 
L 179.073058 147.790687 
L 178.717256 148.559058 
L 178.361453 149.20815 
L 178.005651 149.731383 
L 177.649848 150.122514 
L 177.294046 150.37569 
L 176.938243 150.485493 
L 176.582441 150.446991 
L 176.226638 150.255785 
L 175.870836 149.90805 
L 175.515033 149.400583 
L 175.159231 148.73084 
L 174.803428 147.896973 
L 174.447626 146.897864 
L 174.091823 145.733154 
L 173.736021 144.403269 
L 173.380218 142.909439 
L 173.024416 141.253717 
L 172.668613 139.369196 
L 172.312811 137.115018 
L 171.957008 134.721595 
L 171.601206 132.195332 
L 171.245403 129.543408 
L 170.889601 126.773745 
L 170.533798 123.894983 
L 170.177995 120.916443 
L 169.822193 117.848083 
L 169.46639 114.700451 
L 169.110588 111.484637 
L 168.754785 108.21221 
L 168.398983 104.895165 
L 168.04318 101.545851 
L 167.687378 98.176909 
L 167.331575 94.801195 
L 166.975773 91.431712 
L 166.61997 88.081531 
L 166.264168 84.763713 
L 165.908365 81.491237 
L 165.552563 78.276915 
L 165.19676 75.133318 
L 164.840958 72.072703 
L 164.485155 69.106931 
L 164.129353 66.247398 
L 163.77355 63.504968 
L 163.417748 60.889903 
L 163.061945 58.411799 
L 162.706143 56.079534 
L 162.35034 53.901211 
L 161.994538 51.88411 
L 161.638735 50.034646 
L 161.282933 48.358337 
L 160.92713 46.859771 
L 160.571328 45.542582 
L 160.215525 44.409439 
L 159.859723 43.46203 
L 159.50392 42.701067 
L 159.148118 42.126285 
L 158.792315 41.736456 
L 158.436513 41.482973 
L 158.08071 41.316743 
L 157.724907 41.336649 
L 157.369105 41.539058 
L 157.013302 41.919451 
L 156.6575 42.472459 
L 156.301697 43.19191 
L 155.945895 44.070882 
L 155.590092 45.101758 
L 155.23429 46.276285 
L 154.878487 47.585636 
L 154.522685 49.020481 
L 154.166882 50.571051 
L 153.81108 52.227211 
L 153.455277 53.978529 
L 153.099475 55.814354 
L 152.743672 57.723879 
L 152.38787 59.696221 
L 152.032067 61.720489 
L 151.676265 63.785851 
L 151.320462 65.818796 
L 150.96466 67.749287 
L 150.608857 69.674285 
L 150.253055 71.584656 
L 149.897252 73.471694 
L 149.54145 75.327165 
L 149.185647 77.143345 
L 148.829845 78.913048 
L 148.474042 80.629655 
L 148.11824 82.287134 
L 147.762437 83.880058 
L 147.406635 85.403618 
L 147.050832 86.853624 
L 146.69503 88.226512 
L 146.339227 89.519342 
L 145.983425 90.729784 
L 145.627622 91.856116 
L 145.271819 92.897201 
L 144.916017 93.852473 
L 144.560214 94.721915 
L 144.204412 95.506032 
L 143.848609 96.205826 
L 143.492807 96.822765 
L 143.137004 97.358752 
L 142.781202 97.816094 
L 142.425399 98.197467 
L 142.069597 98.50588 
L 141.713794 98.744642 
L 141.357992 98.917326 
L 141.002189 99.027733 
L 140.646387 99.07986 
L 140.290584 99.077863 
L 139.934782 99.026027 
L 139.578979 98.92873 
L 139.223177 98.790417 
L 138.867374 98.615569 
L 138.511572 98.408673 
L 138.155769 98.174201 
L 137.799967 97.916581 
L 137.444164 97.640178 
L 137.088362 97.349273 
L 136.732559 97.04804 
L 136.376757 96.740536 
L 136.020954 96.430682 
L 135.665152 96.122247 
L 135.309349 95.818841 
L 134.953547 95.523901 
L 134.597744 95.240684 
L 134.241942 94.972256 
L 133.886139 94.72149 
L 133.530337 94.491056 
L 133.174534 94.283418 
L 132.818731 94.100832 
L 132.462929 93.945338 
L 132.107126 93.818762 
L 131.751324 93.722711 
L 131.395521 93.658571 
L 131.039719 93.627509 
L 130.683916 93.630464 
L 130.328114 93.668153 
L 129.972311 93.741066 
L 129.616509 93.849464 
L 129.260706 93.993382 
L 128.904904 94.17262 
L 128.549101 94.386749 
L 128.193299 94.635106 
L 127.837496 94.916794 
L 127.481694 95.230679 
L 127.125891 95.575393 
L 126.770089 95.949329 
L 126.414286 96.350644 
L 126.058484 96.777259 
L 125.702681 97.226859 
L 125.346879 97.696897 
L 124.991076 98.184592 
L 124.635274 98.686941 
L 124.279471 99.200717 
L 123.923669 99.722478 
L 123.567866 100.248576 
L 123.212064 100.775164 
L 122.856261 101.29821 
L 122.500459 101.813508 
L 122.144656 102.316694 
L 121.788854 102.80326 
L 121.433051 103.268578 
L 121.077249 103.707916 
L 120.721446 104.116464 
L 120.365644 104.489354 
L 120.009841 104.821694 
L 119.654038 105.108591 
L 119.298236 105.345182 
L 118.942433 105.526669 
L 118.586631 105.648348 
L 118.230828 105.705647 
L 117.875026 105.694162 
L 117.519223 105.609691 
L 117.163421 105.448272 
L 116.807618 105.20622 
L 116.451816 104.880168 
L 116.096013 104.467096 
L 115.740211 103.964375 
L 115.384408 103.369798 
L 115.028606 102.681612 
L 114.672803 101.898553 
L 114.317001 101.019875 
L 113.961198 100.045373 
L 113.605396 98.975409 
L 113.249593 97.810934 
L 112.893791 96.553504 
L 112.537988 95.205289 
L 112.182186 93.769088 
L 111.826383 92.248326 
L 111.470581 90.647061 
L 111.114778 88.96997 
L 110.758976 87.222347 
L 110.403173 85.41008 
L 110.047371 83.539635 
L 109.691568 81.61803 
L 109.335766 79.652799 
L 108.979963 77.651962 
L 108.624161 75.567112 
L 108.268358 73.437102 
L 107.912556 71.311545 
L 107.556753 69.199544 
L 107.20095 67.110341 
L 106.845148 65.053265 
L 106.489345 63.03767 
L 106.133543 61.07288 
L 105.77774 59.168131 
L 105.421938 57.332512 
L 105.066135 55.574903 
L 104.710333 53.903923 
L 104.35453 52.327867 
L 103.998728 50.854652 
L 103.642925 49.491768 
L 103.287123 48.246222 
L 102.93132 47.12449 
L 102.575518 46.132477 
L 102.219715 45.275471 
L 101.863913 44.558107 
L 101.50811 43.958415 
L 101.152308 43.493102 
L 100.796505 43.180306 
L 100.440703 43.022362 
L 100.0849 43.020746 
L 99.729098 43.176058 
L 99.373295 43.488021 
L 99.017493 43.955476 
L 98.66169 44.576394 
L 98.305888 45.347887 
L 97.950085 46.266228 
L 97.594283 47.326876 
L 97.23848 48.524514 
L 96.882678 49.853081 
L 96.526875 51.305816 
L 96.171073 52.875311 
L 95.81527 54.553558 
L 95.459468 56.332011 
L 95.103665 58.201641 
L 94.747862 60.153002 
L 94.39206 62.15445 
L 94.036257 64.207992 
L 93.680455 66.314321 
L 93.324652 68.463648 
L 92.96885 70.646076 
L 92.613047 72.851649 
L 92.257245 75.070411 
L 91.901442 77.292465 
L 91.54564 79.508024 
L 91.189837 81.707465 
L 90.834035 83.88138 
L 90.478232 86.020629 
L 90.12243 88.116379 
L 89.766627 90.160154 
L 89.410825 92.143874 
L 89.055022 94.059893 
L 88.69922 95.901032 
L 88.343417 97.660612 
L 87.987615 99.33248 
L 87.631812 100.911036 
L 87.27601 102.36275 
L 86.920207 103.699706 
L 86.564405 104.92975 
L 86.208602 106.05052 
L 85.8528 107.060302 
L 85.496997 107.958027 
L 85.141195 108.743249 
L 84.785392 109.416139 
L 84.42959 109.977458 
L 84.073787 110.428537 
L 83.717985 110.771254 
L 83.362182 111.008009 
L 83.00638 111.141691 
L 82.650577 111.175651 
L 82.294774 111.113671 
L 81.938972 110.959933 
L 81.583169 110.718985 
L 81.227367 110.39571 
L 80.871564 109.995292 
L 80.515762 109.523186 
L 80.159959 108.917429 
L 79.804157 108.220929 
L 79.448354 107.460168 
L 79.092552 106.641808 
L 78.736749 105.772739 
L 78.380947 104.860049 
L 78.025144 103.910984 
L 77.669342 102.932917 
L 77.313539 101.933312 
L 76.957737 100.919689 
L 76.601934 99.899583 
L 76.246132 98.880516 
L 75.890329 97.869949 
L 75.534527 96.875256 
L 75.178724 95.903675 
L 74.822922 94.962277 
L 74.467119 94.057924 
L 74.111317 93.19723 
L 73.755514 92.386523 
L 73.399712 91.631805 
L 73.043909 90.938712 
L 72.688107 90.312475 
L 72.332304 89.75788 
L 71.976502 89.279233 
L 71.620699 88.880319 
L 71.264897 88.564367 
L 70.909094 88.334013 
L 70.553292 88.191269 
L 70.197489 88.13749 
L 69.841686 88.173344 
L 69.485884 88.298788 
L 69.130081 88.51304 
L 68.774279 88.814567 
L 68.418476 89.20106 
L 68.062674 89.669433 
L 67.706871 90.215808 
L 67.351069 90.835519 
L 66.995266 91.523116 
L 66.639464 92.272377 
L 66.283661 93.076324 
L 65.927859 93.927248 
L 65.572056 94.81674 
L 65.216254 95.735731 
L 64.860451 96.674538 
L 64.504649 97.622913 
L 64.148846 98.570111 
L 63.793044 99.504952 
L 63.437241 100.415899 
L 63.081439 101.291138 
L 62.725636 102.118668 
L 62.369834 102.886395 
L 62.014031 103.582227 
L 61.658229 104.194183 
L 61.302426 104.710501 
L 60.946624 105.119741 
L 60.590821 105.410908 
L 60.235019 105.573558 
L 59.879216 105.597912 
L 59.523414 105.474974 
L 59.167611 105.196633 
L 58.811809 104.677107 
L 58.456006 103.988935 
L 58.100204 103.138836 
L 57.744401 102.123291 
L 57.388599 100.940009 
L 57.032796 99.58801 
L 56.676993 98.06768 
L 56.321191 96.380824 
L 55.965388 94.530711 
L 55.609586 92.522095 
L 55.253783 90.361237 
L 54.897981 88.055901 
L 54.542178 85.615345 
L 54.186376 83.050291 
L 53.830573 80.372886 
L 53.474771 77.59664 
L 53.118968 74.736361 
L 52.763166 71.808066 
L 52.407363 68.828879 
L 52.051561 65.816923 
L 51.695758 62.746823 
L 51.339956 59.680915 
L 50.984153 56.64431 
L 50.628351 53.658565 
L 50.272548 50.745431 
L 49.916746 47.926669 
L 49.560943 45.223876 
L 49.205141 42.658296 
L 48.849338 40.250642 
L 48.493536 38.020913 
L 48.137733 35.988216 
L 47.781931 34.170601 
L 47.426128 32.584895 
L 47.070326 31.246547 
L 46.714523 30.16949 
L 46.358721 29.366009 
L 46.002918 28.846626 
L 45.647116 28.62 
L 45.291313 28.692842 
L 44.935511 29.069849 
L 44.579708 29.704166 
L 44.223905 30.642972 
L 43.868103 31.887771 
L 43.5123 33.435974 
L 43.156498 35.282948 
L 42.800695 37.422048 
L 42.444893 39.844664 
L 42.08909 42.540294 
L 41.733288 45.496619 
L 41.377485 48.699612 
L 41.021683 52.133645 
L 40.66588 55.781618 
L 40.310078 59.625098 
L 39.954275 63.644468 
L 39.598473 67.819087 
L 39.24267 72.127452 
L 38.886868 76.547372 
L 38.531065 81.05614 
L 38.175263 85.630709 
L 37.81946 90.247873 
z
" clip-path="url(#p62a1f6d635)" style="fill: #ff7f0e; fill-opacity: 0.25"/>
   </g>
   <g id="matplotlib.axis_1">
    <g id="xtick_1">
     <g id="line2d_1">
      <defs>
       <path id="m91950cf8db" d="M 0 0 
L 0 3.5 
" style="stroke: #000000; stroke-width: 0.8"/>
      </defs>
      <g>
       <use xlink:href="#m91950cf8db" x="37.81946" y="160.92" style="stroke: #000000; stroke-width: 0.8"/>
      </g>
     </g>
     <g id="text_1">
      <!-- 0 -->
      <g transform="translate(34.63821 175.518438)scale(0.1 -0.1)">
       <defs>
        <path id="DejaVuSans-30" d="M 2034 4250 
Q 1547 4250 1301 3770 
Q 1056 3291 1056 2328 
Q 1056 1369 1301 889 
Q 1547 409 2034 409 
Q 2525 409 2770 889 
Q 3016 1369 3016 2328 
Q 3016 3291 2770 3770 
Q 2525 4250 2034 4250 
z
M 2034 4750 
Q 2819 4750 3233 4129 
Q 3647 3509 3647 2328 
Q 3647 1150 3233 529 
Q 2819 -91 2034 -91 
Q 1250 -91 836 529 
Q 422 1150 422 2328 
Q 422 3509 836 4129 
Q 1250 4750 2034 4750 
z
" transform="scale(0.015625)"/>
       </defs>
       <use xlink:href="#DejaVuSans-30"/>
      </g>
     </g>
    </g>
    <g id="xtick_2">
     <g id="line2d_2">
      <g>
       <use xlink:href="#m91950cf8db" x="73.328551" y="160.92" style="stroke: #000000; stroke-width: 0.8"/>
      </g>
     </g>
     <g id="text_2">
      <!-- 5 -->
      <g transform="translate(70.147301 175.518438)scale(0.1 -0.1)">
       <defs>
        <path id="DejaVuSans-35" d="M 691 4666 
L 3169 4666 
L 3169 4134 
L 1269 4134 
L 1269 2991 
Q 1406 3038 1543 3061 
Q 1681 3084 1819 3084 
Q 2600 3084 3056 2656 
Q 3513 2228 3513 1497 
Q 3513 744 3044 326 
Q 2575 -91 1722 -91 
Q 1428 -91 1123 -41 
Q 819 9 494 109 
L 494 744 
Q 775 591 1075 516 
Q 1375 441 1709 441 
Q 2250 441 2565 725 
Q 2881 1009 2881 1497 
Q 2881 1984 2565 2268 
Q 2250 2553 1709 2553 
Q 1456 2553 1204 2497 
Q 953 2441 691 2322 
L 691 4666 
z
" transform="scale(0.015625)"/>
       </defs>
       <use xlink:href="#DejaVuSans-35"/>
      </g>
     </g>
    </g>
    <g id="xtick_3">
     <g id="line2d_3">
      <g>
       <use xlink:href="#m91950cf8db" x="108.837642" y="160.92" style="stroke: #000000; stroke-width: 0.8"/>
      </g>
     </g>
     <g id="text_3">
      <!-- 10 -->
      <g transform="translate(102.475142 175.518438)scale(0.1 -0.1)">
       <defs>
        <path id="DejaVuSans-31" d="M 794 531 
L 1825 531 
L 1825 4091 
L 703 3866 
L 703 4441 
L 1819 4666 
L 2450 4666 
L 2450 531 
L 3481 531 
L 3481 0 
L 794 0 
L 794 531 
z
" transform="scale(0.015625)"/>
       </defs>
       <use xlink:href="#DejaVuSans-31"/>
       <use xlink:href="#DejaVuSans-30" x="63.623047"/>
      </g>
     </g>
    </g>
    <g id="xtick_4">
     <g id="line2d_4">
      <g>
       <use xlink:href="#m91950cf8db" x="144.346733" y="160.92" style="stroke: #000000; stroke-width: 0.8"/>
      </g>
     </g>
     <g id="text_4">
      <!-- 15 -->
      <g transform="translate(137.984233 175.518438)scale(0.1 -0.1)">
       <use xlink:href="#DejaVuSans-31"/>
       <use xlink:href="#DejaVuSans-35" x="63.623047"/>
      </g>
     </g>
    </g>
    <g id="xtick_5">
     <g id="line2d_5">
      <g>
       <use xlink:href="#m91950cf8db" x="179.855824" y="160.92" style="stroke: #000000; stroke-width: 0.8"/>
      </g>
     </g>
     <g id="text_5">
      <!-- 20 -->
      <g transform="translate(173.493324 175.518438)scale(0.1 -0.1)">
       <defs>
        <path id="DejaVuSans-32" d="M 1228 531 
L 3431 531 
L 3431 0 
L 469 0 
L 469 531 
Q 828 903 1448 1529 
Q 2069 2156 2228 2338 
Q 2531 2678 2651 2914 
Q 2772 3150 2772 3378 
Q 2772 3750 2511 3984 
Q 2250 4219 1831 4219 
Q 1534 4219 1204 4116 
Q 875 4013 500 3803 
L 500 4441 
Q 881 4594 1212 4672 
Q 1544 4750 1819 4750 
Q 2544 4750 2975 4387 
Q 3406 4025 3406 3419 
Q 3406 3131 3298 2873 
Q 3191 2616 2906 2266 
Q 2828 2175 2409 1742 
Q 1991 1309 1228 531 
z
" transform="scale(0.015625)"/>
       </defs>
       <use xlink:href="#DejaVuSans-32"/>
       <use xlink:href="#DejaVuSans-30" x="63.623047"/>
      </g>
     </g>
    </g>
    <g id="xtick_6">
     <g id="line2d_6">
      <g>
       <use xlink:href="#m91950cf8db" x="215.364915" y="160.92" style="stroke: #000000; stroke-width: 0.8"/>
      </g>
     </g>
     <g id="text_6">
      <!-- 25 -->
      <g transform="translate(209.002415 175.518438)scale(0.1 -0.1)">
       <use xlink:href="#DejaVuSans-32"/>
       <use xlink:href="#DejaVuSans-35" x="63.623047"/>
      </g>
     </g>
    </g>
   </g>
   <g id="matplotlib.axis_2">
    <g id="ytick_1">
     <g id="line2d_7">
      <defs>
       <path id="m2a4cdd0033" d="M 0 0 
L -3.5 0 
" style="stroke: #000000; stroke-width: 0.8"/>
      </defs>
      <g>
       <use xlink:href="#m2a4cdd0033" x="28.942188" y="142.408812" style="stroke: #000000; stroke-width: 0.8"/>
      </g>
     </g>
     <g id="text_7">
      <!-- −2 -->
      <g transform="translate(7.2 146.208031)scale(0.1 -0.1)">
       <defs>
        <path id="DejaVuSans-2212" d="M 678 2272 
L 4684 2272 
L 4684 1741 
L 678 1741 
L 678 2272 
z
" transform="scale(0.015625)"/>
       </defs>
       <use xlink:href="#DejaVuSans-2212"/>
       <use xlink:href="#DejaVuSans-32" x="83.789062"/>
      </g>
     </g>
    </g>
    <g id="ytick_2">
     <g id="line2d_8">
      <g>
       <use xlink:href="#m2a4cdd0033" x="28.942188" y="114.589032" style="stroke: #000000; stroke-width: 0.8"/>
      </g>
     </g>
     <g id="text_8">
      <!-- −1 -->
      <g transform="translate(7.2 118.388251)scale(0.1 -0.1)">
       <use xlink:href="#DejaVuSans-2212"/>
       <use xlink:href="#DejaVuSans-31" x="83.789062"/>
      </g>
     </g>
    </g>
    <g id="ytick_3">
     <g id="line2d_9">
      <g>
       <use xlink:href="#m2a4cdd0033" x="28.942188" y="86.769253" style="stroke: #000000; stroke-width: 0.8"/>
      </g>
     </g>
     <g id="text_9">
      <!-- 0 -->
      <g transform="translate(15.579688 90.568472)scale(0.1 -0.1)">
       <use xlink:href="#DejaVuSans-30"/>
      </g>
     </g>
    </g>
    <g id="ytick_4">
     <g id="line2d_10">
      <g>
       <use xlink:href="#m2a4cdd0033" x="28.942188" y="58.949473" style="stroke: #000000; stroke-width: 0.8"/>
      </g>
     </g>
     <g id="text_10">
      <!-- 1 -->
      <g transform="translate(15.579688 62.748692)scale(0.1 -0.1)">
       <use xlink:href="#DejaVuSans-31"/>
      </g>
     </g>
    </g>
    <g id="ytick_5">
     <g id="line2d_11">
      <g>
       <use xlink:href="#m2a4cdd0033" x="28.942188" y="31.129694" style="stroke: #000000; stroke-width: 0.8"/>
      </g>
     </g>
     <g id="text_11">
      <!-- 2 -->
      <g transform="translate(15.579688 34.928913)scale(0.1 -0.1)">
       <use xlink:href="#DejaVuSans-32"/>
      </g>
     </g>
    </g>
   </g>
   <g id="line2d_12">
    <path d="M 37.81946 90.247873 
L 39.954275 63.845693 
L 41.377485 48.910004 
L 42.444893 40.013921 
L 43.156498 35.409572 
L 43.868103 31.964751 
L 44.579708 29.728911 
L 44.935511 29.070866 
L 45.291313 28.718719 
L 45.647116 28.669376 
L 46.002918 28.917714 
L 46.358721 29.456639 
L 47.070326 31.368447 
L 47.781931 34.311688 
L 48.493536 38.16788 
L 49.560943 45.354322 
L 50.984153 56.711115 
L 54.186376 83.192485 
L 55.609586 92.716286 
L 56.676993 98.258157 
L 57.388599 101.102576 
L 58.100204 103.251226 
L 58.811809 104.716441 
L 59.523414 105.531209 
L 59.879216 105.709989 
L 60.235019 105.746521 
L 60.590821 105.649487 
L 61.302426 105.092953 
L 62.014031 104.122352 
L 63.081439 102.084173 
L 64.860451 97.891319 
L 66.639464 93.845649 
L 67.706871 91.940412 
L 68.418476 90.993074 
L 69.130081 90.342992 
L 69.841686 90.010558 
L 70.553292 90.004892 
L 71.264897 90.324402 
L 71.976502 90.957539 
L 72.688107 91.883692 
L 73.755514 93.757609 
L 74.822922 96.099208 
L 76.601934 100.616711 
L 78.736749 106.032887 
L 79.804157 108.303902 
L 80.871564 110.043812 
L 81.583169 110.828187 
L 82.294774 111.262236 
L 83.00638 111.309542 
L 83.717985 110.940361 
L 84.42959 110.132513 
L 85.141195 108.872181 
L 85.8528 107.154604 
L 86.920207 103.734192 
L 87.987615 99.356654 
L 89.410825 92.227166 
L 91.189837 81.813599 
L 95.103665 58.222798 
L 96.526875 51.383463 
L 97.594283 47.430458 
L 98.305888 45.457398 
L 99.017493 44.060609 
L 99.729098 43.266303 
L 100.0849 43.099761 
L 100.440703 43.087809 
L 100.796505 43.230047 
L 101.152308 43.525249 
L 101.863913 44.565588 
L 102.575518 46.183061 
L 103.287123 48.339969 
L 104.35453 52.478042 
L 105.421938 57.516904 
L 107.20095 67.266537 
L 111.114778 89.429841 
L 112.537988 96.088675 
L 113.605396 100.231727 
L 114.672803 103.562146 
L 115.740211 106.056012 
L 116.451816 107.261744 
L 117.163421 108.118672 
L 117.875026 108.648426 
L 118.586631 108.878005 
L 119.298236 108.838678 
L 120.009841 108.564869 
L 120.721446 108.093074 
L 121.788854 107.096325 
L 123.212064 105.423177 
L 126.414286 101.523692 
L 127.837496 100.216793 
L 128.904904 99.532138 
L 129.972311 99.132673 
L 131.039719 99.025516 
L 132.107126 99.197956 
L 133.174534 99.617743 
L 134.597744 100.470953 
L 138.155769 102.874364 
L 139.223177 103.242776 
L 139.934782 103.28853 
L 140.646387 103.13285 
L 141.357992 102.741684 
L 142.069597 102.083508 
L 142.781202 101.130424 
L 143.492807 99.859288 
L 144.560214 97.320306 
L 145.627622 94.000421 
L 146.69503 89.913689 
L 148.11824 83.385218 
L 149.897252 73.916993 
L 153.455277 54.326195 
L 154.522685 49.43602 
L 155.590092 45.503722 
L 156.301697 43.542096 
L 157.013302 42.18675 
L 157.724907 41.49352 
L 158.08071 41.409395 
L 158.436513 41.50619 
L 158.792315 41.78725 
L 159.148118 42.254999 
L 159.859723 43.755502 
L 160.571328 46.007826 
L 161.282933 48.99635 
L 162.35034 54.787041 
L 163.417748 61.992475 
L 164.840958 73.385333 
L 166.975773 92.825082 
L 169.822193 118.832281 
L 171.245403 130.110165 
L 172.312811 137.291994 
L 173.380218 143.173804 
L 174.447626 147.64055 
L 175.159231 149.805414 
L 175.870836 151.319655 
L 176.582441 152.196416 
L 176.938243 152.402829 
L 177.294046 152.459619 
L 177.649848 152.371257 
L 178.005651 152.142726 
L 178.717256 151.287351 
L 179.428861 149.941759 
L 180.140466 148.159305 
L 181.207873 144.791519 
L 182.631083 139.315797 
L 184.765899 129.925781 
L 187.968121 115.793703 
L 189.747134 108.91873 
L 191.170344 104.173709 
L 192.593554 100.15205 
L 194.016764 96.842059 
L 195.439974 94.192167 
L 196.863184 92.126019 
L 198.286394 90.555451 
L 199.709604 89.390647 
L 201.132814 88.547265 
L 202.556024 87.950792 
L 204.335037 87.458119 
L 206.469852 87.114996 
L 209.316272 86.897718 
L 214.297507 86.787956 
L 215.364915 86.781238 
L 215.364915 86.781238 
" clip-path="url(#p62a1f6d635)" style="fill: none; stroke: #1f77b4; stroke-width: 2; stroke-linecap: square"/>
   </g>
   <g id="line2d_13">
    <path d="M 37.81946 90.247873 
L 39.954275 63.665409 
L 41.377485 48.717865 
L 42.444893 39.857609 
L 43.156498 35.291913 
L 43.868103 31.892851 
L 44.579708 29.7057 
L 44.935511 29.06991 
L 45.291313 28.694363 
L 45.647116 28.622838 
L 46.002918 28.850631 
L 46.358721 29.371027 
L 47.070326 31.25312 
L 47.781931 34.178096 
L 48.493536 38.028694 
L 49.560943 45.230896 
L 50.984153 56.648119 
L 54.186376 83.060626 
L 55.609586 92.538298 
L 56.676993 98.085405 
L 57.388599 100.956299 
L 58.100204 103.150967 
L 58.811809 104.681679 
L 59.167611 105.197321 
L 59.523414 105.482009 
L 59.879216 105.61245 
L 60.235019 105.596815 
L 60.590821 105.444151 
L 61.302426 104.767649 
L 62.014031 103.668611 
L 63.081439 101.430996 
L 64.860451 96.923852 
L 66.639464 92.640089 
L 67.706871 90.647842 
L 68.418476 89.669255 
L 69.130081 89.009955 
L 69.841686 88.690039 
L 70.553292 88.717657 
L 71.264897 89.089657 
L 71.976502 89.792438 
L 72.688107 90.802942 
L 73.755514 92.824939 
L 75.178724 96.247318 
L 79.804157 108.247015 
L 80.515762 109.526284 
L 81.227367 110.42035 
L 81.938972 110.998684 
L 82.650577 111.221691 
L 83.362182 111.055439 
L 84.073787 110.472595 
L 84.785392 109.453326 
L 85.496997 107.986122 
L 86.208602 106.06851 
L 87.27601 102.36596 
L 88.343417 97.669387 
L 89.766627 90.178037 
L 91.901442 77.309001 
L 94.747862 60.153767 
L 96.171073 52.884718 
L 97.23848 48.538467 
L 97.950085 46.28188 
L 98.66169 44.592465 
L 99.373295 43.503065 
L 99.729098 43.190005 
L 100.0849 43.033188 
L 100.440703 43.032881 
L 100.796505 43.188481 
L 101.152308 43.498514 
L 101.863913 44.559435 
L 102.575518 46.141992 
L 103.287123 48.264991 
L 104.35453 52.361085 
L 105.421938 57.377784 
L 106.845148 65.102048 
L 111.114778 89.165014 
L 112.537988 95.627322 
L 113.605396 99.627119 
L 114.672803 102.829541 
L 115.740211 105.218461 
L 116.451816 106.369251 
L 117.163421 107.183631 
L 117.875026 107.682638 
L 118.586631 107.891933 
L 119.298236 107.840808 
L 120.009841 107.561234 
L 121.077249 106.787645 
L 122.144656 105.693393 
L 123.923669 103.47197 
L 126.414286 100.35008 
L 127.837496 98.942597 
L 128.904904 98.183867 
L 129.972311 97.723094 
L 131.039719 97.577217 
L 132.107126 97.741084 
L 133.174534 98.18655 
L 134.241942 98.862401 
L 136.020954 100.292542 
L 137.799967 101.695457 
L 138.867374 102.294485 
L 139.578979 102.513788 
L 140.290584 102.545021 
L 141.002189 102.352054 
L 141.713794 101.901301 
L 142.425399 101.162761 
L 143.137004 100.111049 
L 143.848609 98.726413 
L 144.916017 95.998482 
L 145.983425 92.481703 
L 147.050832 88.20768 
L 148.474042 81.474825 
L 150.253055 71.877276 
L 153.455277 54.28854 
L 154.522685 49.393294 
L 155.590092 45.465115 
L 156.301697 43.510263 
L 157.013302 42.16394 
L 157.724907 41.481061 
L 158.08071 41.402319 
L 158.436513 41.50449 
L 158.792315 41.783691 
L 159.148118 42.24639 
L 159.859723 43.737771 
L 160.571328 45.982739 
L 161.282933 48.966076 
L 162.35034 54.75346 
L 163.417748 61.960871 
L 164.840958 73.363168 
L 166.975773 92.824648 
L 169.822193 118.852385 
L 171.245403 130.127342 
L 172.312811 137.2986 
L 173.380218 143.18537 
L 174.447626 147.677109 
L 175.159231 149.861437 
L 175.870836 151.396268 
L 176.582441 152.293471 
L 176.938243 152.509578 
L 177.294046 152.575435 
L 177.649848 152.495291 
L 178.005651 152.2739 
L 178.717256 151.428637 
L 179.428861 150.086053 
L 180.140466 148.297749 
L 181.207873 144.901328 
L 182.631083 139.3454 
L 184.765899 129.746521 
L 187.968121 115.196616 
L 189.747134 108.124723 
L 191.170344 103.282637 
L 192.593554 99.233982 
L 194.016764 95.968823 
L 195.084171 93.997622 
L 196.151579 92.39157 
L 197.218987 91.102781 
L 198.642197 89.78978 
L 200.065407 88.831939 
L 201.488617 88.123854 
L 203.623432 87.349783 
L 206.469852 86.585992 
L 210.027877 85.848341 
L 212.874297 85.454158 
L 215.364915 85.308903 
L 215.364915 85.308903 
" clip-path="url(#p62a1f6d635)" style="fill: none; stroke: #808080; stroke-opacity: 0.25; stroke-width: 1.5; stroke-linecap: square"/>
   </g>
   <g id="line2d_14">
    <path d="M 37.81946 90.247873 
L 39.954275 63.989801 
L 41.377485 49.058774 
L 42.444893 40.131119 
L 43.156498 35.495581 
L 43.868103 32.015836 
L 44.579708 29.744889 
L 44.935511 29.071512 
L 45.291313 28.734911 
L 45.647116 28.699742 
L 46.002918 28.96064 
L 46.358721 29.510314 
L 47.070326 31.437668 
L 47.781931 34.388156 
L 48.493536 38.243539 
L 49.560943 45.415869 
L 50.984153 56.738572 
L 54.186376 83.229889 
L 55.253783 90.587109 
L 56.321191 96.608487 
L 57.388599 101.119639 
L 58.100204 103.258988 
L 58.811809 104.717741 
L 59.523414 105.53104 
L 59.879216 105.707633 
L 60.235019 105.739774 
L 60.590821 105.635898 
L 61.302426 105.057499 
L 62.014031 104.05314 
L 63.081439 101.941032 
L 64.860451 97.569228 
L 66.639464 93.305027 
L 67.706871 91.271628 
L 68.418476 90.248103 
L 69.130081 89.533515 
L 69.841686 89.151436 
L 70.553292 89.113523 
L 71.264897 89.419922 
L 71.976502 90.059926 
L 72.688107 91.012816 
L 73.755514 92.961569 
L 74.822922 95.413044 
L 76.601934 100.161831 
L 78.736749 105.861359 
L 79.804157 108.248545 
L 80.515762 109.526492 
L 81.227367 110.422393 
L 81.938972 111.002832 
L 82.650577 111.228118 
L 83.362182 111.064026 
L 84.073787 110.482821 
L 84.785392 109.464237 
L 85.496997 107.996396 
L 86.208602 106.076604 
L 87.27601 102.367887 
L 88.343417 97.676253 
L 89.766627 90.197317 
L 91.901442 77.336033 
L 94.747862 60.155683 
L 96.171073 52.912073 
L 97.23848 48.582423 
L 97.950085 46.333085 
L 98.66169 44.646382 
L 99.373295 43.554205 
L 99.729098 43.237515 
L 100.0849 43.07554 
L 100.440703 43.068568 
L 100.796505 43.216051 
L 101.152308 43.516611 
L 101.863913 44.563768 
L 102.575518 46.172051 
L 103.287123 48.321964 
L 104.35453 52.454944 
L 105.421938 57.495509 
L 107.20095 67.257945 
L 111.114778 89.459113 
L 112.537988 96.176162 
L 113.605396 100.385222 
L 114.672803 103.798653 
L 115.740211 106.388288 
L 116.451816 107.662146 
L 117.163421 108.588417 
L 117.875026 109.186812 
L 118.586631 109.482531 
L 119.298236 109.50527 
L 120.009841 109.288214 
L 120.721446 108.867023 
L 121.788854 107.933943 
L 123.212064 106.324504 
L 126.414286 102.524851 
L 127.837496 101.271972 
L 128.904904 100.640882 
L 129.972311 100.307731 
L 131.039719 100.277995 
L 132.107126 100.534357 
L 133.174534 101.037303 
L 134.597744 101.984188 
L 137.444164 104.037996 
L 138.511572 104.532845 
L 139.223177 104.684329 
L 139.934782 104.651947 
L 140.646387 104.401877 
L 141.357992 103.902543 
L 142.069597 103.125543 
L 142.781202 102.046587 
L 143.492807 100.646424 
L 144.560214 97.916667 
L 145.627622 94.420513 
L 146.69503 90.182573 
L 148.11824 83.503484 
L 149.897252 73.935364 
L 153.455277 54.296235 
L 154.522685 49.385707 
L 155.590092 45.44181 
L 156.301697 43.480867 
L 157.013302 42.134692 
L 157.369105 41.710339 
L 157.724907 41.459991 
L 158.08071 41.388744 
L 158.436513 41.500808 
L 158.792315 41.775033 
L 159.148118 42.222949 
L 159.859723 43.677634 
L 160.571328 45.877162 
L 161.282933 48.807763 
L 162.35034 54.506813 
L 163.417748 61.622372 
L 164.840958 72.913249 
L 166.975773 92.277035 
L 170.177995 121.410764 
L 171.601206 132.428772 
L 172.668613 139.386732 
L 173.736021 144.603 
L 174.447626 147.235377 
L 175.159231 149.194861 
L 175.870836 150.482597 
L 176.582441 151.111674 
L 176.938243 151.186349 
L 177.294046 151.106205 
L 177.649848 150.875795 
L 178.361453 149.985047 
L 179.073058 148.560558 
L 179.784663 146.655299 
L 180.852071 143.023857 
L 182.275281 137.066158 
L 184.410096 126.770687 
L 187.612319 111.317778 
L 189.391331 103.982508 
L 190.814541 99.099314 
L 191.881949 96.06299 
L 192.949356 93.563902 
L 194.016764 91.579607 
L 195.084171 90.07132 
L 196.151579 88.988508 
L 197.218987 88.273197 
L 198.286394 87.863766 
L 199.353802 87.698138 
L 200.777012 87.75345 
L 202.556024 88.086324 
L 206.825654 89.004412 
L 208.96047 89.173248 
L 211.095285 89.100943 
L 214.297507 88.719692 
L 215.364915 88.573993 
L 215.364915 88.573993 
" clip-path="url(#p62a1f6d635)" style="fill: none; stroke: #808080; stroke-opacity: 0.25; stroke-width: 1.5; stroke-linecap: square"/>
   </g>
   <g id="line2d_15">
    <path d="M 37.81946 90.247874 
L 39.954275 63.89519 
L 41.377485 48.959768 
L 42.444893 40.051871 
L 43.156498 35.436599 
L 43.868103 31.980195 
L 44.579708 29.733509 
L 44.935511 29.071046 
L 45.291313 28.723093 
L 45.647116 28.677273 
L 46.002918 28.928406 
L 46.358721 29.469365 
L 47.070326 31.382979 
L 47.781931 34.3253 
L 48.493536 38.178515 
L 49.560943 45.35876 
L 50.984153 56.709772 
L 54.186376 83.17177 
L 55.609586 92.677646 
L 56.676993 98.213127 
L 57.388599 101.060346 
L 58.100204 103.21957 
L 58.811809 104.704564 
L 59.523414 105.513187 
L 59.879216 105.673112 
L 60.235019 105.688211 
L 60.590821 105.567241 
L 61.302426 104.955857 
L 62.014031 103.922404 
L 63.081439 101.779664 
L 64.860451 97.4081 
L 66.639464 93.217774 
L 67.706871 91.257933 
L 68.418476 90.2907 
L 69.130081 89.634539 
L 69.841686 89.309631 
L 70.553292 89.324294 
L 71.264897 89.675641 
L 71.976502 90.350444 
L 72.688107 91.326161 
L 73.755514 93.28474 
L 75.178724 96.606576 
L 79.804157 108.277369 
L 80.515762 109.529994 
L 81.227367 110.450755 
L 81.938972 111.048085 
L 82.650577 111.282433 
L 83.362182 111.120296 
L 84.073787 110.535123 
L 84.785392 109.508161 
L 85.496997 108.029202 
L 86.208602 106.097213 
L 87.27601 102.371398 
L 88.343417 97.685162 
L 89.766627 90.21272 
L 91.901442 77.344355 
L 94.747862 60.155513 
L 96.171073 52.905942 
L 97.23848 48.568867 
L 97.950085 46.314751 
L 98.66169 44.624634 
L 99.373295 43.53145 
L 99.729098 43.215444 
L 100.0849 43.055067 
L 100.440703 43.050669 
L 100.796505 43.201738 
L 101.152308 43.506909 
L 101.863913 44.561304 
L 102.575518 46.154044 
L 103.287123 48.286184 
L 104.35453 52.392155 
L 105.421938 57.412236 
L 107.20095 67.179911 
L 110.758976 87.406502 
L 112.182186 94.178444 
L 113.249593 98.446719 
L 114.317001 101.936301 
L 115.384408 104.624742 
L 116.096013 105.981174 
L 116.807618 107.006629 
L 117.519223 107.723509 
L 118.230828 108.159275 
L 118.942433 108.345178 
L 119.654038 108.314978 
L 120.365644 108.103729 
L 121.433051 107.524243 
L 122.856261 106.437546 
L 126.414286 103.525975 
L 127.837496 102.695017 
L 128.904904 102.281519 
L 129.972311 102.064119 
L 131.039719 102.043938 
L 132.107126 102.209954 
L 133.530337 102.678382 
L 135.665152 103.70364 
L 137.444164 104.520888 
L 138.511572 104.813343 
L 139.578979 104.829034 
L 140.290584 104.630009 
L 141.002189 104.224075 
L 141.713794 103.578662 
L 142.425399 102.663491 
L 143.137004 101.451815 
L 144.204412 99.032039 
L 145.271819 95.850272 
L 146.339227 91.899305 
L 147.762437 85.51109 
L 149.54145 76.09015 
L 153.455277 54.482822 
L 154.878487 48.210616 
L 155.945895 44.646928 
L 156.6575 42.951097 
L 157.369105 41.872201 
L 157.724907 41.580551 
L 158.08071 41.461437 
L 158.436513 41.519382 
L 158.792315 41.816423 
L 159.50392 43.033739 
L 160.215525 45.013521 
L 160.92713 47.743785 
L 161.994538 53.180626 
L 163.061945 60.080011 
L 164.485155 71.150243 
L 166.264168 86.996789 
L 169.822193 119.353295 
L 171.245403 130.389965 
L 172.312811 137.374106 
L 173.736021 145.000839 
L 174.803428 149.156488 
L 175.515033 151.096396 
L 176.226638 152.3761 
L 176.938243 153.012848 
L 177.294046 153.098528 
L 177.649848 153.034823 
L 178.005651 152.826752 
L 178.717256 152.000077 
L 179.428861 150.667962 
L 180.140466 148.885626 
L 181.207873 145.498507 
L 182.631083 139.977207 
L 184.765899 130.53586 
L 187.612319 117.999715 
L 189.391331 111.173857 
L 190.814541 106.540896 
L 192.237751 102.699647 
L 193.660961 99.625381 
L 194.728369 97.778358 
L 195.795776 96.275586 
L 196.863184 95.066971 
L 198.286394 93.824507 
L 199.709604 92.898835 
L 201.488617 92.037796 
L 203.979234 91.134575 
L 207.893062 90.000717 
L 211.095285 89.276403 
L 213.585902 88.92285 
L 215.364915 88.802747 
L 215.364915 88.802747 
" clip-path="url(#p62a1f6d635)" style="fill: none; stroke: #808080; stroke-opacity: 0.25; stroke-width: 1.5; stroke-linecap: square"/>
   </g>
   <g id="line2d_16">
    <path d="M 37.81946 90.247873 
L 39.954275 63.931924 
L 41.377485 48.999335 
L 42.444893 40.085317 
L 43.156498 35.462779 
L 43.868103 31.996994 
L 44.579708 29.739252 
L 44.935511 29.07129 
L 45.291313 28.729519 
L 45.647116 28.689981 
L 46.002918 28.947388 
L 46.358721 29.494495 
L 47.070326 31.419495 
L 47.781931 34.371034 
L 48.493536 38.230098 
L 49.560943 45.410304 
L 50.984153 56.740533 
L 54.542178 85.853 
L 55.609586 92.81381 
L 56.676993 98.357301 
L 57.388599 101.189234 
L 58.100204 103.31256 
L 58.811809 104.738401 
L 59.523414 105.563298 
L 59.879216 105.774617 
L 60.235019 105.847278 
L 60.590821 105.789835 
L 61.302426 105.322113 
L 62.014031 104.451413 
L 63.081439 102.5777 
L 64.860451 98.66735 
L 66.639464 94.85872 
L 67.706871 93.049031 
L 68.418476 92.140111 
L 69.130081 91.506428 
L 69.841686 91.167922 
L 70.553292 91.134251 
L 71.264897 91.4053 
L 71.976502 91.971823 
L 72.688107 92.816186 
L 73.755514 94.546644 
L 74.822922 96.731216 
L 76.601934 100.990444 
L 79.092552 106.930911 
L 80.159959 108.966552 
L 81.227367 110.512638 
L 81.938972 111.146888 
L 82.650577 111.402242 
L 83.362182 111.246927 
L 84.073787 110.656427 
L 84.785392 109.614258 
L 85.496997 108.112641 
L 86.208602 106.153061 
L 87.27601 102.382118 
L 88.343417 97.716897 
L 89.766627 90.285063 
L 91.54564 79.646255 
L 94.747862 60.159893 
L 96.171073 52.962633 
L 97.23848 48.654237 
L 97.950085 46.410319 
L 98.66169 44.72157 
L 99.373295 43.620216 
L 99.729098 43.296535 
L 100.0849 43.126182 
L 100.440703 43.109646 
L 100.796505 43.246601 
L 101.152308 43.535917 
L 101.863913 44.568052 
L 102.575518 46.199581 
L 103.287123 48.370256 
L 104.35453 52.525582 
L 105.77774 59.414217 
L 107.556753 69.372042 
L 111.114778 89.539813 
L 112.537988 96.278868 
L 113.605396 100.477765 
L 114.672803 103.853274 
L 115.740211 106.375418 
L 116.451816 107.587965 
L 117.163421 108.440457 
L 117.875026 108.953377 
L 118.586631 109.152828 
L 119.298236 109.069451 
L 120.009841 108.737338 
L 120.721446 108.192972 
L 121.788854 107.061418 
L 123.212064 105.164646 
L 126.770089 100.207373 
L 128.193299 98.725901 
L 129.260706 97.943963 
L 130.328114 97.478436 
L 131.395521 97.337205 
L 132.462929 97.506695 
L 133.530337 97.951984 
L 134.953547 98.875544 
L 138.511572 101.535447 
L 139.578979 101.969654 
L 140.290584 102.048641 
L 141.002189 101.915111 
L 141.713794 101.533134 
L 142.425399 100.869708 
L 143.137004 99.895972 
L 143.848609 98.588428 
L 144.916017 95.966302 
L 145.983425 92.533483 
L 147.050832 88.313114 
L 148.474042 81.598236 
L 150.253055 71.945399 
L 153.099475 56.186048 
L 154.522685 49.548637 
L 155.590092 45.62968 
L 156.301697 43.66135 
L 157.013302 42.284802 
L 157.724907 41.555037 
L 158.08071 41.446866 
L 158.436513 41.515859 
L 158.792315 41.809002 
L 159.50392 43.005545 
L 160.215525 44.967334 
L 160.92713 47.683788 
L 161.638735 51.127985 
L 162.706143 57.561118 
L 163.77355 65.326125 
L 165.19676 77.27762 
L 170.889601 127.89882 
L 172.312811 137.406129 
L 173.736021 145.090527 
L 174.803428 149.368751 
L 175.515033 151.401307 
L 176.226638 152.779011 
L 176.938243 153.515704 
L 177.294046 153.650934 
L 177.649848 153.635855 
L 178.005651 153.474991 
L 178.717256 152.736502 
L 179.428861 151.480978 
L 180.140466 149.759796 
L 181.207873 146.427546 
L 182.631083 140.893682 
L 184.410096 132.886 
L 188.679726 113.219638 
L 190.458739 106.220305 
L 191.881949 101.432663 
L 193.305159 97.420584 
L 194.728369 94.181806 
L 195.795776 92.238138 
L 196.863184 90.681964 
L 197.930592 89.480308 
L 198.997999 88.595099 
L 200.065407 87.984539 
L 201.132814 87.604516 
L 202.556024 87.378949 
L 203.979234 87.380394 
L 206.469852 87.657858 
L 210.739482 88.147989 
L 214.65331 88.306009 
L 215.364915 88.327319 
L 215.364915 88.327319 
" clip-path="url(#p62a1f6d635)" style="fill: none; stroke: #808080; stroke-opacity: 0.25; stroke-width: 1.5; stroke-linecap: square"/>
   </g>
   <g id="line2d_17">
    <path d="M 37.81946 90.247873 
L 39.954275 63.829458 
L 41.377485 48.91046 
L 42.444893 40.02482 
L 43.156498 35.422942 
L 43.868103 31.976018 
L 44.579708 29.733528 
L 44.935511 29.071075 
L 45.291313 28.724569 
L 45.647116 28.681498 
L 46.002918 28.936533 
L 46.358721 29.482351 
L 47.070326 31.407558 
L 47.781931 34.362038 
L 48.493536 38.22544 
L 49.560943 45.411888 
L 50.984153 56.744675 
L 54.542178 85.875497 
L 55.609586 92.84319 
L 56.676993 98.387091 
L 57.388599 101.214732 
L 58.100204 103.329988 
L 58.811809 104.744349 
L 59.523414 105.571473 
L 59.879216 105.790506 
L 60.235019 105.871099 
L 60.590821 105.821629 
L 61.302426 105.369219 
L 62.014031 104.511707 
L 63.081439 102.650607 
L 64.504649 99.549139 
L 66.639464 94.875933 
L 67.706871 93.020628 
L 68.418476 92.076953 
L 69.130081 91.407008 
L 69.841686 91.032605 
L 70.553292 90.965309 
L 71.264897 91.206835 
L 71.976502 91.749572 
L 72.688107 92.57723 
L 73.755514 94.297886 
L 74.822922 96.491962 
L 76.601934 100.805826 
L 79.092552 106.868337 
L 80.159959 108.954966 
L 81.227367 110.482895 
L 81.938972 111.097145 
L 82.650577 111.339447 
L 83.362182 111.178244 
L 84.073787 110.588738 
L 84.785392 109.553692 
L 85.496997 108.064178 
L 86.208602 106.120228 
L 87.27601 102.375759 
L 88.343417 97.698096 
L 89.766627 90.242868 
L 91.901442 77.379513 
L 94.747862 60.157694 
L 96.171073 52.93589 
L 97.23848 48.615947 
L 97.950085 46.368934 
L 98.66169 44.681081 
L 99.373295 43.584483 
L 99.729098 43.264497 
L 100.0849 43.09861 
L 100.440703 43.087209 
L 100.796505 43.229856 
L 101.152308 43.525294 
L 101.863913 44.565675 
L 102.575518 46.184133 
L 103.287123 48.34279 
L 104.35453 52.484323 
L 105.421938 57.526358 
L 107.20095 67.276072 
L 111.114778 89.454265 
L 112.537988 96.12455 
L 113.605396 100.267602 
L 114.672803 103.586732 
L 115.740211 106.055879 
L 116.451816 107.237508 
L 117.163421 108.064802 
L 117.875026 108.56043 
L 118.586631 108.752901 
L 119.298236 108.675405 
L 120.009841 108.36462 
L 121.077249 107.54662 
L 122.500459 106.009771 
L 126.414286 101.426496 
L 127.481694 100.542788 
L 128.549101 99.93504 
L 129.616509 99.629235 
L 130.683916 99.62911 
L 131.751324 99.916971 
L 132.818731 100.454888 
L 134.241942 101.460626 
L 137.799967 104.179856 
L 138.867374 104.6277 
L 139.578979 104.725797 
L 140.290584 104.623591 
L 141.002189 104.288285 
L 141.713794 103.689303 
L 142.425399 102.79924 
L 143.137004 101.594858 
L 143.848609 100.058112 
L 144.916017 97.105857 
L 145.983425 93.372148 
L 147.050832 88.891074 
L 148.474042 81.901934 
L 150.608857 69.974059 
L 152.743672 58.071895 
L 154.166882 51.123142 
L 155.23429 46.852281 
L 155.945895 44.601889 
L 156.6575 42.912044 
L 157.369105 41.844197 
L 157.724907 41.559833 
L 158.08071 41.449054 
L 158.436513 41.516252 
L 158.792315 41.809537 
L 159.50392 43.005245 
L 160.215525 44.96268 
L 160.92713 47.671636 
L 161.638735 51.10585 
L 162.706143 57.521343 
L 163.77355 65.268763 
L 165.19676 77.2034 
L 168.398983 106.904644 
L 170.177995 122.36445 
L 171.601206 132.927858 
L 172.668613 139.427637 
L 173.736021 145.117255 
L 174.803428 149.460025 
L 175.515033 151.560215 
L 176.226638 153.027399 
L 176.938243 153.876472 
L 177.294046 154.076578 
L 177.649848 154.132107 
L 178.005651 154.047464 
L 178.717256 153.47747 
L 179.428861 152.409951 
L 180.140466 150.893206 
L 181.207873 147.88966 
L 182.275281 144.174426 
L 183.698491 138.428769 
L 186.544911 125.70266 
L 189.035529 114.852552 
L 190.814541 107.925771 
L 192.593554 101.922237 
L 194.016764 97.829281 
L 195.439974 94.353157 
L 196.863184 91.449317 
L 198.286394 89.055595 
L 199.709604 87.102986 
L 201.132814 85.52492 
L 202.556024 84.26405 
L 203.979234 83.275734 
L 205.402444 82.527941 
L 206.825654 81.998075 
L 208.248864 81.667931 
L 210.027877 81.50667 
L 211.80689 81.579448 
L 213.941705 81.88845 
L 215.364915 82.174299 
L 215.364915 82.174299 
" clip-path="url(#p62a1f6d635)" style="fill: none; stroke: #808080; stroke-opacity: 0.25; stroke-width: 1.5; stroke-linecap: square"/>
   </g>
   <g id="patch_3">
    <path d="M 28.942188 160.92 
L 28.942188 22.32 
" style="fill: none; stroke: #000000; stroke-width: 0.8; stroke-linejoin: miter; stroke-linecap: square"/>
   </g>
   <g id="patch_4">
    <path d="M 224.242188 160.92 
L 224.242188 22.32 
" style="fill: none; stroke: #000000; stroke-width: 0.8; stroke-linejoin: miter; stroke-linecap: square"/>
   </g>
   <g id="patch_5">
    <path d="M 28.942188 160.92 
L 224.242188 160.92 
" style="fill: none; stroke: #000000; stroke-width: 0.8; stroke-linejoin: miter; stroke-linecap: square"/>
   </g>
   <g id="patch_6">
    <path d="M 28.942188 22.32 
L 224.242188 22.32 
" style="fill: none; stroke: #000000; stroke-width: 0.8; stroke-linejoin: miter; stroke-linecap: square"/>
   </g>
   <g id="text_12">
    <!-- Lengthscale $\ell$=2, Amplitude $a$=0.100 -->
    <g transform="translate(14.692188 16.32)scale(0.12 -0.12)">
     <defs>
      <path id="DejaVuSans-4c" d="M 628 4666 
L 1259 4666 
L 1259 531 
L 3531 531 
L 3531 0 
L 628 0 
L 628 4666 
z
" transform="scale(0.015625)"/>
      <path id="DejaVuSans-65" d="M 3597 1894 
L 3597 1613 
L 953 1613 
Q 991 1019 1311 708 
Q 1631 397 2203 397 
Q 2534 397 2845 478 
Q 3156 559 3463 722 
L 3463 178 
Q 3153 47 2828 -22 
Q 2503 -91 2169 -91 
Q 1331 -91 842 396 
Q 353 884 353 1716 
Q 353 2575 817 3079 
Q 1281 3584 2069 3584 
Q 2775 3584 3186 3129 
Q 3597 2675 3597 1894 
z
M 3022 2063 
Q 3016 2534 2758 2815 
Q 2500 3097 2075 3097 
Q 1594 3097 1305 2825 
Q 1016 2553 972 2059 
L 3022 2063 
z
" transform="scale(0.015625)"/>
      <path id="DejaVuSans-6e" d="M 3513 2113 
L 3513 0 
L 2938 0 
L 2938 2094 
Q 2938 2591 2744 2837 
Q 2550 3084 2163 3084 
Q 1697 3084 1428 2787 
Q 1159 2491 1159 1978 
L 1159 0 
L 581 0 
L 581 3500 
L 1159 3500 
L 1159 2956 
Q 1366 3272 1645 3428 
Q 1925 3584 2291 3584 
Q 2894 3584 3203 3211 
Q 3513 2838 3513 2113 
z
" transform="scale(0.015625)"/>
      <path id="DejaVuSans-67" d="M 2906 1791 
Q 2906 2416 2648 2759 
Q 2391 3103 1925 3103 
Q 1463 3103 1205 2759 
Q 947 2416 947 1791 
Q 947 1169 1205 825 
Q 1463 481 1925 481 
Q 2391 481 2648 825 
Q 2906 1169 2906 1791 
z
M 3481 434 
Q 3481 -459 3084 -895 
Q 2688 -1331 1869 -1331 
Q 1566 -1331 1297 -1286 
Q 1028 -1241 775 -1147 
L 775 -588 
Q 1028 -725 1275 -790 
Q 1522 -856 1778 -856 
Q 2344 -856 2625 -561 
Q 2906 -266 2906 331 
L 2906 616 
Q 2728 306 2450 153 
Q 2172 0 1784 0 
Q 1141 0 747 490 
Q 353 981 353 1791 
Q 353 2603 747 3093 
Q 1141 3584 1784 3584 
Q 2172 3584 2450 3431 
Q 2728 3278 2906 2969 
L 2906 3500 
L 3481 3500 
L 3481 434 
z
" transform="scale(0.015625)"/>
      <path id="DejaVuSans-74" d="M 1172 4494 
L 1172 3500 
L 2356 3500 
L 2356 3053 
L 1172 3053 
L 1172 1153 
Q 1172 725 1289 603 
Q 1406 481 1766 481 
L 2356 481 
L 2356 0 
L 1766 0 
Q 1100 0 847 248 
Q 594 497 594 1153 
L 594 3053 
L 172 3053 
L 172 3500 
L 594 3500 
L 594 4494 
L 1172 4494 
z
" transform="scale(0.015625)"/>
      <path id="DejaVuSans-68" d="M 3513 2113 
L 3513 0 
L 2938 0 
L 2938 2094 
Q 2938 2591 2744 2837 
Q 2550 3084 2163 3084 
Q 1697 3084 1428 2787 
Q 1159 2491 1159 1978 
L 1159 0 
L 581 0 
L 581 4863 
L 1159 4863 
L 1159 2956 
Q 1366 3272 1645 3428 
Q 1925 3584 2291 3584 
Q 2894 3584 3203 3211 
Q 3513 2838 3513 2113 
z
" transform="scale(0.015625)"/>
      <path id="DejaVuSans-73" d="M 2834 3397 
L 2834 2853 
Q 2591 2978 2328 3040 
Q 2066 3103 1784 3103 
Q 1356 3103 1142 2972 
Q 928 2841 928 2578 
Q 928 2378 1081 2264 
Q 1234 2150 1697 2047 
L 1894 2003 
Q 2506 1872 2764 1633 
Q 3022 1394 3022 966 
Q 3022 478 2636 193 
Q 2250 -91 1575 -91 
Q 1294 -91 989 -36 
Q 684 19 347 128 
L 347 722 
Q 666 556 975 473 
Q 1284 391 1588 391 
Q 1994 391 2212 530 
Q 2431 669 2431 922 
Q 2431 1156 2273 1281 
Q 2116 1406 1581 1522 
L 1381 1569 
Q 847 1681 609 1914 
Q 372 2147 372 2553 
Q 372 3047 722 3315 
Q 1072 3584 1716 3584 
Q 2034 3584 2315 3537 
Q 2597 3491 2834 3397 
z
" transform="scale(0.015625)"/>
      <path id="DejaVuSans-63" d="M 3122 3366 
L 3122 2828 
Q 2878 2963 2633 3030 
Q 2388 3097 2138 3097 
Q 1578 3097 1268 2742 
Q 959 2388 959 1747 
Q 959 1106 1268 751 
Q 1578 397 2138 397 
Q 2388 397 2633 464 
Q 2878 531 3122 666 
L 3122 134 
Q 2881 22 2623 -34 
Q 2366 -91 2075 -91 
Q 1284 -91 818 406 
Q 353 903 353 1747 
Q 353 2603 823 3093 
Q 1294 3584 2113 3584 
Q 2378 3584 2631 3529 
Q 2884 3475 3122 3366 
z
" transform="scale(0.015625)"/>
      <path id="DejaVuSans-61" d="M 2194 1759 
Q 1497 1759 1228 1600 
Q 959 1441 959 1056 
Q 959 750 1161 570 
Q 1363 391 1709 391 
Q 2188 391 2477 730 
Q 2766 1069 2766 1631 
L 2766 1759 
L 2194 1759 
z
M 3341 1997 
L 3341 0 
L 2766 0 
L 2766 531 
Q 2569 213 2275 61 
Q 1981 -91 1556 -91 
Q 1019 -91 701 211 
Q 384 513 384 1019 
Q 384 1609 779 1909 
Q 1175 2209 1959 2209 
L 2766 2209 
L 2766 2266 
Q 2766 2663 2505 2880 
Q 2244 3097 1772 3097 
Q 1472 3097 1187 3025 
Q 903 2953 641 2809 
L 641 3341 
Q 956 3463 1253 3523 
Q 1550 3584 1831 3584 
Q 2591 3584 2966 3190 
Q 3341 2797 3341 1997 
z
" transform="scale(0.015625)"/>
      <path id="DejaVuSans-6c" d="M 603 4863 
L 1178 4863 
L 1178 0 
L 603 0 
L 603 4863 
z
" transform="scale(0.015625)"/>
      <path id="DejaVuSans-20" transform="scale(0.015625)"/>
      <path id="DejaVuSans-Oblique-2113" d="M 950 838 
Q 1078 213 1350 213 
Q 1531 213 1766 572 
L 2181 572 
Q 1994 253 1775 88 
Q 1538 -91 1319 -91 
Q 831 -91 634 344 
L 400 0 
L -88 0 
Q 250 459 500 888 
Q 469 1131 469 1397 
Q 469 1872 566 2347 
Q 931 4131 1256 4497 
Q 1481 4750 1866 4750 
Q 2256 4750 2256 4209 
Q 2253 3966 2197 3675 
Q 1972 2484 950 838 
z
M 947 1656 
Q 1531 2744 1709 3613 
Q 1803 4072 1803 4191 
Q 1803 4406 1725 4406 
Q 1384 4134 1081 2516 
Q 997 2063 947 1656 
z
" transform="scale(0.015625)"/>
      <path id="DejaVuSans-3d" d="M 678 2906 
L 4684 2906 
L 4684 2381 
L 678 2381 
L 678 2906 
z
M 678 1631 
L 4684 1631 
L 4684 1100 
L 678 1100 
L 678 1631 
z
" transform="scale(0.015625)"/>
      <path id="DejaVuSans-2c" d="M 750 794 
L 1409 794 
L 1409 256 
L 897 -744 
L 494 -744 
L 750 256 
L 750 794 
z
" transform="scale(0.015625)"/>
      <path id="DejaVuSans-41" d="M 2188 4044 
L 1331 1722 
L 3047 1722 
L 2188 4044 
z
M 1831 4666 
L 2547 4666 
L 4325 0 
L 3669 0 
L 3244 1197 
L 1141 1197 
L 716 0 
L 50 0 
L 1831 4666 
z
" transform="scale(0.015625)"/>
      <path id="DejaVuSans-6d" d="M 3328 2828 
Q 3544 3216 3844 3400 
Q 4144 3584 4550 3584 
Q 5097 3584 5394 3201 
Q 5691 2819 5691 2113 
L 5691 0 
L 5113 0 
L 5113 2094 
Q 5113 2597 4934 2840 
Q 4756 3084 4391 3084 
Q 3944 3084 3684 2787 
Q 3425 2491 3425 1978 
L 3425 0 
L 2847 0 
L 2847 2094 
Q 2847 2600 2669 2842 
Q 2491 3084 2119 3084 
Q 1678 3084 1418 2786 
Q 1159 2488 1159 1978 
L 1159 0 
L 581 0 
L 581 3500 
L 1159 3500 
L 1159 2956 
Q 1356 3278 1631 3431 
Q 1906 3584 2284 3584 
Q 2666 3584 2933 3390 
Q 3200 3197 3328 2828 
z
" transform="scale(0.015625)"/>
      <path id="DejaVuSans-70" d="M 1159 525 
L 1159 -1331 
L 581 -1331 
L 581 3500 
L 1159 3500 
L 1159 2969 
Q 1341 3281 1617 3432 
Q 1894 3584 2278 3584 
Q 2916 3584 3314 3078 
Q 3713 2572 3713 1747 
Q 3713 922 3314 415 
Q 2916 -91 2278 -91 
Q 1894 -91 1617 61 
Q 1341 213 1159 525 
z
M 3116 1747 
Q 3116 2381 2855 2742 
Q 2594 3103 2138 3103 
Q 1681 3103 1420 2742 
Q 1159 2381 1159 1747 
Q 1159 1113 1420 752 
Q 1681 391 2138 391 
Q 2594 391 2855 752 
Q 3116 1113 3116 1747 
z
" transform="scale(0.015625)"/>
      <path id="DejaVuSans-69" d="M 603 3500 
L 1178 3500 
L 1178 0 
L 603 0 
L 603 3500 
z
M 603 4863 
L 1178 4863 
L 1178 4134 
L 603 4134 
L 603 4863 
z
" transform="scale(0.015625)"/>
      <path id="DejaVuSans-75" d="M 544 1381 
L 544 3500 
L 1119 3500 
L 1119 1403 
Q 1119 906 1312 657 
Q 1506 409 1894 409 
Q 2359 409 2629 706 
Q 2900 1003 2900 1516 
L 2900 3500 
L 3475 3500 
L 3475 0 
L 2900 0 
L 2900 538 
Q 2691 219 2414 64 
Q 2138 -91 1772 -91 
Q 1169 -91 856 284 
Q 544 659 544 1381 
z
M 1991 3584 
L 1991 3584 
z
" transform="scale(0.015625)"/>
      <path id="DejaVuSans-64" d="M 2906 2969 
L 2906 4863 
L 3481 4863 
L 3481 0 
L 2906 0 
L 2906 525 
Q 2725 213 2448 61 
Q 2172 -91 1784 -91 
Q 1150 -91 751 415 
Q 353 922 353 1747 
Q 353 2572 751 3078 
Q 1150 3584 1784 3584 
Q 2172 3584 2448 3432 
Q 2725 3281 2906 2969 
z
M 947 1747 
Q 947 1113 1208 752 
Q 1469 391 1925 391 
Q 2381 391 2643 752 
Q 2906 1113 2906 1747 
Q 2906 2381 2643 2742 
Q 2381 3103 1925 3103 
Q 1469 3103 1208 2742 
Q 947 2381 947 1747 
z
" transform="scale(0.015625)"/>
      <path id="DejaVuSans-Oblique-61" d="M 3438 1997 
L 3047 0 
L 2472 0 
L 2578 531 
Q 2325 219 2001 64 
Q 1678 -91 1281 -91 
Q 834 -91 548 182 
Q 263 456 263 884 
Q 263 1497 752 1853 
Q 1241 2209 2100 2209 
L 2900 2209 
L 2931 2363 
Q 2938 2388 2941 2417 
Q 2944 2447 2944 2509 
Q 2944 2788 2717 2942 
Q 2491 3097 2081 3097 
Q 1800 3097 1504 3025 
Q 1209 2953 897 2809 
L 997 3341 
Q 1322 3463 1633 3523 
Q 1944 3584 2234 3584 
Q 2853 3584 3176 3315 
Q 3500 3047 3500 2534 
Q 3500 2431 3484 2292 
Q 3469 2153 3438 1997 
z
M 2816 1759 
L 2241 1759 
Q 1534 1759 1195 1570 
Q 856 1381 856 984 
Q 856 709 1029 553 
Q 1203 397 1509 397 
Q 1978 397 2328 733 
Q 2678 1069 2791 1631 
L 2816 1759 
z
" transform="scale(0.015625)"/>
      <path id="DejaVuSans-2e" d="M 684 794 
L 1344 794 
L 1344 0 
L 684 0 
L 684 794 
z
" transform="scale(0.015625)"/>
     </defs>
     <use xlink:href="#DejaVuSans-4c" transform="translate(0 0.015625)"/>
     <use xlink:href="#DejaVuSans-65" transform="translate(55.712891 0.015625)"/>
     <use xlink:href="#DejaVuSans-6e" transform="translate(117.236328 0.015625)"/>
     <use xlink:href="#DejaVuSans-67" transform="translate(180.615234 0.015625)"/>
     <use xlink:href="#DejaVuSans-74" transform="translate(244.091797 0.015625)"/>
     <use xlink:href="#DejaVuSans-68" transform="translate(283.300781 0.015625)"/>
     <use xlink:href="#DejaVuSans-73" transform="translate(346.679688 0.015625)"/>
     <use xlink:href="#DejaVuSans-63" transform="translate(398.779297 0.015625)"/>
     <use xlink:href="#DejaVuSans-61" transform="translate(453.759766 0.015625)"/>
     <use xlink:href="#DejaVuSans-6c" transform="translate(515.039062 0.015625)"/>
     <use xlink:href="#DejaVuSans-65" transform="translate(542.822266 0.015625)"/>
     <use xlink:href="#DejaVuSans-20" transform="translate(604.345703 0.015625)"/>
     <use xlink:href="#DejaVuSans-Oblique-2113" transform="translate(636.132812 0.015625)"/>
     <use xlink:href="#DejaVuSans-3d" transform="translate(677.441406 0.015625)"/>
     <use xlink:href="#DejaVuSans-32" transform="translate(761.230469 0.015625)"/>
     <use xlink:href="#DejaVuSans-2c" transform="translate(824.853516 0.015625)"/>
     <use xlink:href="#DejaVuSans-20" transform="translate(856.640625 0.015625)"/>
     <use xlink:href="#DejaVuSans-41" transform="translate(888.427734 0.015625)"/>
     <use xlink:href="#DejaVuSans-6d" transform="translate(956.835938 0.015625)"/>
     <use xlink:href="#DejaVuSans-70" transform="translate(1054.248047 0.015625)"/>
     <use xlink:href="#DejaVuSans-6c" transform="translate(1117.724609 0.015625)"/>
     <use xlink:href="#DejaVuSans-69" transform="translate(1145.507812 0.015625)"/>
     <use xlink:href="#DejaVuSans-74" transform="translate(1173.291016 0.015625)"/>
     <use xlink:href="#DejaVuSans-75" transform="translate(1212.5 0.015625)"/>
     <use xlink:href="#DejaVuSans-64" transform="translate(1275.878906 0.015625)"/>
     <use xlink:href="#DejaVuSans-65" transform="translate(1339.355469 0.015625)"/>
     <use xlink:href="#DejaVuSans-20" transform="translate(1400.878906 0.015625)"/>
     <use xlink:href="#DejaVuSans-Oblique-61" transform="translate(1432.666016 0.015625)"/>
     <use xlink:href="#DejaVuSans-3d" transform="translate(1493.945312 0.015625)"/>
     <use xlink:href="#DejaVuSans-30" transform="translate(1577.734375 0.015625)"/>
     <use xlink:href="#DejaVuSans-2e" transform="translate(1641.357422 0.015625)"/>
     <use xlink:href="#DejaVuSans-31" transform="translate(1673.144531 0.015625)"/>
     <use xlink:href="#DejaVuSans-30" transform="translate(1736.767578 0.015625)"/>
     <use xlink:href="#DejaVuSans-30" transform="translate(1800.390625 0.015625)"/>
    </g>
   </g>
  </g>
 </g>
 <defs>
  <clipPath id="p62a1f6d635">
   <rect x="28.942188" y="22.32" width="195.3" height="138.6"/>
  </clipPath>
 </defs>
</svg>
