<?xml version="1.0" encoding="utf-8" standalone="no"?>
<!DOCTYPE svg PUBLIC "-//W3C//DTD SVG 1.1//EN"
  "http://www.w3.org/Graphics/SVG/1.1/DTD/svg11.dtd">
<svg xmlns:xlink="http://www.w3.org/1999/xlink" width="245.692187pt" height="184.798125pt" viewBox="0 0 245.692187 184.798125" xmlns="http://www.w3.org/2000/svg" version="1.1">
 <metadata>
  <rdf:RDF xmlns:dc="http://purl.org/dc/elements/1.1/" xmlns:cc="http://creativecommons.org/ns#" xmlns:rdf="http://www.w3.org/1999/02/22-rdf-syntax-ns#">
   <cc:Work>
    <dc:type rdf:resource="http://purl.org/dc/dcmitype/StillImage"/>
    <dc:date>2022-12-10T17:08:44.942897</dc:date>
    <dc:format>image/svg+xml</dc:format>
    <dc:creator>
     <cc:Agent>
      <dc:title>Matplotlib v3.5.1, https://matplotlib.org/</dc:title>
     </cc:Agent>
    </dc:creator>
   </cc:Work>
  </rdf:RDF>
 </metadata>
 <defs>
  <style type="text/css">*{stroke-linejoin: round; stroke-linecap: butt}</style>
 </defs>
 <g id="figure_1">
  <g id="patch_1">
   <path d="M 0 184.798125 
L 245.692187 184.798125 
L 245.692187 0 
L 0 0 
z
" style="fill: #ffffff"/>
  </g>
  <g id="axes_1">
   <g id="patch_2">
    <path d="M 28.942188 160.92 
L 224.242188 160.92 
L 224.242188 22.32 
L 28.942188 22.32 
z
" style="fill: #ffffff"/>
   </g>
   <g id="matplotlib.axis_1">
    <g id="xtick_1">
     <g id="line2d_1">
      <defs>
       <path id="m290977fb75" d="M 0 0 
L 0 3.5 
" style="stroke: #000000; stroke-width: 0.8"/>
      </defs>
      <g>
       <use xlink:href="#m290977fb75" x="37.81946" y="160.92" style="stroke: #000000; stroke-width: 0.8"/>
      </g>
     </g>
     <g id="text_1">
      <!-- 0 -->
      <g transform="translate(34.63821 175.518438)scale(0.1 -0.1)">
       <defs>
        <path id="DejaVuSans-30" d="M 2034 4250 
Q 1547 4250 1301 3770 
Q 1056 3291 1056 2328 
Q 1056 1369 1301 889 
Q 1547 409 2034 409 
Q 2525 409 2770 889 
Q 3016 1369 3016 2328 
Q 3016 3291 2770 3770 
Q 2525 4250 2034 4250 
z
M 2034 4750 
Q 2819 4750 3233 4129 
Q 3647 3509 3647 2328 
Q 3647 1150 3233 529 
Q 2819 -91 2034 -91 
Q 1250 -91 836 529 
Q 422 1150 422 2328 
Q 422 3509 836 4129 
Q 1250 4750 2034 4750 
z
" transform="scale(0.015625)"/>
       </defs>
       <use xlink:href="#DejaVuSans-30"/>
      </g>
     </g>
    </g>
    <g id="xtick_2">
     <g id="line2d_2">
      <g>
       <use xlink:href="#m290977fb75" x="73.328551" y="160.92" style="stroke: #000000; stroke-width: 0.8"/>
      </g>
     </g>
     <g id="text_2">
      <!-- 5 -->
      <g transform="translate(70.147301 175.518438)scale(0.1 -0.1)">
       <defs>
        <path id="DejaVuSans-35" d="M 691 4666 
L 3169 4666 
L 3169 4134 
L 1269 4134 
L 1269 2991 
Q 1406 3038 1543 3061 
Q 1681 3084 1819 3084 
Q 2600 3084 3056 2656 
Q 3513 2228 3513 1497 
Q 3513 744 3044 326 
Q 2575 -91 1722 -91 
Q 1428 -91 1123 -41 
Q 819 9 494 109 
L 494 744 
Q 775 591 1075 516 
Q 1375 441 1709 441 
Q 2250 441 2565 725 
Q 2881 1009 2881 1497 
Q 2881 1984 2565 2268 
Q 2250 2553 1709 2553 
Q 1456 2553 1204 2497 
Q 953 2441 691 2322 
L 691 4666 
z
" transform="scale(0.015625)"/>
       </defs>
       <use xlink:href="#DejaVuSans-35"/>
      </g>
     </g>
    </g>
    <g id="xtick_3">
     <g id="line2d_3">
      <g>
       <use xlink:href="#m290977fb75" x="108.837642" y="160.92" style="stroke: #000000; stroke-width: 0.8"/>
      </g>
     </g>
     <g id="text_3">
      <!-- 10 -->
      <g transform="translate(102.475142 175.518438)scale(0.1 -0.1)">
       <defs>
        <path id="DejaVuSans-31" d="M 794 531 
L 1825 531 
L 1825 4091 
L 703 3866 
L 703 4441 
L 1819 4666 
L 2450 4666 
L 2450 531 
L 3481 531 
L 3481 0 
L 794 0 
L 794 531 
z
" transform="scale(0.015625)"/>
       </defs>
       <use xlink:href="#DejaVuSans-31"/>
       <use xlink:href="#DejaVuSans-30" x="63.623047"/>
      </g>
     </g>
    </g>
    <g id="xtick_4">
     <g id="line2d_4">
      <g>
       <use xlink:href="#m290977fb75" x="144.346733" y="160.92" style="stroke: #000000; stroke-width: 0.8"/>
      </g>
     </g>
     <g id="text_4">
      <!-- 15 -->
      <g transform="translate(137.984233 175.518438)scale(0.1 -0.1)">
       <use xlink:href="#DejaVuSans-31"/>
       <use xlink:href="#DejaVuSans-35" x="63.623047"/>
      </g>
     </g>
    </g>
    <g id="xtick_5">
     <g id="line2d_5">
      <g>
       <use xlink:href="#m290977fb75" x="179.855824" y="160.92" style="stroke: #000000; stroke-width: 0.8"/>
      </g>
     </g>
     <g id="text_5">
      <!-- 20 -->
      <g transform="translate(173.493324 175.518438)scale(0.1 -0.1)">
       <defs>
        <path id="DejaVuSans-32" d="M 1228 531 
L 3431 531 
L 3431 0 
L 469 0 
L 469 531 
Q 828 903 1448 1529 
Q 2069 2156 2228 2338 
Q 2531 2678 2651 2914 
Q 2772 3150 2772 3378 
Q 2772 3750 2511 3984 
Q 2250 4219 1831 4219 
Q 1534 4219 1204 4116 
Q 875 4013 500 3803 
L 500 4441 
Q 881 4594 1212 4672 
Q 1544 4750 1819 4750 
Q 2544 4750 2975 4387 
Q 3406 4025 3406 3419 
Q 3406 3131 3298 2873 
Q 3191 2616 2906 2266 
Q 2828 2175 2409 1742 
Q 1991 1309 1228 531 
z
" transform="scale(0.015625)"/>
       </defs>
       <use xlink:href="#DejaVuSans-32"/>
       <use xlink:href="#DejaVuSans-30" x="63.623047"/>
      </g>
     </g>
    </g>
    <g id="xtick_6">
     <g id="line2d_6">
      <g>
       <use xlink:href="#m290977fb75" x="215.364915" y="160.92" style="stroke: #000000; stroke-width: 0.8"/>
      </g>
     </g>
     <g id="text_6">
      <!-- 25 -->
      <g transform="translate(209.002415 175.518438)scale(0.1 -0.1)">
       <use xlink:href="#DejaVuSans-32"/>
       <use xlink:href="#DejaVuSans-35" x="63.623047"/>
      </g>
     </g>
    </g>
   </g>
   <g id="matplotlib.axis_2">
    <g id="ytick_1">
     <g id="line2d_7">
      <defs>
       <path id="m51a984f2cc" d="M 0 0 
L -3.5 0 
" style="stroke: #000000; stroke-width: 0.8"/>
      </defs>
      <g>
       <use xlink:href="#m51a984f2cc" x="28.942188" y="123.263963" style="stroke: #000000; stroke-width: 0.8"/>
      </g>
     </g>
     <g id="text_7">
      <!-- −2 -->
      <g transform="translate(7.2 127.063182)scale(0.1 -0.1)">
       <defs>
        <path id="DejaVuSans-2212" d="M 678 2272 
L 4684 2272 
L 4684 1741 
L 678 1741 
L 678 2272 
z
" transform="scale(0.015625)"/>
       </defs>
       <use xlink:href="#DejaVuSans-2212"/>
       <use xlink:href="#DejaVuSans-32" x="83.789062"/>
      </g>
     </g>
    </g>
    <g id="ytick_2">
     <g id="line2d_8">
      <g>
       <use xlink:href="#m51a984f2cc" x="28.942188" y="77.173641" style="stroke: #000000; stroke-width: 0.8"/>
      </g>
     </g>
     <g id="text_8">
      <!-- 0 -->
      <g transform="translate(15.579688 80.97286)scale(0.1 -0.1)">
       <use xlink:href="#DejaVuSans-30"/>
      </g>
     </g>
    </g>
    <g id="ytick_3">
     <g id="line2d_9">
      <g>
       <use xlink:href="#m51a984f2cc" x="28.942188" y="31.083318" style="stroke: #000000; stroke-width: 0.8"/>
      </g>
     </g>
     <g id="text_9">
      <!-- 2 -->
      <g transform="translate(15.579688 34.882537)scale(0.1 -0.1)">
       <use xlink:href="#DejaVuSans-32"/>
      </g>
     </g>
    </g>
   </g>
   <g id="line2d_10">
    <path d="M 37.81946 62.061907 
L 39.598473 59.549724 
L 41.377485 56.881532 
L 42.800695 54.833534 
L 43.5123 54.269896 
L 43.868103 54.19866 
L 44.223905 54.30023 
L 44.579708 54.592662 
L 44.935511 55.086933 
L 45.647116 56.682042 
L 46.358721 58.994898 
L 49.205141 69.784196 
L 49.916746 71.337638 
L 50.272548 71.823998 
L 50.628351 72.120824 
L 50.984153 72.240647 
L 51.339956 72.201894 
L 52.051561 71.740934 
L 52.763166 70.93321 
L 54.542178 68.397608 
L 58.100204 63.198074 
L 58.811809 62.64169 
L 59.167611 62.585466 
L 59.523414 62.72635 
L 59.879216 63.100417 
L 60.235019 63.740717 
L 60.590821 64.67533 
L 61.302426 67.504207 
L 62.014031 71.650169 
L 63.081439 80.079337 
L 66.639464 111.950615 
L 67.351069 115.790122 
L 68.062674 118.15179 
L 68.418476 118.769673 
L 68.774279 119.023886 
L 69.130081 118.932066 
L 69.485884 118.517839 
L 69.841686 117.809742 
L 70.553292 115.643682 
L 71.620699 111.057218 
L 75.178724 93.980114 
L 76.246132 90.282359 
L 76.957737 88.555283 
L 77.313539 87.978564 
L 77.669342 87.627525 
L 78.025144 87.529067 
L 78.380947 87.709107 
L 78.736749 88.19072 
L 79.092552 88.992165 
L 79.804157 91.591799 
L 80.515762 95.488437 
L 81.583169 103.299836 
L 83.717985 120.479297 
L 84.42959 124.756205 
L 85.141195 127.64687 
L 85.496997 128.519308 
L 85.8528 129.005597 
L 86.208602 129.116592 
L 86.564405 128.872838 
L 86.920207 128.302889 
L 87.631812 126.326994 
L 88.343417 123.502925 
L 89.766627 116.54591 
L 92.257245 104.281275 
L 94.036257 96.608874 
L 95.459468 91.184833 
L 96.526875 87.808079 
L 97.23848 86.051996 
L 97.950085 84.779193 
L 98.66169 84.018456 
L 99.373295 83.741279 
L 100.0849 83.861534 
L 100.796505 84.249239 
L 102.575518 85.42045 
L 103.287123 85.641649 
L 103.998728 85.596977 
L 104.710333 85.237257 
L 105.421938 84.517472 
L 106.133543 83.380003 
L 106.845148 81.746299 
L 107.556753 79.522077 
L 108.268358 76.616892 
L 108.979963 72.974214 
L 110.047371 66.174579 
L 111.826383 52.6588 
L 113.249593 42.641818 
L 113.961198 38.842915 
L 114.672803 36.181133 
L 115.028606 35.313751 
L 115.384408 34.758895 
L 115.740211 34.509497 
L 116.096013 34.551672 
L 116.451816 34.865833 
L 116.807618 35.428047 
L 117.519223 37.187801 
L 118.230828 39.606619 
L 119.298236 44.023087 
L 123.923669 64.557157 
L 124.991076 67.805684 
L 125.702681 69.397989 
L 126.770089 71.101367 
L 128.193299 73.113123 
L 128.904904 74.581569 
L 129.616509 76.660614 
L 130.328114 79.464057 
L 131.395521 84.940717 
L 133.886139 99.156015 
L 134.597744 101.989436 
L 135.309349 103.749343 
L 135.665152 104.192212 
L 136.020954 104.345075 
L 136.376757 104.221457 
L 136.732559 103.844266 
L 137.444164 102.461616 
L 138.511572 99.464788 
L 139.578979 96.50547 
L 140.290584 95.111559 
L 140.646387 94.671962 
L 141.002189 94.420788 
L 141.357992 94.35861 
L 141.713794 94.476423 
L 142.425399 95.171905 
L 143.492807 96.883391 
L 144.204412 98.005446 
L 144.916017 98.74156 
L 145.271819 98.884748 
L 145.627622 98.848493 
L 145.983425 98.620551 
L 146.339227 98.197051 
L 147.050832 96.787948 
L 147.762437 94.73813 
L 148.829845 90.89319 
L 153.455277 72.666809 
L 154.522685 67.1643 
L 155.945895 58.374461 
L 158.436513 42.50816 
L 159.50392 37.515487 
L 160.215525 35.247847 
L 160.92713 33.910689 
L 161.282933 33.587164 
L 161.638735 33.481239 
L 161.994538 33.577507 
L 162.35034 33.856166 
L 163.061945 34.863246 
L 164.129353 37.071301 
L 165.552563 40.107117 
L 166.264168 41.264423 
L 166.975773 42.080672 
L 167.687378 42.593092 
L 169.822193 43.698449 
L 170.533798 44.503199 
L 171.245403 45.755741 
L 171.957008 47.5088 
L 173.024416 51.037812 
L 174.091823 55.423519 
L 175.870836 63.770192 
L 181.207873 89.50131 
L 182.275281 93.276227 
L 182.986886 95.078164 
L 183.698491 96.198301 
L 184.054294 96.489264 
L 184.410096 96.602381 
L 184.765899 96.545132 
L 185.121701 96.330413 
L 185.833306 95.507503 
L 188.323924 91.804952 
L 188.679726 91.656408 
L 189.035529 91.696984 
L 189.391331 91.943266 
L 189.747134 92.402507 
L 190.458739 93.936407 
L 191.170344 96.141389 
L 192.949356 102.165654 
L 193.660961 103.51647 
L 194.016764 103.738246 
L 194.372566 103.606296 
L 194.728369 103.099033 
L 195.084171 102.210538 
L 195.795776 99.349235 
L 196.507382 95.301749 
L 198.642197 81.546963 
L 199.353802 78.419537 
L 199.709604 77.373149 
L 200.065407 76.696576 
L 200.421209 76.387405 
L 200.777012 76.427034 
L 201.132814 76.782273 
L 201.844419 78.248321 
L 204.335037 85.07712 
L 204.690839 85.585733 
L 205.046642 85.891636 
L 205.402444 85.992151 
L 205.758247 85.894049 
L 206.114049 85.612086 
L 206.825654 84.584744 
L 207.893062 82.287141 
L 210.739482 75.658486 
L 215.364915 66.183294 
L 215.364915 66.183294 
" clip-path="url(#p8de198d4f5)" style="fill: none; stroke: #000000; stroke-opacity: 0.5; stroke-width: 2; stroke-linecap: square"/>
   </g>
   <g id="line2d_11">
    <path d="M 37.81946 96.259458 
L 38.886868 90.157392 
L 41.377485 75.080518 
L 42.08909 71.978152 
L 42.800695 70.096535 
L 43.156498 69.714902 
L 43.5123 69.745491 
L 43.868103 70.204994 
L 44.223905 71.097489 
L 44.935511 74.127616 
L 45.647116 78.581847 
L 48.493536 99.44092 
L 49.205141 102.327301 
L 49.560943 103.133086 
L 49.916746 103.50122 
L 50.272548 103.442156 
L 50.628351 102.980892 
L 50.984153 102.154931 
L 51.695758 99.606028 
L 52.763166 94.403694 
L 54.542178 85.580832 
L 55.609586 81.592917 
L 56.321191 79.594817 
L 57.032796 78.045066 
L 58.100204 76.352361 
L 59.167611 75.182212 
L 60.590821 74.093923 
L 61.658229 73.286792 
L 62.369834 72.511542 
L 63.081439 71.360553 
L 63.793044 69.695729 
L 64.504649 67.44373 
L 65.572056 63.046844 
L 68.418476 50.223362 
L 69.130081 48.149218 
L 69.841686 46.861698 
L 70.197489 46.520518 
L 70.553292 46.3746 
L 70.909094 46.413832 
L 71.264897 46.624944 
L 71.976502 47.499257 
L 72.688107 48.859591 
L 73.755514 51.496104 
L 75.890329 57.13234 
L 76.601934 58.57233 
L 77.313539 59.546588 
L 77.669342 59.820793 
L 78.025144 59.938204 
L 78.380947 59.892544 
L 78.736749 59.682321 
L 79.448354 58.789686 
L 80.159959 57.363708 
L 82.294774 52.30757 
L 82.650577 51.787545 
L 83.00638 51.477652 
L 83.362182 51.416108 
L 83.717985 51.634663 
L 84.073787 52.15684 
L 84.42959 52.996385 
L 85.141195 55.6268 
L 85.8528 59.405743 
L 86.920207 66.522284 
L 88.343417 76.16062 
L 89.055022 79.890195 
L 89.766627 82.371465 
L 90.12243 83.079148 
L 90.478232 83.420711 
L 90.834035 83.402343 
L 91.189837 83.040367 
L 91.54564 82.359651 
L 92.257245 80.172605 
L 92.96885 77.13668 
L 94.39206 69.730683 
L 96.171073 60.497611 
L 97.23848 56.116295 
L 97.950085 54.044995 
L 98.66169 52.847916 
L 99.017493 52.619426 
L 99.373295 52.65279 
L 99.729098 52.953208 
L 100.0849 53.520189 
L 100.796505 55.421582 
L 101.50811 58.233509 
L 102.575518 63.693571 
L 105.421938 79.346594 
L 106.489345 83.735951 
L 107.556753 87.000808 
L 108.624161 89.336287 
L 109.691568 90.989476 
L 110.403173 91.771291 
L 111.114778 92.268154 
L 111.826383 92.406358 
L 112.182186 92.311735 
L 112.537988 92.092686 
L 113.249593 91.246578 
L 113.961198 89.83182 
L 114.672803 87.878347 
L 115.740211 84.178544 
L 117.875026 76.311903 
L 118.586631 74.283349 
L 119.298236 72.813675 
L 120.009841 71.991242 
L 120.365644 71.836425 
L 120.721446 71.853637 
L 121.077249 72.040032 
L 121.788854 72.895506 
L 122.500459 74.329441 
L 123.567866 77.33133 
L 124.991076 82.27315 
L 131.039719 104.113074 
L 132.462929 108.719581 
L 133.174534 110.454708 
L 133.886139 111.556539 
L 134.241942 111.811359 
L 134.597744 111.841536 
L 134.953547 111.630729 
L 135.309349 111.166842 
L 135.665152 110.442731 
L 136.376757 108.213023 
L 137.088362 104.999659 
L 138.155769 98.696035 
L 141.002189 80.144042 
L 141.713794 76.846796 
L 142.425399 74.539351 
L 143.137004 73.259157 
L 143.492807 72.979347 
L 143.848609 72.910494 
L 144.204412 73.022061 
L 144.916017 73.638874 
L 146.339227 75.300594 
L 147.050832 75.751238 
L 147.406635 75.791651 
L 147.762437 75.694755 
L 148.474042 75.097663 
L 149.185647 74.053928 
L 151.320462 70.305599 
L 152.032067 69.532902 
L 152.743672 69.172946 
L 153.455277 69.187608 
L 154.166882 69.461656 
L 155.945895 70.285893 
L 156.6575 70.363674 
L 157.369105 70.2472 
L 159.148118 69.702328 
L 159.859723 69.81344 
L 160.215525 70.038206 
L 160.571328 70.408003 
L 161.282933 71.665049 
L 161.994538 73.708965 
L 162.706143 76.578619 
L 163.77355 82.246857 
L 166.61997 98.844563 
L 167.331575 101.417684 
L 167.687378 102.271501 
L 168.04318 102.816991 
L 168.398983 103.050954 
L 168.754785 102.979714 
L 169.110588 102.618798 
L 169.46639 101.992296 
L 170.177995 100.075504 
L 171.245403 96.170257 
L 172.668613 90.896409 
L 173.380218 88.830358 
L 174.091823 87.249335 
L 176.226638 83.28295 
L 176.938243 81.001617 
L 177.649848 77.688458 
L 178.361453 73.252379 
L 179.428861 64.912388 
L 181.207873 50.796809 
L 181.919478 46.95801 
L 182.275281 45.703827 
L 182.631083 44.949555 
L 182.986886 44.71714 
L 183.342689 45.011414 
L 183.698491 45.820317 
L 184.054294 47.115838 
L 184.765899 50.984534 
L 185.833306 59.019417 
L 187.612319 73.169251 
L 188.323924 77.319891 
L 189.035529 79.897415 
L 189.391331 80.50651 
L 189.747134 80.63819 
L 190.102936 80.290285 
L 190.458739 79.473915 
L 191.170344 76.545962 
L 191.881949 72.195733 
L 193.305159 61.329912 
L 194.372566 53.619682 
L 195.084171 49.633243 
L 195.795776 46.904027 
L 196.151579 46.037789 
L 196.507382 45.494103 
L 196.863184 45.252933 
L 197.218987 45.286328 
L 197.574789 45.560675 
L 198.286394 46.683515 
L 199.353802 49.259907 
L 203.267629 59.65964 
L 204.335037 61.836578 
L 205.046642 62.9145 
L 205.758247 63.626307 
L 206.469852 63.986033 
L 207.537259 64.129005 
L 208.248864 64.286244 
L 208.604667 64.490342 
L 208.96047 64.827788 
L 209.316272 65.333183 
L 210.027877 66.962247 
L 210.739482 69.536986 
L 211.451087 73.083633 
L 212.518495 79.931783 
L 215.364915 99.61536 
L 215.364915 99.61536 
" clip-path="url(#p8de198d4f5)" style="fill: none; stroke: #000000; stroke-opacity: 0.5; stroke-width: 2; stroke-linecap: square"/>
   </g>
   <g id="line2d_12">
    <path d="M 37.81946 62.718554 
L 39.598473 56.820102 
L 40.310078 55.162483 
L 40.66588 54.628727 
L 41.021683 54.331361 
L 41.377485 54.2929 
L 41.733288 54.528484 
L 42.08909 55.045006 
L 42.800695 56.904163 
L 43.5123 59.749537 
L 44.579708 65.309531 
L 46.714523 76.986377 
L 47.781931 81.330589 
L 48.493536 83.43826 
L 49.205141 84.963377 
L 49.916746 85.993891 
L 50.628351 86.615354 
L 51.339956 86.882349 
L 52.051561 86.809556 
L 52.763166 86.384278 
L 53.474771 85.59515 
L 54.186376 84.465877 
L 55.609586 81.590836 
L 56.676993 79.604341 
L 57.388599 78.749084 
L 57.744401 78.524992 
L 58.100204 78.453406 
L 58.456006 78.539342 
L 58.811809 78.781379 
L 59.523414 79.697074 
L 60.235019 81.073443 
L 62.725636 86.607151 
L 63.437241 87.611869 
L 64.148846 88.161601 
L 64.860451 88.261991 
L 65.572056 87.985216 
L 66.639464 87.138809 
L 68.062674 86.000945 
L 68.774279 85.739751 
L 69.485884 85.817626 
L 70.197489 86.29362 
L 70.909094 87.197173 
L 71.620699 88.53136 
L 72.332304 90.271765 
L 73.399712 93.5057 
L 75.890329 101.57582 
L 76.601934 103.188091 
L 77.313539 104.198953 
L 77.669342 104.457989 
L 78.025144 104.553008 
L 78.380947 104.491308 
L 79.092552 103.95157 
L 79.804157 102.981375 
L 81.227367 100.40992 
L 86.920207 89.634274 
L 87.631812 88.793987 
L 87.987615 88.566562 
L 88.343417 88.489558 
L 88.69922 88.572996 
L 89.055022 88.82062 
L 89.766627 89.789598 
L 90.478232 91.295372 
L 91.901442 95.159829 
L 93.324652 98.875761 
L 94.39206 101.084064 
L 95.459468 102.831174 
L 96.526875 104.174043 
L 97.23848 104.745149 
L 97.594283 104.880604 
L 97.950085 104.884974 
L 98.305888 104.733909 
L 98.66169 104.404475 
L 99.017493 103.877133 
L 99.729098 102.1785 
L 100.440703 99.612857 
L 101.50811 94.417354 
L 103.998728 81.279302 
L 104.710333 78.682899 
L 105.421938 76.890923 
L 106.133543 75.827131 
L 106.845148 75.28683 
L 108.268358 74.630219 
L 108.979963 73.967805 
L 109.691568 72.847473 
L 110.403173 71.236732 
L 111.470581 68.108041 
L 113.249593 62.611531 
L 113.961198 60.904179 
L 114.672803 59.676401 
L 115.384408 58.959557 
L 116.096013 58.713439 
L 116.807618 58.844151 
L 117.519223 59.229147 
L 120.721446 61.339548 
L 122.144656 61.793153 
L 124.279471 62.342151 
L 124.991076 62.752812 
L 125.702681 63.441729 
L 126.414286 64.502476 
L 127.125891 65.980597 
L 128.193299 68.873812 
L 129.972311 73.958753 
L 130.683916 75.352411 
L 131.395521 76.091744 
L 131.751324 76.200642 
L 132.107126 76.145858 
L 132.818731 75.627141 
L 135.309349 72.913935 
L 135.665152 72.822021 
L 136.020954 72.857269 
L 136.732559 73.304791 
L 137.444164 74.1865 
L 138.511572 75.99722 
L 139.934782 78.369812 
L 140.646387 79.167208 
L 141.357992 79.54386 
L 141.713794 79.550671 
L 142.069597 79.429295 
L 142.781202 78.797942 
L 143.492807 77.672337 
L 144.204412 76.124505 
L 145.627622 72.273924 
L 147.050832 68.552342 
L 147.762437 67.181833 
L 148.474042 66.333731 
L 148.829845 66.138146 
L 149.185647 66.106416 
L 149.54145 66.243227 
L 149.897252 66.549879 
L 150.608857 67.65986 
L 151.320462 69.37193 
L 152.38787 72.764845 
L 154.166882 78.655012 
L 154.878487 80.227633 
L 155.23429 80.701485 
L 155.590092 80.931026 
L 155.945895 80.898351 
L 156.301697 80.594392 
L 156.6575 80.019744 
L 157.369105 78.110691 
L 158.08071 75.369153 
L 160.92713 62.900145 
L 161.638735 60.879648 
L 162.35034 59.48788 
L 163.061945 58.587622 
L 164.485155 57.417868 
L 165.552563 56.391532 
L 168.398983 53.15185 
L 168.754785 53.015024 
L 169.110588 53.004411 
L 169.46639 53.134545 
L 169.822193 53.417207 
L 170.533798 54.475649 
L 171.245403 56.23478 
L 171.957008 58.734865 
L 172.668613 62.008255 
L 173.736021 68.387929 
L 174.803428 76.348622 
L 177.294046 96.404356 
L 178.005651 100.6671 
L 178.717256 103.489077 
L 179.073058 104.265565 
L 179.428861 104.588709 
L 179.784663 104.449861 
L 180.140466 103.852113 
L 180.496268 102.810052 
L 181.207873 99.504781 
L 181.919478 94.8479 
L 183.342689 83.224152 
L 184.765899 71.607094 
L 185.833306 64.684075 
L 186.544911 61.31289 
L 187.256516 59.017345 
L 187.612319 58.270631 
L 187.968121 57.784151 
L 188.323924 57.550615 
L 188.679726 57.56224 
L 189.035529 57.811395 
L 189.391331 58.291007 
L 190.102936 59.916742 
L 190.814541 62.393387 
L 191.526146 65.668883 
L 192.593554 71.889917 
L 194.372566 84.284556 
L 195.795776 93.451444 
L 196.507382 96.85951 
L 197.218987 99.118451 
L 197.574789 99.770102 
L 197.930592 100.097641 
L 198.286394 100.110669 
L 198.642197 99.830276 
L 198.997999 99.288842 
L 199.709604 97.604041 
L 201.488617 92.715461 
L 201.844419 92.142863 
L 202.200222 91.837877 
L 202.556024 91.83891 
L 202.911827 92.171211 
L 203.267629 92.84553 
L 203.979234 95.187547 
L 204.690839 98.653876 
L 207.181457 112.701301 
L 207.893062 114.970346 
L 208.248864 115.531628 
L 208.604667 115.669601 
L 208.96047 115.367893 
L 209.316272 114.621664 
L 209.672075 113.437132 
L 210.38368 109.828371 
L 211.095285 104.777358 
L 212.162692 95.269655 
L 214.65331 71.585182 
L 215.364915 66.3081 
L 215.364915 66.3081 
" clip-path="url(#p8de198d4f5)" style="fill: none; stroke: #000000; stroke-opacity: 0.5; stroke-width: 2; stroke-linecap: square"/>
   </g>
   <g id="line2d_13">
    <path d="M 37.81946 86.145501 
L 38.531065 88.659554 
L 39.24267 92.375494 
L 41.021683 103.965714 
L 42.08909 110.008991 
L 42.800695 112.781735 
L 43.156498 113.684939 
L 43.5123 114.235829 
L 43.868103 114.420832 
L 44.223905 114.233437 
L 44.579708 113.674007 
L 44.935511 112.749664 
L 45.647116 109.867909 
L 46.358721 105.776724 
L 47.426128 98.028827 
L 49.560943 81.817396 
L 50.272548 77.743204 
L 50.984153 74.833233 
L 51.695758 73.17534 
L 52.051561 72.799158 
L 52.407363 72.697597 
L 52.763166 72.841038 
L 53.118968 73.194581 
L 53.830573 74.377679 
L 55.253783 77.595708 
L 56.321191 79.860858 
L 57.388599 81.62025 
L 58.456006 82.898072 
L 59.523414 83.790643 
L 60.235019 84.146858 
L 60.946624 84.216759 
L 61.302426 84.103335 
L 61.658229 83.865356 
L 62.369834 82.938149 
L 63.081439 81.300841 
L 63.793044 78.884876 
L 64.504649 75.729186 
L 65.927859 68.032005 
L 66.995266 62.540619 
L 67.706871 59.900726 
L 68.062674 59.057957 
L 68.418476 58.594766 
L 68.774279 58.545067 
L 69.130081 58.930963 
L 69.485884 59.761565 
L 69.841686 61.032342 
L 70.553292 64.808076 
L 71.264897 69.959442 
L 74.467119 96.132618 
L 75.178724 99.54858 
L 75.534527 100.688594 
L 75.890329 101.441838 
L 76.246132 101.815334 
L 76.601934 101.825294 
L 76.957737 101.495682 
L 77.313539 100.856573 
L 78.025144 98.790308 
L 78.736749 95.924156 
L 80.159959 88.920203 
L 82.650577 76.468421 
L 84.073787 70.321032 
L 85.496997 65.031405 
L 86.564405 61.703599 
L 87.631812 59.078553 
L 88.343417 57.815903 
L 89.055022 57.009279 
L 89.766627 56.699178 
L 90.12243 56.736653 
L 90.478232 56.902478 
L 91.189837 57.60867 
L 91.901442 58.779663 
L 92.613047 60.350829 
L 93.680455 63.250942 
L 95.81527 69.260566 
L 96.526875 70.664056 
L 97.23848 71.455902 
L 97.594283 71.576919 
L 97.950085 71.498527 
L 98.305888 71.215073 
L 98.66169 70.726687 
L 99.373295 69.165569 
L 100.0849 66.933127 
L 101.50811 61.283574 
L 102.93132 55.69512 
L 103.642925 53.456732 
L 104.35453 51.763432 
L 105.066135 50.665427 
L 105.77774 50.157868 
L 106.133543 50.112541 
L 106.489345 50.195609 
L 107.20095 50.708466 
L 107.912556 51.613501 
L 108.979963 53.513766 
L 112.537988 60.784754 
L 113.249593 61.657064 
L 113.961198 62.095686 
L 114.317001 62.126838 
L 114.672803 62.022959 
L 115.028606 61.780309 
L 115.740211 60.881095 
L 116.451816 59.47437 
L 117.519223 56.682309 
L 118.942433 52.779863 
L 119.654038 51.324376 
L 120.365644 50.518762 
L 120.721446 50.414242 
L 121.077249 50.526157 
L 121.433051 50.859185 
L 121.788854 51.410753 
L 122.500459 53.123276 
L 123.212064 55.506237 
L 126.414286 67.606851 
L 127.125891 69.258681 
L 127.837496 70.320436 
L 128.549101 70.828214 
L 128.904904 70.89458 
L 129.616509 70.692449 
L 130.328114 70.077233 
L 131.039719 69.052461 
L 131.751324 67.582588 
L 132.462929 65.613342 
L 133.174534 63.10406 
L 134.241942 58.359352 
L 136.020954 48.814914 
L 137.444164 41.478728 
L 138.511572 37.099802 
L 139.223177 34.890994 
L 139.934782 33.287598 
L 140.646387 32.311241 
L 141.002189 32.071207 
L 141.357992 32.008581 
L 141.713794 32.135841 
L 142.069597 32.467926 
L 142.425399 33.021482 
L 143.137004 34.861765 
L 143.848609 37.780321 
L 144.560214 41.848935 
L 145.271819 47.052769 
L 146.339227 56.700496 
L 148.474042 79.322345 
L 149.897252 93.272108 
L 150.96466 101.398976 
L 151.676265 105.287992 
L 152.38787 107.809789 
L 152.743672 108.549552 
L 153.099475 108.951915 
L 153.455277 109.034387 
L 153.81108 108.82281 
L 154.166882 108.351288 
L 154.878487 106.803545 
L 156.6575 102.032128 
L 157.013302 101.413312 
L 157.369105 101.039559 
L 157.724907 100.955705 
L 158.08071 101.196936 
L 158.436513 101.787314 
L 158.792315 102.738666 
L 159.50392 105.70703 
L 160.215525 109.939335 
L 161.638735 120.649158 
L 162.706143 128.509758 
L 163.417748 132.576206 
L 164.129353 135.107571 
L 164.485155 135.672434 
L 164.840958 135.720532 
L 165.19676 135.226363 
L 165.552563 134.174079 
L 165.908365 132.557538 
L 166.61997 127.65563 
L 167.331575 120.663854 
L 168.398983 106.934312 
L 171.957008 55.350755 
L 172.668613 48.595192 
L 173.380218 44.037381 
L 173.736021 42.60154 
L 174.091823 41.706868 
L 174.447626 41.319513 
L 174.803428 41.392861 
L 175.159231 41.869698 
L 175.870836 43.767972 
L 176.938243 47.910064 
L 178.005651 52.065624 
L 178.717256 54.255498 
L 179.428861 55.822578 
L 180.140466 56.822153 
L 180.852071 57.439103 
L 181.919478 58.225132 
L 182.631083 59.059004 
L 183.342689 60.41149 
L 184.054294 62.430867 
L 184.765899 65.169589 
L 185.833306 70.482397 
L 188.679726 85.946695 
L 189.391331 88.301179 
L 189.747134 89.052796 
L 190.102936 89.499285 
L 190.458739 89.63744 
L 190.814541 89.474897 
L 191.170344 89.029938 
L 191.881949 87.414073 
L 192.949356 83.815886 
L 194.372566 78.854617 
L 195.084171 77.021286 
L 195.795776 75.835727 
L 196.507382 75.296343 
L 196.863184 75.23904 
L 197.574789 75.450771 
L 198.642197 76.238897 
L 199.709604 77.075449 
L 200.421209 77.441021 
L 201.132814 77.561884 
L 201.844419 77.412945 
L 202.556024 77.021388 
L 204.690839 75.540439 
L 205.046642 75.495798 
L 205.402444 75.584287 
L 205.758247 75.833085 
L 206.114049 76.266039 
L 206.825654 77.754198 
L 207.537259 80.118963 
L 208.248864 83.299719 
L 209.672075 91.182606 
L 210.739482 96.986073 
L 211.451087 100.067695 
L 212.162692 102.184902 
L 212.518495 102.841439 
L 212.874297 103.232869 
L 213.2301 103.37743 
L 213.585902 103.305664 
L 214.297507 102.689031 
L 215.364915 101.43372 
L 215.364915 101.43372 
" clip-path="url(#p8de198d4f5)" style="fill: none; stroke: #000000; stroke-opacity: 0.5; stroke-width: 2; stroke-linecap: square"/>
   </g>
   <g id="line2d_14">
    <path d="M 37.81946 77.103083 
L 38.531065 78.100723 
L 39.24267 78.555943 
L 39.598473 78.567988 
L 39.954275 78.442255 
L 40.66588 77.824399 
L 41.377485 76.826985 
L 42.800695 74.276502 
L 44.935511 70.513149 
L 46.358721 67.963923 
L 47.070326 66.367395 
L 47.781931 64.373817 
L 48.493536 61.874496 
L 49.560943 57.080924 
L 50.984153 49.091812 
L 52.763166 38.963457 
L 53.474771 35.90723 
L 54.186376 33.936318 
L 54.542178 33.446614 
L 54.897981 33.322096 
L 55.253783 33.578518 
L 55.609586 34.222211 
L 55.965388 35.249495 
L 56.676993 38.389392 
L 57.388599 42.773533 
L 58.456006 50.90189 
L 60.590821 67.733463 
L 61.658229 74.381367 
L 62.725636 79.306533 
L 63.437241 81.671039 
L 64.148846 83.39217 
L 64.860451 84.576822 
L 65.572056 85.350203 
L 66.639464 86.048814 
L 68.062674 86.86641 
L 69.130081 87.825443 
L 71.264897 90.118641 
L 71.976502 90.38517 
L 72.332304 90.306301 
L 72.688107 90.056008 
L 73.043909 89.617501 
L 73.755514 88.138712 
L 74.467119 85.863999 
L 75.534527 81.219656 
L 78.025144 69.138885 
L 78.736749 66.692894 
L 79.448354 65.099497 
L 79.804157 64.650115 
L 80.159959 64.433452 
L 80.515762 64.442128 
L 80.871564 64.662742 
L 81.583169 65.660914 
L 82.294774 67.234917 
L 83.717985 71.23602 
L 85.496997 76.128682 
L 87.27601 80.206192 
L 89.410825 85.028039 
L 90.834035 88.75059 
L 92.96885 95.077005 
L 94.39206 99.136907 
L 95.459468 101.570177 
L 96.171073 102.74604 
L 96.882678 103.520894 
L 97.594283 103.90496 
L 98.305888 103.94492 
L 99.017493 103.708368 
L 100.0849 102.981023 
L 101.152308 101.9291 
L 102.219715 100.55136 
L 103.287123 98.729209 
L 104.35453 96.330435 
L 105.421938 93.320463 
L 106.845148 88.575883 
L 109.691568 78.754494 
L 111.114778 74.71156 
L 112.182186 72.445123 
L 112.893791 71.433105 
L 113.605396 70.888103 
L 114.317001 70.817977 
L 115.028606 71.152602 
L 116.807618 72.444525 
L 117.163421 72.484872 
L 117.519223 72.356917 
L 117.875026 72.024184 
L 118.230828 71.456479 
L 118.942433 69.538707 
L 119.654038 66.556115 
L 120.721446 60.441586 
L 122.856261 47.333391 
L 123.567866 44.497101 
L 123.923669 43.587841 
L 124.279471 43.050458 
L 124.635274 42.893084 
L 124.991076 43.11029 
L 125.346879 43.683309 
L 126.058484 45.760015 
L 127.125891 50.428358 
L 128.549101 56.836581 
L 129.260706 58.980257 
L 129.616509 59.61665 
L 129.972311 59.923316 
L 130.328114 59.884656 
L 130.683916 59.496444 
L 131.039719 58.765471 
L 131.751324 56.352623 
L 132.462929 52.884246 
L 133.886139 44.180719 
L 135.309349 35.676168 
L 136.020954 32.349937 
L 136.732559 29.985649 
L 137.088362 29.223081 
L 137.444164 28.763696 
L 137.799967 28.62 
L 138.155769 28.800186 
L 138.511572 29.307865 
L 138.867374 30.141739 
L 139.578979 32.756428 
L 140.290584 36.524878 
L 141.357992 43.860977 
L 144.560214 67.820152 
L 145.627622 73.253315 
L 146.339227 75.828969 
L 147.050832 77.666591 
L 147.762437 78.939986 
L 150.253055 82.584883 
L 150.96466 84.580733 
L 151.676265 87.505347 
L 152.38787 91.552545 
L 153.099475 96.813692 
L 154.166882 106.850839 
L 155.945895 127.004087 
L 157.369105 142.078963 
L 158.08071 147.881433 
L 158.792315 152.003997 
L 159.148118 153.362058 
L 159.50392 154.233758 
L 159.859723 154.62 
L 160.215525 154.532733 
L 160.571328 153.994306 
L 160.92713 153.036461 
L 161.638735 150.028202 
L 162.35034 145.892629 
L 164.129353 133.36525 
L 165.552563 123.786437 
L 166.975773 115.764463 
L 168.754785 107.251069 
L 174.091823 83.129646 
L 174.803428 80.734515 
L 175.515033 78.973099 
L 175.870836 78.388256 
L 176.226638 78.028562 
L 176.582441 77.91096 
L 176.938243 78.047833 
L 177.294046 78.446015 
L 177.649848 79.106054 
L 178.361453 81.180036 
L 179.073058 84.14035 
L 180.140466 89.744403 
L 182.631083 103.524145 
L 183.698491 108.098581 
L 184.410096 110.458697 
L 185.121701 112.208992 
L 185.833306 113.289977 
L 186.189109 113.556807 
L 186.544911 113.628381 
L 186.900714 113.495955 
L 187.256516 113.152681 
L 187.612319 112.594668 
L 188.323924 110.839558 
L 189.035529 108.292492 
L 190.102936 103.342231 
L 192.237751 92.743264 
L 192.949356 90.093308 
L 193.660961 88.261242 
L 194.016764 87.685464 
L 194.372566 87.341717 
L 194.728369 87.226187 
L 195.084171 87.329424 
L 195.439974 87.636983 
L 196.151579 88.787206 
L 196.863184 90.49393 
L 198.286394 94.764276 
L 200.065407 99.968487 
L 201.132814 102.425022 
L 202.200222 104.215024 
L 202.911827 104.975684 
L 203.623432 105.307579 
L 203.979234 105.278794 
L 204.335037 105.097616 
L 204.690839 104.745125 
L 205.046642 104.201718 
L 205.758247 102.466396 
L 206.469852 99.761957 
L 207.181457 96.021433 
L 208.248864 88.571213 
L 209.672075 76.347827 
L 211.095285 64.338832 
L 211.80689 59.52936 
L 212.518495 55.998072 
L 213.2301 53.933682 
L 213.585902 53.462182 
L 213.941705 53.347353 
L 214.297507 53.56305 
L 214.65331 54.073924 
L 215.364915 55.804238 
L 215.364915 55.804238 
" clip-path="url(#p8de198d4f5)" style="fill: none; stroke: #000000; stroke-opacity: 0.5; stroke-width: 2; stroke-linecap: square"/>
   </g>
   <g id="patch_3">
    <path d="M 28.942188 160.92 
L 28.942188 22.32 
" style="fill: none; stroke: #000000; stroke-width: 0.8; stroke-linejoin: miter; stroke-linecap: square"/>
   </g>
   <g id="patch_4">
    <path d="M 224.242188 160.92 
L 224.242188 22.32 
" style="fill: none; stroke: #000000; stroke-width: 0.8; stroke-linejoin: miter; stroke-linecap: square"/>
   </g>
   <g id="patch_5">
    <path d="M 28.942188 160.92 
L 224.242188 160.92 
" style="fill: none; stroke: #000000; stroke-width: 0.8; stroke-linejoin: miter; stroke-linecap: square"/>
   </g>
   <g id="patch_6">
    <path d="M 28.942188 22.32 
L 224.242188 22.32 
" style="fill: none; stroke: #000000; stroke-width: 0.8; stroke-linejoin: miter; stroke-linecap: square"/>
   </g>
   <g id="text_10">
    <!-- Lengthscale $\ell$=0.500, Amplitude $a$=1 -->
    <g transform="translate(14.692188 16.32)scale(0.12 -0.12)">
     <defs>
      <path id="DejaVuSans-4c" d="M 628 4666 
L 1259 4666 
L 1259 531 
L 3531 531 
L 3531 0 
L 628 0 
L 628 4666 
z
" transform="scale(0.015625)"/>
      <path id="DejaVuSans-65" d="M 3597 1894 
L 3597 1613 
L 953 1613 
Q 991 1019 1311 708 
Q 1631 397 2203 397 
Q 2534 397 2845 478 
Q 3156 559 3463 722 
L 3463 178 
Q 3153 47 2828 -22 
Q 2503 -91 2169 -91 
Q 1331 -91 842 396 
Q 353 884 353 1716 
Q 353 2575 817 3079 
Q 1281 3584 2069 3584 
Q 2775 3584 3186 3129 
Q 3597 2675 3597 1894 
z
M 3022 2063 
Q 3016 2534 2758 2815 
Q 2500 3097 2075 3097 
Q 1594 3097 1305 2825 
Q 1016 2553 972 2059 
L 3022 2063 
z
" transform="scale(0.015625)"/>
      <path id="DejaVuSans-6e" d="M 3513 2113 
L 3513 0 
L 2938 0 
L 2938 2094 
Q 2938 2591 2744 2837 
Q 2550 3084 2163 3084 
Q 1697 3084 1428 2787 
Q 1159 2491 1159 1978 
L 1159 0 
L 581 0 
L 581 3500 
L 1159 3500 
L 1159 2956 
Q 1366 3272 1645 3428 
Q 1925 3584 2291 3584 
Q 2894 3584 3203 3211 
Q 3513 2838 3513 2113 
z
" transform="scale(0.015625)"/>
      <path id="DejaVuSans-67" d="M 2906 1791 
Q 2906 2416 2648 2759 
Q 2391 3103 1925 3103 
Q 1463 3103 1205 2759 
Q 947 2416 947 1791 
Q 947 1169 1205 825 
Q 1463 481 1925 481 
Q 2391 481 2648 825 
Q 2906 1169 2906 1791 
z
M 3481 434 
Q 3481 -459 3084 -895 
Q 2688 -1331 1869 -1331 
Q 1566 -1331 1297 -1286 
Q 1028 -1241 775 -1147 
L 775 -588 
Q 1028 -725 1275 -790 
Q 1522 -856 1778 -856 
Q 2344 -856 2625 -561 
Q 2906 -266 2906 331 
L 2906 616 
Q 2728 306 2450 153 
Q 2172 0 1784 0 
Q 1141 0 747 490 
Q 353 981 353 1791 
Q 353 2603 747 3093 
Q 1141 3584 1784 3584 
Q 2172 3584 2450 3431 
Q 2728 3278 2906 2969 
L 2906 3500 
L 3481 3500 
L 3481 434 
z
" transform="scale(0.015625)"/>
      <path id="DejaVuSans-74" d="M 1172 4494 
L 1172 3500 
L 2356 3500 
L 2356 3053 
L 1172 3053 
L 1172 1153 
Q 1172 725 1289 603 
Q 1406 481 1766 481 
L 2356 481 
L 2356 0 
L 1766 0 
Q 1100 0 847 248 
Q 594 497 594 1153 
L 594 3053 
L 172 3053 
L 172 3500 
L 594 3500 
L 594 4494 
L 1172 4494 
z
" transform="scale(0.015625)"/>
      <path id="DejaVuSans-68" d="M 3513 2113 
L 3513 0 
L 2938 0 
L 2938 2094 
Q 2938 2591 2744 2837 
Q 2550 3084 2163 3084 
Q 1697 3084 1428 2787 
Q 1159 2491 1159 1978 
L 1159 0 
L 581 0 
L 581 4863 
L 1159 4863 
L 1159 2956 
Q 1366 3272 1645 3428 
Q 1925 3584 2291 3584 
Q 2894 3584 3203 3211 
Q 3513 2838 3513 2113 
z
" transform="scale(0.015625)"/>
      <path id="DejaVuSans-73" d="M 2834 3397 
L 2834 2853 
Q 2591 2978 2328 3040 
Q 2066 3103 1784 3103 
Q 1356 3103 1142 2972 
Q 928 2841 928 2578 
Q 928 2378 1081 2264 
Q 1234 2150 1697 2047 
L 1894 2003 
Q 2506 1872 2764 1633 
Q 3022 1394 3022 966 
Q 3022 478 2636 193 
Q 2250 -91 1575 -91 
Q 1294 -91 989 -36 
Q 684 19 347 128 
L 347 722 
Q 666 556 975 473 
Q 1284 391 1588 391 
Q 1994 391 2212 530 
Q 2431 669 2431 922 
Q 2431 1156 2273 1281 
Q 2116 1406 1581 1522 
L 1381 1569 
Q 847 1681 609 1914 
Q 372 2147 372 2553 
Q 372 3047 722 3315 
Q 1072 3584 1716 3584 
Q 2034 3584 2315 3537 
Q 2597 3491 2834 3397 
z
" transform="scale(0.015625)"/>
      <path id="DejaVuSans-63" d="M 3122 3366 
L 3122 2828 
Q 2878 2963 2633 3030 
Q 2388 3097 2138 3097 
Q 1578 3097 1268 2742 
Q 959 2388 959 1747 
Q 959 1106 1268 751 
Q 1578 397 2138 397 
Q 2388 397 2633 464 
Q 2878 531 3122 666 
L 3122 134 
Q 2881 22 2623 -34 
Q 2366 -91 2075 -91 
Q 1284 -91 818 406 
Q 353 903 353 1747 
Q 353 2603 823 3093 
Q 1294 3584 2113 3584 
Q 2378 3584 2631 3529 
Q 2884 3475 3122 3366 
z
" transform="scale(0.015625)"/>
      <path id="DejaVuSans-61" d="M 2194 1759 
Q 1497 1759 1228 1600 
Q 959 1441 959 1056 
Q 959 750 1161 570 
Q 1363 391 1709 391 
Q 2188 391 2477 730 
Q 2766 1069 2766 1631 
L 2766 1759 
L 2194 1759 
z
M 3341 1997 
L 3341 0 
L 2766 0 
L 2766 531 
Q 2569 213 2275 61 
Q 1981 -91 1556 -91 
Q 1019 -91 701 211 
Q 384 513 384 1019 
Q 384 1609 779 1909 
Q 1175 2209 1959 2209 
L 2766 2209 
L 2766 2266 
Q 2766 2663 2505 2880 
Q 2244 3097 1772 3097 
Q 1472 3097 1187 3025 
Q 903 2953 641 2809 
L 641 3341 
Q 956 3463 1253 3523 
Q 1550 3584 1831 3584 
Q 2591 3584 2966 3190 
Q 3341 2797 3341 1997 
z
" transform="scale(0.015625)"/>
      <path id="DejaVuSans-6c" d="M 603 4863 
L 1178 4863 
L 1178 0 
L 603 0 
L 603 4863 
z
" transform="scale(0.015625)"/>
      <path id="DejaVuSans-20" transform="scale(0.015625)"/>
      <path id="DejaVuSans-Oblique-2113" d="M 950 838 
Q 1078 213 1350 213 
Q 1531 213 1766 572 
L 2181 572 
Q 1994 253 1775 88 
Q 1538 -91 1319 -91 
Q 831 -91 634 344 
L 400 0 
L -88 0 
Q 250 459 500 888 
Q 469 1131 469 1397 
Q 469 1872 566 2347 
Q 931 4131 1256 4497 
Q 1481 4750 1866 4750 
Q 2256 4750 2256 4209 
Q 2253 3966 2197 3675 
Q 1972 2484 950 838 
z
M 947 1656 
Q 1531 2744 1709 3613 
Q 1803 4072 1803 4191 
Q 1803 4406 1725 4406 
Q 1384 4134 1081 2516 
Q 997 2063 947 1656 
z
" transform="scale(0.015625)"/>
      <path id="DejaVuSans-3d" d="M 678 2906 
L 4684 2906 
L 4684 2381 
L 678 2381 
L 678 2906 
z
M 678 1631 
L 4684 1631 
L 4684 1100 
L 678 1100 
L 678 1631 
z
" transform="scale(0.015625)"/>
      <path id="DejaVuSans-2e" d="M 684 794 
L 1344 794 
L 1344 0 
L 684 0 
L 684 794 
z
" transform="scale(0.015625)"/>
      <path id="DejaVuSans-2c" d="M 750 794 
L 1409 794 
L 1409 256 
L 897 -744 
L 494 -744 
L 750 256 
L 750 794 
z
" transform="scale(0.015625)"/>
      <path id="DejaVuSans-41" d="M 2188 4044 
L 1331 1722 
L 3047 1722 
L 2188 4044 
z
M 1831 4666 
L 2547 4666 
L 4325 0 
L 3669 0 
L 3244 1197 
L 1141 1197 
L 716 0 
L 50 0 
L 1831 4666 
z
" transform="scale(0.015625)"/>
      <path id="DejaVuSans-6d" d="M 3328 2828 
Q 3544 3216 3844 3400 
Q 4144 3584 4550 3584 
Q 5097 3584 5394 3201 
Q 5691 2819 5691 2113 
L 5691 0 
L 5113 0 
L 5113 2094 
Q 5113 2597 4934 2840 
Q 4756 3084 4391 3084 
Q 3944 3084 3684 2787 
Q 3425 2491 3425 1978 
L 3425 0 
L 2847 0 
L 2847 2094 
Q 2847 2600 2669 2842 
Q 2491 3084 2119 3084 
Q 1678 3084 1418 2786 
Q 1159 2488 1159 1978 
L 1159 0 
L 581 0 
L 581 3500 
L 1159 3500 
L 1159 2956 
Q 1356 3278 1631 3431 
Q 1906 3584 2284 3584 
Q 2666 3584 2933 3390 
Q 3200 3197 3328 2828 
z
" transform="scale(0.015625)"/>
      <path id="DejaVuSans-70" d="M 1159 525 
L 1159 -1331 
L 581 -1331 
L 581 3500 
L 1159 3500 
L 1159 2969 
Q 1341 3281 1617 3432 
Q 1894 3584 2278 3584 
Q 2916 3584 3314 3078 
Q 3713 2572 3713 1747 
Q 3713 922 3314 415 
Q 2916 -91 2278 -91 
Q 1894 -91 1617 61 
Q 1341 213 1159 525 
z
M 3116 1747 
Q 3116 2381 2855 2742 
Q 2594 3103 2138 3103 
Q 1681 3103 1420 2742 
Q 1159 2381 1159 1747 
Q 1159 1113 1420 752 
Q 1681 391 2138 391 
Q 2594 391 2855 752 
Q 3116 1113 3116 1747 
z
" transform="scale(0.015625)"/>
      <path id="DejaVuSans-69" d="M 603 3500 
L 1178 3500 
L 1178 0 
L 603 0 
L 603 3500 
z
M 603 4863 
L 1178 4863 
L 1178 4134 
L 603 4134 
L 603 4863 
z
" transform="scale(0.015625)"/>
      <path id="DejaVuSans-75" d="M 544 1381 
L 544 3500 
L 1119 3500 
L 1119 1403 
Q 1119 906 1312 657 
Q 1506 409 1894 409 
Q 2359 409 2629 706 
Q 2900 1003 2900 1516 
L 2900 3500 
L 3475 3500 
L 3475 0 
L 2900 0 
L 2900 538 
Q 2691 219 2414 64 
Q 2138 -91 1772 -91 
Q 1169 -91 856 284 
Q 544 659 544 1381 
z
M 1991 3584 
L 1991 3584 
z
" transform="scale(0.015625)"/>
      <path id="DejaVuSans-64" d="M 2906 2969 
L 2906 4863 
L 3481 4863 
L 3481 0 
L 2906 0 
L 2906 525 
Q 2725 213 2448 61 
Q 2172 -91 1784 -91 
Q 1150 -91 751 415 
Q 353 922 353 1747 
Q 353 2572 751 3078 
Q 1150 3584 1784 3584 
Q 2172 3584 2448 3432 
Q 2725 3281 2906 2969 
z
M 947 1747 
Q 947 1113 1208 752 
Q 1469 391 1925 391 
Q 2381 391 2643 752 
Q 2906 1113 2906 1747 
Q 2906 2381 2643 2742 
Q 2381 3103 1925 3103 
Q 1469 3103 1208 2742 
Q 947 2381 947 1747 
z
" transform="scale(0.015625)"/>
      <path id="DejaVuSans-Oblique-61" d="M 3438 1997 
L 3047 0 
L 2472 0 
L 2578 531 
Q 2325 219 2001 64 
Q 1678 -91 1281 -91 
Q 834 -91 548 182 
Q 263 456 263 884 
Q 263 1497 752 1853 
Q 1241 2209 2100 2209 
L 2900 2209 
L 2931 2363 
Q 2938 2388 2941 2417 
Q 2944 2447 2944 2509 
Q 2944 2788 2717 2942 
Q 2491 3097 2081 3097 
Q 1800 3097 1504 3025 
Q 1209 2953 897 2809 
L 997 3341 
Q 1322 3463 1633 3523 
Q 1944 3584 2234 3584 
Q 2853 3584 3176 3315 
Q 3500 3047 3500 2534 
Q 3500 2431 3484 2292 
Q 3469 2153 3438 1997 
z
M 2816 1759 
L 2241 1759 
Q 1534 1759 1195 1570 
Q 856 1381 856 984 
Q 856 709 1029 553 
Q 1203 397 1509 397 
Q 1978 397 2328 733 
Q 2678 1069 2791 1631 
L 2816 1759 
z
" transform="scale(0.015625)"/>
     </defs>
     <use xlink:href="#DejaVuSans-4c" transform="translate(0 0.015625)"/>
     <use xlink:href="#DejaVuSans-65" transform="translate(55.712891 0.015625)"/>
     <use xlink:href="#DejaVuSans-6e" transform="translate(117.236328 0.015625)"/>
     <use xlink:href="#DejaVuSans-67" transform="translate(180.615234 0.015625)"/>
     <use xlink:href="#DejaVuSans-74" transform="translate(244.091797 0.015625)"/>
     <use xlink:href="#DejaVuSans-68" transform="translate(283.300781 0.015625)"/>
     <use xlink:href="#DejaVuSans-73" transform="translate(346.679688 0.015625)"/>
     <use xlink:href="#DejaVuSans-63" transform="translate(398.779297 0.015625)"/>
     <use xlink:href="#DejaVuSans-61" transform="translate(453.759766 0.015625)"/>
     <use xlink:href="#DejaVuSans-6c" transform="translate(515.039062 0.015625)"/>
     <use xlink:href="#DejaVuSans-65" transform="translate(542.822266 0.015625)"/>
     <use xlink:href="#DejaVuSans-20" transform="translate(604.345703 0.015625)"/>
     <use xlink:href="#DejaVuSans-Oblique-2113" transform="translate(636.132812 0.015625)"/>
     <use xlink:href="#DejaVuSans-3d" transform="translate(677.441406 0.015625)"/>
     <use xlink:href="#DejaVuSans-30" transform="translate(761.230469 0.015625)"/>
     <use xlink:href="#DejaVuSans-2e" transform="translate(824.853516 0.015625)"/>
     <use xlink:href="#DejaVuSans-35" transform="translate(856.640625 0.015625)"/>
     <use xlink:href="#DejaVuSans-30" transform="translate(920.263672 0.015625)"/>
     <use xlink:href="#DejaVuSans-30" transform="translate(983.886719 0.015625)"/>
     <use xlink:href="#DejaVuSans-2c" transform="translate(1047.509766 0.015625)"/>
     <use xlink:href="#DejaVuSans-20" transform="translate(1079.296875 0.015625)"/>
     <use xlink:href="#DejaVuSans-41" transform="translate(1111.083984 0.015625)"/>
     <use xlink:href="#DejaVuSans-6d" transform="translate(1179.492188 0.015625)"/>
     <use xlink:href="#DejaVuSans-70" transform="translate(1276.904297 0.015625)"/>
     <use xlink:href="#DejaVuSans-6c" transform="translate(1340.380859 0.015625)"/>
     <use xlink:href="#DejaVuSans-69" transform="translate(1368.164062 0.015625)"/>
     <use xlink:href="#DejaVuSans-74" transform="translate(1395.947266 0.015625)"/>
     <use xlink:href="#DejaVuSans-75" transform="translate(1435.15625 0.015625)"/>
     <use xlink:href="#DejaVuSans-64" transform="translate(1498.535156 0.015625)"/>
     <use xlink:href="#DejaVuSans-65" transform="translate(1562.011719 0.015625)"/>
     <use xlink:href="#DejaVuSans-20" transform="translate(1623.535156 0.015625)"/>
     <use xlink:href="#DejaVuSans-Oblique-61" transform="translate(1655.322266 0.015625)"/>
     <use xlink:href="#DejaVuSans-3d" transform="translate(1716.601562 0.015625)"/>
     <use xlink:href="#DejaVuSans-31" transform="translate(1800.390625 0.015625)"/>
    </g>
   </g>
  </g>
 </g>
 <defs>
  <clipPath id="p8de198d4f5">
   <rect x="28.942188" y="22.32" width="195.3" height="138.6"/>
  </clipPath>
 </defs>
</svg>
