<?xml version="1.0" encoding="utf-8" standalone="no"?>
<!DOCTYPE svg PUBLIC "-//W3C//DTD SVG 1.1//EN"
  "http://www.w3.org/Graphics/SVG/1.1/DTD/svg11.dtd">
<svg xmlns:xlink="http://www.w3.org/1999/xlink" width="252.054688pt" height="184.798125pt" viewBox="0 0 252.054688 184.798125" xmlns="http://www.w3.org/2000/svg" version="1.1">
 <metadata>
  <rdf:RDF xmlns:dc="http://purl.org/dc/elements/1.1/" xmlns:cc="http://creativecommons.org/ns#" xmlns:rdf="http://www.w3.org/1999/02/22-rdf-syntax-ns#">
   <cc:Work>
    <dc:type rdf:resource="http://purl.org/dc/dcmitype/StillImage"/>
    <dc:date>2022-12-10T17:08:47.167774</dc:date>
    <dc:format>image/svg+xml</dc:format>
    <dc:creator>
     <cc:Agent>
      <dc:title>Matplotlib v3.5.1, https://matplotlib.org/</dc:title>
     </cc:Agent>
    </dc:creator>
   </cc:Work>
  </rdf:RDF>
 </metadata>
 <defs>
  <style type="text/css">*{stroke-linejoin: round; stroke-linecap: butt}</style>
 </defs>
 <g id="figure_1">
  <g id="patch_1">
   <path d="M 0 184.798125 
L 252.054688 184.798125 
L 252.054688 0 
L 0 0 
z
" style="fill: #ffffff"/>
  </g>
  <g id="axes_1">
   <g id="patch_2">
    <path d="M 35.304688 160.92 
L 230.604688 160.92 
L 230.604688 22.32 
L 35.304688 22.32 
z
" style="fill: #ffffff"/>
   </g>
   <g id="matplotlib.axis_1">
    <g id="xtick_1">
     <g id="line2d_1">
      <defs>
       <path id="mbb20253416" d="M 0 0 
L 0 3.5 
" style="stroke: #000000; stroke-width: 0.8"/>
      </defs>
      <g>
       <use xlink:href="#mbb20253416" x="44.18196" y="160.92" style="stroke: #000000; stroke-width: 0.8"/>
      </g>
     </g>
     <g id="text_1">
      <!-- 0 -->
      <g transform="translate(41.00071 175.518438)scale(0.1 -0.1)">
       <defs>
        <path id="DejaVuSans-30" d="M 2034 4250 
Q 1547 4250 1301 3770 
Q 1056 3291 1056 2328 
Q 1056 1369 1301 889 
Q 1547 409 2034 409 
Q 2525 409 2770 889 
Q 3016 1369 3016 2328 
Q 3016 3291 2770 3770 
Q 2525 4250 2034 4250 
z
M 2034 4750 
Q 2819 4750 3233 4129 
Q 3647 3509 3647 2328 
Q 3647 1150 3233 529 
Q 2819 -91 2034 -91 
Q 1250 -91 836 529 
Q 422 1150 422 2328 
Q 422 3509 836 4129 
Q 1250 4750 2034 4750 
z
" transform="scale(0.015625)"/>
       </defs>
       <use xlink:href="#DejaVuSans-30"/>
      </g>
     </g>
    </g>
    <g id="xtick_2">
     <g id="line2d_2">
      <g>
       <use xlink:href="#mbb20253416" x="79.691051" y="160.92" style="stroke: #000000; stroke-width: 0.8"/>
      </g>
     </g>
     <g id="text_2">
      <!-- 5 -->
      <g transform="translate(76.509801 175.518438)scale(0.1 -0.1)">
       <defs>
        <path id="DejaVuSans-35" d="M 691 4666 
L 3169 4666 
L 3169 4134 
L 1269 4134 
L 1269 2991 
Q 1406 3038 1543 3061 
Q 1681 3084 1819 3084 
Q 2600 3084 3056 2656 
Q 3513 2228 3513 1497 
Q 3513 744 3044 326 
Q 2575 -91 1722 -91 
Q 1428 -91 1123 -41 
Q 819 9 494 109 
L 494 744 
Q 775 591 1075 516 
Q 1375 441 1709 441 
Q 2250 441 2565 725 
Q 2881 1009 2881 1497 
Q 2881 1984 2565 2268 
Q 2250 2553 1709 2553 
Q 1456 2553 1204 2497 
Q 953 2441 691 2322 
L 691 4666 
z
" transform="scale(0.015625)"/>
       </defs>
       <use xlink:href="#DejaVuSans-35"/>
      </g>
     </g>
    </g>
    <g id="xtick_3">
     <g id="line2d_3">
      <g>
       <use xlink:href="#mbb20253416" x="115.200142" y="160.92" style="stroke: #000000; stroke-width: 0.8"/>
      </g>
     </g>
     <g id="text_3">
      <!-- 10 -->
      <g transform="translate(108.837642 175.518438)scale(0.1 -0.1)">
       <defs>
        <path id="DejaVuSans-31" d="M 794 531 
L 1825 531 
L 1825 4091 
L 703 3866 
L 703 4441 
L 1819 4666 
L 2450 4666 
L 2450 531 
L 3481 531 
L 3481 0 
L 794 0 
L 794 531 
z
" transform="scale(0.015625)"/>
       </defs>
       <use xlink:href="#DejaVuSans-31"/>
       <use xlink:href="#DejaVuSans-30" x="63.623047"/>
      </g>
     </g>
    </g>
    <g id="xtick_4">
     <g id="line2d_4">
      <g>
       <use xlink:href="#mbb20253416" x="150.709233" y="160.92" style="stroke: #000000; stroke-width: 0.8"/>
      </g>
     </g>
     <g id="text_4">
      <!-- 15 -->
      <g transform="translate(144.346733 175.518438)scale(0.1 -0.1)">
       <use xlink:href="#DejaVuSans-31"/>
       <use xlink:href="#DejaVuSans-35" x="63.623047"/>
      </g>
     </g>
    </g>
    <g id="xtick_5">
     <g id="line2d_5">
      <g>
       <use xlink:href="#mbb20253416" x="186.218324" y="160.92" style="stroke: #000000; stroke-width: 0.8"/>
      </g>
     </g>
     <g id="text_5">
      <!-- 20 -->
      <g transform="translate(179.855824 175.518438)scale(0.1 -0.1)">
       <defs>
        <path id="DejaVuSans-32" d="M 1228 531 
L 3431 531 
L 3431 0 
L 469 0 
L 469 531 
Q 828 903 1448 1529 
Q 2069 2156 2228 2338 
Q 2531 2678 2651 2914 
Q 2772 3150 2772 3378 
Q 2772 3750 2511 3984 
Q 2250 4219 1831 4219 
Q 1534 4219 1204 4116 
Q 875 4013 500 3803 
L 500 4441 
Q 881 4594 1212 4672 
Q 1544 4750 1819 4750 
Q 2544 4750 2975 4387 
Q 3406 4025 3406 3419 
Q 3406 3131 3298 2873 
Q 3191 2616 2906 2266 
Q 2828 2175 2409 1742 
Q 1991 1309 1228 531 
z
" transform="scale(0.015625)"/>
       </defs>
       <use xlink:href="#DejaVuSans-32"/>
       <use xlink:href="#DejaVuSans-30" x="63.623047"/>
      </g>
     </g>
    </g>
    <g id="xtick_6">
     <g id="line2d_6">
      <g>
       <use xlink:href="#mbb20253416" x="221.727415" y="160.92" style="stroke: #000000; stroke-width: 0.8"/>
      </g>
     </g>
     <g id="text_6">
      <!-- 25 -->
      <g transform="translate(215.364915 175.518438)scale(0.1 -0.1)">
       <use xlink:href="#DejaVuSans-32"/>
       <use xlink:href="#DejaVuSans-35" x="63.623047"/>
      </g>
     </g>
    </g>
   </g>
   <g id="matplotlib.axis_2">
    <g id="ytick_1">
     <g id="line2d_7">
      <defs>
       <path id="m7badbde871" d="M 0 0 
L -3.5 0 
" style="stroke: #000000; stroke-width: 0.8"/>
      </defs>
      <g>
       <use xlink:href="#m7badbde871" x="35.304688" y="160.92" style="stroke: #000000; stroke-width: 0.8"/>
      </g>
     </g>
     <g id="text_7">
      <!-- −40 -->
      <g transform="translate(7.2 164.719219)scale(0.1 -0.1)">
       <defs>
        <path id="DejaVuSans-2212" d="M 678 2272 
L 4684 2272 
L 4684 1741 
L 678 1741 
L 678 2272 
z
" transform="scale(0.015625)"/>
        <path id="DejaVuSans-34" d="M 2419 4116 
L 825 1625 
L 2419 1625 
L 2419 4116 
z
M 2253 4666 
L 3047 4666 
L 3047 1625 
L 3713 1625 
L 3713 1100 
L 3047 1100 
L 3047 0 
L 2419 0 
L 2419 1100 
L 313 1100 
L 313 1709 
L 2253 4666 
z
" transform="scale(0.015625)"/>
       </defs>
       <use xlink:href="#DejaVuSans-2212"/>
       <use xlink:href="#DejaVuSans-34" x="83.789062"/>
       <use xlink:href="#DejaVuSans-30" x="147.412109"/>
      </g>
     </g>
    </g>
    <g id="ytick_2">
     <g id="line2d_8">
      <g>
       <use xlink:href="#m7badbde871" x="35.304688" y="126.27" style="stroke: #000000; stroke-width: 0.8"/>
      </g>
     </g>
     <g id="text_8">
      <!-- −20 -->
      <g transform="translate(7.2 130.069219)scale(0.1 -0.1)">
       <use xlink:href="#DejaVuSans-2212"/>
       <use xlink:href="#DejaVuSans-32" x="83.789062"/>
       <use xlink:href="#DejaVuSans-30" x="147.412109"/>
      </g>
     </g>
    </g>
    <g id="ytick_3">
     <g id="line2d_9">
      <g>
       <use xlink:href="#m7badbde871" x="35.304688" y="91.62" style="stroke: #000000; stroke-width: 0.8"/>
      </g>
     </g>
     <g id="text_9">
      <!-- 0 -->
      <g transform="translate(21.942187 95.419219)scale(0.1 -0.1)">
       <use xlink:href="#DejaVuSans-30"/>
      </g>
     </g>
    </g>
    <g id="ytick_4">
     <g id="line2d_10">
      <g>
       <use xlink:href="#m7badbde871" x="35.304688" y="56.97" style="stroke: #000000; stroke-width: 0.8"/>
      </g>
     </g>
     <g id="text_10">
      <!-- 20 -->
      <g transform="translate(15.579687 60.769219)scale(0.1 -0.1)">
       <use xlink:href="#DejaVuSans-32"/>
       <use xlink:href="#DejaVuSans-30" x="63.623047"/>
      </g>
     </g>
    </g>
    <g id="ytick_5">
     <g id="line2d_11">
      <g>
       <use xlink:href="#m7badbde871" x="35.304688" y="22.32" style="stroke: #000000; stroke-width: 0.8"/>
      </g>
     </g>
     <g id="text_11">
      <!-- 40 -->
      <g transform="translate(15.579687 26.119219)scale(0.1 -0.1)">
       <use xlink:href="#DejaVuSans-34"/>
       <use xlink:href="#DejaVuSans-30" x="63.623047"/>
      </g>
     </g>
    </g>
   </g>
   <g id="line2d_12">
    <path d="M 44.18196 107.864616 
L 44.893565 108.235183 
L 45.60517 108.392842 
L 46.316775 108.338953 
L 47.02838 108.079234 
L 47.739985 107.622947 
L 48.807393 106.596827 
L 49.8748 105.204178 
L 51.298011 102.870116 
L 53.077023 99.372493 
L 55.923443 93.067229 
L 58.769863 86.920458 
L 60.193073 84.284773 
L 61.616283 82.109835 
L 62.683691 80.826153 
L 63.751099 79.849844 
L 64.818506 79.166089 
L 65.885914 78.739925 
L 66.953321 78.520359 
L 68.376531 78.443318 
L 73.001964 78.387283 
L 75.492581 77.9698 
L 77.983199 77.56814 
L 79.406409 77.551978 
L 80.829619 77.800551 
L 81.897027 78.188762 
L 83.320237 78.973247 
L 85.099249 80.29895 
L 89.013077 83.431978 
L 90.436287 84.180411 
L 91.503695 84.486424 
L 92.571102 84.550355 
L 93.63851 84.377185 
L 94.705917 83.996777 
L 96.48493 83.053567 
L 98.975547 81.678987 
L 100.042955 81.291996 
L 101.110362 81.11824 
L 102.17777 81.192383 
L 103.245178 81.521384 
L 104.312585 82.083884 
L 105.735795 83.113665 
L 110.005425 86.526525 
L 111.428635 87.269238 
L 112.851845 87.702739 
L 114.275056 87.87322 
L 119.256291 88.164518 
L 120.679501 88.676815 
L 122.102711 89.505418 
L 123.525921 90.639385 
L 125.304933 92.403927 
L 130.997774 98.480289 
L 132.065181 99.241092 
L 133.132589 99.737406 
L 134.199996 99.915563 
L 134.911601 99.836152 
L 135.623206 99.587886 
L 136.334811 99.166484 
L 137.402219 98.21199 
L 138.469626 96.892685 
L 139.892837 94.652801 
L 141.671849 91.33676 
L 144.874072 85.260685 
L 146.297282 83.037516 
L 147.364689 81.69798 
L 148.432097 80.67638 
L 149.499504 79.984544 
L 150.566912 79.618001 
L 151.634319 79.560336 
L 152.701727 79.787675 
L 153.769135 80.272405 
L 154.836542 80.985665 
L 156.259752 82.241923 
L 158.038765 84.203741 
L 160.17358 86.935625 
L 164.799013 92.997922 
L 166.933828 95.388078 
L 169.068643 97.450618 
L 172.270865 100.170828 
L 176.184693 103.226278 
L 178.319508 104.655218 
L 180.098521 105.598606 
L 181.877533 106.269213 
L 183.656546 106.668072 
L 185.435558 106.821249 
L 187.214571 106.741102 
L 188.637781 106.487324 
L 190.060991 106.021014 
L 191.484201 105.292762 
L 192.907411 104.269737 
L 194.330621 102.963489 
L 196.821239 100.268448 
L 198.600251 98.452407 
L 199.667659 97.604625 
L 200.735066 97.037977 
L 201.446671 96.845254 
L 202.158276 96.811558 
L 202.869882 96.937975 
L 203.937289 97.410848 
L 205.004697 98.172107 
L 206.783709 99.833058 
L 208.918524 101.821154 
L 209.985932 102.554378 
L 211.053339 103.002299 
L 211.764944 103.118525 
L 212.476549 103.081709 
L 213.543957 102.743046 
L 214.611364 102.088144 
L 215.678772 101.160423 
L 217.101982 99.589129 
L 218.880995 97.249154 
L 221.371612 93.528024 
L 221.727415 92.962263 
L 221.727415 92.962263 
" clip-path="url(#pd9a484487a)" style="fill: none; stroke: #000000; stroke-opacity: 0.5; stroke-width: 2; stroke-linecap: square"/>
   </g>
   <g id="line2d_13">
    <path d="M 44.18196 107.065749 
L 45.60517 108.041295 
L 46.672578 108.547484 
L 47.739985 108.854454 
L 48.807393 108.950738 
L 49.8748 108.819141 
L 50.942208 108.438301 
L 52.009616 107.785385 
L 53.077023 106.839507 
L 54.144431 105.585384 
L 55.211838 104.016859 
L 56.635048 101.448765 
L 58.058258 98.388479 
L 59.837271 94.033903 
L 64.462704 82.293813 
L 65.885914 79.361001 
L 66.953321 77.577678 
L 68.020729 76.211473 
L 69.088136 75.294394 
L 69.799741 74.937984 
L 70.511346 74.782645 
L 71.222951 74.820819 
L 71.934556 75.040771 
L 73.001964 75.676797 
L 74.069371 76.621343 
L 75.492581 78.228943 
L 81.185422 85.236553 
L 82.608632 86.506369 
L 84.031842 87.489103 
L 85.455052 88.204435 
L 86.878262 88.687696 
L 88.657274 89.018374 
L 90.436287 89.087391 
L 92.2153 88.918183 
L 94.350115 88.443786 
L 98.975547 87.20406 
L 100.398757 87.105171 
L 101.821968 87.264536 
L 103.245178 87.688549 
L 105.02419 88.498371 
L 107.87061 89.833706 
L 108.938018 90.119306 
L 110.005425 90.185671 
L 111.072833 89.986183 
L 112.14024 89.49435 
L 113.207648 88.705866 
L 114.275056 87.638017 
L 115.698266 85.843897 
L 117.477278 83.182326 
L 122.458513 75.46678 
L 123.881723 73.691999 
L 125.304933 72.256816 
L 126.372341 71.434849 
L 127.439749 70.848928 
L 128.507156 70.508892 
L 129.574564 70.417363 
L 130.641971 70.568324 
L 131.709379 70.94612 
L 133.132589 71.757521 
L 134.555799 72.842997 
L 137.046416 75.102501 
L 140.604442 78.315235 
L 143.095059 80.243006 
L 149.143702 84.725164 
L 150.922714 86.42398 
L 152.701727 88.441768 
L 154.836542 91.275998 
L 160.885185 99.724463 
L 162.308395 101.208514 
L 163.731605 102.378804 
L 165.154815 103.270359 
L 167.28963 104.27782 
L 170.847655 105.913385 
L 175.117285 108.062449 
L 176.184693 108.347684 
L 177.252101 108.42264 
L 178.319508 108.259409 
L 179.386916 107.860865 
L 180.810126 107.034284 
L 184.012348 104.970296 
L 185.079756 104.623067 
L 185.791361 104.577942 
L 186.502966 104.706775 
L 187.214571 105.021675 
L 187.926176 105.525362 
L 188.993583 106.616359 
L 190.060991 108.047933 
L 191.840004 110.876245 
L 193.619016 113.644581 
L 194.686424 114.962866 
L 195.398029 115.607834 
L 196.109634 116.024817 
L 196.821239 116.187684 
L 197.532844 116.079262 
L 198.244449 115.691824 
L 198.956054 115.027105 
L 199.667659 114.095897 
L 200.735066 112.243069 
L 201.802474 109.92819 
L 203.581487 105.371679 
L 207.495314 94.95489 
L 208.918524 91.83339 
L 210.341734 89.313321 
L 211.409142 87.850359 
L 212.476549 86.753483 
L 213.543957 86.006792 
L 214.611364 85.584558 
L 215.678772 85.455418 
L 216.74618 85.585758 
L 217.813587 85.942039 
L 219.236797 86.712638 
L 220.660007 87.752644 
L 221.727415 88.663289 
L 221.727415 88.663289 
" clip-path="url(#pd9a484487a)" style="fill: none; stroke: #000000; stroke-opacity: 0.5; stroke-width: 2; stroke-linecap: square"/>
   </g>
   <g id="line2d_14">
    <path d="M 44.18196 91.082299 
L 50.586405 86.442023 
L 52.009616 85.818833 
L 53.077023 85.622849 
L 53.788628 85.659668 
L 54.500233 85.853773 
L 55.211838 86.223514 
L 55.923443 86.784702 
L 56.990851 88.011075 
L 58.058258 89.716086 
L 59.125666 91.891948 
L 60.548876 95.449901 
L 62.327888 100.669477 
L 65.885914 111.435536 
L 67.309124 114.950726 
L 68.376531 117.035829 
L 69.443939 118.568193 
L 70.155544 119.261972 
L 70.867149 119.687188 
L 71.578754 119.843983 
L 72.290359 119.736641 
L 73.001964 119.372827 
L 73.713569 118.762894 
L 74.425174 117.919297 
L 75.492581 116.247107 
L 76.559989 114.135039 
L 77.983199 110.741055 
L 79.762212 105.809461 
L 85.099249 90.358728 
L 86.522459 87.066051 
L 87.945669 84.384834 
L 89.013077 82.785512 
L 90.080485 81.515792 
L 91.147892 80.535614 
L 92.2153 79.7964 
L 93.63851 79.105547 
L 95.06172 78.682712 
L 96.48493 78.512833 
L 97.552337 78.583054 
L 98.619745 78.872484 
L 99.687152 79.437817 
L 100.75456 80.335397 
L 101.821968 81.609376 
L 102.889375 83.280609 
L 103.956783 85.33795 
L 105.379993 88.593213 
L 110.361228 100.852544 
L 111.428635 102.699528 
L 112.14024 103.624167 
L 112.851845 104.27501 
L 113.56345 104.637086 
L 114.275056 104.70442 
L 114.986661 104.480209 
L 115.698266 103.976622 
L 116.409871 103.214217 
L 117.477278 101.64838 
L 118.900488 98.964551 
L 123.881723 88.729434 
L 125.304933 86.629839 
L 126.372341 85.420143 
L 127.439749 84.496285 
L 128.862959 83.614073 
L 130.641971 82.834172 
L 133.488391 81.609649 
L 135.623206 80.384973 
L 139.181231 78.231089 
L 140.604442 77.68553 
L 141.671849 77.50482 
L 142.739257 77.551777 
L 143.806664 77.833112 
L 144.874072 78.332953 
L 146.297282 79.269771 
L 150.211109 82.13692 
L 151.278517 82.588156 
L 152.345925 82.740209 
L 153.05753 82.64421 
L 153.769135 82.374702 
L 154.48074 81.923913 
L 155.548147 80.904246 
L 156.615555 79.488791 
L 157.682962 77.722054 
L 159.106172 74.945864 
L 163.375802 66.119787 
L 164.44321 64.422566 
L 165.510618 63.145503 
L 166.222223 62.566813 
L 166.933828 62.226292 
L 167.645433 62.134656 
L 168.357038 62.296558 
L 169.068643 62.710493 
L 169.780248 63.368907 
L 170.847655 64.784372 
L 171.915063 66.652411 
L 173.338273 69.693887 
L 175.473088 74.935278 
L 178.319508 81.920074 
L 180.098521 85.695475 
L 181.521731 88.247714 
L 182.944941 90.3842 
L 184.368151 92.157699 
L 186.147163 93.979567 
L 187.926176 95.486082 
L 189.705189 96.742995 
L 191.484201 97.731266 
L 192.907411 98.279825 
L 194.330621 98.573068 
L 195.753831 98.599026 
L 197.177041 98.384516 
L 199.311856 97.769532 
L 202.158276 96.948162 
L 203.581487 96.757429 
L 205.004697 96.786857 
L 206.427907 97.031448 
L 208.562722 97.667269 
L 210.697537 98.290543 
L 212.120747 98.463522 
L 213.188154 98.361259 
L 214.255562 97.997313 
L 215.32297 97.324583 
L 216.390377 96.307885 
L 217.457785 94.926333 
L 218.525192 93.175069 
L 219.948402 90.288545 
L 221.371612 86.845596 
L 221.727415 85.912099 
L 221.727415 85.912099 
" clip-path="url(#pd9a484487a)" style="fill: none; stroke: #000000; stroke-opacity: 0.5; stroke-width: 2; stroke-linecap: square"/>
   </g>
   <g id="line2d_15">
    <path d="M 44.18196 89.603904 
L 45.960973 87.424438 
L 47.384183 86.038928 
L 48.45159 85.247973 
L 49.518998 84.683915 
L 50.586405 84.353967 
L 51.653813 84.264624 
L 52.721221 84.424335 
L 53.788628 84.844154 
L 54.856036 85.536076 
L 55.923443 86.509486 
L 56.990851 87.766508 
L 58.414061 89.864427 
L 59.837271 92.379244 
L 62.327888 97.381814 
L 64.818506 102.259662 
L 66.241716 104.536388 
L 67.309124 105.840259 
L 68.376531 106.716798 
L 69.088136 107.035173 
L 69.799741 107.125854 
L 70.511346 106.980314 
L 71.222951 106.593916 
L 71.934556 105.965946 
L 72.646161 105.099546 
L 73.713569 103.368848 
L 74.780976 101.155459 
L 76.204186 97.546656 
L 77.983199 92.207901 
L 80.829619 82.64265 
L 83.676039 73.300249 
L 85.099249 69.248302 
L 86.522459 65.87091 
L 87.589867 63.87451 
L 88.657274 62.38712 
L 89.36888 61.687848 
L 90.080485 61.220675 
L 90.79209 60.977047 
L 91.503695 60.942056 
L 92.2153 61.094691 
L 93.282707 61.616076 
L 94.705917 62.685053 
L 97.552337 65.035042 
L 98.619745 65.66636 
L 99.687152 66.057115 
L 100.75456 66.191945 
L 101.821968 66.09447 
L 103.245178 65.70798 
L 105.735795 64.933372 
L 106.803203 64.8187 
L 107.87061 64.952881 
L 108.938018 65.383508 
L 110.005425 66.123944 
L 111.072833 67.151435 
L 112.496043 68.865822 
L 116.054068 73.454895 
L 117.121476 74.473926 
L 118.188883 75.165108 
L 118.900488 75.416212 
L 119.612093 75.489629 
L 120.323698 75.384505 
L 121.035303 75.106785 
L 122.102711 74.395311 
L 123.170118 73.390273 
L 124.949131 71.308663 
L 127.439749 68.352283 
L 128.507156 67.347762 
L 129.574564 66.616966 
L 130.641971 66.214566 
L 131.353576 66.146049 
L 132.065181 66.243404 
L 132.776786 66.507525 
L 133.844194 67.209982 
L 134.911601 68.260422 
L 135.979009 69.626343 
L 137.402219 71.866918 
L 139.181231 75.184463 
L 141.671849 80.382794 
L 145.585677 88.525677 
L 147.364689 91.734444 
L 148.787899 93.914623 
L 150.211109 95.668812 
L 151.278517 96.666215 
L 152.345925 97.3675 
L 153.413332 97.759418 
L 154.48074 97.837782 
L 155.548147 97.609073 
L 156.615555 97.091413 
L 157.682962 96.314738 
L 159.106172 94.94824 
L 160.885185 92.881604 
L 164.799013 88.178909 
L 166.222223 86.794077 
L 167.645433 85.717643 
L 168.71284 85.140433 
L 169.780248 84.772212 
L 170.847655 84.617707 
L 171.915063 84.678628 
L 172.98247 84.955723 
L 174.049878 85.450378 
L 175.117285 86.165392 
L 176.184693 87.104916 
L 177.607903 88.714486 
L 179.031113 90.736948 
L 180.454323 93.164483 
L 182.233336 96.719228 
L 184.368151 101.575542 
L 190.060991 114.933969 
L 191.840004 118.379376 
L 193.263214 120.712283 
L 194.686424 122.655249 
L 196.109634 124.224687 
L 197.532844 125.448531 
L 198.956054 126.348039 
L 200.023461 126.809959 
L 201.090869 127.07654 
L 202.158276 127.124582 
L 203.225684 126.922338 
L 204.293092 126.433595 
L 205.360499 125.623269 
L 206.427907 124.463833 
L 207.495314 122.941583 
L 208.562722 121.061726 
L 209.985932 118.049276 
L 211.764944 113.658432 
L 216.74618 100.838456 
L 218.16939 97.858625 
L 219.5926 95.395427 
L 220.660007 93.901451 
L 221.727415 92.703043 
L 221.727415 92.703043 
" clip-path="url(#pd9a484487a)" style="fill: none; stroke: #000000; stroke-opacity: 0.5; stroke-width: 2; stroke-linecap: square"/>
   </g>
   <g id="line2d_16">
    <path d="M 44.18196 104.47144 
L 45.60517 102.989515 
L 47.739985 100.367788 
L 50.942208 96.013687 
L 59.481468 84.192021 
L 60.548876 83.15107 
L 61.616283 82.393414 
L 62.327888 82.07986 
L 63.039493 81.941645 
L 63.751099 81.995148 
L 64.462704 82.253571 
L 65.174309 82.72618 
L 65.885914 83.417678 
L 66.953321 84.863034 
L 68.020729 86.774454 
L 69.443939 89.95355 
L 71.222951 94.651157 
L 74.780976 104.358067 
L 76.204186 107.500125 
L 77.271594 109.321184 
L 77.983199 110.231573 
L 78.694804 110.877045 
L 79.406409 111.245228 
L 80.118014 111.329823 
L 80.829619 111.130729 
L 81.541224 110.654019 
L 82.252829 109.911799 
L 83.320237 108.341169 
L 84.387644 106.296868 
L 85.810854 103.018902 
L 90.79209 90.857271 
L 91.859497 88.972133 
L 92.926905 87.570181 
L 93.63851 86.932414 
L 94.350115 86.542917 
L 95.06172 86.40363 
L 95.773325 86.510097 
L 96.48493 86.851732 
L 97.196535 87.412349 
L 98.263942 88.61653 
L 99.33135 90.177443 
L 101.110362 93.295963 
L 105.02419 100.395323 
L 106.4474 102.528532 
L 107.87061 104.326307 
L 109.649623 106.189612 
L 113.919253 110.362225 
L 115.698266 112.570802 
L 117.477278 115.155565 
L 122.102711 122.107102 
L 123.525921 123.714858 
L 124.593328 124.623498 
L 125.660736 125.254494 
L 126.728144 125.605862 
L 127.795551 125.688893 
L 128.862959 125.522605 
L 129.930366 125.127508 
L 130.997774 124.519803 
L 132.065181 123.706967 
L 133.488391 122.296227 
L 134.911601 120.474737 
L 136.334811 118.180238 
L 137.758021 115.345659 
L 139.181231 111.921528 
L 140.604442 107.896051 
L 142.383454 102.083359 
L 144.518269 94.237298 
L 149.499504 75.427854 
L 151.278517 69.767568 
L 152.701727 66.027784 
L 153.769135 63.774362 
L 154.836542 62.043695 
L 155.548147 61.196113 
L 156.259752 60.600137 
L 156.971357 60.257602 
L 157.682962 60.166561 
L 158.394567 60.320967 
L 159.106172 60.710469 
L 159.817777 61.320288 
L 160.885185 62.604964 
L 161.952592 64.258958 
L 163.731605 67.557303 
L 166.933828 73.645668 
L 168.357038 75.758385 
L 169.424445 76.917061 
L 170.13605 77.455258 
L 170.847655 77.794965 
L 171.55926 77.932876 
L 172.270865 77.871195 
L 172.98247 77.617494 
L 174.049878 76.905955 
L 175.117285 75.854514 
L 176.540495 74.070393 
L 180.098521 69.286319 
L 181.165928 68.241993 
L 181.877533 67.74927 
L 182.589138 67.450963 
L 183.300743 67.368871 
L 184.012348 67.519082 
L 184.723953 67.911213 
L 185.435558 68.547884 
L 186.147163 69.424465 
L 187.214571 71.161416 
L 188.281978 73.342173 
L 189.705189 76.772176 
L 195.398029 91.357494 
L 196.821239 94.231669 
L 198.244449 96.65828 
L 199.667659 98.677744 
L 201.090869 100.353597 
L 202.869882 102.062942 
L 204.648894 103.445661 
L 207.139512 105.047096 
L 209.630129 106.66642 
L 211.053339 107.837832 
L 212.476549 109.339643 
L 213.899759 111.257464 
L 215.32297 113.613258 
L 217.101982 117.06923 
L 220.660007 124.249551 
L 221.727415 125.966805 
L 221.727415 125.966805 
" clip-path="url(#pd9a484487a)" style="fill: none; stroke: #000000; stroke-opacity: 0.5; stroke-width: 2; stroke-linecap: square"/>
   </g>
   <g id="patch_3">
    <path d="M 35.304688 160.92 
L 35.304688 22.32 
" style="fill: none; stroke: #000000; stroke-width: 0.8; stroke-linejoin: miter; stroke-linecap: square"/>
   </g>
   <g id="patch_4">
    <path d="M 230.604688 160.92 
L 230.604688 22.32 
" style="fill: none; stroke: #000000; stroke-width: 0.8; stroke-linejoin: miter; stroke-linecap: square"/>
   </g>
   <g id="patch_5">
    <path d="M 35.304688 160.92 
L 230.604687 160.92 
" style="fill: none; stroke: #000000; stroke-width: 0.8; stroke-linejoin: miter; stroke-linecap: square"/>
   </g>
   <g id="patch_6">
    <path d="M 35.304688 22.32 
L 230.604687 22.32 
" style="fill: none; stroke: #000000; stroke-width: 0.8; stroke-linejoin: miter; stroke-linecap: square"/>
   </g>
   <g id="text_12">
    <!-- Lengthscale $\ell$=2, Amplitude $a$=8.000 -->
    <g transform="translate(21.054688 16.32)scale(0.12 -0.12)">
     <defs>
      <path id="DejaVuSans-4c" d="M 628 4666 
L 1259 4666 
L 1259 531 
L 3531 531 
L 3531 0 
L 628 0 
L 628 4666 
z
" transform="scale(0.015625)"/>
      <path id="DejaVuSans-65" d="M 3597 1894 
L 3597 1613 
L 953 1613 
Q 991 1019 1311 708 
Q 1631 397 2203 397 
Q 2534 397 2845 478 
Q 3156 559 3463 722 
L 3463 178 
Q 3153 47 2828 -22 
Q 2503 -91 2169 -91 
Q 1331 -91 842 396 
Q 353 884 353 1716 
Q 353 2575 817 3079 
Q 1281 3584 2069 3584 
Q 2775 3584 3186 3129 
Q 3597 2675 3597 1894 
z
M 3022 2063 
Q 3016 2534 2758 2815 
Q 2500 3097 2075 3097 
Q 1594 3097 1305 2825 
Q 1016 2553 972 2059 
L 3022 2063 
z
" transform="scale(0.015625)"/>
      <path id="DejaVuSans-6e" d="M 3513 2113 
L 3513 0 
L 2938 0 
L 2938 2094 
Q 2938 2591 2744 2837 
Q 2550 3084 2163 3084 
Q 1697 3084 1428 2787 
Q 1159 2491 1159 1978 
L 1159 0 
L 581 0 
L 581 3500 
L 1159 3500 
L 1159 2956 
Q 1366 3272 1645 3428 
Q 1925 3584 2291 3584 
Q 2894 3584 3203 3211 
Q 3513 2838 3513 2113 
z
" transform="scale(0.015625)"/>
      <path id="DejaVuSans-67" d="M 2906 1791 
Q 2906 2416 2648 2759 
Q 2391 3103 1925 3103 
Q 1463 3103 1205 2759 
Q 947 2416 947 1791 
Q 947 1169 1205 825 
Q 1463 481 1925 481 
Q 2391 481 2648 825 
Q 2906 1169 2906 1791 
z
M 3481 434 
Q 3481 -459 3084 -895 
Q 2688 -1331 1869 -1331 
Q 1566 -1331 1297 -1286 
Q 1028 -1241 775 -1147 
L 775 -588 
Q 1028 -725 1275 -790 
Q 1522 -856 1778 -856 
Q 2344 -856 2625 -561 
Q 2906 -266 2906 331 
L 2906 616 
Q 2728 306 2450 153 
Q 2172 0 1784 0 
Q 1141 0 747 490 
Q 353 981 353 1791 
Q 353 2603 747 3093 
Q 1141 3584 1784 3584 
Q 2172 3584 2450 3431 
Q 2728 3278 2906 2969 
L 2906 3500 
L 3481 3500 
L 3481 434 
z
" transform="scale(0.015625)"/>
      <path id="DejaVuSans-74" d="M 1172 4494 
L 1172 3500 
L 2356 3500 
L 2356 3053 
L 1172 3053 
L 1172 1153 
Q 1172 725 1289 603 
Q 1406 481 1766 481 
L 2356 481 
L 2356 0 
L 1766 0 
Q 1100 0 847 248 
Q 594 497 594 1153 
L 594 3053 
L 172 3053 
L 172 3500 
L 594 3500 
L 594 4494 
L 1172 4494 
z
" transform="scale(0.015625)"/>
      <path id="DejaVuSans-68" d="M 3513 2113 
L 3513 0 
L 2938 0 
L 2938 2094 
Q 2938 2591 2744 2837 
Q 2550 3084 2163 3084 
Q 1697 3084 1428 2787 
Q 1159 2491 1159 1978 
L 1159 0 
L 581 0 
L 581 4863 
L 1159 4863 
L 1159 2956 
Q 1366 3272 1645 3428 
Q 1925 3584 2291 3584 
Q 2894 3584 3203 3211 
Q 3513 2838 3513 2113 
z
" transform="scale(0.015625)"/>
      <path id="DejaVuSans-73" d="M 2834 3397 
L 2834 2853 
Q 2591 2978 2328 3040 
Q 2066 3103 1784 3103 
Q 1356 3103 1142 2972 
Q 928 2841 928 2578 
Q 928 2378 1081 2264 
Q 1234 2150 1697 2047 
L 1894 2003 
Q 2506 1872 2764 1633 
Q 3022 1394 3022 966 
Q 3022 478 2636 193 
Q 2250 -91 1575 -91 
Q 1294 -91 989 -36 
Q 684 19 347 128 
L 347 722 
Q 666 556 975 473 
Q 1284 391 1588 391 
Q 1994 391 2212 530 
Q 2431 669 2431 922 
Q 2431 1156 2273 1281 
Q 2116 1406 1581 1522 
L 1381 1569 
Q 847 1681 609 1914 
Q 372 2147 372 2553 
Q 372 3047 722 3315 
Q 1072 3584 1716 3584 
Q 2034 3584 2315 3537 
Q 2597 3491 2834 3397 
z
" transform="scale(0.015625)"/>
      <path id="DejaVuSans-63" d="M 3122 3366 
L 3122 2828 
Q 2878 2963 2633 3030 
Q 2388 3097 2138 3097 
Q 1578 3097 1268 2742 
Q 959 2388 959 1747 
Q 959 1106 1268 751 
Q 1578 397 2138 397 
Q 2388 397 2633 464 
Q 2878 531 3122 666 
L 3122 134 
Q 2881 22 2623 -34 
Q 2366 -91 2075 -91 
Q 1284 -91 818 406 
Q 353 903 353 1747 
Q 353 2603 823 3093 
Q 1294 3584 2113 3584 
Q 2378 3584 2631 3529 
Q 2884 3475 3122 3366 
z
" transform="scale(0.015625)"/>
      <path id="DejaVuSans-61" d="M 2194 1759 
Q 1497 1759 1228 1600 
Q 959 1441 959 1056 
Q 959 750 1161 570 
Q 1363 391 1709 391 
Q 2188 391 2477 730 
Q 2766 1069 2766 1631 
L 2766 1759 
L 2194 1759 
z
M 3341 1997 
L 3341 0 
L 2766 0 
L 2766 531 
Q 2569 213 2275 61 
Q 1981 -91 1556 -91 
Q 1019 -91 701 211 
Q 384 513 384 1019 
Q 384 1609 779 1909 
Q 1175 2209 1959 2209 
L 2766 2209 
L 2766 2266 
Q 2766 2663 2505 2880 
Q 2244 3097 1772 3097 
Q 1472 3097 1187 3025 
Q 903 2953 641 2809 
L 641 3341 
Q 956 3463 1253 3523 
Q 1550 3584 1831 3584 
Q 2591 3584 2966 3190 
Q 3341 2797 3341 1997 
z
" transform="scale(0.015625)"/>
      <path id="DejaVuSans-6c" d="M 603 4863 
L 1178 4863 
L 1178 0 
L 603 0 
L 603 4863 
z
" transform="scale(0.015625)"/>
      <path id="DejaVuSans-20" transform="scale(0.015625)"/>
      <path id="DejaVuSans-Oblique-2113" d="M 950 838 
Q 1078 213 1350 213 
Q 1531 213 1766 572 
L 2181 572 
Q 1994 253 1775 88 
Q 1538 -91 1319 -91 
Q 831 -91 634 344 
L 400 0 
L -88 0 
Q 250 459 500 888 
Q 469 1131 469 1397 
Q 469 1872 566 2347 
Q 931 4131 1256 4497 
Q 1481 4750 1866 4750 
Q 2256 4750 2256 4209 
Q 2253 3966 2197 3675 
Q 1972 2484 950 838 
z
M 947 1656 
Q 1531 2744 1709 3613 
Q 1803 4072 1803 4191 
Q 1803 4406 1725 4406 
Q 1384 4134 1081 2516 
Q 997 2063 947 1656 
z
" transform="scale(0.015625)"/>
      <path id="DejaVuSans-3d" d="M 678 2906 
L 4684 2906 
L 4684 2381 
L 678 2381 
L 678 2906 
z
M 678 1631 
L 4684 1631 
L 4684 1100 
L 678 1100 
L 678 1631 
z
" transform="scale(0.015625)"/>
      <path id="DejaVuSans-2c" d="M 750 794 
L 1409 794 
L 1409 256 
L 897 -744 
L 494 -744 
L 750 256 
L 750 794 
z
" transform="scale(0.015625)"/>
      <path id="DejaVuSans-41" d="M 2188 4044 
L 1331 1722 
L 3047 1722 
L 2188 4044 
z
M 1831 4666 
L 2547 4666 
L 4325 0 
L 3669 0 
L 3244 1197 
L 1141 1197 
L 716 0 
L 50 0 
L 1831 4666 
z
" transform="scale(0.015625)"/>
      <path id="DejaVuSans-6d" d="M 3328 2828 
Q 3544 3216 3844 3400 
Q 4144 3584 4550 3584 
Q 5097 3584 5394 3201 
Q 5691 2819 5691 2113 
L 5691 0 
L 5113 0 
L 5113 2094 
Q 5113 2597 4934 2840 
Q 4756 3084 4391 3084 
Q 3944 3084 3684 2787 
Q 3425 2491 3425 1978 
L 3425 0 
L 2847 0 
L 2847 2094 
Q 2847 2600 2669 2842 
Q 2491 3084 2119 3084 
Q 1678 3084 1418 2786 
Q 1159 2488 1159 1978 
L 1159 0 
L 581 0 
L 581 3500 
L 1159 3500 
L 1159 2956 
Q 1356 3278 1631 3431 
Q 1906 3584 2284 3584 
Q 2666 3584 2933 3390 
Q 3200 3197 3328 2828 
z
" transform="scale(0.015625)"/>
      <path id="DejaVuSans-70" d="M 1159 525 
L 1159 -1331 
L 581 -1331 
L 581 3500 
L 1159 3500 
L 1159 2969 
Q 1341 3281 1617 3432 
Q 1894 3584 2278 3584 
Q 2916 3584 3314 3078 
Q 3713 2572 3713 1747 
Q 3713 922 3314 415 
Q 2916 -91 2278 -91 
Q 1894 -91 1617 61 
Q 1341 213 1159 525 
z
M 3116 1747 
Q 3116 2381 2855 2742 
Q 2594 3103 2138 3103 
Q 1681 3103 1420 2742 
Q 1159 2381 1159 1747 
Q 1159 1113 1420 752 
Q 1681 391 2138 391 
Q 2594 391 2855 752 
Q 3116 1113 3116 1747 
z
" transform="scale(0.015625)"/>
      <path id="DejaVuSans-69" d="M 603 3500 
L 1178 3500 
L 1178 0 
L 603 0 
L 603 3500 
z
M 603 4863 
L 1178 4863 
L 1178 4134 
L 603 4134 
L 603 4863 
z
" transform="scale(0.015625)"/>
      <path id="DejaVuSans-75" d="M 544 1381 
L 544 3500 
L 1119 3500 
L 1119 1403 
Q 1119 906 1312 657 
Q 1506 409 1894 409 
Q 2359 409 2629 706 
Q 2900 1003 2900 1516 
L 2900 3500 
L 3475 3500 
L 3475 0 
L 2900 0 
L 2900 538 
Q 2691 219 2414 64 
Q 2138 -91 1772 -91 
Q 1169 -91 856 284 
Q 544 659 544 1381 
z
M 1991 3584 
L 1991 3584 
z
" transform="scale(0.015625)"/>
      <path id="DejaVuSans-64" d="M 2906 2969 
L 2906 4863 
L 3481 4863 
L 3481 0 
L 2906 0 
L 2906 525 
Q 2725 213 2448 61 
Q 2172 -91 1784 -91 
Q 1150 -91 751 415 
Q 353 922 353 1747 
Q 353 2572 751 3078 
Q 1150 3584 1784 3584 
Q 2172 3584 2448 3432 
Q 2725 3281 2906 2969 
z
M 947 1747 
Q 947 1113 1208 752 
Q 1469 391 1925 391 
Q 2381 391 2643 752 
Q 2906 1113 2906 1747 
Q 2906 2381 2643 2742 
Q 2381 3103 1925 3103 
Q 1469 3103 1208 2742 
Q 947 2381 947 1747 
z
" transform="scale(0.015625)"/>
      <path id="DejaVuSans-Oblique-61" d="M 3438 1997 
L 3047 0 
L 2472 0 
L 2578 531 
Q 2325 219 2001 64 
Q 1678 -91 1281 -91 
Q 834 -91 548 182 
Q 263 456 263 884 
Q 263 1497 752 1853 
Q 1241 2209 2100 2209 
L 2900 2209 
L 2931 2363 
Q 2938 2388 2941 2417 
Q 2944 2447 2944 2509 
Q 2944 2788 2717 2942 
Q 2491 3097 2081 3097 
Q 1800 3097 1504 3025 
Q 1209 2953 897 2809 
L 997 3341 
Q 1322 3463 1633 3523 
Q 1944 3584 2234 3584 
Q 2853 3584 3176 3315 
Q 3500 3047 3500 2534 
Q 3500 2431 3484 2292 
Q 3469 2153 3438 1997 
z
M 2816 1759 
L 2241 1759 
Q 1534 1759 1195 1570 
Q 856 1381 856 984 
Q 856 709 1029 553 
Q 1203 397 1509 397 
Q 1978 397 2328 733 
Q 2678 1069 2791 1631 
L 2816 1759 
z
" transform="scale(0.015625)"/>
      <path id="DejaVuSans-38" d="M 2034 2216 
Q 1584 2216 1326 1975 
Q 1069 1734 1069 1313 
Q 1069 891 1326 650 
Q 1584 409 2034 409 
Q 2484 409 2743 651 
Q 3003 894 3003 1313 
Q 3003 1734 2745 1975 
Q 2488 2216 2034 2216 
z
M 1403 2484 
Q 997 2584 770 2862 
Q 544 3141 544 3541 
Q 544 4100 942 4425 
Q 1341 4750 2034 4750 
Q 2731 4750 3128 4425 
Q 3525 4100 3525 3541 
Q 3525 3141 3298 2862 
Q 3072 2584 2669 2484 
Q 3125 2378 3379 2068 
Q 3634 1759 3634 1313 
Q 3634 634 3220 271 
Q 2806 -91 2034 -91 
Q 1263 -91 848 271 
Q 434 634 434 1313 
Q 434 1759 690 2068 
Q 947 2378 1403 2484 
z
M 1172 3481 
Q 1172 3119 1398 2916 
Q 1625 2713 2034 2713 
Q 2441 2713 2670 2916 
Q 2900 3119 2900 3481 
Q 2900 3844 2670 4047 
Q 2441 4250 2034 4250 
Q 1625 4250 1398 4047 
Q 1172 3844 1172 3481 
z
" transform="scale(0.015625)"/>
      <path id="DejaVuSans-2e" d="M 684 794 
L 1344 794 
L 1344 0 
L 684 0 
L 684 794 
z
" transform="scale(0.015625)"/>
     </defs>
     <use xlink:href="#DejaVuSans-4c" transform="translate(0 0.015625)"/>
     <use xlink:href="#DejaVuSans-65" transform="translate(55.712891 0.015625)"/>
     <use xlink:href="#DejaVuSans-6e" transform="translate(117.236328 0.015625)"/>
     <use xlink:href="#DejaVuSans-67" transform="translate(180.615234 0.015625)"/>
     <use xlink:href="#DejaVuSans-74" transform="translate(244.091797 0.015625)"/>
     <use xlink:href="#DejaVuSans-68" transform="translate(283.300781 0.015625)"/>
     <use xlink:href="#DejaVuSans-73" transform="translate(346.679688 0.015625)"/>
     <use xlink:href="#DejaVuSans-63" transform="translate(398.779297 0.015625)"/>
     <use xlink:href="#DejaVuSans-61" transform="translate(453.759766 0.015625)"/>
     <use xlink:href="#DejaVuSans-6c" transform="translate(515.039062 0.015625)"/>
     <use xlink:href="#DejaVuSans-65" transform="translate(542.822266 0.015625)"/>
     <use xlink:href="#DejaVuSans-20" transform="translate(604.345703 0.015625)"/>
     <use xlink:href="#DejaVuSans-Oblique-2113" transform="translate(636.132812 0.015625)"/>
     <use xlink:href="#DejaVuSans-3d" transform="translate(677.441406 0.015625)"/>
     <use xlink:href="#DejaVuSans-32" transform="translate(761.230469 0.015625)"/>
     <use xlink:href="#DejaVuSans-2c" transform="translate(824.853516 0.015625)"/>
     <use xlink:href="#DejaVuSans-20" transform="translate(856.640625 0.015625)"/>
     <use xlink:href="#DejaVuSans-41" transform="translate(888.427734 0.015625)"/>
     <use xlink:href="#DejaVuSans-6d" transform="translate(956.835938 0.015625)"/>
     <use xlink:href="#DejaVuSans-70" transform="translate(1054.248047 0.015625)"/>
     <use xlink:href="#DejaVuSans-6c" transform="translate(1117.724609 0.015625)"/>
     <use xlink:href="#DejaVuSans-69" transform="translate(1145.507812 0.015625)"/>
     <use xlink:href="#DejaVuSans-74" transform="translate(1173.291016 0.015625)"/>
     <use xlink:href="#DejaVuSans-75" transform="translate(1212.5 0.015625)"/>
     <use xlink:href="#DejaVuSans-64" transform="translate(1275.878906 0.015625)"/>
     <use xlink:href="#DejaVuSans-65" transform="translate(1339.355469 0.015625)"/>
     <use xlink:href="#DejaVuSans-20" transform="translate(1400.878906 0.015625)"/>
     <use xlink:href="#DejaVuSans-Oblique-61" transform="translate(1432.666016 0.015625)"/>
     <use xlink:href="#DejaVuSans-3d" transform="translate(1493.945312 0.015625)"/>
     <use xlink:href="#DejaVuSans-38" transform="translate(1577.734375 0.015625)"/>
     <use xlink:href="#DejaVuSans-2e" transform="translate(1641.357422 0.015625)"/>
     <use xlink:href="#DejaVuSans-30" transform="translate(1673.144531 0.015625)"/>
     <use xlink:href="#DejaVuSans-30" transform="translate(1736.767578 0.015625)"/>
     <use xlink:href="#DejaVuSans-30" transform="translate(1800.390625 0.015625)"/>
    </g>
   </g>
  </g>
 </g>
 <defs>
  <clipPath id="pd9a484487a">
   <rect x="35.304688" y="22.32" width="195.3" height="138.6"/>
  </clipPath>
 </defs>
</svg>
