<?xml version="1.0" encoding="utf-8" standalone="no"?>
<!DOCTYPE svg PUBLIC "-//W3C//DTD SVG 1.1//EN"
  "http://www.w3.org/Graphics/SVG/1.1/DTD/svg11.dtd">
<svg xmlns:xlink="http://www.w3.org/1999/xlink" width="252.054688pt" height="184.798125pt" viewBox="0 0 252.054688 184.798125" xmlns="http://www.w3.org/2000/svg" version="1.1">
 <metadata>
  <rdf:RDF xmlns:dc="http://purl.org/dc/elements/1.1/" xmlns:cc="http://creativecommons.org/ns#" xmlns:rdf="http://www.w3.org/1999/02/22-rdf-syntax-ns#">
   <cc:Work>
    <dc:type rdf:resource="http://purl.org/dc/dcmitype/StillImage"/>
    <dc:date>2022-12-10T17:08:46.285490</dc:date>
    <dc:format>image/svg+xml</dc:format>
    <dc:creator>
     <cc:Agent>
      <dc:title>Matplotlib v3.5.1, https://matplotlib.org/</dc:title>
     </cc:Agent>
    </dc:creator>
   </cc:Work>
  </rdf:RDF>
 </metadata>
 <defs>
  <style type="text/css">*{stroke-linejoin: round; stroke-linecap: butt}</style>
 </defs>
 <g id="figure_1">
  <g id="patch_1">
   <path d="M 0 184.798125 
L 252.054688 184.798125 
L 252.054688 0 
L 0 0 
z
" style="fill: #ffffff"/>
  </g>
  <g id="axes_1">
   <g id="patch_2">
    <path d="M 35.304688 160.92 
L 230.604688 160.92 
L 230.604688 22.32 
L 35.304688 22.32 
z
" style="fill: #ffffff"/>
   </g>
   <g id="PathCollection_1">
    <defs>
     <path id="mc82554b112" d="M 0 3 
C 0.795609 3 1.55874 2.683901 2.12132 2.12132 
C 2.683901 1.55874 3 0.795609 3 0 
C 3 -0.795609 2.683901 -1.55874 2.12132 -2.12132 
C 1.55874 -2.683901 0.795609 -3 0 -3 
C -0.795609 -3 -1.55874 -2.683901 -2.12132 -2.12132 
C -2.683901 -1.55874 -3 -0.795609 -3 0 
C -3 0.795609 -2.683901 1.55874 -2.12132 2.12132 
C -1.55874 2.683901 -0.795609 3 0 3 
z
" style="stroke: #1f77b4"/>
    </defs>
    <g clip-path="url(#pb546e85a78)">
     <use xlink:href="#mc82554b112" x="44.18196" y="93.455191" style="fill: #1f77b4; stroke: #1f77b4"/>
     <use xlink:href="#mc82554b112" x="51.283778" y="85.134454" style="fill: #1f77b4; stroke: #1f77b4"/>
     <use xlink:href="#mc82554b112" x="58.385597" y="90.098307" style="fill: #1f77b4; stroke: #1f77b4"/>
     <use xlink:href="#mc82554b112" x="65.487415" y="95.483052" style="fill: #1f77b4; stroke: #1f77b4"/>
     <use xlink:href="#mc82554b112" x="86.792869" y="96.060937" style="fill: #1f77b4; stroke: #1f77b4"/>
     <use xlink:href="#mc82554b112" x="93.894688" y="94.963748" style="fill: #1f77b4; stroke: #1f77b4"/>
     <use xlink:href="#mc82554b112" x="100.996506" y="89.447685" style="fill: #1f77b4; stroke: #1f77b4"/>
     <use xlink:href="#mc82554b112" x="108.098324" y="87.208431" style="fill: #1f77b4; stroke: #1f77b4"/>
     <use xlink:href="#mc82554b112" x="115.200142" y="91.631447" style="fill: #1f77b4; stroke: #1f77b4"/>
     <use xlink:href="#mc82554b112" x="157.811051" y="90.03697" style="fill: #1f77b4; stroke: #1f77b4"/>
     <use xlink:href="#mc82554b112" x="164.912869" y="86.833069" style="fill: #1f77b4; stroke: #1f77b4"/>
     <use xlink:href="#mc82554b112" x="179.116506" y="100.209158" style="fill: #1f77b4; stroke: #1f77b4"/>
    </g>
   </g>
   <g id="PolyCollection_1">
    <path d="M 44.18196 93.455189 
L 44.18196 93.455193 
L 44.537763 93.389802 
L 44.893565 93.250677 
L 45.249368 93.04222 
L 45.60517 92.769404 
L 45.960973 92.437743 
L 46.316775 92.053238 
L 46.672578 91.62233 
L 47.02838 91.151839 
L 47.384183 90.648905 
L 47.739985 90.120918 
L 48.095788 89.575451 
L 48.45159 89.020182 
L 48.807393 88.462819 
L 49.163195 87.911023 
L 49.518998 87.372329 
L 49.8748 86.854069 
L 50.230603 86.363294 
L 50.586405 85.906697 
L 50.942208 85.490546 
L 51.298011 85.142736 
L 51.653813 85.365419 
L 52.009616 85.614478 
L 52.365418 85.884594 
L 52.721221 86.170625 
L 53.077023 86.467665 
L 53.432826 86.771095 
L 53.788628 87.076634 
L 54.144431 87.380382 
L 54.500233 87.67886 
L 54.856036 87.969046 
L 55.211838 88.248399 
L 55.567641 88.514883 
L 55.923443 88.766979 
L 56.279246 89.003693 
L 56.635048 89.224557 
L 56.990851 89.429623 
L 57.346653 89.619446 
L 57.702456 89.795069 
L 58.058258 89.957989 
L 58.414061 90.152812 
L 58.769863 90.835459 
L 59.125666 91.515029 
L 59.481468 92.183501 
L 59.837271 92.832874 
L 60.193073 93.455262 
L 60.548876 94.042973 
L 60.904678 94.588596 
L 61.260481 95.085081 
L 61.616283 95.525819 
L 61.972086 95.904707 
L 62.327888 96.216223 
L 62.683691 96.455482 
L 63.039493 96.618289 
L 63.395296 96.701188 
L 63.751099 96.701498 
L 64.106901 96.617346 
L 64.462704 96.447685 
L 64.818506 96.19231 
L 65.174309 95.851862 
L 65.530111 95.551857 
L 65.885914 96.14667 
L 66.241716 96.778804 
L 66.597519 97.446501 
L 66.953321 98.147488 
L 67.309124 98.878993 
L 67.664926 99.637765 
L 68.020729 100.420105 
L 68.376531 101.221897 
L 68.732334 102.038643 
L 69.088136 102.865514 
L 69.443939 103.697389 
L 69.799741 104.528913 
L 70.155544 105.354547 
L 70.511346 106.168628 
L 70.867149 106.965422 
L 71.222951 107.739194 
L 71.578754 108.484257 
L 71.934556 109.195042 
L 72.290359 109.866152 
L 72.646161 110.49242 
L 73.001964 111.06897 
L 73.357766 111.591264 
L 73.713569 112.055156 
L 74.069371 112.456936 
L 74.425174 112.793375 
L 74.780976 113.061757 
L 75.136779 113.259914 
L 75.492581 113.386252 
L 75.848384 113.439769 
L 76.204186 113.420071 
L 76.559989 113.327376 
L 76.915792 113.162522 
L 77.271594 112.926954 
L 77.627397 112.622716 
L 77.983199 112.252432 
L 78.339002 111.81928 
L 78.694804 111.326965 
L 79.050607 110.779677 
L 79.406409 110.182056 
L 79.762212 109.539137 
L 80.118014 108.856306 
L 80.473817 108.139242 
L 80.829619 107.393856 
L 81.185422 106.626234 
L 81.541224 105.842569 
L 81.897027 105.049099 
L 82.252829 104.252041 
L 82.608632 103.457523 
L 82.964434 102.671522 
L 83.320237 101.899798 
L 83.676039 101.147834 
L 84.031842 100.42078 
L 84.387644 99.723394 
L 84.743447 99.059996 
L 85.099249 98.434423 
L 85.455052 97.849985 
L 85.810854 97.309436 
L 86.166657 96.814949 
L 86.522459 96.368089 
L 86.878262 96.188362 
L 87.234064 96.67667 
L 87.589867 97.095372 
L 87.945669 97.443883 
L 88.301472 97.7223 
L 88.657274 97.931382 
L 89.013077 98.072524 
L 89.36888 98.147733 
L 89.724682 98.159584 
L 90.080485 98.111175 
L 90.436287 98.006087 
L 90.79209 97.848318 
L 91.147892 97.642234 
L 91.503695 97.392502 
L 91.859497 97.104028 
L 92.2153 96.78189 
L 92.571102 96.431271 
L 92.926905 96.057391 
L 93.282707 95.665445 
L 93.63851 95.260531 
L 93.994312 94.965846 
L 94.350115 94.957625 
L 94.705917 94.922484 
L 95.06172 94.857713 
L 95.417522 94.761122 
L 95.773325 94.631076 
L 96.129127 94.466516 
L 96.48493 94.26698 
L 96.840732 94.032604 
L 97.196535 93.764126 
L 97.552337 93.462879 
L 97.90814 93.130767 
L 98.263942 92.770243 
L 98.619745 92.384273 
L 98.975547 91.976299 
L 99.33135 91.550186 
L 99.687152 91.110168 
L 100.042955 90.660789 
L 100.398757 90.206841 
L 100.75456 89.753289 
L 101.110362 89.417388 
L 101.466165 89.328269 
L 101.821968 89.245649 
L 102.17777 89.167064 
L 102.533573 89.090129 
L 102.889375 89.012596 
L 103.245178 88.932406 
L 103.60098 88.847738 
L 103.956783 88.757051 
L 104.312585 88.659135 
L 104.668388 88.553133 
L 105.02419 88.438585 
L 105.379993 88.315439 
L 105.735795 88.184077 
L 106.091598 88.04532 
L 106.4474 87.900435 
L 106.803203 87.751127 
L 107.159005 87.599531 
L 107.514808 87.448196 
L 107.87061 87.300056 
L 108.226413 87.32125 
L 108.582215 87.6538 
L 108.938018 88.010472 
L 109.29382 88.38575 
L 109.649623 88.773746 
L 110.005425 89.168264 
L 110.361228 89.562868 
L 110.71703 89.95095 
L 111.072833 90.325806 
L 111.428635 90.680702 
L 111.784438 91.008953 
L 112.14024 91.303989 
L 112.496043 91.559431 
L 112.851845 91.769149 
L 113.207648 91.927334 
L 113.56345 92.028552 
L 113.919253 92.067801 
L 114.275056 92.040557 
L 114.630858 91.94282 
L 114.986661 91.771149 
L 115.342463 91.965721 
L 115.698266 92.852837 
L 116.054068 93.812817 
L 116.409871 94.844447 
L 116.765673 95.945993 
L 117.121476 97.115208 
L 117.477278 98.34936 
L 117.833081 99.64525 
L 118.188883 100.999248 
L 118.544686 102.407323 
L 118.900488 103.865082 
L 119.256291 105.367809 
L 119.612093 106.910512 
L 119.967896 108.487964 
L 120.323698 110.094754 
L 120.679501 111.725333 
L 121.035303 113.374062 
L 121.391106 115.035261 
L 121.746908 116.703257 
L 122.102711 118.372425 
L 122.458513 120.037241 
L 122.814316 121.692316 
L 123.170118 123.332439 
L 123.525921 124.952614 
L 123.881723 126.548092 
L 124.237526 128.114401 
L 124.593328 129.647373 
L 124.949131 131.143163 
L 125.304933 132.598273 
L 125.660736 134.009559 
L 126.016538 135.374246 
L 126.372341 136.689934 
L 126.728144 137.954596 
L 127.083946 139.16658 
L 127.439749 140.324603 
L 127.795551 141.427741 
L 128.151354 142.475418 
L 128.507156 143.467388 
L 128.862959 144.403721 
L 129.218761 145.284782 
L 129.574564 146.111203 
L 129.930366 146.883867 
L 130.286169 147.603875 
L 130.641971 148.272521 
L 130.997774 148.891264 
L 131.353576 149.461701 
L 131.709379 149.985532 
L 132.065181 150.464538 
L 132.420984 150.900545 
L 132.776786 151.295399 
L 133.132589 151.650941 
L 133.488391 151.968973 
L 133.844194 152.251239 
L 134.199996 152.499396 
L 134.555799 152.714996 
L 134.911601 152.899463 
L 135.267404 153.054072 
L 135.623206 153.179939 
L 135.979009 153.278 
L 136.334811 153.349001 
L 136.690614 153.39349 
L 137.046416 153.411808 
L 137.402219 153.404085 
L 137.758021 153.370238 
L 138.113824 153.30997 
L 138.469626 153.222774 
L 138.825429 153.107935 
L 139.181231 152.964545 
L 139.537034 152.791503 
L 139.892837 152.587535 
L 140.248639 152.351203 
L 140.604442 152.080927 
L 140.960244 151.774995 
L 141.316047 151.431591 
L 141.671849 151.048813 
L 142.027652 150.624697 
L 142.383454 150.157239 
L 142.739257 149.644425 
L 143.095059 149.084254 
L 143.450862 148.474768 
L 143.806664 147.814079 
L 144.162467 147.100396 
L 144.518269 146.332056 
L 144.874072 145.50755 
L 145.229874 144.625554 
L 145.585677 143.684953 
L 145.941479 142.684871 
L 146.297282 141.624695 
L 146.653084 140.504097 
L 147.008887 139.323063 
L 147.364689 138.081908 
L 147.720492 136.781295 
L 148.076294 135.422257 
L 148.432097 134.006204 
L 148.787899 132.53494 
L 149.143702 131.010668 
L 149.499504 129.435995 
L 149.855307 127.813936 
L 150.211109 126.147912 
L 150.566912 124.441742 
L 150.922714 122.69964 
L 151.278517 120.926196 
L 151.634319 119.126366 
L 151.990122 117.305448 
L 152.345925 115.469062 
L 152.701727 113.623122 
L 153.05753 111.773805 
L 153.413332 109.927518 
L 153.769135 108.090863 
L 154.124937 106.270598 
L 154.48074 104.473592 
L 154.836542 102.706784 
L 155.192345 100.977137 
L 155.548147 99.291589 
L 155.90395 97.657006 
L 156.259752 96.080131 
L 156.615555 94.567537 
L 156.971357 93.125573 
L 157.32716 91.760318 
L 157.682962 90.477533 
L 158.038765 90.441608 
L 158.394567 91.002458 
L 158.75037 91.474792 
L 159.106172 91.857455 
L 159.461975 92.149858 
L 159.817777 92.351985 
L 160.17358 92.46441 
L 160.529382 92.488299 
L 160.885185 92.425418 
L 161.240987 92.278124 
L 161.59679 92.04936 
L 161.952592 91.742643 
L 162.308395 91.362048 
L 162.664197 90.912183 
L 163.02 90.398164 
L 163.375802 89.825588 
L 163.731605 89.200492 
L 164.087407 88.529319 
L 164.44321 87.818876 
L 164.799013 87.076286 
L 165.154815 87.414693 
L 165.510618 88.326457 
L 165.86642 89.298782 
L 166.222223 90.323913 
L 166.578025 91.393769 
L 166.933828 92.499995 
L 167.28963 93.634021 
L 167.645433 94.787117 
L 168.001235 95.95045 
L 168.357038 97.115146 
L 168.71284 98.272345 
L 169.068643 99.413261 
L 169.424445 100.529241 
L 169.780248 101.611816 
L 170.13605 102.652762 
L 170.491853 103.644146 
L 170.847655 104.578378 
L 171.203458 105.448258 
L 171.55926 106.247018 
L 171.915063 106.96836 
L 172.270865 107.606495 
L 172.626668 108.156169 
L 172.98247 108.612695 
L 173.338273 108.971973 
L 173.694075 109.230507 
L 174.049878 109.385421 
L 174.40568 109.434464 
L 174.761483 109.376015 
L 175.117285 109.209083 
L 175.473088 108.933303 
L 175.82889 108.548921 
L 176.184693 108.056786 
L 176.540495 107.458328 
L 176.896298 106.755539 
L 177.252101 105.950945 
L 177.607903 105.047582 
L 177.963706 104.048957 
L 178.319508 102.959023 
L 178.675311 101.782138 
L 179.031113 100.523025 
L 179.386916 101.633564 
L 179.742718 103.533581 
L 180.098521 105.456915 
L 180.454323 107.397066 
L 180.810126 109.347596 
L 181.165928 111.302168 
L 181.521731 113.25458 
L 181.877533 115.198803 
L 182.233336 117.129015 
L 182.589138 119.039625 
L 182.944941 120.925305 
L 183.300743 122.781016 
L 183.656546 124.602024 
L 184.012348 126.383923 
L 184.368151 128.122649 
L 184.723953 129.814495 
L 185.079756 131.456115 
L 185.435558 133.044539 
L 185.791361 134.577168 
L 186.147163 136.051781 
L 186.502966 137.46653 
L 186.858768 138.819936 
L 187.214571 140.110884 
L 187.570373 141.338609 
L 187.926176 142.502691 
L 188.281978 143.603034 
L 188.637781 144.639857 
L 188.993583 145.613675 
L 189.349386 146.525277 
L 189.705189 147.375712 
L 190.060991 148.166267 
L 190.416794 148.898443 
L 190.772596 149.573937 
L 191.128399 150.194618 
L 191.484201 150.762503 
L 191.840004 151.279739 
L 192.195806 151.748578 
L 192.551609 152.171357 
L 192.907411 152.550477 
L 193.263214 152.888379 
L 193.619016 153.187534 
L 193.974819 153.450414 
L 194.330621 153.679481 
L 194.686424 153.877173 
L 195.042226 154.045882 
L 195.398029 154.187949 
L 195.753831 154.305646 
L 196.109634 154.40117 
L 196.465436 154.47663 
L 196.821239 154.534043 
L 197.177041 154.575328 
L 197.532844 154.602297 
L 197.888646 154.616655 
L 198.244449 154.62 
L 198.600251 154.613816 
L 198.956054 154.599479 
L 199.311856 154.578253 
L 199.667659 154.551297 
L 200.023461 154.519664 
L 200.379264 154.484305 
L 200.735066 154.446075 
L 201.090869 154.405738 
L 201.446671 154.363966 
L 201.802474 154.321352 
L 202.158276 154.278411 
L 202.514079 154.235587 
L 202.869882 154.193256 
L 203.225684 154.151735 
L 203.581487 154.111287 
L 203.937289 154.072123 
L 204.293092 154.034412 
L 204.648894 153.998279 
L 205.004697 153.963818 
L 205.360499 153.93109 
L 205.716302 153.900131 
L 206.072104 153.87095 
L 206.427907 153.843541 
L 206.783709 153.817879 
L 207.139512 153.793925 
L 207.495314 153.77163 
L 207.851117 153.750937 
L 208.206919 153.731781 
L 208.562722 153.714091 
L 208.918524 153.697795 
L 209.274327 153.682818 
L 209.630129 153.669083 
L 209.985932 153.656514 
L 210.341734 153.645036 
L 210.697537 153.634576 
L 211.053339 153.625061 
L 211.409142 153.616423 
L 211.764944 153.608595 
L 212.120747 153.601514 
L 212.476549 153.59512 
L 212.832352 153.589356 
L 213.188154 153.58417 
L 213.543957 153.57951 
L 213.899759 153.57533 
L 214.255562 153.571587 
L 214.611364 153.56824 
L 214.967167 153.565252 
L 215.32297 153.562589 
L 215.678772 153.560219 
L 216.034575 153.558112 
L 216.390377 153.556243 
L 216.74618 153.554586 
L 217.101982 153.55312 
L 217.457785 153.551825 
L 217.813587 153.550683 
L 218.16939 153.549676 
L 218.525192 153.54879 
L 218.880995 153.548012 
L 219.236797 153.547329 
L 219.5926 153.546731 
L 219.948402 153.546208 
L 220.304205 153.54575 
L 220.660007 153.545351 
L 221.01581 153.545004 
L 221.371612 153.544701 
L 221.727415 153.544438 
L 221.727415 32.422629 
L 221.727415 32.422629 
L 221.371612 32.422893 
L 221.01581 32.423196 
L 220.660007 32.423544 
L 220.304205 32.423944 
L 219.948402 32.424403 
L 219.5926 32.424928 
L 219.236797 32.425528 
L 218.880995 32.426214 
L 218.525192 32.426996 
L 218.16939 32.427887 
L 217.813587 32.4289 
L 217.457785 32.430051 
L 217.101982 32.431358 
L 216.74618 32.432838 
L 216.390377 32.434513 
L 216.034575 32.436407 
L 215.678772 32.438544 
L 215.32297 32.440954 
L 214.967167 32.443668 
L 214.611364 32.446721 
L 214.255562 32.45015 
L 213.899759 32.453997 
L 213.543957 32.458309 
L 213.188154 32.463135 
L 212.832352 32.468531 
L 212.476549 32.474557 
L 212.120747 32.481279 
L 211.764944 32.48877 
L 211.409142 32.497108 
L 211.053339 32.50638 
L 210.697537 32.51668 
L 210.341734 32.52811 
L 209.985932 32.540781 
L 209.630129 32.554817 
L 209.274327 32.570349 
L 208.918524 32.587522 
L 208.562722 32.606494 
L 208.206919 32.627437 
L 207.851117 32.650536 
L 207.495314 32.675995 
L 207.139512 32.704037 
L 206.783709 32.734901 
L 206.427907 32.76885 
L 206.072104 32.80617 
L 205.716302 32.847172 
L 205.360499 32.892194 
L 205.004697 32.941603 
L 204.648894 32.9958 
L 204.293092 33.055217 
L 203.937289 33.120328 
L 203.581487 33.191642 
L 203.225684 33.269715 
L 202.869882 33.355145 
L 202.514079 33.448581 
L 202.158276 33.550722 
L 201.802474 33.662323 
L 201.446671 33.784193 
L 201.090869 33.917204 
L 200.735066 34.062288 
L 200.379264 34.220439 
L 200.023461 34.39272 
L 199.667659 34.580258 
L 199.311856 34.784249 
L 198.956054 35.005955 
L 198.600251 35.246706 
L 198.244449 35.507896 
L 197.888646 35.790982 
L 197.532844 36.097482 
L 197.177041 36.428968 
L 196.821239 36.787064 
L 196.465436 37.173436 
L 196.109634 37.589789 
L 195.753831 38.037853 
L 195.398029 38.519378 
L 195.042226 39.03612 
L 194.686424 39.589831 
L 194.330621 40.182244 
L 193.974819 40.81506 
L 193.619016 41.48993 
L 193.263214 42.208446 
L 192.907411 42.972114 
L 192.551609 43.782344 
L 192.195806 44.64043 
L 191.840004 45.547531 
L 191.484201 46.504651 
L 191.128399 47.512624 
L 190.772596 48.572091 
L 190.416794 49.683486 
L 190.060991 50.847014 
L 189.705189 52.062638 
L 189.349386 53.330061 
L 188.993583 54.648709 
L 188.637781 56.017724 
L 188.281978 57.435943 
L 187.926176 58.901895 
L 187.570373 60.413788 
L 187.214571 61.969504 
L 186.858768 63.566596 
L 186.502966 65.202284 
L 186.147163 66.873457 
L 185.791361 68.576674 
L 185.435558 70.308174 
L 185.079756 72.06388 
L 184.723953 73.839412 
L 184.368151 75.630104 
L 184.012348 77.431017 
L 183.656546 79.23696 
L 183.300743 81.042515 
L 182.944941 82.842058 
L 182.589138 84.629791 
L 182.233336 86.39977 
L 181.877533 88.145939 
L 181.521731 89.862161 
L 181.165928 91.542261 
L 180.810126 93.180058 
L 180.454323 94.769408 
L 180.098521 96.304243 
L 179.742718 97.778616 
L 179.386916 99.186738 
L 179.031113 99.763385 
L 178.675311 97.929544 
L 178.319508 96.138477 
L 177.963706 94.396514 
L 177.607903 92.709834 
L 177.252101 91.084419 
L 176.896298 89.526016 
L 176.540495 88.040088 
L 176.184693 86.631775 
L 175.82889 85.305855 
L 175.473088 84.066704 
L 175.117285 82.918258 
L 174.761483 81.863981 
L 174.40568 80.906837 
L 174.049878 80.049254 
L 173.694075 79.293109 
L 173.338273 78.639701 
L 172.98247 78.089736 
L 172.626668 77.643316 
L 172.270865 77.299929 
L 171.915063 77.058447 
L 171.55926 76.917127 
L 171.203458 76.873614 
L 170.847655 76.924955 
L 170.491853 77.067611 
L 170.13605 77.29748 
L 169.780248 77.609916 
L 169.424445 77.999763 
L 169.068643 78.461383 
L 168.71284 78.988698 
L 168.357038 79.575221 
L 168.001235 80.21411 
L 167.645433 80.898206 
L 167.28963 81.620086 
L 166.933828 82.372113 
L 166.578025 83.146488 
L 166.222223 83.935309 
L 165.86642 84.730617 
L 165.510618 85.524459 
L 165.154815 86.308943 
L 164.799013 86.57087 
L 164.44321 85.801941 
L 164.087407 85.114389 
L 163.731605 84.514186 
L 163.375802 84.006757 
L 163.02 83.59694 
L 162.664197 83.288968 
L 162.308395 83.086437 
L 161.952592 82.992291 
L 161.59679 83.008805 
L 161.240987 83.137582 
L 160.885185 83.379544 
L 160.529382 83.734936 
L 160.17358 84.203334 
L 159.817777 84.783656 
L 159.461975 85.474175 
L 159.106172 86.272549 
L 158.75037 87.175838 
L 158.394567 88.180537 
L 158.038765 89.282612 
L 157.682962 89.793934 
L 157.32716 89.061648 
L 156.971357 88.247453 
L 156.615555 87.354511 
L 156.259752 86.386413 
L 155.90395 85.347137 
L 155.548147 84.241018 
L 155.192345 83.072702 
L 154.836542 81.847106 
L 154.48074 80.569376 
L 154.124937 79.244844 
L 153.769135 77.878985 
L 153.413332 76.477373 
L 153.05753 75.045642 
L 152.701727 73.589439 
L 152.345925 72.114388 
L 151.990122 70.62605 
L 151.634319 69.129888 
L 151.278517 67.631231 
L 150.922714 66.135241 
L 150.566912 64.646887 
L 150.211109 63.170917 
L 149.855307 61.711833 
L 149.499504 60.273874 
L 149.143702 58.860994 
L 148.787899 57.476853 
L 148.432097 56.124804 
L 148.076294 54.807884 
L 147.720492 53.528811 
L 147.364689 52.289985 
L 147.008887 51.093484 
L 146.653084 49.941075 
L 146.297282 48.834215 
L 145.941479 47.774067 
L 145.585677 46.761507 
L 145.229874 45.79714 
L 144.874072 44.881317 
L 144.518269 44.014155 
L 144.162467 43.19555 
L 143.806664 42.425204 
L 143.450862 41.702646 
L 143.095059 41.027252 
L 142.739257 40.39827 
L 142.383454 39.814844 
L 142.027652 39.276035 
L 141.671849 38.780849 
L 141.316047 38.328257 
L 140.960244 37.917217 
L 140.604442 37.546698 
L 140.248639 37.215701 
L 139.892837 36.923275 
L 139.537034 36.668539 
L 139.181231 36.450699 
L 138.825429 36.26906 
L 138.469626 36.12304 
L 138.113824 36.012182 
L 137.758021 35.936164 
L 137.402219 35.894805 
L 137.046416 35.888067 
L 136.690614 35.916062 
L 136.334811 35.979048 
L 135.979009 36.077428 
L 135.623206 36.211746 
L 135.267404 36.382676 
L 134.911601 36.591016 
L 134.555799 36.837675 
L 134.199996 37.123656 
L 133.844194 37.450043 
L 133.488391 37.817982 
L 133.132589 38.228658 
L 132.776786 38.683276 
L 132.420984 39.183035 
L 132.065181 39.729108 
L 131.709379 40.32261 
L 131.353576 40.964577 
L 130.997774 41.655937 
L 130.641971 42.397482 
L 130.286169 43.189843 
L 129.930366 44.033463 
L 129.574564 44.928571 
L 129.218761 45.875157 
L 128.862959 46.872951 
L 128.507156 47.921398 
L 128.151354 49.019641 
L 127.795551 50.166505 
L 127.439749 51.360479 
L 127.083946 52.599707 
L 126.728144 53.881981 
L 126.372341 55.204734 
L 126.016538 56.56504 
L 125.660736 57.959616 
L 125.304933 59.384831 
L 124.949131 60.836713 
L 124.593328 62.31097 
L 124.237526 63.803004 
L 123.881723 65.307937 
L 123.525921 66.820639 
L 123.170118 68.335757 
L 122.814316 69.847756 
L 122.458513 71.35095 
L 122.102711 72.839552 
L 121.746908 74.307712 
L 121.391106 75.74957 
L 121.035303 77.159302 
L 120.679501 78.531174 
L 120.323698 79.859592 
L 119.967896 81.139152 
L 119.612093 82.364698 
L 119.256291 83.531371 
L 118.900488 84.634656 
L 118.544686 85.670437 
L 118.188883 86.635036 
L 117.833081 87.525256 
L 117.477278 88.338426 
L 117.121476 89.072425 
L 116.765673 89.725718 
L 116.409871 90.297377 
L 116.054068 90.787098 
L 115.698266 91.195213 
L 115.342463 91.522693 
L 114.986661 91.15215 
L 114.630858 90.412271 
L 114.275056 89.745697 
L 113.919253 89.151519 
L 113.56345 88.628319 
L 113.207648 88.174192 
L 112.851845 87.786774 
L 112.496043 87.46327 
L 112.14024 87.200497 
L 111.784438 86.99492 
L 111.428635 86.842703 
L 111.072833 86.739755 
L 110.71703 86.681785 
L 110.361228 86.664354 
L 110.005425 86.682935 
L 109.649623 86.732967 
L 109.29382 86.809914 
L 108.938018 86.909319 
L 108.582215 87.026861 
L 108.226413 87.158406 
L 107.87061 87.017907 
L 107.514808 86.748371 
L 107.159005 86.516707 
L 106.803203 86.326407 
L 106.4474 86.180351 
L 106.091598 86.080784 
L 105.735795 86.029294 
L 105.379993 86.026806 
L 105.02419 86.073575 
L 104.668388 86.169195 
L 104.312585 86.312619 
L 103.956783 86.502172 
L 103.60098 86.735594 
L 103.245178 87.010072 
L 102.889375 87.32229 
L 102.533573 87.668479 
L 102.17777 88.044478 
L 101.821968 88.445797 
L 101.466165 88.867686 
L 101.110362 89.305203 
L 100.75456 89.515491 
L 100.398757 89.625034 
L 100.042955 89.748377 
L 99.687152 89.887733 
L 99.33135 90.045114 
L 98.975547 90.222276 
L 98.619745 90.420675 
L 98.263942 90.64142 
L 97.90814 90.885236 
L 97.552337 91.152431 
L 97.196535 91.442869 
L 96.840732 91.755951 
L 96.48493 92.090601 
L 96.129127 92.445262 
L 95.773325 92.817897 
L 95.417522 93.205998 
L 95.06172 93.606604 
L 94.705917 94.016325 
L 94.350115 94.431372 
L 93.994312 94.847596 
L 93.63851 94.95034 
L 93.282707 94.914735 
L 92.926905 94.863045 
L 92.571102 94.799607 
L 92.2153 94.729027 
L 91.859497 94.65611 
L 91.503695 94.58579 
L 91.147892 94.523065 
L 90.79209 94.472926 
L 90.436287 94.440282 
L 90.080485 94.429894 
L 89.724682 94.44631 
L 89.36888 94.493795 
L 89.013077 94.576274 
L 88.657274 94.697274 
L 88.301472 94.859876 
L 87.945669 95.066663 
L 87.589867 95.319688 
L 87.234064 95.620437 
L 86.878262 95.969808 
L 86.522459 95.63172 
L 86.166657 95.008707 
L 85.810854 94.321972 
L 85.455052 93.574834 
L 85.099249 92.771261 
L 84.743447 91.915845 
L 84.387644 91.013764 
L 84.031842 90.070739 
L 83.676039 89.09299 
L 83.320237 88.087178 
L 82.964434 87.060352 
L 82.608632 86.019881 
L 82.252829 84.973388 
L 81.897027 83.928683 
L 81.541224 82.89369 
L 81.185422 81.876371 
L 80.829619 80.884655 
L 80.473817 79.926359 
L 80.118014 79.00912 
L 79.762212 78.140317 
L 79.406409 77.327001 
L 79.050607 76.575832 
L 78.694804 75.893009 
L 78.339002 75.284212 
L 77.983199 74.754546 
L 77.627397 74.308491 
L 77.271594 73.949857 
L 76.915792 73.681742 
L 76.559989 73.506505 
L 76.204186 73.425736 
L 75.848384 73.440237 
L 75.492581 73.550013 
L 75.136779 73.754268 
L 74.780976 74.051404 
L 74.425174 74.439036 
L 74.069371 74.914008 
L 73.713569 75.472417 
L 73.357766 76.109649 
L 73.001964 76.820413 
L 72.646161 77.59879 
L 72.290359 78.438283 
L 71.934556 79.331876 
L 71.578754 80.272093 
L 71.222951 81.251067 
L 70.867149 82.260612 
L 70.511346 83.292295 
L 70.155544 84.337516 
L 69.799741 85.387584 
L 69.443939 86.4338 
L 69.088136 87.467537 
L 68.732334 88.48032 
L 68.376531 89.463907 
L 68.020729 90.410366 
L 67.664926 91.312151 
L 67.309124 92.162173 
L 66.953321 92.953868 
L 66.597519 93.681259 
L 66.241716 94.339015 
L 65.885914 94.922501 
L 65.530111 95.427822 
L 65.174309 94.995601 
L 64.818506 94.47861 
L 64.462704 94.001074 
L 64.106901 93.562671 
L 63.751099 93.162586 
L 63.395296 92.799535 
L 63.039493 92.471793 
L 62.683691 92.177232 
L 62.327888 91.913359 
L 61.972086 91.677362 
L 61.616283 91.466157 
L 61.260481 91.276446 
L 60.904678 91.104765 
L 60.548876 90.947549 
L 60.193073 90.801188 
L 59.837271 90.662083 
L 59.481468 90.526714 
L 59.125666 90.391691 
L 58.769863 90.253815 
L 58.414061 90.110134 
L 58.058258 89.475047 
L 57.702456 88.809972 
L 57.346653 88.165161 
L 56.990851 87.547869 
L 56.635048 86.964957 
L 56.279246 86.422817 
L 55.923443 85.927302 
L 55.567641 85.483665 
L 55.211838 85.096505 
L 54.856036 84.769713 
L 54.500233 84.50644 
L 54.144431 84.309059 
L 53.788628 84.179143 
L 53.432826 84.117452 
L 53.077023 84.123928 
L 52.721221 84.197696 
L 52.365418 84.337079 
L 52.009616 84.539618 
L 51.653813 84.802104 
L 51.298011 85.120611 
L 50.942208 84.951863 
L 50.586405 84.798295 
L 50.230603 84.687516 
L 49.8748 84.624942 
L 49.518998 84.61586 
L 49.163195 84.665357 
L 48.807393 84.778271 
L 48.45159 84.959129 
L 48.095788 85.212092 
L 47.739985 85.540908 
L 47.384183 85.948866 
L 47.02838 86.438754 
L 46.672578 87.012828 
L 46.316775 87.672778 
L 45.960973 88.419709 
L 45.60517 89.254124 
L 45.249368 90.175913 
L 44.893565 91.184348 
L 44.537763 92.278089 
L 44.18196 93.455189 
z
" clip-path="url(#pb546e85a78)" style="fill: #ff7f0e; fill-opacity: 0.25"/>
   </g>
   <g id="matplotlib.axis_1">
    <g id="xtick_1">
     <g id="line2d_1">
      <defs>
       <path id="m59bde43184" d="M 0 0 
L 0 3.5 
" style="stroke: #000000; stroke-width: 0.8"/>
      </defs>
      <g>
       <use xlink:href="#m59bde43184" x="44.18196" y="160.92" style="stroke: #000000; stroke-width: 0.8"/>
      </g>
     </g>
     <g id="text_1">
      <!-- 0 -->
      <g transform="translate(41.00071 175.518438)scale(0.1 -0.1)">
       <defs>
        <path id="DejaVuSans-30" d="M 2034 4250 
Q 1547 4250 1301 3770 
Q 1056 3291 1056 2328 
Q 1056 1369 1301 889 
Q 1547 409 2034 409 
Q 2525 409 2770 889 
Q 3016 1369 3016 2328 
Q 3016 3291 2770 3770 
Q 2525 4250 2034 4250 
z
M 2034 4750 
Q 2819 4750 3233 4129 
Q 3647 3509 3647 2328 
Q 3647 1150 3233 529 
Q 2819 -91 2034 -91 
Q 1250 -91 836 529 
Q 422 1150 422 2328 
Q 422 3509 836 4129 
Q 1250 4750 2034 4750 
z
" transform="scale(0.015625)"/>
       </defs>
       <use xlink:href="#DejaVuSans-30"/>
      </g>
     </g>
    </g>
    <g id="xtick_2">
     <g id="line2d_2">
      <g>
       <use xlink:href="#m59bde43184" x="79.691051" y="160.92" style="stroke: #000000; stroke-width: 0.8"/>
      </g>
     </g>
     <g id="text_2">
      <!-- 5 -->
      <g transform="translate(76.509801 175.518438)scale(0.1 -0.1)">
       <defs>
        <path id="DejaVuSans-35" d="M 691 4666 
L 3169 4666 
L 3169 4134 
L 1269 4134 
L 1269 2991 
Q 1406 3038 1543 3061 
Q 1681 3084 1819 3084 
Q 2600 3084 3056 2656 
Q 3513 2228 3513 1497 
Q 3513 744 3044 326 
Q 2575 -91 1722 -91 
Q 1428 -91 1123 -41 
Q 819 9 494 109 
L 494 744 
Q 775 591 1075 516 
Q 1375 441 1709 441 
Q 2250 441 2565 725 
Q 2881 1009 2881 1497 
Q 2881 1984 2565 2268 
Q 2250 2553 1709 2553 
Q 1456 2553 1204 2497 
Q 953 2441 691 2322 
L 691 4666 
z
" transform="scale(0.015625)"/>
       </defs>
       <use xlink:href="#DejaVuSans-35"/>
      </g>
     </g>
    </g>
    <g id="xtick_3">
     <g id="line2d_3">
      <g>
       <use xlink:href="#m59bde43184" x="115.200142" y="160.92" style="stroke: #000000; stroke-width: 0.8"/>
      </g>
     </g>
     <g id="text_3">
      <!-- 10 -->
      <g transform="translate(108.837642 175.518438)scale(0.1 -0.1)">
       <defs>
        <path id="DejaVuSans-31" d="M 794 531 
L 1825 531 
L 1825 4091 
L 703 3866 
L 703 4441 
L 1819 4666 
L 2450 4666 
L 2450 531 
L 3481 531 
L 3481 0 
L 794 0 
L 794 531 
z
" transform="scale(0.015625)"/>
       </defs>
       <use xlink:href="#DejaVuSans-31"/>
       <use xlink:href="#DejaVuSans-30" x="63.623047"/>
      </g>
     </g>
    </g>
    <g id="xtick_4">
     <g id="line2d_4">
      <g>
       <use xlink:href="#m59bde43184" x="150.709233" y="160.92" style="stroke: #000000; stroke-width: 0.8"/>
      </g>
     </g>
     <g id="text_4">
      <!-- 15 -->
      <g transform="translate(144.346733 175.518438)scale(0.1 -0.1)">
       <use xlink:href="#DejaVuSans-31"/>
       <use xlink:href="#DejaVuSans-35" x="63.623047"/>
      </g>
     </g>
    </g>
    <g id="xtick_5">
     <g id="line2d_5">
      <g>
       <use xlink:href="#m59bde43184" x="186.218324" y="160.92" style="stroke: #000000; stroke-width: 0.8"/>
      </g>
     </g>
     <g id="text_5">
      <!-- 20 -->
      <g transform="translate(179.855824 175.518438)scale(0.1 -0.1)">
       <defs>
        <path id="DejaVuSans-32" d="M 1228 531 
L 3431 531 
L 3431 0 
L 469 0 
L 469 531 
Q 828 903 1448 1529 
Q 2069 2156 2228 2338 
Q 2531 2678 2651 2914 
Q 2772 3150 2772 3378 
Q 2772 3750 2511 3984 
Q 2250 4219 1831 4219 
Q 1534 4219 1204 4116 
Q 875 4013 500 3803 
L 500 4441 
Q 881 4594 1212 4672 
Q 1544 4750 1819 4750 
Q 2544 4750 2975 4387 
Q 3406 4025 3406 3419 
Q 3406 3131 3298 2873 
Q 3191 2616 2906 2266 
Q 2828 2175 2409 1742 
Q 1991 1309 1228 531 
z
" transform="scale(0.015625)"/>
       </defs>
       <use xlink:href="#DejaVuSans-32"/>
       <use xlink:href="#DejaVuSans-30" x="63.623047"/>
      </g>
     </g>
    </g>
    <g id="xtick_6">
     <g id="line2d_6">
      <g>
       <use xlink:href="#m59bde43184" x="221.727415" y="160.92" style="stroke: #000000; stroke-width: 0.8"/>
      </g>
     </g>
     <g id="text_6">
      <!-- 25 -->
      <g transform="translate(215.364915 175.518438)scale(0.1 -0.1)">
       <use xlink:href="#DejaVuSans-32"/>
       <use xlink:href="#DejaVuSans-35" x="63.623047"/>
      </g>
     </g>
    </g>
   </g>
   <g id="matplotlib.axis_2">
    <g id="ytick_1">
     <g id="line2d_7">
      <defs>
       <path id="me99770c4c6" d="M 0 0 
L -3.5 0 
" style="stroke: #000000; stroke-width: 0.8"/>
      </defs>
      <g>
       <use xlink:href="#me99770c4c6" x="35.304688" y="130.832469" style="stroke: #000000; stroke-width: 0.8"/>
      </g>
     </g>
     <g id="text_7">
      <!-- −10 -->
      <g transform="translate(7.2 134.631687)scale(0.1 -0.1)">
       <defs>
        <path id="DejaVuSans-2212" d="M 678 2272 
L 4684 2272 
L 4684 1741 
L 678 1741 
L 678 2272 
z
" transform="scale(0.015625)"/>
       </defs>
       <use xlink:href="#DejaVuSans-2212"/>
       <use xlink:href="#DejaVuSans-31" x="83.789062"/>
       <use xlink:href="#DejaVuSans-30" x="147.412109"/>
      </g>
     </g>
    </g>
    <g id="ytick_2">
     <g id="line2d_8">
      <g>
       <use xlink:href="#me99770c4c6" x="35.304688" y="92.981903" style="stroke: #000000; stroke-width: 0.8"/>
      </g>
     </g>
     <g id="text_8">
      <!-- 0 -->
      <g transform="translate(21.942187 96.781122)scale(0.1 -0.1)">
       <use xlink:href="#DejaVuSans-30"/>
      </g>
     </g>
    </g>
    <g id="ytick_3">
     <g id="line2d_9">
      <g>
       <use xlink:href="#me99770c4c6" x="35.304688" y="55.131337" style="stroke: #000000; stroke-width: 0.8"/>
      </g>
     </g>
     <g id="text_9">
      <!-- 10 -->
      <g transform="translate(15.579687 58.930556)scale(0.1 -0.1)">
       <use xlink:href="#DejaVuSans-31"/>
       <use xlink:href="#DejaVuSans-30" x="63.623047"/>
      </g>
     </g>
    </g>
   </g>
   <g id="line2d_10">
    <path d="M 44.18196 93.455191 
L 46.672578 89.317579 
L 48.095788 87.393772 
L 49.163195 86.28819 
L 50.230603 85.525405 
L 50.942208 85.221205 
L 51.653813 85.083762 
L 52.365418 85.110836 
L 53.077023 85.295796 
L 54.144431 85.84472 
L 55.211838 86.672452 
L 56.635048 88.094757 
L 61.616283 93.495988 
L 63.039493 94.545041 
L 64.106901 95.090009 
L 65.174309 95.423731 
L 66.241716 95.55891 
L 67.664926 95.474958 
L 69.443939 95.065595 
L 74.780976 93.556581 
L 76.559989 93.416941 
L 78.339002 93.551746 
L 80.118014 93.932713 
L 82.608632 94.738702 
L 86.166657 95.911828 
L 87.945669 96.255273 
L 89.36888 96.320764 
L 90.79209 96.160622 
L 92.2153 95.755459 
L 93.63851 95.105435 
L 95.06172 94.232159 
L 96.840732 92.894277 
L 102.533573 88.379304 
L 103.956783 87.629612 
L 105.379993 87.171122 
L 106.4474 87.040393 
L 107.514808 87.098283 
L 108.582215 87.340331 
L 110.005425 87.925599 
L 111.428635 88.761702 
L 113.56345 90.328436 
L 117.833081 93.585253 
L 119.612093 94.637605 
L 121.035303 95.266682 
L 122.458513 95.694096 
L 123.881723 95.928015 
L 125.660736 95.984588 
L 127.795551 95.797123 
L 132.420984 95.04179 
L 135.267404 94.718374 
L 137.758021 94.653201 
L 140.604442 94.813812 
L 146.297282 95.229455 
L 148.076294 95.11507 
L 149.855307 94.762885 
L 151.278517 94.278713 
L 153.05753 93.409723 
L 154.836542 92.276945 
L 157.682962 90.135734 
L 160.17358 88.333872 
L 161.59679 87.529083 
L 163.02 86.997552 
L 164.087407 86.821854 
L 165.154815 86.861818 
L 166.222223 87.129611 
L 167.28963 87.627053 
L 168.357038 88.345184 
L 169.780248 89.610866 
L 171.55926 91.582073 
L 177.963706 99.222736 
L 179.386916 100.410151 
L 180.810126 101.263827 
L 181.877533 101.672371 
L 182.944941 101.883682 
L 184.012348 101.90747 
L 185.435558 101.676357 
L 186.858768 101.193266 
L 188.637781 100.328791 
L 191.484201 98.633577 
L 195.042226 96.541001 
L 197.532844 95.349889 
L 199.667659 94.565778 
L 202.158276 93.914567 
L 204.648894 93.497039 
L 207.851117 93.200737 
L 212.476549 93.034838 
L 221.727415 92.983534 
L 221.727415 92.983534 
" clip-path="url(#pb546e85a78)" style="fill: none; stroke: #1f77b4; stroke-width: 2; stroke-linecap: square"/>
   </g>
   <g id="line2d_11">
    <path d="M 44.18196 93.455188 
L 45.60517 90.501564 
L 46.672578 88.752412 
L 47.739985 87.374816 
L 48.807393 86.339057 
L 49.8748 85.620604 
L 50.942208 85.20468 
L 52.009616 85.067788 
L 52.721221 85.195281 
L 53.432826 85.495959 
L 54.500233 86.21742 
L 55.923443 87.528498 
L 58.414061 90.135757 
L 60.904678 93.290876 
L 61.972086 94.364843 
L 63.039493 95.132981 
L 63.751099 95.443649 
L 64.462704 95.582321 
L 65.530111 95.50806 
L 67.664926 96.646823 
L 69.088136 97.186444 
L 70.155544 97.39318 
L 71.222951 97.379795 
L 72.290359 97.120449 
L 73.357766 96.617911 
L 74.780976 95.637689 
L 78.339002 92.901435 
L 79.406409 92.424168 
L 80.473817 92.24988 
L 81.541224 92.404585 
L 82.608632 92.86848 
L 83.676039 93.578076 
L 86.878262 96.039487 
L 89.013077 95.600392 
L 91.503695 95.355232 
L 93.282707 95.11634 
L 93.994312 94.879304 
L 98.619745 90.985242 
L 103.956783 87.274927 
L 105.02419 86.914041 
L 106.091598 86.803608 
L 107.159005 86.928278 
L 110.005425 87.697673 
L 111.428635 88.450294 
L 112.851845 89.484205 
L 114.630858 91.070529 
L 115.342463 91.713083 
L 116.765673 92.372431 
L 117.833081 92.603558 
L 118.544686 92.582867 
L 119.256291 92.388874 
L 119.967896 91.992241 
L 120.679501 91.364268 
L 121.391106 90.478176 
L 122.102711 89.310419 
L 123.170118 86.990603 
L 124.237526 83.956684 
L 125.304933 80.206259 
L 126.728144 74.16571 
L 128.507156 65.272377 
L 133.132589 40.836303 
L 134.199996 36.330862 
L 135.267404 32.721999 
L 135.979009 30.900992 
L 136.690614 29.594441 
L 137.402219 28.829313 
L 137.758021 28.654786 
L 138.113824 28.62 
L 138.469626 28.724702 
L 138.825429 28.967823 
L 139.537034 29.861053 
L 140.248639 31.275446 
L 140.960244 33.17524 
L 142.027652 36.832433 
L 143.095059 41.288903 
L 144.874072 49.904742 
L 148.787899 69.626623 
L 150.211109 75.733604 
L 151.634319 80.828069 
L 152.701727 83.903284 
L 153.769135 86.318179 
L 154.836542 88.086518 
L 155.548147 88.925554 
L 156.259752 89.513353 
L 156.971357 89.872326 
L 157.682962 90.028294 
L 158.038765 89.685262 
L 159.106172 88.28332 
L 160.17358 87.268471 
L 161.240987 86.615369 
L 162.308395 86.301198 
L 163.375802 86.305668 
L 164.44321 86.60963 
L 164.799013 86.774041 
L 165.510618 86.658475 
L 166.578025 86.511444 
L 167.645433 86.59939 
L 168.71284 86.939435 
L 169.780248 87.537689 
L 170.847655 88.389919 
L 172.270865 89.894778 
L 173.694075 91.761277 
L 175.82889 95.023927 
L 179.031113 100.083978 
L 179.386916 100.220767 
L 180.454323 100.12933 
L 181.521731 99.839836 
L 182.944941 99.202181 
L 184.723953 98.116446 
L 187.570373 96.03879 
L 192.195806 92.367138 
L 195.753831 89.256204 
L 198.244449 87.137508 
L 199.667659 86.206341 
L 200.735066 85.782118 
L 201.446671 85.681785 
L 202.158276 85.761082 
L 202.869882 86.047927 
L 203.581487 86.567751 
L 204.293092 87.341792 
L 205.004697 88.385309 
L 206.072104 90.469831 
L 207.139512 93.160108 
L 208.562722 97.556939 
L 211.053339 106.411614 
L 212.476549 111.187323 
L 213.543957 114.147248 
L 214.255562 115.682186 
L 214.967167 116.791098 
L 215.678772 117.423488 
L 216.034575 117.54939 
L 216.390377 117.544368 
L 216.74618 117.406797 
L 217.457785 116.73332 
L 218.16939 115.53944 
L 218.880995 113.854165 
L 219.948402 110.510686 
L 221.01581 106.388356 
L 221.727415 103.341542 
L 221.727415 103.341542 
" clip-path="url(#pb546e85a78)" style="fill: none; stroke: #808080; stroke-opacity: 0.25; stroke-width: 1.5; stroke-linecap: square"/>
   </g>
   <g id="line2d_12">
    <path d="M 44.18196 93.455191 
L 45.60517 91.753113 
L 49.8748 86.232636 
L 50.942208 85.341484 
L 51.298011 85.136631 
L 52.365418 85.460328 
L 53.432826 86.048392 
L 54.856036 87.105152 
L 58.414061 90.141508 
L 60.548876 93.230337 
L 61.616283 94.462735 
L 62.683691 95.336079 
L 63.395296 95.679701 
L 64.106901 95.816267 
L 64.818506 95.741611 
L 65.530111 95.519105 
L 70.867149 99.928654 
L 71.934556 100.485045 
L 73.001964 100.820773 
L 74.069371 100.916403 
L 75.136779 100.776289 
L 76.204186 100.428086 
L 77.627397 99.722607 
L 82.608632 96.963723 
L 84.031842 96.493255 
L 85.810854 96.15698 
L 86.878262 96.103532 
L 87.945669 96.517952 
L 89.013077 96.709397 
L 90.080485 96.677802 
L 91.147892 96.431821 
L 92.2153 95.989343 
L 93.63851 95.141856 
L 95.06172 94.384117 
L 96.48493 93.452458 
L 98.263942 91.984348 
L 101.466165 89.161127 
L 103.245178 88.236484 
L 105.02419 87.578806 
L 106.4474 87.26983 
L 107.87061 87.195275 
L 108.582215 87.419119 
L 110.005425 88.220231 
L 115.342463 91.779965 
L 118.188883 94.61445 
L 119.612093 95.665586 
L 120.679501 96.162394 
L 121.746908 96.349154 
L 122.458513 96.280401 
L 123.170118 96.045736 
L 123.881723 95.638022 
L 124.949131 94.691786 
L 126.016538 93.337944 
L 127.083946 91.580273 
L 128.151354 89.43573 
L 129.574564 86.034713 
L 131.353576 81.117458 
L 134.911601 70.966067 
L 135.979009 68.488381 
L 137.046416 66.569569 
L 137.758021 65.6746 
L 138.469626 65.128574 
L 139.181231 64.956276 
L 139.892837 65.170824 
L 140.604442 65.772275 
L 141.316047 66.746951 
L 142.027652 68.067449 
L 143.095059 70.605251 
L 144.518269 74.734163 
L 147.720492 84.521463 
L 148.787899 87.183584 
L 149.855307 89.300121 
L 150.922714 90.814211 
L 151.634319 91.489391 
L 152.345925 91.913637 
L 153.05753 92.11097 
L 153.769135 92.111735 
L 154.836542 91.819425 
L 155.90395 91.280615 
L 157.682962 90.124063 
L 160.885185 87.66197 
L 161.952592 87.097096 
L 163.02 86.760119 
L 164.087407 86.691536 
L 167.28963 87.151321 
L 168.357038 87.707049 
L 169.424445 88.56535 
L 170.491853 89.731598 
L 171.915063 91.712815 
L 174.40568 95.79746 
L 175.82889 97.954974 
L 176.896298 99.212159 
L 177.607903 99.798588 
L 178.319508 100.142783 
L 179.031113 100.218904 
L 179.386916 100.669256 
L 180.810126 103.368533 
L 182.589138 107.258205 
L 185.435558 113.580638 
L 186.858768 116.139945 
L 187.926176 117.567676 
L 188.637781 118.240945 
L 189.349386 118.675842 
L 190.060991 118.868226 
L 190.772596 118.821855 
L 191.484201 118.547743 
L 192.195806 118.063029 
L 193.263214 116.989632 
L 194.330621 115.576182 
L 195.753831 113.307327 
L 197.532844 110.064708 
L 199.667659 105.694946 
L 201.446671 101.465419 
L 202.869882 97.462142 
L 204.293092 92.737874 
L 205.716302 87.240138 
L 207.851117 77.847483 
L 210.697537 65.241133 
L 211.764944 61.293917 
L 212.832352 58.139161 
L 213.543957 56.569279 
L 214.255562 55.473637 
L 214.967167 54.877471 
L 215.32297 54.770656 
L 215.678772 54.791706 
L 216.034575 54.939845 
L 216.74618 55.610533 
L 217.457785 56.762371 
L 218.16939 58.366264 
L 219.236797 61.542037 
L 220.304205 65.52634 
L 221.727415 71.879122 
L 221.727415 71.879122 
" clip-path="url(#pb546e85a78)" style="fill: none; stroke: #808080; stroke-opacity: 0.25; stroke-width: 1.5; stroke-linecap: square"/>
   </g>
   <g id="line2d_13">
    <path d="M 44.18196 93.455192 
L 46.316775 89.644279 
L 47.739985 87.548209 
L 48.807393 86.357777 
L 49.8748 85.558409 
L 50.586405 85.255053 
L 52.365418 84.949449 
L 53.077023 85.036698 
L 53.788628 85.290164 
L 54.856036 85.969462 
L 55.923443 86.970507 
L 57.346653 88.686715 
L 58.769863 90.458377 
L 60.904678 92.306001 
L 63.395296 94.13325 
L 65.530111 95.470369 
L 66.597519 94.979026 
L 67.664926 94.200202 
L 69.088136 92.865949 
L 71.934556 90.085928 
L 73.001964 89.299706 
L 74.069371 88.770136 
L 75.136779 88.540959 
L 76.204186 88.629195 
L 77.271594 89.02414 
L 78.339002 89.688463 
L 79.762212 90.88625 
L 84.031842 94.782343 
L 85.455052 95.614029 
L 86.522459 95.996265 
L 89.013077 96.472833 
L 90.436287 96.48072 
L 91.503695 96.257045 
L 92.571102 95.809887 
L 97.196535 93.11706 
L 98.619745 91.893933 
L 101.466165 89.237063 
L 103.245178 88.603802 
L 107.87061 87.265819 
L 108.226413 87.30191 
L 109.649623 88.548937 
L 112.14024 90.888063 
L 113.207648 91.552364 
L 113.919253 91.777096 
L 114.630858 91.789708 
L 114.986661 91.708983 
L 115.342463 91.920991 
L 116.409871 94.374309 
L 117.833081 98.329986 
L 119.967896 105.205616 
L 122.814316 114.351786 
L 124.237526 118.174693 
L 125.304933 120.514683 
L 126.372341 122.340071 
L 127.439749 123.626912 
L 128.151354 124.185008 
L 128.862959 124.508119 
L 129.574564 124.603087 
L 130.286169 124.478072 
L 130.997774 124.141818 
L 131.709379 123.603146 
L 132.776786 122.434614 
L 133.844194 120.859762 
L 134.911601 118.911122 
L 136.334811 115.802493 
L 138.113824 111.28776 
L 142.739257 99.022096 
L 144.162467 95.991286 
L 145.229874 94.146011 
L 146.297282 92.702701 
L 147.364689 91.660876 
L 148.432097 90.991339 
L 149.499504 90.639859 
L 150.566912 90.532892 
L 152.345925 90.663131 
L 154.48074 90.833315 
L 155.90395 90.695306 
L 156.971357 90.394603 
L 157.682962 90.097985 
L 160.529382 87.839769 
L 161.59679 87.348355 
L 163.02 86.971357 
L 164.44321 86.837918 
L 165.154815 86.887055 
L 165.86642 87.162128 
L 166.578025 87.616285 
L 167.645433 88.633866 
L 168.71284 90.028285 
L 170.13605 92.358787 
L 174.40568 99.889637 
L 175.473088 101.105781 
L 176.184693 101.605996 
L 176.896298 101.810802 
L 177.607903 101.685546 
L 178.319508 101.201877 
L 179.031113 100.338895 
L 179.386916 101.059389 
L 180.810126 106.064113 
L 182.233336 111.872826 
L 184.723953 123.258924 
L 186.858768 132.892629 
L 188.281978 138.335868 
L 189.349386 141.50299 
L 190.060991 143.053554 
L 190.772596 144.087423 
L 191.484201 144.556619 
L 191.840004 144.567573 
L 192.195806 144.424714 
L 192.551609 144.125601 
L 193.263214 143.053582 
L 193.974819 141.351331 
L 194.686424 139.034876 
L 195.753831 134.483784 
L 196.821239 128.802637 
L 198.244449 119.903563 
L 202.869882 89.38523 
L 203.937289 83.91531 
L 205.004697 79.565984 
L 205.716302 77.356537 
L 206.427907 75.723632 
L 207.139512 74.67045 
L 207.851117 74.18489 
L 208.206919 74.147227 
L 208.562722 74.240484 
L 209.274327 74.797717 
L 209.985932 75.805654 
L 210.697537 77.203826 
L 211.764944 79.882615 
L 213.188154 84.147675 
L 216.034575 92.802165 
L 217.101982 95.408548 
L 218.16939 97.411153 
L 218.880995 98.364952 
L 219.5926 98.999315 
L 220.304205 99.315971 
L 221.01581 99.329042 
L 221.727415 99.064575 
L 221.727415 99.064575 
" clip-path="url(#pb546e85a78)" style="fill: none; stroke: #808080; stroke-opacity: 0.25; stroke-width: 1.5; stroke-linecap: square"/>
   </g>
   <g id="line2d_14">
    <path d="M 44.18196 93.455191 
L 45.60517 89.931092 
L 46.672578 87.848134 
L 47.739985 86.320793 
L 48.45159 85.622175 
L 49.163195 85.17332 
L 49.8748 84.959328 
L 50.586405 84.957676 
L 51.298011 85.123663 
L 52.009616 84.681811 
L 52.721221 84.448283 
L 53.432826 84.441376 
L 54.144431 84.669801 
L 54.856036 85.131808 
L 55.567641 85.814765 
L 56.635048 87.19975 
L 58.058258 89.522314 
L 58.414061 90.114252 
L 62.683691 92.53825 
L 63.751099 93.452717 
L 64.818506 94.615008 
L 65.530111 95.437492 
L 66.241716 94.525 
L 67.309124 92.655447 
L 68.376531 90.290814 
L 70.155544 85.68886 
L 72.290359 80.186957 
L 73.357766 77.913318 
L 74.425174 76.1969 
L 75.136779 75.431429 
L 75.848384 75.003932 
L 76.559989 74.932077 
L 77.271594 75.221584 
L 77.983199 75.865699 
L 78.694804 76.845158 
L 79.762212 78.871658 
L 80.829619 81.429498 
L 82.964434 87.345437 
L 84.743447 92.0603 
L 85.810854 94.391463 
L 86.522459 95.650926 
L 86.878262 95.97587 
L 87.945669 95.146654 
L 89.013077 94.719402 
L 90.080485 94.612233 
L 91.503695 94.762129 
L 93.282707 94.976252 
L 93.63851 94.977031 
L 93.994312 94.85826 
L 96.48493 92.354237 
L 97.90814 91.19871 
L 99.33135 90.283217 
L 101.110362 89.325528 
L 102.533573 87.951484 
L 103.60098 87.183457 
L 104.668388 86.704536 
L 105.735795 86.53904 
L 106.803203 86.679717 
L 108.582215 87.193354 
L 109.649623 87.294418 
L 110.71703 87.609681 
L 111.784438 88.16549 
L 112.851845 88.97504 
L 113.919253 90.038118 
L 115.342463 91.659855 
L 116.409871 91.717165 
L 117.477278 91.476663 
L 118.544686 90.914113 
L 119.612093 90.016497 
L 120.679501 88.784407 
L 121.746908 87.235614 
L 123.170118 84.748522 
L 125.304933 80.466899 
L 127.439749 76.297725 
L 128.507156 74.578888 
L 129.574564 73.271044 
L 130.286169 72.677942 
L 130.997774 72.333772 
L 131.709379 72.251842 
L 132.420984 72.436712 
L 133.132589 72.883936 
L 133.844194 73.580285 
L 134.911601 75.043177 
L 135.979009 76.916343 
L 137.758021 80.604797 
L 140.604442 86.610626 
L 142.027652 89.104774 
L 143.095059 90.619323 
L 144.162467 91.801005 
L 145.229874 92.653433 
L 146.297282 93.201144 
L 147.364689 93.483148 
L 148.432097 93.546235 
L 149.855307 93.372715 
L 151.634319 92.88096 
L 154.124937 91.90467 
L 156.615555 90.697798 
L 158.038765 89.818622 
L 159.817777 88.293263 
L 161.240987 87.406743 
L 162.308395 86.984416 
L 163.375802 86.777971 
L 164.44321 86.775539 
L 165.86642 86.983219 
L 166.933828 87.457018 
L 168.001235 88.268492 
L 169.068643 89.402024 
L 170.491853 91.324535 
L 175.117285 98.141598 
L 176.184693 99.197457 
L 177.252101 99.894737 
L 177.963706 100.148533 
L 178.675311 100.235421 
L 179.031113 100.218847 
L 179.742718 101.238226 
L 181.521731 103.94651 
L 182.944941 105.687015 
L 184.012348 106.635741 
L 185.079756 107.224996 
L 185.791361 107.403658 
L 186.502966 107.406035 
L 187.214571 107.231382 
L 187.926176 106.881438 
L 188.993583 106.036466 
L 190.060991 104.82456 
L 191.128399 103.270362 
L 192.551609 100.720104 
L 194.330621 96.910797 
L 198.956054 86.378021 
L 200.023461 84.618517 
L 200.735066 83.76603 
L 201.446671 83.228501 
L 202.158276 83.052918 
L 202.869882 83.281338 
L 203.581487 83.949046 
L 204.293092 85.082803 
L 205.004697 86.69935 
L 205.716302 88.804113 
L 206.783709 92.85824 
L 207.851117 97.91492 
L 209.274327 105.959622 
L 211.409142 119.715111 
L 213.543957 133.359548 
L 214.967167 141.06973 
L 216.034575 145.588432 
L 216.74618 147.852502 
L 217.457785 149.448968 
L 218.16939 150.338551 
L 218.525192 150.51142 
L 218.880995 150.502032 
L 219.236797 150.311415 
L 219.5926 149.942006 
L 220.304205 148.683798 
L 221.01581 146.775708 
L 221.727415 144.288234 
L 221.727415 144.288234 
" clip-path="url(#pb546e85a78)" style="fill: none; stroke: #808080; stroke-opacity: 0.25; stroke-width: 1.5; stroke-linecap: square"/>
   </g>
   <g id="line2d_15">
    <path d="M 44.18196 93.455192 
L 47.02838 88.957262 
L 48.45159 87.142494 
L 49.518998 86.104263 
L 50.586405 85.399025 
L 51.298011 85.132627 
L 52.009616 85.12419 
L 53.077023 85.400017 
L 54.144431 85.980587 
L 55.211838 86.808204 
L 56.635048 88.185009 
L 58.769863 90.56311 
L 60.548876 92.562944 
L 61.972086 93.842533 
L 63.039493 94.561897 
L 64.106901 95.075894 
L 65.530111 95.487753 
L 66.597519 95.465429 
L 67.664926 95.1798 
L 68.732334 94.655987 
L 70.155544 93.672209 
L 74.069371 90.715636 
L 75.136779 90.242152 
L 76.204186 90.033571 
L 77.271594 90.112445 
L 78.339002 90.469567 
L 79.406409 91.065894 
L 80.829619 92.122171 
L 84.387644 94.923687 
L 85.810854 95.703438 
L 86.878262 96.0733 
L 89.36888 96.327024 
L 90.79209 96.223475 
L 91.859497 95.956923 
L 93.282707 95.326321 
L 96.48493 93.361441 
L 98.263942 91.921825 
L 101.466165 89.156658 
L 103.245178 88.237176 
L 105.02419 87.603345 
L 106.4474 87.301902 
L 107.87061 87.203006 
L 108.582215 87.439185 
L 110.005425 88.32436 
L 114.275056 91.277775 
L 115.342463 91.819435 
L 116.765673 93.913546 
L 118.544686 97.024839 
L 120.679501 101.282333 
L 124.593328 109.181407 
L 126.016538 111.516489 
L 127.083946 112.898977 
L 128.151354 113.891752 
L 128.862959 114.310999 
L 129.574564 114.522461 
L 130.286169 114.518043 
L 130.997774 114.292774 
L 131.709379 113.844515 
L 132.420984 113.173624 
L 133.488391 111.755577 
L 134.555799 109.857422 
L 135.623206 107.501133 
L 137.046416 103.698518 
L 138.469626 99.232488 
L 140.604442 91.63506 
L 143.806664 80.025227 
L 145.229874 75.762879 
L 146.297282 73.301525 
L 147.008887 72.098979 
L 147.720492 71.289294 
L 148.432097 70.896069 
L 149.143702 70.929487 
L 149.855307 71.384866 
L 150.566912 72.24188 
L 151.278517 73.4647 
L 152.345925 75.870936 
L 153.769135 79.788958 
L 156.259752 86.79325 
L 157.32716 89.170486 
L 157.682962 89.82177 
L 158.038765 89.330776 
L 159.106172 86.532984 
L 159.817777 85.177184 
L 160.529382 84.249588 
L 161.240987 83.748934 
L 161.952592 83.658308 
L 162.664197 83.94706 
L 163.375802 84.573316 
L 164.087407 85.486848 
L 164.799013 86.632158 
L 165.154815 86.449928 
L 166.578025 84.407403 
L 167.645433 83.285057 
L 168.357038 82.805865 
L 169.068643 82.570504 
L 169.780248 82.591147 
L 170.491853 82.86979 
L 171.203458 83.399614 
L 171.915063 84.166613 
L 172.98247 85.718602 
L 174.049878 87.682119 
L 175.473088 90.796991 
L 177.607903 96.165335 
L 179.031113 99.978356 
L 179.386916 99.880206 
L 180.454323 98.357717 
L 181.877533 95.842735 
L 183.656546 92.172863 
L 186.858768 85.427782 
L 188.637781 82.255267 
L 190.416794 79.633726 
L 195.042226 73.347367 
L 196.465436 70.761172 
L 197.888646 67.658563 
L 199.667659 63.173824 
L 202.869882 54.87776 
L 203.937289 52.593963 
L 205.004697 50.788058 
L 205.716302 49.903545 
L 206.427907 49.301279 
L 207.139512 48.99441 
L 207.851117 48.987054 
L 208.562722 49.274354 
L 209.274327 49.843087 
L 209.985932 50.672537 
L 211.053339 52.344998 
L 212.476549 55.197253 
L 214.611364 60.196938 
L 217.101982 65.935022 
L 218.525192 68.672433 
L 219.5926 70.31328 
L 220.660007 71.530944 
L 221.371612 72.085327 
L 221.727415 72.281974 
L 221.727415 72.281974 
" clip-path="url(#pb546e85a78)" style="fill: none; stroke: #808080; stroke-opacity: 0.25; stroke-width: 1.5; stroke-linecap: square"/>
   </g>
   <g id="patch_3">
    <path d="M 35.304688 160.92 
L 35.304688 22.32 
" style="fill: none; stroke: #000000; stroke-width: 0.8; stroke-linejoin: miter; stroke-linecap: square"/>
   </g>
   <g id="patch_4">
    <path d="M 230.604688 160.92 
L 230.604688 22.32 
" style="fill: none; stroke: #000000; stroke-width: 0.8; stroke-linejoin: miter; stroke-linecap: square"/>
   </g>
   <g id="patch_5">
    <path d="M 35.304688 160.92 
L 230.604687 160.92 
" style="fill: none; stroke: #000000; stroke-width: 0.8; stroke-linejoin: miter; stroke-linecap: square"/>
   </g>
   <g id="patch_6">
    <path d="M 35.304688 22.32 
L 230.604687 22.32 
" style="fill: none; stroke: #000000; stroke-width: 0.8; stroke-linejoin: miter; stroke-linecap: square"/>
   </g>
   <g id="text_10">
    <!-- Lengthscale $\ell$=2, Amplitude $a$=8.000 -->
    <g transform="translate(21.054688 16.32)scale(0.12 -0.12)">
     <defs>
      <path id="DejaVuSans-4c" d="M 628 4666 
L 1259 4666 
L 1259 531 
L 3531 531 
L 3531 0 
L 628 0 
L 628 4666 
z
" transform="scale(0.015625)"/>
      <path id="DejaVuSans-65" d="M 3597 1894 
L 3597 1613 
L 953 1613 
Q 991 1019 1311 708 
Q 1631 397 2203 397 
Q 2534 397 2845 478 
Q 3156 559 3463 722 
L 3463 178 
Q 3153 47 2828 -22 
Q 2503 -91 2169 -91 
Q 1331 -91 842 396 
Q 353 884 353 1716 
Q 353 2575 817 3079 
Q 1281 3584 2069 3584 
Q 2775 3584 3186 3129 
Q 3597 2675 3597 1894 
z
M 3022 2063 
Q 3016 2534 2758 2815 
Q 2500 3097 2075 3097 
Q 1594 3097 1305 2825 
Q 1016 2553 972 2059 
L 3022 2063 
z
" transform="scale(0.015625)"/>
      <path id="DejaVuSans-6e" d="M 3513 2113 
L 3513 0 
L 2938 0 
L 2938 2094 
Q 2938 2591 2744 2837 
Q 2550 3084 2163 3084 
Q 1697 3084 1428 2787 
Q 1159 2491 1159 1978 
L 1159 0 
L 581 0 
L 581 3500 
L 1159 3500 
L 1159 2956 
Q 1366 3272 1645 3428 
Q 1925 3584 2291 3584 
Q 2894 3584 3203 3211 
Q 3513 2838 3513 2113 
z
" transform="scale(0.015625)"/>
      <path id="DejaVuSans-67" d="M 2906 1791 
Q 2906 2416 2648 2759 
Q 2391 3103 1925 3103 
Q 1463 3103 1205 2759 
Q 947 2416 947 1791 
Q 947 1169 1205 825 
Q 1463 481 1925 481 
Q 2391 481 2648 825 
Q 2906 1169 2906 1791 
z
M 3481 434 
Q 3481 -459 3084 -895 
Q 2688 -1331 1869 -1331 
Q 1566 -1331 1297 -1286 
Q 1028 -1241 775 -1147 
L 775 -588 
Q 1028 -725 1275 -790 
Q 1522 -856 1778 -856 
Q 2344 -856 2625 -561 
Q 2906 -266 2906 331 
L 2906 616 
Q 2728 306 2450 153 
Q 2172 0 1784 0 
Q 1141 0 747 490 
Q 353 981 353 1791 
Q 353 2603 747 3093 
Q 1141 3584 1784 3584 
Q 2172 3584 2450 3431 
Q 2728 3278 2906 2969 
L 2906 3500 
L 3481 3500 
L 3481 434 
z
" transform="scale(0.015625)"/>
      <path id="DejaVuSans-74" d="M 1172 4494 
L 1172 3500 
L 2356 3500 
L 2356 3053 
L 1172 3053 
L 1172 1153 
Q 1172 725 1289 603 
Q 1406 481 1766 481 
L 2356 481 
L 2356 0 
L 1766 0 
Q 1100 0 847 248 
Q 594 497 594 1153 
L 594 3053 
L 172 3053 
L 172 3500 
L 594 3500 
L 594 4494 
L 1172 4494 
z
" transform="scale(0.015625)"/>
      <path id="DejaVuSans-68" d="M 3513 2113 
L 3513 0 
L 2938 0 
L 2938 2094 
Q 2938 2591 2744 2837 
Q 2550 3084 2163 3084 
Q 1697 3084 1428 2787 
Q 1159 2491 1159 1978 
L 1159 0 
L 581 0 
L 581 4863 
L 1159 4863 
L 1159 2956 
Q 1366 3272 1645 3428 
Q 1925 3584 2291 3584 
Q 2894 3584 3203 3211 
Q 3513 2838 3513 2113 
z
" transform="scale(0.015625)"/>
      <path id="DejaVuSans-73" d="M 2834 3397 
L 2834 2853 
Q 2591 2978 2328 3040 
Q 2066 3103 1784 3103 
Q 1356 3103 1142 2972 
Q 928 2841 928 2578 
Q 928 2378 1081 2264 
Q 1234 2150 1697 2047 
L 1894 2003 
Q 2506 1872 2764 1633 
Q 3022 1394 3022 966 
Q 3022 478 2636 193 
Q 2250 -91 1575 -91 
Q 1294 -91 989 -36 
Q 684 19 347 128 
L 347 722 
Q 666 556 975 473 
Q 1284 391 1588 391 
Q 1994 391 2212 530 
Q 2431 669 2431 922 
Q 2431 1156 2273 1281 
Q 2116 1406 1581 1522 
L 1381 1569 
Q 847 1681 609 1914 
Q 372 2147 372 2553 
Q 372 3047 722 3315 
Q 1072 3584 1716 3584 
Q 2034 3584 2315 3537 
Q 2597 3491 2834 3397 
z
" transform="scale(0.015625)"/>
      <path id="DejaVuSans-63" d="M 3122 3366 
L 3122 2828 
Q 2878 2963 2633 3030 
Q 2388 3097 2138 3097 
Q 1578 3097 1268 2742 
Q 959 2388 959 1747 
Q 959 1106 1268 751 
Q 1578 397 2138 397 
Q 2388 397 2633 464 
Q 2878 531 3122 666 
L 3122 134 
Q 2881 22 2623 -34 
Q 2366 -91 2075 -91 
Q 1284 -91 818 406 
Q 353 903 353 1747 
Q 353 2603 823 3093 
Q 1294 3584 2113 3584 
Q 2378 3584 2631 3529 
Q 2884 3475 3122 3366 
z
" transform="scale(0.015625)"/>
      <path id="DejaVuSans-61" d="M 2194 1759 
Q 1497 1759 1228 1600 
Q 959 1441 959 1056 
Q 959 750 1161 570 
Q 1363 391 1709 391 
Q 2188 391 2477 730 
Q 2766 1069 2766 1631 
L 2766 1759 
L 2194 1759 
z
M 3341 1997 
L 3341 0 
L 2766 0 
L 2766 531 
Q 2569 213 2275 61 
Q 1981 -91 1556 -91 
Q 1019 -91 701 211 
Q 384 513 384 1019 
Q 384 1609 779 1909 
Q 1175 2209 1959 2209 
L 2766 2209 
L 2766 2266 
Q 2766 2663 2505 2880 
Q 2244 3097 1772 3097 
Q 1472 3097 1187 3025 
Q 903 2953 641 2809 
L 641 3341 
Q 956 3463 1253 3523 
Q 1550 3584 1831 3584 
Q 2591 3584 2966 3190 
Q 3341 2797 3341 1997 
z
" transform="scale(0.015625)"/>
      <path id="DejaVuSans-6c" d="M 603 4863 
L 1178 4863 
L 1178 0 
L 603 0 
L 603 4863 
z
" transform="scale(0.015625)"/>
      <path id="DejaVuSans-20" transform="scale(0.015625)"/>
      <path id="DejaVuSans-Oblique-2113" d="M 950 838 
Q 1078 213 1350 213 
Q 1531 213 1766 572 
L 2181 572 
Q 1994 253 1775 88 
Q 1538 -91 1319 -91 
Q 831 -91 634 344 
L 400 0 
L -88 0 
Q 250 459 500 888 
Q 469 1131 469 1397 
Q 469 1872 566 2347 
Q 931 4131 1256 4497 
Q 1481 4750 1866 4750 
Q 2256 4750 2256 4209 
Q 2253 3966 2197 3675 
Q 1972 2484 950 838 
z
M 947 1656 
Q 1531 2744 1709 3613 
Q 1803 4072 1803 4191 
Q 1803 4406 1725 4406 
Q 1384 4134 1081 2516 
Q 997 2063 947 1656 
z
" transform="scale(0.015625)"/>
      <path id="DejaVuSans-3d" d="M 678 2906 
L 4684 2906 
L 4684 2381 
L 678 2381 
L 678 2906 
z
M 678 1631 
L 4684 1631 
L 4684 1100 
L 678 1100 
L 678 1631 
z
" transform="scale(0.015625)"/>
      <path id="DejaVuSans-2c" d="M 750 794 
L 1409 794 
L 1409 256 
L 897 -744 
L 494 -744 
L 750 256 
L 750 794 
z
" transform="scale(0.015625)"/>
      <path id="DejaVuSans-41" d="M 2188 4044 
L 1331 1722 
L 3047 1722 
L 2188 4044 
z
M 1831 4666 
L 2547 4666 
L 4325 0 
L 3669 0 
L 3244 1197 
L 1141 1197 
L 716 0 
L 50 0 
L 1831 4666 
z
" transform="scale(0.015625)"/>
      <path id="DejaVuSans-6d" d="M 3328 2828 
Q 3544 3216 3844 3400 
Q 4144 3584 4550 3584 
Q 5097 3584 5394 3201 
Q 5691 2819 5691 2113 
L 5691 0 
L 5113 0 
L 5113 2094 
Q 5113 2597 4934 2840 
Q 4756 3084 4391 3084 
Q 3944 3084 3684 2787 
Q 3425 2491 3425 1978 
L 3425 0 
L 2847 0 
L 2847 2094 
Q 2847 2600 2669 2842 
Q 2491 3084 2119 3084 
Q 1678 3084 1418 2786 
Q 1159 2488 1159 1978 
L 1159 0 
L 581 0 
L 581 3500 
L 1159 3500 
L 1159 2956 
Q 1356 3278 1631 3431 
Q 1906 3584 2284 3584 
Q 2666 3584 2933 3390 
Q 3200 3197 3328 2828 
z
" transform="scale(0.015625)"/>
      <path id="DejaVuSans-70" d="M 1159 525 
L 1159 -1331 
L 581 -1331 
L 581 3500 
L 1159 3500 
L 1159 2969 
Q 1341 3281 1617 3432 
Q 1894 3584 2278 3584 
Q 2916 3584 3314 3078 
Q 3713 2572 3713 1747 
Q 3713 922 3314 415 
Q 2916 -91 2278 -91 
Q 1894 -91 1617 61 
Q 1341 213 1159 525 
z
M 3116 1747 
Q 3116 2381 2855 2742 
Q 2594 3103 2138 3103 
Q 1681 3103 1420 2742 
Q 1159 2381 1159 1747 
Q 1159 1113 1420 752 
Q 1681 391 2138 391 
Q 2594 391 2855 752 
Q 3116 1113 3116 1747 
z
" transform="scale(0.015625)"/>
      <path id="DejaVuSans-69" d="M 603 3500 
L 1178 3500 
L 1178 0 
L 603 0 
L 603 3500 
z
M 603 4863 
L 1178 4863 
L 1178 4134 
L 603 4134 
L 603 4863 
z
" transform="scale(0.015625)"/>
      <path id="DejaVuSans-75" d="M 544 1381 
L 544 3500 
L 1119 3500 
L 1119 1403 
Q 1119 906 1312 657 
Q 1506 409 1894 409 
Q 2359 409 2629 706 
Q 2900 1003 2900 1516 
L 2900 3500 
L 3475 3500 
L 3475 0 
L 2900 0 
L 2900 538 
Q 2691 219 2414 64 
Q 2138 -91 1772 -91 
Q 1169 -91 856 284 
Q 544 659 544 1381 
z
M 1991 3584 
L 1991 3584 
z
" transform="scale(0.015625)"/>
      <path id="DejaVuSans-64" d="M 2906 2969 
L 2906 4863 
L 3481 4863 
L 3481 0 
L 2906 0 
L 2906 525 
Q 2725 213 2448 61 
Q 2172 -91 1784 -91 
Q 1150 -91 751 415 
Q 353 922 353 1747 
Q 353 2572 751 3078 
Q 1150 3584 1784 3584 
Q 2172 3584 2448 3432 
Q 2725 3281 2906 2969 
z
M 947 1747 
Q 947 1113 1208 752 
Q 1469 391 1925 391 
Q 2381 391 2643 752 
Q 2906 1113 2906 1747 
Q 2906 2381 2643 2742 
Q 2381 3103 1925 3103 
Q 1469 3103 1208 2742 
Q 947 2381 947 1747 
z
" transform="scale(0.015625)"/>
      <path id="DejaVuSans-Oblique-61" d="M 3438 1997 
L 3047 0 
L 2472 0 
L 2578 531 
Q 2325 219 2001 64 
Q 1678 -91 1281 -91 
Q 834 -91 548 182 
Q 263 456 263 884 
Q 263 1497 752 1853 
Q 1241 2209 2100 2209 
L 2900 2209 
L 2931 2363 
Q 2938 2388 2941 2417 
Q 2944 2447 2944 2509 
Q 2944 2788 2717 2942 
Q 2491 3097 2081 3097 
Q 1800 3097 1504 3025 
Q 1209 2953 897 2809 
L 997 3341 
Q 1322 3463 1633 3523 
Q 1944 3584 2234 3584 
Q 2853 3584 3176 3315 
Q 3500 3047 3500 2534 
Q 3500 2431 3484 2292 
Q 3469 2153 3438 1997 
z
M 2816 1759 
L 2241 1759 
Q 1534 1759 1195 1570 
Q 856 1381 856 984 
Q 856 709 1029 553 
Q 1203 397 1509 397 
Q 1978 397 2328 733 
Q 2678 1069 2791 1631 
L 2816 1759 
z
" transform="scale(0.015625)"/>
      <path id="DejaVuSans-38" d="M 2034 2216 
Q 1584 2216 1326 1975 
Q 1069 1734 1069 1313 
Q 1069 891 1326 650 
Q 1584 409 2034 409 
Q 2484 409 2743 651 
Q 3003 894 3003 1313 
Q 3003 1734 2745 1975 
Q 2488 2216 2034 2216 
z
M 1403 2484 
Q 997 2584 770 2862 
Q 544 3141 544 3541 
Q 544 4100 942 4425 
Q 1341 4750 2034 4750 
Q 2731 4750 3128 4425 
Q 3525 4100 3525 3541 
Q 3525 3141 3298 2862 
Q 3072 2584 2669 2484 
Q 3125 2378 3379 2068 
Q 3634 1759 3634 1313 
Q 3634 634 3220 271 
Q 2806 -91 2034 -91 
Q 1263 -91 848 271 
Q 434 634 434 1313 
Q 434 1759 690 2068 
Q 947 2378 1403 2484 
z
M 1172 3481 
Q 1172 3119 1398 2916 
Q 1625 2713 2034 2713 
Q 2441 2713 2670 2916 
Q 2900 3119 2900 3481 
Q 2900 3844 2670 4047 
Q 2441 4250 2034 4250 
Q 1625 4250 1398 4047 
Q 1172 3844 1172 3481 
z
" transform="scale(0.015625)"/>
      <path id="DejaVuSans-2e" d="M 684 794 
L 1344 794 
L 1344 0 
L 684 0 
L 684 794 
z
" transform="scale(0.015625)"/>
     </defs>
     <use xlink:href="#DejaVuSans-4c" transform="translate(0 0.015625)"/>
     <use xlink:href="#DejaVuSans-65" transform="translate(55.712891 0.015625)"/>
     <use xlink:href="#DejaVuSans-6e" transform="translate(117.236328 0.015625)"/>
     <use xlink:href="#DejaVuSans-67" transform="translate(180.615234 0.015625)"/>
     <use xlink:href="#DejaVuSans-74" transform="translate(244.091797 0.015625)"/>
     <use xlink:href="#DejaVuSans-68" transform="translate(283.300781 0.015625)"/>
     <use xlink:href="#DejaVuSans-73" transform="translate(346.679688 0.015625)"/>
     <use xlink:href="#DejaVuSans-63" transform="translate(398.779297 0.015625)"/>
     <use xlink:href="#DejaVuSans-61" transform="translate(453.759766 0.015625)"/>
     <use xlink:href="#DejaVuSans-6c" transform="translate(515.039062 0.015625)"/>
     <use xlink:href="#DejaVuSans-65" transform="translate(542.822266 0.015625)"/>
     <use xlink:href="#DejaVuSans-20" transform="translate(604.345703 0.015625)"/>
     <use xlink:href="#DejaVuSans-Oblique-2113" transform="translate(636.132812 0.015625)"/>
     <use xlink:href="#DejaVuSans-3d" transform="translate(677.441406 0.015625)"/>
     <use xlink:href="#DejaVuSans-32" transform="translate(761.230469 0.015625)"/>
     <use xlink:href="#DejaVuSans-2c" transform="translate(824.853516 0.015625)"/>
     <use xlink:href="#DejaVuSans-20" transform="translate(856.640625 0.015625)"/>
     <use xlink:href="#DejaVuSans-41" transform="translate(888.427734 0.015625)"/>
     <use xlink:href="#DejaVuSans-6d" transform="translate(956.835938 0.015625)"/>
     <use xlink:href="#DejaVuSans-70" transform="translate(1054.248047 0.015625)"/>
     <use xlink:href="#DejaVuSans-6c" transform="translate(1117.724609 0.015625)"/>
     <use xlink:href="#DejaVuSans-69" transform="translate(1145.507812 0.015625)"/>
     <use xlink:href="#DejaVuSans-74" transform="translate(1173.291016 0.015625)"/>
     <use xlink:href="#DejaVuSans-75" transform="translate(1212.5 0.015625)"/>
     <use xlink:href="#DejaVuSans-64" transform="translate(1275.878906 0.015625)"/>
     <use xlink:href="#DejaVuSans-65" transform="translate(1339.355469 0.015625)"/>
     <use xlink:href="#DejaVuSans-20" transform="translate(1400.878906 0.015625)"/>
     <use xlink:href="#DejaVuSans-Oblique-61" transform="translate(1432.666016 0.015625)"/>
     <use xlink:href="#DejaVuSans-3d" transform="translate(1493.945312 0.015625)"/>
     <use xlink:href="#DejaVuSans-38" transform="translate(1577.734375 0.015625)"/>
     <use xlink:href="#DejaVuSans-2e" transform="translate(1641.357422 0.015625)"/>
     <use xlink:href="#DejaVuSans-30" transform="translate(1673.144531 0.015625)"/>
     <use xlink:href="#DejaVuSans-30" transform="translate(1736.767578 0.015625)"/>
     <use xlink:href="#DejaVuSans-30" transform="translate(1800.390625 0.015625)"/>
    </g>
   </g>
  </g>
 </g>
 <defs>
  <clipPath id="pb546e85a78">
   <rect x="35.304688" y="22.32" width="195.3" height="138.6"/>
  </clipPath>
 </defs>
</svg>
