<?xml version="1.0" encoding="utf-8" standalone="no"?>
<!DOCTYPE svg PUBLIC "-//W3C//DTD SVG 1.1//EN"
  "http://www.w3.org/Graphics/SVG/1.1/DTD/svg11.dtd">
<svg xmlns:xlink="http://www.w3.org/1999/xlink" width="245.692187pt" height="184.798125pt" viewBox="0 0 245.692187 184.798125" xmlns="http://www.w3.org/2000/svg" version="1.1">
 <metadata>
  <rdf:RDF xmlns:dc="http://purl.org/dc/elements/1.1/" xmlns:cc="http://creativecommons.org/ns#" xmlns:rdf="http://www.w3.org/1999/02/22-rdf-syntax-ns#">
   <cc:Work>
    <dc:type rdf:resource="http://purl.org/dc/dcmitype/StillImage"/>
    <dc:date>2022-12-10T17:08:45.286955</dc:date>
    <dc:format>image/svg+xml</dc:format>
    <dc:creator>
     <cc:Agent>
      <dc:title>Matplotlib v3.5.1, https://matplotlib.org/</dc:title>
     </cc:Agent>
    </dc:creator>
   </cc:Work>
  </rdf:RDF>
 </metadata>
 <defs>
  <style type="text/css">*{stroke-linejoin: round; stroke-linecap: butt}</style>
 </defs>
 <g id="figure_1">
  <g id="patch_1">
   <path d="M 0 184.798125 
L 245.692187 184.798125 
L 245.692187 0 
L 0 0 
z
" style="fill: #ffffff"/>
  </g>
  <g id="axes_1">
   <g id="patch_2">
    <path d="M 28.942188 160.92 
L 224.242188 160.92 
L 224.242188 22.32 
L 28.942188 22.32 
z
" style="fill: #ffffff"/>
   </g>
   <g id="matplotlib.axis_1">
    <g id="xtick_1">
     <g id="line2d_1">
      <defs>
       <path id="m2a8948abfc" d="M 0 0 
L 0 3.5 
" style="stroke: #000000; stroke-width: 0.8"/>
      </defs>
      <g>
       <use xlink:href="#m2a8948abfc" x="37.81946" y="160.92" style="stroke: #000000; stroke-width: 0.8"/>
      </g>
     </g>
     <g id="text_1">
      <!-- 0 -->
      <g transform="translate(34.63821 175.518438)scale(0.1 -0.1)">
       <defs>
        <path id="DejaVuSans-30" d="M 2034 4250 
Q 1547 4250 1301 3770 
Q 1056 3291 1056 2328 
Q 1056 1369 1301 889 
Q 1547 409 2034 409 
Q 2525 409 2770 889 
Q 3016 1369 3016 2328 
Q 3016 3291 2770 3770 
Q 2525 4250 2034 4250 
z
M 2034 4750 
Q 2819 4750 3233 4129 
Q 3647 3509 3647 2328 
Q 3647 1150 3233 529 
Q 2819 -91 2034 -91 
Q 1250 -91 836 529 
Q 422 1150 422 2328 
Q 422 3509 836 4129 
Q 1250 4750 2034 4750 
z
" transform="scale(0.015625)"/>
       </defs>
       <use xlink:href="#DejaVuSans-30"/>
      </g>
     </g>
    </g>
    <g id="xtick_2">
     <g id="line2d_2">
      <g>
       <use xlink:href="#m2a8948abfc" x="73.328551" y="160.92" style="stroke: #000000; stroke-width: 0.8"/>
      </g>
     </g>
     <g id="text_2">
      <!-- 5 -->
      <g transform="translate(70.147301 175.518438)scale(0.1 -0.1)">
       <defs>
        <path id="DejaVuSans-35" d="M 691 4666 
L 3169 4666 
L 3169 4134 
L 1269 4134 
L 1269 2991 
Q 1406 3038 1543 3061 
Q 1681 3084 1819 3084 
Q 2600 3084 3056 2656 
Q 3513 2228 3513 1497 
Q 3513 744 3044 326 
Q 2575 -91 1722 -91 
Q 1428 -91 1123 -41 
Q 819 9 494 109 
L 494 744 
Q 775 591 1075 516 
Q 1375 441 1709 441 
Q 2250 441 2565 725 
Q 2881 1009 2881 1497 
Q 2881 1984 2565 2268 
Q 2250 2553 1709 2553 
Q 1456 2553 1204 2497 
Q 953 2441 691 2322 
L 691 4666 
z
" transform="scale(0.015625)"/>
       </defs>
       <use xlink:href="#DejaVuSans-35"/>
      </g>
     </g>
    </g>
    <g id="xtick_3">
     <g id="line2d_3">
      <g>
       <use xlink:href="#m2a8948abfc" x="108.837642" y="160.92" style="stroke: #000000; stroke-width: 0.8"/>
      </g>
     </g>
     <g id="text_3">
      <!-- 10 -->
      <g transform="translate(102.475142 175.518438)scale(0.1 -0.1)">
       <defs>
        <path id="DejaVuSans-31" d="M 794 531 
L 1825 531 
L 1825 4091 
L 703 3866 
L 703 4441 
L 1819 4666 
L 2450 4666 
L 2450 531 
L 3481 531 
L 3481 0 
L 794 0 
L 794 531 
z
" transform="scale(0.015625)"/>
       </defs>
       <use xlink:href="#DejaVuSans-31"/>
       <use xlink:href="#DejaVuSans-30" x="63.623047"/>
      </g>
     </g>
    </g>
    <g id="xtick_4">
     <g id="line2d_4">
      <g>
       <use xlink:href="#m2a8948abfc" x="144.346733" y="160.92" style="stroke: #000000; stroke-width: 0.8"/>
      </g>
     </g>
     <g id="text_4">
      <!-- 15 -->
      <g transform="translate(137.984233 175.518438)scale(0.1 -0.1)">
       <use xlink:href="#DejaVuSans-31"/>
       <use xlink:href="#DejaVuSans-35" x="63.623047"/>
      </g>
     </g>
    </g>
    <g id="xtick_5">
     <g id="line2d_5">
      <g>
       <use xlink:href="#m2a8948abfc" x="179.855824" y="160.92" style="stroke: #000000; stroke-width: 0.8"/>
      </g>
     </g>
     <g id="text_5">
      <!-- 20 -->
      <g transform="translate(173.493324 175.518438)scale(0.1 -0.1)">
       <defs>
        <path id="DejaVuSans-32" d="M 1228 531 
L 3431 531 
L 3431 0 
L 469 0 
L 469 531 
Q 828 903 1448 1529 
Q 2069 2156 2228 2338 
Q 2531 2678 2651 2914 
Q 2772 3150 2772 3378 
Q 2772 3750 2511 3984 
Q 2250 4219 1831 4219 
Q 1534 4219 1204 4116 
Q 875 4013 500 3803 
L 500 4441 
Q 881 4594 1212 4672 
Q 1544 4750 1819 4750 
Q 2544 4750 2975 4387 
Q 3406 4025 3406 3419 
Q 3406 3131 3298 2873 
Q 3191 2616 2906 2266 
Q 2828 2175 2409 1742 
Q 1991 1309 1228 531 
z
" transform="scale(0.015625)"/>
       </defs>
       <use xlink:href="#DejaVuSans-32"/>
       <use xlink:href="#DejaVuSans-30" x="63.623047"/>
      </g>
     </g>
    </g>
    <g id="xtick_6">
     <g id="line2d_6">
      <g>
       <use xlink:href="#m2a8948abfc" x="215.364915" y="160.92" style="stroke: #000000; stroke-width: 0.8"/>
      </g>
     </g>
     <g id="text_6">
      <!-- 25 -->
      <g transform="translate(209.002415 175.518438)scale(0.1 -0.1)">
       <use xlink:href="#DejaVuSans-32"/>
       <use xlink:href="#DejaVuSans-35" x="63.623047"/>
      </g>
     </g>
    </g>
   </g>
   <g id="matplotlib.axis_2">
    <g id="ytick_1">
     <g id="line2d_7">
      <defs>
       <path id="mbf464e87e8" d="M 0 0 
L -3.5 0 
" style="stroke: #000000; stroke-width: 0.8"/>
      </defs>
      <g>
       <use xlink:href="#mbf464e87e8" x="28.942188" y="144.329183" style="stroke: #000000; stroke-width: 0.8"/>
      </g>
     </g>
     <g id="text_7">
      <!-- −2 -->
      <g transform="translate(7.2 148.128401)scale(0.1 -0.1)">
       <defs>
        <path id="DejaVuSans-2212" d="M 678 2272 
L 4684 2272 
L 4684 1741 
L 678 1741 
L 678 2272 
z
" transform="scale(0.015625)"/>
       </defs>
       <use xlink:href="#DejaVuSans-2212"/>
       <use xlink:href="#DejaVuSans-32" x="83.789062"/>
      </g>
     </g>
    </g>
    <g id="ytick_2">
     <g id="line2d_8">
      <g>
       <use xlink:href="#mbf464e87e8" x="28.942188" y="118.390809" style="stroke: #000000; stroke-width: 0.8"/>
      </g>
     </g>
     <g id="text_8">
      <!-- −1 -->
      <g transform="translate(7.2 122.190028)scale(0.1 -0.1)">
       <use xlink:href="#DejaVuSans-2212"/>
       <use xlink:href="#DejaVuSans-31" x="83.789062"/>
      </g>
     </g>
    </g>
    <g id="ytick_3">
     <g id="line2d_9">
      <g>
       <use xlink:href="#mbf464e87e8" x="28.942188" y="92.452435" style="stroke: #000000; stroke-width: 0.8"/>
      </g>
     </g>
     <g id="text_9">
      <!-- 0 -->
      <g transform="translate(15.579688 96.251654)scale(0.1 -0.1)">
       <use xlink:href="#DejaVuSans-30"/>
      </g>
     </g>
    </g>
    <g id="ytick_4">
     <g id="line2d_10">
      <g>
       <use xlink:href="#mbf464e87e8" x="28.942188" y="66.514061" style="stroke: #000000; stroke-width: 0.8"/>
      </g>
     </g>
     <g id="text_10">
      <!-- 1 -->
      <g transform="translate(15.579688 70.31328)scale(0.1 -0.1)">
       <use xlink:href="#DejaVuSans-31"/>
      </g>
     </g>
    </g>
    <g id="ytick_5">
     <g id="line2d_11">
      <g>
       <use xlink:href="#mbf464e87e8" x="28.942188" y="40.575687" style="stroke: #000000; stroke-width: 0.8"/>
      </g>
     </g>
     <g id="text_11">
      <!-- 2 -->
      <g transform="translate(15.579688 44.374906)scale(0.1 -0.1)">
       <use xlink:href="#DejaVuSans-32"/>
      </g>
     </g>
    </g>
   </g>
   <g id="line2d_12">
    <path d="M 37.81946 93.535848 
L 40.310078 101.189729 
L 42.444893 106.982234 
L 44.223905 111.167125 
L 46.002918 114.72485 
L 47.426128 117.115511 
L 48.849338 119.115764 
L 50.272548 120.753986 
L 51.695758 122.071559 
L 53.118968 123.121382 
L 54.897981 124.152897 
L 57.744401 125.48091 
L 60.235019 126.718371 
L 62.014031 127.855403 
L 63.437241 128.995509 
L 64.860451 130.376474 
L 66.639464 132.459141 
L 68.418476 134.916112 
L 70.553292 138.25478 
L 76.601934 148.071891 
L 78.380947 150.425924 
L 79.804157 151.970502 
L 81.227367 153.171293 
L 82.294774 153.834282 
L 83.362182 154.292369 
L 84.42959 154.550798 
L 85.496997 154.62 
L 86.920207 154.44391 
L 88.343417 154.001571 
L 90.12243 153.149367 
L 92.257245 151.815095 
L 95.103665 149.738626 
L 99.729098 146.065861 
L 102.93132 143.269246 
L 105.066135 141.147496 
L 107.20095 138.704558 
L 108.979963 136.359591 
L 110.758976 133.695745 
L 112.893791 130.059911 
L 115.028606 125.964734 
L 117.519223 120.692273 
L 120.721446 113.370286 
L 131.039719 89.367516 
L 133.530337 84.21371 
L 135.665152 80.306535 
L 137.088362 78.080366 
L 138.511572 76.251438 
L 139.578979 75.19383 
L 140.646387 74.447909 
L 141.713794 74.050633 
L 142.425399 73.996389 
L 143.137004 74.121159 
L 143.848609 74.432616 
L 144.560214 74.936966 
L 145.627622 76.064554 
L 146.69503 77.643061 
L 147.762437 79.66888 
L 148.829845 82.126764 
L 150.253055 86.02698 
L 152.032067 91.758972 
L 154.166882 99.528302 
L 159.148118 118.051736 
L 160.571328 122.536296 
L 161.994538 126.31846 
L 163.061945 128.604867 
L 164.129353 130.365606 
L 164.840958 131.230129 
L 165.552563 131.839434 
L 166.264168 132.190267 
L 166.975773 132.2825 
L 167.687378 132.119143 
L 168.398983 131.70625 
L 169.110588 131.052881 
L 170.177995 129.648643 
L 171.245403 127.78179 
L 172.668613 124.682916 
L 174.447626 120.078354 
L 180.852071 102.474831 
L 182.275281 99.450779 
L 183.342689 97.575253 
L 184.410096 96.068711 
L 185.477504 94.946479 
L 186.544911 94.21114 
L 187.256516 93.93163 
L 187.968121 93.814454 
L 188.679726 93.851941 
L 189.747134 94.176974 
L 190.814541 94.789729 
L 191.881949 95.645383 
L 193.305159 97.07903 
L 195.439974 99.610623 
L 199.353802 104.301736 
L 201.132814 106.067608 
L 202.911827 107.479779 
L 204.335037 108.346754 
L 206.114049 109.136076 
L 207.893062 109.674439 
L 215.009112 111.518041 
L 215.364915 111.669585 
L 215.364915 111.669585 
" clip-path="url(#pccdeb807d2)" style="fill: none; stroke: #000000; stroke-opacity: 0.5; stroke-width: 2; stroke-linecap: square"/>
   </g>
   <g id="line2d_13">
    <path d="M 37.81946 94.84984 
L 39.24267 95.012181 
L 40.66588 95.435628 
L 42.08909 96.096582 
L 43.868103 97.215442 
L 45.647116 98.609469 
L 47.781931 100.578721 
L 50.272548 103.20832 
L 53.118968 106.583168 
L 55.965388 110.309714 
L 59.523414 115.369073 
L 65.927859 124.612903 
L 68.062674 127.302311 
L 69.841686 129.23837 
L 71.620699 130.834594 
L 73.043909 131.839887 
L 74.467119 132.592433 
L 75.890329 133.09201 
L 77.313539 133.347643 
L 78.736749 133.376586 
L 80.159959 133.202761 
L 81.938972 132.744314 
L 84.073787 131.921464 
L 86.920207 130.52922 
L 91.54564 127.965309 
L 95.459468 125.610473 
L 97.950085 123.868377 
L 100.0849 122.073305 
L 101.863913 120.27179 
L 103.642925 118.124626 
L 105.421938 115.586828 
L 107.20095 112.641346 
L 109.335766 108.596836 
L 111.826383 103.315254 
L 118.942433 87.767754 
L 120.721446 84.546583 
L 122.144656 82.342378 
L 123.567866 80.519562 
L 124.991076 79.11038 
L 126.058484 78.336746 
L 127.125891 77.809756 
L 128.193299 77.528647 
L 129.260706 77.489042 
L 130.328114 77.683225 
L 131.395521 78.100461 
L 132.462929 78.727271 
L 133.886139 79.861199 
L 135.309349 81.295525 
L 137.088362 83.435307 
L 139.223177 86.371176 
L 147.050832 97.564667 
L 148.829845 99.618408 
L 150.608857 101.344403 
L 152.38787 102.716703 
L 153.81108 103.559839 
L 155.23429 104.190444 
L 157.013302 104.718428 
L 159.148118 105.067017 
L 164.840958 105.773372 
L 166.264168 106.2228 
L 167.687378 106.896497 
L 169.110588 107.840566 
L 170.533798 109.089718 
L 171.957008 110.664769 
L 173.380218 112.57089 
L 175.159231 115.400231 
L 176.938243 118.669994 
L 179.428861 123.803618 
L 186.544911 138.99233 
L 188.679726 142.806699 
L 190.458739 145.516174 
L 192.237751 147.763758 
L 193.660961 149.229324 
L 195.084171 150.413293 
L 196.507382 151.337347 
L 197.930592 152.027859 
L 199.353802 152.512305 
L 201.132814 152.866116 
L 202.911827 152.974813 
L 204.690839 152.858698 
L 206.469852 152.519073 
L 208.248864 151.940774 
L 210.027877 151.097958 
L 211.80689 149.962037 
L 213.585902 148.509892 
L 215.364915 146.730835 
L 215.364915 146.730835 
" clip-path="url(#pccdeb807d2)" style="fill: none; stroke: #000000; stroke-opacity: 0.5; stroke-width: 2; stroke-linecap: square"/>
   </g>
   <g id="line2d_14">
    <path d="M 37.81946 139.161233 
L 38.886868 137.466906 
L 39.954275 135.316129 
L 41.377485 131.817222 
L 42.800695 127.704932 
L 44.579708 121.888588 
L 47.070326 112.901552 
L 56.676993 77.203941 
L 59.523414 67.749606 
L 62.369834 59.078176 
L 64.860451 52.228887 
L 66.995266 46.994205 
L 68.774279 43.137571 
L 70.553292 39.778145 
L 72.332304 36.934165 
L 73.755514 35.028096 
L 75.178724 33.436244 
L 76.601934 32.135909 
L 78.025144 31.097187 
L 79.448354 30.286075 
L 81.227367 29.540065 
L 83.00638 29.037176 
L 84.785392 28.736361 
L 86.920207 28.62 
L 88.69922 28.739085 
L 90.478232 29.087939 
L 91.901442 29.560646 
L 93.324652 30.228267 
L 94.747862 31.106678 
L 96.526875 32.510803 
L 98.305888 34.242387 
L 100.440703 36.688313 
L 103.287123 40.345939 
L 107.556753 45.814475 
L 109.691568 48.178525 
L 111.470581 49.861299 
L 113.249593 51.277073 
L 115.384408 52.67822 
L 118.942433 54.650076 
L 121.433051 56.130287 
L 123.212064 57.405783 
L 124.991076 58.936302 
L 126.770089 60.747233 
L 128.904904 63.266951 
L 131.751324 67.040147 
L 136.020954 72.75068 
L 138.155769 75.210905 
L 139.934782 76.902242 
L 141.357992 77.977955 
L 142.781202 78.791152 
L 144.204412 79.340846 
L 145.627622 79.637646 
L 147.050832 79.701621 
L 148.474042 79.5596 
L 150.253055 79.139554 
L 152.38787 78.362749 
L 155.23429 77.032428 
L 162.35034 73.520284 
L 164.485155 72.766173 
L 166.264168 72.371987 
L 167.687378 72.254317 
L 169.110588 72.344864 
L 170.533798 72.669815 
L 171.957008 73.249606 
L 173.380218 74.097165 
L 174.803428 75.216589 
L 176.226638 76.602478 
L 178.005651 78.685938 
L 179.784663 81.113196 
L 181.919478 84.384722 
L 185.477504 90.335438 
L 189.747134 97.414201 
L 192.237751 101.075956 
L 194.016764 103.341269 
L 195.795776 105.247143 
L 197.218987 106.479013 
L 198.642197 107.426434 
L 200.065407 108.070305 
L 201.132814 108.344272 
L 202.200222 108.433025 
L 203.267629 108.332484 
L 204.335037 108.040229 
L 205.402444 107.555831 
L 206.825654 106.615005 
L 208.248864 105.3496 
L 209.672075 103.783683 
L 211.451087 101.460776 
L 213.585902 98.274659 
L 215.364915 95.445672 
L 215.364915 95.445672 
" clip-path="url(#pccdeb807d2)" style="fill: none; stroke: #000000; stroke-opacity: 0.5; stroke-width: 2; stroke-linecap: square"/>
   </g>
   <g id="line2d_15">
    <path d="M 37.81946 43.385194 
L 38.886868 45.460645 
L 40.310078 48.784785 
L 42.08909 53.663424 
L 44.579708 61.361092 
L 50.272548 79.308246 
L 52.763166 86.266933 
L 55.253783 92.536588 
L 58.456006 99.891462 
L 66.639464 118.345408 
L 71.264897 128.860422 
L 73.399712 133.15561 
L 74.822922 135.62645 
L 76.246132 137.679555 
L 77.313539 138.893609 
L 78.380947 139.791352 
L 79.448354 140.343399 
L 80.159959 140.507034 
L 80.871564 140.500125 
L 81.583169 140.318059 
L 82.294774 139.957576 
L 83.00638 139.416852 
L 84.073787 138.267535 
L 85.141195 136.717801 
L 86.208602 134.781063 
L 87.631812 131.63459 
L 89.055022 127.909676 
L 90.834035 122.581747 
L 93.324652 114.263741 
L 99.017493 94.84307 
L 101.152308 88.542753 
L 102.93132 84.002872 
L 104.35453 80.878772 
L 105.77774 78.204268 
L 107.20095 75.951046 
L 108.624161 74.069886 
L 110.403173 72.14279 
L 112.182186 70.555088 
L 114.672803 68.647886 
L 120.009841 64.917286 
L 122.144656 63.632656 
L 123.567866 62.974751 
L 124.991076 62.564164 
L 126.058484 62.465569 
L 127.125891 62.580514 
L 128.193299 62.93507 
L 129.260706 63.549161 
L 130.328114 64.434886 
L 131.395521 65.595252 
L 132.818731 67.555941 
L 134.241942 69.945151 
L 136.020954 73.410194 
L 142.069597 85.830702 
L 143.492807 87.992122 
L 144.560214 89.217718 
L 145.627622 90.045961 
L 146.339227 90.35674 
L 147.050832 90.463625 
L 147.762437 90.360497 
L 148.474042 90.04419 
L 149.185647 89.514659 
L 149.897252 88.774979 
L 150.96466 87.285991 
L 152.032067 85.373169 
L 153.455277 82.25012 
L 155.23429 77.646426 
L 161.282933 61.207278 
L 162.706143 58.312352 
L 163.77355 56.603954 
L 164.840958 55.341925 
L 165.552563 54.763372 
L 166.264168 54.401025 
L 166.975773 54.256555 
L 167.687378 54.328654 
L 168.398983 54.613103 
L 169.110588 55.102959 
L 170.177995 56.201455 
L 171.245403 57.698645 
L 172.668613 60.225541 
L 174.091823 63.229152 
L 176.226638 68.293937 
L 180.852071 79.428038 
L 182.631083 83.136084 
L 184.410096 86.338002 
L 186.189109 89.016452 
L 187.968121 91.220528 
L 189.747134 93.049994 
L 192.237751 95.231704 
L 196.507382 98.88981 
L 198.997999 101.38079 
L 201.844419 104.603001 
L 206.114049 109.520479 
L 207.893062 111.241747 
L 209.316272 112.339971 
L 210.739482 113.123697 
L 211.80689 113.476735 
L 212.874297 113.614437 
L 213.941705 113.53201 
L 215.009112 113.23284 
L 215.364915 113.086767 
L 215.364915 113.086767 
" clip-path="url(#pccdeb807d2)" style="fill: none; stroke: #000000; stroke-opacity: 0.5; stroke-width: 2; stroke-linecap: square"/>
   </g>
   <g id="line2d_16">
    <path d="M 37.81946 80.240536 
L 38.886868 80.78176 
L 39.954275 81.534622 
L 41.377485 82.866397 
L 42.800695 84.560578 
L 44.223905 86.590527 
L 46.002918 89.537321 
L 48.137733 93.528629 
L 54.897981 106.638154 
L 56.676993 109.422053 
L 58.100204 111.245915 
L 59.523414 112.649403 
L 60.590821 113.401958 
L 61.658229 113.886772 
L 62.725636 114.102115 
L 63.793044 114.053931 
L 64.860451 113.756088 
L 65.927859 113.230429 
L 67.351069 112.227196 
L 69.130081 110.61626 
L 73.755514 106.118396 
L 75.178724 105.12921 
L 76.246132 104.635667 
L 77.313539 104.397743 
L 78.380947 104.444821 
L 79.448354 104.796342 
L 80.515762 105.460794 
L 81.583169 106.435028 
L 82.650577 107.704068 
L 84.073787 109.807186 
L 85.8528 112.960952 
L 89.055022 119.3336 
L 91.189837 123.35824 
L 92.613047 125.631803 
L 93.680455 127.021383 
L 94.747862 128.084343 
L 95.81527 128.779889 
L 96.526875 129.023889 
L 97.23848 129.084359 
L 97.950085 128.957137 
L 98.66169 128.640267 
L 99.373295 128.134039 
L 100.440703 127.025573 
L 101.50811 125.513974 
L 102.575518 123.625858 
L 103.998728 120.584461 
L 105.77774 116.088475 
L 107.912556 109.989464 
L 113.961198 92.227292 
L 115.740211 87.78397 
L 117.519223 83.977392 
L 118.942433 81.438681 
L 120.365644 79.360133 
L 121.788854 77.726249 
L 123.212064 76.501327 
L 124.635274 75.6337 
L 126.058484 75.061182 
L 127.481694 74.717321 
L 129.260706 74.512136 
L 131.751324 74.466259 
L 134.953547 74.634977 
L 137.088362 74.955364 
L 138.511572 75.354985 
L 139.934782 75.986534 
L 141.002189 76.661267 
L 142.069597 77.547385 
L 143.137004 78.678496 
L 144.204412 80.084805 
L 145.271819 81.791232 
L 146.69503 84.563061 
L 148.11824 87.917481 
L 149.54145 91.84066 
L 151.320462 97.4661 
L 153.455277 105.031348 
L 159.148118 125.734124 
L 160.571328 129.992241 
L 161.994538 133.48967 
L 163.061945 135.510833 
L 164.129353 136.949285 
L 164.840958 137.56115 
L 165.552563 137.883213 
L 166.264168 137.908619 
L 166.975773 137.633922 
L 167.687378 137.059103 
L 168.398983 136.187696 
L 169.110588 135.026779 
L 170.177995 132.766596 
L 171.245403 129.929291 
L 172.668613 125.363396 
L 174.447626 118.673295 
L 177.294046 106.753488 
L 180.140466 95.016093 
L 181.919478 88.539183 
L 183.342689 84.093868 
L 184.765899 80.415707 
L 185.833306 78.19363 
L 186.900714 76.437644 
L 187.968121 75.138305 
L 189.035529 74.274085 
L 189.747134 73.92446 
L 190.458739 73.743039 
L 191.526146 73.758643 
L 192.593554 74.078587 
L 193.660961 74.654891 
L 195.084171 75.739002 
L 196.863184 77.449119 
L 200.065407 80.96953 
L 203.267629 84.383761 
L 205.402444 86.348578 
L 207.181457 87.724809 
L 208.96047 88.839271 
L 210.739482 89.685717 
L 212.518495 90.27083 
L 214.297507 90.611297 
L 215.364915 90.707581 
L 215.364915 90.707581 
" clip-path="url(#pccdeb807d2)" style="fill: none; stroke: #000000; stroke-opacity: 0.5; stroke-width: 2; stroke-linecap: square"/>
   </g>
   <g id="patch_3">
    <path d="M 28.942188 160.92 
L 28.942188 22.32 
" style="fill: none; stroke: #000000; stroke-width: 0.8; stroke-linejoin: miter; stroke-linecap: square"/>
   </g>
   <g id="patch_4">
    <path d="M 224.242188 160.92 
L 224.242188 22.32 
" style="fill: none; stroke: #000000; stroke-width: 0.8; stroke-linejoin: miter; stroke-linecap: square"/>
   </g>
   <g id="patch_5">
    <path d="M 28.942188 160.92 
L 224.242188 160.92 
" style="fill: none; stroke: #000000; stroke-width: 0.8; stroke-linejoin: miter; stroke-linecap: square"/>
   </g>
   <g id="patch_6">
    <path d="M 28.942188 22.32 
L 224.242188 22.32 
" style="fill: none; stroke: #000000; stroke-width: 0.8; stroke-linejoin: miter; stroke-linecap: square"/>
   </g>
   <g id="text_12">
    <!-- Lengthscale $\ell$=5.000, Amplitude $a$=1 -->
    <g transform="translate(14.692188 16.32)scale(0.12 -0.12)">
     <defs>
      <path id="DejaVuSans-4c" d="M 628 4666 
L 1259 4666 
L 1259 531 
L 3531 531 
L 3531 0 
L 628 0 
L 628 4666 
z
" transform="scale(0.015625)"/>
      <path id="DejaVuSans-65" d="M 3597 1894 
L 3597 1613 
L 953 1613 
Q 991 1019 1311 708 
Q 1631 397 2203 397 
Q 2534 397 2845 478 
Q 3156 559 3463 722 
L 3463 178 
Q 3153 47 2828 -22 
Q 2503 -91 2169 -91 
Q 1331 -91 842 396 
Q 353 884 353 1716 
Q 353 2575 817 3079 
Q 1281 3584 2069 3584 
Q 2775 3584 3186 3129 
Q 3597 2675 3597 1894 
z
M 3022 2063 
Q 3016 2534 2758 2815 
Q 2500 3097 2075 3097 
Q 1594 3097 1305 2825 
Q 1016 2553 972 2059 
L 3022 2063 
z
" transform="scale(0.015625)"/>
      <path id="DejaVuSans-6e" d="M 3513 2113 
L 3513 0 
L 2938 0 
L 2938 2094 
Q 2938 2591 2744 2837 
Q 2550 3084 2163 3084 
Q 1697 3084 1428 2787 
Q 1159 2491 1159 1978 
L 1159 0 
L 581 0 
L 581 3500 
L 1159 3500 
L 1159 2956 
Q 1366 3272 1645 3428 
Q 1925 3584 2291 3584 
Q 2894 3584 3203 3211 
Q 3513 2838 3513 2113 
z
" transform="scale(0.015625)"/>
      <path id="DejaVuSans-67" d="M 2906 1791 
Q 2906 2416 2648 2759 
Q 2391 3103 1925 3103 
Q 1463 3103 1205 2759 
Q 947 2416 947 1791 
Q 947 1169 1205 825 
Q 1463 481 1925 481 
Q 2391 481 2648 825 
Q 2906 1169 2906 1791 
z
M 3481 434 
Q 3481 -459 3084 -895 
Q 2688 -1331 1869 -1331 
Q 1566 -1331 1297 -1286 
Q 1028 -1241 775 -1147 
L 775 -588 
Q 1028 -725 1275 -790 
Q 1522 -856 1778 -856 
Q 2344 -856 2625 -561 
Q 2906 -266 2906 331 
L 2906 616 
Q 2728 306 2450 153 
Q 2172 0 1784 0 
Q 1141 0 747 490 
Q 353 981 353 1791 
Q 353 2603 747 3093 
Q 1141 3584 1784 3584 
Q 2172 3584 2450 3431 
Q 2728 3278 2906 2969 
L 2906 3500 
L 3481 3500 
L 3481 434 
z
" transform="scale(0.015625)"/>
      <path id="DejaVuSans-74" d="M 1172 4494 
L 1172 3500 
L 2356 3500 
L 2356 3053 
L 1172 3053 
L 1172 1153 
Q 1172 725 1289 603 
Q 1406 481 1766 481 
L 2356 481 
L 2356 0 
L 1766 0 
Q 1100 0 847 248 
Q 594 497 594 1153 
L 594 3053 
L 172 3053 
L 172 3500 
L 594 3500 
L 594 4494 
L 1172 4494 
z
" transform="scale(0.015625)"/>
      <path id="DejaVuSans-68" d="M 3513 2113 
L 3513 0 
L 2938 0 
L 2938 2094 
Q 2938 2591 2744 2837 
Q 2550 3084 2163 3084 
Q 1697 3084 1428 2787 
Q 1159 2491 1159 1978 
L 1159 0 
L 581 0 
L 581 4863 
L 1159 4863 
L 1159 2956 
Q 1366 3272 1645 3428 
Q 1925 3584 2291 3584 
Q 2894 3584 3203 3211 
Q 3513 2838 3513 2113 
z
" transform="scale(0.015625)"/>
      <path id="DejaVuSans-73" d="M 2834 3397 
L 2834 2853 
Q 2591 2978 2328 3040 
Q 2066 3103 1784 3103 
Q 1356 3103 1142 2972 
Q 928 2841 928 2578 
Q 928 2378 1081 2264 
Q 1234 2150 1697 2047 
L 1894 2003 
Q 2506 1872 2764 1633 
Q 3022 1394 3022 966 
Q 3022 478 2636 193 
Q 2250 -91 1575 -91 
Q 1294 -91 989 -36 
Q 684 19 347 128 
L 347 722 
Q 666 556 975 473 
Q 1284 391 1588 391 
Q 1994 391 2212 530 
Q 2431 669 2431 922 
Q 2431 1156 2273 1281 
Q 2116 1406 1581 1522 
L 1381 1569 
Q 847 1681 609 1914 
Q 372 2147 372 2553 
Q 372 3047 722 3315 
Q 1072 3584 1716 3584 
Q 2034 3584 2315 3537 
Q 2597 3491 2834 3397 
z
" transform="scale(0.015625)"/>
      <path id="DejaVuSans-63" d="M 3122 3366 
L 3122 2828 
Q 2878 2963 2633 3030 
Q 2388 3097 2138 3097 
Q 1578 3097 1268 2742 
Q 959 2388 959 1747 
Q 959 1106 1268 751 
Q 1578 397 2138 397 
Q 2388 397 2633 464 
Q 2878 531 3122 666 
L 3122 134 
Q 2881 22 2623 -34 
Q 2366 -91 2075 -91 
Q 1284 -91 818 406 
Q 353 903 353 1747 
Q 353 2603 823 3093 
Q 1294 3584 2113 3584 
Q 2378 3584 2631 3529 
Q 2884 3475 3122 3366 
z
" transform="scale(0.015625)"/>
      <path id="DejaVuSans-61" d="M 2194 1759 
Q 1497 1759 1228 1600 
Q 959 1441 959 1056 
Q 959 750 1161 570 
Q 1363 391 1709 391 
Q 2188 391 2477 730 
Q 2766 1069 2766 1631 
L 2766 1759 
L 2194 1759 
z
M 3341 1997 
L 3341 0 
L 2766 0 
L 2766 531 
Q 2569 213 2275 61 
Q 1981 -91 1556 -91 
Q 1019 -91 701 211 
Q 384 513 384 1019 
Q 384 1609 779 1909 
Q 1175 2209 1959 2209 
L 2766 2209 
L 2766 2266 
Q 2766 2663 2505 2880 
Q 2244 3097 1772 3097 
Q 1472 3097 1187 3025 
Q 903 2953 641 2809 
L 641 3341 
Q 956 3463 1253 3523 
Q 1550 3584 1831 3584 
Q 2591 3584 2966 3190 
Q 3341 2797 3341 1997 
z
" transform="scale(0.015625)"/>
      <path id="DejaVuSans-6c" d="M 603 4863 
L 1178 4863 
L 1178 0 
L 603 0 
L 603 4863 
z
" transform="scale(0.015625)"/>
      <path id="DejaVuSans-20" transform="scale(0.015625)"/>
      <path id="DejaVuSans-Oblique-2113" d="M 950 838 
Q 1078 213 1350 213 
Q 1531 213 1766 572 
L 2181 572 
Q 1994 253 1775 88 
Q 1538 -91 1319 -91 
Q 831 -91 634 344 
L 400 0 
L -88 0 
Q 250 459 500 888 
Q 469 1131 469 1397 
Q 469 1872 566 2347 
Q 931 4131 1256 4497 
Q 1481 4750 1866 4750 
Q 2256 4750 2256 4209 
Q 2253 3966 2197 3675 
Q 1972 2484 950 838 
z
M 947 1656 
Q 1531 2744 1709 3613 
Q 1803 4072 1803 4191 
Q 1803 4406 1725 4406 
Q 1384 4134 1081 2516 
Q 997 2063 947 1656 
z
" transform="scale(0.015625)"/>
      <path id="DejaVuSans-3d" d="M 678 2906 
L 4684 2906 
L 4684 2381 
L 678 2381 
L 678 2906 
z
M 678 1631 
L 4684 1631 
L 4684 1100 
L 678 1100 
L 678 1631 
z
" transform="scale(0.015625)"/>
      <path id="DejaVuSans-2e" d="M 684 794 
L 1344 794 
L 1344 0 
L 684 0 
L 684 794 
z
" transform="scale(0.015625)"/>
      <path id="DejaVuSans-2c" d="M 750 794 
L 1409 794 
L 1409 256 
L 897 -744 
L 494 -744 
L 750 256 
L 750 794 
z
" transform="scale(0.015625)"/>
      <path id="DejaVuSans-41" d="M 2188 4044 
L 1331 1722 
L 3047 1722 
L 2188 4044 
z
M 1831 4666 
L 2547 4666 
L 4325 0 
L 3669 0 
L 3244 1197 
L 1141 1197 
L 716 0 
L 50 0 
L 1831 4666 
z
" transform="scale(0.015625)"/>
      <path id="DejaVuSans-6d" d="M 3328 2828 
Q 3544 3216 3844 3400 
Q 4144 3584 4550 3584 
Q 5097 3584 5394 3201 
Q 5691 2819 5691 2113 
L 5691 0 
L 5113 0 
L 5113 2094 
Q 5113 2597 4934 2840 
Q 4756 3084 4391 3084 
Q 3944 3084 3684 2787 
Q 3425 2491 3425 1978 
L 3425 0 
L 2847 0 
L 2847 2094 
Q 2847 2600 2669 2842 
Q 2491 3084 2119 3084 
Q 1678 3084 1418 2786 
Q 1159 2488 1159 1978 
L 1159 0 
L 581 0 
L 581 3500 
L 1159 3500 
L 1159 2956 
Q 1356 3278 1631 3431 
Q 1906 3584 2284 3584 
Q 2666 3584 2933 3390 
Q 3200 3197 3328 2828 
z
" transform="scale(0.015625)"/>
      <path id="DejaVuSans-70" d="M 1159 525 
L 1159 -1331 
L 581 -1331 
L 581 3500 
L 1159 3500 
L 1159 2969 
Q 1341 3281 1617 3432 
Q 1894 3584 2278 3584 
Q 2916 3584 3314 3078 
Q 3713 2572 3713 1747 
Q 3713 922 3314 415 
Q 2916 -91 2278 -91 
Q 1894 -91 1617 61 
Q 1341 213 1159 525 
z
M 3116 1747 
Q 3116 2381 2855 2742 
Q 2594 3103 2138 3103 
Q 1681 3103 1420 2742 
Q 1159 2381 1159 1747 
Q 1159 1113 1420 752 
Q 1681 391 2138 391 
Q 2594 391 2855 752 
Q 3116 1113 3116 1747 
z
" transform="scale(0.015625)"/>
      <path id="DejaVuSans-69" d="M 603 3500 
L 1178 3500 
L 1178 0 
L 603 0 
L 603 3500 
z
M 603 4863 
L 1178 4863 
L 1178 4134 
L 603 4134 
L 603 4863 
z
" transform="scale(0.015625)"/>
      <path id="DejaVuSans-75" d="M 544 1381 
L 544 3500 
L 1119 3500 
L 1119 1403 
Q 1119 906 1312 657 
Q 1506 409 1894 409 
Q 2359 409 2629 706 
Q 2900 1003 2900 1516 
L 2900 3500 
L 3475 3500 
L 3475 0 
L 2900 0 
L 2900 538 
Q 2691 219 2414 64 
Q 2138 -91 1772 -91 
Q 1169 -91 856 284 
Q 544 659 544 1381 
z
M 1991 3584 
L 1991 3584 
z
" transform="scale(0.015625)"/>
      <path id="DejaVuSans-64" d="M 2906 2969 
L 2906 4863 
L 3481 4863 
L 3481 0 
L 2906 0 
L 2906 525 
Q 2725 213 2448 61 
Q 2172 -91 1784 -91 
Q 1150 -91 751 415 
Q 353 922 353 1747 
Q 353 2572 751 3078 
Q 1150 3584 1784 3584 
Q 2172 3584 2448 3432 
Q 2725 3281 2906 2969 
z
M 947 1747 
Q 947 1113 1208 752 
Q 1469 391 1925 391 
Q 2381 391 2643 752 
Q 2906 1113 2906 1747 
Q 2906 2381 2643 2742 
Q 2381 3103 1925 3103 
Q 1469 3103 1208 2742 
Q 947 2381 947 1747 
z
" transform="scale(0.015625)"/>
      <path id="DejaVuSans-Oblique-61" d="M 3438 1997 
L 3047 0 
L 2472 0 
L 2578 531 
Q 2325 219 2001 64 
Q 1678 -91 1281 -91 
Q 834 -91 548 182 
Q 263 456 263 884 
Q 263 1497 752 1853 
Q 1241 2209 2100 2209 
L 2900 2209 
L 2931 2363 
Q 2938 2388 2941 2417 
Q 2944 2447 2944 2509 
Q 2944 2788 2717 2942 
Q 2491 3097 2081 3097 
Q 1800 3097 1504 3025 
Q 1209 2953 897 2809 
L 997 3341 
Q 1322 3463 1633 3523 
Q 1944 3584 2234 3584 
Q 2853 3584 3176 3315 
Q 3500 3047 3500 2534 
Q 3500 2431 3484 2292 
Q 3469 2153 3438 1997 
z
M 2816 1759 
L 2241 1759 
Q 1534 1759 1195 1570 
Q 856 1381 856 984 
Q 856 709 1029 553 
Q 1203 397 1509 397 
Q 1978 397 2328 733 
Q 2678 1069 2791 1631 
L 2816 1759 
z
" transform="scale(0.015625)"/>
     </defs>
     <use xlink:href="#DejaVuSans-4c" transform="translate(0 0.015625)"/>
     <use xlink:href="#DejaVuSans-65" transform="translate(55.712891 0.015625)"/>
     <use xlink:href="#DejaVuSans-6e" transform="translate(117.236328 0.015625)"/>
     <use xlink:href="#DejaVuSans-67" transform="translate(180.615234 0.015625)"/>
     <use xlink:href="#DejaVuSans-74" transform="translate(244.091797 0.015625)"/>
     <use xlink:href="#DejaVuSans-68" transform="translate(283.300781 0.015625)"/>
     <use xlink:href="#DejaVuSans-73" transform="translate(346.679688 0.015625)"/>
     <use xlink:href="#DejaVuSans-63" transform="translate(398.779297 0.015625)"/>
     <use xlink:href="#DejaVuSans-61" transform="translate(453.759766 0.015625)"/>
     <use xlink:href="#DejaVuSans-6c" transform="translate(515.039062 0.015625)"/>
     <use xlink:href="#DejaVuSans-65" transform="translate(542.822266 0.015625)"/>
     <use xlink:href="#DejaVuSans-20" transform="translate(604.345703 0.015625)"/>
     <use xlink:href="#DejaVuSans-Oblique-2113" transform="translate(636.132812 0.015625)"/>
     <use xlink:href="#DejaVuSans-3d" transform="translate(677.441406 0.015625)"/>
     <use xlink:href="#DejaVuSans-35" transform="translate(761.230469 0.015625)"/>
     <use xlink:href="#DejaVuSans-2e" transform="translate(824.853516 0.015625)"/>
     <use xlink:href="#DejaVuSans-30" transform="translate(856.640625 0.015625)"/>
     <use xlink:href="#DejaVuSans-30" transform="translate(920.263672 0.015625)"/>
     <use xlink:href="#DejaVuSans-30" transform="translate(983.886719 0.015625)"/>
     <use xlink:href="#DejaVuSans-2c" transform="translate(1047.509766 0.015625)"/>
     <use xlink:href="#DejaVuSans-20" transform="translate(1079.296875 0.015625)"/>
     <use xlink:href="#DejaVuSans-41" transform="translate(1111.083984 0.015625)"/>
     <use xlink:href="#DejaVuSans-6d" transform="translate(1179.492188 0.015625)"/>
     <use xlink:href="#DejaVuSans-70" transform="translate(1276.904297 0.015625)"/>
     <use xlink:href="#DejaVuSans-6c" transform="translate(1340.380859 0.015625)"/>
     <use xlink:href="#DejaVuSans-69" transform="translate(1368.164062 0.015625)"/>
     <use xlink:href="#DejaVuSans-74" transform="translate(1395.947266 0.015625)"/>
     <use xlink:href="#DejaVuSans-75" transform="translate(1435.15625 0.015625)"/>
     <use xlink:href="#DejaVuSans-64" transform="translate(1498.535156 0.015625)"/>
     <use xlink:href="#DejaVuSans-65" transform="translate(1562.011719 0.015625)"/>
     <use xlink:href="#DejaVuSans-20" transform="translate(1623.535156 0.015625)"/>
     <use xlink:href="#DejaVuSans-Oblique-61" transform="translate(1655.322266 0.015625)"/>
     <use xlink:href="#DejaVuSans-3d" transform="translate(1716.601562 0.015625)"/>
     <use xlink:href="#DejaVuSans-31" transform="translate(1800.390625 0.015625)"/>
    </g>
   </g>
  </g>
 </g>
 <defs>
  <clipPath id="pccdeb807d2">
   <rect x="28.942188" y="22.32" width="195.3" height="138.6"/>
  </clipPath>
 </defs>
</svg>
