<?xml version="1.0" encoding="utf-8" standalone="no"?>
<!DOCTYPE svg PUBLIC "-//W3C//DTD SVG 1.1//EN"
  "http://www.w3.org/Graphics/SVG/1.1/DTD/svg11.dtd">
<svg xmlns:xlink="http://www.w3.org/1999/xlink" width="245.692187pt" height="184.798125pt" viewBox="0 0 245.692187 184.798125" xmlns="http://www.w3.org/2000/svg" version="1.1">
 <metadata>
  <rdf:RDF xmlns:dc="http://purl.org/dc/elements/1.1/" xmlns:cc="http://creativecommons.org/ns#" xmlns:rdf="http://www.w3.org/1999/02/22-rdf-syntax-ns#">
   <cc:Work>
    <dc:type rdf:resource="http://purl.org/dc/dcmitype/StillImage"/>
    <dc:date>2022-12-10T17:08:44.427683</dc:date>
    <dc:format>image/svg+xml</dc:format>
    <dc:creator>
     <cc:Agent>
      <dc:title>Matplotlib v3.5.1, https://matplotlib.org/</dc:title>
     </cc:Agent>
    </dc:creator>
   </cc:Work>
  </rdf:RDF>
 </metadata>
 <defs>
  <style type="text/css">*{stroke-linejoin: round; stroke-linecap: butt}</style>
 </defs>
 <g id="figure_1">
  <g id="patch_1">
   <path d="M 0 184.798125 
L 245.692187 184.798125 
L 245.692187 0 
L 0 0 
z
" style="fill: #ffffff"/>
  </g>
  <g id="axes_1">
   <g id="patch_2">
    <path d="M 28.942188 160.92 
L 224.242188 160.92 
L 224.242188 22.32 
L 28.942188 22.32 
z
" style="fill: #ffffff"/>
   </g>
   <g id="PathCollection_1">
    <defs>
     <path id="m3211e448e5" d="M 0 3 
C 0.795609 3 1.55874 2.683901 2.12132 2.12132 
C 2.683901 1.55874 3 0.795609 3 0 
C 3 -0.795609 2.683901 -1.55874 2.12132 -2.12132 
C 1.55874 -2.683901 0.795609 -3 0 -3 
C -0.795609 -3 -1.55874 -2.683901 -2.12132 -2.12132 
C -2.683901 -1.55874 -3 -0.795609 -3 0 
C -3 0.795609 -2.683901 1.55874 -2.12132 2.12132 
C -1.55874 2.683901 -0.795609 3 0 3 
z
" style="stroke: #1f77b4"/>
    </defs>
    <g clip-path="url(#pbc9df8b1f1)">
     <use xlink:href="#m3211e448e5" x="37.81946" y="65.56101" style="fill: #1f77b4; stroke: #1f77b4"/>
     <use xlink:href="#m3211e448e5" x="44.921278" y="28.622245" style="fill: #1f77b4; stroke: #1f77b4"/>
     <use xlink:href="#m3211e448e5" x="52.023097" y="50.658585" style="fill: #1f77b4; stroke: #1f77b4"/>
     <use xlink:href="#m3211e448e5" x="59.124915" y="74.563416" style="fill: #1f77b4; stroke: #1f77b4"/>
     <use xlink:href="#m3211e448e5" x="80.430369" y="77.12886" style="fill: #1f77b4; stroke: #1f77b4"/>
     <use xlink:href="#m3211e448e5" x="87.532187" y="72.258039" style="fill: #1f77b4; stroke: #1f77b4"/>
     <use xlink:href="#m3211e448e5" x="94.634006" y="47.770237" style="fill: #1f77b4; stroke: #1f77b4"/>
     <use xlink:href="#m3211e448e5" x="101.735824" y="37.829381" style="fill: #1f77b4; stroke: #1f77b4"/>
     <use xlink:href="#m3211e448e5" x="108.837642" y="57.46475" style="fill: #1f77b4; stroke: #1f77b4"/>
     <use xlink:href="#m3211e448e5" x="151.448551" y="50.38629" style="fill: #1f77b4; stroke: #1f77b4"/>
     <use xlink:href="#m3211e448e5" x="158.550369" y="36.163011" style="fill: #1f77b4; stroke: #1f77b4"/>
     <use xlink:href="#m3211e448e5" x="172.754006" y="95.544312" style="fill: #1f77b4; stroke: #1f77b4"/>
    </g>
   </g>
   <g id="PolyCollection_1">
    <path d="M 37.81946 65.561008 
L 37.81946 65.561013 
L 38.175263 62.083117 
L 38.531065 58.751255 
L 38.886868 55.572419 
L 39.24267 52.553025 
L 39.598473 49.698883 
L 39.954275 47.015172 
L 40.310078 44.506422 
L 40.66588 42.176492 
L 41.021683 40.028562 
L 41.377485 38.065116 
L 41.733288 36.287934 
L 42.08909 34.69809 
L 42.444893 33.295944 
L 42.800695 32.081152 
L 43.156498 31.052663 
L 43.5123 30.208729 
L 43.868103 29.546922 
L 44.223905 29.064138 
L 44.579708 28.756626 
L 44.935511 28.621142 
L 45.291313 28.677864 
L 45.647116 28.892533 
L 46.002918 29.258692 
L 46.358721 29.769429 
L 46.714523 30.417414 
L 47.070326 31.194931 
L 47.426128 32.093921 
L 47.781931 33.106016 
L 48.137733 34.222582 
L 48.493536 35.434762 
L 48.849338 36.733513 
L 49.205141 38.109656 
L 49.560943 39.553911 
L 49.916746 41.056951 
L 50.272548 42.609436 
L 50.628351 44.202064 
L 50.984153 45.825607 
L 51.339956 47.470961 
L 51.695758 49.12918 
L 52.051561 50.793189 
L 52.407363 52.471947 
L 52.763166 54.13776 
L 53.118968 55.782323 
L 53.474771 57.397686 
L 53.830573 58.976291 
L 54.186376 60.511004 
L 54.542178 61.995149 
L 54.897981 63.422532 
L 55.253783 64.787472 
L 55.609586 66.084814 
L 55.965388 67.309959 
L 56.321191 68.458869 
L 56.676993 69.528087 
L 57.032796 70.514742 
L 57.388599 71.416553 
L 57.744401 72.231835 
L 58.100204 72.959492 
L 58.456006 73.599018 
L 58.811809 74.150481 
L 59.167611 74.618572 
L 59.523414 75.032045 
L 59.879216 75.364247 
L 60.235019 75.617176 
L 60.590821 75.793285 
L 60.946624 75.895458 
L 61.302426 75.926982 
L 61.658229 75.891521 
L 62.014031 75.793081 
L 62.369834 75.635984 
L 62.725636 75.424828 
L 63.081439 75.164455 
L 63.437241 74.859915 
L 63.793044 74.516427 
L 64.148846 74.139347 
L 64.504649 73.734119 
L 64.860451 73.30625 
L 65.216254 72.861261 
L 65.572056 72.404654 
L 65.927859 71.941876 
L 66.283661 71.478277 
L 66.639464 71.01908 
L 66.995266 70.569343 
L 67.351069 70.133927 
L 67.706871 69.717464 
L 68.062674 69.324327 
L 68.418476 68.958603 
L 68.774279 68.624067 
L 69.130081 68.324155 
L 69.485884 68.06195 
L 69.841686 67.840155 
L 70.197489 67.661085 
L 70.553292 67.526646 
L 70.909094 67.43833 
L 71.264897 67.397203 
L 71.620699 67.403904 
L 71.976502 67.45864 
L 72.332304 67.561188 
L 72.688107 67.710898 
L 73.043909 67.906699 
L 73.399712 68.147111 
L 73.755514 68.430253 
L 74.111317 68.75386 
L 74.467119 69.115299 
L 74.822922 69.511588 
L 75.178724 69.939422 
L 75.534527 70.395188 
L 75.890329 70.874999 
L 76.246132 71.374718 
L 76.601934 71.889988 
L 76.957737 72.41626 
L 77.313539 72.948829 
L 77.669342 73.482863 
L 78.025144 74.013439 
L 78.380947 74.535573 
L 78.736749 75.044262 
L 79.092552 75.53451 
L 79.448354 76.001367 
L 79.804157 76.439965 
L 80.159959 76.845545 
L 80.515762 77.219332 
L 80.871564 77.5676 
L 81.227367 77.866442 
L 81.583169 78.111886 
L 81.938972 78.300255 
L 82.294774 78.428192 
L 82.650577 78.492686 
L 83.00638 78.49109 
L 83.362182 78.421143 
L 83.717985 78.280977 
L 84.073787 78.069141 
L 84.42959 77.784603 
L 84.785392 77.426761 
L 85.141195 76.995449 
L 85.496997 76.490935 
L 85.8528 75.913925 
L 86.208602 75.265556 
L 86.564405 74.547392 
L 86.920207 73.761415 
L 87.27601 72.910013 
L 87.631812 71.999268 
L 87.987615 71.037192 
L 88.343417 70.018468 
L 88.69922 68.946754 
L 89.055022 67.826044 
L 89.410825 66.660647 
L 89.766627 65.455162 
L 90.12243 64.214452 
L 90.478232 62.943619 
L 90.834035 61.647973 
L 91.189837 60.333006 
L 91.54564 59.004356 
L 91.901442 57.667781 
L 92.257245 56.329126 
L 92.613047 54.994288 
L 92.96885 53.669184 
L 93.324652 52.359721 
L 93.680455 51.071764 
L 94.036257 49.811097 
L 94.39206 48.583402 
L 94.747862 47.397839 
L 95.103665 46.263938 
L 95.459468 45.179048 
L 95.81527 44.147883 
L 96.171073 43.174907 
L 96.526875 42.264311 
L 96.882678 41.419996 
L 97.23848 40.645556 
L 97.594283 39.944265 
L 97.950085 39.319061 
L 98.305888 38.772539 
L 98.66169 38.306938 
L 99.017493 37.92414 
L 99.373295 37.625663 
L 99.729098 37.412659 
L 100.0849 37.285914 
L 100.440703 37.245851 
L 100.796505 37.292535 
L 101.152308 37.425676 
L 101.50811 37.644639 
L 101.863913 37.955324 
L 102.219715 38.362722 
L 102.575518 38.853211 
L 102.93132 39.42452 
L 103.287123 40.074048 
L 103.642925 40.798879 
L 103.998728 41.595797 
L 104.35453 42.461312 
L 104.710333 43.391678 
L 105.066135 44.382918 
L 105.421938 45.430845 
L 105.77774 46.531088 
L 106.133543 47.679119 
L 106.489345 48.870275 
L 106.845148 50.099785 
L 107.20095 51.362799 
L 107.556753 52.65441 
L 107.912556 53.969682 
L 108.268358 55.303676 
L 108.624161 56.651474 
L 108.979963 58.035975 
L 109.335766 59.475373 
L 109.691568 60.927934 
L 110.047371 62.389952 
L 110.403173 63.857833 
L 110.758976 65.328105 
L 111.114778 66.797439 
L 111.470581 68.262648 
L 111.826383 69.720709 
L 112.182186 71.168762 
L 112.537988 72.604124 
L 112.893791 74.024291 
L 113.249593 75.426944 
L 113.605396 76.809951 
L 113.961198 78.171372 
L 114.317001 79.509455 
L 114.672803 80.822636 
L 115.028606 82.109543 
L 115.384408 83.368983 
L 115.740211 84.599946 
L 116.096013 85.801595 
L 116.451816 86.973261 
L 116.807618 88.114437 
L 117.163421 89.224765 
L 117.519223 90.304035 
L 117.875026 91.352167 
L 118.230828 92.369206 
L 118.586631 93.35531 
L 118.942433 94.310738 
L 119.298236 95.235838 
L 119.654038 96.131037 
L 120.009841 96.996827 
L 120.365644 97.833757 
L 120.721446 98.642413 
L 121.077249 99.423416 
L 121.433051 100.1774 
L 121.788854 100.905009 
L 122.144656 101.606881 
L 122.500459 102.283639 
L 122.856261 102.935879 
L 123.212064 103.564162 
L 123.567866 104.169003 
L 123.923669 104.750863 
L 124.279471 105.310142 
L 124.635274 105.847172 
L 124.991076 106.362206 
L 125.346879 106.85542 
L 125.702681 107.326901 
L 126.058484 107.776647 
L 126.414286 108.204564 
L 126.770089 108.610461 
L 127.125891 108.99405 
L 127.481694 109.354948 
L 127.837496 109.692674 
L 128.193299 110.00665 
L 128.549101 110.296207 
L 128.904904 110.560584 
L 129.260706 110.798934 
L 129.616509 111.010327 
L 129.972311 111.193757 
L 130.328114 111.348147 
L 130.683916 111.472356 
L 131.039719 111.565184 
L 131.395521 111.625385 
L 131.751324 111.65167 
L 132.107126 111.64272 
L 132.462929 111.597191 
L 132.818731 111.51373 
L 133.174534 111.390978 
L 133.530337 111.227585 
L 133.886139 111.022218 
L 134.241942 110.773575 
L 134.597744 110.480391 
L 134.953547 110.141451 
L 135.309349 109.755603 
L 135.665152 109.321763 
L 136.020954 108.838932 
L 136.376757 108.3062 
L 136.732559 107.72276 
L 137.088362 107.087917 
L 137.444164 106.401095 
L 137.799967 105.661849 
L 138.155769 104.869872 
L 138.511572 104.024999 
L 138.867374 103.127222 
L 139.223177 102.17669 
L 139.578979 101.173716 
L 139.934782 100.118786 
L 140.290584 99.01256 
L 140.646387 97.855875 
L 141.002189 96.649752 
L 141.357992 95.395395 
L 141.713794 94.094193 
L 142.069597 92.747721 
L 142.425399 91.357741 
L 142.781202 89.926197 
L 143.137004 88.455218 
L 143.492807 86.94711 
L 143.848609 85.404359 
L 144.204412 83.829618 
L 144.560214 82.225711 
L 144.916017 80.595618 
L 145.271819 78.942476 
L 145.627622 77.269564 
L 145.983425 75.580302 
L 146.339227 73.878235 
L 146.69503 72.167028 
L 147.050832 70.450455 
L 147.406635 68.732385 
L 147.762437 67.016772 
L 148.11824 65.307647 
L 148.474042 63.609098 
L 148.829845 61.925263 
L 149.185647 60.260314 
L 149.54145 58.618445 
L 149.897252 57.003854 
L 150.253055 55.420736 
L 150.608857 53.873263 
L 150.96466 52.365572 
L 151.320462 50.90175 
L 151.676265 49.667917 
L 152.032067 48.561785 
L 152.38787 47.478906 
L 152.743672 46.423098 
L 153.099475 45.398186 
L 153.455277 44.407987 
L 153.81108 43.456297 
L 154.166882 42.546875 
L 154.522685 41.683432 
L 154.878487 40.869614 
L 155.23429 40.10899 
L 155.590092 39.405039 
L 155.945895 38.761134 
L 156.301697 38.180532 
L 156.6575 37.666359 
L 157.013302 37.2216 
L 157.369105 36.849086 
L 157.724907 36.551483 
L 158.08071 36.331281 
L 158.436513 36.190785 
L 158.792315 36.291418 
L 159.148118 36.560627 
L 159.50392 36.925294 
L 159.859723 37.384927 
L 160.215525 37.93877 
L 160.571328 38.58581 
L 160.92713 39.324775 
L 161.282933 40.154141 
L 161.638735 41.072132 
L 161.994538 42.076731 
L 162.35034 43.165682 
L 162.706143 44.336498 
L 163.061945 45.58647 
L 163.417748 46.912672 
L 163.77355 48.311977 
L 164.129353 49.781057 
L 164.485155 51.316405 
L 164.840958 52.914337 
L 165.19676 54.571007 
L 165.552563 56.28242 
L 165.908365 58.044446 
L 166.264168 59.852827 
L 166.61997 61.703199 
L 166.975773 63.591098 
L 167.331575 65.511979 
L 167.687378 67.461228 
L 168.04318 69.434176 
L 168.398983 71.426115 
L 168.754785 73.432312 
L 169.110588 75.44802 
L 169.46639 77.468499 
L 169.822193 79.489024 
L 170.177995 81.5049 
L 170.533798 83.511479 
L 170.889601 85.50417 
L 171.245403 87.478452 
L 171.601206 89.429891 
L 171.957008 91.354146 
L 172.312811 93.246984 
L 172.668613 95.104291 
L 173.024416 97.382973 
L 173.380218 99.795523 
L 173.736021 102.196419 
L 174.091823 104.581381 
L 174.447626 106.946202 
L 174.803428 109.286761 
L 175.159231 111.599032 
L 175.515033 113.879096 
L 175.870836 116.123153 
L 176.226638 118.327526 
L 176.582441 120.488674 
L 176.938243 122.6032 
L 177.294046 124.667857 
L 177.649848 126.679556 
L 178.005651 128.635371 
L 178.361453 130.532547 
L 178.717256 132.368505 
L 179.073058 134.140842 
L 179.428861 135.847342 
L 179.784663 137.485972 
L 180.140466 139.054889 
L 180.496268 140.552441 
L 180.852071 141.977165 
L 181.207873 143.327791 
L 181.563676 144.603241 
L 181.919478 145.802628 
L 182.275281 146.925252 
L 182.631083 147.970603 
L 182.986886 148.938353 
L 183.342689 149.828359 
L 183.698491 150.640653 
L 184.054294 151.375442 
L 184.410096 152.033102 
L 184.765899 152.614173 
L 185.121701 153.119355 
L 185.477504 153.5495 
L 185.833306 153.905607 
L 186.189109 154.188816 
L 186.544911 154.400401 
L 186.900714 154.541761 
L 187.256516 154.614416 
L 187.612319 154.62 
L 187.968121 154.560248 
L 188.323924 154.436996 
L 188.679726 154.252165 
L 189.035529 154.007763 
L 189.391331 153.705866 
L 189.747134 153.348622 
L 190.102936 152.938232 
L 190.458739 152.476951 
L 190.814541 151.967075 
L 191.170344 151.410936 
L 191.526146 150.810895 
L 191.881949 150.169333 
L 192.237751 149.488642 
L 192.593554 148.771226 
L 192.949356 148.019486 
L 193.305159 147.235815 
L 193.660961 146.422598 
L 194.016764 145.582197 
L 194.372566 144.716954 
L 194.728369 143.829177 
L 195.084171 142.921144 
L 195.439974 141.995089 
L 195.795776 141.053207 
L 196.151579 140.09764 
L 196.507382 139.130481 
L 196.863184 138.153766 
L 197.218987 137.169473 
L 197.574789 136.179518 
L 197.930592 135.185752 
L 198.286394 134.189959 
L 198.642197 133.193855 
L 198.997999 132.199085 
L 199.353802 131.207222 
L 199.709604 130.219764 
L 200.065407 129.238139 
L 200.421209 128.263696 
L 200.777012 127.297712 
L 201.132814 126.341388 
L 201.488617 125.39585 
L 201.844419 124.462149 
L 202.200222 123.541262 
L 202.556024 122.634093 
L 202.911827 121.741475 
L 203.267629 120.864169 
L 203.623432 120.002867 
L 203.979234 119.158191 
L 204.335037 118.330699 
L 204.690839 117.520883 
L 205.046642 116.729172 
L 205.402444 115.955936 
L 205.758247 115.201484 
L 206.114049 114.46607 
L 206.469852 113.749894 
L 206.825654 113.053103 
L 207.181457 112.375796 
L 207.537259 111.718023 
L 207.893062 111.07979 
L 208.248864 110.461061 
L 208.604667 109.861761 
L 208.96047 109.281776 
L 209.316272 108.720957 
L 209.672075 108.179124 
L 210.027877 107.656065 
L 210.38368 107.151539 
L 210.739482 106.665284 
L 211.095285 106.197009 
L 211.451087 105.746405 
L 211.80689 105.313142 
L 212.162692 104.896875 
L 212.518495 104.497242 
L 212.874297 104.113868 
L 213.2301 103.746367 
L 213.585902 103.394342 
L 213.941705 103.057391 
L 214.297507 102.735102 
L 214.65331 102.427059 
L 215.009112 102.132845 
L 215.364915 101.852037 
L 215.364915 34.703254 
L 215.364915 34.703254 
L 215.009112 34.991975 
L 214.65331 35.294991 
L 214.297507 35.612814 
L 213.941705 35.945959 
L 213.585902 36.294945 
L 213.2301 36.660296 
L 212.874297 37.042537 
L 212.518495 37.442196 
L 212.162692 37.859799 
L 211.80689 38.295873 
L 211.451087 38.750941 
L 211.095285 39.225524 
L 210.739482 39.720136 
L 210.38368 40.235287 
L 210.027877 40.771475 
L 209.672075 41.32919 
L 209.316272 41.908911 
L 208.96047 42.511102 
L 208.604667 43.136212 
L 208.248864 43.784671 
L 207.893062 44.456892 
L 207.537259 45.153263 
L 207.181457 45.874151 
L 206.825654 46.619896 
L 206.469852 47.390807 
L 206.114049 48.187166 
L 205.758247 49.009219 
L 205.402444 49.857176 
L 205.046642 50.731211 
L 204.690839 51.631455 
L 204.335037 52.557996 
L 203.979234 53.510877 
L 203.623432 54.490092 
L 203.267629 55.495584 
L 202.911827 56.527242 
L 202.556024 57.584899 
L 202.200222 58.668329 
L 201.844419 59.777247 
L 201.488617 60.911303 
L 201.132814 62.07008 
L 200.777012 63.253094 
L 200.421209 64.459793 
L 200.065407 65.68955 
L 199.709604 66.941664 
L 199.353802 68.215361 
L 198.997999 69.509786 
L 198.642197 70.824008 
L 198.286394 72.157014 
L 197.930592 73.50771 
L 197.574789 74.874921 
L 197.218987 76.257388 
L 196.863184 77.65377 
L 196.507382 79.062642 
L 196.151579 80.482496 
L 195.795776 81.911742 
L 195.439974 83.348706 
L 195.084171 84.791635 
L 194.728369 86.238695 
L 194.372566 87.687974 
L 194.016764 89.137483 
L 193.660961 90.585162 
L 193.305159 92.028876 
L 192.949356 93.466424 
L 192.593554 94.895537 
L 192.237751 96.31389 
L 191.881949 97.719094 
L 191.526146 99.108712 
L 191.170344 100.480256 
L 190.814541 101.831195 
L 190.458739 103.158963 
L 190.102936 104.460957 
L 189.747134 105.734553 
L 189.391331 106.977103 
L 189.035529 108.185949 
L 188.679726 109.358426 
L 188.323924 110.491869 
L 187.968121 111.583624 
L 187.612319 112.631052 
L 187.256516 113.631539 
L 186.900714 114.582502 
L 186.544911 115.481401 
L 186.189109 116.325743 
L 185.833306 117.113095 
L 185.477504 117.841087 
L 185.121701 118.507427 
L 184.765899 119.109905 
L 184.410096 119.646403 
L 184.054294 120.114906 
L 183.698491 120.513507 
L 183.342689 120.840414 
L 182.986886 121.093966 
L 182.631083 121.272633 
L 182.275281 121.375028 
L 181.919478 121.399912 
L 181.563676 121.346204 
L 181.207873 121.212986 
L 180.852071 120.999511 
L 180.496268 120.705209 
L 180.140466 120.329689 
L 179.784663 119.87275 
L 179.428861 119.334382 
L 179.073058 118.714772 
L 178.717256 118.014306 
L 178.361453 117.233574 
L 178.005651 116.37337 
L 177.649848 115.434695 
L 177.294046 114.41876 
L 176.938243 113.326982 
L 176.582441 112.16099 
L 176.226638 110.922618 
L 175.870836 109.613905 
L 175.515033 108.237095 
L 175.159231 106.794632 
L 174.803428 105.289157 
L 174.447626 103.7235 
L 174.091823 102.10068 
L 173.736021 100.423895 
L 173.380218 98.696517 
L 173.024416 96.922083 
L 172.668613 94.963114 
L 172.312811 92.540338 
L 171.957008 90.119079 
L 171.601206 87.703792 
L 171.245403 85.298946 
L 170.889601 82.909011 
L 170.533798 80.538439 
L 170.177995 78.191659 
L 169.822193 75.873056 
L 169.46639 73.586963 
L 169.110588 71.337645 
L 168.754785 69.129285 
L 168.398983 66.965975 
L 168.04318 64.8517 
L 167.687378 62.790326 
L 167.331575 60.785589 
L 166.975773 58.84108 
L 166.61997 56.96024 
L 166.264168 55.146342 
L 165.908365 53.402484 
L 165.552563 51.731582 
L 165.19676 50.136354 
L 164.840958 48.619318 
L 164.485155 47.18278 
L 164.129353 45.828829 
L 163.77355 44.55933 
L 163.417748 43.375918 
L 163.061945 42.279994 
L 162.706143 41.272719 
L 162.35034 40.355014 
L 161.994538 39.527556 
L 161.638735 38.790775 
L 161.282933 38.144857 
L 160.92713 37.589742 
L 160.571328 37.125125 
L 160.215525 36.75046 
L 159.859723 36.464961 
L 159.50392 36.267608 
L 159.148118 36.157148 
L 158.792315 36.132105 
L 158.436513 36.117899 
L 158.08071 36.040037 
L 157.724907 36.05754 
L 157.369105 36.169857 
L 157.013302 36.37618 
L 156.6575 36.675449 
L 156.301697 37.066356 
L 155.945895 37.547352 
L 155.590092 38.116651 
L 155.23429 38.772239 
L 154.878487 39.511882 
L 154.522685 40.333134 
L 154.166882 41.233347 
L 153.81108 42.209681 
L 153.455277 43.259115 
L 153.099475 44.378457 
L 152.743672 45.564358 
L 152.38787 46.813324 
L 152.032067 48.121727 
L 151.676265 49.48582 
L 151.320462 50.793505 
L 150.96466 51.934783 
L 150.608857 53.088037 
L 150.253055 54.249608 
L 149.897252 55.415915 
L 149.54145 56.583459 
L 149.185647 57.748841 
L 148.829845 58.908769 
L 148.474042 60.060071 
L 148.11824 61.199705 
L 147.762437 62.324769 
L 147.406635 63.432507 
L 147.050832 64.520322 
L 146.69503 65.585779 
L 146.339227 66.626615 
L 145.983425 67.640742 
L 145.627622 68.626254 
L 145.271819 69.58143 
L 144.916017 70.504739 
L 144.560214 71.39484 
L 144.204412 72.250584 
L 143.848609 73.071019 
L 143.492807 73.855383 
L 143.137004 74.603106 
L 142.781202 75.313809 
L 142.425399 75.987301 
L 142.069597 76.623572 
L 141.713794 77.222794 
L 141.357992 77.785309 
L 141.002189 78.311629 
L 140.646387 78.802424 
L 140.290584 79.258517 
L 139.934782 79.680877 
L 139.578979 80.070605 
L 139.223177 80.428929 
L 138.867374 80.757191 
L 138.511572 81.056839 
L 138.155769 81.329412 
L 137.799967 81.576531 
L 137.444164 81.799886 
L 137.088362 82.001224 
L 136.732559 82.182335 
L 136.376757 82.345043 
L 136.020954 82.491188 
L 135.665152 82.622615 
L 135.309349 82.741164 
L 134.953547 82.848652 
L 134.597744 82.946864 
L 134.241942 83.037538 
L 133.886139 83.122354 
L 133.530337 83.202924 
L 133.174534 83.280775 
L 132.818731 83.357342 
L 132.462929 83.433957 
L 132.107126 83.511839 
L 131.751324 83.592081 
L 131.395521 83.675649 
L 131.039719 83.763367 
L 130.683916 83.855911 
L 130.328114 83.953806 
L 129.972311 84.05742 
L 129.616509 84.166956 
L 129.260706 84.282452 
L 128.904904 84.40378 
L 128.549101 84.530638 
L 128.193299 84.662557 
L 127.837496 84.798899 
L 127.481694 84.938858 
L 127.125891 85.081463 
L 126.770089 85.225585 
L 126.414286 85.369938 
L 126.058484 85.513089 
L 125.702681 85.653463 
L 125.346879 85.789351 
L 124.991076 85.918922 
L 124.635274 86.040231 
L 124.279471 86.151231 
L 123.923669 86.249787 
L 123.567866 86.333685 
L 123.212064 86.40065 
L 122.856261 86.448356 
L 122.500459 86.474446 
L 122.144656 86.476546 
L 121.788854 86.452277 
L 121.433051 86.399279 
L 121.077249 86.315221 
L 120.721446 86.197823 
L 120.365644 86.044869 
L 120.009841 85.854227 
L 119.654038 85.623867 
L 119.298236 85.351872 
L 118.942433 85.036463 
L 118.586631 84.676007 
L 118.230828 84.269039 
L 117.875026 83.814274 
L 117.519223 83.310619 
L 117.163421 82.757192 
L 116.807618 82.153329 
L 116.451816 81.4986 
L 116.096013 80.792817 
L 115.740211 80.036042 
L 115.384408 79.228598 
L 115.028606 78.371073 
L 114.672803 77.464326 
L 114.317001 76.509492 
L 113.961198 75.507981 
L 113.605396 74.461481 
L 113.249593 73.371956 
L 112.893791 72.241644 
L 112.537988 71.073051 
L 112.182186 69.868947 
L 111.826383 68.632355 
L 111.470581 67.366546 
L 111.114778 66.075024 
L 110.758976 64.761516 
L 110.403173 63.429955 
L 110.047371 62.084466 
L 109.691568 60.729351 
L 109.335766 59.369067 
L 108.979963 58.008205 
L 108.624161 56.613541 
L 108.268358 55.211952 
L 107.912556 53.835155 
L 107.556753 52.487137 
L 107.20095 51.171915 
L 106.845148 49.893511 
L 106.489345 48.655932 
L 106.133543 47.463151 
L 105.77774 46.319086 
L 105.421938 45.227574 
L 105.066135 44.192354 
L 104.710333 43.217044 
L 104.35453 42.305119 
L 103.998728 41.459888 
L 103.642925 40.684474 
L 103.287123 39.981795 
L 102.93132 39.354542 
L 102.575518 38.80516 
L 102.219715 38.33583 
L 101.863913 37.948455 
L 101.50811 37.632934 
L 101.152308 37.397108 
L 100.796505 37.249029 
L 100.440703 37.18949 
L 100.0849 37.218895 
L 99.729098 37.337245 
L 99.373295 37.544141 
L 99.017493 37.838776 
L 98.66169 38.219942 
L 98.305888 38.686028 
L 97.950085 39.235029 
L 97.594283 39.86455 
L 97.23848 40.571821 
L 96.882678 41.353705 
L 96.526875 42.206713 
L 96.171073 43.127024 
L 95.81527 44.110498 
L 95.459468 45.152701 
L 95.103665 46.248927 
L 94.747862 47.394221 
L 94.39206 48.575809 
L 94.036257 49.792698 
L 93.680455 51.04318 
L 93.324652 52.321773 
L 92.96885 53.622872 
L 92.613047 54.940772 
L 92.257245 56.269706 
L 91.901442 57.603869 
L 91.54564 58.937452 
L 91.189837 60.26467 
L 90.834035 61.5798 
L 90.478232 62.877206 
L 90.12243 64.151374 
L 89.766627 65.396941 
L 89.410825 66.608728 
L 89.055022 67.781765 
L 88.69922 68.911322 
L 88.343417 69.992936 
L 87.987615 71.022436 
L 87.631812 71.995968 
L 87.27601 72.901393 
L 86.920207 73.740638 
L 86.564405 74.514464 
L 86.208602 75.220734 
L 85.8528 75.857722 
L 85.496997 76.424127 
L 85.141195 76.919071 
L 84.785392 77.342108 
L 84.42959 77.693221 
L 84.073787 77.972821 
L 83.717985 78.181739 
L 83.362182 78.321225 
L 83.00638 78.392928 
L 82.650577 78.398893 
L 82.294774 78.341538 
L 81.938972 78.223639 
L 81.583169 78.048311 
L 81.227367 77.818986 
L 80.871564 77.539385 
L 80.515762 77.213496 
L 80.159959 76.825883 
L 79.804157 76.391736 
L 79.448354 75.921583 
L 79.092552 75.420297 
L 78.736749 74.892893 
L 78.380947 74.344496 
L 78.025144 73.780306 
L 77.669342 73.205563 
L 77.313539 72.625508 
L 76.957737 72.045347 
L 76.601934 71.470218 
L 76.246132 70.90515 
L 75.890329 70.355031 
L 75.534527 69.824573 
L 75.178724 69.318275 
L 74.822922 68.840395 
L 74.467119 68.394918 
L 74.111317 67.985525 
L 73.755514 67.615566 
L 73.399712 67.288037 
L 73.043909 67.005557 
L 72.688107 66.770344 
L 72.332304 66.584202 
L 71.976502 66.448501 
L 71.620699 66.364171 
L 71.264897 66.331688 
L 70.909094 66.351068 
L 70.553292 66.421866 
L 70.197489 66.543177 
L 69.841686 66.713636 
L 69.485884 66.931426 
L 69.130081 67.194288 
L 68.774279 67.499534 
L 68.418476 67.844061 
L 68.062674 68.224371 
L 67.706871 68.636593 
L 67.351069 69.076507 
L 66.995266 69.539569 
L 66.639464 70.020943 
L 66.283661 70.51553 
L 65.927859 71.018005 
L 65.572056 71.522849 
L 65.216254 72.024388 
L 64.860451 72.516832 
L 64.504649 72.994313 
L 64.148846 73.450928 
L 63.793044 73.880779 
L 63.437241 74.278014 
L 63.081439 74.636871 
L 62.725636 74.951718 
L 62.369834 75.217096 
L 62.014031 75.427759 
L 61.658229 75.578713 
L 61.302426 75.665259 
L 60.946624 75.683025 
L 60.590821 75.628003 
L 60.235019 75.496586 
L 59.879216 75.285597 
L 59.523414 74.992318 
L 59.167611 74.614519 
L 58.811809 74.122306 
L 58.456006 73.542222 
L 58.100204 72.877807 
L 57.744401 72.129076 
L 57.388599 71.296581 
L 57.032796 70.381421 
L 56.676993 69.385246 
L 56.321191 68.310258 
L 55.965388 67.159214 
L 55.609586 65.935418 
L 55.253783 64.642713 
L 54.897981 63.285475 
L 54.542178 61.868599 
L 54.186376 60.397478 
L 53.830573 58.877989 
L 53.474771 57.316471 
L 53.118968 55.719696 
L 52.763166 54.094847 
L 52.407363 52.449486 
L 52.051561 50.791522 
L 51.695758 49.110109 
L 51.339956 47.431607 
L 50.984153 45.766819 
L 50.628351 44.12507 
L 50.272548 42.515832 
L 49.916746 40.948678 
L 49.560943 39.433233 
L 49.205141 37.979126 
L 48.849338 36.595945 
L 48.493536 35.293188 
L 48.137733 34.080212 
L 47.781931 32.966191 
L 47.426128 31.960064 
L 47.070326 31.070495 
L 46.714523 30.305822 
L 46.358721 29.674022 
L 46.002918 29.182662 
L 45.647116 28.838865 
L 45.291313 28.64927 
L 44.935511 28.62 
L 44.579708 28.728341 
L 44.223905 29.004918 
L 43.868103 29.455788 
L 43.5123 30.085299 
L 43.156498 30.897208 
L 42.800695 31.894662 
L 42.444893 33.080183 
L 42.08909 34.455649 
L 41.733288 36.02229 
L 41.377485 37.780672 
L 41.021683 39.730697 
L 40.66588 41.871599 
L 40.310078 44.201942 
L 39.954275 46.719629 
L 39.598473 49.421904 
L 39.24267 52.305363 
L 38.886868 55.365964 
L 38.531065 58.599047 
L 38.175263 61.999346 
L 37.81946 65.561008 
z
" clip-path="url(#pbc9df8b1f1)" style="fill: #ff7f0e; fill-opacity: 0.25"/>
   </g>
   <g id="matplotlib.axis_1">
    <g id="xtick_1">
     <g id="line2d_1">
      <defs>
       <path id="m68332c7835" d="M 0 0 
L 0 3.5 
" style="stroke: #000000; stroke-width: 0.8"/>
      </defs>
      <g>
       <use xlink:href="#m68332c7835" x="37.81946" y="160.92" style="stroke: #000000; stroke-width: 0.8"/>
      </g>
     </g>
     <g id="text_1">
      <!-- 0 -->
      <g transform="translate(34.63821 175.518438)scale(0.1 -0.1)">
       <defs>
        <path id="DejaVuSans-30" d="M 2034 4250 
Q 1547 4250 1301 3770 
Q 1056 3291 1056 2328 
Q 1056 1369 1301 889 
Q 1547 409 2034 409 
Q 2525 409 2770 889 
Q 3016 1369 3016 2328 
Q 3016 3291 2770 3770 
Q 2525 4250 2034 4250 
z
M 2034 4750 
Q 2819 4750 3233 4129 
Q 3647 3509 3647 2328 
Q 3647 1150 3233 529 
Q 2819 -91 2034 -91 
Q 1250 -91 836 529 
Q 422 1150 422 2328 
Q 422 3509 836 4129 
Q 1250 4750 2034 4750 
z
" transform="scale(0.015625)"/>
       </defs>
       <use xlink:href="#DejaVuSans-30"/>
      </g>
     </g>
    </g>
    <g id="xtick_2">
     <g id="line2d_2">
      <g>
       <use xlink:href="#m68332c7835" x="73.328551" y="160.92" style="stroke: #000000; stroke-width: 0.8"/>
      </g>
     </g>
     <g id="text_2">
      <!-- 5 -->
      <g transform="translate(70.147301 175.518438)scale(0.1 -0.1)">
       <defs>
        <path id="DejaVuSans-35" d="M 691 4666 
L 3169 4666 
L 3169 4134 
L 1269 4134 
L 1269 2991 
Q 1406 3038 1543 3061 
Q 1681 3084 1819 3084 
Q 2600 3084 3056 2656 
Q 3513 2228 3513 1497 
Q 3513 744 3044 326 
Q 2575 -91 1722 -91 
Q 1428 -91 1123 -41 
Q 819 9 494 109 
L 494 744 
Q 775 591 1075 516 
Q 1375 441 1709 441 
Q 2250 441 2565 725 
Q 2881 1009 2881 1497 
Q 2881 1984 2565 2268 
Q 2250 2553 1709 2553 
Q 1456 2553 1204 2497 
Q 953 2441 691 2322 
L 691 4666 
z
" transform="scale(0.015625)"/>
       </defs>
       <use xlink:href="#DejaVuSans-35"/>
      </g>
     </g>
    </g>
    <g id="xtick_3">
     <g id="line2d_3">
      <g>
       <use xlink:href="#m68332c7835" x="108.837642" y="160.92" style="stroke: #000000; stroke-width: 0.8"/>
      </g>
     </g>
     <g id="text_3">
      <!-- 10 -->
      <g transform="translate(102.475142 175.518438)scale(0.1 -0.1)">
       <defs>
        <path id="DejaVuSans-31" d="M 794 531 
L 1825 531 
L 1825 4091 
L 703 3866 
L 703 4441 
L 1819 4666 
L 2450 4666 
L 2450 531 
L 3481 531 
L 3481 0 
L 794 0 
L 794 531 
z
" transform="scale(0.015625)"/>
       </defs>
       <use xlink:href="#DejaVuSans-31"/>
       <use xlink:href="#DejaVuSans-30" x="63.623047"/>
      </g>
     </g>
    </g>
    <g id="xtick_4">
     <g id="line2d_4">
      <g>
       <use xlink:href="#m68332c7835" x="144.346733" y="160.92" style="stroke: #000000; stroke-width: 0.8"/>
      </g>
     </g>
     <g id="text_4">
      <!-- 15 -->
      <g transform="translate(137.984233 175.518438)scale(0.1 -0.1)">
       <use xlink:href="#DejaVuSans-31"/>
       <use xlink:href="#DejaVuSans-35" x="63.623047"/>
      </g>
     </g>
    </g>
    <g id="xtick_5">
     <g id="line2d_5">
      <g>
       <use xlink:href="#m68332c7835" x="179.855824" y="160.92" style="stroke: #000000; stroke-width: 0.8"/>
      </g>
     </g>
     <g id="text_5">
      <!-- 20 -->
      <g transform="translate(173.493324 175.518438)scale(0.1 -0.1)">
       <defs>
        <path id="DejaVuSans-32" d="M 1228 531 
L 3431 531 
L 3431 0 
L 469 0 
L 469 531 
Q 828 903 1448 1529 
Q 2069 2156 2228 2338 
Q 2531 2678 2651 2914 
Q 2772 3150 2772 3378 
Q 2772 3750 2511 3984 
Q 2250 4219 1831 4219 
Q 1534 4219 1204 4116 
Q 875 4013 500 3803 
L 500 4441 
Q 881 4594 1212 4672 
Q 1544 4750 1819 4750 
Q 2544 4750 2975 4387 
Q 3406 4025 3406 3419 
Q 3406 3131 3298 2873 
Q 3191 2616 2906 2266 
Q 2828 2175 2409 1742 
Q 1991 1309 1228 531 
z
" transform="scale(0.015625)"/>
       </defs>
       <use xlink:href="#DejaVuSans-32"/>
       <use xlink:href="#DejaVuSans-30" x="63.623047"/>
      </g>
     </g>
    </g>
    <g id="xtick_6">
     <g id="line2d_6">
      <g>
       <use xlink:href="#m68332c7835" x="215.364915" y="160.92" style="stroke: #000000; stroke-width: 0.8"/>
      </g>
     </g>
     <g id="text_6">
      <!-- 25 -->
      <g transform="translate(209.002415 175.518438)scale(0.1 -0.1)">
       <use xlink:href="#DejaVuSans-32"/>
       <use xlink:href="#DejaVuSans-35" x="63.623047"/>
      </g>
     </g>
    </g>
   </g>
   <g id="matplotlib.axis_2">
    <g id="ytick_1">
     <g id="line2d_7">
      <defs>
       <path id="mb484963367" d="M 0 0 
L -3.5 0 
" style="stroke: #000000; stroke-width: 0.8"/>
      </defs>
      <g>
       <use xlink:href="#mb484963367" x="28.942188" y="130.672855" style="stroke: #000000; stroke-width: 0.8"/>
      </g>
     </g>
     <g id="text_7">
      <!-- −4 -->
      <g transform="translate(7.2 134.472074)scale(0.1 -0.1)">
       <defs>
        <path id="DejaVuSans-2212" d="M 678 2272 
L 4684 2272 
L 4684 1741 
L 678 1741 
L 678 2272 
z
" transform="scale(0.015625)"/>
        <path id="DejaVuSans-34" d="M 2419 4116 
L 825 1625 
L 2419 1625 
L 2419 4116 
z
M 2253 4666 
L 3047 4666 
L 3047 1625 
L 3713 1625 
L 3713 1100 
L 3047 1100 
L 3047 0 
L 2419 0 
L 2419 1100 
L 313 1100 
L 313 1709 
L 2253 4666 
z
" transform="scale(0.015625)"/>
       </defs>
       <use xlink:href="#DejaVuSans-2212"/>
       <use xlink:href="#DejaVuSans-34" x="83.789062"/>
      </g>
     </g>
    </g>
    <g id="ytick_2">
     <g id="line2d_8">
      <g>
       <use xlink:href="#mb484963367" x="28.942188" y="97.066384" style="stroke: #000000; stroke-width: 0.8"/>
      </g>
     </g>
     <g id="text_8">
      <!-- −2 -->
      <g transform="translate(7.2 100.865603)scale(0.1 -0.1)">
       <use xlink:href="#DejaVuSans-2212"/>
       <use xlink:href="#DejaVuSans-32" x="83.789062"/>
      </g>
     </g>
    </g>
    <g id="ytick_3">
     <g id="line2d_9">
      <g>
       <use xlink:href="#mb484963367" x="28.942188" y="63.459912" style="stroke: #000000; stroke-width: 0.8"/>
      </g>
     </g>
     <g id="text_9">
      <!-- 0 -->
      <g transform="translate(15.579688 67.259131)scale(0.1 -0.1)">
       <use xlink:href="#DejaVuSans-30"/>
      </g>
     </g>
    </g>
    <g id="ytick_4">
     <g id="line2d_10">
      <g>
       <use xlink:href="#mb484963367" x="28.942188" y="29.853441" style="stroke: #000000; stroke-width: 0.8"/>
      </g>
     </g>
     <g id="text_10">
      <!-- 2 -->
      <g transform="translate(15.579688 33.65266)scale(0.1 -0.1)">
       <use xlink:href="#DejaVuSans-32"/>
      </g>
     </g>
    </g>
   </g>
   <g id="line2d_11">
    <path d="M 37.81946 65.56101 
L 39.24267 52.429194 
L 40.310078 44.354182 
L 41.377485 37.922894 
L 42.08909 34.576869 
L 42.800695 31.987907 
L 43.5123 30.147014 
L 44.223905 29.034528 
L 44.579708 28.742483 
L 44.935511 28.620571 
L 45.291313 28.663567 
L 45.647116 28.865699 
L 46.358721 29.721726 
L 47.070326 31.132713 
L 47.781931 33.036103 
L 48.849338 36.664729 
L 50.272548 42.562634 
L 55.253783 64.715092 
L 56.321191 68.384564 
L 57.388599 71.356567 
L 58.456006 73.57062 
L 59.167611 74.616546 
L 59.879216 75.324922 
L 60.590821 75.710644 
L 61.302426 75.796121 
L 62.014031 75.61042 
L 62.725636 75.188273 
L 63.793044 74.198603 
L 65.216254 72.442824 
L 68.062674 68.774349 
L 69.130081 67.759222 
L 70.197489 67.102131 
L 70.909094 66.894699 
L 71.620699 66.884038 
L 72.332304 67.072695 
L 73.043909 67.456128 
L 74.111317 68.369692 
L 75.178724 69.628848 
L 76.601934 71.680103 
L 79.448354 75.961475 
L 80.515762 77.216414 
L 81.583169 78.080099 
L 82.294774 78.384865 
L 83.00638 78.442009 
L 83.717985 78.231358 
L 84.42959 77.738912 
L 85.141195 76.95726 
L 85.8528 75.885824 
L 86.920207 73.751026 
L 87.987615 71.029814 
L 89.410825 66.634688 
L 91.189837 60.298838 
L 94.747862 47.39603 
L 96.171073 43.150965 
L 97.23848 40.608689 
L 98.305888 38.729284 
L 99.017493 37.881458 
L 99.729098 37.374952 
L 100.440703 37.217671 
L 101.152308 37.411392 
L 101.863913 37.95189 
L 102.575518 38.829185 
L 103.287123 40.027922 
L 104.35453 42.383216 
L 105.421938 45.329209 
L 106.845148 49.996648 
L 108.979963 58.02209 
L 113.249593 74.39945 
L 115.028606 80.240308 
L 116.451816 84.235931 
L 117.875026 87.58322 
L 119.298236 90.293855 
L 120.721446 92.420118 
L 122.144656 94.041714 
L 123.567866 95.251344 
L 124.991076 96.140564 
L 126.414286 96.787251 
L 128.193299 97.334603 
L 129.972311 97.625588 
L 131.395521 97.650517 
L 132.818731 97.435536 
L 133.886139 97.072286 
L 134.953547 96.495052 
L 136.020954 95.66506 
L 137.088362 94.54457 
L 138.155769 93.099642 
L 139.223177 91.302809 
L 140.290584 89.135539 
L 141.713794 85.658493 
L 143.137004 81.529162 
L 144.916017 75.550179 
L 147.050832 67.485388 
L 151.676265 49.576868 
L 153.099475 44.888321 
L 154.522685 41.008283 
L 155.590092 38.760845 
L 156.301697 37.623444 
L 157.013302 36.79889 
L 157.724907 36.304512 
L 158.436513 36.154342 
L 159.148118 36.358888 
L 159.859723 36.924944 
L 160.571328 37.855468 
L 161.282933 39.149499 
L 162.35034 41.760348 
L 163.417748 45.144295 
L 164.485155 49.249593 
L 165.908365 55.723465 
L 167.687378 65.125777 
L 170.177995 79.84828 
L 174.447626 105.334851 
L 176.226638 114.625072 
L 177.649848 121.057125 
L 179.073058 126.427807 
L 180.140466 129.692289 
L 181.207873 132.270388 
L 182.275281 134.15014 
L 182.986886 135.01616 
L 183.698491 135.57708 
L 184.410096 135.839753 
L 185.121701 135.813391 
L 185.833306 135.509351 
L 186.544911 134.940901 
L 187.256516 134.122978 
L 188.323924 132.464432 
L 189.391331 130.341485 
L 190.814541 126.899135 
L 192.593554 121.833382 
L 195.084171 113.856389 
L 200.777012 95.275403 
L 202.911827 89.134359 
L 204.690839 84.576169 
L 206.469852 80.570351 
L 208.248864 77.122866 
L 210.027877 74.21377 
L 211.80689 71.804507 
L 213.585902 69.844644 
L 215.364915 68.277646 
L 215.364915 68.277646 
" clip-path="url(#pbc9df8b1f1)" style="fill: none; stroke: #1f77b4; stroke-width: 2; stroke-linecap: square"/>
   </g>
   <g id="line2d_12">
    <path d="M 37.81946 65.561012 
L 39.24267 52.514025 
L 40.310078 44.458581 
L 41.377485 38.020402 
L 42.444893 33.261922 
L 43.156498 31.028063 
L 43.868103 29.532437 
L 44.579708 28.752103 
L 44.935511 28.620961 
L 45.291313 28.673267 
L 45.647116 28.883873 
L 46.358721 29.753917 
L 47.070326 31.174526 
L 47.781931 33.082881 
L 48.849338 36.71042 
L 50.272548 42.593389 
L 55.609586 66.056784 
L 56.676993 69.500785 
L 57.744401 72.211826 
L 58.456006 73.58782 
L 59.167611 74.61777 
L 59.879216 75.348381 
L 60.590821 75.759543 
L 61.302426 75.872934 
L 62.014031 75.716781 
L 62.725636 75.324922 
L 63.793044 74.380038 
L 65.216254 72.678038 
L 68.062674 69.074677 
L 69.130081 68.064655 
L 70.197489 67.401517 
L 70.909094 67.184177 
L 71.620699 67.159338 
L 72.332304 67.330047 
L 73.043909 67.692367 
L 74.111317 68.569822 
L 75.178724 69.789752 
L 76.601934 71.788219 
L 79.448354 75.981904 
L 80.515762 77.217915 
L 81.583169 78.096405 
L 82.294774 78.407122 
L 83.00638 78.467265 
L 83.717985 78.256953 
L 84.42959 77.762546 
L 85.141195 76.977079 
L 85.8528 75.900465 
L 86.920207 73.756475 
L 87.987615 71.033703 
L 89.410825 66.64854 
L 91.189837 60.317354 
L 94.747862 47.397044 
L 96.171073 43.16458 
L 97.23848 40.629875 
L 98.305888 38.754399 
L 99.017493 37.906411 
L 99.729098 37.397142 
L 100.440703 37.234357 
L 101.152308 37.419901 
L 101.863913 37.953949 
L 102.575518 38.84367 
L 103.287123 40.055878 
L 104.35453 42.430893 
L 105.421938 45.391651 
L 106.845148 50.060461 
L 108.979963 58.030735 
L 113.961198 77.667292 
L 115.740211 83.725176 
L 117.519223 88.938898 
L 118.942433 92.466952 
L 120.365644 95.439889 
L 121.788854 97.899994 
L 123.212064 99.902717 
L 124.635274 101.505078 
L 126.058484 102.755414 
L 127.481694 103.685359 
L 128.904904 104.304622 
L 129.972311 104.557499 
L 131.039719 104.613496 
L 132.107126 104.451638 
L 133.174534 104.045982 
L 134.241942 103.367368 
L 135.309349 102.385549 
L 136.376757 101.071479 
L 137.444164 99.399687 
L 138.511572 97.350642 
L 139.934782 94.013448 
L 141.357992 89.987979 
L 142.781202 85.313603 
L 144.560214 78.685184 
L 147.050832 68.411689 
L 150.96466 52.204355 
L 152.38787 47.221463 
L 153.81108 42.957322 
L 154.878487 40.311576 
L 155.945895 38.248526 
L 156.6575 37.240077 
L 157.369105 36.551364 
L 158.08071 36.201176 
L 158.792315 36.218871 
L 159.50392 36.619928 
L 160.215525 37.376126 
L 160.92713 38.486903 
L 161.638735 39.948359 
L 162.706143 42.78151 
L 163.77355 46.349433 
L 165.19676 52.157545 
L 166.61997 59.018153 
L 168.398983 68.776403 
L 170.889601 83.85966 
L 173.736021 100.994532 
L 175.515033 109.904537 
L 176.938243 115.883411 
L 178.005651 119.579542 
L 179.073058 122.543431 
L 180.140466 124.746037 
L 180.852071 125.786286 
L 181.563676 126.485933 
L 182.275281 126.850678 
L 182.986886 126.889558 
L 183.698491 126.61465 
L 184.410096 126.040777 
L 185.121701 125.185135 
L 186.189109 123.415947 
L 187.256516 121.128195 
L 188.679726 117.405752 
L 190.458739 111.943168 
L 193.305159 102.207953 
L 196.863184 90.162166 
L 198.642197 84.824819 
L 200.421209 80.223145 
L 201.844419 77.172841 
L 202.911827 75.290122 
L 203.979234 73.77213 
L 205.046642 72.627666 
L 206.114049 71.858818 
L 207.181457 71.460753 
L 207.893062 71.395739 
L 208.604667 71.485002 
L 209.672075 71.892932 
L 210.739482 72.60349 
L 211.80689 73.580838 
L 213.2301 75.22506 
L 215.009112 77.6636 
L 215.364915 78.182416 
L 215.364915 78.182416 
" clip-path="url(#pbc9df8b1f1)" style="fill: none; stroke: #808080; stroke-opacity: 0.25; stroke-width: 1.5; stroke-linecap: square"/>
   </g>
   <g id="line2d_13">
    <path d="M 37.81946 65.561007 
L 39.24267 52.399832 
L 40.310078 44.315979 
L 41.377485 37.885223 
L 42.08909 34.543629 
L 42.800695 31.961465 
L 43.5123 30.128935 
L 44.223905 29.025577 
L 44.579708 28.73814 
L 44.935511 28.620393 
L 45.291313 28.659042 
L 45.647116 28.857083 
L 46.358721 29.705968 
L 47.070326 31.111582 
L 47.781931 33.011714 
L 48.849338 36.639785 
L 50.272548 42.544815 
L 55.253783 64.683104 
L 56.321191 68.350789 
L 57.388599 71.328558 
L 58.456006 73.557013 
L 59.167611 74.615563 
L 59.879216 75.305461 
L 60.590821 75.669095 
L 61.302426 75.729311 
L 62.014031 75.515758 
L 62.725636 75.063885 
L 63.793044 74.027903 
L 65.216254 72.211907 
L 68.062674 68.455014 
L 69.130081 67.425237 
L 70.197489 66.765842 
L 70.909094 66.563867 
L 71.620699 66.564095 
L 72.332304 66.768717 
L 73.043909 67.172682 
L 74.111317 68.124116 
L 75.178724 69.42718 
L 76.601934 71.541005 
L 79.448354 75.933978 
L 80.515762 77.214367 
L 81.583169 78.05754 
L 82.294774 78.353827 
L 83.00638 78.406522 
L 83.717985 78.195147 
L 84.42959 77.705261 
L 85.141195 76.928874 
L 85.8528 75.864744 
L 86.920207 73.743128 
L 87.987615 71.024125 
L 89.410825 66.614303 
L 91.189837 60.271388 
L 94.747862 47.394513 
L 96.171073 43.130449 
L 97.23848 40.576636 
L 98.305888 38.691129 
L 99.017493 37.843444 
L 99.729098 37.341045 
L 100.440703 37.192081 
L 101.152308 37.398298 
L 101.863913 37.948702 
L 102.575518 38.806697 
L 103.287123 39.984323 
L 104.35453 42.308285 
L 105.421938 45.230221 
L 106.845148 49.894167 
L 108.624161 56.613188 
L 111.470581 67.340275 
L 113.249593 73.286516 
L 114.672803 77.292881 
L 115.740211 79.771928 
L 116.807618 81.769599 
L 117.875026 83.282928 
L 118.942433 84.330213 
L 120.009841 84.948537 
L 121.077249 85.190476 
L 122.144656 85.120218 
L 123.212064 84.809268 
L 124.635274 84.148623 
L 128.904904 81.965625 
L 130.328114 81.531788 
L 131.751324 81.307952 
L 133.530337 81.257437 
L 136.376757 81.23739 
L 137.444164 81.055877 
L 138.511572 80.676704 
L 139.578979 80.036278 
L 140.646387 79.07834 
L 141.713794 77.757879 
L 142.781202 76.04458 
L 143.848609 73.925613 
L 145.271819 70.483766 
L 146.69503 66.407739 
L 148.474042 60.635546 
L 153.81108 42.559189 
L 154.878487 39.925183 
L 155.945895 37.945901 
L 156.6575 37.016541 
L 157.369105 36.414368 
L 158.08071 36.149434 
L 158.792315 36.19441 
L 159.50392 36.534877 
L 160.215525 37.251297 
L 160.92713 38.346804 
L 161.638735 39.819588 
L 162.706143 42.720075 
L 163.77355 46.41015 
L 164.840958 50.823942 
L 166.264168 57.682758 
L 168.04318 67.458845 
L 171.601206 88.777151 
L 176.582441 117.82027 
L 178.361453 126.487003 
L 179.784663 132.32987 
L 180.852071 135.998957 
L 181.919478 139.02125 
L 182.986886 141.379975 
L 184.054294 143.07206 
L 184.765899 143.834115 
L 185.477504 144.30987 
L 186.189109 144.507336 
L 186.900714 144.436431 
L 187.612319 144.108794 
L 188.323924 143.537528 
L 189.035529 142.736962 
L 190.102936 141.139913 
L 191.170344 139.116231 
L 192.593554 135.852505 
L 194.372566 131.054145 
L 196.507382 124.57672 
L 205.402444 96.703757 
L 207.537259 91.126915 
L 209.316272 87.049402 
L 211.095285 83.537639 
L 212.518495 81.150162 
L 213.941705 79.137729 
L 215.364915 77.489601 
L 215.364915 77.489601 
" clip-path="url(#pbc9df8b1f1)" style="fill: none; stroke: #808080; stroke-opacity: 0.25; stroke-width: 1.5; stroke-linecap: square"/>
   </g>
   <g id="line2d_14">
    <path d="M 37.81946 65.561026 
L 39.24267 52.470747 
L 40.310078 44.405839 
L 41.377485 37.971753 
L 42.08909 34.618885 
L 42.800695 32.020527 
L 43.5123 30.168812 
L 44.223905 29.045094 
L 44.579708 28.74756 
L 44.935511 28.620764 
L 45.291313 28.66873 
L 45.647116 28.875443 
L 46.358721 29.739237 
L 47.070326 31.15579 
L 47.781931 33.062301 
L 48.849338 36.690903 
L 50.272548 42.580804 
L 55.609586 66.041309 
L 56.676993 69.486893 
L 57.744401 72.202491 
L 58.456006 73.582905 
L 59.167611 74.617417 
L 59.879216 75.34219 
L 60.590821 75.747239 
L 61.302426 75.854521 
L 62.014031 75.692557 
L 62.725636 75.295428 
L 63.793044 74.344104 
L 65.216254 72.636958 
L 68.062674 69.035673 
L 69.130081 68.029783 
L 70.197489 67.371796 
L 70.909094 67.158163 
L 71.620699 67.137056 
L 72.332304 67.311387 
L 73.043909 67.677094 
L 74.111317 68.559015 
L 75.178724 69.782542 
L 76.601934 71.784424 
L 79.448354 75.981386 
L 80.515762 77.217881 
L 81.583169 78.095969 
L 82.294774 78.406473 
L 83.00638 78.466447 
L 83.717985 78.25602 
L 84.42959 77.761566 
L 85.141195 76.976145 
L 85.8528 75.899676 
L 86.920207 73.756123 
L 87.987615 71.033401 
L 89.410825 66.647181 
L 91.189837 60.315016 
L 94.747862 47.396851 
L 96.171073 43.161597 
L 97.23848 40.624772 
L 98.305888 38.747798 
L 99.017493 37.899482 
L 99.729098 37.390647 
L 100.440703 37.229226 
L 101.152308 37.417159 
L 101.863913 37.953251 
L 102.575518 38.838567 
L 103.287123 40.045616 
L 104.35453 42.412339 
L 105.421938 45.365988 
L 106.845148 50.0324 
L 108.979963 58.02657 
L 113.605396 75.951677 
L 115.384408 81.812592 
L 116.807618 85.824439 
L 118.230828 89.19204 
L 119.654038 91.927549 
L 121.077249 94.081205 
L 122.500459 95.728884 
L 123.923669 96.958501 
L 125.346879 97.856617 
L 126.770089 98.496519 
L 128.193299 98.9287 
L 129.616509 99.174596 
L 131.039719 99.223984 
L 132.462929 99.036171 
L 133.530337 98.700472 
L 134.597744 98.159358 
L 135.665152 97.374547 
L 136.732559 96.30718 
L 137.799967 94.920728 
L 138.867374 93.18389 
L 139.934782 91.073377 
L 141.357992 87.657807 
L 142.781202 83.562188 
L 144.560214 77.569616 
L 146.69503 69.388366 
L 151.676265 49.594668 
L 153.099475 44.993909 
L 154.522685 41.15574 
L 155.590092 38.906844 
L 156.6575 37.287135 
L 157.369105 36.590881 
L 158.08071 36.221292 
L 158.436513 36.163347 
L 159.148118 36.409691 
L 159.859723 37.042858 
L 160.571328 38.045851 
L 161.282933 39.415536 
L 162.35034 42.140648 
L 163.417748 45.632222 
L 164.485155 49.829758 
L 165.908365 56.387817 
L 167.687378 65.806996 
L 170.533798 82.465902 
L 175.870836 113.814235 
L 177.649848 122.649552 
L 179.073058 128.550658 
L 180.140466 132.201312 
L 181.207873 135.141988 
L 182.275281 137.349499 
L 182.986886 138.409919 
L 183.698491 139.143298 
L 184.410096 139.554861 
L 185.121701 139.652859 
L 185.833306 139.448421 
L 186.544911 138.955377 
L 187.256516 138.190063 
L 188.323924 136.57283 
L 189.391331 134.456314 
L 190.814541 130.99523 
L 192.593554 125.928849 
L 198.997999 106.840455 
L 200.421209 103.510952 
L 201.844419 100.787406 
L 202.911827 99.183709 
L 203.979234 97.974946 
L 205.046642 97.167175 
L 205.758247 96.850216 
L 206.469852 96.707162 
L 207.181457 96.733388 
L 207.893062 96.922809 
L 208.96047 97.496385 
L 210.027877 98.390091 
L 211.095285 99.568389 
L 212.518495 101.511906 
L 214.297507 104.387978 
L 215.364915 106.263594 
L 215.364915 106.263594 
" clip-path="url(#pbc9df8b1f1)" style="fill: none; stroke: #808080; stroke-opacity: 0.25; stroke-width: 1.5; stroke-linecap: square"/>
   </g>
   <g id="line2d_15">
    <path d="M 37.81946 65.560997 
L 39.24267 52.410255 
L 40.310078 44.329726 
L 41.377485 37.898743 
L 42.08909 34.555446 
L 42.800695 31.970719 
L 43.5123 30.135132 
L 44.223905 29.028568 
L 44.579708 28.739569 
L 44.935511 28.620453 
L 45.291313 28.660488 
L 45.647116 28.859781 
L 46.358721 29.710706 
L 47.070326 31.117655 
L 47.781931 33.018382 
L 48.849338 36.646047 
L 50.272548 42.548724 
L 55.253783 64.686368 
L 56.321191 68.353402 
L 57.388599 71.330049 
L 58.456006 73.557415 
L 59.167611 74.615577 
L 59.879216 75.305469 
L 60.590821 75.668529 
L 61.302426 75.727497 
L 62.014031 75.511962 
L 62.725636 75.057361 
L 63.793044 74.015997 
L 65.216254 72.191031 
L 68.062674 68.415812 
L 69.130081 67.381256 
L 70.197489 66.719165 
L 70.909094 66.516721 
L 71.620699 66.517568 
L 72.332304 66.723879 
L 73.043909 67.130509 
L 74.111317 68.087481 
L 75.178724 69.397371 
L 76.601934 71.521077 
L 79.448354 75.930527 
L 80.515762 77.21414 
L 81.583169 78.055201 
L 82.294774 78.350864 
L 83.00638 78.403448 
L 83.717985 78.192353 
L 84.42959 77.703 
L 85.141195 76.927272 
L 85.8528 75.863789 
L 86.920207 73.742911 
L 87.987615 71.024074 
L 89.410825 66.614665 
L 91.189837 60.272853 
L 94.747862 47.394704 
L 96.171073 43.133798 
L 97.23848 40.582678 
L 98.305888 38.699295 
L 99.017493 37.852233 
L 99.729098 37.349466 
L 100.440703 37.198879 
L 101.152308 37.401998 
L 101.863913 37.949664 
L 102.575518 38.813854 
L 103.287123 39.998954 
L 104.35453 42.335369 
L 105.421938 45.268542 
L 106.845148 49.937305 
L 108.624161 56.622115 
L 112.182186 70.199398 
L 113.961198 76.222509 
L 115.384408 80.385262 
L 116.807618 83.883324 
L 118.230828 86.705082 
L 119.298236 88.399721 
L 120.365644 89.76672 
L 121.433051 90.845955 
L 122.856261 91.914544 
L 124.279471 92.657558 
L 126.058484 93.271948 
L 128.193299 93.716517 
L 130.328114 93.915416 
L 132.107126 93.83721 
L 133.530337 93.529303 
L 134.597744 93.100666 
L 135.665152 92.459449 
L 136.732559 91.56702 
L 137.799967 90.387743 
L 138.867374 88.89147 
L 139.934782 87.055841 
L 141.357992 84.06028 
L 142.781202 80.442353 
L 144.204412 76.244175 
L 145.983425 70.312387 
L 148.829845 59.879588 
L 152.38787 47.014939 
L 153.81108 42.578161 
L 154.878487 39.905991 
L 155.945895 37.893481 
L 156.6575 36.954776 
L 157.369105 36.359177 
L 158.08071 36.120327 
L 159.148118 36.266633 
L 159.859723 36.712081 
L 160.571328 37.513697 
L 161.282933 38.674412 
L 161.994538 40.193442 
L 163.061945 43.132901 
L 164.129353 46.836516 
L 165.19676 51.254993 
L 166.61997 58.141316 
L 168.398983 68.061149 
L 170.889601 83.53608 
L 173.380218 98.958879 
L 175.159231 107.934778 
L 176.582441 114.131787 
L 178.005651 119.273622 
L 179.073058 122.368354 
L 180.140466 124.778774 
L 180.852071 126.000139 
L 181.563676 126.914122 
L 182.275281 127.525246 
L 182.986886 127.841029 
L 183.698491 127.871763 
L 184.410096 127.630256 
L 185.121701 127.131547 
L 185.833306 126.392592 
L 186.900714 124.874592 
L 187.968121 122.925429 
L 189.391331 119.778662 
L 191.170344 115.202605 
L 194.016764 107.115335 
L 197.930592 96.023474 
L 200.421209 89.586008 
L 202.911827 83.794319 
L 205.046642 79.352122 
L 207.181457 75.392991 
L 208.96047 72.485652 
L 210.739482 69.980021 
L 212.162692 68.306653 
L 213.585902 66.967873 
L 214.65331 66.205757 
L 215.364915 65.820788 
L 215.364915 65.820788 
" clip-path="url(#pbc9df8b1f1)" style="fill: none; stroke: #808080; stroke-opacity: 0.25; stroke-width: 1.5; stroke-linecap: square"/>
   </g>
   <g id="line2d_16">
    <path d="M 37.81946 65.561014 
L 39.24267 52.431968 
L 40.310078 44.353912 
L 41.377485 37.919322 
L 42.08909 34.571991 
L 42.800695 31.982778 
L 43.5123 30.142732 
L 44.223905 29.032057 
L 44.579708 28.741208 
L 44.935511 28.620511 
L 45.291313 28.66208 
L 45.647116 28.862733 
L 46.358721 29.715836 
L 47.070326 31.124244 
L 47.781931 33.025731 
L 48.849338 36.653297 
L 50.272548 42.553792 
L 55.253783 64.696291 
L 56.321191 68.364247 
L 57.388599 71.339369 
L 58.456006 73.562113 
L 59.167611 74.615922 
L 59.879216 75.312498 
L 60.590821 75.683875 
L 61.302426 75.752712 
L 62.014031 75.548431 
L 62.725636 75.106227 
L 63.793044 74.084905 
L 65.216254 72.287285 
L 68.062674 68.555645 
L 69.130081 67.529483 
L 70.197489 66.870027 
L 70.909094 66.665985 
L 71.620699 66.662582 
L 72.332304 66.862132 
L 73.043909 67.259732 
L 74.111317 68.199617 
L 75.178724 69.489399 
L 76.601934 71.584289 
L 79.448354 75.942797 
L 80.515762 77.215036 
L 81.583169 78.065022 
L 82.294774 78.364259 
L 83.00638 78.418616 
L 83.717985 78.207671 
L 84.42959 77.717079 
L 85.141195 76.939005 
L 85.8528 75.872397 
L 86.920207 73.746072 
L 87.987615 71.026312 
L 89.410825 66.622433 
L 91.189837 60.282892 
L 94.747862 47.39521 
L 96.171073 43.140356 
L 97.23848 40.592591 
L 98.305888 38.710694 
L 99.017493 37.863319 
L 99.729098 37.359113 
L 100.440703 37.205976 
L 101.152308 37.405538 
L 101.863913 37.950505 
L 102.575518 38.8196 
L 103.287123 40.00977 
L 104.35453 42.353128 
L 105.421938 45.290908 
L 106.845148 49.958949 
L 108.624161 56.625846 
L 112.537988 71.593317 
L 114.317001 77.549502 
L 115.740211 81.642981 
L 117.163421 85.069172 
L 118.586631 87.825117 
L 119.654038 89.478528 
L 120.721446 90.813848 
L 121.788854 91.872836 
L 123.212064 92.934912 
L 124.635274 93.697641 
L 126.414286 94.377062 
L 128.904904 95.040966 
L 131.039719 95.402803 
L 132.462929 95.476569 
L 133.886139 95.32609 
L 134.953547 95.004586 
L 136.020954 94.451258 
L 137.088362 93.617903 
L 138.155769 92.45932 
L 139.223177 90.936519 
L 140.290584 89.019837 
L 141.357992 86.691705 
L 142.781202 82.9444 
L 144.204412 78.499878 
L 145.983425 72.110646 
L 148.474042 62.181963 
L 151.320462 50.862809 
L 152.743672 46.132911 
L 154.166882 42.131922 
L 155.23429 39.708786 
L 156.301697 37.865276 
L 157.013302 36.991576 
L 157.724907 36.422407 
L 158.436513 36.172511 
L 158.792315 36.252319 
L 159.50392 36.770715 
L 160.215525 37.671586 
L 160.92713 38.951959 
L 161.638735 40.604097 
L 162.706143 43.751011 
L 163.77355 47.644951 
L 165.19676 53.856209 
L 166.975773 62.913125 
L 169.46639 76.996193 
L 174.091823 104.334023 
L 176.582441 119.671913 
L 178.361453 129.182558 
L 179.784663 135.60039 
L 180.852071 139.6099 
L 181.919478 142.873498 
L 182.986886 145.357516 
L 183.698491 146.571251 
L 184.410096 147.429405 
L 185.121701 147.933969 
L 185.833306 148.089887 
L 186.544911 147.904909 
L 187.256516 147.38937 
L 187.968121 146.55598 
L 188.679726 145.419562 
L 189.747134 143.18371 
L 190.814541 140.366626 
L 192.237751 135.825268 
L 194.016764 129.128728 
L 196.151579 120.043777 
L 200.421209 100.483904 
L 203.623432 86.26274 
L 206.114049 76.170062 
L 208.248864 68.425606 
L 210.027877 62.695029 
L 211.80689 57.665667 
L 213.585902 53.362495 
L 215.009112 50.450473 
L 215.364915 49.79616 
L 215.364915 49.79616 
" clip-path="url(#pbc9df8b1f1)" style="fill: none; stroke: #808080; stroke-opacity: 0.25; stroke-width: 1.5; stroke-linecap: square"/>
   </g>
   <g id="patch_3">
    <path d="M 28.942188 160.92 
L 28.942188 22.32 
" style="fill: none; stroke: #000000; stroke-width: 0.8; stroke-linejoin: miter; stroke-linecap: square"/>
   </g>
   <g id="patch_4">
    <path d="M 224.242188 160.92 
L 224.242188 22.32 
" style="fill: none; stroke: #000000; stroke-width: 0.8; stroke-linejoin: miter; stroke-linecap: square"/>
   </g>
   <g id="patch_5">
    <path d="M 28.942188 160.92 
L 224.242188 160.92 
" style="fill: none; stroke: #000000; stroke-width: 0.8; stroke-linejoin: miter; stroke-linecap: square"/>
   </g>
   <g id="patch_6">
    <path d="M 28.942188 22.32 
L 224.242188 22.32 
" style="fill: none; stroke: #000000; stroke-width: 0.8; stroke-linejoin: miter; stroke-linecap: square"/>
   </g>
   <g id="text_11">
    <!-- Lengthscale $\ell$=5.000, Amplitude $a$=1 -->
    <g transform="translate(14.692188 16.32)scale(0.12 -0.12)">
     <defs>
      <path id="DejaVuSans-4c" d="M 628 4666 
L 1259 4666 
L 1259 531 
L 3531 531 
L 3531 0 
L 628 0 
L 628 4666 
z
" transform="scale(0.015625)"/>
      <path id="DejaVuSans-65" d="M 3597 1894 
L 3597 1613 
L 953 1613 
Q 991 1019 1311 708 
Q 1631 397 2203 397 
Q 2534 397 2845 478 
Q 3156 559 3463 722 
L 3463 178 
Q 3153 47 2828 -22 
Q 2503 -91 2169 -91 
Q 1331 -91 842 396 
Q 353 884 353 1716 
Q 353 2575 817 3079 
Q 1281 3584 2069 3584 
Q 2775 3584 3186 3129 
Q 3597 2675 3597 1894 
z
M 3022 2063 
Q 3016 2534 2758 2815 
Q 2500 3097 2075 3097 
Q 1594 3097 1305 2825 
Q 1016 2553 972 2059 
L 3022 2063 
z
" transform="scale(0.015625)"/>
      <path id="DejaVuSans-6e" d="M 3513 2113 
L 3513 0 
L 2938 0 
L 2938 2094 
Q 2938 2591 2744 2837 
Q 2550 3084 2163 3084 
Q 1697 3084 1428 2787 
Q 1159 2491 1159 1978 
L 1159 0 
L 581 0 
L 581 3500 
L 1159 3500 
L 1159 2956 
Q 1366 3272 1645 3428 
Q 1925 3584 2291 3584 
Q 2894 3584 3203 3211 
Q 3513 2838 3513 2113 
z
" transform="scale(0.015625)"/>
      <path id="DejaVuSans-67" d="M 2906 1791 
Q 2906 2416 2648 2759 
Q 2391 3103 1925 3103 
Q 1463 3103 1205 2759 
Q 947 2416 947 1791 
Q 947 1169 1205 825 
Q 1463 481 1925 481 
Q 2391 481 2648 825 
Q 2906 1169 2906 1791 
z
M 3481 434 
Q 3481 -459 3084 -895 
Q 2688 -1331 1869 -1331 
Q 1566 -1331 1297 -1286 
Q 1028 -1241 775 -1147 
L 775 -588 
Q 1028 -725 1275 -790 
Q 1522 -856 1778 -856 
Q 2344 -856 2625 -561 
Q 2906 -266 2906 331 
L 2906 616 
Q 2728 306 2450 153 
Q 2172 0 1784 0 
Q 1141 0 747 490 
Q 353 981 353 1791 
Q 353 2603 747 3093 
Q 1141 3584 1784 3584 
Q 2172 3584 2450 3431 
Q 2728 3278 2906 2969 
L 2906 3500 
L 3481 3500 
L 3481 434 
z
" transform="scale(0.015625)"/>
      <path id="DejaVuSans-74" d="M 1172 4494 
L 1172 3500 
L 2356 3500 
L 2356 3053 
L 1172 3053 
L 1172 1153 
Q 1172 725 1289 603 
Q 1406 481 1766 481 
L 2356 481 
L 2356 0 
L 1766 0 
Q 1100 0 847 248 
Q 594 497 594 1153 
L 594 3053 
L 172 3053 
L 172 3500 
L 594 3500 
L 594 4494 
L 1172 4494 
z
" transform="scale(0.015625)"/>
      <path id="DejaVuSans-68" d="M 3513 2113 
L 3513 0 
L 2938 0 
L 2938 2094 
Q 2938 2591 2744 2837 
Q 2550 3084 2163 3084 
Q 1697 3084 1428 2787 
Q 1159 2491 1159 1978 
L 1159 0 
L 581 0 
L 581 4863 
L 1159 4863 
L 1159 2956 
Q 1366 3272 1645 3428 
Q 1925 3584 2291 3584 
Q 2894 3584 3203 3211 
Q 3513 2838 3513 2113 
z
" transform="scale(0.015625)"/>
      <path id="DejaVuSans-73" d="M 2834 3397 
L 2834 2853 
Q 2591 2978 2328 3040 
Q 2066 3103 1784 3103 
Q 1356 3103 1142 2972 
Q 928 2841 928 2578 
Q 928 2378 1081 2264 
Q 1234 2150 1697 2047 
L 1894 2003 
Q 2506 1872 2764 1633 
Q 3022 1394 3022 966 
Q 3022 478 2636 193 
Q 2250 -91 1575 -91 
Q 1294 -91 989 -36 
Q 684 19 347 128 
L 347 722 
Q 666 556 975 473 
Q 1284 391 1588 391 
Q 1994 391 2212 530 
Q 2431 669 2431 922 
Q 2431 1156 2273 1281 
Q 2116 1406 1581 1522 
L 1381 1569 
Q 847 1681 609 1914 
Q 372 2147 372 2553 
Q 372 3047 722 3315 
Q 1072 3584 1716 3584 
Q 2034 3584 2315 3537 
Q 2597 3491 2834 3397 
z
" transform="scale(0.015625)"/>
      <path id="DejaVuSans-63" d="M 3122 3366 
L 3122 2828 
Q 2878 2963 2633 3030 
Q 2388 3097 2138 3097 
Q 1578 3097 1268 2742 
Q 959 2388 959 1747 
Q 959 1106 1268 751 
Q 1578 397 2138 397 
Q 2388 397 2633 464 
Q 2878 531 3122 666 
L 3122 134 
Q 2881 22 2623 -34 
Q 2366 -91 2075 -91 
Q 1284 -91 818 406 
Q 353 903 353 1747 
Q 353 2603 823 3093 
Q 1294 3584 2113 3584 
Q 2378 3584 2631 3529 
Q 2884 3475 3122 3366 
z
" transform="scale(0.015625)"/>
      <path id="DejaVuSans-61" d="M 2194 1759 
Q 1497 1759 1228 1600 
Q 959 1441 959 1056 
Q 959 750 1161 570 
Q 1363 391 1709 391 
Q 2188 391 2477 730 
Q 2766 1069 2766 1631 
L 2766 1759 
L 2194 1759 
z
M 3341 1997 
L 3341 0 
L 2766 0 
L 2766 531 
Q 2569 213 2275 61 
Q 1981 -91 1556 -91 
Q 1019 -91 701 211 
Q 384 513 384 1019 
Q 384 1609 779 1909 
Q 1175 2209 1959 2209 
L 2766 2209 
L 2766 2266 
Q 2766 2663 2505 2880 
Q 2244 3097 1772 3097 
Q 1472 3097 1187 3025 
Q 903 2953 641 2809 
L 641 3341 
Q 956 3463 1253 3523 
Q 1550 3584 1831 3584 
Q 2591 3584 2966 3190 
Q 3341 2797 3341 1997 
z
" transform="scale(0.015625)"/>
      <path id="DejaVuSans-6c" d="M 603 4863 
L 1178 4863 
L 1178 0 
L 603 0 
L 603 4863 
z
" transform="scale(0.015625)"/>
      <path id="DejaVuSans-20" transform="scale(0.015625)"/>
      <path id="DejaVuSans-Oblique-2113" d="M 950 838 
Q 1078 213 1350 213 
Q 1531 213 1766 572 
L 2181 572 
Q 1994 253 1775 88 
Q 1538 -91 1319 -91 
Q 831 -91 634 344 
L 400 0 
L -88 0 
Q 250 459 500 888 
Q 469 1131 469 1397 
Q 469 1872 566 2347 
Q 931 4131 1256 4497 
Q 1481 4750 1866 4750 
Q 2256 4750 2256 4209 
Q 2253 3966 2197 3675 
Q 1972 2484 950 838 
z
M 947 1656 
Q 1531 2744 1709 3613 
Q 1803 4072 1803 4191 
Q 1803 4406 1725 4406 
Q 1384 4134 1081 2516 
Q 997 2063 947 1656 
z
" transform="scale(0.015625)"/>
      <path id="DejaVuSans-3d" d="M 678 2906 
L 4684 2906 
L 4684 2381 
L 678 2381 
L 678 2906 
z
M 678 1631 
L 4684 1631 
L 4684 1100 
L 678 1100 
L 678 1631 
z
" transform="scale(0.015625)"/>
      <path id="DejaVuSans-2e" d="M 684 794 
L 1344 794 
L 1344 0 
L 684 0 
L 684 794 
z
" transform="scale(0.015625)"/>
      <path id="DejaVuSans-2c" d="M 750 794 
L 1409 794 
L 1409 256 
L 897 -744 
L 494 -744 
L 750 256 
L 750 794 
z
" transform="scale(0.015625)"/>
      <path id="DejaVuSans-41" d="M 2188 4044 
L 1331 1722 
L 3047 1722 
L 2188 4044 
z
M 1831 4666 
L 2547 4666 
L 4325 0 
L 3669 0 
L 3244 1197 
L 1141 1197 
L 716 0 
L 50 0 
L 1831 4666 
z
" transform="scale(0.015625)"/>
      <path id="DejaVuSans-6d" d="M 3328 2828 
Q 3544 3216 3844 3400 
Q 4144 3584 4550 3584 
Q 5097 3584 5394 3201 
Q 5691 2819 5691 2113 
L 5691 0 
L 5113 0 
L 5113 2094 
Q 5113 2597 4934 2840 
Q 4756 3084 4391 3084 
Q 3944 3084 3684 2787 
Q 3425 2491 3425 1978 
L 3425 0 
L 2847 0 
L 2847 2094 
Q 2847 2600 2669 2842 
Q 2491 3084 2119 3084 
Q 1678 3084 1418 2786 
Q 1159 2488 1159 1978 
L 1159 0 
L 581 0 
L 581 3500 
L 1159 3500 
L 1159 2956 
Q 1356 3278 1631 3431 
Q 1906 3584 2284 3584 
Q 2666 3584 2933 3390 
Q 3200 3197 3328 2828 
z
" transform="scale(0.015625)"/>
      <path id="DejaVuSans-70" d="M 1159 525 
L 1159 -1331 
L 581 -1331 
L 581 3500 
L 1159 3500 
L 1159 2969 
Q 1341 3281 1617 3432 
Q 1894 3584 2278 3584 
Q 2916 3584 3314 3078 
Q 3713 2572 3713 1747 
Q 3713 922 3314 415 
Q 2916 -91 2278 -91 
Q 1894 -91 1617 61 
Q 1341 213 1159 525 
z
M 3116 1747 
Q 3116 2381 2855 2742 
Q 2594 3103 2138 3103 
Q 1681 3103 1420 2742 
Q 1159 2381 1159 1747 
Q 1159 1113 1420 752 
Q 1681 391 2138 391 
Q 2594 391 2855 752 
Q 3116 1113 3116 1747 
z
" transform="scale(0.015625)"/>
      <path id="DejaVuSans-69" d="M 603 3500 
L 1178 3500 
L 1178 0 
L 603 0 
L 603 3500 
z
M 603 4863 
L 1178 4863 
L 1178 4134 
L 603 4134 
L 603 4863 
z
" transform="scale(0.015625)"/>
      <path id="DejaVuSans-75" d="M 544 1381 
L 544 3500 
L 1119 3500 
L 1119 1403 
Q 1119 906 1312 657 
Q 1506 409 1894 409 
Q 2359 409 2629 706 
Q 2900 1003 2900 1516 
L 2900 3500 
L 3475 3500 
L 3475 0 
L 2900 0 
L 2900 538 
Q 2691 219 2414 64 
Q 2138 -91 1772 -91 
Q 1169 -91 856 284 
Q 544 659 544 1381 
z
M 1991 3584 
L 1991 3584 
z
" transform="scale(0.015625)"/>
      <path id="DejaVuSans-64" d="M 2906 2969 
L 2906 4863 
L 3481 4863 
L 3481 0 
L 2906 0 
L 2906 525 
Q 2725 213 2448 61 
Q 2172 -91 1784 -91 
Q 1150 -91 751 415 
Q 353 922 353 1747 
Q 353 2572 751 3078 
Q 1150 3584 1784 3584 
Q 2172 3584 2448 3432 
Q 2725 3281 2906 2969 
z
M 947 1747 
Q 947 1113 1208 752 
Q 1469 391 1925 391 
Q 2381 391 2643 752 
Q 2906 1113 2906 1747 
Q 2906 2381 2643 2742 
Q 2381 3103 1925 3103 
Q 1469 3103 1208 2742 
Q 947 2381 947 1747 
z
" transform="scale(0.015625)"/>
      <path id="DejaVuSans-Oblique-61" d="M 3438 1997 
L 3047 0 
L 2472 0 
L 2578 531 
Q 2325 219 2001 64 
Q 1678 -91 1281 -91 
Q 834 -91 548 182 
Q 263 456 263 884 
Q 263 1497 752 1853 
Q 1241 2209 2100 2209 
L 2900 2209 
L 2931 2363 
Q 2938 2388 2941 2417 
Q 2944 2447 2944 2509 
Q 2944 2788 2717 2942 
Q 2491 3097 2081 3097 
Q 1800 3097 1504 3025 
Q 1209 2953 897 2809 
L 997 3341 
Q 1322 3463 1633 3523 
Q 1944 3584 2234 3584 
Q 2853 3584 3176 3315 
Q 3500 3047 3500 2534 
Q 3500 2431 3484 2292 
Q 3469 2153 3438 1997 
z
M 2816 1759 
L 2241 1759 
Q 1534 1759 1195 1570 
Q 856 1381 856 984 
Q 856 709 1029 553 
Q 1203 397 1509 397 
Q 1978 397 2328 733 
Q 2678 1069 2791 1631 
L 2816 1759 
z
" transform="scale(0.015625)"/>
     </defs>
     <use xlink:href="#DejaVuSans-4c" transform="translate(0 0.015625)"/>
     <use xlink:href="#DejaVuSans-65" transform="translate(55.712891 0.015625)"/>
     <use xlink:href="#DejaVuSans-6e" transform="translate(117.236328 0.015625)"/>
     <use xlink:href="#DejaVuSans-67" transform="translate(180.615234 0.015625)"/>
     <use xlink:href="#DejaVuSans-74" transform="translate(244.091797 0.015625)"/>
     <use xlink:href="#DejaVuSans-68" transform="translate(283.300781 0.015625)"/>
     <use xlink:href="#DejaVuSans-73" transform="translate(346.679688 0.015625)"/>
     <use xlink:href="#DejaVuSans-63" transform="translate(398.779297 0.015625)"/>
     <use xlink:href="#DejaVuSans-61" transform="translate(453.759766 0.015625)"/>
     <use xlink:href="#DejaVuSans-6c" transform="translate(515.039062 0.015625)"/>
     <use xlink:href="#DejaVuSans-65" transform="translate(542.822266 0.015625)"/>
     <use xlink:href="#DejaVuSans-20" transform="translate(604.345703 0.015625)"/>
     <use xlink:href="#DejaVuSans-Oblique-2113" transform="translate(636.132812 0.015625)"/>
     <use xlink:href="#DejaVuSans-3d" transform="translate(677.441406 0.015625)"/>
     <use xlink:href="#DejaVuSans-35" transform="translate(761.230469 0.015625)"/>
     <use xlink:href="#DejaVuSans-2e" transform="translate(824.853516 0.015625)"/>
     <use xlink:href="#DejaVuSans-30" transform="translate(856.640625 0.015625)"/>
     <use xlink:href="#DejaVuSans-30" transform="translate(920.263672 0.015625)"/>
     <use xlink:href="#DejaVuSans-30" transform="translate(983.886719 0.015625)"/>
     <use xlink:href="#DejaVuSans-2c" transform="translate(1047.509766 0.015625)"/>
     <use xlink:href="#DejaVuSans-20" transform="translate(1079.296875 0.015625)"/>
     <use xlink:href="#DejaVuSans-41" transform="translate(1111.083984 0.015625)"/>
     <use xlink:href="#DejaVuSans-6d" transform="translate(1179.492188 0.015625)"/>
     <use xlink:href="#DejaVuSans-70" transform="translate(1276.904297 0.015625)"/>
     <use xlink:href="#DejaVuSans-6c" transform="translate(1340.380859 0.015625)"/>
     <use xlink:href="#DejaVuSans-69" transform="translate(1368.164062 0.015625)"/>
     <use xlink:href="#DejaVuSans-74" transform="translate(1395.947266 0.015625)"/>
     <use xlink:href="#DejaVuSans-75" transform="translate(1435.15625 0.015625)"/>
     <use xlink:href="#DejaVuSans-64" transform="translate(1498.535156 0.015625)"/>
     <use xlink:href="#DejaVuSans-65" transform="translate(1562.011719 0.015625)"/>
     <use xlink:href="#DejaVuSans-20" transform="translate(1623.535156 0.015625)"/>
     <use xlink:href="#DejaVuSans-Oblique-61" transform="translate(1655.322266 0.015625)"/>
     <use xlink:href="#DejaVuSans-3d" transform="translate(1716.601562 0.015625)"/>
     <use xlink:href="#DejaVuSans-31" transform="translate(1800.390625 0.015625)"/>
    </g>
   </g>
  </g>
 </g>
 <defs>
  <clipPath id="pbc9df8b1f1">
   <rect x="28.942188" y="22.32" width="195.3" height="138.6"/>
  </clipPath>
 </defs>
</svg>
