<?xml version="1.0" encoding="utf-8" standalone="no"?>
<!DOCTYPE svg PUBLIC "-//W3C//DTD SVG 1.1//EN"
  "http://www.w3.org/Graphics/SVG/1.1/DTD/svg11.dtd">
<svg xmlns:xlink="http://www.w3.org/1999/xlink" width="245.692187pt" height="184.798125pt" viewBox="0 0 245.692187 184.798125" xmlns="http://www.w3.org/2000/svg" version="1.1">
 <metadata>
  <rdf:RDF xmlns:dc="http://purl.org/dc/elements/1.1/" xmlns:cc="http://creativecommons.org/ns#" xmlns:rdf="http://www.w3.org/1999/02/22-rdf-syntax-ns#">
   <cc:Work>
    <dc:type rdf:resource="http://purl.org/dc/dcmitype/StillImage"/>
    <dc:date>2022-12-10T17:08:43.830319</dc:date>
    <dc:format>image/svg+xml</dc:format>
    <dc:creator>
     <cc:Agent>
      <dc:title>Matplotlib v3.5.1, https://matplotlib.org/</dc:title>
     </cc:Agent>
    </dc:creator>
   </cc:Work>
  </rdf:RDF>
 </metadata>
 <defs>
  <style type="text/css">*{stroke-linejoin: round; stroke-linecap: butt}</style>
 </defs>
 <g id="figure_1">
  <g id="patch_1">
   <path d="M 0 184.798125 
L 245.692187 184.798125 
L 245.692187 0 
L 0 0 
z
" style="fill: #ffffff"/>
  </g>
  <g id="axes_1">
   <g id="patch_2">
    <path d="M 28.942188 160.92 
L 224.242188 160.92 
L 224.242188 22.32 
L 28.942188 22.32 
z
" style="fill: #ffffff"/>
   </g>
   <g id="PathCollection_1">
    <defs>
     <path id="m0c7cc067c0" d="M 0 3 
C 0.795609 3 1.55874 2.683901 2.12132 2.12132 
C 2.683901 1.55874 3 0.795609 3 0 
C 3 -0.795609 2.683901 -1.55874 2.12132 -2.12132 
C 1.55874 -2.683901 0.795609 -3 0 -3 
C -0.795609 -3 -1.55874 -2.683901 -2.12132 -2.12132 
C -2.683901 -1.55874 -3 -0.795609 -3 0 
C -3 0.795609 -2.683901 1.55874 -2.12132 2.12132 
C -1.55874 2.683901 -0.795609 3 0 3 
z
" style="stroke: #1f77b4"/>
    </defs>
    <g clip-path="url(#pac7965e991)">
     <use xlink:href="#m0c7cc067c0" x="37.81946" y="96.326856" style="fill: #1f77b4; stroke: #1f77b4"/>
     <use xlink:href="#m0c7cc067c0" x="44.921278" y="47.771816" style="fill: #1f77b4; stroke: #1f77b4"/>
     <use xlink:href="#m0c7cc067c0" x="52.023097" y="76.738008" style="fill: #1f77b4; stroke: #1f77b4"/>
     <use xlink:href="#m0c7cc067c0" x="59.124915" y="108.160283" style="fill: #1f77b4; stroke: #1f77b4"/>
     <use xlink:href="#m0c7cc067c0" x="80.430369" y="111.532491" style="fill: #1f77b4; stroke: #1f77b4"/>
     <use xlink:href="#m0c7cc067c0" x="87.532187" y="105.129924" style="fill: #1f77b4; stroke: #1f77b4"/>
     <use xlink:href="#m0c7cc067c0" x="94.634006" y="72.941351" style="fill: #1f77b4; stroke: #1f77b4"/>
     <use xlink:href="#m0c7cc067c0" x="101.735824" y="59.874355" style="fill: #1f77b4; stroke: #1f77b4"/>
     <use xlink:href="#m0c7cc067c0" x="108.837642" y="85.684533" style="fill: #1f77b4; stroke: #1f77b4"/>
     <use xlink:href="#m0c7cc067c0" x="151.448551" y="76.380083" style="fill: #1f77b4; stroke: #1f77b4"/>
     <use xlink:href="#m0c7cc067c0" x="158.550369" y="57.683955" style="fill: #1f77b4; stroke: #1f77b4"/>
     <use xlink:href="#m0c7cc067c0" x="172.754006" y="135.739121" style="fill: #1f77b4; stroke: #1f77b4"/>
    </g>
   </g>
   <g id="PolyCollection_1">
    <path d="M 37.81946 96.326856 
L 37.81946 96.326856 
L 38.175263 103.046969 
L 38.531065 109.331301 
L 38.886868 114.912938 
L 39.24267 119.564813 
L 39.598473 123.111984 
L 39.954275 125.435398 
L 40.310078 126.467608 
L 40.66588 126.182652 
L 41.021683 124.583722 
L 41.377485 121.692954 
L 41.733288 117.547241 
L 42.08909 112.202154 
L 42.444893 105.743284 
L 42.800695 98.301341 
L 43.156498 90.065515 
L 43.5123 81.289514 
L 43.868103 72.286338 
L 44.223905 63.410571 
L 44.579708 55.029926 
L 44.935511 48.049874 
L 45.291313 55.531106 
L 45.647116 63.802674 
L 46.002918 72.490767 
L 46.358721 81.200618 
L 46.714523 89.551008 
L 47.070326 97.202743 
L 47.426128 103.877223 
L 47.781931 109.363677 
L 48.137733 113.516366 
L 48.493536 116.245487 
L 48.849338 117.506798 
L 49.205141 117.29457 
L 49.560943 115.640382 
L 49.916746 112.617437 
L 50.272548 108.347602 
L 50.628351 103.00715 
L 50.984153 96.827463 
L 51.339956 90.088238 
L 51.695758 83.10266 
L 52.051561 77.315124 
L 52.407363 84.67905 
L 52.763166 92.148495 
L 53.118968 99.475099 
L 53.474771 106.432456 
L 53.830573 112.837128 
L 54.186376 118.55982 
L 54.542178 123.525093 
L 54.897981 127.700338 
L 55.253783 131.077184 
L 55.609586 133.650434 
L 55.965388 135.400418 
L 56.321191 136.283779 
L 56.676993 136.235358 
L 57.032796 135.180662 
L 57.388599 133.055688 
L 57.744401 129.829244 
L 58.100204 125.522668 
L 58.456006 120.222668 
L 58.811809 114.084508 
L 59.167611 109.00376 
L 59.523414 115.755817 
L 59.879216 121.85625 
L 60.235019 127.126547 
L 60.590821 131.457161 
L 60.946624 134.814561 
L 61.302426 137.237994 
L 61.658229 138.827183 
L 62.014031 139.723602 
L 62.369834 140.088881 
L 62.725636 140.084045 
L 63.081439 139.85276 
L 63.437241 139.510594 
L 63.793044 139.140838 
L 64.148846 138.79602 
L 64.504649 138.503251 
L 64.860451 138.271262 
L 65.216254 138.097305 
L 65.572056 137.97278 
L 65.927859 137.887176 
L 66.283661 137.830424 
L 66.639464 137.794033 
L 66.995266 137.771412 
L 67.351069 137.757762 
L 67.706871 137.749758 
L 68.062674 137.745194 
L 68.418476 137.742666 
L 68.774279 137.741311 
L 69.130081 137.740622 
L 69.485884 137.74032 
L 69.841686 137.740278 
L 70.197489 137.740477 
L 70.553292 137.741007 
L 70.909094 137.742096 
L 71.264897 137.744173 
L 71.620699 137.747992 
L 71.976502 137.754813 
L 72.332304 137.766658 
L 72.688107 137.786662 
L 73.043909 137.81949 
L 73.399712 137.871795 
L 73.755514 137.952586 
L 74.111317 138.07332 
L 74.467119 138.247407 
L 74.822922 138.488692 
L 75.178724 138.80848 
L 75.534527 139.210755 
L 75.890329 139.68563 
L 76.246132 140.201671 
L 76.601934 140.698549 
L 76.957737 141.082069 
L 77.313539 141.223808 
L 77.669342 140.967092 
L 78.025144 140.139848 
L 78.380947 138.573393 
L 78.736749 136.124762 
L 79.092552 132.699163 
L 79.448354 128.268758 
L 79.804157 122.884285 
L 80.159959 116.67711 
L 80.515762 113.20811 
L 80.871564 119.846606 
L 81.227367 125.7728 
L 81.583169 130.827258 
L 81.938972 134.925743 
L 82.294774 138.060413 
L 82.650577 140.289148 
L 83.00638 141.714654 
L 83.362182 142.456913 
L 83.717985 142.624037 
L 84.073787 142.287324 
L 84.42959 141.46588 
L 84.785392 140.124265 
L 85.141195 138.183656 
L 85.496997 135.543856 
L 85.8528 132.111121 
L 86.208602 127.825882 
L 86.564405 122.684913 
L 86.920207 116.753949 
L 87.27601 110.168694 
L 87.631812 107.039793 
L 87.987615 113.579164 
L 88.343417 119.484449 
L 88.69922 124.542566 
L 89.055022 128.603005 
L 89.410825 131.582092 
L 89.766627 133.457284 
L 90.12243 134.252947 
L 90.478232 134.020811 
L 90.834035 132.81961 
L 91.189837 130.698908 
L 91.54564 127.691371 
L 91.901442 123.815661 
L 92.257245 119.089142 
L 92.613047 113.546623 
L 92.96885 107.259637 
L 93.324652 100.350582 
L 93.680455 92.997525 
L 94.036257 85.427658 
L 94.39206 77.899992 
L 94.747862 75.154191 
L 95.103665 82.276448 
L 95.459468 89.465256 
L 95.81527 96.397957 
L 96.171073 102.77045 
L 96.526875 108.317964 
L 96.882678 112.828038 
L 97.23848 116.144661 
L 97.594283 118.164659 
L 97.950085 118.829315 
L 98.305888 118.115466 
L 98.66169 116.030256 
L 99.017493 112.612115 
L 99.373295 107.937854 
L 99.729098 102.132986 
L 100.0849 95.38067 
L 100.440703 87.924609 
L 100.796505 80.062669 
L 101.152308 72.130232 
L 101.50811 64.474797 
L 101.863913 62.457966 
L 102.219715 70.068159 
L 102.575518 78.071812 
L 102.93132 86.139982 
L 103.287123 93.948993 
L 103.642925 101.207661 
L 103.998728 107.675935 
L 104.35453 113.17273 
L 104.710333 117.573202 
L 105.066135 120.798304 
L 105.421938 122.801283 
L 105.77774 123.556395 
L 106.133543 123.053897 
L 106.489345 121.302834 
L 106.845148 118.340206 
L 107.20095 114.242858 
L 107.556753 109.137629 
L 107.912556 103.205847 
L 108.268358 96.679668 
L 108.624161 89.829691 
L 108.979963 88.537383 
L 109.335766 95.664763 
L 109.691568 102.587384 
L 110.047371 109.076704 
L 110.403173 114.946692 
L 110.758976 120.069994 
L 111.114778 124.384864 
L 111.470581 127.892674 
L 111.826383 130.647482 
L 112.182186 132.740405 
L 112.537988 134.282152 
L 112.893791 135.386951 
L 113.249593 136.160276 
L 113.605396 136.691491 
L 113.961198 137.051212 
L 114.317001 137.292192 
L 114.672803 137.452194 
L 115.028606 137.557484 
L 115.384408 137.626039 
L 115.740211 137.670087 
L 116.096013 137.697929 
L 116.451816 137.715194 
L 116.807618 137.725673 
L 117.163421 137.731887 
L 117.519223 137.735482 
L 117.875026 137.737511 
L 118.230828 137.738627 
L 118.586631 137.739225 
L 118.942433 137.739537 
L 119.298236 137.739695 
L 119.654038 137.739774 
L 120.009841 137.739812 
L 120.365644 137.73983 
L 120.721446 137.739838 
L 121.077249 137.739841 
L 121.433051 137.739843 
L 121.788854 137.739844 
L 122.144656 137.739844 
L 122.500459 137.739844 
L 122.856261 137.739844 
L 123.212064 137.739844 
L 123.567866 137.739844 
L 123.923669 137.739844 
L 124.279471 137.739844 
L 124.635274 137.739844 
L 124.991076 137.739844 
L 125.346879 137.739844 
L 125.702681 137.739844 
L 126.058484 137.739844 
L 126.414286 137.739844 
L 126.770089 137.739844 
L 127.125891 137.739844 
L 127.481694 137.739844 
L 127.837496 137.739844 
L 128.193299 137.739844 
L 128.549101 137.739844 
L 128.904904 137.739844 
L 129.260706 137.739844 
L 129.616509 137.739844 
L 129.972311 137.739844 
L 130.328114 137.739844 
L 130.683916 137.739844 
L 131.039719 137.739844 
L 131.395521 137.739844 
L 131.751324 137.739844 
L 132.107126 137.739844 
L 132.462929 137.739844 
L 132.818731 137.739844 
L 133.174534 137.739844 
L 133.530337 137.739844 
L 133.886139 137.739844 
L 134.241942 137.739844 
L 134.597744 137.739844 
L 134.953547 137.739844 
L 135.309349 137.739844 
L 135.665152 137.739844 
L 136.020954 137.739844 
L 136.376757 137.739844 
L 136.732559 137.739844 
L 137.088362 137.739844 
L 137.444164 137.739844 
L 137.799967 137.739844 
L 138.155769 137.739844 
L 138.511572 137.739843 
L 138.867374 137.739842 
L 139.223177 137.739838 
L 139.578979 137.73983 
L 139.934782 137.739811 
L 140.290584 137.73977 
L 140.646387 137.739684 
L 141.002189 137.739505 
L 141.357992 137.739144 
L 141.713794 137.738435 
L 142.069597 137.737078 
L 142.425399 137.73455 
L 142.781202 137.729959 
L 143.137004 137.721841 
L 143.492807 137.707854 
L 143.848609 137.684371 
L 144.204412 137.645928 
L 144.560214 137.584524 
L 144.916017 137.488725 
L 145.271819 137.342544 
L 145.627622 137.124016 
L 145.983425 136.803419 
L 146.339227 136.341103 
L 146.69503 135.6851 
L 147.050832 134.768955 
L 147.406635 133.510702 
L 147.762437 131.814236 
L 148.11824 129.574387 
L 148.474042 126.686507 
L 148.829845 123.060302 
L 149.185647 118.636339 
L 149.54145 113.402452 
L 149.897252 107.406676 
L 150.253055 100.763476 
L 150.608857 93.650975 
L 150.96466 86.298393 
L 151.320462 78.964708 
L 151.676265 80.84381 
L 152.032067 87.934396 
L 152.38787 94.892538 
L 152.743672 101.412884 
L 153.099475 107.218256 
L 153.455277 112.076767 
L 153.81108 115.810515 
L 154.166882 118.295785 
L 154.522685 119.456738 
L 154.878487 119.256194 
L 155.23429 117.687866 
L 155.590092 114.773721 
L 155.945895 110.568054 
L 156.301697 105.166959 
L 156.6575 98.719384 
L 157.013302 91.434825 
L 157.369105 83.58327 
L 157.724907 75.484881 
L 158.08071 67.48941 
L 158.436513 59.947744 
L 158.792315 62.668885 
L 159.148118 70.546753 
L 159.50392 78.794691 
L 159.859723 87.086092 
L 160.215525 95.112704 
L 160.571328 102.612977 
L 160.92713 109.391595 
L 161.282933 115.328268 
L 161.638735 120.375921 
L 161.994538 124.550326 
L 162.35034 127.91441 
L 162.706143 130.560922 
L 163.061945 132.596587 
L 163.417748 134.129769 
L 163.77355 135.262359 
L 164.129353 136.085503 
L 164.485155 136.678302 
L 164.840958 137.108497 
L 165.19676 137.434392 
L 165.552563 137.707478 
L 165.908365 137.975356 
L 166.264168 138.284539 
L 166.61997 138.68261 
L 166.975773 139.219063 
L 167.331575 139.944065 
L 167.687378 140.904383 
L 168.04318 142.136092 
L 168.398983 143.654245 
L 168.754785 145.440705 
L 169.110588 147.432302 
L 169.46639 149.512259 
L 169.822193 151.507895 
L 170.177995 153.196891 
L 170.533798 154.322963 
L 170.889601 154.62 
L 171.245403 153.841909 
L 171.601206 151.794042 
L 171.957008 148.361324 
L 172.312811 143.528347 
L 172.668613 137.387714 
L 173.024416 140.734262 
L 173.380218 146.21308 
L 173.736021 150.322609 
L 174.091823 153.026633 
L 174.447626 154.394241 
L 174.803428 154.585008 
L 175.159231 153.824176 
L 175.515033 152.372192 
L 175.870836 150.493533 
L 176.226638 148.429398 
L 176.582441 146.377771 
L 176.938243 144.482677 
L 177.294046 142.832662 
L 177.649848 141.466839 
L 178.005651 140.385757 
L 178.361453 139.564067 
L 178.717256 138.962415 
L 179.073058 138.536939 
L 179.428861 138.245749 
L 179.784663 138.052578 
L 180.140466 137.928209 
L 180.496268 137.850422 
L 180.852071 137.803125 
L 181.207873 137.775152 
L 181.563676 137.759053 
L 181.919478 137.750035 
L 182.275281 137.745116 
L 182.631083 137.742504 
L 182.986886 137.741153 
L 183.342689 137.740472 
L 183.698491 137.740138 
L 184.054294 137.739978 
L 184.410096 137.739904 
L 184.765899 137.73987 
L 185.121701 137.739855 
L 185.477504 137.739849 
L 185.833306 137.739846 
L 186.189109 137.739845 
L 186.544911 137.739844 
L 186.900714 137.739844 
L 187.256516 137.739844 
L 187.612319 137.739844 
L 187.968121 137.739844 
L 188.323924 137.739844 
L 188.679726 137.739844 
L 189.035529 137.739844 
L 189.391331 137.739844 
L 189.747134 137.739844 
L 190.102936 137.739844 
L 190.458739 137.739844 
L 190.814541 137.739844 
L 191.170344 137.739844 
L 191.526146 137.739844 
L 191.881949 137.739844 
L 192.237751 137.739844 
L 192.593554 137.739844 
L 192.949356 137.739844 
L 193.305159 137.739844 
L 193.660961 137.739844 
L 194.016764 137.739844 
L 194.372566 137.739844 
L 194.728369 137.739844 
L 195.084171 137.739844 
L 195.439974 137.739844 
L 195.795776 137.739844 
L 196.151579 137.739844 
L 196.507382 137.739844 
L 196.863184 137.739844 
L 197.218987 137.739844 
L 197.574789 137.739844 
L 197.930592 137.739844 
L 198.286394 137.739844 
L 198.642197 137.739844 
L 198.997999 137.739844 
L 199.353802 137.739844 
L 199.709604 137.739844 
L 200.065407 137.739844 
L 200.421209 137.739844 
L 200.777012 137.739844 
L 201.132814 137.739844 
L 201.488617 137.739844 
L 201.844419 137.739844 
L 202.200222 137.739844 
L 202.556024 137.739844 
L 202.911827 137.739844 
L 203.267629 137.739844 
L 203.623432 137.739844 
L 203.979234 137.739844 
L 204.335037 137.739844 
L 204.690839 137.739844 
L 205.046642 137.739844 
L 205.402444 137.739844 
L 205.758247 137.739844 
L 206.114049 137.739844 
L 206.469852 137.739844 
L 206.825654 137.739844 
L 207.181457 137.739844 
L 207.537259 137.739844 
L 207.893062 137.739844 
L 208.248864 137.739844 
L 208.604667 137.739844 
L 208.96047 137.739844 
L 209.316272 137.739844 
L 209.672075 137.739844 
L 210.027877 137.739844 
L 210.38368 137.739844 
L 210.739482 137.739844 
L 211.095285 137.739844 
L 211.451087 137.739844 
L 211.80689 137.739844 
L 212.162692 137.739844 
L 212.518495 137.739844 
L 212.874297 137.739844 
L 213.2301 137.739844 
L 213.585902 137.739844 
L 213.941705 137.739844 
L 214.297507 137.739844 
L 214.65331 137.739844 
L 215.009112 137.739844 
L 215.364915 137.739844 
L 215.364915 49.390191 
L 215.364915 49.390191 
L 215.009112 49.390191 
L 214.65331 49.390191 
L 214.297507 49.390191 
L 213.941705 49.390191 
L 213.585902 49.390191 
L 213.2301 49.390191 
L 212.874297 49.390191 
L 212.518495 49.390191 
L 212.162692 49.390191 
L 211.80689 49.390191 
L 211.451087 49.390191 
L 211.095285 49.390191 
L 210.739482 49.390191 
L 210.38368 49.390191 
L 210.027877 49.390191 
L 209.672075 49.390191 
L 209.316272 49.390191 
L 208.96047 49.390191 
L 208.604667 49.390191 
L 208.248864 49.390191 
L 207.893062 49.390191 
L 207.537259 49.390191 
L 207.181457 49.390191 
L 206.825654 49.390191 
L 206.469852 49.390191 
L 206.114049 49.390191 
L 205.758247 49.390191 
L 205.402444 49.390191 
L 205.046642 49.390191 
L 204.690839 49.390191 
L 204.335037 49.390191 
L 203.979234 49.390191 
L 203.623432 49.390191 
L 203.267629 49.390191 
L 202.911827 49.390191 
L 202.556024 49.390191 
L 202.200222 49.390191 
L 201.844419 49.390191 
L 201.488617 49.390191 
L 201.132814 49.390191 
L 200.777012 49.390191 
L 200.421209 49.390191 
L 200.065407 49.390191 
L 199.709604 49.390191 
L 199.353802 49.390191 
L 198.997999 49.390191 
L 198.642197 49.390191 
L 198.286394 49.390191 
L 197.930592 49.390191 
L 197.574789 49.390191 
L 197.218987 49.390191 
L 196.863184 49.390191 
L 196.507382 49.390191 
L 196.151579 49.390191 
L 195.795776 49.390191 
L 195.439974 49.390191 
L 195.084171 49.390191 
L 194.728369 49.390191 
L 194.372566 49.390191 
L 194.016764 49.390191 
L 193.660961 49.390191 
L 193.305159 49.390191 
L 192.949356 49.390191 
L 192.593554 49.390191 
L 192.237751 49.390191 
L 191.881949 49.390191 
L 191.526146 49.390191 
L 191.170344 49.390191 
L 190.814541 49.390191 
L 190.458739 49.390191 
L 190.102936 49.390191 
L 189.747134 49.390191 
L 189.391331 49.390191 
L 189.035529 49.390191 
L 188.679726 49.390191 
L 188.323924 49.390191 
L 187.968121 49.390191 
L 187.612319 49.390191 
L 187.256516 49.390191 
L 186.900714 49.390191 
L 186.544911 49.390191 
L 186.189109 49.390191 
L 185.833306 49.390192 
L 185.477504 49.390195 
L 185.121701 49.390202 
L 184.765899 49.390216 
L 184.410096 49.39025 
L 184.054294 49.390325 
L 183.698491 49.390484 
L 183.342689 49.390818 
L 182.986886 49.391499 
L 182.631083 49.39285 
L 182.275281 49.395463 
L 181.919478 49.400383 
L 181.563676 49.409408 
L 181.207873 49.425529 
L 180.852071 49.453571 
L 180.496268 49.501073 
L 180.140466 49.579441 
L 179.784663 49.705373 
L 179.428861 49.902534 
L 179.073058 50.203387 
L 178.717256 50.651064 
L 178.361453 51.301078 
L 178.005651 52.222649 
L 177.649848 53.499271 
L 177.294046 55.227994 
L 176.938243 57.516646 
L 176.582441 60.47806 
L 176.226638 64.22048 
L 175.870836 68.833884 
L 175.515033 74.373072 
L 175.159231 80.839695 
L 174.803428 88.166519 
L 174.447626 96.207692 
L 174.091823 104.738315 
L 173.736021 113.465238 
L 173.380218 122.049015 
L 173.024416 130.134753 
L 172.668613 134.029575 
L 172.312811 126.337821 
L 171.957008 117.969154 
L 171.601206 109.272524 
L 171.245403 100.599676 
L 170.889601 92.27121 
L 170.533798 84.549593 
L 170.177995 77.622405 
L 169.822193 71.597049 
L 169.46639 66.505984 
L 169.110588 62.31978 
L 168.754785 58.964351 
L 168.398983 56.338719 
L 168.04318 54.330451 
L 167.687378 52.827242 
L 167.331575 51.72434 
L 166.975773 50.928374 
L 166.61997 50.358492 
L 166.264168 49.945653 
L 165.908365 49.630738 
L 165.552563 49.361986 
L 165.19676 49.092213 
L 164.840958 48.776313 
L 164.485155 48.369671 
L 164.129353 47.828186 
L 163.77355 47.110638 
L 163.417748 46.183914 
L 163.061945 45.031175 
L 162.706143 43.662195 
L 162.35034 42.124201 
L 161.994538 40.510661 
L 161.638735 38.965172 
L 161.282933 37.677981 
L 160.92713 36.873908 
L 160.571328 36.791997 
L 160.215525 37.659035 
L 159.859723 39.660459 
L 159.50392 42.913062 
L 159.148118 47.443995 
L 158.792315 53.17981 
L 158.436513 55.472678 
L 158.08071 49.221315 
L 157.724907 44.101495 
L 157.369105 40.205283 
L 157.013302 37.52503 
L 156.6575 35.962414 
L 156.301697 35.350411 
L 155.945895 35.484978 
L 155.590092 36.161493 
L 155.23429 37.209958 
L 154.878487 38.522761 
L 154.522685 40.069779 
L 154.166882 41.897925 
L 153.81108 44.115423 
L 153.455277 46.864311 
L 153.099475 50.28688 
L 152.743672 54.492452 
L 152.38787 59.530279 
L 152.032067 65.372775 
L 151.676265 71.911318 
L 151.320462 73.93073 
L 150.96466 67.483078 
L 150.608857 61.74125 
L 150.253055 56.877786 
L 149.897252 52.985419 
L 149.54145 50.075148 
L 149.185647 48.08428 
L 148.829845 46.892638 
L 148.474042 46.343904 
L 148.11824 46.26839 
L 147.762437 46.503627 
L 147.406635 46.909906 
L 147.050832 47.379212 
L 146.69503 47.837476 
L 146.339227 48.241447 
L 145.983425 48.572242 
L 145.627622 48.827782 
L 145.271819 49.015802 
L 144.916017 49.148418 
L 144.560214 49.238496 
L 144.204412 49.297612 
L 143.848609 49.335187 
L 143.492807 49.358357 
L 143.137004 49.372237 
L 142.781202 49.38032 
L 142.425399 49.3849 
L 142.069597 49.387426 
L 141.713794 49.388782 
L 141.357992 49.38949 
L 141.002189 49.389851 
L 140.646387 49.39003 
L 140.290584 49.390117 
L 139.934782 49.390157 
L 139.578979 49.390176 
L 139.223177 49.390184 
L 138.867374 49.390188 
L 138.511572 49.390189 
L 138.155769 49.39019 
L 137.799967 49.39019 
L 137.444164 49.39019 
L 137.088362 49.390191 
L 136.732559 49.390191 
L 136.376757 49.390191 
L 136.020954 49.390191 
L 135.665152 49.390191 
L 135.309349 49.390191 
L 134.953547 49.390191 
L 134.597744 49.390191 
L 134.241942 49.390191 
L 133.886139 49.390191 
L 133.530337 49.390191 
L 133.174534 49.390191 
L 132.818731 49.390191 
L 132.462929 49.390191 
L 132.107126 49.390191 
L 131.751324 49.390191 
L 131.395521 49.390191 
L 131.039719 49.390191 
L 130.683916 49.390191 
L 130.328114 49.390191 
L 129.972311 49.390191 
L 129.616509 49.390191 
L 129.260706 49.390191 
L 128.904904 49.390191 
L 128.549101 49.390191 
L 128.193299 49.390191 
L 127.837496 49.390191 
L 127.481694 49.390191 
L 127.125891 49.390191 
L 126.770089 49.390191 
L 126.414286 49.390191 
L 126.058484 49.390191 
L 125.702681 49.390191 
L 125.346879 49.390191 
L 124.991076 49.390191 
L 124.635274 49.390191 
L 124.279471 49.390191 
L 123.923669 49.390191 
L 123.567866 49.390191 
L 123.212064 49.390191 
L 122.856261 49.390191 
L 122.500459 49.39019 
L 122.144656 49.39019 
L 121.788854 49.39019 
L 121.433051 49.390189 
L 121.077249 49.390188 
L 120.721446 49.390184 
L 120.365644 49.390176 
L 120.009841 49.390158 
L 119.654038 49.39012 
L 119.298236 49.390042 
L 118.942433 49.389883 
L 118.586631 49.389571 
L 118.230828 49.388974 
L 117.875026 49.387862 
L 117.519223 49.385843 
L 117.163421 49.382281 
L 116.807618 49.376169 
L 116.451816 49.36599 
L 116.096013 49.34956 
L 115.740211 49.323921 
L 115.384408 49.285393 
L 115.028606 49.229955 
L 114.672803 49.15423 
L 114.317001 49.05741 
L 113.961198 48.94443 
L 113.605396 48.830521 
L 113.249593 48.746838 
L 112.893791 48.746256 
L 112.537988 48.907763 
L 112.182186 49.337506 
L 111.826383 50.164734 
L 111.470581 51.531729 
L 111.114778 53.578137 
L 110.758976 56.421524 
L 110.403173 60.13712 
L 110.047371 64.740225 
L 109.691568 70.174603 
L 109.335766 76.309321 
L 108.979963 82.945119 
L 108.624161 81.452824 
L 108.268358 74.650377 
L 107.912556 68.33419 
L 107.556753 62.651455 
L 107.20095 57.679532 
L 106.845148 53.424602 
L 106.489345 49.832563 
L 106.133543 46.810782 
L 105.77774 44.257135 
L 105.421938 42.090972 
L 105.066135 40.279719 
L 104.710333 38.85525 
L 104.35453 37.916192 
L 103.998728 37.615366 
L 103.642925 38.134856 
L 103.287123 39.653504 
L 102.93132 42.312774 
L 102.575518 46.186803 
L 102.219715 51.26142 
L 101.863913 57.425359 
L 101.50811 55.543783 
L 101.152308 49.570916 
L 100.796505 44.702674 
L 100.440703 41.006084 
L 100.0849 38.450775 
L 99.729098 36.921624 
L 99.373295 36.243546 
L 99.017493 36.214815 
L 98.66169 36.643715 
L 98.305888 37.382387 
L 97.950085 38.351773 
L 97.594283 39.552886 
L 97.23848 41.062207 
L 96.882678 43.012364 
L 96.526875 45.562205 
L 96.171073 48.862272 
L 95.81527 53.022007 
L 95.459468 58.084201 
L 95.103665 64.010527 
L 94.747862 70.679992 
L 94.39206 68.413958 
L 94.036257 62.337359 
L 93.680455 57.148922 
L 93.324652 53.000279 
L 92.96885 49.964465 
L 92.613047 48.041298 
L 92.257245 47.172882 
L 91.901442 47.2664 
L 91.54564 48.219836 
L 91.189837 49.945406 
L 90.834035 52.385555 
L 90.478232 55.5178 
L 90.12243 59.347317 
L 89.766627 63.88936 
L 89.410825 69.14624 
L 89.055022 75.084845 
L 88.69922 81.620227 
L 88.343417 88.609152 
L 87.987615 95.855151 
L 87.631812 103.124273 
L 87.27601 100.128215 
L 86.920207 93.13403 
L 86.564405 86.349726 
L 86.208602 80.046305 
L 85.8528 74.453456 
L 85.496997 69.747443 
L 85.141195 66.048268 
L 84.785392 63.425728 
L 84.42959 61.911881 
L 84.073787 61.5158 
L 83.717985 62.23579 
L 83.362182 64.064933 
L 83.00638 66.988034 
L 82.650577 70.970975 
L 82.294774 75.946109 
L 81.938972 81.798656 
L 81.583169 88.358803 
L 81.227367 95.402702 
L 80.871564 102.663438 
L 80.515762 109.850832 
L 80.159959 106.079254 
L 79.804157 98.72255 
L 79.448354 91.413615 
L 79.092552 84.412695 
L 78.736749 77.939634 
L 78.380947 72.155939 
L 78.025144 67.156088 
L 77.669342 62.968453 
L 77.313539 59.564468 
L 76.957737 56.873341 
L 76.601934 54.79895 
L 76.246132 53.235702 
L 75.890329 52.080995 
L 75.534527 51.243205 
L 75.178724 50.64538 
L 74.822922 50.225707 
L 74.467119 49.936057 
L 74.111317 49.739769 
L 73.755514 49.60937 
L 73.399712 49.52459 
L 73.043909 49.470722 
L 72.688107 49.437313 
L 72.332304 49.417104 
L 71.976502 49.40519 
L 71.620699 49.398348 
L 71.264897 49.394522 
L 70.909094 49.392443 
L 70.553292 49.391354 
L 70.197489 49.390823 
L 69.841686 49.390624 
L 69.485884 49.390666 
L 69.130081 49.390968 
L 68.774279 49.391657 
L 68.418476 49.393014 
L 68.062674 49.395546 
L 67.706871 49.400124 
L 67.351069 49.408175 
L 66.995266 49.421963 
L 66.639464 49.444985 
L 66.283661 49.482478 
L 65.927859 49.542094 
L 65.572056 49.63477 
L 65.216254 49.775853 
L 64.860451 49.986577 
L 64.504649 50.295973 
L 64.148846 50.743232 
L 63.793044 51.380328 
L 63.437241 52.274351 
L 63.081439 53.508523 
L 62.725636 55.180561 
L 62.369834 57.397058 
L 62.014031 60.263196 
L 61.658229 63.868238 
L 61.302426 68.26856 
L 60.946624 73.471114 
L 60.590821 79.420648 
L 60.235019 85.993768 
L 59.879216 93.001874 
L 59.523414 100.20347 
L 59.167611 107.324595 
L 58.811809 101.830851 
L 58.456006 94.496156 
L 58.100204 87.25967 
L 57.744401 80.356161 
L 57.388599 73.974763 
L 57.032796 68.247889 
L 56.676993 63.251338 
L 56.321191 59.015208 
L 55.965388 55.542838 
L 55.609586 52.832944 
L 55.253783 50.899085 
L 54.897981 49.781123 
L 54.542178 49.545451 
L 54.186376 50.273857 
L 53.830573 52.043788 
L 53.474771 54.904679 
L 53.118968 58.85551 
L 52.763166 63.828171 
L 52.407363 69.679852 
L 52.051561 76.195893 
L 51.695758 70.299727 
L 51.339956 63.84171 
L 50.984153 58.090541 
L 50.628351 53.119357 
L 50.272548 48.919624 
L 49.916746 45.409046 
L 49.560943 42.452151 
L 49.205141 39.890848 
L 48.849338 37.580185 
L 48.493536 35.423077 
L 48.137733 33.397336 
L 47.781931 31.569339 
L 47.426128 30.091233 
L 47.070326 29.181852 
L 46.714523 29.094752 
L 46.358721 30.078904 
L 46.002918 32.338535 
L 45.647116 35.998397 
L 45.291313 41.079703 
L 44.935511 47.490242 
L 44.579708 41.676688 
L 44.223905 36.643218 
L 43.868103 33.075457 
L 43.5123 30.987798 
L 43.156498 30.291931 
L 42.800695 30.819208 
L 42.444893 32.352946 
L 42.08909 34.665467 
L 41.733288 37.553792 
L 41.377485 40.86782 
L 41.021683 44.525956 
L 40.66588 48.515382 
L 40.310078 52.877391 
L 39.954275 57.681494 
L 39.598473 62.994322 
L 39.24267 68.850041 
L 38.886868 75.228129 
L 38.531065 82.042337 
L 38.175263 89.1423 
L 37.81946 96.326856 
z
" clip-path="url(#pac7965e991)" style="fill: #ff7f0e; fill-opacity: 0.25"/>
   </g>
   <g id="matplotlib.axis_1">
    <g id="xtick_1">
     <g id="line2d_1">
      <defs>
       <path id="m7fcb0061b0" d="M 0 0 
L 0 3.5 
" style="stroke: #000000; stroke-width: 0.8"/>
      </defs>
      <g>
       <use xlink:href="#m7fcb0061b0" x="37.81946" y="160.92" style="stroke: #000000; stroke-width: 0.8"/>
      </g>
     </g>
     <g id="text_1">
      <!-- 0 -->
      <g transform="translate(34.63821 175.518438)scale(0.1 -0.1)">
       <defs>
        <path id="DejaVuSans-30" d="M 2034 4250 
Q 1547 4250 1301 3770 
Q 1056 3291 1056 2328 
Q 1056 1369 1301 889 
Q 1547 409 2034 409 
Q 2525 409 2770 889 
Q 3016 1369 3016 2328 
Q 3016 3291 2770 3770 
Q 2525 4250 2034 4250 
z
M 2034 4750 
Q 2819 4750 3233 4129 
Q 3647 3509 3647 2328 
Q 3647 1150 3233 529 
Q 2819 -91 2034 -91 
Q 1250 -91 836 529 
Q 422 1150 422 2328 
Q 422 3509 836 4129 
Q 1250 4750 2034 4750 
z
" transform="scale(0.015625)"/>
       </defs>
       <use xlink:href="#DejaVuSans-30"/>
      </g>
     </g>
    </g>
    <g id="xtick_2">
     <g id="line2d_2">
      <g>
       <use xlink:href="#m7fcb0061b0" x="73.328551" y="160.92" style="stroke: #000000; stroke-width: 0.8"/>
      </g>
     </g>
     <g id="text_2">
      <!-- 5 -->
      <g transform="translate(70.147301 175.518438)scale(0.1 -0.1)">
       <defs>
        <path id="DejaVuSans-35" d="M 691 4666 
L 3169 4666 
L 3169 4134 
L 1269 4134 
L 1269 2991 
Q 1406 3038 1543 3061 
Q 1681 3084 1819 3084 
Q 2600 3084 3056 2656 
Q 3513 2228 3513 1497 
Q 3513 744 3044 326 
Q 2575 -91 1722 -91 
Q 1428 -91 1123 -41 
Q 819 9 494 109 
L 494 744 
Q 775 591 1075 516 
Q 1375 441 1709 441 
Q 2250 441 2565 725 
Q 2881 1009 2881 1497 
Q 2881 1984 2565 2268 
Q 2250 2553 1709 2553 
Q 1456 2553 1204 2497 
Q 953 2441 691 2322 
L 691 4666 
z
" transform="scale(0.015625)"/>
       </defs>
       <use xlink:href="#DejaVuSans-35"/>
      </g>
     </g>
    </g>
    <g id="xtick_3">
     <g id="line2d_3">
      <g>
       <use xlink:href="#m7fcb0061b0" x="108.837642" y="160.92" style="stroke: #000000; stroke-width: 0.8"/>
      </g>
     </g>
     <g id="text_3">
      <!-- 10 -->
      <g transform="translate(102.475142 175.518438)scale(0.1 -0.1)">
       <defs>
        <path id="DejaVuSans-31" d="M 794 531 
L 1825 531 
L 1825 4091 
L 703 3866 
L 703 4441 
L 1819 4666 
L 2450 4666 
L 2450 531 
L 3481 531 
L 3481 0 
L 794 0 
L 794 531 
z
" transform="scale(0.015625)"/>
       </defs>
       <use xlink:href="#DejaVuSans-31"/>
       <use xlink:href="#DejaVuSans-30" x="63.623047"/>
      </g>
     </g>
    </g>
    <g id="xtick_4">
     <g id="line2d_4">
      <g>
       <use xlink:href="#m7fcb0061b0" x="144.346733" y="160.92" style="stroke: #000000; stroke-width: 0.8"/>
      </g>
     </g>
     <g id="text_4">
      <!-- 15 -->
      <g transform="translate(137.984233 175.518438)scale(0.1 -0.1)">
       <use xlink:href="#DejaVuSans-31"/>
       <use xlink:href="#DejaVuSans-35" x="63.623047"/>
      </g>
     </g>
    </g>
    <g id="xtick_5">
     <g id="line2d_5">
      <g>
       <use xlink:href="#m7fcb0061b0" x="179.855824" y="160.92" style="stroke: #000000; stroke-width: 0.8"/>
      </g>
     </g>
     <g id="text_5">
      <!-- 20 -->
      <g transform="translate(173.493324 175.518438)scale(0.1 -0.1)">
       <defs>
        <path id="DejaVuSans-32" d="M 1228 531 
L 3431 531 
L 3431 0 
L 469 0 
L 469 531 
Q 828 903 1448 1529 
Q 2069 2156 2228 2338 
Q 2531 2678 2651 2914 
Q 2772 3150 2772 3378 
Q 2772 3750 2511 3984 
Q 2250 4219 1831 4219 
Q 1534 4219 1204 4116 
Q 875 4013 500 3803 
L 500 4441 
Q 881 4594 1212 4672 
Q 1544 4750 1819 4750 
Q 2544 4750 2975 4387 
Q 3406 4025 3406 3419 
Q 3406 3131 3298 2873 
Q 3191 2616 2906 2266 
Q 2828 2175 2409 1742 
Q 1991 1309 1228 531 
z
" transform="scale(0.015625)"/>
       </defs>
       <use xlink:href="#DejaVuSans-32"/>
       <use xlink:href="#DejaVuSans-30" x="63.623047"/>
      </g>
     </g>
    </g>
    <g id="xtick_6">
     <g id="line2d_6">
      <g>
       <use xlink:href="#m7fcb0061b0" x="215.364915" y="160.92" style="stroke: #000000; stroke-width: 0.8"/>
      </g>
     </g>
     <g id="text_6">
      <!-- 25 -->
      <g transform="translate(209.002415 175.518438)scale(0.1 -0.1)">
       <use xlink:href="#DejaVuSans-32"/>
       <use xlink:href="#DejaVuSans-35" x="63.623047"/>
      </g>
     </g>
    </g>
   </g>
   <g id="matplotlib.axis_2">
    <g id="ytick_1">
     <g id="line2d_7">
      <defs>
       <path id="mafd739d873" d="M 0 0 
L -3.5 0 
" style="stroke: #000000; stroke-width: 0.8"/>
      </defs>
      <g>
       <use xlink:href="#mafd739d873" x="28.942188" y="137.739844" style="stroke: #000000; stroke-width: 0.8"/>
      </g>
     </g>
     <g id="text_7">
      <!-- −2 -->
      <g transform="translate(7.2 141.539063)scale(0.1 -0.1)">
       <defs>
        <path id="DejaVuSans-2212" d="M 678 2272 
L 4684 2272 
L 4684 1741 
L 678 1741 
L 678 2272 
z
" transform="scale(0.015625)"/>
       </defs>
       <use xlink:href="#DejaVuSans-2212"/>
       <use xlink:href="#DejaVuSans-32" x="83.789062"/>
      </g>
     </g>
    </g>
    <g id="ytick_2">
     <g id="line2d_8">
      <g>
       <use xlink:href="#mafd739d873" x="28.942188" y="93.565017" style="stroke: #000000; stroke-width: 0.8"/>
      </g>
     </g>
     <g id="text_8">
      <!-- 0 -->
      <g transform="translate(15.579688 97.364236)scale(0.1 -0.1)">
       <use xlink:href="#DejaVuSans-30"/>
      </g>
     </g>
    </g>
    <g id="ytick_3">
     <g id="line2d_9">
      <g>
       <use xlink:href="#mafd739d873" x="28.942188" y="49.390191" style="stroke: #000000; stroke-width: 0.8"/>
      </g>
     </g>
     <g id="text_9">
      <!-- 2 -->
      <g transform="translate(15.579688 53.189409)scale(0.1 -0.1)">
       <use xlink:href="#DejaVuSans-32"/>
      </g>
     </g>
    </g>
   </g>
   <g id="line2d_10">
    <path d="M 37.81946 96.326856 
L 38.175263 96.094634 
L 38.531065 95.686819 
L 38.886868 95.070533 
L 39.598473 93.053153 
L 40.310078 89.672499 
L 41.021683 84.554839 
L 41.733288 77.550517 
L 43.868103 52.680897 
L 44.223905 50.026895 
L 44.579708 48.353307 
L 44.935511 47.770058 
L 45.291313 48.305405 
L 45.647116 49.900536 
L 46.358721 55.639761 
L 48.137733 73.456851 
L 48.849338 77.543491 
L 49.205141 78.592709 
L 49.560943 79.046267 
L 49.916746 79.013241 
L 50.272548 78.633613 
L 51.339956 76.964974 
L 51.695758 76.701194 
L 52.051561 76.755509 
L 52.407363 77.179451 
L 52.763166 77.988333 
L 53.474771 80.668568 
L 54.542178 86.535272 
L 57.388599 103.515226 
L 58.100204 106.391169 
L 58.456006 107.359412 
L 58.811809 107.957679 
L 59.167611 108.164178 
L 59.523414 107.979643 
L 59.879216 107.429062 
L 60.590821 105.438905 
L 63.081439 96.680641 
L 63.793044 95.260583 
L 64.504649 94.399612 
L 65.216254 93.936579 
L 66.283661 93.656451 
L 68.062674 93.57037 
L 73.043909 93.645106 
L 74.111317 93.906545 
L 74.822922 94.357199 
L 75.534527 95.22698 
L 76.246132 96.718686 
L 76.957737 98.977705 
L 78.025144 103.647968 
L 79.092552 108.555929 
L 79.804157 110.803418 
L 80.159959 111.378182 
L 80.515762 111.529471 
L 80.871564 111.255022 
L 81.227367 110.587751 
L 81.938972 108.362199 
L 83.362182 103.260923 
L 83.717985 102.429913 
L 84.073787 101.901562 
L 84.42959 101.68888 
L 84.785392 101.774997 
L 85.141195 102.115962 
L 85.8528 103.282289 
L 86.564405 104.51732 
L 86.920207 104.943989 
L 87.27601 105.148454 
L 87.631812 105.082033 
L 87.987615 104.717158 
L 88.343417 104.0468 
L 89.055022 101.843925 
L 89.766627 98.673322 
L 90.834035 92.602582 
L 93.680455 75.073223 
L 94.036257 73.882509 
L 94.39206 73.156975 
L 94.747862 72.917091 
L 95.103665 73.143488 
L 95.459468 73.774729 
L 96.171073 75.816361 
L 96.882678 77.920201 
L 97.23848 78.603434 
L 97.594283 78.858773 
L 97.950085 78.590544 
L 98.305888 77.748926 
L 98.66169 76.336986 
L 99.373295 72.0907 
L 100.796505 62.382671 
L 101.152308 60.850574 
L 101.50811 60.00929 
L 101.863913 59.941663 
L 102.219715 60.66479 
L 102.575518 62.129307 
L 103.287123 66.801248 
L 105.066135 80.539011 
L 105.77774 83.906765 
L 106.133543 84.932339 
L 106.489345 85.567698 
L 106.845148 85.882404 
L 107.20095 85.961195 
L 108.624161 85.641258 
L 108.979963 85.741251 
L 109.335766 85.987042 
L 110.047371 86.908464 
L 111.114778 88.981501 
L 112.182186 91.038956 
L 112.893791 92.066604 
L 113.605396 92.761006 
L 114.317001 93.174801 
L 115.384408 93.455716 
L 117.163421 93.557084 
L 128.904904 93.565017 
L 144.204412 93.47177 
L 145.271819 93.179173 
L 145.983425 92.687831 
L 146.69503 91.761288 
L 147.406635 90.210304 
L 148.11824 87.921389 
L 149.185647 83.360309 
L 150.253055 78.820631 
L 150.96466 76.890736 
L 151.320462 76.447719 
L 151.676265 76.377564 
L 152.032067 76.653586 
L 152.743672 77.952668 
L 153.455277 79.470539 
L 153.81108 79.962969 
L 154.166882 80.096855 
L 154.522685 79.763258 
L 154.878487 78.889477 
L 155.23429 77.448912 
L 155.945895 73.026516 
L 157.724907 59.793188 
L 158.08071 58.355363 
L 158.436513 57.710211 
L 158.792315 57.924348 
L 159.148118 58.995374 
L 159.50392 60.853876 
L 160.215525 66.385869 
L 161.994538 82.530493 
L 162.706143 87.111559 
L 163.417748 90.156842 
L 164.129353 91.956845 
L 164.840958 92.942405 
L 166.61997 94.520551 
L 166.975773 95.073719 
L 167.331575 95.834203 
L 168.04318 98.233271 
L 168.754785 102.202528 
L 169.46639 108.009121 
L 170.533798 119.436278 
L 171.601206 130.533283 
L 171.957008 133.165239 
L 172.312811 134.933084 
L 172.668613 135.708645 
L 173.024416 135.434508 
L 173.380218 134.131048 
L 173.736021 131.893924 
L 174.447626 125.300967 
L 176.226638 106.324939 
L 176.938243 100.999661 
L 177.649848 97.483055 
L 178.361453 95.432572 
L 179.073058 94.370163 
L 179.784663 93.878976 
L 180.496268 93.675747 
L 181.919478 93.575209 
L 190.458739 93.565017 
L 215.364915 93.565017 
L 215.364915 93.565017 
" clip-path="url(#pac7965e991)" style="fill: none; stroke: #1f77b4; stroke-width: 2; stroke-linecap: square"/>
   </g>
   <g id="line2d_11">
    <path d="M 37.81946 96.326855 
L 38.175263 94.368715 
L 38.531065 93.164356 
L 38.886868 92.879061 
L 39.24267 93.50094 
L 39.954275 96.552199 
L 40.310078 98.199177 
L 40.66588 99.316625 
L 41.021683 99.495314 
L 41.377485 98.44492 
L 41.733288 96.030155 
L 42.08909 92.274699 
L 42.800695 81.490945 
L 44.579708 51.291881 
L 44.935511 47.887162 
L 45.647116 55.067005 
L 46.714523 69.057689 
L 49.205141 104.029791 
L 49.560943 105.720111 
L 49.916746 105.428012 
L 50.272548 103.09945 
L 50.628351 98.966476 
L 52.051561 77.136709 
L 52.763166 85.191481 
L 53.118968 87.469417 
L 53.474771 88.478294 
L 53.830573 88.316771 
L 54.186376 87.181544 
L 54.897981 83.041071 
L 55.609586 78.37955 
L 55.965388 76.64406 
L 56.321191 75.742061 
L 56.676993 75.973702 
L 57.032796 77.563717 
L 57.388599 80.607211 
L 58.100204 90.5502 
L 59.167611 107.520875 
L 59.879216 98.180553 
L 60.235019 95.094192 
L 60.590821 93.403445 
L 60.946624 93.135077 
L 61.302426 94.132931 
L 62.014031 98.557825 
L 62.725636 103.192309 
L 63.081439 104.540666 
L 63.437241 104.93528 
L 63.793044 104.393657 
L 64.504649 101.550351 
L 64.860451 100.071489 
L 65.216254 99.097023 
L 65.572056 98.868037 
L 65.927859 99.405384 
L 66.995266 102.697228 
L 67.351069 102.844197 
L 67.706871 101.838021 
L 68.062674 99.494619 
L 68.774279 91.094747 
L 70.197489 71.006712 
L 70.553292 68.710157 
L 70.909094 68.55437 
L 71.264897 70.755751 
L 71.620699 75.223969 
L 72.332304 88.912491 
L 73.043909 103.045352 
L 73.399712 107.908966 
L 73.755514 110.451496 
L 74.111317 110.520801 
L 74.467119 108.380855 
L 75.178724 100.017463 
L 75.890329 91.222354 
L 76.246132 88.10663 
L 76.601934 86.199258 
L 76.957737 85.52845 
L 77.313539 86.001714 
L 77.669342 87.462346 
L 78.380947 92.603594 
L 80.159959 109.483212 
L 80.515762 110.945965 
L 81.938972 100.897646 
L 82.650577 97.270717 
L 83.362182 94.7149 
L 84.073787 92.98844 
L 84.42959 92.600824 
L 84.785392 92.708778 
L 85.141195 93.417086 
L 85.496997 94.741286 
L 86.208602 98.737786 
L 86.920207 102.929763 
L 87.27601 104.445167 
L 87.631812 104.875798 
L 87.987615 104.133915 
L 88.343417 103.726118 
L 88.69922 103.728673 
L 89.055022 104.154793 
L 90.12243 106.443404 
L 90.478232 106.527311 
L 90.834035 105.71852 
L 91.189837 103.837189 
L 91.901442 97.090952 
L 93.324652 80.574086 
L 94.036257 75.393743 
L 94.39206 73.762221 
L 94.747862 73.211668 
L 95.103665 74.431696 
L 95.81527 78.342118 
L 96.882678 85.112266 
L 97.23848 86.718459 
L 97.594283 87.6819 
L 97.950085 87.872207 
L 98.305888 87.216191 
L 98.66169 85.713561 
L 99.373295 80.580545 
L 101.50811 61.613175 
L 101.863913 60.982664 
L 102.219715 65.164631 
L 102.93132 78.095312 
L 104.35453 110.57399 
L 104.710333 116.212658 
L 105.066135 119.57645 
L 105.421938 120.367452 
L 105.77774 118.618473 
L 106.133543 114.701407 
L 107.912556 88.172484 
L 108.268358 85.971613 
L 108.624161 85.362662 
L 108.979963 85.334892 
L 109.335766 83.951553 
L 110.047371 79.991895 
L 111.114778 72.806577 
L 112.893791 58.399071 
L 113.249593 56.831934 
L 113.605396 56.456567 
L 113.961198 57.488978 
L 114.317001 60.01378 
L 114.672803 63.976812 
L 115.384408 75.394816 
L 117.163421 108.627863 
L 117.875026 117.646763 
L 118.230828 120.683884 
L 118.586631 122.717688 
L 118.942433 123.769939 
L 119.298236 123.900916 
L 119.654038 123.229477 
L 120.365644 120.322342 
L 121.077249 117.190358 
L 121.433051 116.130687 
L 121.788854 115.502996 
L 122.856261 114.651712 
L 123.212064 113.946613 
L 123.567866 112.75912 
L 124.279471 108.936777 
L 125.346879 100.814672 
L 126.770089 89.526391 
L 127.125891 87.939759 
L 127.481694 87.553883 
L 127.837496 88.706186 
L 128.193299 91.594868 
L 128.549101 96.214036 
L 129.260706 109.508122 
L 130.328114 131.470317 
L 131.039719 140.999493 
L 131.395521 143.256343 
L 131.751324 143.805664 
L 132.107126 142.812472 
L 132.462929 140.547041 
L 133.174534 133.499153 
L 135.665152 105.440353 
L 137.444164 88.509848 
L 138.155769 84.030899 
L 138.511572 83.041552 
L 138.867374 83.090887 
L 139.223177 84.188925 
L 139.934782 88.810625 
L 140.646387 94.311039 
L 141.002189 96.417665 
L 141.357992 97.733832 
L 141.713794 98.165261 
L 142.069597 97.753572 
L 142.425399 96.63542 
L 143.137004 93.000062 
L 145.627622 77.077519 
L 146.339227 71.10075 
L 147.762437 57.340687 
L 148.11824 55.226418 
L 148.474042 54.317237 
L 148.829845 54.767983 
L 149.185647 56.549112 
L 149.897252 63.067169 
L 150.96466 73.61243 
L 151.320462 75.797364 
L 152.032067 75.228153 
L 152.743672 75.746256 
L 153.099475 75.338458 
L 153.455277 73.928772 
L 153.81108 71.466717 
L 155.23429 58.286167 
L 155.590092 56.319166 
L 155.945895 55.282549 
L 156.301697 55.040458 
L 156.6575 55.336193 
L 157.724907 56.87463 
L 158.792315 57.739016 
L 159.148118 58.819227 
L 159.859723 63.020525 
L 160.571328 66.920807 
L 160.92713 67.813369 
L 161.282933 67.736118 
L 161.638735 66.698794 
L 162.35034 62.641207 
L 163.061945 58.65483 
L 163.417748 57.826018 
L 163.77355 58.235832 
L 164.129353 60.037865 
L 164.485155 63.205578 
L 165.19676 72.777426 
L 167.331575 106.488192 
L 168.04318 115.210826 
L 168.754785 121.75989 
L 169.46639 125.747857 
L 170.177995 127.750062 
L 170.889601 129.274559 
L 171.601206 131.565325 
L 172.668613 135.548016 
L 173.024416 134.812486 
L 173.736021 129.861418 
L 174.447626 124.390578 
L 175.159231 121.017587 
L 175.870836 118.770024 
L 176.226638 116.807869 
L 176.582441 113.486596 
L 176.938243 108.372982 
L 177.649848 92.479402 
L 179.073058 52.927647 
L 179.428861 46.401675 
L 179.784663 42.695848 
L 180.140466 42.093317 
L 180.496268 44.52645 
L 180.852071 49.594735 
L 181.563676 64.812766 
L 182.631083 88.039109 
L 182.986886 93.320659 
L 183.342689 96.873195 
L 183.698491 98.684252 
L 184.054294 98.861848 
L 184.410096 97.572957 
L 184.765899 94.997401 
L 185.477504 86.686287 
L 187.256516 60.074896 
L 187.612319 57.231214 
L 187.968121 56.288582 
L 188.323924 57.427998 
L 188.679726 60.565568 
L 189.391331 71.231966 
L 190.458739 89.015668 
L 191.170344 96.483412 
L 191.526146 98.544972 
L 191.881949 99.723384 
L 192.237751 100.292062 
L 193.305159 101.003605 
L 193.660961 101.544352 
L 194.372566 103.38864 
L 195.084171 105.487816 
L 195.439974 106.200741 
L 195.795776 106.518546 
L 196.151579 106.432322 
L 197.218987 105.18929 
L 197.574789 105.127888 
L 197.930592 105.458263 
L 199.353802 107.98936 
L 199.709604 107.684554 
L 200.065407 106.645726 
L 200.421209 104.899569 
L 201.488617 97.2743 
L 202.200222 92.643702 
L 202.556024 91.060722 
L 202.911827 90.116692 
L 203.267629 89.87197 
L 203.623432 90.359684 
L 203.979234 91.598187 
L 204.335037 93.59924 
L 205.046642 99.878239 
L 206.114049 113.622121 
L 206.825654 122.374967 
L 207.181457 125.327852 
L 207.537259 126.832552 
L 207.893062 126.706573 
L 208.248864 124.956835 
L 208.604667 121.753929 
L 209.316272 112.141724 
L 210.739482 89.610645 
L 211.095285 85.568753 
L 211.451087 83.02727 
L 211.80689 82.296721 
L 212.162692 83.479918 
L 212.518495 86.417326 
L 213.2301 95.702453 
L 213.941705 105.246358 
L 214.297507 108.654653 
L 214.65331 110.70185 
L 215.009112 111.311166 
L 215.364915 110.589048 
L 215.364915 110.589048 
" clip-path="url(#pac7965e991)" style="fill: none; stroke: #808080; stroke-opacity: 0.25; stroke-width: 1.5; stroke-linecap: square"/>
   </g>
   <g id="line2d_12">
    <path d="M 37.81946 96.326856 
L 38.175263 94.718946 
L 38.531065 93.905785 
L 38.886868 94.289363 
L 39.24267 96.045002 
L 39.954275 102.873477 
L 40.66588 110.173895 
L 41.021683 112.09152 
L 41.377485 111.999465 
L 41.733288 109.566925 
L 42.08909 104.778135 
L 42.800695 89.54002 
L 44.223905 55.567343 
L 44.579708 50.485111 
L 44.935511 47.833146 
L 46.002918 51.81019 
L 46.714523 54.487052 
L 47.426128 58.032243 
L 48.493536 65.098357 
L 49.560943 71.89764 
L 49.916746 73.38196 
L 50.272548 74.291299 
L 50.628351 74.669083 
L 51.339956 74.79083 
L 51.695758 75.358357 
L 52.051561 76.602272 
L 52.407363 74.507192 
L 53.118968 67.698829 
L 54.897981 44.975714 
L 55.253783 42.838575 
L 55.609586 42.431523 
L 55.965388 43.955798 
L 56.321191 47.464296 
L 57.032796 59.815457 
L 59.167611 107.379932 
L 60.590821 82.62772 
L 61.302426 73.140931 
L 61.658229 70.246431 
L 62.014031 69.018291 
L 62.369834 69.606983 
L 62.725636 71.972858 
L 63.437241 81.032719 
L 65.216254 109.819572 
L 65.572056 113.243194 
L 65.927859 114.9951 
L 66.283661 114.81437 
L 66.639464 112.589905 
L 66.995266 108.411368 
L 67.706871 95.643337 
L 68.774279 74.599323 
L 69.485884 65.962732 
L 69.841686 64.103866 
L 70.197489 63.887753 
L 70.553292 65.209268 
L 70.909094 67.933401 
L 71.620699 76.977875 
L 72.688107 96.311757 
L 73.755514 114.79574 
L 74.111317 118.979284 
L 74.467119 121.572831 
L 74.822922 122.311522 
L 75.178724 121.065824 
L 75.534527 117.899771 
L 76.246132 107.211761 
L 77.313539 89.970043 
L 77.669342 86.603057 
L 78.025144 85.140653 
L 78.380947 85.668224 
L 78.736749 88.047045 
L 79.448354 96.913116 
L 80.159959 107.785718 
L 80.515762 110.441766 
L 81.583169 98.121066 
L 83.00638 85.003892 
L 83.717985 79.561328 
L 84.073787 77.952894 
L 84.42959 77.540284 
L 84.785392 78.514957 
L 85.141195 80.856099 
L 85.8528 88.483095 
L 86.920207 100.59633 
L 87.27601 103.489575 
L 87.631812 104.492054 
L 88.69922 97.934151 
L 89.055022 96.208209 
L 89.410825 95.158087 
L 89.766627 95.078695 
L 90.12243 96.139093 
L 90.478232 98.298571 
L 91.901442 109.432593 
L 92.257245 109.775231 
L 92.613047 108.153992 
L 92.96885 104.475736 
L 93.680455 92.094945 
L 94.39206 77.341009 
L 94.747862 74.730163 
L 95.459468 83.299946 
L 95.81527 85.203301 
L 96.171073 85.339967 
L 96.526875 83.90849 
L 97.23848 78.122727 
L 97.950085 72.068534 
L 98.305888 70.009978 
L 98.66169 68.79232 
L 99.017493 68.282659 
L 99.729098 68.080762 
L 100.0849 67.645917 
L 100.440703 66.649541 
L 101.152308 63.088704 
L 101.50811 61.04017 
L 101.863913 60.570204 
L 102.575518 66.232247 
L 103.642925 77.637053 
L 105.421938 97.312647 
L 105.77774 99.55844 
L 106.133543 100.578248 
L 106.489345 100.254874 
L 106.845148 98.673428 
L 107.556753 93.113548 
L 108.268358 87.743621 
L 108.624161 86.183767 
L 108.979963 85.967238 
L 109.691568 86.965244 
L 110.047371 87.907053 
L 110.403173 89.563861 
L 111.114778 95.046952 
L 112.182186 104.243092 
L 112.893791 107.703837 
L 113.605396 109.345218 
L 114.317001 110.997163 
L 115.028606 113.679351 
L 115.740211 117.499507 
L 116.451816 122.894193 
L 117.163421 130.583987 
L 118.230828 143.439242 
L 118.586631 145.991606 
L 118.942433 146.672297 
L 119.298236 145.155852 
L 119.654038 141.47511 
L 120.365644 129.573322 
L 121.077249 116.856989 
L 121.788854 108.295937 
L 122.500459 103.733591 
L 122.856261 101.618025 
L 123.212064 98.77976 
L 123.923669 89.731416 
L 124.991076 72.146978 
L 125.346879 68.051524 
L 125.702681 66.02685 
L 126.058484 66.413439 
L 126.414286 69.176106 
L 127.125891 79.937427 
L 128.193299 97.454885 
L 128.549101 100.799048 
L 128.904904 102.264234 
L 129.260706 101.836122 
L 129.616509 99.708984 
L 130.328114 91.865217 
L 131.395521 78.137047 
L 132.107126 72.070501 
L 132.462929 70.476361 
L 132.818731 69.842217 
L 133.174534 70.106087 
L 133.530337 71.190948 
L 133.886139 73.017935 
L 134.597744 78.564967 
L 135.665152 90.028688 
L 136.732559 101.905885 
L 137.444164 107.775669 
L 137.799967 109.557579 
L 138.155769 110.382853 
L 138.511572 110.180596 
L 138.867374 108.959764 
L 139.223177 106.819657 
L 139.934782 100.591693 
L 141.357992 87.217903 
L 142.425399 79.519086 
L 143.137004 75.174442 
L 143.492807 73.514051 
L 143.848609 72.43723 
L 144.204412 72.075224 
L 144.560214 72.45087 
L 144.916017 73.462009 
L 146.69503 80.448494 
L 147.050832 81.054241 
L 147.406635 81.264932 
L 147.762437 81.100776 
L 148.11824 80.599074 
L 148.829845 78.84829 
L 149.54145 76.84078 
L 149.897252 76.082966 
L 150.253055 75.638672 
L 150.608857 75.549283 
L 150.96466 75.777662 
L 151.320462 76.208278 
L 151.676265 76.090629 
L 152.032067 76.366653 
L 152.38787 77.579637 
L 152.743672 79.668454 
L 154.166882 90.524178 
L 154.522685 91.455277 
L 154.878487 90.774034 
L 155.23429 88.318736 
L 155.945895 78.814471 
L 157.013302 61.587466 
L 157.369105 57.760945 
L 157.724907 55.670929 
L 158.08071 55.427199 
L 158.436513 56.898664 
L 158.792315 56.079079 
L 159.148118 54.373214 
L 159.50392 53.714543 
L 159.859723 54.257398 
L 160.215525 55.982899 
L 160.92713 62.13688 
L 161.994538 72.902417 
L 162.706143 77.803364 
L 163.417748 80.662464 
L 166.264168 89.07044 
L 166.975773 90.91368 
L 167.687378 93.427682 
L 168.398983 97.271546 
L 169.110588 103.080767 
L 169.822193 111.065877 
L 171.245403 128.536312 
L 171.957008 133.957352 
L 172.312811 135.309838 
L 172.668613 135.760503 
L 173.024416 135.519056 
L 173.380218 134.161218 
L 174.091823 128.767531 
L 175.159231 119.966834 
L 175.870836 116.492905 
L 176.582441 113.396227 
L 176.938243 110.96661 
L 177.294046 107.501572 
L 178.005651 97.23208 
L 179.428861 72.483343 
L 179.784663 68.228488 
L 180.140466 65.401929 
L 180.496268 63.997432 
L 180.852071 63.810813 
L 181.207873 64.499145 
L 183.698491 72.700294 
L 184.054294 74.769863 
L 184.765899 81.167411 
L 185.477504 90.214812 
L 187.612319 119.995713 
L 188.323924 127.272317 
L 189.035529 131.759799 
L 189.391331 132.740668 
L 189.747134 132.837973 
L 190.102936 132.105931 
L 190.814541 128.868291 
L 191.526146 125.364342 
L 191.881949 124.363694 
L 192.237751 124.102909 
L 192.593554 124.484224 
L 193.305159 125.645513 
L 193.660961 125.363915 
L 194.016764 123.883752 
L 194.372566 121.000412 
L 195.084171 111.648052 
L 196.151579 96.00349 
L 196.507382 92.443653 
L 196.863184 90.233822 
L 197.218987 89.442068 
L 197.574789 89.999916 
L 197.930592 91.733467 
L 198.642197 97.638925 
L 199.709604 107.025408 
L 200.065407 108.65877 
L 200.421209 109.007505 
L 200.777012 107.979958 
L 201.132814 105.718744 
L 202.200222 96.320489 
L 202.556024 94.48916 
L 202.911827 94.250968 
L 203.267629 95.833514 
L 203.623432 99.148553 
L 204.335037 109.209897 
L 205.046642 119.358021 
L 205.402444 122.808064 
L 205.758247 124.581256 
L 206.114049 124.506302 
L 206.469852 122.631983 
L 206.825654 119.190019 
L 207.537259 109.103479 
L 208.96047 87.260528 
L 209.672075 79.494339 
L 210.38368 74.07035 
L 211.451087 68.277668 
L 212.162692 65.299998 
L 212.518495 64.30305 
L 212.874297 63.856568 
L 213.2301 64.121695 
L 213.585902 65.206499 
L 213.941705 67.14289 
L 214.65331 73.339845 
L 215.364915 81.883478 
L 215.364915 81.883478 
" clip-path="url(#pac7965e991)" style="fill: none; stroke: #808080; stroke-opacity: 0.25; stroke-width: 1.5; stroke-linecap: square"/>
   </g>
   <g id="line2d_13">
    <path d="M 37.81946 96.326855 
L 39.24267 103.691995 
L 39.598473 104.201178 
L 39.954275 103.47103 
L 40.310078 101.391895 
L 40.66588 98.022628 
L 41.377485 88.241244 
L 43.5123 53.959223 
L 43.868103 50.259897 
L 44.223905 47.867668 
L 44.579708 47.017159 
L 44.935511 47.703248 
L 45.291313 46.317311 
L 45.647116 45.643087 
L 46.002918 45.820388 
L 46.358721 46.999999 
L 46.714523 49.30362 
L 47.426128 57.313147 
L 49.205141 82.974921 
L 49.560943 85.274429 
L 49.916746 85.935711 
L 50.272548 85.128989 
L 50.984153 80.976628 
L 51.695758 77.334904 
L 52.051561 76.788696 
L 52.763166 78.225942 
L 53.118968 79.595817 
L 53.474771 81.763235 
L 54.186376 88.366752 
L 54.897981 95.546061 
L 55.253783 98.097485 
L 55.609586 99.499911 
L 55.965388 99.735769 
L 56.321191 99.075232 
L 57.032796 97.113945 
L 57.388599 96.913653 
L 57.744401 97.731535 
L 58.100204 99.617894 
L 59.167611 107.828342 
L 60.235019 100.181749 
L 60.946624 97.187947 
L 61.302426 96.384944 
L 61.658229 96.0448 
L 62.014031 96.220816 
L 62.369834 96.979281 
L 62.725636 98.339097 
L 64.148846 106.072576 
L 64.504649 106.839086 
L 64.860451 106.510097 
L 65.216254 105.024148 
L 65.927859 99.256142 
L 67.351069 85.111045 
L 68.062674 79.741818 
L 68.774279 75.865772 
L 69.130081 74.62278 
L 69.485884 73.987842 
L 69.841686 74.074086 
L 70.197489 74.963714 
L 70.553292 76.690484 
L 71.264897 82.505057 
L 73.043909 100.856832 
L 73.399712 101.951942 
L 73.755514 101.22641 
L 74.111317 98.636301 
L 74.822922 89.396504 
L 75.534527 79.947688 
L 75.890329 77.284786 
L 76.246132 76.722134 
L 76.601934 78.323836 
L 76.957737 81.765901 
L 78.736749 104.58441 
L 79.448354 108.911019 
L 80.159959 110.959743 
L 80.515762 111.3459 
L 80.871564 109.994008 
L 81.227367 107.72096 
L 81.938972 100.969254 
L 83.00638 89.538966 
L 83.362182 86.740027 
L 83.717985 85.002753 
L 84.073787 84.588946 
L 84.42959 85.644005 
L 84.785392 88.133769 
L 85.496997 96.145798 
L 86.208602 104.232474 
L 86.564405 106.678712 
L 86.920207 107.505587 
L 87.631812 105.800948 
L 88.69922 113.114872 
L 89.055022 114.66348 
L 89.410825 115.582278 
L 89.766627 115.953007 
L 90.12243 115.874066 
L 90.478232 115.376601 
L 90.834035 114.377624 
L 91.189837 112.68648 
L 91.54564 110.064112 
L 92.257245 101.411508 
L 93.680455 77.62253 
L 94.036257 74.000111 
L 94.39206 72.563801 
L 94.747862 72.34539 
L 95.459468 66.362907 
L 96.171073 59.813352 
L 96.526875 57.711811 
L 96.882678 56.756157 
L 97.23848 56.869774 
L 97.594283 57.740592 
L 98.305888 60.006019 
L 98.66169 60.651503 
L 99.017493 60.731134 
L 99.373295 60.292757 
L 100.440703 57.996736 
L 100.796505 57.710265 
L 101.152308 57.972166 
L 101.50811 58.896645 
L 101.863913 59.319492 
L 102.219715 58.310907 
L 102.575518 58.007961 
L 102.93132 58.291623 
L 103.287123 59.066843 
L 103.642925 60.301255 
L 103.998728 62.029828 
L 104.710333 67.223971 
L 105.77774 78.648211 
L 106.489345 85.814084 
L 106.845148 88.274385 
L 107.20095 89.706021 
L 107.556753 90.079962 
L 107.912556 89.521839 
L 108.624161 86.682581 
L 108.979963 86.440815 
L 110.047371 91.886367 
L 110.758976 94.570582 
L 111.114778 95.423536 
L 111.470581 95.81004 
L 111.826383 95.651801 
L 112.182186 94.974753 
L 112.893791 92.977267 
L 113.249593 92.47981 
L 113.605396 92.95353 
L 113.961198 94.772664 
L 114.317001 98.107767 
L 115.028606 108.76166 
L 116.096013 127.731814 
L 116.807618 136.072217 
L 117.163421 137.86406 
L 117.519223 137.905918 
L 117.875026 136.205493 
L 118.230828 132.825521 
L 118.942433 121.348473 
L 119.654038 104.144805 
L 122.144656 33.416173 
L 122.500459 29.561183 
L 122.856261 28.62 
L 123.212064 30.470603 
L 123.567866 34.716468 
L 124.279471 47.93408 
L 125.702681 76.899265 
L 126.770089 93.372815 
L 127.837496 106.100307 
L 128.549101 111.690357 
L 128.904904 113.214658 
L 129.260706 113.807314 
L 129.616509 113.514892 
L 129.972311 112.478165 
L 131.751324 105.069779 
L 132.107126 104.901679 
L 132.462929 105.445886 
L 133.174534 108.093093 
L 133.886139 110.831923 
L 134.241942 111.348151 
L 134.597744 110.914594 
L 134.953547 109.397711 
L 135.309349 106.818993 
L 136.020954 99.284115 
L 137.088362 87.173506 
L 137.799967 82.223663 
L 138.155769 81.068959 
L 138.511572 80.667835 
L 138.867374 80.799894 
L 139.934782 81.910923 
L 140.290584 81.988197 
L 141.002189 81.922005 
L 141.357992 82.22361 
L 141.713794 83.125048 
L 142.069597 84.88975 
L 142.425399 87.70748 
L 143.137004 96.714459 
L 144.204412 116.595166 
L 145.627622 143.701079 
L 145.983425 148.546169 
L 146.339227 151.828121 
L 146.69503 153.037016 
L 147.050832 151.674315 
L 147.406635 147.376055 
L 147.762437 140.056462 
L 148.474042 118.02622 
L 149.54145 82.18445 
L 149.897252 74.353428 
L 150.253055 69.880704 
L 150.608857 68.80837 
L 150.96466 70.675775 
L 151.320462 74.639782 
L 151.676265 73.106134 
L 152.032067 68.676277 
L 152.38787 65.764417 
L 152.743672 64.831272 
L 153.099475 65.945443 
L 153.455277 68.795181 
L 154.878487 83.509421 
L 155.23429 84.56767 
L 155.590092 83.922554 
L 155.945895 81.739691 
L 156.6575 74.327167 
L 157.724907 62.285568 
L 158.08071 59.520479 
L 158.436513 57.907262 
L 158.792315 58.1034 
L 159.148118 58.701712 
L 159.50392 59.019583 
L 159.859723 58.818741 
L 160.215525 57.977298 
L 160.92713 54.631987 
L 161.638735 50.778834 
L 161.994538 49.563918 
L 162.35034 49.292484 
L 162.706143 50.197893 
L 163.061945 52.338832 
L 163.77355 59.440338 
L 164.485155 66.918797 
L 164.840958 69.339905 
L 165.19676 70.389974 
L 165.552563 70.066561 
L 165.908365 68.676365 
L 166.61997 64.924746 
L 166.975773 63.776692 
L 167.331575 63.749866 
L 167.687378 65.096072 
L 168.04318 67.885769 
L 168.754785 77.412379 
L 169.822193 98.195006 
L 170.889601 119.271281 
L 171.601206 129.267041 
L 171.957008 132.504315 
L 172.312811 134.578548 
L 172.668613 135.62209 
L 173.024416 135.052712 
L 173.380218 132.933927 
L 174.091823 125.228689 
L 174.803428 116.24085 
L 175.159231 112.951158 
L 175.515033 111.238091 
L 175.870836 111.38469 
L 176.226638 113.358036 
L 176.938243 121.250129 
L 178.005651 134.169631 
L 178.361453 136.845655 
L 178.717256 138.354799 
L 179.073058 138.687226 
L 179.428861 137.887822 
L 179.784663 136.006379 
L 180.140466 133.081689 
L 180.852071 124.385802 
L 182.275281 104.100884 
L 182.631083 101.567812 
L 182.986886 100.997027 
L 183.342689 102.398655 
L 184.054294 109.262188 
L 184.765899 115.98946 
L 185.121701 117.277963 
L 185.477504 116.679784 
L 185.833306 114.372364 
L 186.900714 104.052303 
L 187.256516 102.158928 
L 187.612319 101.89134 
L 187.968121 103.227515 
L 188.679726 109.040922 
L 189.391331 114.94339 
L 189.747134 116.608202 
L 190.102936 117.066591 
L 190.458739 116.314441 
L 190.814541 114.520523 
L 192.593554 102.132083 
L 192.949356 101.460089 
L 193.305159 101.843975 
L 193.660961 103.20032 
L 194.372566 107.838863 
L 195.084171 112.641785 
L 195.439974 114.143029 
L 195.795776 114.588384 
L 196.151579 113.7126 
L 196.507382 111.339231 
L 196.863184 107.405922 
L 197.574789 95.295406 
L 199.353802 57.544559 
L 200.065407 48.703441 
L 200.421209 46.611044 
L 200.777012 45.950541 
L 201.132814 46.443964 
L 201.844419 49.324601 
L 202.556024 52.127542 
L 202.911827 52.889478 
L 203.267629 53.234396 
L 203.623432 53.396514 
L 203.979234 53.741934 
L 204.335037 54.685389 
L 204.690839 56.587453 
L 205.046642 59.655207 
L 205.758247 68.976334 
L 206.825654 84.501086 
L 207.181457 87.957641 
L 207.537259 90.008997 
L 207.893062 90.673237 
L 208.248864 90.183244 
L 208.96047 87.228706 
L 210.027877 82.304918 
L 211.095285 77.626051 
L 212.518495 70.735776 
L 212.874297 69.725367 
L 213.2301 69.159407 
L 213.585902 68.964674 
L 213.941705 69.025741 
L 214.297507 69.255865 
L 214.65331 69.658025 
L 215.009112 70.34878 
L 215.364915 71.533522 
L 215.364915 71.533522 
" clip-path="url(#pac7965e991)" style="fill: none; stroke: #808080; stroke-opacity: 0.25; stroke-width: 1.5; stroke-linecap: square"/>
   </g>
   <g id="line2d_14">
    <path d="M 37.81946 96.326855 
L 38.175263 93.790741 
L 38.531065 89.509458 
L 40.310078 61.519835 
L 40.66588 58.938849 
L 41.021683 57.67451 
L 41.733288 56.842805 
L 42.08909 55.979984 
L 42.444893 54.230144 
L 43.156498 48.359007 
L 43.868103 43.046662 
L 44.223905 42.483103 
L 44.579708 44.071368 
L 44.935511 47.569613 
L 45.647116 38.359722 
L 46.002918 35.191367 
L 46.358721 33.62137 
L 46.714523 33.951001 
L 47.070326 36.240726 
L 47.426128 40.288462 
L 48.493536 58.083158 
L 49.205141 69.039871 
L 49.916746 75.887966 
L 50.272548 77.596207 
L 50.628351 78.307357 
L 50.984153 78.247026 
L 52.051561 76.782731 
L 52.763166 77.859682 
L 53.118968 78.15361 
L 54.186376 78.60777 
L 54.542178 79.267755 
L 54.897981 80.468842 
L 55.609586 84.426388 
L 56.676993 91.436959 
L 58.456006 101.196202 
L 59.167611 107.629178 
L 59.879216 96.283943 
L 60.946624 78.324585 
L 61.302426 74.683922 
L 61.658229 72.928153 
L 62.014031 73.144888 
L 62.369834 75.210326 
L 62.725636 78.857376 
L 63.437241 89.601579 
L 64.860451 117.553112 
L 65.572056 130.699337 
L 66.283661 139.411658 
L 66.639464 141.234133 
L 66.995266 141.155439 
L 67.351069 139.235951 
L 67.706871 135.695468 
L 68.418476 125.130248 
L 70.197489 95.290125 
L 70.909094 87.447743 
L 71.620699 82.905912 
L 71.976502 81.692075 
L 72.332304 81.113764 
L 72.688107 81.215888 
L 73.043909 82.12597 
L 73.399712 84.000841 
L 73.755514 86.936899 
L 74.467119 95.567435 
L 75.534527 109.284099 
L 75.890329 112.141499 
L 76.246132 113.747359 
L 76.601934 114.22201 
L 76.957737 113.878087 
L 77.669342 112.359372 
L 78.025144 111.88516 
L 78.380947 111.849807 
L 78.736749 112.227752 
L 79.448354 113.353964 
L 79.804157 113.431705 
L 80.515762 112.032188 
L 81.938972 120.267118 
L 82.294774 121.091632 
L 82.650577 120.846504 
L 83.00638 119.419585 
L 83.362182 116.880109 
L 85.141195 100.200678 
L 85.496997 99.082546 
L 85.8528 99.188043 
L 86.208602 100.288636 
L 87.27601 104.817859 
L 87.631812 105.058493 
L 87.987615 105.118842 
L 88.343417 105.613354 
L 89.410825 107.68714 
L 89.766627 107.864123 
L 90.12243 107.555908 
L 90.478232 106.711486 
L 90.834035 105.317705 
L 91.54564 100.996282 
L 92.613047 92.106134 
L 94.747862 74.237359 
L 95.459468 84.984639 
L 96.882678 109.433517 
L 97.23848 113.462303 
L 97.594283 115.926357 
L 97.950085 116.586806 
L 98.305888 115.292964 
L 98.66169 112.011656 
L 99.373295 100.143445 
L 100.796505 68.996237 
L 101.152308 63.640709 
L 101.50811 60.518385 
L 102.219715 59.072647 
L 102.575518 57.065756 
L 103.287123 49.996529 
L 104.35453 37.175097 
L 104.710333 34.416179 
L 105.066135 33.314827 
L 105.421938 34.228735 
L 105.77774 37.281674 
L 106.489345 48.922153 
L 107.912556 77.363453 
L 108.268358 81.86535 
L 108.624161 84.719125 
L 108.979963 85.429094 
L 109.335766 85.773395 
L 109.691568 87.140477 
L 110.758976 92.279953 
L 111.114778 93.066066 
L 111.470581 93.174666 
L 111.826383 92.767385 
L 112.537988 91.700703 
L 112.893791 91.755088 
L 113.249593 92.532112 
L 113.605396 94.063302 
L 115.028606 102.162379 
L 115.384408 102.583559 
L 115.740211 101.693237 
L 116.096013 99.424653 
L 116.807618 91.462184 
L 117.875026 77.263592 
L 118.230828 73.875219 
L 118.586631 71.787761 
L 118.942433 71.204709 
L 119.298236 72.21823 
L 119.654038 74.825111 
L 120.009841 78.93182 
L 120.721446 90.739055 
L 121.788854 110.869325 
L 122.500459 119.483384 
L 122.856261 121.200703 
L 123.212064 121.171817 
L 123.567866 119.665965 
L 124.279471 114.069044 
L 124.991076 108.653919 
L 125.346879 107.237252 
L 125.702681 107.092384 
L 126.058484 108.284158 
L 126.414286 110.644218 
L 127.481694 120.097876 
L 127.837496 122.096543 
L 128.193299 122.735099 
L 128.549101 121.836618 
L 128.904904 119.448027 
L 129.616509 111.188258 
L 131.395521 85.790685 
L 132.107126 79.681437 
L 132.462929 78.182767 
L 132.818731 77.723582 
L 133.174534 78.206012 
L 133.530337 79.482671 
L 134.241942 83.765989 
L 135.309349 92.680124 
L 136.020954 100.063663 
L 136.732559 109.662389 
L 138.511572 139.675517 
L 138.867374 142.812974 
L 139.223177 143.678814 
L 139.578979 142.162859 
L 139.934782 138.511046 
L 140.646387 127.071818 
L 141.713794 108.768641 
L 142.425399 99.372013 
L 143.137004 92.062867 
L 143.848609 86.439977 
L 144.560214 82.660134 
L 144.916017 81.532672 
L 145.271819 80.915953 
L 145.627622 80.776182 
L 145.983425 81.033969 
L 147.050832 82.390429 
L 147.406635 82.171138 
L 147.762437 81.227233 
L 148.11824 79.507292 
L 149.54145 70.086444 
L 149.897252 69.140622 
L 150.253055 69.333222 
L 150.608857 70.624622 
L 151.320462 75.402661 
L 151.676265 74.691585 
L 152.032067 72.973551 
L 152.38787 72.548181 
L 152.743672 73.431764 
L 153.099475 75.453495 
L 154.878487 89.663428 
L 155.23429 90.730535 
L 155.590092 90.636017 
L 155.945895 89.301814 
L 156.301697 86.738153 
L 157.013302 78.464517 
L 158.436513 58.789553 
L 158.792315 60.05766 
L 160.92713 83.230732 
L 161.638735 93.887954 
L 163.417748 125.418258 
L 163.77355 129.15464 
L 164.129353 131.154768 
L 164.485155 131.371961 
L 164.840958 129.933141 
L 165.19676 127.076416 
L 165.908365 118.215722 
L 168.04318 86.352691 
L 168.398983 84.184133 
L 168.754785 83.993784 
L 169.110588 85.907378 
L 169.46639 89.804172 
L 170.177995 101.95384 
L 171.245403 122.43808 
L 171.957008 131.852398 
L 172.312811 134.494214 
L 172.668613 135.671016 
L 173.024416 135.435417 
L 173.380218 134.330264 
L 173.736021 132.355237 
L 174.091823 129.43238 
L 174.803428 120.306961 
L 175.515033 106.243235 
L 177.294046 64.899175 
L 177.649848 60.924523 
L 178.005651 59.573125 
L 178.361453 60.723563 
L 178.717256 63.896069 
L 180.140466 81.81034 
L 180.496268 84.536815 
L 180.852071 86.132059 
L 181.207873 86.793912 
L 181.563676 86.849761 
L 182.275281 86.557567 
L 182.631083 86.767474 
L 182.986886 87.423863 
L 183.342689 88.560272 
L 184.054294 92.03155 
L 185.833306 101.908448 
L 186.900714 107.546121 
L 188.323924 116.785021 
L 188.679726 117.60018 
L 189.035529 117.006135 
L 189.391331 114.861917 
L 190.102936 106.894542 
L 190.814541 98.236231 
L 191.170344 95.547452 
L 191.526146 94.6767 
L 191.881949 95.755887 
L 192.237751 98.539546 
L 193.660961 113.451646 
L 194.016764 114.666657 
L 194.372566 114.102405 
L 194.728369 111.821154 
L 195.439974 103.412249 
L 196.507382 88.61397 
L 197.218987 82.372669 
L 197.574789 80.936106 
L 197.930592 80.564988 
L 198.286394 81.112538 
L 198.642197 82.423178 
L 198.997999 84.388951 
L 199.709604 90.238046 
L 200.421209 99.016955 
L 201.488617 116.942959 
L 202.200222 128.622393 
L 202.556024 133.006484 
L 202.911827 135.83038 
L 203.267629 136.773547 
L 203.623432 135.663448 
L 203.979234 132.497937 
L 204.690839 120.812117 
L 205.758247 95.617682 
L 206.825654 70.926328 
L 207.537259 59.362232 
L 207.893062 56.05264 
L 208.248864 54.755703 
L 208.604667 55.583014 
L 208.96047 58.442014 
L 209.672075 68.778323 
L 210.739482 86.903209 
L 211.451087 94.65864 
L 211.80689 96.588928 
L 212.162692 97.314105 
L 212.518495 97.045493 
L 212.874297 96.068559 
L 213.941705 92.277898 
L 214.297507 91.78417 
L 214.65331 92.002194 
L 215.009112 92.917191 
L 215.364915 94.354491 
L 215.364915 94.354491 
" clip-path="url(#pac7965e991)" style="fill: none; stroke: #808080; stroke-opacity: 0.25; stroke-width: 1.5; stroke-linecap: square"/>
   </g>
   <g id="line2d_15">
    <path d="M 37.81946 96.326856 
L 38.175263 96.241485 
L 38.531065 97.217247 
L 39.24267 101.393301 
L 39.954275 105.892549 
L 40.310078 107.123429 
L 40.66588 107.117979 
L 41.021683 105.564201 
L 41.377485 102.27908 
L 41.733288 97.24027 
L 42.444893 82.750964 
L 43.5123 57.965865 
L 43.868103 51.806398 
L 44.223905 47.846109 
L 44.579708 46.496041 
L 44.935511 47.661872 
L 46.002918 39.453979 
L 46.358721 37.623436 
L 46.714523 36.668213 
L 47.070326 36.697236 
L 47.426128 37.727581 
L 47.781931 39.710357 
L 48.493536 46.130206 
L 50.628351 70.794947 
L 51.339956 74.947211 
L 51.695758 76.066362 
L 52.051561 76.725417 
L 52.407363 77.057512 
L 52.763166 78.200401 
L 53.474771 82.320262 
L 55.253783 95.259653 
L 55.609586 96.851818 
L 55.965388 97.814743 
L 56.321191 98.158395 
L 56.676993 98.002189 
L 57.388599 97.23634 
L 57.744401 97.363757 
L 58.100204 98.358576 
L 58.456006 100.530604 
L 59.167611 107.53764 
L 59.879216 94.118864 
L 60.946624 72.222631 
L 61.302426 67.31377 
L 61.658229 64.429841 
L 62.014031 63.745631 
L 62.369834 65.210937 
L 62.725636 68.581819 
L 63.437241 79.407088 
L 64.860451 104.559265 
L 65.572056 113.401846 
L 65.927859 116.137959 
L 66.283661 117.551464 
L 66.639464 117.567794 
L 66.995266 116.232812 
L 67.706871 110.516934 
L 68.418476 103.818191 
L 68.774279 101.388242 
L 69.130081 100.060625 
L 69.485884 99.95679 
L 69.841686 100.985535 
L 70.553292 105.231958 
L 71.264897 109.476347 
L 71.620699 110.453017 
L 71.976502 110.175066 
L 72.332304 108.44602 
L 72.688107 105.276009 
L 74.467119 84.363927 
L 74.822922 84.015923 
L 75.178724 85.936411 
L 75.534527 89.833033 
L 76.957737 109.647393 
L 77.313539 111.931499 
L 77.669342 112.612336 
L 78.025144 112.023611 
L 79.092552 108.231067 
L 79.448354 107.951757 
L 79.804157 108.573089 
L 80.159959 110.024046 
L 80.515762 111.00517 
L 81.227367 104.895297 
L 81.938972 98.845401 
L 82.294774 97.152869 
L 82.650577 96.837155 
L 83.00638 98.039514 
L 83.362182 100.683711 
L 84.073787 108.924666 
L 84.785392 117.344924 
L 85.141195 120.122498 
L 85.496997 121.385097 
L 85.8528 121.000245 
L 86.208602 119.087291 
L 86.920207 112.113676 
L 87.27601 107.997507 
L 87.631812 106.091043 
L 87.987615 108.735968 
L 88.343417 109.968524 
L 88.69922 109.659924 
L 89.055022 107.796554 
L 89.410825 104.46089 
L 90.12243 94.133013 
L 91.901442 63.895552 
L 92.257245 60.574101 
L 92.613047 58.887137 
L 92.96885 58.853435 
L 93.324652 60.318236 
L 94.036257 66.453789 
L 94.39206 70.307481 
L 94.747862 71.687258 
L 95.103665 68.637012 
L 95.459468 66.956176 
L 95.81527 66.570243 
L 96.171073 67.272032 
L 96.526875 68.786898 
L 97.23848 73.216612 
L 98.66169 83.151133 
L 99.017493 84.826931 
L 99.373295 85.518376 
L 99.729098 84.829235 
L 100.0849 82.503288 
L 100.796505 73.394834 
L 101.50811 62.525049 
L 101.863913 61.168322 
L 102.575518 66.683345 
L 103.642925 71.118775 
L 103.998728 73.594387 
L 104.35453 77.295151 
L 106.133543 101.313137 
L 106.489345 102.597147 
L 106.845148 101.894398 
L 107.20095 99.525766 
L 108.624161 86.523423 
L 108.979963 86.081807 
L 109.335766 86.34642 
L 109.691568 85.772638 
L 110.403173 83.853609 
L 110.758976 83.588087 
L 111.114778 84.463077 
L 111.470581 86.816481 
L 111.826383 90.756869 
L 112.537988 102.492208 
L 113.605396 121.038201 
L 113.961198 124.889529 
L 114.317001 126.947054 
L 114.672803 127.258724 
L 115.028606 126.15937 
L 116.096013 120.215651 
L 116.451816 119.259407 
L 116.807618 119.361403 
L 117.163421 120.481213 
L 117.875026 124.584757 
L 118.586631 128.425461 
L 118.942433 129.429784 
L 119.298236 129.663687 
L 119.654038 129.182941 
L 120.009841 128.126565 
L 120.721446 124.864788 
L 121.433051 120.422388 
L 122.144656 114.34546 
L 123.923669 95.456671 
L 124.279471 93.693412 
L 124.635274 93.457516 
L 124.991076 94.806816 
L 125.346879 97.533781 
L 126.770089 111.057349 
L 127.125891 111.977492 
L 127.481694 111.184052 
L 127.837496 108.771795 
L 128.549101 100.60308 
L 129.616509 87.396551 
L 130.328114 81.79699 
L 130.683916 80.222914 
L 131.039719 79.421367 
L 131.395521 79.335131 
L 131.751324 79.890782 
L 132.107126 80.982674 
L 133.530337 87.018013 
L 133.886139 87.830888 
L 134.241942 88.018844 
L 134.597744 87.544194 
L 134.953547 86.474417 
L 136.376757 80.690279 
L 136.732559 80.255839 
L 137.088362 80.582697 
L 137.444164 81.604021 
L 138.511572 86.086359 
L 138.867374 86.962639 
L 139.223177 87.230895 
L 139.578979 86.99545 
L 140.290584 86.239159 
L 140.646387 86.453947 
L 141.002189 87.424482 
L 141.357992 89.219481 
L 142.069597 94.780122 
L 143.492807 107.704096 
L 144.204412 112.264486 
L 144.560214 113.304354 
L 144.916017 113.045094 
L 145.271819 111.113336 
L 145.627622 107.22222 
L 145.983425 101.260548 
L 146.69503 83.893528 
L 148.11824 44.567516 
L 148.474042 38.271521 
L 148.829845 34.589535 
L 149.185647 33.75068 
L 149.54145 35.729728 
L 149.897252 40.265917 
L 150.608857 55.056194 
L 151.320462 73.185487 
L 151.676265 70.954994 
L 152.38787 59.204893 
L 152.743672 56.638962 
L 153.099475 56.138804 
L 153.455277 57.283098 
L 154.878487 65.295815 
L 155.23429 65.346056 
L 155.590092 64.244315 
L 157.013302 56.329015 
L 157.369105 55.680653 
L 157.724907 55.863002 
L 158.792315 57.859499 
L 159.148118 60.13301 
L 159.50392 64.745281 
L 160.215525 78.881985 
L 160.92713 93.246191 
L 161.282933 97.875876 
L 161.638735 99.736431 
L 161.994538 98.483675 
L 162.35034 94.216355 
L 163.061945 79.069358 
L 164.129353 54.737644 
L 164.485155 49.971085 
L 164.840958 47.724907 
L 165.19676 47.983222 
L 165.552563 50.42914 
L 166.264168 59.766554 
L 168.398983 93.013963 
L 170.533798 121.463732 
L 171.245403 129.338449 
L 171.957008 134.559541 
L 172.312811 135.768719 
L 173.024416 136.022224 
L 173.380218 135.572151 
L 173.736021 134.246618 
L 174.091823 132.128813 
L 174.803428 125.86098 
L 175.870836 112.917604 
L 176.938243 99.444491 
L 177.649848 92.546444 
L 178.361453 88.473449 
L 178.717256 87.529786 
L 179.073058 87.152756 
L 179.784663 87.058907 
L 180.140466 86.711183 
L 180.496268 85.789379 
L 180.852071 84.139983 
L 181.563676 78.775064 
L 182.986886 66.466842 
L 183.342689 64.640591 
L 183.698491 63.620297 
L 184.054294 63.422971 
L 184.410096 64.025865 
L 184.765899 65.403294 
L 185.121701 67.553557 
L 185.833306 74.285215 
L 186.544911 84.19962 
L 187.612319 101.121894 
L 187.968121 105.421554 
L 188.323924 108.180287 
L 188.679726 109.05222 
L 189.035529 107.909182 
L 189.391331 104.856888 
L 190.102936 94.421934 
L 191.170344 75.809884 
L 191.881949 67.693608 
L 192.237751 66.161409 
L 192.593554 66.567465 
L 192.949356 68.87186 
L 193.660961 78.032396 
L 195.084171 100.549453 
L 195.795776 107.449281 
L 196.151579 109.502498 
L 196.863184 111.830643 
L 197.574789 113.667004 
L 197.930592 115.031119 
L 198.642197 119.240429 
L 200.065407 129.827521 
L 200.421209 131.27542 
L 200.777012 131.706052 
L 201.132814 131.004442 
L 201.488617 129.175776 
L 202.200222 122.682695 
L 203.979234 101.994766 
L 204.335037 99.348948 
L 204.690839 97.695946 
L 205.046642 97.082979 
L 205.402444 97.429287 
L 205.758247 98.522466 
L 206.825654 102.8271 
L 207.181457 103.433938 
L 207.537259 103.285738 
L 207.893062 102.43874 
L 208.96047 98.7541 
L 209.316272 98.515305 
L 209.672075 99.318807 
L 210.027877 101.25351 
L 210.739482 107.904907 
L 211.80689 119.648184 
L 212.518495 125.310893 
L 213.2301 129.142234 
L 214.297507 133.729211 
L 214.65331 134.796764 
L 215.009112 135.215775 
L 215.364915 134.671729 
L 215.364915 134.671729 
" clip-path="url(#pac7965e991)" style="fill: none; stroke: #808080; stroke-opacity: 0.25; stroke-width: 1.5; stroke-linecap: square"/>
   </g>
   <g id="patch_3">
    <path d="M 28.942188 160.92 
L 28.942188 22.32 
" style="fill: none; stroke: #000000; stroke-width: 0.8; stroke-linejoin: miter; stroke-linecap: square"/>
   </g>
   <g id="patch_4">
    <path d="M 224.242188 160.92 
L 224.242188 22.32 
" style="fill: none; stroke: #000000; stroke-width: 0.8; stroke-linejoin: miter; stroke-linecap: square"/>
   </g>
   <g id="patch_5">
    <path d="M 28.942188 160.92 
L 224.242188 160.92 
" style="fill: none; stroke: #000000; stroke-width: 0.8; stroke-linejoin: miter; stroke-linecap: square"/>
   </g>
   <g id="patch_6">
    <path d="M 28.942188 22.32 
L 224.242188 22.32 
" style="fill: none; stroke: #000000; stroke-width: 0.8; stroke-linejoin: miter; stroke-linecap: square"/>
   </g>
   <g id="text_10">
    <!-- Lengthscale $\ell$=0.100, Amplitude $a$=1 -->
    <g transform="translate(14.692188 16.32)scale(0.12 -0.12)">
     <defs>
      <path id="DejaVuSans-4c" d="M 628 4666 
L 1259 4666 
L 1259 531 
L 3531 531 
L 3531 0 
L 628 0 
L 628 4666 
z
" transform="scale(0.015625)"/>
      <path id="DejaVuSans-65" d="M 3597 1894 
L 3597 1613 
L 953 1613 
Q 991 1019 1311 708 
Q 1631 397 2203 397 
Q 2534 397 2845 478 
Q 3156 559 3463 722 
L 3463 178 
Q 3153 47 2828 -22 
Q 2503 -91 2169 -91 
Q 1331 -91 842 396 
Q 353 884 353 1716 
Q 353 2575 817 3079 
Q 1281 3584 2069 3584 
Q 2775 3584 3186 3129 
Q 3597 2675 3597 1894 
z
M 3022 2063 
Q 3016 2534 2758 2815 
Q 2500 3097 2075 3097 
Q 1594 3097 1305 2825 
Q 1016 2553 972 2059 
L 3022 2063 
z
" transform="scale(0.015625)"/>
      <path id="DejaVuSans-6e" d="M 3513 2113 
L 3513 0 
L 2938 0 
L 2938 2094 
Q 2938 2591 2744 2837 
Q 2550 3084 2163 3084 
Q 1697 3084 1428 2787 
Q 1159 2491 1159 1978 
L 1159 0 
L 581 0 
L 581 3500 
L 1159 3500 
L 1159 2956 
Q 1366 3272 1645 3428 
Q 1925 3584 2291 3584 
Q 2894 3584 3203 3211 
Q 3513 2838 3513 2113 
z
" transform="scale(0.015625)"/>
      <path id="DejaVuSans-67" d="M 2906 1791 
Q 2906 2416 2648 2759 
Q 2391 3103 1925 3103 
Q 1463 3103 1205 2759 
Q 947 2416 947 1791 
Q 947 1169 1205 825 
Q 1463 481 1925 481 
Q 2391 481 2648 825 
Q 2906 1169 2906 1791 
z
M 3481 434 
Q 3481 -459 3084 -895 
Q 2688 -1331 1869 -1331 
Q 1566 -1331 1297 -1286 
Q 1028 -1241 775 -1147 
L 775 -588 
Q 1028 -725 1275 -790 
Q 1522 -856 1778 -856 
Q 2344 -856 2625 -561 
Q 2906 -266 2906 331 
L 2906 616 
Q 2728 306 2450 153 
Q 2172 0 1784 0 
Q 1141 0 747 490 
Q 353 981 353 1791 
Q 353 2603 747 3093 
Q 1141 3584 1784 3584 
Q 2172 3584 2450 3431 
Q 2728 3278 2906 2969 
L 2906 3500 
L 3481 3500 
L 3481 434 
z
" transform="scale(0.015625)"/>
      <path id="DejaVuSans-74" d="M 1172 4494 
L 1172 3500 
L 2356 3500 
L 2356 3053 
L 1172 3053 
L 1172 1153 
Q 1172 725 1289 603 
Q 1406 481 1766 481 
L 2356 481 
L 2356 0 
L 1766 0 
Q 1100 0 847 248 
Q 594 497 594 1153 
L 594 3053 
L 172 3053 
L 172 3500 
L 594 3500 
L 594 4494 
L 1172 4494 
z
" transform="scale(0.015625)"/>
      <path id="DejaVuSans-68" d="M 3513 2113 
L 3513 0 
L 2938 0 
L 2938 2094 
Q 2938 2591 2744 2837 
Q 2550 3084 2163 3084 
Q 1697 3084 1428 2787 
Q 1159 2491 1159 1978 
L 1159 0 
L 581 0 
L 581 4863 
L 1159 4863 
L 1159 2956 
Q 1366 3272 1645 3428 
Q 1925 3584 2291 3584 
Q 2894 3584 3203 3211 
Q 3513 2838 3513 2113 
z
" transform="scale(0.015625)"/>
      <path id="DejaVuSans-73" d="M 2834 3397 
L 2834 2853 
Q 2591 2978 2328 3040 
Q 2066 3103 1784 3103 
Q 1356 3103 1142 2972 
Q 928 2841 928 2578 
Q 928 2378 1081 2264 
Q 1234 2150 1697 2047 
L 1894 2003 
Q 2506 1872 2764 1633 
Q 3022 1394 3022 966 
Q 3022 478 2636 193 
Q 2250 -91 1575 -91 
Q 1294 -91 989 -36 
Q 684 19 347 128 
L 347 722 
Q 666 556 975 473 
Q 1284 391 1588 391 
Q 1994 391 2212 530 
Q 2431 669 2431 922 
Q 2431 1156 2273 1281 
Q 2116 1406 1581 1522 
L 1381 1569 
Q 847 1681 609 1914 
Q 372 2147 372 2553 
Q 372 3047 722 3315 
Q 1072 3584 1716 3584 
Q 2034 3584 2315 3537 
Q 2597 3491 2834 3397 
z
" transform="scale(0.015625)"/>
      <path id="DejaVuSans-63" d="M 3122 3366 
L 3122 2828 
Q 2878 2963 2633 3030 
Q 2388 3097 2138 3097 
Q 1578 3097 1268 2742 
Q 959 2388 959 1747 
Q 959 1106 1268 751 
Q 1578 397 2138 397 
Q 2388 397 2633 464 
Q 2878 531 3122 666 
L 3122 134 
Q 2881 22 2623 -34 
Q 2366 -91 2075 -91 
Q 1284 -91 818 406 
Q 353 903 353 1747 
Q 353 2603 823 3093 
Q 1294 3584 2113 3584 
Q 2378 3584 2631 3529 
Q 2884 3475 3122 3366 
z
" transform="scale(0.015625)"/>
      <path id="DejaVuSans-61" d="M 2194 1759 
Q 1497 1759 1228 1600 
Q 959 1441 959 1056 
Q 959 750 1161 570 
Q 1363 391 1709 391 
Q 2188 391 2477 730 
Q 2766 1069 2766 1631 
L 2766 1759 
L 2194 1759 
z
M 3341 1997 
L 3341 0 
L 2766 0 
L 2766 531 
Q 2569 213 2275 61 
Q 1981 -91 1556 -91 
Q 1019 -91 701 211 
Q 384 513 384 1019 
Q 384 1609 779 1909 
Q 1175 2209 1959 2209 
L 2766 2209 
L 2766 2266 
Q 2766 2663 2505 2880 
Q 2244 3097 1772 3097 
Q 1472 3097 1187 3025 
Q 903 2953 641 2809 
L 641 3341 
Q 956 3463 1253 3523 
Q 1550 3584 1831 3584 
Q 2591 3584 2966 3190 
Q 3341 2797 3341 1997 
z
" transform="scale(0.015625)"/>
      <path id="DejaVuSans-6c" d="M 603 4863 
L 1178 4863 
L 1178 0 
L 603 0 
L 603 4863 
z
" transform="scale(0.015625)"/>
      <path id="DejaVuSans-20" transform="scale(0.015625)"/>
      <path id="DejaVuSans-Oblique-2113" d="M 950 838 
Q 1078 213 1350 213 
Q 1531 213 1766 572 
L 2181 572 
Q 1994 253 1775 88 
Q 1538 -91 1319 -91 
Q 831 -91 634 344 
L 400 0 
L -88 0 
Q 250 459 500 888 
Q 469 1131 469 1397 
Q 469 1872 566 2347 
Q 931 4131 1256 4497 
Q 1481 4750 1866 4750 
Q 2256 4750 2256 4209 
Q 2253 3966 2197 3675 
Q 1972 2484 950 838 
z
M 947 1656 
Q 1531 2744 1709 3613 
Q 1803 4072 1803 4191 
Q 1803 4406 1725 4406 
Q 1384 4134 1081 2516 
Q 997 2063 947 1656 
z
" transform="scale(0.015625)"/>
      <path id="DejaVuSans-3d" d="M 678 2906 
L 4684 2906 
L 4684 2381 
L 678 2381 
L 678 2906 
z
M 678 1631 
L 4684 1631 
L 4684 1100 
L 678 1100 
L 678 1631 
z
" transform="scale(0.015625)"/>
      <path id="DejaVuSans-2e" d="M 684 794 
L 1344 794 
L 1344 0 
L 684 0 
L 684 794 
z
" transform="scale(0.015625)"/>
      <path id="DejaVuSans-2c" d="M 750 794 
L 1409 794 
L 1409 256 
L 897 -744 
L 494 -744 
L 750 256 
L 750 794 
z
" transform="scale(0.015625)"/>
      <path id="DejaVuSans-41" d="M 2188 4044 
L 1331 1722 
L 3047 1722 
L 2188 4044 
z
M 1831 4666 
L 2547 4666 
L 4325 0 
L 3669 0 
L 3244 1197 
L 1141 1197 
L 716 0 
L 50 0 
L 1831 4666 
z
" transform="scale(0.015625)"/>
      <path id="DejaVuSans-6d" d="M 3328 2828 
Q 3544 3216 3844 3400 
Q 4144 3584 4550 3584 
Q 5097 3584 5394 3201 
Q 5691 2819 5691 2113 
L 5691 0 
L 5113 0 
L 5113 2094 
Q 5113 2597 4934 2840 
Q 4756 3084 4391 3084 
Q 3944 3084 3684 2787 
Q 3425 2491 3425 1978 
L 3425 0 
L 2847 0 
L 2847 2094 
Q 2847 2600 2669 2842 
Q 2491 3084 2119 3084 
Q 1678 3084 1418 2786 
Q 1159 2488 1159 1978 
L 1159 0 
L 581 0 
L 581 3500 
L 1159 3500 
L 1159 2956 
Q 1356 3278 1631 3431 
Q 1906 3584 2284 3584 
Q 2666 3584 2933 3390 
Q 3200 3197 3328 2828 
z
" transform="scale(0.015625)"/>
      <path id="DejaVuSans-70" d="M 1159 525 
L 1159 -1331 
L 581 -1331 
L 581 3500 
L 1159 3500 
L 1159 2969 
Q 1341 3281 1617 3432 
Q 1894 3584 2278 3584 
Q 2916 3584 3314 3078 
Q 3713 2572 3713 1747 
Q 3713 922 3314 415 
Q 2916 -91 2278 -91 
Q 1894 -91 1617 61 
Q 1341 213 1159 525 
z
M 3116 1747 
Q 3116 2381 2855 2742 
Q 2594 3103 2138 3103 
Q 1681 3103 1420 2742 
Q 1159 2381 1159 1747 
Q 1159 1113 1420 752 
Q 1681 391 2138 391 
Q 2594 391 2855 752 
Q 3116 1113 3116 1747 
z
" transform="scale(0.015625)"/>
      <path id="DejaVuSans-69" d="M 603 3500 
L 1178 3500 
L 1178 0 
L 603 0 
L 603 3500 
z
M 603 4863 
L 1178 4863 
L 1178 4134 
L 603 4134 
L 603 4863 
z
" transform="scale(0.015625)"/>
      <path id="DejaVuSans-75" d="M 544 1381 
L 544 3500 
L 1119 3500 
L 1119 1403 
Q 1119 906 1312 657 
Q 1506 409 1894 409 
Q 2359 409 2629 706 
Q 2900 1003 2900 1516 
L 2900 3500 
L 3475 3500 
L 3475 0 
L 2900 0 
L 2900 538 
Q 2691 219 2414 64 
Q 2138 -91 1772 -91 
Q 1169 -91 856 284 
Q 544 659 544 1381 
z
M 1991 3584 
L 1991 3584 
z
" transform="scale(0.015625)"/>
      <path id="DejaVuSans-64" d="M 2906 2969 
L 2906 4863 
L 3481 4863 
L 3481 0 
L 2906 0 
L 2906 525 
Q 2725 213 2448 61 
Q 2172 -91 1784 -91 
Q 1150 -91 751 415 
Q 353 922 353 1747 
Q 353 2572 751 3078 
Q 1150 3584 1784 3584 
Q 2172 3584 2448 3432 
Q 2725 3281 2906 2969 
z
M 947 1747 
Q 947 1113 1208 752 
Q 1469 391 1925 391 
Q 2381 391 2643 752 
Q 2906 1113 2906 1747 
Q 2906 2381 2643 2742 
Q 2381 3103 1925 3103 
Q 1469 3103 1208 2742 
Q 947 2381 947 1747 
z
" transform="scale(0.015625)"/>
      <path id="DejaVuSans-Oblique-61" d="M 3438 1997 
L 3047 0 
L 2472 0 
L 2578 531 
Q 2325 219 2001 64 
Q 1678 -91 1281 -91 
Q 834 -91 548 182 
Q 263 456 263 884 
Q 263 1497 752 1853 
Q 1241 2209 2100 2209 
L 2900 2209 
L 2931 2363 
Q 2938 2388 2941 2417 
Q 2944 2447 2944 2509 
Q 2944 2788 2717 2942 
Q 2491 3097 2081 3097 
Q 1800 3097 1504 3025 
Q 1209 2953 897 2809 
L 997 3341 
Q 1322 3463 1633 3523 
Q 1944 3584 2234 3584 
Q 2853 3584 3176 3315 
Q 3500 3047 3500 2534 
Q 3500 2431 3484 2292 
Q 3469 2153 3438 1997 
z
M 2816 1759 
L 2241 1759 
Q 1534 1759 1195 1570 
Q 856 1381 856 984 
Q 856 709 1029 553 
Q 1203 397 1509 397 
Q 1978 397 2328 733 
Q 2678 1069 2791 1631 
L 2816 1759 
z
" transform="scale(0.015625)"/>
     </defs>
     <use xlink:href="#DejaVuSans-4c" transform="translate(0 0.015625)"/>
     <use xlink:href="#DejaVuSans-65" transform="translate(55.712891 0.015625)"/>
     <use xlink:href="#DejaVuSans-6e" transform="translate(117.236328 0.015625)"/>
     <use xlink:href="#DejaVuSans-67" transform="translate(180.615234 0.015625)"/>
     <use xlink:href="#DejaVuSans-74" transform="translate(244.091797 0.015625)"/>
     <use xlink:href="#DejaVuSans-68" transform="translate(283.300781 0.015625)"/>
     <use xlink:href="#DejaVuSans-73" transform="translate(346.679688 0.015625)"/>
     <use xlink:href="#DejaVuSans-63" transform="translate(398.779297 0.015625)"/>
     <use xlink:href="#DejaVuSans-61" transform="translate(453.759766 0.015625)"/>
     <use xlink:href="#DejaVuSans-6c" transform="translate(515.039062 0.015625)"/>
     <use xlink:href="#DejaVuSans-65" transform="translate(542.822266 0.015625)"/>
     <use xlink:href="#DejaVuSans-20" transform="translate(604.345703 0.015625)"/>
     <use xlink:href="#DejaVuSans-Oblique-2113" transform="translate(636.132812 0.015625)"/>
     <use xlink:href="#DejaVuSans-3d" transform="translate(677.441406 0.015625)"/>
     <use xlink:href="#DejaVuSans-30" transform="translate(761.230469 0.015625)"/>
     <use xlink:href="#DejaVuSans-2e" transform="translate(824.853516 0.015625)"/>
     <use xlink:href="#DejaVuSans-31" transform="translate(856.640625 0.015625)"/>
     <use xlink:href="#DejaVuSans-30" transform="translate(920.263672 0.015625)"/>
     <use xlink:href="#DejaVuSans-30" transform="translate(983.886719 0.015625)"/>
     <use xlink:href="#DejaVuSans-2c" transform="translate(1047.509766 0.015625)"/>
     <use xlink:href="#DejaVuSans-20" transform="translate(1079.296875 0.015625)"/>
     <use xlink:href="#DejaVuSans-41" transform="translate(1111.083984 0.015625)"/>
     <use xlink:href="#DejaVuSans-6d" transform="translate(1179.492188 0.015625)"/>
     <use xlink:href="#DejaVuSans-70" transform="translate(1276.904297 0.015625)"/>
     <use xlink:href="#DejaVuSans-6c" transform="translate(1340.380859 0.015625)"/>
     <use xlink:href="#DejaVuSans-69" transform="translate(1368.164062 0.015625)"/>
     <use xlink:href="#DejaVuSans-74" transform="translate(1395.947266 0.015625)"/>
     <use xlink:href="#DejaVuSans-75" transform="translate(1435.15625 0.015625)"/>
     <use xlink:href="#DejaVuSans-64" transform="translate(1498.535156 0.015625)"/>
     <use xlink:href="#DejaVuSans-65" transform="translate(1562.011719 0.015625)"/>
     <use xlink:href="#DejaVuSans-20" transform="translate(1623.535156 0.015625)"/>
     <use xlink:href="#DejaVuSans-Oblique-61" transform="translate(1655.322266 0.015625)"/>
     <use xlink:href="#DejaVuSans-3d" transform="translate(1716.601562 0.015625)"/>
     <use xlink:href="#DejaVuSans-31" transform="translate(1800.390625 0.015625)"/>
    </g>
   </g>
  </g>
 </g>
 <defs>
  <clipPath id="pac7965e991">
   <rect x="28.942188" y="22.32" width="195.3" height="138.6"/>
  </clipPath>
 </defs>
</svg>
