<?xml version="1.0" encoding="utf-8" standalone="no"?>
<!DOCTYPE svg PUBLIC "-//W3C//DTD SVG 1.1//EN"
  "http://www.w3.org/Graphics/SVG/1.1/DTD/svg11.dtd">
<svg xmlns:xlink="http://www.w3.org/1999/xlink" width="245.692187pt" height="184.798125pt" viewBox="0 0 245.692187 184.798125" xmlns="http://www.w3.org/2000/svg" version="1.1">
 <metadata>
  <rdf:RDF xmlns:dc="http://purl.org/dc/elements/1.1/" xmlns:cc="http://creativecommons.org/ns#" xmlns:rdf="http://www.w3.org/1999/02/22-rdf-syntax-ns#">
   <cc:Work>
    <dc:type rdf:resource="http://purl.org/dc/dcmitype/StillImage"/>
    <dc:date>2022-12-10T17:08:44.232678</dc:date>
    <dc:format>image/svg+xml</dc:format>
    <dc:creator>
     <cc:Agent>
      <dc:title>Matplotlib v3.5.1, https://matplotlib.org/</dc:title>
     </cc:Agent>
    </dc:creator>
   </cc:Work>
  </rdf:RDF>
 </metadata>
 <defs>
  <style type="text/css">*{stroke-linejoin: round; stroke-linecap: butt}</style>
 </defs>
 <g id="figure_1">
  <g id="patch_1">
   <path d="M 0 184.798125 
L 245.692187 184.798125 
L 245.692187 0 
L 0 0 
z
" style="fill: #ffffff"/>
  </g>
  <g id="axes_1">
   <g id="patch_2">
    <path d="M 28.942188 160.92 
L 224.242188 160.92 
L 224.242188 22.32 
L 28.942188 22.32 
z
" style="fill: #ffffff"/>
   </g>
   <g id="PathCollection_1">
    <defs>
     <path id="mcca9d5fba0" d="M 0 3 
C 0.795609 3 1.55874 2.683901 2.12132 2.12132 
C 2.683901 1.55874 3 0.795609 3 0 
C 3 -0.795609 2.683901 -1.55874 2.12132 -2.12132 
C 1.55874 -2.683901 0.795609 -3 0 -3 
C -0.795609 -3 -1.55874 -2.683901 -2.12132 -2.12132 
C -2.683901 -1.55874 -3 -0.795609 -3 0 
C -3 0.795609 -2.683901 1.55874 -2.12132 2.12132 
C -1.55874 2.683901 -0.795609 3 0 3 
z
" style="stroke: #1f77b4"/>
    </defs>
    <g clip-path="url(#pdec71086d1)">
     <use xlink:href="#mcca9d5fba0" x="37.81946" y="79.475665" style="fill: #1f77b4; stroke: #1f77b4"/>
     <use xlink:href="#mcca9d5fba0" x="44.921278" y="29.370216" style="fill: #1f77b4; stroke: #1f77b4"/>
     <use xlink:href="#mcca9d5fba0" x="52.023097" y="59.261326" style="fill: #1f77b4; stroke: #1f77b4"/>
     <use xlink:href="#mcca9d5fba0" x="59.124915" y="91.686945" style="fill: #1f77b4; stroke: #1f77b4"/>
     <use xlink:href="#mcca9d5fba0" x="80.430369" y="95.166831" style="fill: #1f77b4; stroke: #1f77b4"/>
     <use xlink:href="#mcca9d5fba0" x="87.532187" y="88.559824" style="fill: #1f77b4; stroke: #1f77b4"/>
     <use xlink:href="#mcca9d5fba0" x="94.634006" y="55.343438" style="fill: #1f77b4; stroke: #1f77b4"/>
     <use xlink:href="#mcca9d5fba0" x="101.735824" y="41.859202" style="fill: #1f77b4; stroke: #1f77b4"/>
     <use xlink:href="#mcca9d5fba0" x="108.837642" y="68.493523" style="fill: #1f77b4; stroke: #1f77b4"/>
     <use xlink:href="#mcca9d5fba0" x="151.448551" y="58.891973" style="fill: #1f77b4; stroke: #1f77b4"/>
     <use xlink:href="#mcca9d5fba0" x="158.550369" y="39.59886" style="fill: #1f77b4; stroke: #1f77b4"/>
     <use xlink:href="#mcca9d5fba0" x="172.754006" y="120.146401" style="fill: #1f77b4; stroke: #1f77b4"/>
    </g>
   </g>
   <g id="PolyCollection_1">
    <path d="M 37.81946 79.475663 
L 37.81946 79.475666 
L 38.175263 76.153077 
L 38.531065 72.800349 
L 38.886868 69.437513 
L 39.24267 66.084954 
L 39.598473 62.763257 
L 39.954275 59.493044 
L 40.310078 56.294805 
L 40.66588 53.188733 
L 41.021683 50.194555 
L 41.377485 47.331368 
L 41.733288 44.61747 
L 42.08909 42.070206 
L 42.444893 39.705811 
L 42.800695 37.539271 
L 43.156498 35.584186 
L 43.5123 33.852647 
L 43.868103 32.355123 
L 44.223905 31.100371 
L 44.579708 30.095348 
L 44.935511 29.361801 
L 45.291313 29.27697 
L 45.647116 29.429068 
L 46.002918 29.81042 
L 46.358721 30.412068 
L 46.714523 31.223871 
L 47.070326 32.234602 
L 47.426128 33.432059 
L 47.781931 34.803191 
L 48.137733 36.334212 
L 48.493536 38.010738 
L 48.849338 39.817912 
L 49.205141 41.740538 
L 49.560943 43.763214 
L 49.916746 45.870464 
L 50.272548 48.046863 
L 50.628351 50.277161 
L 50.984153 52.546405 
L 51.339956 54.840047 
L 51.695758 57.14405 
L 52.051561 59.477108 
L 52.407363 62.167927 
L 52.763166 64.833027 
L 53.118968 67.453019 
L 53.474771 70.009235 
L 53.830573 72.483884 
L 54.186376 74.860193 
L 54.542178 77.122535 
L 54.897981 79.256546 
L 55.253783 81.249226 
L 55.609586 83.089033 
L 55.965388 84.765952 
L 56.321191 86.271555 
L 56.676993 87.599047 
L 57.032796 88.743287 
L 57.388599 89.700803 
L 57.744401 90.469791 
L 58.100204 91.050089 
L 58.456006 91.443151 
L 58.811809 91.651993 
L 59.167611 91.774502 
L 59.523414 92.457997 
L 59.879216 93.061981 
L 60.235019 93.590759 
L 60.590821 94.048843 
L 60.946624 94.440889 
L 61.302426 94.771633 
L 61.658229 95.045836 
L 62.014031 95.268229 
L 62.369834 95.443466 
L 62.725636 95.576078 
L 63.081439 95.67044 
L 63.437241 95.730734 
L 63.793044 95.76093 
L 64.148846 95.764759 
L 64.504649 95.745704 
L 64.860451 95.706988 
L 65.216254 95.65157 
L 65.572056 95.58215 
L 65.927859 95.501171 
L 66.283661 95.41083 
L 66.639464 95.313092 
L 66.995266 95.209705 
L 67.351069 95.102218 
L 67.706871 94.992005 
L 68.062674 94.880281 
L 68.418476 94.768132 
L 68.774279 94.656527 
L 69.130081 94.546351 
L 69.485884 94.438418 
L 69.841686 94.33349 
L 70.197489 94.232302 
L 70.553292 94.135567 
L 70.909094 94.043994 
L 71.264897 93.958296 
L 71.620699 93.879194 
L 71.976502 93.807421 
L 72.332304 93.74372 
L 72.688107 93.688837 
L 73.043909 93.643519 
L 73.399712 93.608494 
L 73.755514 93.584463 
L 74.111317 93.572078 
L 74.467119 93.571926 
L 74.822922 93.584502 
L 75.178724 93.610188 
L 75.534527 93.649227 
L 75.890329 93.701695 
L 76.246132 93.767479 
L 76.601934 93.846247 
L 76.957737 93.937425 
L 77.313539 94.040174 
L 77.669342 94.153366 
L 78.025144 94.275571 
L 78.380947 94.405037 
L 78.736749 94.539679 
L 79.092552 94.677074 
L 79.448354 94.814458 
L 79.804157 94.948727 
L 80.159959 95.076445 
L 80.515762 95.358367 
L 80.871564 96.091959 
L 81.227367 96.71787 
L 81.583169 97.231762 
L 81.938972 97.630042 
L 82.294774 97.909875 
L 82.650577 98.069181 
L 83.00638 98.10664 
L 83.362182 98.021679 
L 83.717985 97.814462 
L 84.073787 97.485867 
L 84.42959 97.037469 
L 84.785392 96.471506 
L 85.141195 95.790854 
L 85.496997 94.998983 
L 85.8528 94.099928 
L 86.208602 93.098241 
L 86.564405 91.998949 
L 86.920207 90.807513 
L 87.27601 89.529775 
L 87.631812 88.260926 
L 87.987615 87.13653 
L 88.343417 85.924051 
L 88.69922 84.625239 
L 89.055022 83.242659 
L 89.410825 81.779702 
L 89.766627 80.240587 
L 90.12243 78.630347 
L 90.478232 76.954817 
L 90.834035 75.220602 
L 91.189837 73.435042 
L 91.54564 71.60617 
L 91.901442 69.74265 
L 92.257245 67.853724 
L 92.613047 65.949134 
L 92.96885 64.039048 
L 93.324652 62.133979 
L 93.680455 60.244692 
L 94.036257 58.382112 
L 94.39206 56.55723 
L 94.747862 54.865445 
L 95.103665 53.410935 
L 95.459468 52.019607 
L 95.81527 50.696135 
L 96.171073 49.444962 
L 96.526875 48.270301 
L 96.882678 47.176136 
L 97.23848 46.166225 
L 97.594283 45.244095 
L 97.950085 44.413045 
L 98.305888 43.676143 
L 98.66169 43.036224 
L 99.017493 42.495887 
L 99.373295 42.057489 
L 99.729098 41.723137 
L 100.0849 41.494688 
L 100.440703 41.373733 
L 100.796505 41.361592 
L 101.152308 41.459305 
L 101.50811 41.667619 
L 101.863913 42.109554 
L 102.219715 42.889422 
L 102.575518 43.787888 
L 102.93132 44.797159 
L 103.287123 45.908676 
L 103.642925 47.113191 
L 103.998728 48.400856 
L 104.35453 49.761305 
L 104.710333 51.183754 
L 105.066135 52.65709 
L 105.421938 54.169972 
L 105.77774 55.710927 
L 106.133543 57.268448 
L 106.489345 58.83109 
L 106.845148 60.387561 
L 107.20095 61.926817 
L 107.556753 63.438142 
L 107.912556 64.911234 
L 108.268358 66.336277 
L 108.624161 67.704012 
L 108.979963 69.339273 
L 109.335766 71.481392 
L 109.691568 73.657887 
L 110.047371 75.862087 
L 110.403173 78.087238 
L 110.758976 80.326535 
L 111.114778 82.573165 
L 111.470581 84.820343 
L 111.826383 87.061354 
L 112.182186 89.289587 
L 112.537988 91.498579 
L 112.893791 93.682046 
L 113.249593 95.833926 
L 113.605396 97.948406 
L 113.961198 100.019962 
L 114.317001 102.043382 
L 114.672803 104.013797 
L 115.028606 105.926707 
L 115.384408 107.778002 
L 115.740211 109.563979 
L 116.096013 111.281358 
L 116.451816 112.927297 
L 116.807618 114.499396 
L 117.163421 115.995706 
L 117.519223 117.41473 
L 117.875026 118.755418 
L 118.230828 120.017167 
L 118.586631 121.199808 
L 118.942433 122.303599 
L 119.298236 123.329207 
L 119.654038 124.277691 
L 120.009841 125.150487 
L 120.365644 125.94938 
L 120.721446 126.676484 
L 121.077249 127.334214 
L 121.433051 127.92526 
L 121.788854 128.452556 
L 122.144656 128.919252 
L 122.500459 129.328684 
L 122.856261 129.684339 
L 123.212064 129.989826 
L 123.567866 130.248844 
L 123.923669 130.465148 
L 124.279471 130.642521 
L 124.635274 130.784739 
L 124.991076 130.895544 
L 125.346879 130.978612 
L 125.702681 131.037525 
L 126.058484 131.075745 
L 126.414286 131.096586 
L 126.770089 131.103192 
L 127.125891 131.098509 
L 127.481694 131.085268 
L 127.837496 131.065961 
L 128.193299 131.042828 
L 128.549101 131.017833 
L 128.904904 130.992657 
L 129.260706 130.968681 
L 129.616509 130.946973 
L 129.972311 130.928285 
L 130.328114 130.913042 
L 130.683916 130.901337 
L 131.039719 130.892929 
L 131.395521 130.887244 
L 131.751324 130.883371 
L 132.107126 130.880072 
L 132.462929 130.875781 
L 132.818731 130.868616 
L 133.174534 130.856385 
L 133.530337 130.836601 
L 133.886139 130.806492 
L 134.241942 130.763019 
L 134.597744 130.702894 
L 134.953547 130.622597 
L 135.309349 130.518401 
L 135.665152 130.386394 
L 136.020954 130.222503 
L 136.376757 130.022528 
L 136.732559 129.782161 
L 137.088362 129.497025 
L 137.444164 129.162705 
L 137.799967 128.77478 
L 138.155769 128.328859 
L 138.511572 127.820618 
L 138.867374 127.245838 
L 139.223177 126.600442 
L 139.578979 125.880536 
L 139.934782 125.082446 
L 140.290584 124.202758 
L 140.646387 123.238359 
L 141.002189 122.186472 
L 141.357992 121.044699 
L 141.713794 119.811053 
L 142.069597 118.483997 
L 142.425399 117.062475 
L 142.781202 115.545947 
L 143.137004 113.934413 
L 143.492807 112.228445 
L 143.848609 110.429207 
L 144.204412 108.538476 
L 144.560214 106.558655 
L 144.916017 104.492792 
L 145.271819 102.344579 
L 145.627622 100.118364 
L 145.983425 97.819142 
L 146.339227 95.452553 
L 146.69503 93.024869 
L 147.050832 90.542979 
L 147.406635 88.014365 
L 147.762437 85.447074 
L 148.11824 82.849691 
L 148.474042 80.231296 
L 148.829845 77.601426 
L 149.185647 74.970025 
L 149.54145 72.347394 
L 149.897252 69.744135 
L 150.253055 67.171093 
L 150.608857 64.639289 
L 150.96466 62.159859 
L 151.320462 59.743981 
L 151.676265 58.275206 
L 152.032067 57.271504 
L 152.38787 56.22451 
L 152.743672 55.140953 
L 153.099475 54.02806 
L 153.455277 52.893525 
L 153.81108 51.745467 
L 154.166882 50.592385 
L 154.522685 49.443104 
L 154.878487 48.306731 
L 155.23429 47.192587 
L 155.590092 46.110158 
L 155.945895 45.069022 
L 156.301697 44.078793 
L 156.6575 43.149048 
L 157.013302 42.289263 
L 157.369105 41.508747 
L 157.724907 40.81657 
L 158.08071 40.221497 
L 158.436513 39.731927 
L 158.792315 40.18814 
L 159.148118 41.209765 
L 159.50392 42.411869 
L 159.859723 43.788979 
L 160.215525 45.334672 
L 160.571328 47.041616 
L 160.92713 48.901603 
L 161.282933 50.905607 
L 161.638735 53.043831 
L 161.994538 55.305769 
L 162.35034 57.68027 
L 162.706143 60.155606 
L 163.061945 62.719545 
L 163.417748 65.359426 
L 163.77355 68.062238 
L 164.129353 70.814698 
L 164.485155 73.603334 
L 164.840958 76.414567 
L 165.19676 79.234791 
L 165.552563 82.050459 
L 165.908365 84.848159 
L 166.264168 87.614694 
L 166.61997 90.337159 
L 166.975773 93.003012 
L 167.331575 95.600146 
L 167.687378 98.116954 
L 168.04318 100.542389 
L 168.398983 102.866023 
L 168.754785 105.078096 
L 169.110588 107.169565 
L 169.46639 109.132139 
L 169.822193 110.95832 
L 170.177995 112.641427 
L 170.533798 114.175618 
L 170.889601 115.555911 
L 171.245403 116.778186 
L 171.601206 117.839198 
L 171.957008 118.736566 
L 172.312811 119.468773 
L 172.668613 120.035147 
L 173.024416 122.277619 
L 173.380218 125.003703 
L 173.736021 127.634231 
L 174.091823 130.162432 
L 174.447626 132.582172 
L 174.803428 134.887965 
L 175.159231 137.074994 
L 175.515033 139.139122 
L 175.870836 141.076894 
L 176.226638 142.885541 
L 176.582441 144.562974 
L 176.938243 146.107777 
L 177.294046 147.519197 
L 177.649848 148.797122 
L 178.005651 149.942064 
L 178.361453 150.955136 
L 178.717256 151.838024 
L 179.073058 152.592954 
L 179.428861 153.222665 
L 179.784663 153.730372 
L 180.140466 154.119728 
L 180.496268 154.394787 
L 180.852071 154.559965 
L 181.207873 154.62 
L 181.563676 154.579912 
L 181.919478 154.44496 
L 182.275281 154.220603 
L 182.631083 153.912459 
L 182.986886 153.526267 
L 183.342689 153.067846 
L 183.698491 152.54306 
L 184.054294 151.95778 
L 184.410096 151.31785 
L 184.765899 150.629056 
L 185.121701 149.897095 
L 185.477504 149.127546 
L 185.833306 148.325842 
L 186.189109 147.497252 
L 186.544911 146.646852 
L 186.900714 145.779512 
L 187.256516 144.899878 
L 187.612319 144.012354 
L 187.968121 143.121097 
L 188.323924 142.230002 
L 188.679726 141.3427 
L 189.035529 140.462547 
L 189.391331 139.592629 
L 189.747134 138.735757 
L 190.102936 137.89447 
L 190.458739 137.071038 
L 190.814541 136.267469 
L 191.170344 135.485511 
L 191.526146 134.726668 
L 191.881949 133.992202 
L 192.237751 133.283148 
L 192.593554 132.600321 
L 192.949356 131.944336 
L 193.305159 131.315611 
L 193.660961 130.714388 
L 194.016764 130.140743 
L 194.372566 129.594598 
L 194.728369 129.07574 
L 195.084171 128.583829 
L 195.439974 128.118415 
L 195.795776 127.67895 
L 196.151579 127.2648 
L 196.507382 126.875256 
L 196.863184 126.509549 
L 197.218987 126.166859 
L 197.574789 125.846323 
L 197.930592 125.547049 
L 198.286394 125.268123 
L 198.642197 125.008614 
L 198.997999 124.767589 
L 199.353802 124.54411 
L 199.709604 124.337248 
L 200.065407 124.146086 
L 200.421209 123.969721 
L 200.777012 123.807272 
L 201.132814 123.65788 
L 201.488617 123.520714 
L 201.844419 123.394972 
L 202.200222 123.27988 
L 202.556024 123.1747 
L 202.911827 123.078724 
L 203.267629 122.99128 
L 203.623432 122.91173 
L 203.979234 122.839467 
L 204.335037 122.773923 
L 204.690839 122.71456 
L 205.046642 122.660873 
L 205.402444 122.612391 
L 205.758247 122.568672 
L 206.114049 122.529304 
L 206.469852 122.493906 
L 206.825654 122.462122 
L 207.181457 122.433623 
L 207.537259 122.408107 
L 207.893062 122.385292 
L 208.248864 122.364922 
L 208.604667 122.34676 
L 208.96047 122.330588 
L 209.316272 122.316209 
L 209.672075 122.303442 
L 210.027877 122.292121 
L 210.38368 122.282097 
L 210.739482 122.273232 
L 211.095285 122.265404 
L 211.451087 122.258501 
L 211.80689 122.252421 
L 212.162692 122.247075 
L 212.518495 122.242378 
L 212.874297 122.238259 
L 213.2301 122.234651 
L 213.585902 122.231495 
L 213.941705 122.228738 
L 214.297507 122.226332 
L 214.65331 122.224237 
L 215.009112 122.222413 
L 215.364915 122.220829 
L 215.364915 31.050087 
L 215.364915 31.050087 
L 215.009112 31.051672 
L 214.65331 31.053496 
L 214.297507 31.055592 
L 213.941705 31.057998 
L 213.585902 31.060757 
L 213.2301 31.063914 
L 212.874297 31.067524 
L 212.518495 31.071645 
L 212.162692 31.076344 
L 211.80689 31.081695 
L 211.451087 31.08778 
L 211.095285 31.094689 
L 210.739482 31.102526 
L 210.38368 31.111401 
L 210.027877 31.12144 
L 209.672075 31.132779 
L 209.316272 31.145569 
L 208.96047 31.159978 
L 208.604667 31.176188 
L 208.248864 31.194399 
L 207.893062 31.214831 
L 207.537259 31.237724 
L 207.181457 31.26334 
L 206.825654 31.291963 
L 206.469852 31.323905 
L 206.114049 31.359501 
L 205.758247 31.399115 
L 205.402444 31.443143 
L 205.046642 31.49201 
L 204.690839 31.546173 
L 204.335037 31.606127 
L 203.979234 31.672401 
L 203.623432 31.745562 
L 203.267629 31.826217 
L 202.911827 31.915013 
L 202.556024 32.012642 
L 202.200222 32.119837 
L 201.844419 32.237376 
L 201.488617 32.366087 
L 201.132814 32.50684 
L 200.777012 32.660558 
L 200.421209 32.828209 
L 200.065407 33.010811 
L 199.709604 33.209434 
L 199.353802 33.425194 
L 198.997999 33.659257 
L 198.642197 33.912839 
L 198.286394 34.187203 
L 197.930592 34.483657 
L 197.574789 34.803554 
L 197.218987 35.14829 
L 196.863184 35.519301 
L 196.507382 35.91806 
L 196.151579 36.346071 
L 195.795776 36.804871 
L 195.439974 37.296017 
L 195.084171 37.821089 
L 194.728369 38.381677 
L 194.372566 38.979379 
L 194.016764 39.615791 
L 193.660961 40.292501 
L 193.305159 41.011077 
L 192.949356 41.773059 
L 192.593554 42.57995 
L 192.237751 43.433202 
L 191.881949 44.334205 
L 191.526146 45.284273 
L 191.170344 46.284632 
L 190.814541 47.336406 
L 190.458739 48.440597 
L 190.102936 49.598075 
L 189.747134 50.809559 
L 189.391331 52.0756 
L 189.035529 53.396564 
L 188.679726 54.772615 
L 188.323924 56.203697 
L 187.968121 57.689519 
L 187.612319 59.229532 
L 187.256516 60.822919 
L 186.900714 62.468573 
L 186.544911 64.165087 
L 186.189109 65.910733 
L 185.833306 67.703456 
L 185.477504 69.540856 
L 185.121701 71.420183 
L 184.765899 73.338322 
L 184.410096 75.291796 
L 184.054294 77.276752 
L 183.698491 79.288966 
L 183.342689 81.323842 
L 182.986886 83.376415 
L 182.631083 85.44136 
L 182.275281 87.512999 
L 181.919478 89.585315 
L 181.563676 91.651967 
L 181.207873 93.706313 
L 180.852071 95.741428 
L 180.496268 97.750134 
L 180.140466 99.725025 
L 179.784663 101.658502 
L 179.428861 103.54281 
L 179.073058 105.370072 
L 178.717256 107.132333 
L 178.361453 108.821603 
L 178.005651 110.429905 
L 177.649848 111.949318 
L 177.294046 113.372031 
L 176.938243 114.690396 
L 176.582441 115.896972 
L 176.226638 116.98459 
L 175.870836 117.946394 
L 175.515033 118.775905 
L 175.159231 119.467066 
L 174.803428 120.014298 
L 174.447626 120.412551 
L 174.091823 120.657348 
L 173.736021 120.744837 
L 173.380218 120.671829 
L 173.024416 120.435845 
L 172.668613 119.463351 
L 172.312811 116.56885 
L 171.957008 113.602608 
L 171.601206 110.573616 
L 171.245403 107.491324 
L 170.889601 104.365587 
L 170.533798 101.206621 
L 170.177995 98.024939 
L 169.822193 94.831297 
L 169.46639 91.636631 
L 169.110588 88.451992 
L 168.754785 85.28848 
L 168.398983 82.15718 
L 168.04318 79.069089 
L 167.687378 76.03505 
L 167.331575 73.065684 
L 166.975773 70.171321 
L 166.61997 67.361934 
L 166.264168 64.647076 
L 165.908365 62.035818 
L 165.552563 59.536686 
L 165.19676 57.157612 
L 164.840958 54.905876 
L 164.485155 52.788065 
L 164.129353 50.810024 
L 163.77355 48.976824 
L 163.417748 47.292729 
L 163.061945 45.761168 
L 162.706143 44.384719 
L 162.35034 43.165093 
L 161.994538 42.103126 
L 161.638735 41.198782 
L 161.282933 40.451154 
L 160.92713 39.858481 
L 160.571328 39.418162 
L 160.215525 39.126784 
L 159.859723 38.980152 
L 159.50392 38.973322 
L 159.148118 39.100648 
L 158.792315 39.355821 
L 158.436513 39.35149 
L 158.08071 38.703311 
L 157.724907 38.246086 
L 157.369105 37.981274 
L 157.013302 37.909316 
L 156.6575 38.029634 
L 156.301697 38.340651 
L 155.945895 38.839809 
L 155.590092 39.523597 
L 155.23429 40.387586 
L 154.878487 41.426467 
L 154.522685 42.634098 
L 154.166882 44.003558 
L 153.81108 45.527195 
L 153.455277 47.196696 
L 153.099475 49.003144 
L 152.743672 50.937086 
L 152.38787 52.988604 
L 152.032067 55.147389 
L 151.676265 57.402807 
L 151.320462 59.229423 
L 150.96466 60.128518 
L 150.608857 60.967433 
L 150.253055 61.741708 
L 149.897252 62.447484 
L 149.54145 63.081516 
L 149.185647 63.641168 
L 148.829845 64.12441 
L 148.474042 64.529811 
L 148.11824 64.856522 
L 147.762437 65.104263 
L 147.406635 65.273296 
L 147.050832 65.364405 
L 146.69503 65.378867 
L 146.339227 65.318421 
L 145.983425 65.185236 
L 145.627622 64.981874 
L 145.271819 64.711259 
L 144.916017 64.376635 
L 144.560214 63.981532 
L 144.204412 63.529725 
L 143.848609 63.025199 
L 143.492807 62.472107 
L 143.137004 61.874739 
L 142.781202 61.237484 
L 142.425399 60.564793 
L 142.069597 59.861152 
L 141.713794 59.131047 
L 141.357992 58.378935 
L 141.002189 57.609223 
L 140.646387 56.826238 
L 140.290584 56.03421 
L 139.934782 55.237248 
L 139.578979 54.439328 
L 139.223177 53.644279 
L 138.867374 52.855769 
L 138.511572 52.077296 
L 138.155769 51.312185 
L 137.799967 50.563581 
L 137.444164 49.834449 
L 137.088362 49.127572 
L 136.732559 48.445554 
L 136.376757 47.790822 
L 136.020954 47.165636 
L 135.665152 46.57209 
L 135.309349 46.012121 
L 134.953547 45.487518 
L 134.597744 44.99993 
L 134.241942 44.550878 
L 133.886139 44.14176 
L 133.530337 43.773863 
L 133.174534 43.448372 
L 132.818731 43.166379 
L 132.462929 42.928887 
L 132.107126 42.736825 
L 131.751324 42.591045 
L 131.395521 42.492332 
L 131.039719 42.441408 
L 130.683916 42.438931 
L 130.328114 42.485497 
L 129.972311 42.581639 
L 129.616509 42.727823 
L 129.260706 42.924446 
L 128.904904 43.171828 
L 128.549101 43.470203 
L 128.193299 43.819714 
L 127.837496 44.220398 
L 127.481694 44.672175 
L 127.125891 45.174838 
L 126.770089 45.728034 
L 126.414286 46.331251 
L 126.058484 46.983803 
L 125.702681 47.684813 
L 125.346879 48.433197 
L 124.991076 49.227649 
L 124.635274 50.066623 
L 124.279471 50.94832 
L 123.923669 51.870676 
L 123.567866 52.831344 
L 123.212064 53.827691 
L 122.856261 54.856781 
L 122.500459 55.915376 
L 122.144656 56.999927 
L 121.788854 58.106575 
L 121.433051 59.231152 
L 121.077249 60.369187 
L 120.721446 61.515915 
L 120.365644 62.666288 
L 120.009841 63.814993 
L 119.654038 64.956469 
L 119.298236 66.084936 
L 118.942433 67.194417 
L 118.586631 68.278776 
L 118.230828 69.331747 
L 117.875026 70.346979 
L 117.519223 71.318074 
L 117.163421 72.238638 
L 116.807618 73.102324 
L 116.451816 73.902888 
L 116.096013 74.63424 
L 115.740211 75.290499 
L 115.384408 75.866051 
L 115.028606 76.355603 
L 114.672803 76.754243 
L 114.317001 77.057493 
L 113.961198 77.261367 
L 113.605396 77.362424 
L 113.249593 77.357814 
L 112.893791 77.245334 
L 112.537988 77.023463 
L 112.182186 76.691407 
L 111.826383 76.249132 
L 111.470581 75.697388 
L 111.114778 75.03774 
L 110.758976 74.272576 
L 110.403173 73.405116 
L 110.047371 72.439419 
L 109.691568 71.38037 
L 109.335766 70.233666 
L 108.979963 69.005798 
L 108.624161 67.238079 
L 108.268358 65.184203 
L 107.912556 63.183848 
L 107.556753 61.243 
L 107.20095 59.367395 
L 106.845148 57.562498 
L 106.489345 55.833479 
L 106.133543 54.185189 
L 105.77774 52.622149 
L 105.421938 51.148532 
L 105.066135 49.768154 
L 104.710333 48.484464 
L 104.35453 47.300541 
L 103.998728 46.219088 
L 103.642925 45.242436 
L 103.287123 44.372542 
L 102.93132 43.610997 
L 102.575518 42.959029 
L 102.219715 42.417513 
L 101.863913 41.986978 
L 101.50811 41.45524 
L 101.152308 40.932534 
L 100.796505 40.54653 
L 100.440703 40.301319 
L 100.0849 40.199948 
L 99.729098 40.244393 
L 99.373295 40.435542 
L 99.017493 40.773189 
L 98.66169 41.256035 
L 98.305888 41.881706 
L 97.950085 42.646776 
L 97.594283 43.546803 
L 97.23848 44.576373 
L 96.882678 45.729158 
L 96.526875 46.997974 
L 96.171073 48.374858 
L 95.81527 49.851143 
L 95.459468 51.417543 
L 95.103665 53.064245 
L 94.747862 54.781002 
L 94.39206 56.378236 
L 94.036257 57.944175 
L 93.680455 59.557901 
L 93.324652 61.213829 
L 92.96885 62.906151 
L 92.613047 64.628846 
L 92.257245 66.375686 
L 91.901442 68.140244 
L 91.54564 69.915915 
L 91.189837 71.695923 
L 90.834035 73.473346 
L 90.478232 75.241136 
L 90.12243 76.992145 
L 89.766627 78.71915 
L 89.410825 80.414888 
L 89.055022 82.072087 
L 88.69922 83.683505 
L 88.343417 85.241968 
L 87.987615 86.740409 
L 87.631812 88.171917 
L 87.27601 89.296289 
L 86.920207 90.24244 
L 86.564405 91.099941 
L 86.208602 91.870056 
L 85.8528 92.554698 
L 85.496997 93.156387 
L 85.141195 93.678187 
L 84.785392 94.123647 
L 84.42959 94.496745 
L 84.073787 94.801816 
L 83.717985 95.04349 
L 83.362182 95.226626 
L 83.00638 95.356249 
L 82.650577 95.437485 
L 82.294774 95.475499 
L 81.938972 95.47544 
L 81.583169 95.442382 
L 81.227367 95.381278 
L 80.871564 95.296912 
L 80.515762 95.193858 
L 80.159959 94.522166 
L 79.804157 93.589134 
L 79.448354 92.565736 
L 79.092552 91.459085 
L 78.736749 90.276907 
L 78.380947 89.027495 
L 78.025144 87.719663 
L 77.669342 86.362689 
L 77.313539 84.966258 
L 76.957737 83.540398 
L 76.601934 82.095416 
L 76.246132 80.641826 
L 75.890329 79.190278 
L 75.534527 77.751479 
L 75.178724 76.336121 
L 74.822922 74.954799 
L 74.467119 73.617935 
L 74.111317 72.335693 
L 73.755514 71.117905 
L 73.399712 69.973991 
L 73.043909 68.91288 
L 72.688107 67.942938 
L 72.332304 67.071892 
L 71.976502 66.306764 
L 71.620699 65.653806 
L 71.264897 65.118433 
L 70.909094 64.705174 
L 70.553292 64.417615 
L 70.197489 64.258357 
L 69.841686 64.228976 
L 69.485884 64.329991 
L 69.130081 64.560839 
L 68.774279 64.919859 
L 68.418476 65.40428 
L 68.062674 66.010224 
L 67.706871 66.732712 
L 67.351069 67.565679 
L 66.995266 68.502003 
L 66.639464 69.533537 
L 66.283661 70.651155 
L 65.927859 71.844803 
L 65.572056 73.103564 
L 65.216254 74.415725 
L 64.860451 75.768859 
L 64.504649 77.149913 
L 64.148846 78.545299 
L 63.793044 79.941002 
L 63.437241 81.322683 
L 63.081439 82.6758 
L 62.725636 83.985721 
L 62.369834 85.237852 
L 62.014031 86.417761 
L 61.658229 87.51131 
L 61.302426 88.504781 
L 60.946624 89.385008 
L 60.590821 90.139504 
L 60.235019 90.756588 
L 59.879216 91.225504 
L 59.523414 91.536541 
L 59.167611 91.681138 
L 58.811809 91.007469 
L 58.456006 90.153216 
L 58.100204 89.208478 
L 57.744401 88.170478 
L 57.388599 87.036995 
L 57.032796 85.806436 
L 56.676993 84.477899 
L 56.321191 83.051234 
L 55.965388 81.527102 
L 55.609586 79.907028 
L 55.253783 78.19344 
L 54.897981 76.389712 
L 54.542178 74.500188 
L 54.186376 72.530208 
L 53.830573 70.486111 
L 53.474771 68.375238 
L 53.118968 66.205923 
L 52.763166 63.987469 
L 52.407363 61.730112 
L 52.051561 59.444984 
L 51.695758 56.78053 
L 51.339956 54.098546 
L 50.984153 51.451736 
L 50.628351 48.860728 
L 50.272548 46.346018 
L 49.916746 43.927789 
L 49.560943 41.625734 
L 49.205141 39.458881 
L 48.849338 37.445419 
L 48.493536 35.602538 
L 48.137733 33.94627 
L 47.781931 32.491347 
L 47.426128 31.251062 
L 47.070326 30.237153 
L 46.714523 29.459695 
L 46.358721 28.927007 
L 46.002918 28.645575 
L 45.647116 28.62 
L 45.291313 28.852951 
L 44.935511 29.345147 
L 44.579708 29.689871 
L 44.223905 30.266055 
L 43.868103 31.093732 
L 43.5123 32.174739 
L 43.156498 33.509338 
L 42.800695 35.096196 
L 42.444893 36.93238 
L 42.08909 39.013372 
L 41.733288 41.333085 
L 41.377485 43.883906 
L 41.021683 46.656745 
L 40.66588 49.641102 
L 40.310078 52.825143 
L 39.954275 56.195786 
L 39.598473 59.738805 
L 39.24267 63.438934 
L 38.886868 67.279988 
L 38.531065 71.244982 
L 38.175263 75.316269 
L 37.81946 79.475663 
z
" clip-path="url(#pdec71086d1)" style="fill: #ff7f0e; fill-opacity: 0.25"/>
   </g>
   <g id="matplotlib.axis_1">
    <g id="xtick_1">
     <g id="line2d_1">
      <defs>
       <path id="md0a5c4d7c7" d="M 0 0 
L 0 3.5 
" style="stroke: #000000; stroke-width: 0.8"/>
      </defs>
      <g>
       <use xlink:href="#md0a5c4d7c7" x="37.81946" y="160.92" style="stroke: #000000; stroke-width: 0.8"/>
      </g>
     </g>
     <g id="text_1">
      <!-- 0 -->
      <g transform="translate(34.63821 175.518438)scale(0.1 -0.1)">
       <defs>
        <path id="DejaVuSans-30" d="M 2034 4250 
Q 1547 4250 1301 3770 
Q 1056 3291 1056 2328 
Q 1056 1369 1301 889 
Q 1547 409 2034 409 
Q 2525 409 2770 889 
Q 3016 1369 3016 2328 
Q 3016 3291 2770 3770 
Q 2525 4250 2034 4250 
z
M 2034 4750 
Q 2819 4750 3233 4129 
Q 3647 3509 3647 2328 
Q 3647 1150 3233 529 
Q 2819 -91 2034 -91 
Q 1250 -91 836 529 
Q 422 1150 422 2328 
Q 422 3509 836 4129 
Q 1250 4750 2034 4750 
z
" transform="scale(0.015625)"/>
       </defs>
       <use xlink:href="#DejaVuSans-30"/>
      </g>
     </g>
    </g>
    <g id="xtick_2">
     <g id="line2d_2">
      <g>
       <use xlink:href="#md0a5c4d7c7" x="73.328551" y="160.92" style="stroke: #000000; stroke-width: 0.8"/>
      </g>
     </g>
     <g id="text_2">
      <!-- 5 -->
      <g transform="translate(70.147301 175.518438)scale(0.1 -0.1)">
       <defs>
        <path id="DejaVuSans-35" d="M 691 4666 
L 3169 4666 
L 3169 4134 
L 1269 4134 
L 1269 2991 
Q 1406 3038 1543 3061 
Q 1681 3084 1819 3084 
Q 2600 3084 3056 2656 
Q 3513 2228 3513 1497 
Q 3513 744 3044 326 
Q 2575 -91 1722 -91 
Q 1428 -91 1123 -41 
Q 819 9 494 109 
L 494 744 
Q 775 591 1075 516 
Q 1375 441 1709 441 
Q 2250 441 2565 725 
Q 2881 1009 2881 1497 
Q 2881 1984 2565 2268 
Q 2250 2553 1709 2553 
Q 1456 2553 1204 2497 
Q 953 2441 691 2322 
L 691 4666 
z
" transform="scale(0.015625)"/>
       </defs>
       <use xlink:href="#DejaVuSans-35"/>
      </g>
     </g>
    </g>
    <g id="xtick_3">
     <g id="line2d_3">
      <g>
       <use xlink:href="#md0a5c4d7c7" x="108.837642" y="160.92" style="stroke: #000000; stroke-width: 0.8"/>
      </g>
     </g>
     <g id="text_3">
      <!-- 10 -->
      <g transform="translate(102.475142 175.518438)scale(0.1 -0.1)">
       <defs>
        <path id="DejaVuSans-31" d="M 794 531 
L 1825 531 
L 1825 4091 
L 703 3866 
L 703 4441 
L 1819 4666 
L 2450 4666 
L 2450 531 
L 3481 531 
L 3481 0 
L 794 0 
L 794 531 
z
" transform="scale(0.015625)"/>
       </defs>
       <use xlink:href="#DejaVuSans-31"/>
       <use xlink:href="#DejaVuSans-30" x="63.623047"/>
      </g>
     </g>
    </g>
    <g id="xtick_4">
     <g id="line2d_4">
      <g>
       <use xlink:href="#md0a5c4d7c7" x="144.346733" y="160.92" style="stroke: #000000; stroke-width: 0.8"/>
      </g>
     </g>
     <g id="text_4">
      <!-- 15 -->
      <g transform="translate(137.984233 175.518438)scale(0.1 -0.1)">
       <use xlink:href="#DejaVuSans-31"/>
       <use xlink:href="#DejaVuSans-35" x="63.623047"/>
      </g>
     </g>
    </g>
    <g id="xtick_5">
     <g id="line2d_5">
      <g>
       <use xlink:href="#md0a5c4d7c7" x="179.855824" y="160.92" style="stroke: #000000; stroke-width: 0.8"/>
      </g>
     </g>
     <g id="text_5">
      <!-- 20 -->
      <g transform="translate(173.493324 175.518438)scale(0.1 -0.1)">
       <defs>
        <path id="DejaVuSans-32" d="M 1228 531 
L 3431 531 
L 3431 0 
L 469 0 
L 469 531 
Q 828 903 1448 1529 
Q 2069 2156 2228 2338 
Q 2531 2678 2651 2914 
Q 2772 3150 2772 3378 
Q 2772 3750 2511 3984 
Q 2250 4219 1831 4219 
Q 1534 4219 1204 4116 
Q 875 4013 500 3803 
L 500 4441 
Q 881 4594 1212 4672 
Q 1544 4750 1819 4750 
Q 2544 4750 2975 4387 
Q 3406 4025 3406 3419 
Q 3406 3131 3298 2873 
Q 3191 2616 2906 2266 
Q 2828 2175 2409 1742 
Q 1991 1309 1228 531 
z
" transform="scale(0.015625)"/>
       </defs>
       <use xlink:href="#DejaVuSans-32"/>
       <use xlink:href="#DejaVuSans-30" x="63.623047"/>
      </g>
     </g>
    </g>
    <g id="xtick_6">
     <g id="line2d_6">
      <g>
       <use xlink:href="#md0a5c4d7c7" x="215.364915" y="160.92" style="stroke: #000000; stroke-width: 0.8"/>
      </g>
     </g>
     <g id="text_6">
      <!-- 25 -->
      <g transform="translate(209.002415 175.518438)scale(0.1 -0.1)">
       <use xlink:href="#DejaVuSans-32"/>
       <use xlink:href="#DejaVuSans-35" x="63.623047"/>
      </g>
     </g>
    </g>
   </g>
   <g id="matplotlib.axis_2">
    <g id="ytick_1">
     <g id="line2d_7">
      <defs>
       <path id="m0907566716" d="M 0 0 
L -3.5 0 
" style="stroke: #000000; stroke-width: 0.8"/>
      </defs>
      <g>
       <use xlink:href="#m0907566716" x="28.942188" y="122.21101" style="stroke: #000000; stroke-width: 0.8"/>
      </g>
     </g>
     <g id="text_7">
      <!-- −2 -->
      <g transform="translate(7.2 126.010228)scale(0.1 -0.1)">
       <defs>
        <path id="DejaVuSans-2212" d="M 678 2272 
L 4684 2272 
L 4684 1741 
L 678 1741 
L 678 2272 
z
" transform="scale(0.015625)"/>
       </defs>
       <use xlink:href="#DejaVuSans-2212"/>
       <use xlink:href="#DejaVuSans-32" x="83.789062"/>
      </g>
     </g>
    </g>
    <g id="ytick_2">
     <g id="line2d_8">
      <g>
       <use xlink:href="#m0907566716" x="28.942188" y="76.625639" style="stroke: #000000; stroke-width: 0.8"/>
      </g>
     </g>
     <g id="text_8">
      <!-- 0 -->
      <g transform="translate(15.579688 80.424857)scale(0.1 -0.1)">
       <use xlink:href="#DejaVuSans-30"/>
      </g>
     </g>
    </g>
    <g id="ytick_3">
     <g id="line2d_9">
      <g>
       <use xlink:href="#m0907566716" x="28.942188" y="31.040267" style="stroke: #000000; stroke-width: 0.8"/>
      </g>
     </g>
     <g id="text_9">
      <!-- 2 -->
      <g transform="translate(15.579688 34.839486)scale(0.1 -0.1)">
       <use xlink:href="#DejaVuSans-32"/>
      </g>
     </g>
    </g>
   </g>
   <g id="line2d_10">
    <path d="M 37.81946 79.475665 
L 39.954275 57.844415 
L 41.377485 45.607637 
L 42.444893 38.319096 
L 43.156498 34.546762 
L 43.868103 31.724428 
L 44.579708 29.892609 
L 44.935511 29.353474 
L 45.291313 29.064961 
L 45.647116 29.024534 
L 46.002918 29.227997 
L 46.358721 29.669537 
L 47.070326 31.235877 
L 47.781931 33.647269 
L 48.493536 36.806638 
L 49.560943 42.694474 
L 50.984153 51.999071 
L 54.186376 73.695201 
L 55.609586 81.49803 
L 56.676993 86.038473 
L 57.388599 88.368899 
L 58.100204 90.129284 
L 58.811809 91.329731 
L 59.523414 91.997269 
L 60.235019 92.173674 
L 60.946624 91.912948 
L 61.658229 91.278573 
L 62.369834 90.340659 
L 63.437241 88.526709 
L 66.995266 81.855854 
L 68.062674 80.445253 
L 68.774279 79.788193 
L 69.485884 79.384204 
L 70.197489 79.24533 
L 70.909094 79.374584 
L 71.620699 79.7665 
L 72.332304 80.407806 
L 73.399712 81.791242 
L 74.467119 83.59493 
L 76.246132 87.204653 
L 78.736749 92.408293 
L 79.804157 94.268931 
L 80.871564 95.694435 
L 81.583169 96.337072 
L 82.294774 96.692687 
L 83.00638 96.731445 
L 83.717985 96.428976 
L 84.42959 95.767107 
L 85.141195 94.73452 
L 85.8528 93.327313 
L 86.920207 90.524976 
L 87.987615 86.93847 
L 89.410825 81.097295 
L 91.189837 72.565482 
L 95.103665 53.23759 
L 96.526875 47.634137 
L 97.594283 44.395449 
L 98.305888 42.778925 
L 99.017493 41.634538 
L 99.729098 40.983765 
L 100.0849 40.847318 
L 100.440703 40.837526 
L 100.796505 40.954061 
L 101.50811 41.56143 
L 102.219715 42.653468 
L 102.93132 44.204078 
L 103.998728 47.309972 
L 105.066135 51.212622 
L 106.489345 57.332284 
L 111.826383 81.655243 
L 113.249593 86.59587 
L 114.317001 89.550437 
L 115.384408 91.822027 
L 116.096013 92.957799 
L 116.807618 93.80086 
L 117.519223 94.366402 
L 118.230828 94.674457 
L 118.942433 94.749008 
L 119.654038 94.61708 
L 120.721446 94.0962 
L 121.788854 93.279565 
L 123.567866 91.540094 
L 126.414286 88.713919 
L 127.837496 87.643179 
L 128.904904 87.082243 
L 129.972311 86.754962 
L 131.039719 86.667169 
L 132.107126 86.808448 
L 133.174534 87.152379 
L 134.597744 87.851412 
L 138.155769 89.820522 
L 139.223177 90.122361 
L 139.934782 90.159847 
L 140.646387 90.032299 
L 141.357992 89.711817 
L 142.069597 89.172575 
L 142.781202 88.391715 
L 143.492807 87.350276 
L 144.560214 85.270094 
L 145.627622 82.550119 
L 146.69503 79.201868 
L 148.11824 73.853106 
L 149.897252 66.09581 
L 153.455277 50.045111 
L 154.522685 46.038601 
L 155.590092 42.816878 
L 156.301697 41.209722 
L 157.013302 40.09929 
L 157.724907 39.531328 
L 158.08071 39.462404 
L 158.436513 39.541708 
L 158.792315 39.771981 
L 159.50392 40.692596 
L 160.215525 42.230728 
L 160.92713 44.380042 
L 161.638735 47.121307 
L 162.706143 52.270163 
L 163.77355 58.519531 
L 165.19676 68.196201 
L 167.687378 87.076002 
L 170.177995 105.333183 
L 171.601206 114.206407 
L 172.668613 119.749249 
L 173.736021 124.189534 
L 174.447626 126.497361 
L 175.159231 128.27103 
L 175.870836 129.511644 
L 176.582441 130.229973 
L 177.294046 130.445614 
L 177.649848 130.37322 
L 178.361453 129.88837 
L 179.073058 128.981513 
L 179.784663 127.694437 
L 180.852071 125.150696 
L 181.919478 122.015137 
L 183.698491 115.916013 
L 188.679726 98.057657 
L 190.458739 92.755818 
L 191.881949 89.163203 
L 193.305159 86.163344 
L 194.728369 83.728708 
L 196.151579 81.805436 
L 197.574789 80.324938 
L 198.997999 79.213423 
L 200.421209 78.398965 
L 201.844419 77.816174 
L 203.623432 77.328646 
L 205.758247 76.983894 
L 208.604667 76.761474 
L 213.2301 76.649283 
L 215.364915 76.635458 
L 215.364915 76.635458 
" clip-path="url(#pdec71086d1)" style="fill: none; stroke: #1f77b4; stroke-width: 2; stroke-linecap: square"/>
   </g>
   <g id="line2d_11">
    <path d="M 37.81946 79.475662 
L 40.66588 52.602072 
L 42.08909 41.582006 
L 43.156498 35.260762 
L 43.868103 32.161592 
L 44.579708 30.034122 
L 44.935511 29.359309 
L 45.291313 29.213991 
L 45.647116 29.309913 
L 46.002918 29.640354 
L 46.358721 30.197189 
L 47.070326 31.951027 
L 47.781931 34.481689 
L 48.849338 39.499262 
L 50.272548 47.830731 
L 52.407363 62.117981 
L 54.186376 74.624048 
L 55.253783 80.964879 
L 56.321191 85.99967 
L 57.032796 88.512482 
L 57.744401 90.302505 
L 58.456006 91.356732 
L 59.167611 91.768774 
L 59.879216 92.959138 
L 60.590821 93.84976 
L 61.302426 94.481865 
L 62.014031 94.896362 
L 63.081439 95.193299 
L 64.148846 95.198971 
L 65.572056 94.901968 
L 67.351069 94.235129 
L 72.332304 92.12265 
L 73.399712 91.928698 
L 74.467119 91.929425 
L 75.534527 92.150674 
L 76.601934 92.592552 
L 78.025144 93.46487 
L 80.515762 95.333121 
L 81.227367 96.501542 
L 81.938972 97.263392 
L 82.650577 97.599641 
L 83.362182 97.500141 
L 84.073787 96.963243 
L 84.785392 95.995366 
L 85.496997 94.610444 
L 86.564405 91.798479 
L 87.987615 87.041725 
L 89.055022 82.947834 
L 90.478232 76.493712 
L 92.96885 63.698002 
L 94.747862 54.837952 
L 96.171073 49.074455 
L 97.23848 45.590202 
L 98.305888 42.996345 
L 99.017493 41.823918 
L 99.729098 41.129502 
L 100.0849 40.967495 
L 100.440703 40.930887 
L 100.796505 41.020305 
L 101.50811 41.576221 
L 102.219715 42.680848 
L 102.93132 44.259078 
L 103.998728 47.373254 
L 105.066135 51.247025 
L 106.489345 57.301826 
L 111.114778 78.275746 
L 112.182186 81.979821 
L 113.249593 84.967519 
L 114.317001 87.207236 
L 115.028606 88.296886 
L 115.740211 89.087817 
L 116.451816 89.610515 
L 117.163421 89.901996 
L 117.875026 90.003516 
L 118.942433 89.894022 
L 120.721446 89.355436 
L 122.856261 88.73746 
L 124.279471 88.560234 
L 126.058484 88.615941 
L 130.328114 88.977066 
L 131.751324 88.841204 
L 133.174534 88.512091 
L 134.953547 87.861584 
L 137.088362 86.824769 
L 139.223177 85.556713 
L 141.002189 84.22669 
L 142.425399 82.837547 
L 143.492807 81.507693 
L 144.560214 79.852444 
L 145.627622 77.804711 
L 146.69503 75.311 
L 147.762437 72.341981 
L 149.185647 67.658904 
L 150.96466 60.85729 
L 151.676265 57.718681 
L 153.099475 50.869166 
L 154.166882 46.5103 
L 155.23429 43.049474 
L 155.945895 41.325814 
L 156.6575 40.116017 
L 157.369105 39.450287 
L 157.724907 39.328368 
L 158.08071 39.349629 
L 158.792315 39.718088 
L 159.148118 40.028855 
L 159.859723 41.143442 
L 160.571328 42.922309 
L 161.282933 45.358323 
L 162.35034 50.18546 
L 163.417748 56.276708 
L 164.840958 65.959265 
L 167.331575 85.174029 
L 169.46639 101.265204 
L 170.889601 110.577501 
L 171.957008 116.460551 
L 173.736021 124.573519 
L 174.803428 128.244228 
L 175.515033 129.997625 
L 176.226638 131.189074 
L 176.938243 131.826058 
L 177.294046 131.942107 
L 177.649848 131.927479 
L 178.005651 131.786168 
L 178.717256 131.142337 
L 179.428861 130.053321 
L 180.140466 128.568602 
L 181.207873 125.719301 
L 182.631083 121.060594 
L 185.121701 111.765646 
L 187.968121 101.269107 
L 190.102936 94.151288 
L 192.593554 86.600225 
L 195.439974 78.647293 
L 197.574789 73.250607 
L 199.353802 69.380429 
L 200.777012 66.831944 
L 202.200222 64.811797 
L 203.623432 63.276153 
L 205.046642 62.108498 
L 207.181457 60.704004 
L 213.2301 56.995715 
L 214.297507 56.703359 
L 215.364915 56.701514 
L 215.364915 56.701514 
" clip-path="url(#pdec71086d1)" style="fill: none; stroke: #808080; stroke-opacity: 0.25; stroke-width: 1.5; stroke-linecap: square"/>
   </g>
   <g id="line2d_12">
    <path d="M 37.81946 79.475664 
L 40.310078 55.264159 
L 41.733288 43.665307 
L 42.800695 36.841842 
L 43.5123 33.377675 
L 44.223905 30.865777 
L 44.935511 29.357141 
L 45.291313 29.158514 
L 45.647116 29.203298 
L 46.002918 29.485566 
L 46.358721 29.99794 
L 47.070326 31.67675 
L 47.781931 34.155176 
L 48.849338 39.146596 
L 49.916746 45.313067 
L 52.051561 59.46752 
L 54.186376 74.128017 
L 55.253783 80.260969 
L 56.321191 85.198314 
L 57.032796 87.744221 
L 57.744401 89.671193 
L 58.456006 90.985669 
L 59.523414 92.120785 
L 60.235019 92.531778 
L 60.946624 92.512384 
L 61.658229 92.11263 
L 62.369834 91.389611 
L 63.437241 89.835709 
L 64.860451 87.231733 
L 66.995266 83.222181 
L 68.062674 81.582224 
L 69.130081 80.383802 
L 69.841686 79.881335 
L 70.553292 79.639553 
L 71.264897 79.668816 
L 71.976502 79.970737 
L 72.688107 80.538369 
L 73.399712 81.356458 
L 74.467119 83.000678 
L 75.890329 85.794739 
L 79.804157 94.152721 
L 80.515762 95.260882 
L 81.227367 95.916462 
L 81.938972 96.3234 
L 82.650577 96.455609 
L 83.362182 96.289773 
L 84.073787 95.805831 
L 84.785392 94.987635 
L 85.496997 93.823688 
L 86.208602 92.307987 
L 87.27601 89.377702 
L 88.343417 85.474863 
L 89.766627 79.225463 
L 92.257245 66.849198 
L 94.747862 54.80728 
L 96.171073 48.703831 
L 97.23848 45.061616 
L 97.950085 43.183832 
L 98.66169 41.795751 
L 99.373295 40.92631 
L 99.729098 40.691554 
L 100.0849 40.591324 
L 100.440703 40.62546 
L 100.796505 40.792935 
L 101.50811 41.519526 
L 102.575518 43.211039 
L 103.287123 44.841804 
L 104.35453 48.059894 
L 105.421938 52.094088 
L 106.845148 58.469368 
L 110.047371 73.638001 
L 111.470581 79.06066 
L 112.893791 83.666606 
L 114.317001 87.454294 
L 115.740211 90.532082 
L 117.163421 93.06725 
L 118.942433 95.740601 
L 121.788854 99.497861 
L 126.414286 105.546032 
L 129.260706 109.676153 
L 132.818731 114.937099 
L 133.886139 116.212844 
L 134.953547 117.149468 
L 135.665152 117.519028 
L 136.376757 117.63832 
L 137.088362 117.47032 
L 137.799967 116.982617 
L 138.511572 116.149257 
L 139.223177 114.952348 
L 139.934782 113.383225 
L 141.002189 110.337225 
L 142.069597 106.505513 
L 143.492807 100.340412 
L 145.271819 91.394025 
L 151.676265 57.837786 
L 153.81108 48.272613 
L 154.878487 44.303026 
L 155.590092 42.188305 
L 156.301697 40.594372 
L 157.013302 39.585407 
L 157.369105 39.3156 
L 157.724907 39.208166 
L 158.08071 39.266105 
L 159.50392 40.212192 
L 160.215525 41.344464 
L 160.92713 43.072805 
L 161.638735 45.400957 
L 162.706143 49.990497 
L 163.77355 55.802752 
L 165.19676 65.146162 
L 166.975773 78.552326 
L 170.533798 105.992722 
L 171.957008 115.476925 
L 172.668613 119.670427 
L 173.380218 122.225786 
L 174.091823 124.031235 
L 174.803428 125.235427 
L 175.515033 125.845552 
L 175.870836 125.934631 
L 176.226638 125.885415 
L 176.582441 125.703414 
L 177.294046 124.967881 
L 178.005651 123.790306 
L 179.073058 121.360584 
L 180.496268 117.336501 
L 182.986886 110.128426 
L 184.054294 107.634898 
L 185.121701 105.733783 
L 185.833306 104.822804 
L 186.544911 104.189509 
L 187.256516 103.807914 
L 187.968121 103.636487 
L 189.035529 103.651091 
L 191.170344 103.807925 
L 191.881949 103.631643 
L 192.593554 103.228548 
L 193.305159 102.543576 
L 194.016764 101.533969 
L 194.728369 100.171348 
L 195.795776 97.442578 
L 196.863184 93.922424 
L 198.286394 88.195886 
L 200.777012 76.710248 
L 202.556024 68.93928 
L 203.623432 65.053201 
L 204.690839 62.028375 
L 205.402444 60.574584 
L 206.114049 59.611215 
L 206.825654 59.157055 
L 207.181457 59.122894 
L 207.537259 59.216629 
L 208.248864 59.78046 
L 208.96047 60.825738 
L 209.672075 62.317373 
L 210.739482 65.288593 
L 211.80689 68.966206 
L 213.585902 76.046317 
L 215.364915 83.341427 
L 215.364915 83.341427 
" clip-path="url(#pdec71086d1)" style="fill: none; stroke: #808080; stroke-opacity: 0.25; stroke-width: 1.5; stroke-linecap: square"/>
   </g>
   <g id="line2d_13">
    <path d="M 37.81946 79.475666 
L 40.66588 52.651547 
L 42.08909 41.589652 
L 43.156498 35.248488 
L 43.868103 32.147101 
L 44.579708 30.027206 
L 44.935511 29.358974 
L 45.291313 29.204371 
L 45.647116 29.289272 
L 46.002918 29.607327 
L 46.358721 30.150828 
L 47.070326 31.877051 
L 47.781931 34.382316 
L 48.849338 39.375394 
L 50.272548 47.719913 
L 52.407363 62.080316 
L 54.186376 74.380483 
L 55.253783 80.610774 
L 56.321191 85.590066 
L 57.032796 88.117156 
L 57.744401 89.976369 
L 58.456006 91.16478 
L 60.590821 93.19561 
L 61.302426 93.401201 
L 62.014031 93.33074 
L 62.725636 93.038202 
L 63.793044 92.300818 
L 65.927859 90.362331 
L 67.351069 89.16359 
L 68.418476 88.476032 
L 69.485884 88.032229 
L 70.553292 87.860006 
L 71.620699 87.965922 
L 72.688107 88.33966 
L 73.755514 88.957378 
L 75.178724 90.097507 
L 76.957737 91.862116 
L 79.448354 94.380856 
L 80.515762 95.327253 
L 81.227367 96.468797 
L 81.938972 97.235134 
L 82.650577 97.595678 
L 83.362182 97.52906 
L 84.073787 97.023536 
L 84.785392 96.077236 
L 85.496997 94.698129 
L 86.208602 92.903811 
L 87.27601 89.494688 
L 89.055022 83.08402 
L 90.478232 76.744417 
L 92.613047 65.813309 
L 94.747862 54.858408 
L 96.171073 49.368629 
L 97.23848 46.065703 
L 98.305888 43.57541 
L 99.017493 42.406185 
L 99.729098 41.651269 
L 100.440703 41.324641 
L 101.152308 41.436312 
L 101.50811 41.658516 
L 101.863913 42.104374 
L 102.575518 43.753398 
L 103.642925 47.034354 
L 105.066135 52.525195 
L 108.979963 69.315703 
L 113.249593 93.735279 
L 114.672803 100.533476 
L 116.096013 106.149903 
L 117.163421 109.534073 
L 118.230828 112.226344 
L 119.298236 114.277679 
L 120.365644 115.754096 
L 121.077249 116.451227 
L 121.788854 116.937244 
L 122.500459 117.223008 
L 123.212064 117.313951 
L 123.923669 117.209928 
L 124.635274 116.905715 
L 125.346879 116.392177 
L 126.058484 115.657882 
L 127.125891 114.117442 
L 128.193299 112.025765 
L 129.260706 109.380497 
L 130.683916 105.063125 
L 132.462929 98.725975 
L 135.665152 86.955656 
L 137.088362 82.602219 
L 138.155769 79.965007 
L 139.223177 77.915118 
L 140.290584 76.422554 
L 141.357992 75.391708 
L 142.425399 74.67291 
L 144.916017 73.146367 
L 145.983425 72.099837 
L 147.050832 70.59809 
L 148.11824 68.557086 
L 149.185647 65.957505 
L 150.608857 61.713317 
L 151.320462 59.333449 
L 152.743672 51.773057 
L 153.81108 46.738135 
L 154.878487 42.726377 
L 155.590092 40.735902 
L 156.301697 39.364124 
L 157.013302 38.662068 
L 157.369105 38.575022 
L 157.724907 38.669161 
L 158.08071 38.947253 
L 158.436513 39.411064 
L 158.792315 39.482622 
L 159.148118 39.412679 
L 159.50392 39.466406 
L 159.859723 39.647244 
L 160.571328 40.401818 
L 161.282933 41.694976 
L 161.994538 43.53795 
L 162.706143 45.934403 
L 163.77355 50.555433 
L 164.840958 56.361134 
L 166.264168 65.775884 
L 167.687378 76.771723 
L 170.177995 98.243266 
L 172.668613 119.469657 
L 173.024416 120.457493 
L 173.380218 120.727297 
L 173.736021 120.842504 
L 174.091823 120.808169 
L 174.447626 120.630057 
L 175.159231 119.868617 
L 175.870836 118.615308 
L 176.582441 116.933067 
L 177.649848 113.75004 
L 179.073058 108.619129 
L 181.563676 98.511551 
L 184.410096 87.219898 
L 186.189109 80.991089 
L 187.612319 76.639245 
L 189.035529 72.922114 
L 190.458739 69.892776 
L 191.526146 68.096178 
L 192.593554 66.717099 
L 193.660961 65.754401 
L 194.728369 65.195958 
L 195.439974 65.037331 
L 196.151579 65.039348 
L 197.218987 65.321039 
L 198.286394 65.904977 
L 199.353802 66.757787 
L 200.421209 67.853872 
L 201.844419 69.670678 
L 203.267629 71.894417 
L 204.690839 74.549104 
L 206.114049 77.656971 
L 207.893062 82.149655 
L 210.739482 90.199651 
L 212.874297 95.953504 
L 214.297507 99.084921 
L 215.364915 100.863138 
L 215.364915 100.863138 
" clip-path="url(#pdec71086d1)" style="fill: none; stroke: #808080; stroke-opacity: 0.25; stroke-width: 1.5; stroke-linecap: square"/>
   </g>
   <g id="line2d_14">
    <path d="M 37.81946 79.475662 
L 39.954275 57.948785 
L 41.377485 45.730233 
L 42.444893 38.430775 
L 43.156498 34.638551 
L 43.868103 31.786063 
L 44.579708 29.914553 
L 44.935511 29.354424 
L 45.291313 29.0904 
L 45.647116 29.075631 
L 46.002918 29.305416 
L 46.358721 29.773362 
L 47.070326 31.390106 
L 47.781931 33.843849 
L 48.493536 37.031415 
L 49.560943 42.922393 
L 51.339956 54.566198 
L 54.897981 78.349467 
L 55.965388 83.794578 
L 57.032796 87.910962 
L 57.744401 89.843293 
L 58.456006 91.105647 
L 60.235019 92.923652 
L 60.946624 93.301668 
L 61.658229 93.421304 
L 62.369834 93.338143 
L 63.437241 92.947527 
L 65.216254 91.954563 
L 67.351069 90.779571 
L 68.774279 90.200909 
L 70.197489 89.836834 
L 71.620699 89.707648 
L 73.043909 89.84514 
L 74.111317 90.150984 
L 75.178724 90.650536 
L 76.601934 91.623303 
L 78.380947 93.233579 
L 80.515762 95.315524 
L 81.227367 96.348565 
L 81.938972 96.999082 
L 82.650577 97.253458 
L 83.362182 97.106146 
L 84.073787 96.558487 
L 84.785392 95.6175 
L 85.496997 94.294901 
L 86.564405 91.630602 
L 87.631812 88.222017 
L 88.69922 84.188346 
L 90.12243 77.814037 
L 92.613047 65.218909 
L 94.747862 54.815348 
L 96.171073 48.785678 
L 97.23848 45.16282 
L 97.950085 43.282359 
L 98.66169 41.881985 
L 99.373295 40.993779 
L 100.0849 40.636934 
L 100.440703 40.66 
L 100.796505 40.816806 
L 101.50811 41.524565 
L 102.219715 42.569468 
L 102.93132 43.988522 
L 103.642925 45.832177 
L 104.710333 49.326576 
L 105.77774 53.5803 
L 107.20095 60.161098 
L 109.691568 72.100102 
L 111.114778 77.46993 
L 112.182186 80.841125 
L 113.249593 83.589809 
L 114.317001 85.713417 
L 115.384408 87.248927 
L 116.451816 88.262608 
L 117.519223 88.838605 
L 118.586631 89.067788 
L 119.654038 89.037943 
L 121.077249 88.726543 
L 122.856261 88.088137 
L 125.702681 86.814703 
L 131.751324 83.996556 
L 133.174534 83.657784 
L 134.241942 83.597705 
L 135.309349 83.726466 
L 136.732559 84.176734 
L 141.002189 85.893836 
L 141.713794 85.865484 
L 142.425399 85.63554 
L 143.137004 85.165216 
L 143.848609 84.421239 
L 144.560214 83.377682 
L 145.271819 82.017481 
L 146.339227 79.370943 
L 147.406635 76.020167 
L 148.829845 70.597034 
L 150.608857 62.762025 
L 153.455277 50.048712 
L 154.522685 46.073707 
L 155.590092 42.883159 
L 156.301697 41.288102 
L 157.013302 40.176334 
L 157.724907 39.587654 
L 158.08071 39.499203 
L 158.436513 39.551859 
L 158.792315 39.796324 
L 159.50392 40.812129 
L 160.215525 42.484154 
L 160.92713 44.809182 
L 161.638735 47.768927 
L 162.706143 53.320924 
L 163.77355 60.044936 
L 165.19676 70.396896 
L 169.822193 105.749774 
L 170.889601 112.162665 
L 171.957008 117.282412 
L 173.024416 121.792722 
L 174.447626 129.695214 
L 175.515033 134.688329 
L 176.582441 138.797998 
L 177.649848 141.96975 
L 178.361453 143.544356 
L 179.073058 144.678839 
L 179.784663 145.369895 
L 180.496268 145.617551 
L 181.207873 145.425173 
L 181.919478 144.799575 
L 182.631083 143.751057 
L 183.342689 142.293573 
L 184.410096 139.380282 
L 185.477504 135.663308 
L 186.900714 129.623884 
L 188.679726 120.7268 
L 191.526146 104.880999 
L 194.372566 89.413255 
L 196.151579 80.978716 
L 197.574789 75.254606 
L 198.642197 71.651032 
L 199.709604 68.679327 
L 200.777012 66.356989 
L 201.844419 64.683368 
L 202.556024 63.919041 
L 203.267629 63.423718 
L 203.979234 63.182274 
L 204.690839 63.175263 
L 205.402444 63.378981 
L 206.469852 64.017857 
L 207.537259 64.958865 
L 210.027877 67.635892 
L 211.451087 68.999403 
L 212.518495 69.75381 
L 213.585902 70.20447 
L 214.65331 70.324276 
L 215.364915 70.224856 
L 215.364915 70.224856 
" clip-path="url(#pdec71086d1)" style="fill: none; stroke: #808080; stroke-opacity: 0.25; stroke-width: 1.5; stroke-linecap: square"/>
   </g>
   <g id="line2d_15">
    <path d="M 37.81946 79.475664 
L 40.310078 55.021401 
L 41.733288 43.471689 
L 42.800695 36.721059 
L 43.5123 33.306485 
L 44.223905 30.836695 
L 44.935511 29.356695 
L 45.291313 29.148997 
L 45.647116 29.188719 
L 46.002918 29.469885 
L 46.358721 29.984918 
L 47.070326 31.678771 
L 47.781931 34.181254 
L 48.849338 39.211884 
L 50.272548 47.641925 
L 52.407363 62.07411 
L 54.186376 74.400761 
L 55.253783 80.673595 
L 56.321191 85.689339 
L 57.032796 88.225011 
L 57.744401 90.072552 
L 58.456006 91.224262 
L 59.523414 92.304758 
L 60.235019 93.123478 
L 60.946624 93.611119 
L 61.658229 93.809912 
L 62.369834 93.763469 
L 63.081439 93.515279 
L 64.148846 92.85649 
L 65.572056 91.647 
L 68.418476 89.079379 
L 69.841686 88.141789 
L 70.909094 87.720704 
L 71.976502 87.591743 
L 73.043909 87.781167 
L 74.111317 88.294276 
L 75.178724 89.112256 
L 76.601934 90.594599 
L 80.871564 95.830356 
L 81.583169 96.626422 
L 82.294774 97.063372 
L 83.00638 97.123803 
L 83.717985 96.797096 
L 84.42959 96.079223 
L 85.141195 94.972504 
L 85.8528 93.485318 
L 86.920207 90.573749 
L 87.987615 86.966196 
L 89.055022 82.719846 
L 90.478232 76.150907 
L 95.81527 50.230696 
L 96.882678 46.358155 
L 97.950085 43.390911 
L 98.66169 41.991385 
L 99.373295 41.093191 
L 100.0849 40.71594 
L 100.440703 40.725271 
L 100.796505 40.866283 
L 101.50811 41.537398 
L 102.219715 42.597848 
L 102.93132 44.059686 
L 103.642925 45.94438 
L 104.710333 49.489251 
L 106.133543 55.329951 
L 107.912556 63.831521 
L 109.691568 72.254881 
L 111.470581 79.331627 
L 112.893791 84.04638 
L 114.317001 87.869773 
L 115.740211 90.896793 
L 117.163421 93.313897 
L 118.942433 95.823816 
L 123.923669 102.529558 
L 127.481694 107.458991 
L 129.616509 109.998801 
L 131.751324 112.183182 
L 135.309349 115.456685 
L 136.732559 116.558873 
L 137.799967 117.138005 
L 138.511572 117.328359 
L 139.223177 117.30394 
L 139.934782 117.010983 
L 140.646387 116.395177 
L 141.357992 115.404606 
L 142.069597 113.992871 
L 142.781202 112.122142 
L 143.492807 109.766007 
L 144.560214 105.298503 
L 145.627622 99.73977 
L 147.050832 90.837405 
L 148.829845 78.060202 
L 151.320462 59.77079 
L 151.676265 58.321708 
L 153.099475 54.30278 
L 157.013302 42.426068 
L 157.724907 40.876089 
L 158.436513 39.737276 
L 158.792315 40.195768 
L 159.50392 42.407376 
L 160.215525 45.256393 
L 161.282933 50.58169 
L 162.706143 59.243517 
L 164.840958 74.210099 
L 168.04318 96.703774 
L 169.46639 105.341812 
L 170.889601 112.674946 
L 171.957008 117.246755 
L 173.024416 121.679268 
L 174.091823 126.725771 
L 174.803428 129.130352 
L 175.515033 130.719742 
L 175.870836 131.201905 
L 176.226638 131.474489 
L 176.582441 131.538103 
L 176.938243 131.394585 
L 177.294046 131.046962 
L 178.005651 129.757395 
L 178.717256 127.716575 
L 179.428861 124.988382 
L 180.496268 119.782373 
L 181.919478 111.260571 
L 184.765899 91.955788 
L 186.544911 80.666261 
L 187.968121 73.074772 
L 189.035529 68.487932 
L 190.102936 64.956526 
L 190.814541 63.209102 
L 191.526146 61.947931 
L 192.237751 61.164826 
L 192.949356 60.844998 
L 193.660961 60.968132 
L 194.372566 61.509311 
L 195.084171 62.439808 
L 195.795776 63.727724 
L 196.863184 66.253631 
L 197.930592 69.380319 
L 199.353802 74.25319 
L 201.844419 83.802603 
L 204.690839 94.491571 
L 206.469852 100.223097 
L 207.893062 104.046413 
L 209.316272 107.137424 
L 210.38368 108.985397 
L 211.451087 110.45977 
L 212.518495 111.598238 
L 213.585902 112.442049 
L 214.65331 113.029789 
L 215.364915 113.29496 
L 215.364915 113.29496 
" clip-path="url(#pdec71086d1)" style="fill: none; stroke: #808080; stroke-opacity: 0.25; stroke-width: 1.5; stroke-linecap: square"/>
   </g>
   <g id="patch_3">
    <path d="M 28.942188 160.92 
L 28.942188 22.32 
" style="fill: none; stroke: #000000; stroke-width: 0.8; stroke-linejoin: miter; stroke-linecap: square"/>
   </g>
   <g id="patch_4">
    <path d="M 224.242188 160.92 
L 224.242188 22.32 
" style="fill: none; stroke: #000000; stroke-width: 0.8; stroke-linejoin: miter; stroke-linecap: square"/>
   </g>
   <g id="patch_5">
    <path d="M 28.942188 160.92 
L 224.242188 160.92 
" style="fill: none; stroke: #000000; stroke-width: 0.8; stroke-linejoin: miter; stroke-linecap: square"/>
   </g>
   <g id="patch_6">
    <path d="M 28.942188 22.32 
L 224.242188 22.32 
" style="fill: none; stroke: #000000; stroke-width: 0.8; stroke-linejoin: miter; stroke-linecap: square"/>
   </g>
   <g id="text_10">
    <!-- Lengthscale $\ell$=2.000, Amplitude $a$=1 -->
    <g transform="translate(14.692188 16.32)scale(0.12 -0.12)">
     <defs>
      <path id="DejaVuSans-4c" d="M 628 4666 
L 1259 4666 
L 1259 531 
L 3531 531 
L 3531 0 
L 628 0 
L 628 4666 
z
" transform="scale(0.015625)"/>
      <path id="DejaVuSans-65" d="M 3597 1894 
L 3597 1613 
L 953 1613 
Q 991 1019 1311 708 
Q 1631 397 2203 397 
Q 2534 397 2845 478 
Q 3156 559 3463 722 
L 3463 178 
Q 3153 47 2828 -22 
Q 2503 -91 2169 -91 
Q 1331 -91 842 396 
Q 353 884 353 1716 
Q 353 2575 817 3079 
Q 1281 3584 2069 3584 
Q 2775 3584 3186 3129 
Q 3597 2675 3597 1894 
z
M 3022 2063 
Q 3016 2534 2758 2815 
Q 2500 3097 2075 3097 
Q 1594 3097 1305 2825 
Q 1016 2553 972 2059 
L 3022 2063 
z
" transform="scale(0.015625)"/>
      <path id="DejaVuSans-6e" d="M 3513 2113 
L 3513 0 
L 2938 0 
L 2938 2094 
Q 2938 2591 2744 2837 
Q 2550 3084 2163 3084 
Q 1697 3084 1428 2787 
Q 1159 2491 1159 1978 
L 1159 0 
L 581 0 
L 581 3500 
L 1159 3500 
L 1159 2956 
Q 1366 3272 1645 3428 
Q 1925 3584 2291 3584 
Q 2894 3584 3203 3211 
Q 3513 2838 3513 2113 
z
" transform="scale(0.015625)"/>
      <path id="DejaVuSans-67" d="M 2906 1791 
Q 2906 2416 2648 2759 
Q 2391 3103 1925 3103 
Q 1463 3103 1205 2759 
Q 947 2416 947 1791 
Q 947 1169 1205 825 
Q 1463 481 1925 481 
Q 2391 481 2648 825 
Q 2906 1169 2906 1791 
z
M 3481 434 
Q 3481 -459 3084 -895 
Q 2688 -1331 1869 -1331 
Q 1566 -1331 1297 -1286 
Q 1028 -1241 775 -1147 
L 775 -588 
Q 1028 -725 1275 -790 
Q 1522 -856 1778 -856 
Q 2344 -856 2625 -561 
Q 2906 -266 2906 331 
L 2906 616 
Q 2728 306 2450 153 
Q 2172 0 1784 0 
Q 1141 0 747 490 
Q 353 981 353 1791 
Q 353 2603 747 3093 
Q 1141 3584 1784 3584 
Q 2172 3584 2450 3431 
Q 2728 3278 2906 2969 
L 2906 3500 
L 3481 3500 
L 3481 434 
z
" transform="scale(0.015625)"/>
      <path id="DejaVuSans-74" d="M 1172 4494 
L 1172 3500 
L 2356 3500 
L 2356 3053 
L 1172 3053 
L 1172 1153 
Q 1172 725 1289 603 
Q 1406 481 1766 481 
L 2356 481 
L 2356 0 
L 1766 0 
Q 1100 0 847 248 
Q 594 497 594 1153 
L 594 3053 
L 172 3053 
L 172 3500 
L 594 3500 
L 594 4494 
L 1172 4494 
z
" transform="scale(0.015625)"/>
      <path id="DejaVuSans-68" d="M 3513 2113 
L 3513 0 
L 2938 0 
L 2938 2094 
Q 2938 2591 2744 2837 
Q 2550 3084 2163 3084 
Q 1697 3084 1428 2787 
Q 1159 2491 1159 1978 
L 1159 0 
L 581 0 
L 581 4863 
L 1159 4863 
L 1159 2956 
Q 1366 3272 1645 3428 
Q 1925 3584 2291 3584 
Q 2894 3584 3203 3211 
Q 3513 2838 3513 2113 
z
" transform="scale(0.015625)"/>
      <path id="DejaVuSans-73" d="M 2834 3397 
L 2834 2853 
Q 2591 2978 2328 3040 
Q 2066 3103 1784 3103 
Q 1356 3103 1142 2972 
Q 928 2841 928 2578 
Q 928 2378 1081 2264 
Q 1234 2150 1697 2047 
L 1894 2003 
Q 2506 1872 2764 1633 
Q 3022 1394 3022 966 
Q 3022 478 2636 193 
Q 2250 -91 1575 -91 
Q 1294 -91 989 -36 
Q 684 19 347 128 
L 347 722 
Q 666 556 975 473 
Q 1284 391 1588 391 
Q 1994 391 2212 530 
Q 2431 669 2431 922 
Q 2431 1156 2273 1281 
Q 2116 1406 1581 1522 
L 1381 1569 
Q 847 1681 609 1914 
Q 372 2147 372 2553 
Q 372 3047 722 3315 
Q 1072 3584 1716 3584 
Q 2034 3584 2315 3537 
Q 2597 3491 2834 3397 
z
" transform="scale(0.015625)"/>
      <path id="DejaVuSans-63" d="M 3122 3366 
L 3122 2828 
Q 2878 2963 2633 3030 
Q 2388 3097 2138 3097 
Q 1578 3097 1268 2742 
Q 959 2388 959 1747 
Q 959 1106 1268 751 
Q 1578 397 2138 397 
Q 2388 397 2633 464 
Q 2878 531 3122 666 
L 3122 134 
Q 2881 22 2623 -34 
Q 2366 -91 2075 -91 
Q 1284 -91 818 406 
Q 353 903 353 1747 
Q 353 2603 823 3093 
Q 1294 3584 2113 3584 
Q 2378 3584 2631 3529 
Q 2884 3475 3122 3366 
z
" transform="scale(0.015625)"/>
      <path id="DejaVuSans-61" d="M 2194 1759 
Q 1497 1759 1228 1600 
Q 959 1441 959 1056 
Q 959 750 1161 570 
Q 1363 391 1709 391 
Q 2188 391 2477 730 
Q 2766 1069 2766 1631 
L 2766 1759 
L 2194 1759 
z
M 3341 1997 
L 3341 0 
L 2766 0 
L 2766 531 
Q 2569 213 2275 61 
Q 1981 -91 1556 -91 
Q 1019 -91 701 211 
Q 384 513 384 1019 
Q 384 1609 779 1909 
Q 1175 2209 1959 2209 
L 2766 2209 
L 2766 2266 
Q 2766 2663 2505 2880 
Q 2244 3097 1772 3097 
Q 1472 3097 1187 3025 
Q 903 2953 641 2809 
L 641 3341 
Q 956 3463 1253 3523 
Q 1550 3584 1831 3584 
Q 2591 3584 2966 3190 
Q 3341 2797 3341 1997 
z
" transform="scale(0.015625)"/>
      <path id="DejaVuSans-6c" d="M 603 4863 
L 1178 4863 
L 1178 0 
L 603 0 
L 603 4863 
z
" transform="scale(0.015625)"/>
      <path id="DejaVuSans-20" transform="scale(0.015625)"/>
      <path id="DejaVuSans-Oblique-2113" d="M 950 838 
Q 1078 213 1350 213 
Q 1531 213 1766 572 
L 2181 572 
Q 1994 253 1775 88 
Q 1538 -91 1319 -91 
Q 831 -91 634 344 
L 400 0 
L -88 0 
Q 250 459 500 888 
Q 469 1131 469 1397 
Q 469 1872 566 2347 
Q 931 4131 1256 4497 
Q 1481 4750 1866 4750 
Q 2256 4750 2256 4209 
Q 2253 3966 2197 3675 
Q 1972 2484 950 838 
z
M 947 1656 
Q 1531 2744 1709 3613 
Q 1803 4072 1803 4191 
Q 1803 4406 1725 4406 
Q 1384 4134 1081 2516 
Q 997 2063 947 1656 
z
" transform="scale(0.015625)"/>
      <path id="DejaVuSans-3d" d="M 678 2906 
L 4684 2906 
L 4684 2381 
L 678 2381 
L 678 2906 
z
M 678 1631 
L 4684 1631 
L 4684 1100 
L 678 1100 
L 678 1631 
z
" transform="scale(0.015625)"/>
      <path id="DejaVuSans-2e" d="M 684 794 
L 1344 794 
L 1344 0 
L 684 0 
L 684 794 
z
" transform="scale(0.015625)"/>
      <path id="DejaVuSans-2c" d="M 750 794 
L 1409 794 
L 1409 256 
L 897 -744 
L 494 -744 
L 750 256 
L 750 794 
z
" transform="scale(0.015625)"/>
      <path id="DejaVuSans-41" d="M 2188 4044 
L 1331 1722 
L 3047 1722 
L 2188 4044 
z
M 1831 4666 
L 2547 4666 
L 4325 0 
L 3669 0 
L 3244 1197 
L 1141 1197 
L 716 0 
L 50 0 
L 1831 4666 
z
" transform="scale(0.015625)"/>
      <path id="DejaVuSans-6d" d="M 3328 2828 
Q 3544 3216 3844 3400 
Q 4144 3584 4550 3584 
Q 5097 3584 5394 3201 
Q 5691 2819 5691 2113 
L 5691 0 
L 5113 0 
L 5113 2094 
Q 5113 2597 4934 2840 
Q 4756 3084 4391 3084 
Q 3944 3084 3684 2787 
Q 3425 2491 3425 1978 
L 3425 0 
L 2847 0 
L 2847 2094 
Q 2847 2600 2669 2842 
Q 2491 3084 2119 3084 
Q 1678 3084 1418 2786 
Q 1159 2488 1159 1978 
L 1159 0 
L 581 0 
L 581 3500 
L 1159 3500 
L 1159 2956 
Q 1356 3278 1631 3431 
Q 1906 3584 2284 3584 
Q 2666 3584 2933 3390 
Q 3200 3197 3328 2828 
z
" transform="scale(0.015625)"/>
      <path id="DejaVuSans-70" d="M 1159 525 
L 1159 -1331 
L 581 -1331 
L 581 3500 
L 1159 3500 
L 1159 2969 
Q 1341 3281 1617 3432 
Q 1894 3584 2278 3584 
Q 2916 3584 3314 3078 
Q 3713 2572 3713 1747 
Q 3713 922 3314 415 
Q 2916 -91 2278 -91 
Q 1894 -91 1617 61 
Q 1341 213 1159 525 
z
M 3116 1747 
Q 3116 2381 2855 2742 
Q 2594 3103 2138 3103 
Q 1681 3103 1420 2742 
Q 1159 2381 1159 1747 
Q 1159 1113 1420 752 
Q 1681 391 2138 391 
Q 2594 391 2855 752 
Q 3116 1113 3116 1747 
z
" transform="scale(0.015625)"/>
      <path id="DejaVuSans-69" d="M 603 3500 
L 1178 3500 
L 1178 0 
L 603 0 
L 603 3500 
z
M 603 4863 
L 1178 4863 
L 1178 4134 
L 603 4134 
L 603 4863 
z
" transform="scale(0.015625)"/>
      <path id="DejaVuSans-75" d="M 544 1381 
L 544 3500 
L 1119 3500 
L 1119 1403 
Q 1119 906 1312 657 
Q 1506 409 1894 409 
Q 2359 409 2629 706 
Q 2900 1003 2900 1516 
L 2900 3500 
L 3475 3500 
L 3475 0 
L 2900 0 
L 2900 538 
Q 2691 219 2414 64 
Q 2138 -91 1772 -91 
Q 1169 -91 856 284 
Q 544 659 544 1381 
z
M 1991 3584 
L 1991 3584 
z
" transform="scale(0.015625)"/>
      <path id="DejaVuSans-64" d="M 2906 2969 
L 2906 4863 
L 3481 4863 
L 3481 0 
L 2906 0 
L 2906 525 
Q 2725 213 2448 61 
Q 2172 -91 1784 -91 
Q 1150 -91 751 415 
Q 353 922 353 1747 
Q 353 2572 751 3078 
Q 1150 3584 1784 3584 
Q 2172 3584 2448 3432 
Q 2725 3281 2906 2969 
z
M 947 1747 
Q 947 1113 1208 752 
Q 1469 391 1925 391 
Q 2381 391 2643 752 
Q 2906 1113 2906 1747 
Q 2906 2381 2643 2742 
Q 2381 3103 1925 3103 
Q 1469 3103 1208 2742 
Q 947 2381 947 1747 
z
" transform="scale(0.015625)"/>
      <path id="DejaVuSans-Oblique-61" d="M 3438 1997 
L 3047 0 
L 2472 0 
L 2578 531 
Q 2325 219 2001 64 
Q 1678 -91 1281 -91 
Q 834 -91 548 182 
Q 263 456 263 884 
Q 263 1497 752 1853 
Q 1241 2209 2100 2209 
L 2900 2209 
L 2931 2363 
Q 2938 2388 2941 2417 
Q 2944 2447 2944 2509 
Q 2944 2788 2717 2942 
Q 2491 3097 2081 3097 
Q 1800 3097 1504 3025 
Q 1209 2953 897 2809 
L 997 3341 
Q 1322 3463 1633 3523 
Q 1944 3584 2234 3584 
Q 2853 3584 3176 3315 
Q 3500 3047 3500 2534 
Q 3500 2431 3484 2292 
Q 3469 2153 3438 1997 
z
M 2816 1759 
L 2241 1759 
Q 1534 1759 1195 1570 
Q 856 1381 856 984 
Q 856 709 1029 553 
Q 1203 397 1509 397 
Q 1978 397 2328 733 
Q 2678 1069 2791 1631 
L 2816 1759 
z
" transform="scale(0.015625)"/>
     </defs>
     <use xlink:href="#DejaVuSans-4c" transform="translate(0 0.015625)"/>
     <use xlink:href="#DejaVuSans-65" transform="translate(55.712891 0.015625)"/>
     <use xlink:href="#DejaVuSans-6e" transform="translate(117.236328 0.015625)"/>
     <use xlink:href="#DejaVuSans-67" transform="translate(180.615234 0.015625)"/>
     <use xlink:href="#DejaVuSans-74" transform="translate(244.091797 0.015625)"/>
     <use xlink:href="#DejaVuSans-68" transform="translate(283.300781 0.015625)"/>
     <use xlink:href="#DejaVuSans-73" transform="translate(346.679688 0.015625)"/>
     <use xlink:href="#DejaVuSans-63" transform="translate(398.779297 0.015625)"/>
     <use xlink:href="#DejaVuSans-61" transform="translate(453.759766 0.015625)"/>
     <use xlink:href="#DejaVuSans-6c" transform="translate(515.039062 0.015625)"/>
     <use xlink:href="#DejaVuSans-65" transform="translate(542.822266 0.015625)"/>
     <use xlink:href="#DejaVuSans-20" transform="translate(604.345703 0.015625)"/>
     <use xlink:href="#DejaVuSans-Oblique-2113" transform="translate(636.132812 0.015625)"/>
     <use xlink:href="#DejaVuSans-3d" transform="translate(677.441406 0.015625)"/>
     <use xlink:href="#DejaVuSans-32" transform="translate(761.230469 0.015625)"/>
     <use xlink:href="#DejaVuSans-2e" transform="translate(824.853516 0.015625)"/>
     <use xlink:href="#DejaVuSans-30" transform="translate(856.640625 0.015625)"/>
     <use xlink:href="#DejaVuSans-30" transform="translate(920.263672 0.015625)"/>
     <use xlink:href="#DejaVuSans-30" transform="translate(983.886719 0.015625)"/>
     <use xlink:href="#DejaVuSans-2c" transform="translate(1047.509766 0.015625)"/>
     <use xlink:href="#DejaVuSans-20" transform="translate(1079.296875 0.015625)"/>
     <use xlink:href="#DejaVuSans-41" transform="translate(1111.083984 0.015625)"/>
     <use xlink:href="#DejaVuSans-6d" transform="translate(1179.492188 0.015625)"/>
     <use xlink:href="#DejaVuSans-70" transform="translate(1276.904297 0.015625)"/>
     <use xlink:href="#DejaVuSans-6c" transform="translate(1340.380859 0.015625)"/>
     <use xlink:href="#DejaVuSans-69" transform="translate(1368.164062 0.015625)"/>
     <use xlink:href="#DejaVuSans-74" transform="translate(1395.947266 0.015625)"/>
     <use xlink:href="#DejaVuSans-75" transform="translate(1435.15625 0.015625)"/>
     <use xlink:href="#DejaVuSans-64" transform="translate(1498.535156 0.015625)"/>
     <use xlink:href="#DejaVuSans-65" transform="translate(1562.011719 0.015625)"/>
     <use xlink:href="#DejaVuSans-20" transform="translate(1623.535156 0.015625)"/>
     <use xlink:href="#DejaVuSans-Oblique-61" transform="translate(1655.322266 0.015625)"/>
     <use xlink:href="#DejaVuSans-3d" transform="translate(1716.601562 0.015625)"/>
     <use xlink:href="#DejaVuSans-31" transform="translate(1800.390625 0.015625)"/>
    </g>
   </g>
  </g>
 </g>
 <defs>
  <clipPath id="pdec71086d1">
   <rect x="28.942188" y="22.32" width="195.3" height="138.6"/>
  </clipPath>
 </defs>
</svg>
