<?xml version="1.0" encoding="utf-8" standalone="no"?>
<!DOCTYPE svg PUBLIC "-//W3C//DTD SVG 1.1//EN"
  "http://www.w3.org/Graphics/SVG/1.1/DTD/svg11.dtd">
<svg xmlns:xlink="http://www.w3.org/1999/xlink" width="245.692187pt" height="184.798125pt" viewBox="0 0 245.692187 184.798125" xmlns="http://www.w3.org/2000/svg" version="1.1">
 <metadata>
  <rdf:RDF xmlns:dc="http://purl.org/dc/elements/1.1/" xmlns:cc="http://creativecommons.org/ns#" xmlns:rdf="http://www.w3.org/1999/02/22-rdf-syntax-ns#">
   <cc:Work>
    <dc:type rdf:resource="http://purl.org/dc/dcmitype/StillImage"/>
    <dc:date>2022-12-10T17:08:44.790915</dc:date>
    <dc:format>image/svg+xml</dc:format>
    <dc:creator>
     <cc:Agent>
      <dc:title>Matplotlib v3.5.1, https://matplotlib.org/</dc:title>
     </cc:Agent>
    </dc:creator>
   </cc:Work>
  </rdf:RDF>
 </metadata>
 <defs>
  <style type="text/css">*{stroke-linejoin: round; stroke-linecap: butt}</style>
 </defs>
 <g id="figure_1">
  <g id="patch_1">
   <path d="M 0 184.798125 
L 245.692187 184.798125 
L 245.692187 0 
L 0 0 
z
" style="fill: #ffffff"/>
  </g>
  <g id="axes_1">
   <g id="patch_2">
    <path d="M 28.942188 160.92 
L 224.242188 160.92 
L 224.242188 22.32 
L 28.942188 22.32 
z
" style="fill: #ffffff"/>
   </g>
   <g id="matplotlib.axis_1">
    <g id="xtick_1">
     <g id="line2d_1">
      <defs>
       <path id="m918a006521" d="M 0 0 
L 0 3.5 
" style="stroke: #000000; stroke-width: 0.8"/>
      </defs>
      <g>
       <use xlink:href="#m918a006521" x="37.81946" y="160.92" style="stroke: #000000; stroke-width: 0.8"/>
      </g>
     </g>
     <g id="text_1">
      <!-- 0 -->
      <g transform="translate(34.63821 175.518438)scale(0.1 -0.1)">
       <defs>
        <path id="DejaVuSans-30" d="M 2034 4250 
Q 1547 4250 1301 3770 
Q 1056 3291 1056 2328 
Q 1056 1369 1301 889 
Q 1547 409 2034 409 
Q 2525 409 2770 889 
Q 3016 1369 3016 2328 
Q 3016 3291 2770 3770 
Q 2525 4250 2034 4250 
z
M 2034 4750 
Q 2819 4750 3233 4129 
Q 3647 3509 3647 2328 
Q 3647 1150 3233 529 
Q 2819 -91 2034 -91 
Q 1250 -91 836 529 
Q 422 1150 422 2328 
Q 422 3509 836 4129 
Q 1250 4750 2034 4750 
z
" transform="scale(0.015625)"/>
       </defs>
       <use xlink:href="#DejaVuSans-30"/>
      </g>
     </g>
    </g>
    <g id="xtick_2">
     <g id="line2d_2">
      <g>
       <use xlink:href="#m918a006521" x="73.328551" y="160.92" style="stroke: #000000; stroke-width: 0.8"/>
      </g>
     </g>
     <g id="text_2">
      <!-- 5 -->
      <g transform="translate(70.147301 175.518438)scale(0.1 -0.1)">
       <defs>
        <path id="DejaVuSans-35" d="M 691 4666 
L 3169 4666 
L 3169 4134 
L 1269 4134 
L 1269 2991 
Q 1406 3038 1543 3061 
Q 1681 3084 1819 3084 
Q 2600 3084 3056 2656 
Q 3513 2228 3513 1497 
Q 3513 744 3044 326 
Q 2575 -91 1722 -91 
Q 1428 -91 1123 -41 
Q 819 9 494 109 
L 494 744 
Q 775 591 1075 516 
Q 1375 441 1709 441 
Q 2250 441 2565 725 
Q 2881 1009 2881 1497 
Q 2881 1984 2565 2268 
Q 2250 2553 1709 2553 
Q 1456 2553 1204 2497 
Q 953 2441 691 2322 
L 691 4666 
z
" transform="scale(0.015625)"/>
       </defs>
       <use xlink:href="#DejaVuSans-35"/>
      </g>
     </g>
    </g>
    <g id="xtick_3">
     <g id="line2d_3">
      <g>
       <use xlink:href="#m918a006521" x="108.837642" y="160.92" style="stroke: #000000; stroke-width: 0.8"/>
      </g>
     </g>
     <g id="text_3">
      <!-- 10 -->
      <g transform="translate(102.475142 175.518438)scale(0.1 -0.1)">
       <defs>
        <path id="DejaVuSans-31" d="M 794 531 
L 1825 531 
L 1825 4091 
L 703 3866 
L 703 4441 
L 1819 4666 
L 2450 4666 
L 2450 531 
L 3481 531 
L 3481 0 
L 794 0 
L 794 531 
z
" transform="scale(0.015625)"/>
       </defs>
       <use xlink:href="#DejaVuSans-31"/>
       <use xlink:href="#DejaVuSans-30" x="63.623047"/>
      </g>
     </g>
    </g>
    <g id="xtick_4">
     <g id="line2d_4">
      <g>
       <use xlink:href="#m918a006521" x="144.346733" y="160.92" style="stroke: #000000; stroke-width: 0.8"/>
      </g>
     </g>
     <g id="text_4">
      <!-- 15 -->
      <g transform="translate(137.984233 175.518438)scale(0.1 -0.1)">
       <use xlink:href="#DejaVuSans-31"/>
       <use xlink:href="#DejaVuSans-35" x="63.623047"/>
      </g>
     </g>
    </g>
    <g id="xtick_5">
     <g id="line2d_5">
      <g>
       <use xlink:href="#m918a006521" x="179.855824" y="160.92" style="stroke: #000000; stroke-width: 0.8"/>
      </g>
     </g>
     <g id="text_5">
      <!-- 20 -->
      <g transform="translate(173.493324 175.518438)scale(0.1 -0.1)">
       <defs>
        <path id="DejaVuSans-32" d="M 1228 531 
L 3431 531 
L 3431 0 
L 469 0 
L 469 531 
Q 828 903 1448 1529 
Q 2069 2156 2228 2338 
Q 2531 2678 2651 2914 
Q 2772 3150 2772 3378 
Q 2772 3750 2511 3984 
Q 2250 4219 1831 4219 
Q 1534 4219 1204 4116 
Q 875 4013 500 3803 
L 500 4441 
Q 881 4594 1212 4672 
Q 1544 4750 1819 4750 
Q 2544 4750 2975 4387 
Q 3406 4025 3406 3419 
Q 3406 3131 3298 2873 
Q 3191 2616 2906 2266 
Q 2828 2175 2409 1742 
Q 1991 1309 1228 531 
z
" transform="scale(0.015625)"/>
       </defs>
       <use xlink:href="#DejaVuSans-32"/>
       <use xlink:href="#DejaVuSans-30" x="63.623047"/>
      </g>
     </g>
    </g>
    <g id="xtick_6">
     <g id="line2d_6">
      <g>
       <use xlink:href="#m918a006521" x="215.364915" y="160.92" style="stroke: #000000; stroke-width: 0.8"/>
      </g>
     </g>
     <g id="text_6">
      <!-- 25 -->
      <g transform="translate(209.002415 175.518438)scale(0.1 -0.1)">
       <use xlink:href="#DejaVuSans-32"/>
       <use xlink:href="#DejaVuSans-35" x="63.623047"/>
      </g>
     </g>
    </g>
   </g>
   <g id="matplotlib.axis_2">
    <g id="ytick_1">
     <g id="line2d_7">
      <defs>
       <path id="m1e6fd3f570" d="M 0 0 
L -3.5 0 
" style="stroke: #000000; stroke-width: 0.8"/>
      </defs>
      <g>
       <use xlink:href="#m1e6fd3f570" x="28.942188" y="123.549478" style="stroke: #000000; stroke-width: 0.8"/>
      </g>
     </g>
     <g id="text_7">
      <!-- −2 -->
      <g transform="translate(7.2 127.348697)scale(0.1 -0.1)">
       <defs>
        <path id="DejaVuSans-2212" d="M 678 2272 
L 4684 2272 
L 4684 1741 
L 678 1741 
L 678 2272 
z
" transform="scale(0.015625)"/>
       </defs>
       <use xlink:href="#DejaVuSans-2212"/>
       <use xlink:href="#DejaVuSans-32" x="83.789062"/>
      </g>
     </g>
    </g>
    <g id="ytick_2">
     <g id="line2d_8">
      <g>
       <use xlink:href="#m1e6fd3f570" x="28.942188" y="83.675121" style="stroke: #000000; stroke-width: 0.8"/>
      </g>
     </g>
     <g id="text_8">
      <!-- 0 -->
      <g transform="translate(15.579688 87.47434)scale(0.1 -0.1)">
       <use xlink:href="#DejaVuSans-30"/>
      </g>
     </g>
    </g>
    <g id="ytick_3">
     <g id="line2d_9">
      <g>
       <use xlink:href="#m1e6fd3f570" x="28.942188" y="43.800765" style="stroke: #000000; stroke-width: 0.8"/>
      </g>
     </g>
     <g id="text_9">
      <!-- 2 -->
      <g transform="translate(15.579688 47.599984)scale(0.1 -0.1)">
       <use xlink:href="#DejaVuSans-32"/>
      </g>
     </g>
    </g>
   </g>
   <g id="line2d_10">
    <path d="M 37.81946 105.255823 
L 38.175263 104.365573 
L 38.886868 101.056612 
L 39.954275 93.781166 
L 41.021683 84.432357 
L 43.5123 59.598991 
L 43.868103 58.452173 
L 44.223905 58.523351 
L 44.579708 59.79535 
L 44.935511 62.127725 
L 45.647116 69.021795 
L 47.426128 88.116876 
L 48.137733 92.862653 
L 48.493536 94.14814 
L 48.849338 94.666062 
L 49.205141 94.473661 
L 49.560943 93.70842 
L 50.984153 89.469662 
L 51.339956 89.183611 
L 51.695758 89.380853 
L 52.407363 90.727494 
L 52.763166 91.444329 
L 53.118968 91.874686 
L 53.474771 91.840752 
L 53.830573 91.26649 
L 54.542178 88.853568 
L 55.253783 86.588899 
L 55.609586 86.441154 
L 55.965388 87.366134 
L 56.321191 89.480084 
L 57.032796 96.610544 
L 57.744401 104.592327 
L 58.100204 107.51317 
L 58.456006 109.159632 
L 58.811809 109.37846 
L 59.167611 108.261243 
L 59.879216 103.355993 
L 60.590821 97.93965 
L 60.946624 96.048667 
L 61.302426 94.987586 
L 61.658229 94.755533 
L 62.014031 95.187359 
L 63.081439 97.404679 
L 63.437241 97.48501 
L 63.793044 97.027229 
L 64.504649 95.049675 
L 65.216254 93.3225 
L 65.572056 93.050728 
L 65.927859 93.214493 
L 66.639464 94.316687 
L 67.351069 95.339966 
L 68.062674 95.72649 
L 68.774279 95.781989 
L 69.130081 95.697355 
L 69.485884 95.401811 
L 69.841686 94.731792 
L 70.197489 93.545148 
L 70.909094 89.551764 
L 71.976502 82.724664 
L 72.332304 81.580225 
L 72.688107 81.430028 
L 73.043909 82.30667 
L 73.399712 84.069578 
L 75.178724 95.356255 
L 75.534527 96.222495 
L 75.890329 96.307745 
L 76.246132 95.559612 
L 76.601934 93.92408 
L 76.957737 91.351815 
L 77.669342 83.425314 
L 79.804157 54.288678 
L 80.159959 51.941439 
L 80.515762 50.5994 
L 80.871564 50.06541 
L 81.227367 50.0679 
L 82.294774 50.812601 
L 83.00638 51.134617 
L 83.362182 51.658207 
L 83.717985 52.797998 
L 84.073787 54.807385 
L 84.42959 57.824706 
L 85.141195 66.552337 
L 86.208602 80.84745 
L 86.564405 84.05897 
L 86.920207 85.981331 
L 87.27601 86.620733 
L 87.631812 86.208717 
L 88.69922 82.963363 
L 89.055022 82.628621 
L 89.410825 83.06279 
L 89.766627 84.217393 
L 90.834035 89.057194 
L 91.189837 89.729369 
L 91.54564 89.268208 
L 91.901442 87.440314 
L 92.257245 84.193364 
L 92.96885 74.229313 
L 94.036257 57.472649 
L 94.39206 53.533543 
L 94.747862 51.081911 
L 95.103665 50.274315 
L 95.459468 51.084093 
L 95.81527 53.316597 
L 96.526875 60.626966 
L 97.594283 71.999849 
L 97.950085 74.400941 
L 98.305888 75.865734 
L 98.66169 76.517981 
L 99.017493 76.632728 
L 99.373295 76.569423 
L 99.729098 76.686109 
L 100.0849 77.256782 
L 100.440703 78.414325 
L 101.152308 82.27052 
L 102.93132 94.53014 
L 103.642925 101.946943 
L 104.35453 112.659291 
L 105.421938 129.31677 
L 105.77774 132.69225 
L 106.133543 134.203945 
L 106.489345 133.718239 
L 106.845148 131.347812 
L 107.556753 122.265449 
L 110.047371 81.543208 
L 111.114778 69.735595 
L 112.182186 60.913717 
L 112.537988 58.748519 
L 112.893791 57.301025 
L 113.249593 56.82762 
L 113.605396 57.511598 
L 113.961198 59.385003 
L 114.672803 65.908754 
L 115.740211 77.035703 
L 116.451816 82.322589 
L 117.875026 91.207622 
L 118.942433 100.581224 
L 120.009841 109.44668 
L 120.365644 111.345577 
L 120.721446 112.468582 
L 121.077249 112.770671 
L 121.433051 112.290371 
L 121.788854 111.13757 
L 122.500459 107.403187 
L 123.212064 102.420093 
L 123.923669 95.960704 
L 124.635274 87.118536 
L 125.702681 69.469531 
L 126.770089 52.705323 
L 127.125891 49.146232 
L 127.481694 47.172036 
L 127.837496 46.949981 
L 128.193299 48.480221 
L 128.549101 51.59444 
L 129.260706 61.285528 
L 133.174534 123.982882 
L 133.530337 126.859705 
L 133.886139 128.292075 
L 134.241942 128.188684 
L 134.597744 126.598914 
L 134.953547 123.702343 
L 135.665152 115.168428 
L 137.088362 96.105488 
L 137.799967 88.699468 
L 138.511572 83.385768 
L 138.867374 81.755903 
L 139.223177 81.035266 
L 139.578979 81.392081 
L 139.934782 82.922197 
L 140.290584 85.595665 
L 141.002189 93.506245 
L 142.069597 105.987752 
L 142.425399 108.83361 
L 142.781202 110.745383 
L 143.137004 111.811884 
L 143.492807 112.262071 
L 144.560214 112.76259 
L 145.627622 114.211374 
L 145.983425 114.279149 
L 146.339227 113.812322 
L 146.69503 112.773428 
L 148.829845 104.13911 
L 149.185647 103.045277 
L 149.54145 101.58666 
L 149.897252 99.479865 
L 150.608857 92.645445 
L 151.320462 82.409853 
L 153.099475 54.044972 
L 153.81108 47.264829 
L 154.166882 45.223218 
L 154.878487 42.922612 
L 157.369105 37.92265 
L 157.724907 38.164513 
L 158.08071 39.263204 
L 158.436513 41.484018 
L 158.792315 45.026468 
L 159.50392 56.137252 
L 160.92713 84.33277 
L 161.282933 89.308198 
L 161.638735 92.564465 
L 161.994538 94.024141 
L 162.35034 93.858974 
L 162.706143 92.446039 
L 164.129353 84.174969 
L 164.485155 83.23661 
L 164.840958 82.89126 
L 165.19676 82.935999 
L 165.552563 83.102392 
L 165.908365 83.134953 
L 166.264168 82.857488 
L 166.61997 82.213104 
L 168.04318 78.558009 
L 168.398983 78.349665 
L 168.754785 78.652101 
L 169.110588 79.406736 
L 170.177995 82.59882 
L 170.533798 83.249244 
L 170.889601 83.404592 
L 171.245403 82.997533 
L 171.601206 82.054777 
L 173.024416 76.542614 
L 173.380218 76.035963 
L 173.736021 76.313575 
L 174.091823 77.430207 
L 174.447626 79.321508 
L 175.159231 84.718248 
L 176.226638 93.328958 
L 176.938243 96.982667 
L 177.294046 97.776103 
L 177.649848 97.831865 
L 178.005651 97.209955 
L 178.717256 94.548298 
L 179.784663 90.068009 
L 180.496268 88.175245 
L 182.275281 84.816071 
L 182.631083 84.445615 
L 182.986886 84.471233 
L 183.342689 85.00971 
L 183.698491 86.102466 
L 184.410096 89.725858 
L 185.477504 97.08133 
L 187.256516 109.817907 
L 187.612319 111.50922 
L 187.968121 112.431469 
L 188.323924 112.412882 
L 188.679726 111.394356 
L 189.035529 109.448416 
L 189.747134 103.547024 
L 192.237751 79.765673 
L 192.593554 77.861693 
L 192.949356 76.905974 
L 193.305159 76.986833 
L 193.660961 78.058045 
L 194.372566 82.383971 
L 195.439974 90.092897 
L 196.151579 93.301434 
L 196.507382 93.946475 
L 196.863184 93.913604 
L 197.218987 93.239547 
L 197.574789 92.007625 
L 198.286394 88.349272 
L 200.777012 73.552387 
L 201.132814 72.497811 
L 201.488617 72.154003 
L 201.844419 72.634659 
L 202.200222 73.967575 
L 202.911827 78.791752 
L 203.979234 87.796962 
L 204.335037 90.061812 
L 204.690839 91.513508 
L 205.046642 91.985229 
L 205.402444 91.397813 
L 205.758247 89.757693 
L 206.114049 87.144001 
L 206.825654 79.564665 
L 208.96047 52.526137 
L 209.316272 50.019881 
L 209.672075 48.874929 
L 210.027877 49.34195 
L 210.38368 51.553508 
L 210.739482 55.463816 
L 211.451087 67.13188 
L 212.518495 85.538281 
L 212.874297 89.519204 
L 213.2301 91.842031 
L 213.585902 92.499616 
L 213.941705 91.693192 
L 214.297507 89.771324 
L 215.364915 81.512945 
L 215.364915 81.512945 
" clip-path="url(#pfb20c30b2e)" style="fill: none; stroke: #000000; stroke-opacity: 0.5; stroke-width: 2; stroke-linecap: square"/>
   </g>
   <g id="line2d_11">
    <path d="M 37.81946 62.569452 
L 38.531065 54.253136 
L 38.886868 51.561134 
L 39.24267 49.797062 
L 39.598473 48.92986 
L 39.954275 48.934785 
L 40.310078 49.765861 
L 40.66588 51.315489 
L 42.08909 59.147577 
L 42.444893 59.543045 
L 42.800695 58.612323 
L 43.156498 56.245668 
L 43.868103 47.854669 
L 44.935511 33.221633 
L 45.291313 30.115058 
L 45.647116 28.62 
L 46.002918 28.893999 
L 46.358721 30.89418 
L 46.714523 34.41549 
L 47.426128 44.739472 
L 49.205141 73.59606 
L 49.560943 77.337396 
L 49.916746 79.783192 
L 50.272548 80.82965 
L 50.628351 80.527971 
L 50.984153 79.093163 
L 51.695758 74.280631 
L 52.407363 69.501572 
L 52.763166 67.82418 
L 53.118968 66.747731 
L 53.474771 66.225617 
L 53.830573 66.13707 
L 55.253783 66.754204 
L 55.609586 66.381725 
L 55.965388 65.654152 
L 57.032796 62.773838 
L 57.388599 62.536317 
L 57.744401 63.221605 
L 58.100204 65.0859 
L 58.456006 68.260354 
L 59.167611 78.386577 
L 60.235019 99.974239 
L 61.302426 121.720313 
L 61.658229 126.981723 
L 62.014031 130.341678 
L 62.369834 131.295871 
L 62.725636 129.506413 
L 63.081439 124.906871 
L 63.793044 108.710836 
L 64.860451 79.368616 
L 65.572056 66.944115 
L 65.927859 64.342685 
L 66.283661 64.083047 
L 66.639464 65.814014 
L 67.351069 73.263267 
L 68.774279 90.967759 
L 69.485884 97.151643 
L 70.197489 101.720195 
L 70.909094 105.228686 
L 71.264897 106.411866 
L 71.620699 106.955576 
L 71.976502 106.633196 
L 72.332304 105.260993 
L 72.688107 102.749468 
L 73.399712 94.624267 
L 74.822922 75.788603 
L 75.178724 73.378354 
L 75.534527 72.627806 
L 75.890329 73.579409 
L 76.246132 76.044013 
L 76.957737 83.86579 
L 77.669342 92.149951 
L 78.380947 97.648584 
L 78.736749 98.907438 
L 79.092552 99.21479 
L 79.448354 98.740984 
L 80.159959 96.454066 
L 80.871564 94.186906 
L 81.227367 93.610592 
L 81.583169 93.560612 
L 81.938972 94.042939 
L 82.650577 96.191878 
L 83.362182 98.572539 
L 83.717985 99.245976 
L 84.073787 99.303841 
L 84.42959 98.636348 
L 84.785392 97.233276 
L 85.496997 92.673842 
L 86.564405 85.038709 
L 86.920207 83.487378 
L 87.27601 82.921547 
L 87.631812 83.552194 
L 87.987615 85.482273 
L 88.343417 88.672558 
L 89.055022 97.883224 
L 90.12243 112.189481 
L 90.478232 115.231064 
L 90.834035 116.9252 
L 91.189837 117.236179 
L 91.54564 116.288052 
L 91.901442 114.316916 
L 92.613047 108.465452 
L 94.036257 95.90912 
L 94.747862 91.357345 
L 96.171073 83.874255 
L 96.882678 77.854579 
L 98.66169 57.710891 
L 99.017493 55.954021 
L 99.373295 55.944452 
L 99.729098 57.798348 
L 100.0849 61.369755 
L 100.796505 71.898679 
L 101.863913 87.385624 
L 102.575518 93.868264 
L 103.287123 99.357408 
L 103.998728 107.054482 
L 105.77774 131.152282 
L 106.133543 133.813795 
L 106.489345 135.422993 
L 106.845148 136.277869 
L 107.556753 137.548483 
L 107.912556 138.832121 
L 108.268358 140.871695 
L 110.047371 154.286671 
L 110.403173 154.62 
L 110.758976 153.413072 
L 111.114778 150.613276 
L 111.826383 140.633729 
L 112.893791 118.300172 
L 114.317001 88.348262 
L 115.028606 78.101584 
L 115.384408 74.691522 
L 115.740211 72.566979 
L 116.096013 71.806437 
L 116.451816 72.412365 
L 116.807618 74.248669 
L 118.230828 85.019919 
L 118.586631 85.541816 
L 118.942433 84.270866 
L 119.298236 81.173253 
L 120.009841 70.776741 
L 121.077249 53.532067 
L 121.433051 49.650719 
L 121.788854 47.252158 
L 122.144656 46.343549 
L 122.500459 46.716518 
L 122.856261 47.992281 
L 123.923669 52.643953 
L 124.279471 53.344622 
L 124.635274 53.514287 
L 125.346879 53.360372 
L 125.702681 53.805518 
L 126.058484 55.042928 
L 126.414286 57.214874 
L 127.125891 63.917007 
L 128.193299 74.763078 
L 128.549101 77.196597 
L 128.904904 78.742545 
L 129.260706 79.416787 
L 129.616509 79.335572 
L 129.972311 78.680233 
L 131.751324 73.87782 
L 132.818731 72.745117 
L 133.174534 71.824186 
L 133.530337 70.157739 
L 133.886139 67.572958 
L 134.597744 59.8361 
L 135.665152 46.747668 
L 136.020954 43.710039 
L 136.376757 41.866513 
L 136.732559 41.338968 
L 137.088362 42.126991 
L 137.444164 44.139443 
L 138.155769 51.17664 
L 140.290584 77.449671 
L 140.646387 79.833913 
L 141.002189 81.40172 
L 141.357992 82.252599 
L 141.713794 82.490583 
L 142.069597 82.171832 
L 142.425399 81.281247 
L 142.781202 79.747489 
L 143.137004 77.490043 
L 143.848609 70.791159 
L 145.271819 54.902727 
L 145.627622 52.659879 
L 145.983425 51.861057 
L 146.339227 52.715297 
L 146.69503 55.27959 
L 147.050832 59.442643 
L 147.762437 71.294138 
L 148.829845 90.226165 
L 149.185647 94.733186 
L 149.54145 97.753142 
L 149.897252 99.191147 
L 150.253055 99.116626 
L 150.608857 97.720111 
L 150.96466 95.260859 
L 151.676265 88.299337 
L 152.743672 77.209923 
L 153.099475 74.59722 
L 153.455277 73.002281 
L 153.81108 72.577722 
L 154.166882 73.318755 
L 154.522685 75.05184 
L 156.6575 88.868169 
L 157.369105 90.96738 
L 157.724907 91.609407 
L 158.08071 91.968866 
L 158.436513 91.96297 
L 158.792315 91.474362 
L 159.148118 90.3904 
L 159.50392 88.6464 
L 160.215525 83.367269 
L 161.282933 74.360732 
L 161.638735 72.407613 
L 161.994538 71.487647 
L 162.35034 71.756412 
L 162.706143 73.229043 
L 163.061945 75.781767 
L 163.77355 83.057292 
L 164.485155 90.670115 
L 164.840958 93.514147 
L 165.19676 95.180663 
L 165.552563 95.394104 
L 165.908365 94.051269 
L 166.264168 91.256367 
L 166.975773 82.67223 
L 168.04318 69.231854 
L 168.754785 63.3174 
L 169.46639 59.663983 
L 170.177995 57.54822 
L 170.533798 57.282278 
L 170.889601 57.896224 
L 171.245403 59.700055 
L 171.601206 62.922577 
L 172.312811 73.604722 
L 173.736021 99.93457 
L 174.091823 103.941782 
L 174.447626 106.039685 
L 174.803428 106.209999 
L 175.159231 104.702412 
L 175.870836 98.574993 
L 176.938243 89.047237 
L 177.649848 85.061291 
L 178.361453 82.31071 
L 179.073058 80.312628 
L 179.428861 79.741365 
L 179.784663 79.56914 
L 180.140466 79.823158 
L 180.496268 80.460119 
L 181.207873 82.45639 
L 182.275281 85.632281 
L 182.986886 87.268616 
L 183.342689 87.86973 
L 183.698491 88.227459 
L 184.054294 88.192843 
L 184.410096 87.561803 
L 184.765899 86.109748 
L 185.121701 83.652684 
L 185.833306 75.649134 
L 186.900714 61.132792 
L 187.256516 58.196159 
L 187.612319 57.272935 
L 187.968121 58.646001 
L 188.323924 62.217732 
L 189.035529 73.746193 
L 189.747134 85.37432 
L 190.102936 89.113634 
L 190.458739 90.737826 
L 190.814541 90.064201 
L 191.170344 87.202959 
L 191.881949 76.563803 
L 192.949356 58.202689 
L 193.305159 54.278056 
L 193.660961 52.377812 
L 194.016764 52.780684 
L 194.372566 55.536715 
L 194.728369 60.471159 
L 195.439974 75.237503 
L 196.863184 107.872564 
L 197.574789 117.652511 
L 197.930592 120.214392 
L 198.286394 121.377728 
L 198.642197 121.363832 
L 198.997999 120.404533 
L 199.353802 118.695492 
L 200.065407 113.547728 
L 201.132814 102.978185 
L 202.200222 92.825323 
L 202.911827 88.620148 
L 203.267629 87.435027 
L 203.623432 86.762887 
L 203.979234 86.493028 
L 204.335037 86.523452 
L 204.690839 86.7777 
L 205.402444 87.766934 
L 206.825654 90.308506 
L 207.181457 90.589299 
L 207.537259 90.497789 
L 207.893062 89.908419 
L 208.248864 88.714 
L 208.604667 86.852129 
L 209.316272 81.281693 
L 210.38368 71.667121 
L 210.739482 69.540538 
L 211.095285 68.476466 
L 211.451087 68.564705 
L 211.80689 69.673161 
L 212.874297 75.17504 
L 213.2301 76.208413 
L 213.585902 76.355054 
L 213.941705 75.632235 
L 214.65331 72.555237 
L 215.364915 69.537008 
L 215.364915 69.537008 
" clip-path="url(#pfb20c30b2e)" style="fill: none; stroke: #000000; stroke-opacity: 0.5; stroke-width: 2; stroke-linecap: square"/>
   </g>
   <g id="line2d_12">
    <path d="M 37.81946 88.381019 
L 38.886868 73.429071 
L 39.954275 58.664182 
L 40.310078 55.376573 
L 40.66588 53.570557 
L 41.021683 53.507557 
L 41.377485 55.239356 
L 41.733288 58.56367 
L 43.5123 80.684708 
L 43.868103 83.056743 
L 44.579708 85.702319 
L 45.291313 87.929312 
L 46.002918 91.611407 
L 47.426128 100.502268 
L 47.781931 101.775461 
L 48.137733 102.319461 
L 48.493536 102.041423 
L 48.849338 100.889703 
L 49.205141 98.853371 
L 49.916746 92.358659 
L 51.695758 72.00139 
L 52.407363 66.807088 
L 53.830573 57.842931 
L 54.542178 53.237261 
L 54.897981 51.794681 
L 55.253783 51.379868 
L 55.609586 52.179569 
L 55.965388 54.18529 
L 56.676993 60.816926 
L 57.388599 68.10037 
L 57.744401 70.882457 
L 58.100204 72.678837 
L 58.456006 73.364487 
L 58.811809 72.969986 
L 59.167611 71.659908 
L 59.879216 67.37708 
L 60.590821 62.862809 
L 61.302426 59.931442 
L 61.658229 59.367005 
L 62.014031 59.479126 
L 62.369834 60.284683 
L 62.725636 61.753463 
L 63.437241 66.140327 
L 64.148846 70.49073 
L 64.504649 71.654906 
L 64.860451 71.680913 
L 65.216254 70.421382 
L 65.572056 67.961921 
L 66.995266 54.666979 
L 67.351069 53.173222 
L 67.706871 53.185084 
L 68.062674 54.762331 
L 68.418476 57.760948 
L 69.130081 66.64502 
L 69.841686 76.178315 
L 70.197489 79.922627 
L 70.553292 82.421813 
L 70.909094 83.417144 
L 71.264897 82.841393 
L 71.620699 80.851541 
L 73.043909 68.614174 
L 73.399712 67.498183 
L 73.755514 67.934231 
L 74.111317 69.826329 
L 75.534527 81.507821 
L 75.890329 82.392146 
L 76.246132 81.747971 
L 76.601934 79.648074 
L 77.313539 72.340522 
L 78.380947 60.296458 
L 78.736749 57.704315 
L 79.092552 56.37333 
L 79.448354 56.492025 
L 79.804157 58.110339 
L 80.159959 61.114746 
L 80.871564 70.046222 
L 81.938972 84.288846 
L 82.650577 90.914674 
L 84.785392 106.677639 
L 85.496997 111.179724 
L 85.8528 111.82751 
L 86.208602 110.955357 
L 86.564405 108.473111 
L 87.27601 99.550621 
L 88.343417 84.148469 
L 88.69922 80.865129 
L 89.055022 79.21668 
L 89.410825 79.326102 
L 89.766627 81.073509 
L 90.478232 87.881637 
L 91.189837 95.010676 
L 91.54564 97.099099 
L 91.901442 97.601851 
L 92.257245 96.36659 
L 92.613047 93.523481 
L 94.39206 73.908114 
L 94.747862 73.026956 
L 95.103665 73.782309 
L 95.459468 75.916315 
L 96.882678 88.187319 
L 97.23848 90.032933 
L 97.594283 91.126935 
L 97.950085 91.665513 
L 99.017493 92.563903 
L 99.729098 93.608367 
L 100.0849 93.892357 
L 100.440703 93.723237 
L 100.796505 92.984809 
L 101.50811 90.132805 
L 102.219715 87.247803 
L 102.575518 86.533352 
L 102.93132 86.517999 
L 103.287123 87.197957 
L 103.642925 88.479501 
L 104.35453 92.410924 
L 105.066135 97.880163 
L 106.845148 114.90694 
L 107.20095 116.708102 
L 107.556753 117.081319 
L 107.912556 115.798629 
L 108.268358 112.802682 
L 108.979963 102.257333 
L 111.470581 55.295581 
L 111.826383 52.208062 
L 112.182186 50.539745 
L 112.537988 50.100447 
L 112.893791 50.570705 
L 113.605396 52.781047 
L 115.028606 57.915172 
L 115.384408 60.170897 
L 115.740211 63.360366 
L 116.451816 72.794809 
L 117.875026 95.250561 
L 118.230828 98.755398 
L 118.586631 100.687807 
L 118.942433 101.003977 
L 119.298236 99.862364 
L 119.654038 97.57966 
L 121.788854 80.103756 
L 124.635274 64.345391 
L 125.346879 60.154739 
L 126.058484 57.328118 
L 126.414286 56.841398 
L 126.770089 57.187946 
L 127.125891 58.504272 
L 127.481694 60.891836 
L 128.193299 68.987508 
L 129.260706 87.071413 
L 129.972311 98.53071 
L 130.328114 102.707638 
L 130.683916 105.529183 
L 131.039719 107.048153 
L 131.395521 107.538756 
L 131.751324 107.414679 
L 132.107126 107.113431 
L 132.462929 106.984492 
L 132.818731 107.215361 
L 133.174534 107.81405 
L 134.241942 110.204032 
L 134.597744 110.619273 
L 134.953547 110.74281 
L 136.020954 110.566336 
L 136.376757 110.841321 
L 136.732559 111.413579 
L 137.799967 113.59702 
L 138.155769 113.604712 
L 138.511572 112.75888 
L 138.867374 110.854885 
L 139.223177 107.823343 
L 139.934782 98.92146 
L 141.002189 84.03676 
L 141.357992 80.432827 
L 141.713794 77.988903 
L 142.069597 76.703805 
L 142.425399 76.363274 
L 143.492807 76.964742 
L 143.848609 76.378302 
L 144.204412 75.033361 
L 144.916017 70.381013 
L 145.983425 62.589779 
L 146.339227 61.079551 
L 146.69503 60.552405 
L 147.050832 61.149486 
L 147.406635 62.900696 
L 148.11824 69.377467 
L 149.897252 89.347477 
L 150.608857 93.867834 
L 150.96466 95.236422 
L 151.320462 96.081664 
L 151.676265 96.378484 
L 152.032067 95.996586 
L 152.38787 94.707797 
L 152.743672 92.236836 
L 153.099475 88.346675 
L 153.81108 76.127197 
L 155.23429 45.540653 
L 155.590092 40.778326 
L 155.945895 38.392701 
L 156.301697 38.533936 
L 156.6575 40.999119 
L 157.369105 50.626105 
L 158.436513 65.848927 
L 159.148118 71.425263 
L 160.92713 80.205628 
L 161.994538 87.234881 
L 162.35034 88.58227 
L 162.706143 89.02901 
L 163.061945 88.532542 
L 163.417748 87.203855 
L 164.129353 83.039471 
L 165.19676 76.945828 
L 166.61997 70.35852 
L 167.331575 64.822772 
L 168.398983 55.52095 
L 168.754785 53.857899 
L 169.110588 53.594312 
L 169.46639 54.855102 
L 169.822193 57.486449 
L 171.601206 74.346509 
L 171.957008 75.708789 
L 172.312811 76.374917 
L 173.024416 77.021042 
L 173.380218 77.648668 
L 174.091823 80.072653 
L 174.803428 82.789504 
L 175.159231 83.449678 
L 175.515033 83.306376 
L 175.870836 82.322897 
L 177.294046 75.825651 
L 177.649848 75.529786 
L 178.005651 76.148603 
L 178.717256 79.23797 
L 179.428861 82.408713 
L 179.784663 83.380645 
L 180.140466 83.93125 
L 180.852071 84.564898 
L 181.207873 85.103715 
L 181.919478 87.085418 
L 182.631083 89.362283 
L 182.986886 89.992983 
L 183.342689 89.98385 
L 183.698491 89.210532 
L 184.054294 87.643421 
L 184.765899 82.356571 
L 185.477504 74.891617 
L 186.900714 58.239939 
L 187.256516 55.159677 
L 187.612319 53.169311 
L 187.968121 52.566311 
L 188.323924 53.547068 
L 188.679726 56.158719 
L 189.391331 65.542035 
L 190.458739 82.797116 
L 190.814541 86.875926 
L 191.170344 89.232887 
L 191.526146 89.64258 
L 191.881949 88.155753 
L 192.237751 85.08698 
L 193.660961 68.518282 
L 194.016764 66.189383 
L 194.372566 65.29239 
L 194.728369 65.825809 
L 195.084171 67.581927 
L 196.863184 80.797906 
L 197.218987 82.180297 
L 197.574789 83.034817 
L 198.286394 83.877038 
L 198.997999 84.654921 
L 199.353802 85.274036 
L 199.709604 86.134007 
L 200.065407 87.316329 
L 200.421209 88.92984 
L 201.132814 93.904663 
L 201.844419 101.41875 
L 202.911827 114.02814 
L 203.267629 116.991105 
L 203.623432 118.629308 
L 203.979234 118.6652 
L 204.335037 116.996883 
L 204.690839 113.723757 
L 205.402444 103.720285 
L 206.469852 88.217126 
L 206.825654 85.071955 
L 207.181457 83.455076 
L 207.537259 83.338849 
L 207.893062 84.451198 
L 208.96047 89.762035 
L 209.316272 90.07819 
L 209.672075 88.797141 
L 210.027877 85.697647 
L 210.739482 74.595613 
L 211.80689 54.383231 
L 212.162692 49.764184 
L 212.518495 47.172418 
L 212.874297 46.745162 
L 213.2301 48.271625 
L 213.941705 55.069896 
L 214.65331 62.723639 
L 215.364915 68.001923 
L 215.364915 68.001923 
" clip-path="url(#pfb20c30b2e)" style="fill: none; stroke: #000000; stroke-opacity: 0.5; stroke-width: 2; stroke-linecap: square"/>
   </g>
   <g id="line2d_13">
    <path d="M 37.81946 108.17686 
L 38.531065 98.428276 
L 39.598473 82.710424 
L 40.310078 75.869482 
L 40.66588 73.96359 
L 41.021683 73.015851 
L 41.377485 72.895157 
L 41.733288 73.410599 
L 43.156498 76.923613 
L 43.5123 77.122066 
L 43.868103 76.906424 
L 44.579708 75.714907 
L 45.291313 74.578106 
L 46.002918 74.079206 
L 46.358721 73.90684 
L 46.714523 73.599392 
L 47.070326 73.017017 
L 47.426128 72.057455 
L 48.137733 68.910662 
L 49.205141 62.920931 
L 49.560943 61.606283 
L 49.916746 61.129206 
L 50.272548 61.668544 
L 50.628351 63.224498 
L 52.051561 72.945657 
L 52.407363 73.840746 
L 52.763166 73.471725 
L 53.118968 71.933331 
L 54.186376 64.939399 
L 54.542178 63.901061 
L 54.897981 64.371091 
L 55.253783 66.533227 
L 55.609586 70.287814 
L 56.321191 81.003813 
L 57.032796 92.237504 
L 57.744401 99.82522 
L 58.100204 101.426037 
L 58.456006 101.37972 
L 58.811809 99.6882 
L 59.167611 96.455339 
L 59.879216 86.302753 
L 61.302426 63.344849 
L 61.658229 60.086643 
L 62.014031 58.613455 
L 62.369834 59.02309 
L 62.725636 61.202994 
L 63.437241 69.529067 
L 64.504649 84.274092 
L 64.860451 87.639005 
L 65.216254 89.515011 
L 65.572056 89.676411 
L 65.927859 88.082383 
L 66.283661 84.889303 
L 66.995266 75.200062 
L 68.062674 60.282163 
L 68.418476 57.156795 
L 68.774279 55.442105 
L 69.130081 55.18696 
L 69.485884 56.268291 
L 70.197489 61.163575 
L 70.909094 66.459379 
L 71.264897 67.928119 
L 71.620699 68.067293 
L 71.976502 66.717616 
L 72.332304 63.977864 
L 74.111317 45.672911 
L 74.467119 44.457373 
L 74.822922 44.518495 
L 75.178724 45.71899 
L 75.534527 47.852487 
L 76.246132 54.129639 
L 78.736749 79.994621 
L 79.092552 81.516261 
L 79.448354 82.28087 
L 80.159959 82.791589 
L 80.515762 83.348994 
L 80.871564 84.575503 
L 81.227367 86.634341 
L 81.938972 92.918566 
L 83.00638 103.375668 
L 83.717985 108.000607 
L 84.073787 109.352492 
L 84.42959 110.066344 
L 84.785392 110.110953 
L 85.141195 109.410616 
L 85.496997 107.878774 
L 85.8528 105.481221 
L 86.564405 98.564177 
L 87.631812 87.712463 
L 88.343417 83.534903 
L 90.12243 77.118464 
L 90.834035 74.363399 
L 91.189837 74.123697 
L 91.54564 75.18668 
L 91.901442 77.758461 
L 92.613047 87.023328 
L 93.680455 104.328265 
L 94.036257 108.61919 
L 94.39206 111.385901 
L 94.747862 112.435748 
L 95.103665 111.795219 
L 95.459468 109.683098 
L 96.171073 102.515331 
L 97.594283 86.63667 
L 98.305888 81.481254 
L 98.66169 79.986433 
L 99.017493 79.296734 
L 99.373295 79.417958 
L 99.729098 80.276121 
L 100.440703 83.435144 
L 101.152308 86.62248 
L 101.50811 87.575569 
L 101.863913 87.96061 
L 102.219715 87.859764 
L 103.287123 86.792647 
L 103.998728 86.674959 
L 104.35453 86.325116 
L 104.710333 85.244397 
L 105.066135 83.055826 
L 105.421938 79.567984 
L 106.133543 69.367387 
L 106.845148 58.665226 
L 107.20095 55.018124 
L 107.556753 53.378452 
L 107.912556 54.118041 
L 108.268358 57.331374 
L 108.624161 62.856031 
L 109.335766 79.244466 
L 110.758976 117.125755 
L 111.114778 123.922267 
L 111.470581 128.453182 
L 111.826383 130.300266 
L 112.182186 129.24631 
L 112.537988 125.325265 
L 113.249593 110.365379 
L 114.672803 72.880602 
L 115.028606 66.60192 
L 115.384408 62.560793 
L 115.740211 60.78663 
L 116.096013 61.035518 
L 116.451816 62.851122 
L 118.230828 76.126247 
L 118.586631 77.04689 
L 118.942433 77.25202 
L 119.298236 76.952123 
L 120.009841 75.957512 
L 120.365644 75.840952 
L 120.721446 76.316032 
L 121.077249 77.571726 
L 121.433051 79.730703 
L 122.144656 86.854063 
L 123.212064 102.455856 
L 123.923669 112.490072 
L 124.279471 116.243603 
L 124.635274 118.759357 
L 124.991076 119.894426 
L 125.346879 119.650331 
L 125.702681 118.162357 
L 126.414286 112.481962 
L 127.837496 99.244035 
L 128.549101 95.553179 
L 128.904904 94.590597 
L 129.972311 92.856638 
L 130.328114 91.891071 
L 131.039719 88.742168 
L 132.107126 83.139821 
L 132.462929 82.134184 
L 132.818731 82.011159 
L 133.174534 82.904584 
L 133.530337 84.79361 
L 134.241942 90.655102 
L 134.953547 96.666973 
L 135.309349 98.690188 
L 135.665152 99.688059 
L 136.020954 99.590262 
L 136.376757 98.505448 
L 137.088362 94.516971 
L 137.799967 90.619118 
L 138.155769 89.535029 
L 138.511572 89.252358 
L 138.867374 89.742108 
L 140.290584 93.861915 
L 140.646387 93.486214 
L 141.002189 91.951883 
L 141.357992 89.244118 
L 142.069597 81.283313 
L 142.781202 72.897017 
L 143.137004 69.680723 
L 143.492807 67.482914 
L 143.848609 66.35347 
L 144.204412 66.192251 
L 144.560214 66.822096 
L 144.916017 68.072042 
L 145.627622 72.117281 
L 146.339227 78.450141 
L 147.050832 87.368436 
L 148.829845 111.950743 
L 149.54145 118.073246 
L 150.253055 121.74929 
L 150.608857 122.884715 
L 150.96466 123.583448 
L 151.320462 123.782308 
L 151.676265 123.356558 
L 152.032067 122.143469 
L 152.38787 119.974708 
L 152.743672 116.715688 
L 153.455277 106.82978 
L 155.23429 76.555874 
L 155.590092 73.681938 
L 155.945895 72.722722 
L 156.301697 73.567838 
L 156.6575 75.842486 
L 158.08071 87.641867 
L 158.436513 88.782301 
L 158.792315 88.724857 
L 159.148118 87.508539 
L 159.50392 85.272791 
L 160.215525 78.542716 
L 161.994538 58.583116 
L 162.706143 53.771895 
L 163.061945 52.824137 
L 163.417748 53.016653 
L 163.77355 54.385854 
L 164.129353 56.873985 
L 164.840958 64.498336 
L 166.264168 82.306216 
L 166.975773 88.004929 
L 167.331575 89.402494 
L 167.687378 89.769007 
L 168.04318 89.181626 
L 168.398983 87.831833 
L 169.46639 82.574435 
L 169.822193 81.755025 
L 170.177995 81.975453 
L 170.533798 83.388868 
L 170.889601 85.946648 
L 172.312811 99.744155 
L 172.668613 101.356593 
L 173.024416 101.465691 
L 173.380218 100.114818 
L 174.091823 94.474687 
L 174.803428 88.437181 
L 175.159231 86.372581 
L 175.515033 85.176075 
L 175.870836 84.76692 
L 176.226638 84.9206 
L 178.005651 86.956453 
L 178.361453 87.770106 
L 178.717256 89.264184 
L 179.073058 91.65323 
L 179.784663 99.122708 
L 180.852071 112.121812 
L 181.207873 114.934179 
L 181.563676 116.309837 
L 181.919478 116.123843 
L 182.275281 114.480327 
L 182.986886 108.14128 
L 184.054294 97.136934 
L 185.833306 81.261089 
L 186.900714 67.289896 
L 187.612319 58.139988 
L 188.323924 51.4865 
L 189.035529 47.622923 
L 189.747134 45.603074 
L 190.102936 44.998536 
L 190.458739 44.629381 
L 190.814541 44.568402 
L 191.170344 44.964846 
L 191.526146 46.028023 
L 191.881949 47.996157 
L 192.237751 51.08897 
L 192.949356 61.070568 
L 194.728369 94.659603 
L 195.084171 97.978852 
L 195.439974 98.886496 
L 195.795776 97.355678 
L 196.151579 93.752548 
L 197.218987 78.796828 
L 197.574789 75.697617 
L 197.930592 74.784517 
L 198.286394 76.25461 
L 198.642197 79.860778 
L 200.065407 100.108014 
L 200.421209 102.142415 
L 200.777012 101.715321 
L 201.132814 98.735989 
L 201.488617 93.480448 
L 202.911827 65.690065 
L 203.267629 62.112483 
L 203.623432 61.437856 
L 203.979234 63.7893 
L 204.335037 68.813815 
L 206.114049 102.29283 
L 206.469852 104.634124 
L 206.825654 104.696488 
L 207.181457 102.751453 
L 207.893062 94.847714 
L 208.96047 81.00105 
L 209.672075 74.237258 
L 210.38368 69.811417 
L 211.095285 67.07336 
L 211.451087 66.193981 
L 211.80689 65.612343 
L 212.162692 65.319124 
L 212.518495 65.301443 
L 212.874297 65.536613 
L 213.585902 66.610334 
L 215.009112 69.413379 
L 215.364915 69.847686 
L 215.364915 69.847686 
" clip-path="url(#pfb20c30b2e)" style="fill: none; stroke: #000000; stroke-opacity: 0.5; stroke-width: 2; stroke-linecap: square"/>
   </g>
   <g id="line2d_14">
    <path d="M 37.81946 76.644736 
L 38.175263 77.866684 
L 38.531065 78.307288 
L 39.24267 78.223356 
L 39.598473 78.41616 
L 39.954275 79.11651 
L 40.310078 80.419241 
L 41.021683 84.456491 
L 41.733288 88.65605 
L 42.08909 90.016139 
L 42.444893 90.552571 
L 42.800695 90.170045 
L 43.156498 88.923328 
L 43.868103 84.692583 
L 44.935511 78.250633 
L 45.647116 75.704728 
L 46.714523 72.635914 
L 47.426128 69.410019 
L 48.493536 63.744781 
L 48.849338 62.437444 
L 49.205141 61.791341 
L 49.560943 62.007999 
L 49.916746 63.273084 
L 50.272548 65.749847 
L 50.628351 69.554978 
L 51.339956 81.134238 
L 53.474771 123.425166 
L 53.830573 126.781093 
L 54.186376 128.448117 
L 54.542178 128.518086 
L 54.897981 127.17252 
L 55.253783 124.64226 
L 55.965388 117.095962 
L 57.032796 104.370838 
L 57.744401 98.782687 
L 58.100204 97.425506 
L 58.456006 96.965542 
L 58.811809 97.207105 
L 59.523414 98.773444 
L 60.235019 100.236206 
L 60.590821 100.493949 
L 60.946624 100.271394 
L 61.302426 99.484028 
L 61.658229 98.09567 
L 62.369834 93.737002 
L 63.793044 83.93966 
L 64.148846 82.46229 
L 64.504649 81.573752 
L 64.860451 81.253986 
L 65.216254 81.44583 
L 65.572056 82.080284 
L 66.283661 84.4206 
L 67.351069 89.666298 
L 68.418476 94.850316 
L 68.774279 96.018508 
L 69.130081 96.727706 
L 69.485884 96.919014 
L 69.841686 96.58379 
L 70.197489 95.762886 
L 70.909094 92.974188 
L 71.620699 89.121811 
L 72.688107 81.823659 
L 74.111317 71.912084 
L 74.822922 68.551053 
L 75.890329 64.84519 
L 76.246132 64.010586 
L 76.601934 63.717315 
L 76.957737 64.271289 
L 77.313539 65.909317 
L 77.669342 68.693086 
L 78.380947 76.785963 
L 79.092552 85.052095 
L 79.448354 88.001215 
L 79.804157 89.775928 
L 80.159959 90.353038 
L 80.515762 89.887397 
L 80.871564 88.634262 
L 81.583169 84.801738 
L 83.362182 74.14507 
L 83.717985 72.728439 
L 84.073787 71.934054 
L 84.42959 71.89547 
L 84.785392 72.645299 
L 85.141195 74.089434 
L 86.920207 83.537187 
L 88.69922 89.518246 
L 90.478232 98.359023 
L 90.834035 99.258064 
L 91.189837 99.479191 
L 91.54564 98.936874 
L 91.901442 97.622533 
L 92.613047 93.061515 
L 94.39206 77.682334 
L 95.459468 66.84979 
L 96.171073 59.67057 
L 96.526875 57.162687 
L 96.882678 55.974982 
L 97.23848 56.41325 
L 97.594283 58.567148 
L 97.950085 62.289637 
L 98.66169 72.938919 
L 99.729098 89.821526 
L 100.440703 97.167903 
L 100.796505 98.914847 
L 101.152308 99.193998 
L 101.50811 97.982261 
L 101.863913 95.391562 
L 102.575518 87.328482 
L 103.287123 78.810086 
L 103.642925 75.75917 
L 103.998728 74.036321 
L 104.35453 73.758586 
L 104.710333 74.789977 
L 105.421938 79.210947 
L 106.133543 83.294969 
L 106.489345 84.06314 
L 106.845148 83.638934 
L 107.20095 81.974406 
L 107.556753 79.17125 
L 108.268358 71.099407 
L 109.335766 57.868101 
L 109.691568 54.629633 
L 110.047371 52.553069 
L 110.403173 51.904688 
L 110.758976 52.846965 
L 111.114778 55.398447 
L 111.826383 64.523418 
L 112.893791 81.133183 
L 113.249593 85.08785 
L 113.605396 87.481365 
L 113.961198 88.163881 
L 114.317001 87.253404 
L 114.672803 85.113453 
L 115.740211 76.815275 
L 116.096013 75.048773 
L 116.451816 74.140089 
L 116.807618 73.95253 
L 117.519223 74.41941 
L 117.875026 74.330728 
L 118.230828 73.658018 
L 118.586631 72.286396 
L 119.298236 67.523794 
L 120.009841 60.603809 
L 122.144656 36.769558 
L 122.500459 35.16599 
L 122.856261 35.074485 
L 123.212064 36.574166 
L 123.567866 39.562378 
L 124.279471 48.869501 
L 126.058484 75.027938 
L 126.770089 81.745827 
L 127.481694 86.211712 
L 128.193299 90.567871 
L 128.549101 93.617812 
L 129.260706 102.794467 
L 129.972311 116.047396 
L 131.039719 137.714884 
L 131.751324 147.414036 
L 132.107126 149.67177 
L 132.462929 150.067084 
L 132.818731 148.725825 
L 133.174534 145.901165 
L 133.886139 137.046982 
L 136.376757 98.627264 
L 137.088362 92.856795 
L 137.444164 91.478407 
L 137.799967 90.857514 
L 138.511572 90.413425 
L 138.867374 89.781604 
L 139.223177 88.46196 
L 139.578979 86.343069 
L 140.290584 80.231327 
L 141.002189 73.906346 
L 141.357992 71.641761 
L 141.713794 70.309911 
L 142.069597 69.925036 
L 142.425399 70.293837 
L 143.137004 71.798541 
L 143.492807 72.12451 
L 143.848609 71.809331 
L 144.204412 70.849127 
L 144.916017 68.106741 
L 145.271819 67.228605 
L 145.627622 67.276412 
L 145.983425 68.511849 
L 146.339227 70.950659 
L 148.11824 87.27914 
L 148.474042 87.827985 
L 148.829845 86.799298 
L 149.185647 84.301708 
L 149.897252 76.166562 
L 150.96466 62.595524 
L 151.676265 56.96949 
L 152.032067 55.820247 
L 152.38787 55.851149 
L 152.743672 57.002888 
L 153.099475 59.12944 
L 153.81108 65.361371 
L 154.878487 75.286522 
L 155.590092 79.350715 
L 155.945895 80.14989 
L 156.301697 80.024725 
L 156.6575 78.937621 
L 157.013302 76.88295 
L 157.724907 70.104552 
L 159.148118 52.640703 
L 159.50392 49.982573 
L 159.859723 48.951631 
L 160.215525 49.794265 
L 160.571328 52.496901 
L 161.282933 62.042817 
L 161.994538 72.82978 
L 162.35034 76.990157 
L 162.706143 79.713886 
L 163.061945 80.858337 
L 163.417748 80.539279 
L 163.77355 79.068074 
L 164.485155 74.288486 
L 165.908365 64.574951 
L 166.975773 58.784037 
L 167.331575 57.738568 
L 167.687378 57.57716 
L 168.04318 58.474707 
L 168.398983 60.399006 
L 169.46639 68.277254 
L 169.822193 69.532685 
L 170.177995 69.241255 
L 170.533798 67.318036 
L 171.245403 60.115175 
L 171.957008 53.292673 
L 172.312811 51.775043 
L 172.668613 51.971918 
L 173.024416 53.80534 
L 173.736021 60.817406 
L 174.803428 72.419263 
L 175.515033 77.662469 
L 176.226638 80.958219 
L 176.938243 83.036651 
L 177.649848 84.185083 
L 178.005651 84.366231 
L 178.361453 84.251228 
L 178.717256 83.857414 
L 179.428861 82.69475 
L 179.784663 82.392627 
L 180.140466 82.701748 
L 180.496268 83.935097 
L 180.852071 86.301171 
L 181.563676 94.35967 
L 182.986886 114.494687 
L 183.698491 120.764914 
L 184.054294 122.423499 
L 184.410096 123.0984 
L 184.765899 122.777308 
L 185.121701 121.409149 
L 185.477504 118.917713 
L 185.833306 115.238745 
L 186.544911 104.384495 
L 188.679726 63.059487 
L 189.035529 59.010046 
L 189.391331 56.437862 
L 189.747134 55.266962 
L 190.102936 55.292781 
L 190.458739 56.238877 
L 191.170344 59.755565 
L 192.237751 65.608576 
L 192.593554 66.92793 
L 192.949356 67.639017 
L 193.305159 67.625931 
L 193.660961 66.858291 
L 194.016764 65.409962 
L 195.084171 58.948216 
L 195.795776 55.120678 
L 196.151579 53.793327 
L 196.507382 52.907679 
L 196.863184 52.45628 
L 197.218987 52.430528 
L 197.574789 52.844098 
L 197.930592 53.742197 
L 198.286394 55.19235 
L 198.997999 59.95531 
L 200.065407 70.67116 
L 200.777012 77.248672 
L 201.132814 79.44909 
L 201.488617 80.735971 
L 201.844419 81.193325 
L 202.200222 81.082792 
L 202.556024 80.79098 
L 202.911827 80.74826 
L 203.267629 81.340239 
L 203.623432 82.832022 
L 203.979234 85.318879 
L 204.690839 92.737058 
L 205.758247 104.400559 
L 206.114049 106.67526 
L 206.469852 107.627778 
L 206.825654 107.194565 
L 207.181457 105.503977 
L 207.893062 99.674558 
L 208.604667 93.652832 
L 208.96047 91.696607 
L 209.316272 90.85426 
L 209.672075 91.235217 
L 210.027877 92.770216 
L 210.739482 98.253284 
L 211.451087 104.374554 
L 211.80689 106.723532 
L 212.162692 108.238135 
L 212.518495 108.77545 
L 212.874297 108.284149 
L 213.2301 106.786556 
L 213.585902 104.36644 
L 214.297507 97.404775 
L 215.364915 85.867697 
L 215.364915 85.867697 
" clip-path="url(#pfb20c30b2e)" style="fill: none; stroke: #000000; stroke-opacity: 0.5; stroke-width: 2; stroke-linecap: square"/>
   </g>
   <g id="patch_3">
    <path d="M 28.942188 160.92 
L 28.942188 22.32 
" style="fill: none; stroke: #000000; stroke-width: 0.8; stroke-linejoin: miter; stroke-linecap: square"/>
   </g>
   <g id="patch_4">
    <path d="M 224.242188 160.92 
L 224.242188 22.32 
" style="fill: none; stroke: #000000; stroke-width: 0.8; stroke-linejoin: miter; stroke-linecap: square"/>
   </g>
   <g id="patch_5">
    <path d="M 28.942188 160.92 
L 224.242188 160.92 
" style="fill: none; stroke: #000000; stroke-width: 0.8; stroke-linejoin: miter; stroke-linecap: square"/>
   </g>
   <g id="patch_6">
    <path d="M 28.942188 22.32 
L 224.242188 22.32 
" style="fill: none; stroke: #000000; stroke-width: 0.8; stroke-linejoin: miter; stroke-linecap: square"/>
   </g>
   <g id="text_10">
    <!-- Lengthscale $\ell$=0.100, Amplitude $a$=1 -->
    <g transform="translate(14.692188 16.32)scale(0.12 -0.12)">
     <defs>
      <path id="DejaVuSans-4c" d="M 628 4666 
L 1259 4666 
L 1259 531 
L 3531 531 
L 3531 0 
L 628 0 
L 628 4666 
z
" transform="scale(0.015625)"/>
      <path id="DejaVuSans-65" d="M 3597 1894 
L 3597 1613 
L 953 1613 
Q 991 1019 1311 708 
Q 1631 397 2203 397 
Q 2534 397 2845 478 
Q 3156 559 3463 722 
L 3463 178 
Q 3153 47 2828 -22 
Q 2503 -91 2169 -91 
Q 1331 -91 842 396 
Q 353 884 353 1716 
Q 353 2575 817 3079 
Q 1281 3584 2069 3584 
Q 2775 3584 3186 3129 
Q 3597 2675 3597 1894 
z
M 3022 2063 
Q 3016 2534 2758 2815 
Q 2500 3097 2075 3097 
Q 1594 3097 1305 2825 
Q 1016 2553 972 2059 
L 3022 2063 
z
" transform="scale(0.015625)"/>
      <path id="DejaVuSans-6e" d="M 3513 2113 
L 3513 0 
L 2938 0 
L 2938 2094 
Q 2938 2591 2744 2837 
Q 2550 3084 2163 3084 
Q 1697 3084 1428 2787 
Q 1159 2491 1159 1978 
L 1159 0 
L 581 0 
L 581 3500 
L 1159 3500 
L 1159 2956 
Q 1366 3272 1645 3428 
Q 1925 3584 2291 3584 
Q 2894 3584 3203 3211 
Q 3513 2838 3513 2113 
z
" transform="scale(0.015625)"/>
      <path id="DejaVuSans-67" d="M 2906 1791 
Q 2906 2416 2648 2759 
Q 2391 3103 1925 3103 
Q 1463 3103 1205 2759 
Q 947 2416 947 1791 
Q 947 1169 1205 825 
Q 1463 481 1925 481 
Q 2391 481 2648 825 
Q 2906 1169 2906 1791 
z
M 3481 434 
Q 3481 -459 3084 -895 
Q 2688 -1331 1869 -1331 
Q 1566 -1331 1297 -1286 
Q 1028 -1241 775 -1147 
L 775 -588 
Q 1028 -725 1275 -790 
Q 1522 -856 1778 -856 
Q 2344 -856 2625 -561 
Q 2906 -266 2906 331 
L 2906 616 
Q 2728 306 2450 153 
Q 2172 0 1784 0 
Q 1141 0 747 490 
Q 353 981 353 1791 
Q 353 2603 747 3093 
Q 1141 3584 1784 3584 
Q 2172 3584 2450 3431 
Q 2728 3278 2906 2969 
L 2906 3500 
L 3481 3500 
L 3481 434 
z
" transform="scale(0.015625)"/>
      <path id="DejaVuSans-74" d="M 1172 4494 
L 1172 3500 
L 2356 3500 
L 2356 3053 
L 1172 3053 
L 1172 1153 
Q 1172 725 1289 603 
Q 1406 481 1766 481 
L 2356 481 
L 2356 0 
L 1766 0 
Q 1100 0 847 248 
Q 594 497 594 1153 
L 594 3053 
L 172 3053 
L 172 3500 
L 594 3500 
L 594 4494 
L 1172 4494 
z
" transform="scale(0.015625)"/>
      <path id="DejaVuSans-68" d="M 3513 2113 
L 3513 0 
L 2938 0 
L 2938 2094 
Q 2938 2591 2744 2837 
Q 2550 3084 2163 3084 
Q 1697 3084 1428 2787 
Q 1159 2491 1159 1978 
L 1159 0 
L 581 0 
L 581 4863 
L 1159 4863 
L 1159 2956 
Q 1366 3272 1645 3428 
Q 1925 3584 2291 3584 
Q 2894 3584 3203 3211 
Q 3513 2838 3513 2113 
z
" transform="scale(0.015625)"/>
      <path id="DejaVuSans-73" d="M 2834 3397 
L 2834 2853 
Q 2591 2978 2328 3040 
Q 2066 3103 1784 3103 
Q 1356 3103 1142 2972 
Q 928 2841 928 2578 
Q 928 2378 1081 2264 
Q 1234 2150 1697 2047 
L 1894 2003 
Q 2506 1872 2764 1633 
Q 3022 1394 3022 966 
Q 3022 478 2636 193 
Q 2250 -91 1575 -91 
Q 1294 -91 989 -36 
Q 684 19 347 128 
L 347 722 
Q 666 556 975 473 
Q 1284 391 1588 391 
Q 1994 391 2212 530 
Q 2431 669 2431 922 
Q 2431 1156 2273 1281 
Q 2116 1406 1581 1522 
L 1381 1569 
Q 847 1681 609 1914 
Q 372 2147 372 2553 
Q 372 3047 722 3315 
Q 1072 3584 1716 3584 
Q 2034 3584 2315 3537 
Q 2597 3491 2834 3397 
z
" transform="scale(0.015625)"/>
      <path id="DejaVuSans-63" d="M 3122 3366 
L 3122 2828 
Q 2878 2963 2633 3030 
Q 2388 3097 2138 3097 
Q 1578 3097 1268 2742 
Q 959 2388 959 1747 
Q 959 1106 1268 751 
Q 1578 397 2138 397 
Q 2388 397 2633 464 
Q 2878 531 3122 666 
L 3122 134 
Q 2881 22 2623 -34 
Q 2366 -91 2075 -91 
Q 1284 -91 818 406 
Q 353 903 353 1747 
Q 353 2603 823 3093 
Q 1294 3584 2113 3584 
Q 2378 3584 2631 3529 
Q 2884 3475 3122 3366 
z
" transform="scale(0.015625)"/>
      <path id="DejaVuSans-61" d="M 2194 1759 
Q 1497 1759 1228 1600 
Q 959 1441 959 1056 
Q 959 750 1161 570 
Q 1363 391 1709 391 
Q 2188 391 2477 730 
Q 2766 1069 2766 1631 
L 2766 1759 
L 2194 1759 
z
M 3341 1997 
L 3341 0 
L 2766 0 
L 2766 531 
Q 2569 213 2275 61 
Q 1981 -91 1556 -91 
Q 1019 -91 701 211 
Q 384 513 384 1019 
Q 384 1609 779 1909 
Q 1175 2209 1959 2209 
L 2766 2209 
L 2766 2266 
Q 2766 2663 2505 2880 
Q 2244 3097 1772 3097 
Q 1472 3097 1187 3025 
Q 903 2953 641 2809 
L 641 3341 
Q 956 3463 1253 3523 
Q 1550 3584 1831 3584 
Q 2591 3584 2966 3190 
Q 3341 2797 3341 1997 
z
" transform="scale(0.015625)"/>
      <path id="DejaVuSans-6c" d="M 603 4863 
L 1178 4863 
L 1178 0 
L 603 0 
L 603 4863 
z
" transform="scale(0.015625)"/>
      <path id="DejaVuSans-20" transform="scale(0.015625)"/>
      <path id="DejaVuSans-Oblique-2113" d="M 950 838 
Q 1078 213 1350 213 
Q 1531 213 1766 572 
L 2181 572 
Q 1994 253 1775 88 
Q 1538 -91 1319 -91 
Q 831 -91 634 344 
L 400 0 
L -88 0 
Q 250 459 500 888 
Q 469 1131 469 1397 
Q 469 1872 566 2347 
Q 931 4131 1256 4497 
Q 1481 4750 1866 4750 
Q 2256 4750 2256 4209 
Q 2253 3966 2197 3675 
Q 1972 2484 950 838 
z
M 947 1656 
Q 1531 2744 1709 3613 
Q 1803 4072 1803 4191 
Q 1803 4406 1725 4406 
Q 1384 4134 1081 2516 
Q 997 2063 947 1656 
z
" transform="scale(0.015625)"/>
      <path id="DejaVuSans-3d" d="M 678 2906 
L 4684 2906 
L 4684 2381 
L 678 2381 
L 678 2906 
z
M 678 1631 
L 4684 1631 
L 4684 1100 
L 678 1100 
L 678 1631 
z
" transform="scale(0.015625)"/>
      <path id="DejaVuSans-2e" d="M 684 794 
L 1344 794 
L 1344 0 
L 684 0 
L 684 794 
z
" transform="scale(0.015625)"/>
      <path id="DejaVuSans-2c" d="M 750 794 
L 1409 794 
L 1409 256 
L 897 -744 
L 494 -744 
L 750 256 
L 750 794 
z
" transform="scale(0.015625)"/>
      <path id="DejaVuSans-41" d="M 2188 4044 
L 1331 1722 
L 3047 1722 
L 2188 4044 
z
M 1831 4666 
L 2547 4666 
L 4325 0 
L 3669 0 
L 3244 1197 
L 1141 1197 
L 716 0 
L 50 0 
L 1831 4666 
z
" transform="scale(0.015625)"/>
      <path id="DejaVuSans-6d" d="M 3328 2828 
Q 3544 3216 3844 3400 
Q 4144 3584 4550 3584 
Q 5097 3584 5394 3201 
Q 5691 2819 5691 2113 
L 5691 0 
L 5113 0 
L 5113 2094 
Q 5113 2597 4934 2840 
Q 4756 3084 4391 3084 
Q 3944 3084 3684 2787 
Q 3425 2491 3425 1978 
L 3425 0 
L 2847 0 
L 2847 2094 
Q 2847 2600 2669 2842 
Q 2491 3084 2119 3084 
Q 1678 3084 1418 2786 
Q 1159 2488 1159 1978 
L 1159 0 
L 581 0 
L 581 3500 
L 1159 3500 
L 1159 2956 
Q 1356 3278 1631 3431 
Q 1906 3584 2284 3584 
Q 2666 3584 2933 3390 
Q 3200 3197 3328 2828 
z
" transform="scale(0.015625)"/>
      <path id="DejaVuSans-70" d="M 1159 525 
L 1159 -1331 
L 581 -1331 
L 581 3500 
L 1159 3500 
L 1159 2969 
Q 1341 3281 1617 3432 
Q 1894 3584 2278 3584 
Q 2916 3584 3314 3078 
Q 3713 2572 3713 1747 
Q 3713 922 3314 415 
Q 2916 -91 2278 -91 
Q 1894 -91 1617 61 
Q 1341 213 1159 525 
z
M 3116 1747 
Q 3116 2381 2855 2742 
Q 2594 3103 2138 3103 
Q 1681 3103 1420 2742 
Q 1159 2381 1159 1747 
Q 1159 1113 1420 752 
Q 1681 391 2138 391 
Q 2594 391 2855 752 
Q 3116 1113 3116 1747 
z
" transform="scale(0.015625)"/>
      <path id="DejaVuSans-69" d="M 603 3500 
L 1178 3500 
L 1178 0 
L 603 0 
L 603 3500 
z
M 603 4863 
L 1178 4863 
L 1178 4134 
L 603 4134 
L 603 4863 
z
" transform="scale(0.015625)"/>
      <path id="DejaVuSans-75" d="M 544 1381 
L 544 3500 
L 1119 3500 
L 1119 1403 
Q 1119 906 1312 657 
Q 1506 409 1894 409 
Q 2359 409 2629 706 
Q 2900 1003 2900 1516 
L 2900 3500 
L 3475 3500 
L 3475 0 
L 2900 0 
L 2900 538 
Q 2691 219 2414 64 
Q 2138 -91 1772 -91 
Q 1169 -91 856 284 
Q 544 659 544 1381 
z
M 1991 3584 
L 1991 3584 
z
" transform="scale(0.015625)"/>
      <path id="DejaVuSans-64" d="M 2906 2969 
L 2906 4863 
L 3481 4863 
L 3481 0 
L 2906 0 
L 2906 525 
Q 2725 213 2448 61 
Q 2172 -91 1784 -91 
Q 1150 -91 751 415 
Q 353 922 353 1747 
Q 353 2572 751 3078 
Q 1150 3584 1784 3584 
Q 2172 3584 2448 3432 
Q 2725 3281 2906 2969 
z
M 947 1747 
Q 947 1113 1208 752 
Q 1469 391 1925 391 
Q 2381 391 2643 752 
Q 2906 1113 2906 1747 
Q 2906 2381 2643 2742 
Q 2381 3103 1925 3103 
Q 1469 3103 1208 2742 
Q 947 2381 947 1747 
z
" transform="scale(0.015625)"/>
      <path id="DejaVuSans-Oblique-61" d="M 3438 1997 
L 3047 0 
L 2472 0 
L 2578 531 
Q 2325 219 2001 64 
Q 1678 -91 1281 -91 
Q 834 -91 548 182 
Q 263 456 263 884 
Q 263 1497 752 1853 
Q 1241 2209 2100 2209 
L 2900 2209 
L 2931 2363 
Q 2938 2388 2941 2417 
Q 2944 2447 2944 2509 
Q 2944 2788 2717 2942 
Q 2491 3097 2081 3097 
Q 1800 3097 1504 3025 
Q 1209 2953 897 2809 
L 997 3341 
Q 1322 3463 1633 3523 
Q 1944 3584 2234 3584 
Q 2853 3584 3176 3315 
Q 3500 3047 3500 2534 
Q 3500 2431 3484 2292 
Q 3469 2153 3438 1997 
z
M 2816 1759 
L 2241 1759 
Q 1534 1759 1195 1570 
Q 856 1381 856 984 
Q 856 709 1029 553 
Q 1203 397 1509 397 
Q 1978 397 2328 733 
Q 2678 1069 2791 1631 
L 2816 1759 
z
" transform="scale(0.015625)"/>
     </defs>
     <use xlink:href="#DejaVuSans-4c" transform="translate(0 0.015625)"/>
     <use xlink:href="#DejaVuSans-65" transform="translate(55.712891 0.015625)"/>
     <use xlink:href="#DejaVuSans-6e" transform="translate(117.236328 0.015625)"/>
     <use xlink:href="#DejaVuSans-67" transform="translate(180.615234 0.015625)"/>
     <use xlink:href="#DejaVuSans-74" transform="translate(244.091797 0.015625)"/>
     <use xlink:href="#DejaVuSans-68" transform="translate(283.300781 0.015625)"/>
     <use xlink:href="#DejaVuSans-73" transform="translate(346.679688 0.015625)"/>
     <use xlink:href="#DejaVuSans-63" transform="translate(398.779297 0.015625)"/>
     <use xlink:href="#DejaVuSans-61" transform="translate(453.759766 0.015625)"/>
     <use xlink:href="#DejaVuSans-6c" transform="translate(515.039062 0.015625)"/>
     <use xlink:href="#DejaVuSans-65" transform="translate(542.822266 0.015625)"/>
     <use xlink:href="#DejaVuSans-20" transform="translate(604.345703 0.015625)"/>
     <use xlink:href="#DejaVuSans-Oblique-2113" transform="translate(636.132812 0.015625)"/>
     <use xlink:href="#DejaVuSans-3d" transform="translate(677.441406 0.015625)"/>
     <use xlink:href="#DejaVuSans-30" transform="translate(761.230469 0.015625)"/>
     <use xlink:href="#DejaVuSans-2e" transform="translate(824.853516 0.015625)"/>
     <use xlink:href="#DejaVuSans-31" transform="translate(856.640625 0.015625)"/>
     <use xlink:href="#DejaVuSans-30" transform="translate(920.263672 0.015625)"/>
     <use xlink:href="#DejaVuSans-30" transform="translate(983.886719 0.015625)"/>
     <use xlink:href="#DejaVuSans-2c" transform="translate(1047.509766 0.015625)"/>
     <use xlink:href="#DejaVuSans-20" transform="translate(1079.296875 0.015625)"/>
     <use xlink:href="#DejaVuSans-41" transform="translate(1111.083984 0.015625)"/>
     <use xlink:href="#DejaVuSans-6d" transform="translate(1179.492188 0.015625)"/>
     <use xlink:href="#DejaVuSans-70" transform="translate(1276.904297 0.015625)"/>
     <use xlink:href="#DejaVuSans-6c" transform="translate(1340.380859 0.015625)"/>
     <use xlink:href="#DejaVuSans-69" transform="translate(1368.164062 0.015625)"/>
     <use xlink:href="#DejaVuSans-74" transform="translate(1395.947266 0.015625)"/>
     <use xlink:href="#DejaVuSans-75" transform="translate(1435.15625 0.015625)"/>
     <use xlink:href="#DejaVuSans-64" transform="translate(1498.535156 0.015625)"/>
     <use xlink:href="#DejaVuSans-65" transform="translate(1562.011719 0.015625)"/>
     <use xlink:href="#DejaVuSans-20" transform="translate(1623.535156 0.015625)"/>
     <use xlink:href="#DejaVuSans-Oblique-61" transform="translate(1655.322266 0.015625)"/>
     <use xlink:href="#DejaVuSans-3d" transform="translate(1716.601562 0.015625)"/>
     <use xlink:href="#DejaVuSans-31" transform="translate(1800.390625 0.015625)"/>
    </g>
   </g>
  </g>
 </g>
 <defs>
  <clipPath id="pfb20c30b2e">
   <rect x="28.942188" y="22.32" width="195.3" height="138.6"/>
  </clipPath>
 </defs>
</svg>
