<?xml version="1.0" encoding="utf-8" standalone="no"?>
<!DOCTYPE svg PUBLIC "-//W3C//DTD SVG 1.1//EN"
  "http://www.w3.org/Graphics/SVG/1.1/DTD/svg11.dtd">
<svg xmlns:xlink="http://www.w3.org/1999/xlink" width="252.054688pt" height="184.798125pt" viewBox="0 0 252.054688 184.798125" xmlns="http://www.w3.org/2000/svg" version="1.1">
 <metadata>
  <rdf:RDF xmlns:dc="http://purl.org/dc/elements/1.1/" xmlns:cc="http://creativecommons.org/ns#" xmlns:rdf="http://www.w3.org/1999/02/22-rdf-syntax-ns#">
   <cc:Work>
    <dc:type rdf:resource="http://purl.org/dc/dcmitype/StillImage"/>
    <dc:date>2022-12-10T17:08:46.827844</dc:date>
    <dc:format>image/svg+xml</dc:format>
    <dc:creator>
     <cc:Agent>
      <dc:title>Matplotlib v3.5.1, https://matplotlib.org/</dc:title>
     </cc:Agent>
    </dc:creator>
   </cc:Work>
  </rdf:RDF>
 </metadata>
 <defs>
  <style type="text/css">*{stroke-linejoin: round; stroke-linecap: butt}</style>
 </defs>
 <g id="figure_1">
  <g id="patch_1">
   <path d="M 0 184.798125 
L 252.054688 184.798125 
L 252.054688 0 
L 0 0 
z
" style="fill: #ffffff"/>
  </g>
  <g id="axes_1">
   <g id="patch_2">
    <path d="M 35.304688 160.92 
L 230.604688 160.92 
L 230.604688 22.32 
L 35.304688 22.32 
z
" style="fill: #ffffff"/>
   </g>
   <g id="matplotlib.axis_1">
    <g id="xtick_1">
     <g id="line2d_1">
      <defs>
       <path id="ma230cf7f17" d="M 0 0 
L 0 3.5 
" style="stroke: #000000; stroke-width: 0.8"/>
      </defs>
      <g>
       <use xlink:href="#ma230cf7f17" x="44.18196" y="160.92" style="stroke: #000000; stroke-width: 0.8"/>
      </g>
     </g>
     <g id="text_1">
      <!-- 0 -->
      <g transform="translate(41.00071 175.518438)scale(0.1 -0.1)">
       <defs>
        <path id="DejaVuSans-30" d="M 2034 4250 
Q 1547 4250 1301 3770 
Q 1056 3291 1056 2328 
Q 1056 1369 1301 889 
Q 1547 409 2034 409 
Q 2525 409 2770 889 
Q 3016 1369 3016 2328 
Q 3016 3291 2770 3770 
Q 2525 4250 2034 4250 
z
M 2034 4750 
Q 2819 4750 3233 4129 
Q 3647 3509 3647 2328 
Q 3647 1150 3233 529 
Q 2819 -91 2034 -91 
Q 1250 -91 836 529 
Q 422 1150 422 2328 
Q 422 3509 836 4129 
Q 1250 4750 2034 4750 
z
" transform="scale(0.015625)"/>
       </defs>
       <use xlink:href="#DejaVuSans-30"/>
      </g>
     </g>
    </g>
    <g id="xtick_2">
     <g id="line2d_2">
      <g>
       <use xlink:href="#ma230cf7f17" x="79.691051" y="160.92" style="stroke: #000000; stroke-width: 0.8"/>
      </g>
     </g>
     <g id="text_2">
      <!-- 5 -->
      <g transform="translate(76.509801 175.518438)scale(0.1 -0.1)">
       <defs>
        <path id="DejaVuSans-35" d="M 691 4666 
L 3169 4666 
L 3169 4134 
L 1269 4134 
L 1269 2991 
Q 1406 3038 1543 3061 
Q 1681 3084 1819 3084 
Q 2600 3084 3056 2656 
Q 3513 2228 3513 1497 
Q 3513 744 3044 326 
Q 2575 -91 1722 -91 
Q 1428 -91 1123 -41 
Q 819 9 494 109 
L 494 744 
Q 775 591 1075 516 
Q 1375 441 1709 441 
Q 2250 441 2565 725 
Q 2881 1009 2881 1497 
Q 2881 1984 2565 2268 
Q 2250 2553 1709 2553 
Q 1456 2553 1204 2497 
Q 953 2441 691 2322 
L 691 4666 
z
" transform="scale(0.015625)"/>
       </defs>
       <use xlink:href="#DejaVuSans-35"/>
      </g>
     </g>
    </g>
    <g id="xtick_3">
     <g id="line2d_3">
      <g>
       <use xlink:href="#ma230cf7f17" x="115.200142" y="160.92" style="stroke: #000000; stroke-width: 0.8"/>
      </g>
     </g>
     <g id="text_3">
      <!-- 10 -->
      <g transform="translate(108.837642 175.518438)scale(0.1 -0.1)">
       <defs>
        <path id="DejaVuSans-31" d="M 794 531 
L 1825 531 
L 1825 4091 
L 703 3866 
L 703 4441 
L 1819 4666 
L 2450 4666 
L 2450 531 
L 3481 531 
L 3481 0 
L 794 0 
L 794 531 
z
" transform="scale(0.015625)"/>
       </defs>
       <use xlink:href="#DejaVuSans-31"/>
       <use xlink:href="#DejaVuSans-30" x="63.623047"/>
      </g>
     </g>
    </g>
    <g id="xtick_4">
     <g id="line2d_4">
      <g>
       <use xlink:href="#ma230cf7f17" x="150.709233" y="160.92" style="stroke: #000000; stroke-width: 0.8"/>
      </g>
     </g>
     <g id="text_4">
      <!-- 15 -->
      <g transform="translate(144.346733 175.518438)scale(0.1 -0.1)">
       <use xlink:href="#DejaVuSans-31"/>
       <use xlink:href="#DejaVuSans-35" x="63.623047"/>
      </g>
     </g>
    </g>
    <g id="xtick_5">
     <g id="line2d_5">
      <g>
       <use xlink:href="#ma230cf7f17" x="186.218324" y="160.92" style="stroke: #000000; stroke-width: 0.8"/>
      </g>
     </g>
     <g id="text_5">
      <!-- 20 -->
      <g transform="translate(179.855824 175.518438)scale(0.1 -0.1)">
       <defs>
        <path id="DejaVuSans-32" d="M 1228 531 
L 3431 531 
L 3431 0 
L 469 0 
L 469 531 
Q 828 903 1448 1529 
Q 2069 2156 2228 2338 
Q 2531 2678 2651 2914 
Q 2772 3150 2772 3378 
Q 2772 3750 2511 3984 
Q 2250 4219 1831 4219 
Q 1534 4219 1204 4116 
Q 875 4013 500 3803 
L 500 4441 
Q 881 4594 1212 4672 
Q 1544 4750 1819 4750 
Q 2544 4750 2975 4387 
Q 3406 4025 3406 3419 
Q 3406 3131 3298 2873 
Q 3191 2616 2906 2266 
Q 2828 2175 2409 1742 
Q 1991 1309 1228 531 
z
" transform="scale(0.015625)"/>
       </defs>
       <use xlink:href="#DejaVuSans-32"/>
       <use xlink:href="#DejaVuSans-30" x="63.623047"/>
      </g>
     </g>
    </g>
    <g id="xtick_6">
     <g id="line2d_6">
      <g>
       <use xlink:href="#ma230cf7f17" x="221.727415" y="160.92" style="stroke: #000000; stroke-width: 0.8"/>
      </g>
     </g>
     <g id="text_6">
      <!-- 25 -->
      <g transform="translate(215.364915 175.518438)scale(0.1 -0.1)">
       <use xlink:href="#DejaVuSans-32"/>
       <use xlink:href="#DejaVuSans-35" x="63.623047"/>
      </g>
     </g>
    </g>
   </g>
   <g id="matplotlib.axis_2">
    <g id="ytick_1">
     <g id="line2d_7">
      <defs>
       <path id="m4b8ff22850" d="M 0 0 
L -3.5 0 
" style="stroke: #000000; stroke-width: 0.8"/>
      </defs>
      <g>
       <use xlink:href="#m4b8ff22850" x="35.304688" y="160.92" style="stroke: #000000; stroke-width: 0.8"/>
      </g>
     </g>
     <g id="text_7">
      <!-- −40 -->
      <g transform="translate(7.2 164.719219)scale(0.1 -0.1)">
       <defs>
        <path id="DejaVuSans-2212" d="M 678 2272 
L 4684 2272 
L 4684 1741 
L 678 1741 
L 678 2272 
z
" transform="scale(0.015625)"/>
        <path id="DejaVuSans-34" d="M 2419 4116 
L 825 1625 
L 2419 1625 
L 2419 4116 
z
M 2253 4666 
L 3047 4666 
L 3047 1625 
L 3713 1625 
L 3713 1100 
L 3047 1100 
L 3047 0 
L 2419 0 
L 2419 1100 
L 313 1100 
L 313 1709 
L 2253 4666 
z
" transform="scale(0.015625)"/>
       </defs>
       <use xlink:href="#DejaVuSans-2212"/>
       <use xlink:href="#DejaVuSans-34" x="83.789062"/>
       <use xlink:href="#DejaVuSans-30" x="147.412109"/>
      </g>
     </g>
    </g>
    <g id="ytick_2">
     <g id="line2d_8">
      <g>
       <use xlink:href="#m4b8ff22850" x="35.304688" y="126.27" style="stroke: #000000; stroke-width: 0.8"/>
      </g>
     </g>
     <g id="text_8">
      <!-- −20 -->
      <g transform="translate(7.2 130.069219)scale(0.1 -0.1)">
       <use xlink:href="#DejaVuSans-2212"/>
       <use xlink:href="#DejaVuSans-32" x="83.789062"/>
       <use xlink:href="#DejaVuSans-30" x="147.412109"/>
      </g>
     </g>
    </g>
    <g id="ytick_3">
     <g id="line2d_9">
      <g>
       <use xlink:href="#m4b8ff22850" x="35.304688" y="91.62" style="stroke: #000000; stroke-width: 0.8"/>
      </g>
     </g>
     <g id="text_9">
      <!-- 0 -->
      <g transform="translate(21.942187 95.419219)scale(0.1 -0.1)">
       <use xlink:href="#DejaVuSans-30"/>
      </g>
     </g>
    </g>
    <g id="ytick_4">
     <g id="line2d_10">
      <g>
       <use xlink:href="#m4b8ff22850" x="35.304688" y="56.97" style="stroke: #000000; stroke-width: 0.8"/>
      </g>
     </g>
     <g id="text_10">
      <!-- 20 -->
      <g transform="translate(15.579687 60.769219)scale(0.1 -0.1)">
       <use xlink:href="#DejaVuSans-32"/>
       <use xlink:href="#DejaVuSans-30" x="63.623047"/>
      </g>
     </g>
    </g>
    <g id="ytick_5">
     <g id="line2d_11">
      <g>
       <use xlink:href="#m4b8ff22850" x="35.304688" y="22.32" style="stroke: #000000; stroke-width: 0.8"/>
      </g>
     </g>
     <g id="text_11">
      <!-- 40 -->
      <g transform="translate(15.579687 26.119219)scale(0.1 -0.1)">
       <use xlink:href="#DejaVuSans-34"/>
       <use xlink:href="#DejaVuSans-30" x="63.623047"/>
      </g>
     </g>
    </g>
   </g>
   <g id="line2d_12">
    <path d="M 44.18196 98.514413 
L 45.960973 97.505906 
L 48.807393 95.588021 
L 51.653813 93.748594 
L 53.432826 92.862316 
L 54.856036 92.370421 
L 56.279246 92.097063 
L 57.702456 92.049464 
L 59.125666 92.221919 
L 60.548876 92.598359 
L 62.327888 93.317957 
L 64.462704 94.462029 
L 71.578754 98.624979 
L 73.001964 99.14043 
L 74.425174 99.436309 
L 75.848384 99.477146 
L 77.271594 99.240197 
L 78.694804 98.718078 
L 80.118014 97.920203 
L 81.541224 96.872831 
L 83.320237 95.277662 
L 86.166657 92.333379 
L 89.36888 89.049229 
L 91.147892 87.512014 
L 92.571102 86.523067 
L 93.994312 85.784478 
L 95.417522 85.308121 
L 96.840732 85.085066 
L 98.263942 85.088713 
L 100.042955 85.354031 
L 102.17777 85.953631 
L 104.668388 86.92626 
L 107.159005 88.163704 
L 109.29382 89.466174 
L 111.784438 91.259405 
L 116.054068 94.439184 
L 117.833081 95.437694 
L 119.256291 95.966116 
L 120.679501 96.218334 
L 122.102711 96.198302 
L 123.525921 95.945262 
L 125.660736 95.281072 
L 129.218761 94.09869 
L 130.997774 93.735693 
L 132.776786 93.590668 
L 134.911601 93.662874 
L 142.027652 94.190857 
L 143.806664 94.022236 
L 145.941479 93.572083 
L 148.432097 92.771363 
L 152.701727 91.330002 
L 154.48074 90.989109 
L 155.90395 90.911823 
L 157.32716 91.027287 
L 159.106172 91.433905 
L 160.885185 92.084136 
L 163.375802 93.250167 
L 168.001235 95.469927 
L 170.13605 96.261642 
L 172.270865 96.803198 
L 174.049878 97.023984 
L 175.82889 97.011384 
L 177.607903 96.761871 
L 179.386916 96.300221 
L 181.877533 95.409188 
L 186.858768 93.556004 
L 190.416794 92.549463 
L 193.619016 91.591966 
L 195.753831 90.731501 
L 198.244449 89.450462 
L 203.937289 86.343174 
L 205.716302 85.739115 
L 207.139512 85.487598 
L 208.562722 85.45759 
L 209.985932 85.640095 
L 211.764944 86.121731 
L 213.899759 86.954869 
L 221.727415 90.258061 
L 221.727415 90.258061 
" clip-path="url(#p2abb20fad8)" style="fill: none; stroke: #000000; stroke-opacity: 0.5; stroke-width: 2; stroke-linecap: square"/>
   </g>
   <g id="line2d_13">
    <path d="M 44.18196 94.4787 
L 45.960973 93.054977 
L 48.095788 91.063493 
L 53.788628 85.53039 
L 55.211838 84.46807 
L 56.635048 83.675338 
L 57.702456 83.286984 
L 58.769863 83.087229 
L 59.837271 83.076053 
L 60.904678 83.243268 
L 62.327888 83.708615 
L 64.106901 84.58174 
L 70.155544 87.879976 
L 71.934556 88.429629 
L 73.357766 88.652382 
L 75.136779 88.671205 
L 76.915792 88.452925 
L 79.762212 87.833726 
L 82.608632 87.262185 
L 84.387644 87.100778 
L 86.166657 87.159067 
L 87.945669 87.449942 
L 90.080485 88.069626 
L 92.926905 89.197697 
L 98.263942 91.397449 
L 100.75456 92.1618 
L 102.889375 92.596941 
L 105.02419 92.806172 
L 107.159005 92.7998 
L 110.005425 92.54213 
L 117.477278 91.703423 
L 120.679501 91.634587 
L 123.170118 91.811619 
L 125.304933 92.194501 
L 127.439749 92.81884 
L 130.286169 93.937098 
L 133.488391 95.182425 
L 135.267404 95.630034 
L 136.690614 95.768077 
L 138.113824 95.668138 
L 139.537034 95.310769 
L 140.960244 94.697732 
L 142.383454 93.852619 
L 144.162467 92.538778 
L 150.566912 87.466947 
L 151.990122 86.710985 
L 153.413332 86.200466 
L 154.836542 85.95104 
L 156.259752 85.957598 
L 157.682962 86.196772 
L 159.461975 86.765138 
L 161.59679 87.722913 
L 165.86642 89.985096 
L 169.780248 91.964083 
L 172.270865 93.017889 
L 174.049878 93.580536 
L 175.82889 93.900326 
L 177.252101 93.933538 
L 178.675311 93.745229 
L 180.098521 93.337312 
L 181.877533 92.5656 
L 185.079756 90.82282 
L 187.214571 89.796406 
L 188.637781 89.323836 
L 190.060991 89.076336 
L 191.484201 89.067619 
L 192.907411 89.279005 
L 194.686424 89.777383 
L 199.667659 91.343948 
L 201.090869 91.52203 
L 202.514079 91.50441 
L 204.293092 91.223159 
L 206.783709 90.518728 
L 209.274327 89.829108 
L 211.053339 89.581343 
L 212.476549 89.608724 
L 213.899759 89.849325 
L 215.678772 90.406881 
L 218.880995 91.755035 
L 221.01581 92.557147 
L 221.727415 92.767593 
L 221.727415 92.767593 
" clip-path="url(#p2abb20fad8)" style="fill: none; stroke: #000000; stroke-opacity: 0.5; stroke-width: 2; stroke-linecap: square"/>
   </g>
   <g id="line2d_14">
    <path d="M 44.18196 97.963944 
L 52.009616 95.373072 
L 54.856036 94.771991 
L 58.058258 94.314667 
L 61.972086 93.978268 
L 66.953321 93.777294 
L 70.511346 93.84997 
L 73.357766 94.134498 
L 76.559989 94.694272 
L 81.185422 95.529058 
L 83.320237 95.676377 
L 85.099249 95.599583 
L 86.878262 95.330118 
L 89.013077 94.79203 
L 97.90814 92.232503 
L 101.466165 91.636162 
L 104.668388 91.301883 
L 106.803203 91.263792 
L 108.938018 91.458341 
L 111.072833 91.921102 
L 113.56345 92.740917 
L 118.188883 94.342066 
L 119.967896 94.71148 
L 121.746908 94.864263 
L 123.881723 94.783513 
L 127.083946 94.35883 
L 129.930366 94.041802 
L 132.065181 94.025159 
L 134.199996 94.249391 
L 136.690614 94.762116 
L 141.671849 95.883132 
L 143.450862 96.047438 
L 145.229874 95.98468 
L 147.008887 95.664825 
L 148.787899 95.085334 
L 150.566912 94.26979 
L 152.701727 93.046882 
L 160.529382 88.259496 
L 162.664197 87.386362 
L 164.44321 86.879454 
L 166.578025 86.517654 
L 169.068643 86.36788 
L 172.270865 86.43683 
L 180.810126 86.941506 
L 183.656546 87.314936 
L 186.502966 87.935226 
L 195.042226 90.069251 
L 197.888646 90.373755 
L 203.937289 90.930827 
L 207.495314 91.57943 
L 212.120747 92.422326 
L 215.32297 92.76064 
L 221.727415 93.142098 
L 221.727415 93.142098 
" clip-path="url(#p2abb20fad8)" style="fill: none; stroke: #000000; stroke-opacity: 0.5; stroke-width: 2; stroke-linecap: square"/>
   </g>
   <g id="line2d_15">
    <path d="M 44.18196 94.318166 
L 47.739985 95.78646 
L 49.163195 96.160705 
L 50.586405 96.315967 
L 52.009616 96.220621 
L 53.432826 95.875931 
L 54.856036 95.316265 
L 56.990851 94.214895 
L 60.548876 92.361295 
L 62.327888 91.714829 
L 64.106901 91.342172 
L 65.885914 91.216954 
L 69.088136 91.297858 
L 71.222951 91.24771 
L 73.001964 90.969727 
L 74.780976 90.421425 
L 76.559989 89.630053 
L 82.252829 86.839288 
L 84.031842 86.354455 
L 85.810854 86.143932 
L 87.945669 86.161757 
L 93.282707 86.346135 
L 100.042955 86.158996 
L 101.821968 86.4329 
L 103.60098 86.919354 
L 106.091598 87.869366 
L 110.361228 89.555839 
L 112.14024 90.02272 
L 113.919253 90.269588 
L 115.698266 90.303244 
L 118.188883 90.10471 
L 121.746908 89.808304 
L 123.525921 89.859894 
L 125.304933 90.109337 
L 127.439749 90.646282 
L 133.844194 92.501515 
L 135.623206 92.675405 
L 137.402219 92.58521 
L 139.181231 92.220696 
L 140.960244 91.608416 
L 143.450862 90.462319 
L 147.008887 88.771386 
L 148.787899 88.171419 
L 150.211109 87.904584 
L 151.634319 87.859395 
L 153.05753 88.040117 
L 154.48074 88.425138 
L 156.615555 89.280779 
L 160.885185 91.13229 
L 162.664197 91.614508 
L 164.087407 91.794287 
L 165.510618 91.785061 
L 167.28963 91.540522 
L 169.780248 90.914711 
L 173.694075 89.888641 
L 175.82889 89.580911 
L 177.607903 89.529976 
L 179.742718 89.718588 
L 181.877533 90.142135 
L 184.723953 90.961935 
L 188.993583 92.457257 
L 197.532844 95.513006 
L 199.667659 95.996297 
L 201.446671 96.195907 
L 203.225684 96.187814 
L 205.360499 95.919948 
L 207.851117 95.340792 
L 212.120747 94.060925 
L 216.74618 92.50101 
L 219.236797 91.446384 
L 221.727415 90.175887 
L 221.727415 90.175887 
" clip-path="url(#p2abb20fad8)" style="fill: none; stroke: #000000; stroke-opacity: 0.5; stroke-width: 2; stroke-linecap: square"/>
   </g>
   <g id="line2d_16">
    <path d="M 44.18196 89.29019 
L 47.02838 90.293871 
L 49.518998 90.932296 
L 52.721221 91.494949 
L 59.125666 92.568768 
L 63.395296 93.298975 
L 65.885914 93.507589 
L 68.376531 93.494114 
L 71.934556 93.206231 
L 75.848384 92.908584 
L 78.339002 92.945376 
L 80.473817 93.190078 
L 82.964434 93.724754 
L 86.878262 94.876582 
L 89.724682 95.600082 
L 91.503695 95.844417 
L 93.282707 95.857791 
L 95.06172 95.612511 
L 96.840732 95.114636 
L 98.975547 94.2397 
L 102.17777 92.605508 
L 105.379993 91.008363 
L 107.514808 90.189548 
L 109.29382 89.751731 
L 110.71703 89.59446 
L 112.14024 89.622766 
L 113.56345 89.838022 
L 115.342463 90.352816 
L 117.121476 91.09757 
L 119.612093 92.40208 
L 125.660736 95.723668 
L 127.795551 96.5836 
L 129.574564 97.044425 
L 130.997774 97.207143 
L 132.420984 97.170097 
L 133.844194 96.934064 
L 135.623206 96.387719 
L 137.758021 95.453981 
L 142.027652 93.226817 
L 145.229874 91.682791 
L 147.720492 90.714454 
L 149.855307 90.101812 
L 151.990122 89.716915 
L 154.124937 89.553207 
L 156.615555 89.580421 
L 160.885185 89.893778 
L 165.510618 90.422427 
L 168.357038 90.960623 
L 171.203458 91.729937 
L 179.031113 94.090377 
L 180.810126 94.326193 
L 182.589138 94.333787 
L 184.368151 94.08533 
L 186.147163 93.57821 
L 187.926176 92.839122 
L 190.416794 91.531133 
L 194.330621 89.424788 
L 196.109634 88.716845 
L 197.532844 88.344875 
L 198.956054 88.162887 
L 200.735066 88.18531 
L 202.869882 88.484054 
L 208.918524 89.526436 
L 213.188154 89.818369 
L 215.678772 90.11614 
L 217.813587 90.591596 
L 221.01581 91.585875 
L 221.727415 91.806917 
L 221.727415 91.806917 
" clip-path="url(#p2abb20fad8)" style="fill: none; stroke: #000000; stroke-opacity: 0.5; stroke-width: 2; stroke-linecap: square"/>
   </g>
   <g id="patch_3">
    <path d="M 35.304688 160.92 
L 35.304688 22.32 
" style="fill: none; stroke: #000000; stroke-width: 0.8; stroke-linejoin: miter; stroke-linecap: square"/>
   </g>
   <g id="patch_4">
    <path d="M 230.604688 160.92 
L 230.604688 22.32 
" style="fill: none; stroke: #000000; stroke-width: 0.8; stroke-linejoin: miter; stroke-linecap: square"/>
   </g>
   <g id="patch_5">
    <path d="M 35.304688 160.92 
L 230.604687 160.92 
" style="fill: none; stroke: #000000; stroke-width: 0.8; stroke-linejoin: miter; stroke-linecap: square"/>
   </g>
   <g id="patch_6">
    <path d="M 35.304688 22.32 
L 230.604687 22.32 
" style="fill: none; stroke: #000000; stroke-width: 0.8; stroke-linejoin: miter; stroke-linecap: square"/>
   </g>
   <g id="text_12">
    <!-- Lengthscale $\ell$=2, Amplitude $a$=2.000 -->
    <g transform="translate(21.054688 16.32)scale(0.12 -0.12)">
     <defs>
      <path id="DejaVuSans-4c" d="M 628 4666 
L 1259 4666 
L 1259 531 
L 3531 531 
L 3531 0 
L 628 0 
L 628 4666 
z
" transform="scale(0.015625)"/>
      <path id="DejaVuSans-65" d="M 3597 1894 
L 3597 1613 
L 953 1613 
Q 991 1019 1311 708 
Q 1631 397 2203 397 
Q 2534 397 2845 478 
Q 3156 559 3463 722 
L 3463 178 
Q 3153 47 2828 -22 
Q 2503 -91 2169 -91 
Q 1331 -91 842 396 
Q 353 884 353 1716 
Q 353 2575 817 3079 
Q 1281 3584 2069 3584 
Q 2775 3584 3186 3129 
Q 3597 2675 3597 1894 
z
M 3022 2063 
Q 3016 2534 2758 2815 
Q 2500 3097 2075 3097 
Q 1594 3097 1305 2825 
Q 1016 2553 972 2059 
L 3022 2063 
z
" transform="scale(0.015625)"/>
      <path id="DejaVuSans-6e" d="M 3513 2113 
L 3513 0 
L 2938 0 
L 2938 2094 
Q 2938 2591 2744 2837 
Q 2550 3084 2163 3084 
Q 1697 3084 1428 2787 
Q 1159 2491 1159 1978 
L 1159 0 
L 581 0 
L 581 3500 
L 1159 3500 
L 1159 2956 
Q 1366 3272 1645 3428 
Q 1925 3584 2291 3584 
Q 2894 3584 3203 3211 
Q 3513 2838 3513 2113 
z
" transform="scale(0.015625)"/>
      <path id="DejaVuSans-67" d="M 2906 1791 
Q 2906 2416 2648 2759 
Q 2391 3103 1925 3103 
Q 1463 3103 1205 2759 
Q 947 2416 947 1791 
Q 947 1169 1205 825 
Q 1463 481 1925 481 
Q 2391 481 2648 825 
Q 2906 1169 2906 1791 
z
M 3481 434 
Q 3481 -459 3084 -895 
Q 2688 -1331 1869 -1331 
Q 1566 -1331 1297 -1286 
Q 1028 -1241 775 -1147 
L 775 -588 
Q 1028 -725 1275 -790 
Q 1522 -856 1778 -856 
Q 2344 -856 2625 -561 
Q 2906 -266 2906 331 
L 2906 616 
Q 2728 306 2450 153 
Q 2172 0 1784 0 
Q 1141 0 747 490 
Q 353 981 353 1791 
Q 353 2603 747 3093 
Q 1141 3584 1784 3584 
Q 2172 3584 2450 3431 
Q 2728 3278 2906 2969 
L 2906 3500 
L 3481 3500 
L 3481 434 
z
" transform="scale(0.015625)"/>
      <path id="DejaVuSans-74" d="M 1172 4494 
L 1172 3500 
L 2356 3500 
L 2356 3053 
L 1172 3053 
L 1172 1153 
Q 1172 725 1289 603 
Q 1406 481 1766 481 
L 2356 481 
L 2356 0 
L 1766 0 
Q 1100 0 847 248 
Q 594 497 594 1153 
L 594 3053 
L 172 3053 
L 172 3500 
L 594 3500 
L 594 4494 
L 1172 4494 
z
" transform="scale(0.015625)"/>
      <path id="DejaVuSans-68" d="M 3513 2113 
L 3513 0 
L 2938 0 
L 2938 2094 
Q 2938 2591 2744 2837 
Q 2550 3084 2163 3084 
Q 1697 3084 1428 2787 
Q 1159 2491 1159 1978 
L 1159 0 
L 581 0 
L 581 4863 
L 1159 4863 
L 1159 2956 
Q 1366 3272 1645 3428 
Q 1925 3584 2291 3584 
Q 2894 3584 3203 3211 
Q 3513 2838 3513 2113 
z
" transform="scale(0.015625)"/>
      <path id="DejaVuSans-73" d="M 2834 3397 
L 2834 2853 
Q 2591 2978 2328 3040 
Q 2066 3103 1784 3103 
Q 1356 3103 1142 2972 
Q 928 2841 928 2578 
Q 928 2378 1081 2264 
Q 1234 2150 1697 2047 
L 1894 2003 
Q 2506 1872 2764 1633 
Q 3022 1394 3022 966 
Q 3022 478 2636 193 
Q 2250 -91 1575 -91 
Q 1294 -91 989 -36 
Q 684 19 347 128 
L 347 722 
Q 666 556 975 473 
Q 1284 391 1588 391 
Q 1994 391 2212 530 
Q 2431 669 2431 922 
Q 2431 1156 2273 1281 
Q 2116 1406 1581 1522 
L 1381 1569 
Q 847 1681 609 1914 
Q 372 2147 372 2553 
Q 372 3047 722 3315 
Q 1072 3584 1716 3584 
Q 2034 3584 2315 3537 
Q 2597 3491 2834 3397 
z
" transform="scale(0.015625)"/>
      <path id="DejaVuSans-63" d="M 3122 3366 
L 3122 2828 
Q 2878 2963 2633 3030 
Q 2388 3097 2138 3097 
Q 1578 3097 1268 2742 
Q 959 2388 959 1747 
Q 959 1106 1268 751 
Q 1578 397 2138 397 
Q 2388 397 2633 464 
Q 2878 531 3122 666 
L 3122 134 
Q 2881 22 2623 -34 
Q 2366 -91 2075 -91 
Q 1284 -91 818 406 
Q 353 903 353 1747 
Q 353 2603 823 3093 
Q 1294 3584 2113 3584 
Q 2378 3584 2631 3529 
Q 2884 3475 3122 3366 
z
" transform="scale(0.015625)"/>
      <path id="DejaVuSans-61" d="M 2194 1759 
Q 1497 1759 1228 1600 
Q 959 1441 959 1056 
Q 959 750 1161 570 
Q 1363 391 1709 391 
Q 2188 391 2477 730 
Q 2766 1069 2766 1631 
L 2766 1759 
L 2194 1759 
z
M 3341 1997 
L 3341 0 
L 2766 0 
L 2766 531 
Q 2569 213 2275 61 
Q 1981 -91 1556 -91 
Q 1019 -91 701 211 
Q 384 513 384 1019 
Q 384 1609 779 1909 
Q 1175 2209 1959 2209 
L 2766 2209 
L 2766 2266 
Q 2766 2663 2505 2880 
Q 2244 3097 1772 3097 
Q 1472 3097 1187 3025 
Q 903 2953 641 2809 
L 641 3341 
Q 956 3463 1253 3523 
Q 1550 3584 1831 3584 
Q 2591 3584 2966 3190 
Q 3341 2797 3341 1997 
z
" transform="scale(0.015625)"/>
      <path id="DejaVuSans-6c" d="M 603 4863 
L 1178 4863 
L 1178 0 
L 603 0 
L 603 4863 
z
" transform="scale(0.015625)"/>
      <path id="DejaVuSans-20" transform="scale(0.015625)"/>
      <path id="DejaVuSans-Oblique-2113" d="M 950 838 
Q 1078 213 1350 213 
Q 1531 213 1766 572 
L 2181 572 
Q 1994 253 1775 88 
Q 1538 -91 1319 -91 
Q 831 -91 634 344 
L 400 0 
L -88 0 
Q 250 459 500 888 
Q 469 1131 469 1397 
Q 469 1872 566 2347 
Q 931 4131 1256 4497 
Q 1481 4750 1866 4750 
Q 2256 4750 2256 4209 
Q 2253 3966 2197 3675 
Q 1972 2484 950 838 
z
M 947 1656 
Q 1531 2744 1709 3613 
Q 1803 4072 1803 4191 
Q 1803 4406 1725 4406 
Q 1384 4134 1081 2516 
Q 997 2063 947 1656 
z
" transform="scale(0.015625)"/>
      <path id="DejaVuSans-3d" d="M 678 2906 
L 4684 2906 
L 4684 2381 
L 678 2381 
L 678 2906 
z
M 678 1631 
L 4684 1631 
L 4684 1100 
L 678 1100 
L 678 1631 
z
" transform="scale(0.015625)"/>
      <path id="DejaVuSans-2c" d="M 750 794 
L 1409 794 
L 1409 256 
L 897 -744 
L 494 -744 
L 750 256 
L 750 794 
z
" transform="scale(0.015625)"/>
      <path id="DejaVuSans-41" d="M 2188 4044 
L 1331 1722 
L 3047 1722 
L 2188 4044 
z
M 1831 4666 
L 2547 4666 
L 4325 0 
L 3669 0 
L 3244 1197 
L 1141 1197 
L 716 0 
L 50 0 
L 1831 4666 
z
" transform="scale(0.015625)"/>
      <path id="DejaVuSans-6d" d="M 3328 2828 
Q 3544 3216 3844 3400 
Q 4144 3584 4550 3584 
Q 5097 3584 5394 3201 
Q 5691 2819 5691 2113 
L 5691 0 
L 5113 0 
L 5113 2094 
Q 5113 2597 4934 2840 
Q 4756 3084 4391 3084 
Q 3944 3084 3684 2787 
Q 3425 2491 3425 1978 
L 3425 0 
L 2847 0 
L 2847 2094 
Q 2847 2600 2669 2842 
Q 2491 3084 2119 3084 
Q 1678 3084 1418 2786 
Q 1159 2488 1159 1978 
L 1159 0 
L 581 0 
L 581 3500 
L 1159 3500 
L 1159 2956 
Q 1356 3278 1631 3431 
Q 1906 3584 2284 3584 
Q 2666 3584 2933 3390 
Q 3200 3197 3328 2828 
z
" transform="scale(0.015625)"/>
      <path id="DejaVuSans-70" d="M 1159 525 
L 1159 -1331 
L 581 -1331 
L 581 3500 
L 1159 3500 
L 1159 2969 
Q 1341 3281 1617 3432 
Q 1894 3584 2278 3584 
Q 2916 3584 3314 3078 
Q 3713 2572 3713 1747 
Q 3713 922 3314 415 
Q 2916 -91 2278 -91 
Q 1894 -91 1617 61 
Q 1341 213 1159 525 
z
M 3116 1747 
Q 3116 2381 2855 2742 
Q 2594 3103 2138 3103 
Q 1681 3103 1420 2742 
Q 1159 2381 1159 1747 
Q 1159 1113 1420 752 
Q 1681 391 2138 391 
Q 2594 391 2855 752 
Q 3116 1113 3116 1747 
z
" transform="scale(0.015625)"/>
      <path id="DejaVuSans-69" d="M 603 3500 
L 1178 3500 
L 1178 0 
L 603 0 
L 603 3500 
z
M 603 4863 
L 1178 4863 
L 1178 4134 
L 603 4134 
L 603 4863 
z
" transform="scale(0.015625)"/>
      <path id="DejaVuSans-75" d="M 544 1381 
L 544 3500 
L 1119 3500 
L 1119 1403 
Q 1119 906 1312 657 
Q 1506 409 1894 409 
Q 2359 409 2629 706 
Q 2900 1003 2900 1516 
L 2900 3500 
L 3475 3500 
L 3475 0 
L 2900 0 
L 2900 538 
Q 2691 219 2414 64 
Q 2138 -91 1772 -91 
Q 1169 -91 856 284 
Q 544 659 544 1381 
z
M 1991 3584 
L 1991 3584 
z
" transform="scale(0.015625)"/>
      <path id="DejaVuSans-64" d="M 2906 2969 
L 2906 4863 
L 3481 4863 
L 3481 0 
L 2906 0 
L 2906 525 
Q 2725 213 2448 61 
Q 2172 -91 1784 -91 
Q 1150 -91 751 415 
Q 353 922 353 1747 
Q 353 2572 751 3078 
Q 1150 3584 1784 3584 
Q 2172 3584 2448 3432 
Q 2725 3281 2906 2969 
z
M 947 1747 
Q 947 1113 1208 752 
Q 1469 391 1925 391 
Q 2381 391 2643 752 
Q 2906 1113 2906 1747 
Q 2906 2381 2643 2742 
Q 2381 3103 1925 3103 
Q 1469 3103 1208 2742 
Q 947 2381 947 1747 
z
" transform="scale(0.015625)"/>
      <path id="DejaVuSans-Oblique-61" d="M 3438 1997 
L 3047 0 
L 2472 0 
L 2578 531 
Q 2325 219 2001 64 
Q 1678 -91 1281 -91 
Q 834 -91 548 182 
Q 263 456 263 884 
Q 263 1497 752 1853 
Q 1241 2209 2100 2209 
L 2900 2209 
L 2931 2363 
Q 2938 2388 2941 2417 
Q 2944 2447 2944 2509 
Q 2944 2788 2717 2942 
Q 2491 3097 2081 3097 
Q 1800 3097 1504 3025 
Q 1209 2953 897 2809 
L 997 3341 
Q 1322 3463 1633 3523 
Q 1944 3584 2234 3584 
Q 2853 3584 3176 3315 
Q 3500 3047 3500 2534 
Q 3500 2431 3484 2292 
Q 3469 2153 3438 1997 
z
M 2816 1759 
L 2241 1759 
Q 1534 1759 1195 1570 
Q 856 1381 856 984 
Q 856 709 1029 553 
Q 1203 397 1509 397 
Q 1978 397 2328 733 
Q 2678 1069 2791 1631 
L 2816 1759 
z
" transform="scale(0.015625)"/>
      <path id="DejaVuSans-2e" d="M 684 794 
L 1344 794 
L 1344 0 
L 684 0 
L 684 794 
z
" transform="scale(0.015625)"/>
     </defs>
     <use xlink:href="#DejaVuSans-4c" transform="translate(0 0.015625)"/>
     <use xlink:href="#DejaVuSans-65" transform="translate(55.712891 0.015625)"/>
     <use xlink:href="#DejaVuSans-6e" transform="translate(117.236328 0.015625)"/>
     <use xlink:href="#DejaVuSans-67" transform="translate(180.615234 0.015625)"/>
     <use xlink:href="#DejaVuSans-74" transform="translate(244.091797 0.015625)"/>
     <use xlink:href="#DejaVuSans-68" transform="translate(283.300781 0.015625)"/>
     <use xlink:href="#DejaVuSans-73" transform="translate(346.679688 0.015625)"/>
     <use xlink:href="#DejaVuSans-63" transform="translate(398.779297 0.015625)"/>
     <use xlink:href="#DejaVuSans-61" transform="translate(453.759766 0.015625)"/>
     <use xlink:href="#DejaVuSans-6c" transform="translate(515.039062 0.015625)"/>
     <use xlink:href="#DejaVuSans-65" transform="translate(542.822266 0.015625)"/>
     <use xlink:href="#DejaVuSans-20" transform="translate(604.345703 0.015625)"/>
     <use xlink:href="#DejaVuSans-Oblique-2113" transform="translate(636.132812 0.015625)"/>
     <use xlink:href="#DejaVuSans-3d" transform="translate(677.441406 0.015625)"/>
     <use xlink:href="#DejaVuSans-32" transform="translate(761.230469 0.015625)"/>
     <use xlink:href="#DejaVuSans-2c" transform="translate(824.853516 0.015625)"/>
     <use xlink:href="#DejaVuSans-20" transform="translate(856.640625 0.015625)"/>
     <use xlink:href="#DejaVuSans-41" transform="translate(888.427734 0.015625)"/>
     <use xlink:href="#DejaVuSans-6d" transform="translate(956.835938 0.015625)"/>
     <use xlink:href="#DejaVuSans-70" transform="translate(1054.248047 0.015625)"/>
     <use xlink:href="#DejaVuSans-6c" transform="translate(1117.724609 0.015625)"/>
     <use xlink:href="#DejaVuSans-69" transform="translate(1145.507812 0.015625)"/>
     <use xlink:href="#DejaVuSans-74" transform="translate(1173.291016 0.015625)"/>
     <use xlink:href="#DejaVuSans-75" transform="translate(1212.5 0.015625)"/>
     <use xlink:href="#DejaVuSans-64" transform="translate(1275.878906 0.015625)"/>
     <use xlink:href="#DejaVuSans-65" transform="translate(1339.355469 0.015625)"/>
     <use xlink:href="#DejaVuSans-20" transform="translate(1400.878906 0.015625)"/>
     <use xlink:href="#DejaVuSans-Oblique-61" transform="translate(1432.666016 0.015625)"/>
     <use xlink:href="#DejaVuSans-3d" transform="translate(1493.945312 0.015625)"/>
     <use xlink:href="#DejaVuSans-32" transform="translate(1577.734375 0.015625)"/>
     <use xlink:href="#DejaVuSans-2e" transform="translate(1641.357422 0.015625)"/>
     <use xlink:href="#DejaVuSans-30" transform="translate(1673.144531 0.015625)"/>
     <use xlink:href="#DejaVuSans-30" transform="translate(1736.767578 0.015625)"/>
     <use xlink:href="#DejaVuSans-30" transform="translate(1800.390625 0.015625)"/>
    </g>
   </g>
  </g>
 </g>
 <defs>
  <clipPath id="p2abb20fad8">
   <rect x="35.304688" y="22.32" width="195.3" height="138.6"/>
  </clipPath>
 </defs>
</svg>
