<?xml version="1.0" encoding="utf-8" standalone="no"?>
<!DOCTYPE svg PUBLIC "-//W3C//DTD SVG 1.1//EN"
  "http://www.w3.org/Graphics/SVG/1.1/DTD/svg11.dtd">
<svg xmlns:xlink="http://www.w3.org/1999/xlink" width="231.442187pt" height="169.678125pt" viewBox="0 0 231.442187 169.678125" xmlns="http://www.w3.org/2000/svg" version="1.1">
 <metadata>
  <rdf:RDF xmlns:dc="http://purl.org/dc/elements/1.1/" xmlns:cc="http://creativecommons.org/ns#" xmlns:rdf="http://www.w3.org/1999/02/22-rdf-syntax-ns#">
   <cc:Work>
    <dc:type rdf:resource="http://purl.org/dc/dcmitype/StillImage"/>
    <dc:date>2022-12-10T17:09:16.142847</dc:date>
    <dc:format>image/svg+xml</dc:format>
    <dc:creator>
     <cc:Agent>
      <dc:title>Matplotlib v3.5.1, https://matplotlib.org/</dc:title>
     </cc:Agent>
    </dc:creator>
   </cc:Work>
  </rdf:RDF>
 </metadata>
 <defs>
  <style type="text/css">*{stroke-linejoin: round; stroke-linecap: butt}</style>
 </defs>
 <g id="figure_1">
  <g id="patch_1">
   <path d="M 0 169.678125 
L 231.442187 169.678125 
L 231.442187 0 
L 0 0 
z
" style="fill: #ffffff"/>
  </g>
  <g id="axes_1">
   <g id="patch_2">
    <path d="M 28.942188 145.8 
L 224.242188 145.8 
L 224.242188 7.2 
L 28.942188 7.2 
z
" style="fill: #ffffff"/>
   </g>
   <g id="matplotlib.axis_1">
    <g id="xtick_1">
     <g id="line2d_1">
      <defs>
       <path id="mf50176a0f3" d="M 0 0 
L 0 3.5 
" style="stroke: #000000; stroke-width: 0.8"/>
      </defs>
      <g>
       <use xlink:href="#mf50176a0f3" x="37.81946" y="145.8" style="stroke: #000000; stroke-width: 0.8"/>
      </g>
     </g>
     <g id="text_1">
      <!-- 0 -->
      <g transform="translate(34.63821 160.398438)scale(0.1 -0.1)">
       <defs>
        <path id="DejaVuSans-30" d="M 2034 4250 
Q 1547 4250 1301 3770 
Q 1056 3291 1056 2328 
Q 1056 1369 1301 889 
Q 1547 409 2034 409 
Q 2525 409 2770 889 
Q 3016 1369 3016 2328 
Q 3016 3291 2770 3770 
Q 2525 4250 2034 4250 
z
M 2034 4750 
Q 2819 4750 3233 4129 
Q 3647 3509 3647 2328 
Q 3647 1150 3233 529 
Q 2819 -91 2034 -91 
Q 1250 -91 836 529 
Q 422 1150 422 2328 
Q 422 3509 836 4129 
Q 1250 4750 2034 4750 
z
" transform="scale(0.015625)"/>
       </defs>
       <use xlink:href="#DejaVuSans-30"/>
      </g>
     </g>
    </g>
    <g id="xtick_2">
     <g id="line2d_2">
      <g>
       <use xlink:href="#mf50176a0f3" x="73.328551" y="145.8" style="stroke: #000000; stroke-width: 0.8"/>
      </g>
     </g>
     <g id="text_2">
      <!-- 5 -->
      <g transform="translate(70.147301 160.398438)scale(0.1 -0.1)">
       <defs>
        <path id="DejaVuSans-35" d="M 691 4666 
L 3169 4666 
L 3169 4134 
L 1269 4134 
L 1269 2991 
Q 1406 3038 1543 3061 
Q 1681 3084 1819 3084 
Q 2600 3084 3056 2656 
Q 3513 2228 3513 1497 
Q 3513 744 3044 326 
Q 2575 -91 1722 -91 
Q 1428 -91 1123 -41 
Q 819 9 494 109 
L 494 744 
Q 775 591 1075 516 
Q 1375 441 1709 441 
Q 2250 441 2565 725 
Q 2881 1009 2881 1497 
Q 2881 1984 2565 2268 
Q 2250 2553 1709 2553 
Q 1456 2553 1204 2497 
Q 953 2441 691 2322 
L 691 4666 
z
" transform="scale(0.015625)"/>
       </defs>
       <use xlink:href="#DejaVuSans-35"/>
      </g>
     </g>
    </g>
    <g id="xtick_3">
     <g id="line2d_3">
      <g>
       <use xlink:href="#mf50176a0f3" x="108.837642" y="145.8" style="stroke: #000000; stroke-width: 0.8"/>
      </g>
     </g>
     <g id="text_3">
      <!-- 10 -->
      <g transform="translate(102.475142 160.398438)scale(0.1 -0.1)">
       <defs>
        <path id="DejaVuSans-31" d="M 794 531 
L 1825 531 
L 1825 4091 
L 703 3866 
L 703 4441 
L 1819 4666 
L 2450 4666 
L 2450 531 
L 3481 531 
L 3481 0 
L 794 0 
L 794 531 
z
" transform="scale(0.015625)"/>
       </defs>
       <use xlink:href="#DejaVuSans-31"/>
       <use xlink:href="#DejaVuSans-30" x="63.623047"/>
      </g>
     </g>
    </g>
    <g id="xtick_4">
     <g id="line2d_4">
      <g>
       <use xlink:href="#mf50176a0f3" x="144.346733" y="145.8" style="stroke: #000000; stroke-width: 0.8"/>
      </g>
     </g>
     <g id="text_4">
      <!-- 15 -->
      <g transform="translate(137.984233 160.398438)scale(0.1 -0.1)">
       <use xlink:href="#DejaVuSans-31"/>
       <use xlink:href="#DejaVuSans-35" x="63.623047"/>
      </g>
     </g>
    </g>
    <g id="xtick_5">
     <g id="line2d_5">
      <g>
       <use xlink:href="#mf50176a0f3" x="179.855824" y="145.8" style="stroke: #000000; stroke-width: 0.8"/>
      </g>
     </g>
     <g id="text_5">
      <!-- 20 -->
      <g transform="translate(173.493324 160.398438)scale(0.1 -0.1)">
       <defs>
        <path id="DejaVuSans-32" d="M 1228 531 
L 3431 531 
L 3431 0 
L 469 0 
L 469 531 
Q 828 903 1448 1529 
Q 2069 2156 2228 2338 
Q 2531 2678 2651 2914 
Q 2772 3150 2772 3378 
Q 2772 3750 2511 3984 
Q 2250 4219 1831 4219 
Q 1534 4219 1204 4116 
Q 875 4013 500 3803 
L 500 4441 
Q 881 4594 1212 4672 
Q 1544 4750 1819 4750 
Q 2544 4750 2975 4387 
Q 3406 4025 3406 3419 
Q 3406 3131 3298 2873 
Q 3191 2616 2906 2266 
Q 2828 2175 2409 1742 
Q 1991 1309 1228 531 
z
" transform="scale(0.015625)"/>
       </defs>
       <use xlink:href="#DejaVuSans-32"/>
       <use xlink:href="#DejaVuSans-30" x="63.623047"/>
      </g>
     </g>
    </g>
    <g id="xtick_6">
     <g id="line2d_6">
      <g>
       <use xlink:href="#mf50176a0f3" x="215.364915" y="145.8" style="stroke: #000000; stroke-width: 0.8"/>
      </g>
     </g>
     <g id="text_6">
      <!-- 25 -->
      <g transform="translate(209.002415 160.398438)scale(0.1 -0.1)">
       <use xlink:href="#DejaVuSans-32"/>
       <use xlink:href="#DejaVuSans-35" x="63.623047"/>
      </g>
     </g>
    </g>
   </g>
   <g id="matplotlib.axis_2">
    <g id="ytick_1">
     <g id="line2d_7">
      <defs>
       <path id="mec21b9a812" d="M 0 0 
L -3.5 0 
" style="stroke: #000000; stroke-width: 0.8"/>
      </defs>
      <g>
       <use xlink:href="#mec21b9a812" x="28.942188" y="131.929157" style="stroke: #000000; stroke-width: 0.8"/>
      </g>
     </g>
     <g id="text_7">
      <!-- −2 -->
      <g transform="translate(7.2 135.728376)scale(0.1 -0.1)">
       <defs>
        <path id="DejaVuSans-2212" d="M 678 2272 
L 4684 2272 
L 4684 1741 
L 678 1741 
L 678 2272 
z
" transform="scale(0.015625)"/>
       </defs>
       <use xlink:href="#DejaVuSans-2212"/>
       <use xlink:href="#DejaVuSans-32" x="83.789062"/>
      </g>
     </g>
    </g>
    <g id="ytick_2">
     <g id="line2d_8">
      <g>
       <use xlink:href="#mec21b9a812" x="28.942188" y="105.672292" style="stroke: #000000; stroke-width: 0.8"/>
      </g>
     </g>
     <g id="text_8">
      <!-- −1 -->
      <g transform="translate(7.2 109.471511)scale(0.1 -0.1)">
       <use xlink:href="#DejaVuSans-2212"/>
       <use xlink:href="#DejaVuSans-31" x="83.789062"/>
      </g>
     </g>
    </g>
    <g id="ytick_3">
     <g id="line2d_9">
      <g>
       <use xlink:href="#mec21b9a812" x="28.942188" y="79.415427" style="stroke: #000000; stroke-width: 0.8"/>
      </g>
     </g>
     <g id="text_9">
      <!-- 0 -->
      <g transform="translate(15.579688 83.214646)scale(0.1 -0.1)">
       <use xlink:href="#DejaVuSans-30"/>
      </g>
     </g>
    </g>
    <g id="ytick_4">
     <g id="line2d_10">
      <g>
       <use xlink:href="#mec21b9a812" x="28.942188" y="53.158563" style="stroke: #000000; stroke-width: 0.8"/>
      </g>
     </g>
     <g id="text_10">
      <!-- 1 -->
      <g transform="translate(15.579688 56.957781)scale(0.1 -0.1)">
       <use xlink:href="#DejaVuSans-31"/>
      </g>
     </g>
    </g>
    <g id="ytick_5">
     <g id="line2d_11">
      <g>
       <use xlink:href="#mec21b9a812" x="28.942188" y="26.901698" style="stroke: #000000; stroke-width: 0.8"/>
      </g>
     </g>
     <g id="text_11">
      <!-- 2 -->
      <g transform="translate(15.579688 30.700917)scale(0.1 -0.1)">
       <use xlink:href="#DejaVuSans-32"/>
      </g>
     </g>
    </g>
   </g>
   <g id="line2d_12">
    <path d="M 37.81946 21.564857 
L 38.886868 22.274139 
L 40.310078 23.539338 
L 41.733288 25.16766 
L 43.156498 27.144163 
L 44.935511 30.058301 
L 47.070326 34.085589 
L 49.916746 40.013107 
L 54.897981 50.441774 
L 57.744401 55.835538 
L 65.216254 69.552222 
L 66.995266 73.540817 
L 68.774279 78.072476 
L 70.553292 83.181688 
L 72.688107 90.00413 
L 75.890329 101.120933 
L 79.448354 113.284534 
L 81.227367 118.69857 
L 83.00638 123.385507 
L 84.42959 126.511115 
L 85.8528 129.029978 
L 86.920207 130.506861 
L 87.987615 131.628519 
L 89.055022 132.399695 
L 90.12243 132.829927 
L 91.189837 132.932391 
L 92.257245 132.722926 
L 93.324652 132.219218 
L 94.39206 131.440224 
L 95.459468 130.405861 
L 96.882678 128.665597 
L 98.305888 126.560986 
L 100.0849 123.505915 
L 102.575518 118.669468 
L 107.912556 107.997745 
L 109.691568 104.984421 
L 111.114778 102.962419 
L 112.537988 101.356113 
L 113.605396 100.450996 
L 114.672803 99.81364 
L 115.740211 99.44486 
L 116.807618 99.336846 
L 117.875026 99.473316 
L 118.942433 99.830009 
L 120.365644 100.593154 
L 122.144656 101.880368 
L 127.481694 106.037312 
L 128.904904 106.780335 
L 130.328114 107.251728 
L 131.751324 107.436147 
L 133.174534 107.350057 
L 134.597744 107.040979 
L 137.088362 106.200638 
L 139.223177 105.52787 
L 140.646387 105.296064 
L 141.713794 105.306311 
L 142.781202 105.511239 
L 143.848609 105.934019 
L 144.916017 106.58665 
L 145.983425 107.468801 
L 147.406635 108.977382 
L 149.185647 111.297545 
L 154.878487 119.276397 
L 155.945895 120.34126 
L 157.013302 121.126084 
L 158.08071 121.586666 
L 158.792315 121.696758 
L 159.50392 121.641021 
L 160.215525 121.415272 
L 160.92713 121.017907 
L 161.994538 120.102991 
L 163.061945 118.818721 
L 164.129353 117.190719 
L 165.552563 114.548483 
L 167.331575 110.641702 
L 169.822193 104.486075 
L 174.091823 93.863783 
L 176.226638 89.240626 
L 178.005651 85.95595 
L 179.428861 83.743855 
L 180.852071 81.91235 
L 182.275281 80.457115 
L 183.698491 79.363871 
L 185.121701 78.611757 
L 186.544911 78.176076 
L 187.968121 78.030217 
L 189.391331 78.146781 
L 190.814541 78.497918 
L 192.237751 79.055044 
L 194.016764 79.995371 
L 196.151579 81.397337 
L 199.709604 84.073458 
L 202.911827 86.385473 
L 205.046642 87.631514 
L 206.825654 88.385697 
L 208.248864 88.765255 
L 209.672075 88.92768 
L 211.095285 88.866152 
L 212.518495 88.583323 
L 213.941705 88.09058 
L 215.364915 87.406538 
L 215.364915 87.406538 
" clip-path="url(#p45d8c4662b)" style="fill: none; stroke: #000000; stroke-opacity: 0.5; stroke-width: 2; stroke-linecap: square"/>
   </g>
   <g id="line2d_13">
    <path d="M 37.81946 112.392777 
L 39.24267 114.146602 
L 40.66588 115.504586 
L 42.08909 116.478561 
L 43.156498 116.972134 
L 44.579708 117.344158 
L 46.002918 117.432592 
L 47.426128 117.292217 
L 49.205141 116.885794 
L 52.407363 115.858696 
L 55.253783 115.0271 
L 57.388599 114.636671 
L 59.167611 114.514509 
L 60.946624 114.585502 
L 63.081439 114.907254 
L 65.572056 115.545107 
L 69.841686 116.959361 
L 72.688107 117.777727 
L 74.467119 118.064934 
L 75.890329 118.089953 
L 77.313539 117.873545 
L 78.380947 117.519934 
L 79.448354 116.978511 
L 80.515762 116.230756 
L 81.583169 115.262294 
L 83.00638 113.613044 
L 84.42959 111.553275 
L 85.8528 109.104148 
L 87.631812 105.56876 
L 90.12243 100.006965 
L 94.39206 90.29552 
L 96.171073 86.749648 
L 97.950085 83.728568 
L 99.373295 81.736396 
L 100.796505 80.118767 
L 102.219715 78.836666 
L 103.998728 77.597689 
L 109.691568 74.099997 
L 111.114778 72.784748 
L 112.537988 71.130756 
L 113.961198 69.101872 
L 115.384408 66.694121 
L 117.163421 63.198142 
L 119.298236 58.460201 
L 124.635274 46.320484 
L 126.058484 43.656395 
L 127.481694 41.487733 
L 128.549101 40.257883 
L 129.616509 39.417081 
L 130.328114 39.091338 
L 131.039719 38.964373 
L 131.751324 39.043797 
L 132.462929 39.335498 
L 133.174534 39.843563 
L 133.886139 40.570235 
L 134.953547 42.070215 
L 136.020954 44.054861 
L 137.088362 46.506678 
L 138.511572 50.453515 
L 139.934782 55.089187 
L 141.713794 61.668472 
L 144.204412 71.825878 
L 148.474042 89.406083 
L 150.253055 95.904077 
L 151.676265 100.466805 
L 153.099475 104.346311 
L 154.166882 106.759394 
L 155.23429 108.721974 
L 156.301697 110.222289 
L 157.369105 111.258003 
L 158.08071 111.693225 
L 158.792315 111.928559 
L 159.50392 111.9693 
L 160.215525 111.822004 
L 160.92713 111.494293 
L 161.994538 110.683313 
L 163.061945 109.517456 
L 164.129353 108.030876 
L 165.552563 105.611192 
L 167.331575 102.002209 
L 169.46639 97.025617 
L 172.312811 89.71935 
L 178.005651 74.938265 
L 180.140466 70.054768 
L 181.919478 66.523728 
L 183.342689 64.137242 
L 184.765899 62.1952 
L 185.833306 61.053286 
L 186.900714 60.192681 
L 187.968121 59.618 
L 189.035529 59.328148 
L 190.102936 59.316218 
L 191.170344 59.569654 
L 192.237751 60.070701 
L 193.305159 60.796962 
L 194.728369 62.06991 
L 196.507382 64.051548 
L 198.642197 66.809959 
L 205.046642 75.384758 
L 207.181457 77.803658 
L 209.316272 79.858653 
L 211.095285 81.265347 
L 212.874297 82.370697 
L 214.297507 83.016461 
L 215.364915 83.346007 
L 215.364915 83.346007 
" clip-path="url(#p45d8c4662b)" style="fill: none; stroke: #000000; stroke-opacity: 0.5; stroke-width: 2; stroke-linecap: square"/>
   </g>
   <g id="line2d_14">
    <path d="M 37.81946 134.815043 
L 39.954275 127.457142 
L 42.800695 116.685704 
L 52.051561 80.649288 
L 53.830573 74.84119 
L 55.609586 69.803807 
L 57.032796 66.416443 
L 58.456006 63.647993 
L 59.523414 61.989666 
L 60.590821 60.687981 
L 61.658229 59.732339 
L 62.725636 59.104201 
L 63.793044 58.777944 
L 64.860451 58.722084 
L 65.927859 58.900759 
L 66.995266 59.275392 
L 68.418476 60.011461 
L 70.553292 61.440424 
L 77.313539 66.258454 
L 81.227367 68.604427 
L 84.785392 70.814205 
L 87.27601 72.636607 
L 89.410825 74.454906 
L 91.901442 76.890958 
L 94.39206 79.643444 
L 97.23848 83.14403 
L 99.729098 86.535277 
L 102.219715 90.317421 
L 104.35453 93.970697 
L 106.489345 98.09575 
L 108.624161 102.746969 
L 110.758976 107.911622 
L 113.605396 115.3984 
L 118.230828 127.603411 
L 120.009841 131.682429 
L 121.433051 134.467278 
L 122.856261 136.715267 
L 123.923669 137.996112 
L 124.991076 138.896904 
L 125.702681 139.275496 
L 126.414286 139.471392 
L 127.125891 139.482147 
L 127.837496 139.307099 
L 128.549101 138.947417 
L 129.616509 138.068645 
L 130.683916 136.798879 
L 131.751324 135.163823 
L 133.174534 132.473988 
L 134.597744 129.290877 
L 136.376757 124.788466 
L 139.578979 115.926945 
L 143.137004 106.265138 
L 145.271819 101.08931 
L 147.050832 97.269828 
L 148.829845 93.922377 
L 150.608857 91.025347 
L 152.38787 88.532019 
L 154.166882 86.388775 
L 155.945895 84.552182 
L 157.724907 83.001711 
L 159.50392 81.745461 
L 160.92713 80.9747 
L 162.35034 80.43962 
L 163.77355 80.167666 
L 165.19676 80.182218 
L 166.264168 80.389725 
L 167.687378 80.928907 
L 169.110588 81.752687 
L 170.533798 82.824959 
L 172.668613 84.769702 
L 176.938243 88.805155 
L 178.361453 89.823824 
L 179.428861 90.375646 
L 180.496268 90.703851 
L 181.563676 90.776338 
L 182.631083 90.567231 
L 183.698491 90.057748 
L 184.765899 89.236811 
L 185.833306 88.101428 
L 186.900714 86.656799 
L 188.323924 84.27366 
L 189.747134 81.417834 
L 191.526146 77.298434 
L 194.016764 70.844445 
L 198.642197 58.646267 
L 200.421209 54.538257 
L 201.844419 51.680392 
L 203.267629 49.275756 
L 204.690839 47.368114 
L 205.758247 46.276924 
L 206.825654 45.477799 
L 207.893062 44.964134 
L 208.96047 44.722918 
L 210.027877 44.735364 
L 211.095285 44.977774 
L 212.162692 45.42249 
L 213.585902 46.276913 
L 215.364915 47.655927 
L 215.364915 47.655927 
" clip-path="url(#p45d8c4662b)" style="fill: none; stroke: #000000; stroke-opacity: 0.5; stroke-width: 2; stroke-linecap: square"/>
   </g>
   <g id="line2d_15">
    <path d="M 37.81946 98.374786 
L 41.377485 98.795182 
L 43.5123 99.282391 
L 46.002918 100.094173 
L 49.205141 101.131241 
L 50.628351 101.361979 
L 51.695758 101.349869 
L 52.763166 101.127197 
L 53.830573 100.649495 
L 54.897981 99.876985 
L 55.965388 98.777056 
L 57.032796 97.326609 
L 58.100204 95.514107 
L 59.523414 92.539265 
L 60.946624 88.969699 
L 62.725636 83.815185 
L 65.572056 74.666971 
L 68.062674 66.855104 
L 69.485884 62.964596 
L 70.909094 59.766539 
L 71.976502 57.938481 
L 72.688107 57.029248 
L 73.399712 56.386268 
L 74.111317 56.021681 
L 74.822922 55.943941 
L 75.534527 56.157629 
L 76.246132 56.663375 
L 76.957737 57.457824 
L 77.669342 58.533731 
L 78.736749 60.650231 
L 79.804157 63.32244 
L 81.227367 67.631039 
L 83.00638 73.936459 
L 85.8528 85.121566 
L 88.69922 96.111174 
L 90.478232 102.226527 
L 91.901442 106.501334 
L 93.324652 110.152815 
L 94.747862 113.156417 
L 95.81527 114.989414 
L 96.882678 116.478601 
L 97.950085 117.64525 
L 99.017493 118.514511 
L 100.0849 119.113025 
L 101.152308 119.466856 
L 102.219715 119.599766 
L 103.287123 119.531869 
L 104.35453 119.278819 
L 105.77774 118.671538 
L 107.20095 117.767219 
L 108.624161 116.567481 
L 110.047371 115.066659 
L 111.470581 113.257111 
L 112.893791 111.134565 
L 114.672803 108.047758 
L 116.451816 104.509976 
L 118.586631 99.757374 
L 121.433051 92.817536 
L 130.683916 69.772303 
L 140.646387 45.966984 
L 149.897252 22.617127 
L 151.676265 19.061791 
L 153.099475 16.740189 
L 154.166882 15.366707 
L 155.23429 14.348907 
L 156.301697 13.718161 
L 157.013302 13.525571 
L 157.724907 13.522419 
L 158.436513 13.713186 
L 159.148118 14.100836 
L 159.859723 14.686753 
L 160.92713 15.936363 
L 161.994538 17.623278 
L 163.061945 19.731325 
L 164.485155 23.153882 
L 165.908365 27.201787 
L 167.687378 32.984906 
L 170.177995 41.994255 
L 175.159231 60.351688 
L 176.938243 66.096288 
L 178.361453 70.122258 
L 179.784663 73.551464 
L 181.207873 76.333667 
L 182.275281 77.985089 
L 183.342689 79.270025 
L 184.410096 80.206643 
L 185.477504 80.823707 
L 186.544911 81.159504 
L 187.612319 81.260205 
L 189.035529 81.119432 
L 191.170344 80.589845 
L 193.660961 80.0109 
L 195.084171 79.912005 
L 196.507382 80.075697 
L 197.930592 80.537323 
L 199.353802 81.296081 
L 200.777012 82.316359 
L 202.911827 84.186195 
L 206.469852 87.399813 
L 207.893062 88.414335 
L 209.316272 89.137148 
L 210.38368 89.449206 
L 211.451087 89.545568 
L 212.518495 89.420325 
L 213.585902 89.077782 
L 214.65331 88.532259 
L 215.364915 88.067128 
L 215.364915 88.067128 
" clip-path="url(#p45d8c4662b)" style="fill: none; stroke: #000000; stroke-opacity: 0.5; stroke-width: 2; stroke-linecap: square"/>
   </g>
   <g id="patch_3">
    <path d="M 28.942188 145.8 
L 28.942188 7.2 
" style="fill: none; stroke: #000000; stroke-width: 0.8; stroke-linejoin: miter; stroke-linecap: square"/>
   </g>
   <g id="patch_4">
    <path d="M 224.242188 145.8 
L 224.242188 7.2 
" style="fill: none; stroke: #000000; stroke-width: 0.8; stroke-linejoin: miter; stroke-linecap: square"/>
   </g>
   <g id="patch_5">
    <path d="M 28.942188 145.8 
L 224.242188 145.8 
" style="fill: none; stroke: #000000; stroke-width: 0.8; stroke-linejoin: miter; stroke-linecap: square"/>
   </g>
   <g id="patch_6">
    <path d="M 28.942188 7.2 
L 224.242188 7.2 
" style="fill: none; stroke: #000000; stroke-width: 0.8; stroke-linejoin: miter; stroke-linecap: square"/>
   </g>
  </g>
 </g>
 <defs>
  <clipPath id="p45d8c4662b">
   <rect x="28.942188" y="7.2" width="195.3" height="138.6"/>
  </clipPath>
 </defs>
</svg>
