<?xml version="1.0" encoding="UTF-8" standalone="no"?>
<!DOCTYPE svg PUBLIC "-//W3C//DTD SVG 1.0//EN" "http://www.w3.org/TR/2001/REC-SVG-20010904/DTD/svg10.dtd">
<!-- Generated by Microsoft Visio 11.0, SVG Export, v1.0 neon_example.svg Page-1 -->
<svg xmlns:ev="http://www.w3.org/2001/xml-events" xmlns:xlink="http://www.w3.org/1999/xlink" xmlns="http://www.w3.org/2000/svg" xmlns:v="http://schemas.microsoft.com/visio/2003/SVGExtensions/" width="454.06848"		height="252.88704" viewBox="0 0 340.551 189.665" xml:space="preserve" color-interpolation-filters="sRGB" class="st15">
	<v:documentProperties v:langID="1033" v:metric="true" v:viewMarkup="false"/>

	<style type="text/css">
	<![CDATA[
		.st1 {fill:#ffffff;stroke:none;stroke-linecap:round;stroke-linejoin:round;stroke-width:0.0169691}
		.st2 {stroke:#000000;stroke-linecap:butt;stroke-width:0.8}
		.st3 {fill:#ffffff;visibility:hidden}
		.st4 {fill:#000000;font-family:Arial,Helvetica,sans-serif;font-size:0.499992em}
		.st5 {stroke:#000000;stroke-linecap:butt;stroke-width:0.5}
		.st6 {fill:none;stroke:none;stroke-linecap:butt;stroke-width:0.5}
		.st7 {fill:#000000;font-family:Arial,Helvetica,sans-serif;font-size:0.666664em}
		.st8 {marker-end:url(#mrkr4-191);stroke:#000000;stroke-linecap:butt;stroke-width:1.5}
		.st9 {fill:#000000;fill-opacity:1;stroke:#000000;stroke-opacity:1;stroke-width:0.45454545454545}
		.st10 {marker-start:url(#mrkr4-197);stroke:#000000;stroke-linecap:butt;stroke-width:1.5}
		.st11 {stroke:#000000;stroke-linecap:butt;stroke-width:1.5}
		.st12 {fill:#ffffff;stroke:#000000;stroke-linecap:butt;stroke-width:0.5}
		.st13 {fill:#000000;font-family:Arial,Helvetica,sans-serif;font-size:1.00001em}
		.st14 {fill:#ffffff;stroke:none;stroke-linecap:butt;stroke-width:7.2}
		.st15 {fill:none;fill-rule:evenodd;font-size:12px;overflow:visible;stroke-linecap:square;stroke-miterlimit:3}
	]]>
	</style>

	<defs id="Markers">
		<g id="lend4">
			<path d="M 2 1 L 0 0 L 2 -1 L 2 1 " style="stroke:none"/>
		</g>
		<marker overflow="visible" id="mrkr4-191" class="st9" v:arrowType="4" v:arrowSize="1" v:setback="4.4" refX="-4.4" orient="auto"				markerUnits="strokeWidth">
			<use xlink:href="#lend4" transform="scale(-2.2,-2.2) "/>
		</marker>
		<marker overflow="visible" id="mrkr4-197" class="st9" v:arrowType="4" v:arrowSize="1" v:setback="4.16" refX="4.16" orient="auto"				markerUnits="strokeWidth">
			<use xlink:href="#lend4" transform="scale(2.2) "/>
		</marker>
	</defs>
	<g v:mID="0" v:index="1" v:groupContext="foregroundPage">
		<title>Page-1</title>
		<v:pageProperties v:drawingScale="0.0393701" v:pageScale="0.0393701" v:drawingUnits="24" v:shadowOffsetX="0"
				v:shadowOffsetY="0" v:shadowType="1" v:shadowScale="0"/>
		<v:layer v:name="Flowchart" v:index="0"/>
		<g id="group35-1" transform="translate(20.3425,-155.15)" v:mID="35" v:groupContext="group">
			<title>Sheet.35</title>
			<g id="shape67-2" v:mID="67" v:groupContext="shape" transform="translate(238.11,-2.84217E-014)">
				<title>Sheet.67</title>
				<rect x="0" y="169.823" width="34.0157" height="19.8425" class="st1"/>
			</g>
			<g id="shape71-4" v:mID="71" v:groupContext="shape" transform="translate(204.094,-2.84217E-014)">
				<title>Sheet.71</title>
				<rect x="0" y="169.823" width="34.0157" height="19.8425" class="st1"/>
			</g>
			<g id="shape153-6" v:mID="153" v:groupContext="shape" transform="translate(170.079,-2.84217E-014)">
				<title>Sheet.153</title>
				<rect x="0" y="169.823" width="34.0157" height="19.8425" class="st1"/>
			</g>
			<g id="shape154-8" v:mID="154" v:groupContext="shape" transform="translate(136.063,-2.84217E-014)">
				<title>Sheet.154</title>
				<rect x="0" y="169.823" width="34.0157" height="19.8425" class="st1"/>
			</g>
			<g id="shape155-10" v:mID="155" v:groupContext="shape" transform="translate(102.047,-2.84217E-014)">
				<title>Sheet.155</title>
				<rect x="0" y="169.823" width="34.0157" height="19.8425" class="st1"/>
			</g>
			<g id="shape156-12" v:mID="156" v:groupContext="shape" transform="translate(68.0315,-2.84217E-014)">
				<title>Sheet.156</title>
				<rect x="0" y="169.823" width="34.0157" height="19.8425" class="st1"/>
			</g>
			<g id="shape157-14" v:mID="157" v:groupContext="shape" transform="translate(34.0157,-2.84217E-014)">
				<title>Sheet.157</title>
				<rect x="0" y="169.823" width="34.0157" height="19.8425" class="st1"/>
			</g>
			<g id="shape158-16" v:mID="158" v:groupContext="shape">
				<title>Sheet.158</title>
				<rect x="0" y="169.823" width="34.0157" height="19.8425" class="st1"/>
			</g>
			<g id="shape159-18" v:mID="159" v:groupContext="shape" transform="translate(136.063,-2.84217E-014)">
				<title>Sheet.159</title>
				<path d="M0 169.82 L0 189.67" class="st2"/>
			</g>
			<g id="shape160-21" v:mID="160" v:groupContext="shape" transform="translate(204.094,-2.84217E-014)">
				<title>Sheet.160</title>
				<path d="M0 169.82 L0 189.67" class="st2"/>
			</g>
			<g id="shape161-24" v:mID="161" v:groupContext="shape">
				<title>Sheet.161</title>
				<rect x="0" y="169.823" width="272.126" height="19.8425" class="st3"/>
				<rect x="0" y="169.823" width="272.126" height="19.8425" class="st2"/>
			</g>
			<g id="shape162-27" v:mID="162" v:groupContext="shape" transform="translate(102.047,0)">
				<title>Sheet.162</title>
				<path d="M0 169.82 L0 189.67" class="st2"/>
			</g>
			<g id="shape163-30" v:mID="163" v:groupContext="shape" transform="translate(170.079,0)">
				<title>Sheet.163</title>
				<path d="M0 169.82 L0 189.67" class="st2"/>
			</g>
			<g id="shape164-33" v:mID="164" v:groupContext="shape" transform="translate(238.11,0)">
				<title>Sheet.164</title>
				<path d="M0 169.82 L0 189.67" class="st2"/>
			</g>
			<g id="shape165-36" v:mID="165" v:groupContext="shape" transform="translate(-2.39808E-014,-19.8425)">
				<title>Sheet.165</title>
				<desc>127</desc>
				<v:textBlock v:margins="rect(0,0,0,0)" v:tabSpace="42.5197"/>
				<v:textRect cx="5.66929" cy="185.413" width="11.34" height="8.50394"/>
				<text x="0.67" y="187.21" class="st4" v:langID="2057"><v:paragraph v:horizAlign="1"/><v:tabList/>127</text>			</g>
			<g id="shape166-38" v:mID="166" v:groupContext="shape" transform="translate(22.6772,-19.8425)">
				<title>Sheet.166</title>
				<desc>112</desc>
				<v:textBlock v:margins="rect(0,0,0,0)" v:tabSpace="42.5197"/>
				<v:textRect cx="5.66929" cy="185.413" width="11.34" height="8.50394"/>
				<text x="0" y="187.21" class="st4" v:langID="2057"><v:paragraph/><v:tabList/>112</text>			</g>
			<g id="shape167-40" v:mID="167" v:groupContext="shape" transform="translate(34.0157,-19.8425)">
				<title>Sheet.167</title>
				<desc>111</desc>
				<v:textBlock v:margins="rect(0,0,0,0)" v:tabSpace="42.5197"/>
				<v:textRect cx="5.66929" cy="185.413" width="11.34" height="8.50394"/>
				<text x="0.67" y="187.21" class="st4" v:langID="2057"><v:paragraph v:horizAlign="1"/><v:tabList/>111</text>			</g>
			<g id="shape168-42" v:mID="168" v:groupContext="shape" transform="translate(59.5276,-19.8425)">
				<title>Sheet.168</title>
				<desc>96</desc>
				<v:textBlock v:margins="rect(0,0,0,0)" v:tabSpace="42.5197"/>
				<v:textRect cx="4.25197" cy="185.413" width="8.51" height="8.50394"/>
				<text x="0" y="187.21" class="st4" v:langID="2057"><v:paragraph/><v:tabList/>96</text>			</g>
			<g id="shape169-44" v:mID="169" v:groupContext="shape" transform="translate(68.0315,-19.8425)">
				<title>Sheet.169</title>
				<desc>95</desc>
				<v:textBlock v:margins="rect(0,0,0,0)" v:tabSpace="42.5197"/>
				<v:textRect cx="4.25197" cy="185.413" width="8.51" height="8.50394"/>
				<text x="0.91" y="187.21" class="st4" v:langID="2057"><v:paragraph v:horizAlign="1"/><v:tabList/>95</text>			</g>
			<g id="shape170-46" v:mID="170" v:groupContext="shape" transform="translate(93.5433,-19.8425)">
				<title>Sheet.170</title>
				<desc>80</desc>
				<v:textBlock v:margins="rect(0,0,0,0)" v:tabSpace="42.5197"/>
				<v:textRect cx="3.54331" cy="185.413" width="7.09" height="8.50394"/>
				<text x="0.21" y="187.21" class="st4" v:langID="2057"><v:paragraph v:horizAlign="1"/><v:tabList/>80</text>			</g>
			<g id="shape171-48" v:mID="171" v:groupContext="shape" transform="translate(102.047,-19.8425)">
				<title>Sheet.171</title>
				<desc>79</desc>
				<v:textBlock v:margins="rect(0,0,0,0)" v:tabSpace="42.5197"/>
				<v:textRect cx="4.25197" cy="185.413" width="8.51" height="8.50394"/>
				<text x="0.91" y="187.21" class="st4" v:langID="2057"><v:paragraph v:horizAlign="1"/><v:tabList/>79</text>			</g>
			<g id="shape172-50" v:mID="172" v:groupContext="shape" transform="translate(127.559,-19.8425)">
				<title>Sheet.172</title>
				<desc>64</desc>
				<v:textBlock v:margins="rect(0,0,0,0)" v:tabSpace="42.5197"/>
				<v:textRect cx="4.25197" cy="185.413" width="8.51" height="8.50394"/>
				<text x="0.91" y="187.21" class="st4" v:langID="2057"><v:paragraph v:horizAlign="1"/><v:tabList/>64</text>			</g>
			<g id="shape173-52" v:mID="173" v:groupContext="shape" transform="translate(136.063,-19.8425)">
				<title>Sheet.173</title>
				<desc>63</desc>
				<v:textBlock v:margins="rect(0,0,0,0)" v:tabSpace="42.5197"/>
				<v:textRect cx="4.25197" cy="185.413" width="8.51" height="8.50394"/>
				<text x="0.91" y="187.21" class="st4" v:langID="2057"><v:paragraph v:horizAlign="1"/><v:tabList/>63</text>			</g>
			<g id="shape174-54" v:mID="174" v:groupContext="shape" transform="translate(161.575,-19.8425)">
				<title>Sheet.174</title>
				<desc>48</desc>
				<v:textBlock v:margins="rect(0,0,0,0)" v:tabSpace="42.5197"/>
				<v:textRect cx="4.25197" cy="185.413" width="8.51" height="8.50394"/>
				<text x="0.91" y="187.21" class="st4" v:langID="2057"><v:paragraph v:horizAlign="1"/><v:tabList/>48</text>			</g>
			<g id="shape175-56" v:mID="175" v:groupContext="shape" transform="translate(170.079,-19.8425)">
				<title>Sheet.175</title>
				<desc>47</desc>
				<v:textBlock v:margins="rect(0,0,0,0)" v:tabSpace="42.5197"/>
				<v:textRect cx="4.25197" cy="185.413" width="8.51" height="8.50394"/>
				<text x="0.91" y="187.21" class="st4" v:langID="2057"><v:paragraph v:horizAlign="1"/><v:tabList/>47</text>			</g>
			<g id="shape176-58" v:mID="176" v:groupContext="shape" transform="translate(195.591,-19.8425)">
				<title>Sheet.176</title>
				<desc>32</desc>
				<v:textBlock v:margins="rect(0,0,0,0)" v:tabSpace="42.5197"/>
				<v:textRect cx="4.25197" cy="185.413" width="8.51" height="8.50394"/>
				<text x="0.91" y="187.21" class="st4" v:langID="2057"><v:paragraph v:horizAlign="1"/><v:tabList/>32</text>			</g>
			<g id="shape177-60" v:mID="177" v:groupContext="shape" transform="translate(204.094,-19.8425)">
				<title>Sheet.177</title>
				<desc>31</desc>
				<v:textBlock v:margins="rect(0,0,0,0)" v:tabSpace="42.5197"/>
				<v:textRect cx="4.25197" cy="185.413" width="8.51" height="8.50394"/>
				<text x="0.91" y="187.21" class="st4" v:langID="2057"><v:paragraph v:horizAlign="1"/><v:tabList/>31</text>			</g>
			<g id="shape178-62" v:mID="178" v:groupContext="shape" transform="translate(229.606,-19.8425)">
				<title>Sheet.178</title>
				<desc>16</desc>
				<v:textBlock v:margins="rect(0,0,0,0)" v:tabSpace="42.5197"/>
				<v:textRect cx="4.25197" cy="185.413" width="8.51" height="8.50394"/>
				<text x="0.91" y="187.21" class="st4" v:langID="2057"><v:paragraph v:horizAlign="1"/><v:tabList/>16</text>			</g>
			<g id="shape179-64" v:mID="179" v:groupContext="shape" transform="translate(238.11,-19.8425)">
				<title>Sheet.179</title>
				<desc>15</desc>
				<v:textBlock v:margins="rect(0,0,0,0)" v:tabSpace="42.5197"/>
				<v:textRect cx="4.25197" cy="185.413" width="8.51" height="8.50394"/>
				<text x="0.91" y="187.21" class="st4" v:langID="2057"><v:paragraph v:horizAlign="1"/><v:tabList/>15</text>			</g>
			<g id="shape180-66" v:mID="180" v:groupContext="shape" transform="translate(263.622,-19.8425)">
				<title>Sheet.180</title>
				<desc>0</desc>
				<v:textBlock v:margins="rect(0,0,0,0)" v:tabSpace="42.5197"/>
				<v:textRect cx="4.25197" cy="185.413" width="8.51" height="8.50394"/>
				<text x="2.58" y="187.21" class="st4" v:langID="1033"><v:paragraph v:horizAlign="1"/><v:tabList/>0</text>			</g>
		</g>
		<g id="group36-68" transform="translate(20.3425,-24.7559)" v:mID="36" v:groupContext="group">
			<title>Sheet.36</title>
			<g id="shape59-69" v:mID="59" v:groupContext="shape" transform="translate(238.11,-2.84217E-014)">
				<title>Sheet.59</title>
				<rect x="0" y="169.823" width="34.0157" height="19.8425" class="st1"/>
			</g>
			<g id="shape60-71" v:mID="60" v:groupContext="shape" transform="translate(204.094,-2.84217E-014)">
				<title>Sheet.60</title>
				<rect x="0" y="169.823" width="34.0157" height="19.8425" class="st1"/>
			</g>
			<g id="shape61-73" v:mID="61" v:groupContext="shape" transform="translate(170.079,-2.84217E-014)">
				<title>Sheet.61</title>
				<rect x="0" y="169.823" width="34.0157" height="19.8425" class="st1"/>
			</g>
			<g id="shape62-75" v:mID="62" v:groupContext="shape" transform="translate(136.063,-2.84217E-014)">
				<title>Sheet.62</title>
				<rect x="0" y="169.823" width="34.0157" height="19.8425" class="st1"/>
			</g>
			<g id="shape63-77" v:mID="63" v:groupContext="shape" transform="translate(102.047,-2.84217E-014)">
				<title>Sheet.63</title>
				<rect x="0" y="169.823" width="34.0157" height="19.8425" class="st1"/>
			</g>
			<g id="shape64-79" v:mID="64" v:groupContext="shape" transform="translate(68.0315,-2.84217E-014)">
				<title>Sheet.64</title>
				<rect x="0" y="169.823" width="34.0157" height="19.8425" class="st1"/>
			</g>
			<g id="shape65-81" v:mID="65" v:groupContext="shape" transform="translate(34.0157,-2.84217E-014)">
				<title>Sheet.65</title>
				<rect x="0" y="169.823" width="34.0157" height="19.8425" class="st1"/>
			</g>
			<g id="shape66-83" v:mID="66" v:groupContext="shape">
				<title>Sheet.66</title>
				<rect x="0" y="169.823" width="34.0157" height="19.8425" class="st1"/>
			</g>
			<g id="shape68-85" v:mID="68" v:groupContext="shape" transform="translate(136.063,-2.84217E-014)">
				<title>Sheet.68</title>
				<path d="M0 169.82 L0 189.67" class="st2"/>
			</g>
			<g id="shape69-88" v:mID="69" v:groupContext="shape" transform="translate(204.094,-2.84217E-014)">
				<title>Sheet.69</title>
				<path d="M0 169.82 L0 189.67" class="st2"/>
			</g>
			<g id="shape70-91" v:mID="70" v:groupContext="shape">
				<title>Sheet.70</title>
				<rect x="0" y="169.823" width="272.126" height="19.8425" class="st3"/>
				<rect x="0" y="169.823" width="272.126" height="19.8425" class="st2"/>
			</g>
			<g id="shape72-94" v:mID="72" v:groupContext="shape" transform="translate(102.047,0)">
				<title>Sheet.72</title>
				<path d="M0 169.82 L0 189.67" class="st2"/>
			</g>
			<g id="shape73-97" v:mID="73" v:groupContext="shape" transform="translate(170.079,0)">
				<title>Sheet.73</title>
				<path d="M0 169.82 L0 189.67" class="st2"/>
			</g>
			<g id="shape74-100" v:mID="74" v:groupContext="shape" transform="translate(238.11,0)">
				<title>Sheet.74</title>
				<path d="M0 169.82 L0 189.67" class="st2"/>
			</g>
			<g id="shape75-103" v:mID="75" v:groupContext="shape" transform="translate(-2.39808E-014,-19.8425)">
				<title>Sheet.75</title>
				<desc>127</desc>
				<v:textBlock v:margins="rect(0,0,0,0)" v:tabSpace="42.5197"/>
				<v:textRect cx="5.66929" cy="185.413" width="11.34" height="8.50394"/>
				<text x="0.67" y="187.21" class="st4" v:langID="2057"><v:paragraph v:horizAlign="1"/><v:tabList/>127</text>			</g>
			<g id="shape76-105" v:mID="76" v:groupContext="shape" transform="translate(22.6772,-19.8425)">
				<title>Sheet.76</title>
				<desc>112</desc>
				<v:textBlock v:margins="rect(0,0,0,0)" v:tabSpace="42.5197"/>
				<v:textRect cx="5.66929" cy="185.413" width="11.34" height="8.50394"/>
				<text x="0" y="187.21" class="st4" v:langID="2057"><v:paragraph/><v:tabList/>112</text>			</g>
			<g id="shape77-107" v:mID="77" v:groupContext="shape" transform="translate(34.0157,-19.8425)">
				<title>Sheet.77</title>
				<desc>111</desc>
				<v:textBlock v:margins="rect(0,0,0,0)" v:tabSpace="42.5197"/>
				<v:textRect cx="5.66929" cy="185.413" width="11.34" height="8.50394"/>
				<text x="0.67" y="187.21" class="st4" v:langID="2057"><v:paragraph v:horizAlign="1"/><v:tabList/>111</text>			</g>
			<g id="shape78-109" v:mID="78" v:groupContext="shape" transform="translate(59.5276,-19.8425)">
				<title>Sheet.78</title>
				<desc>96</desc>
				<v:textBlock v:margins="rect(0,0,0,0)" v:tabSpace="42.5197"/>
				<v:textRect cx="4.25197" cy="185.413" width="8.51" height="8.50394"/>
				<text x="0" y="187.21" class="st4" v:langID="2057"><v:paragraph/><v:tabList/>96</text>			</g>
			<g id="shape79-111" v:mID="79" v:groupContext="shape" transform="translate(68.0315,-19.8425)">
				<title>Sheet.79</title>
				<desc>95</desc>
				<v:textBlock v:margins="rect(0,0,0,0)" v:tabSpace="42.5197"/>
				<v:textRect cx="4.25197" cy="185.413" width="8.51" height="8.50394"/>
				<text x="0.91" y="187.21" class="st4" v:langID="2057"><v:paragraph v:horizAlign="1"/><v:tabList/>95</text>			</g>
			<g id="shape80-113" v:mID="80" v:groupContext="shape" transform="translate(93.5433,-19.8425)">
				<title>Sheet.80</title>
				<desc>80</desc>
				<v:textBlock v:margins="rect(0,0,0,0)" v:tabSpace="42.5197"/>
				<v:textRect cx="3.54331" cy="185.413" width="7.09" height="8.50394"/>
				<text x="0.21" y="187.21" class="st4" v:langID="2057"><v:paragraph v:horizAlign="1"/><v:tabList/>80</text>			</g>
			<g id="shape81-115" v:mID="81" v:groupContext="shape" transform="translate(102.047,-19.8425)">
				<title>Sheet.81</title>
				<desc>79</desc>
				<v:textBlock v:margins="rect(0,0,0,0)" v:tabSpace="42.5197"/>
				<v:textRect cx="4.25197" cy="185.413" width="8.51" height="8.50394"/>
				<text x="0.91" y="187.21" class="st4" v:langID="2057"><v:paragraph v:horizAlign="1"/><v:tabList/>79</text>			</g>
			<g id="shape82-117" v:mID="82" v:groupContext="shape" transform="translate(127.559,-19.8425)">
				<title>Sheet.82</title>
				<desc>64</desc>
				<v:textBlock v:margins="rect(0,0,0,0)" v:tabSpace="42.5197"/>
				<v:textRect cx="4.25197" cy="185.413" width="8.51" height="8.50394"/>
				<text x="0.91" y="187.21" class="st4" v:langID="2057"><v:paragraph v:horizAlign="1"/><v:tabList/>64</text>			</g>
			<g id="shape83-119" v:mID="83" v:groupContext="shape" transform="translate(136.063,-19.8425)">
				<title>Sheet.83</title>
				<desc>63</desc>
				<v:textBlock v:margins="rect(0,0,0,0)" v:tabSpace="42.5197"/>
				<v:textRect cx="4.25197" cy="185.413" width="8.51" height="8.50394"/>
				<text x="0.91" y="187.21" class="st4" v:langID="2057"><v:paragraph v:horizAlign="1"/><v:tabList/>63</text>			</g>
			<g id="shape84-121" v:mID="84" v:groupContext="shape" transform="translate(161.575,-19.8425)">
				<title>Sheet.84</title>
				<desc>48</desc>
				<v:textBlock v:margins="rect(0,0,0,0)" v:tabSpace="42.5197"/>
				<v:textRect cx="4.25197" cy="185.413" width="8.51" height="8.50394"/>
				<text x="0.91" y="187.21" class="st4" v:langID="2057"><v:paragraph v:horizAlign="1"/><v:tabList/>48</text>			</g>
			<g id="shape85-123" v:mID="85" v:groupContext="shape" transform="translate(170.079,-19.8425)">
				<title>Sheet.85</title>
				<desc>47</desc>
				<v:textBlock v:margins="rect(0,0,0,0)" v:tabSpace="42.5197"/>
				<v:textRect cx="4.25197" cy="185.413" width="8.51" height="8.50394"/>
				<text x="0.91" y="187.21" class="st4" v:langID="2057"><v:paragraph v:horizAlign="1"/><v:tabList/>47</text>			</g>
			<g id="shape86-125" v:mID="86" v:groupContext="shape" transform="translate(195.591,-19.8425)">
				<title>Sheet.86</title>
				<desc>32</desc>
				<v:textBlock v:margins="rect(0,0,0,0)" v:tabSpace="42.5197"/>
				<v:textRect cx="4.25197" cy="185.413" width="8.51" height="8.50394"/>
				<text x="0.91" y="187.21" class="st4" v:langID="2057"><v:paragraph v:horizAlign="1"/><v:tabList/>32</text>			</g>
			<g id="shape87-127" v:mID="87" v:groupContext="shape" transform="translate(204.094,-19.8425)">
				<title>Sheet.87</title>
				<desc>31</desc>
				<v:textBlock v:margins="rect(0,0,0,0)" v:tabSpace="42.5197"/>
				<v:textRect cx="4.25197" cy="185.413" width="8.51" height="8.50394"/>
				<text x="0.91" y="187.21" class="st4" v:langID="2057"><v:paragraph v:horizAlign="1"/><v:tabList/>31</text>			</g>
			<g id="shape88-129" v:mID="88" v:groupContext="shape" transform="translate(229.606,-19.8425)">
				<title>Sheet.88</title>
				<desc>16</desc>
				<v:textBlock v:margins="rect(0,0,0,0)" v:tabSpace="42.5197"/>
				<v:textRect cx="4.25197" cy="185.413" width="8.51" height="8.50394"/>
				<text x="0.91" y="187.21" class="st4" v:langID="2057"><v:paragraph v:horizAlign="1"/><v:tabList/>16</text>			</g>
			<g id="shape89-131" v:mID="89" v:groupContext="shape" transform="translate(238.11,-19.8425)">
				<title>Sheet.89</title>
				<desc>15</desc>
				<v:textBlock v:margins="rect(0,0,0,0)" v:tabSpace="42.5197"/>
				<v:textRect cx="4.25197" cy="185.413" width="8.51" height="8.50394"/>
				<text x="0.91" y="187.21" class="st4" v:langID="2057"><v:paragraph v:horizAlign="1"/><v:tabList/>15</text>			</g>
			<g id="shape90-133" v:mID="90" v:groupContext="shape" transform="translate(263.622,-19.8425)">
				<title>Sheet.90</title>
				<desc>0</desc>
				<v:textBlock v:margins="rect(0,0,0,0)" v:tabSpace="42.5197"/>
				<v:textRect cx="4.25197" cy="185.413" width="8.51" height="8.50394"/>
				<text x="2.58" y="187.21" class="st4" v:langID="1033"><v:paragraph v:horizAlign="1"/><v:tabList/>0</text>			</g>
		</g>
		<g id="group6-135" transform="translate(20.3425,-112.63)" v:mID="6" v:groupContext="group">
			<title>Sheet.6</title>
			<g id="shape7-136" v:mID="7" v:groupContext="shape" transform="translate(238.11,-2.84217E-014)">
				<title>Sheet.7</title>
				<rect x="0" y="169.823" width="34.0157" height="19.8425" class="st1"/>
			</g>
			<g id="shape8-138" v:mID="8" v:groupContext="shape" transform="translate(204.094,-5.68434E-014)">
				<title>Sheet.8</title>
				<rect x="0" y="169.823" width="34.0157" height="19.8425" class="st1"/>
			</g>
			<g id="shape9-140" v:mID="9" v:groupContext="shape" transform="translate(170.079,-5.68434E-014)">
				<title>Sheet.9</title>
				<rect x="0" y="169.823" width="34.0157" height="19.8425" class="st1"/>
			</g>
			<g id="shape10-142" v:mID="10" v:groupContext="shape" transform="translate(136.063,-2.84217E-014)">
				<title>Sheet.10</title>
				<rect x="0" y="169.823" width="34.0157" height="19.8425" class="st1"/>
			</g>
			<g id="shape11-144" v:mID="11" v:groupContext="shape" transform="translate(102.047,-2.84217E-014)">
				<title>Sheet.11</title>
				<rect x="0" y="169.823" width="34.0157" height="19.8425" class="st1"/>
			</g>
			<g id="shape12-146" v:mID="12" v:groupContext="shape" transform="translate(68.0315,-5.68434E-014)">
				<title>Sheet.12</title>
				<rect x="0" y="169.823" width="34.0157" height="19.8425" class="st1"/>
			</g>
			<g id="shape13-148" v:mID="13" v:groupContext="shape" transform="translate(34.0157,-2.84217E-014)">
				<title>Sheet.13</title>
				<rect x="0" y="169.823" width="34.0157" height="19.8425" class="st1"/>
			</g>
			<g id="shape14-150" v:mID="14" v:groupContext="shape">
				<title>Sheet.14</title>
				<rect x="0" y="169.823" width="34.0157" height="19.8425" class="st1"/>
			</g>
			<g id="shape16-152" v:mID="16" v:groupContext="shape" transform="translate(136.063,-2.84217E-014)">
				<title>Sheet.16</title>
				<path d="M0 169.82 L0 189.67" class="st2"/>
			</g>
			<g id="shape17-155" v:mID="17" v:groupContext="shape" transform="translate(204.094,-2.84217E-014)">
				<title>Sheet.17</title>
				<path d="M0 169.82 L0 189.67" class="st2"/>
			</g>
			<g id="shape18-158" v:mID="18" v:groupContext="shape">
				<title>Sheet.18</title>
				<rect x="0" y="169.823" width="272.126" height="19.8425" class="st3"/>
				<rect x="0" y="169.823" width="272.126" height="19.8425" class="st2"/>
			</g>
			<g id="shape22-161" v:mID="22" v:groupContext="shape" transform="translate(102.047,0)">
				<title>Sheet.22</title>
				<path d="M0 169.82 L0 189.67" class="st2"/>
			</g>
			<g id="shape23-164" v:mID="23" v:groupContext="shape" transform="translate(170.079,0)">
				<title>Sheet.23</title>
				<path d="M0 169.82 L0 189.67" class="st2"/>
			</g>
			<g id="shape24-167" v:mID="24" v:groupContext="shape" transform="translate(238.11,0)">
				<title>Sheet.24</title>
				<path d="M0 169.82 L0 189.67" class="st2"/>
			</g>
		</g>
		<g id="shape34-170" v:mID="34" v:groupContext="shape" transform="translate(-135.913,164.909) rotate(-90)">
			<title>Signal (3)</title>
			<path d="M0 189.67 L164.41 189.67" class="st5"/>
		</g>
		<g id="shape56-173" v:mID="56" v:groupContext="shape" transform="translate(-101.898,164.909) rotate(-90)">
			<title>Signal (3).56</title>
			<path d="M0 189.67 L164.41 189.67" class="st5"/>
		</g>
		<g id="shape5-176" v:mID="5" v:groupContext="shape" transform="translate(0.5,-155.15)">
			<title>Sheet.5</title>
			<desc>Q2</desc>
			<v:textBlock v:margins="rect(1,1,1,1)" v:tabSpace="42.5197"/>
			<v:textRect cx="9.92126" cy="179.744" width="19.85" height="19.8425"/>
			<rect x="0" y="169.823" width="19.8425" height="19.8425" class="st6"/>
			<text x="4.59" y="182.14" class="st7" v:langID="2057"><v:paragraph v:horizAlign="1"/><v:tabList/>Q2</text>		</g>
		<g id="shape33-179" v:mID="33" v:groupContext="shape" transform="translate(0.5,-112.63)">
			<title>Sheet.33</title>
			<desc>Q1</desc>
			<v:textBlock v:margins="rect(1,1,1,1)" v:tabSpace="42.5197"/>
			<v:textRect cx="9.92126" cy="179.744" width="19.85" height="19.8425"/>
			<rect x="0" y="169.823" width="19.8425" height="19.8425" class="st6"/>
			<text x="4.59" y="182.14" class="st7" v:langID="2057"><v:paragraph v:horizAlign="1"/><v:tabList/>Q1</text>		</g>
		<g id="shape57-182" v:mID="57" v:groupContext="shape" transform="translate(0.5,-24.7559)">
			<title>Sheet.57</title>
			<desc>Q0</desc>
			<v:textBlock v:margins="rect(1,1,1,1)" v:tabSpace="42.5197"/>
			<v:textRect cx="9.92126" cy="179.744" width="19.85" height="19.8425"/>
			<rect x="0" y="169.823" width="19.8425" height="19.8425" class="st6"/>
			<text x="4.59" y="182.14" class="st7" v:langID="2057"><v:paragraph v:horizAlign="1"/><v:tabList/>Q0</text>		</g>
		<g id="group4-185" transform="translate(23.1772,-44.5984)" v:mID="4" v:groupContext="group">
			<title>Sheet.4</title>
			<g id="shape19-186" v:mID="19" v:groupContext="shape" transform="translate(134.114,1.69343) rotate(45)">
				<title>Bus (1)</title>
				<path d="M0 189.67 L6.85 189.67" class="st8"/>
			</g>
			<g id="shape20-192" v:mID="20" v:groupContext="shape" transform="translate(-115.275,11.2015) rotate(-45)">
				<title>Bus (3)</title>
				<path d="M6.24 189.67 L6.6 189.67 L13.45 189.67" class="st10"/>
			</g>
			<g id="shape1-198" v:mID="1" v:groupContext="shape" transform="translate(189.665,121.634) rotate(90)">
				<title>Bus (0)</title>
				<path d="M0 189.67 L14.17 189.67" class="st11"/>
			</g>
			<g id="shape2-201" v:mID="2" v:groupContext="shape" transform="translate(218.012,79.1142) rotate(90)">
				<title>Bus (0).2</title>
				<path d="M0 189.67 L56.69 189.67" class="st11"/>
			</g>
			<g id="shape3-204" v:mID="3" v:groupContext="shape" v:layerMember="0" transform="translate(2.83465,-22.6772)">
				<title>On-page ref</title>
				<v:custProps>
					<v:cp v:nameU="Cost" v:lbl="Cost" v:prompt="Enter the cost associated with this process." v:type="7"
							v:format="@" v:langID="2057"/>
					<v:cp v:nameU="Duration" v:lbl="Duration" v:prompt="Enter the duration of this step." v:type="2"
							v:langID="2057"/>
					<v:cp v:nameU="Resources" v:lbl="Resources"
							v:prompt="Enter the number of people required to complete this task." v:langID="2057"/>
				</v:custProps>
				<v:textBlock v:margins="rect(1,1,1,1)" v:tabSpace="42.5197"/>
				<path d="M0 178.33 A11.3386 11.3386 0 1 1 22.68 178.33 A11.3386 11.3386 0 0 1 0 178.33 Z" class="st12"/>
			</g>
			<g id="shape44-206" v:mID="44" v:groupContext="shape" transform="translate(-175.492,189.665) rotate(-90)">
				<title>Bus (3).44</title>
				<path d="M6.24 189.67 L6.6 189.67 L22.68 189.67" class="st10"/>
			</g>
			<g id="shape29-211" v:mID="29" v:groupContext="shape" transform="translate(2.83465,-22.6772)">
				<title>Sheet.29</title>
				<desc>+</desc>
				<v:textBlock v:margins="rect(1,1,0,1)" v:tabSpace="42.5197"/>
				<v:textRect cx="11.3386" cy="178.327" width="22.68" height="22.6772"/>
				<rect x="0" y="166.988" width="22.6772" height="22.6772" class="st6"/>
				<text x="7.85" y="182.43" class="st13" v:langID="2057"><v:paragraph v:horizAlign="1"/><v:tabList/>+</text>			</g>
		</g>
		<g id="group47-214" transform="translate(57.1929,-44.5984)" v:mID="47" v:groupContext="group">
			<title>Sheet.47</title>
			<g id="shape48-215" v:mID="48" v:groupContext="shape" transform="translate(134.114,1.69343) rotate(45)">
				<title>Bus (1)</title>
				<path d="M0 189.67 L6.85 189.67" class="st8"/>
			</g>
			<g id="shape49-220" v:mID="49" v:groupContext="shape" transform="translate(-115.275,11.2015) rotate(-45)">
				<title>Bus (3)</title>
				<path d="M6.24 189.67 L6.6 189.67 L13.45 189.67" class="st10"/>
			</g>
			<g id="shape50-225" v:mID="50" v:groupContext="shape" transform="translate(189.665,121.634) rotate(90)">
				<title>Bus (0)</title>
				<path d="M0 189.67 L14.17 189.67" class="st11"/>
			</g>
			<g id="shape51-228" v:mID="51" v:groupContext="shape" transform="translate(218.012,79.1142) rotate(90)">
				<title>Bus (0).2</title>
				<path d="M0 189.67 L56.69 189.67" class="st11"/>
			</g>
			<g id="shape52-231" v:mID="52" v:groupContext="shape" v:layerMember="0" transform="translate(2.83465,-22.6772)">
				<title>On-page ref</title>
				<v:custProps>
					<v:cp v:nameU="Cost" v:lbl="Cost" v:prompt="Enter the cost associated with this process." v:type="7"
							v:format="@" v:langID="2057"/>
					<v:cp v:nameU="Duration" v:lbl="Duration" v:prompt="Enter the duration of this step." v:type="2"
							v:langID="2057"/>
					<v:cp v:nameU="Resources" v:lbl="Resources"
							v:prompt="Enter the number of people required to complete this task." v:langID="2057"/>
				</v:custProps>
				<v:textBlock v:margins="rect(1,1,1,1)" v:tabSpace="42.5197"/>
				<path d="M0 178.33 A11.3386 11.3386 0 1 1 22.68 178.33 A11.3386 11.3386 0 0 1 0 178.33 Z" class="st12"/>
			</g>
			<g id="shape53-233" v:mID="53" v:groupContext="shape" transform="translate(-175.492,189.665) rotate(-90)">
				<title>Bus (3).44</title>
				<path d="M6.24 189.67 L6.6 189.67 L22.68 189.67" class="st10"/>
			</g>
			<g id="shape54-238" v:mID="54" v:groupContext="shape" transform="translate(2.83465,-22.6772)">
				<title>Sheet.54</title>
				<desc>+</desc>
				<v:textBlock v:margins="rect(1,1,0,1)" v:tabSpace="42.5197"/>
				<v:textRect cx="11.3386" cy="178.327" width="22.68" height="22.6772"/>
				<rect x="0" y="166.988" width="22.6772" height="22.6772" class="st6"/>
				<text x="7.85" y="182.43" class="st13" v:langID="2057"><v:paragraph v:horizAlign="1"/><v:tabList/>+</text>			</g>
		</g>
		<g id="group55-241" transform="translate(91.2087,-44.5984)" v:mID="55" v:groupContext="group">
			<title>Sheet.55</title>
			<g id="shape91-242" v:mID="91" v:groupContext="shape" transform="translate(134.114,1.69343) rotate(45)">
				<title>Bus (1)</title>
				<path d="M0 189.67 L6.85 189.67" class="st8"/>
			</g>
			<g id="shape92-247" v:mID="92" v:groupContext="shape" transform="translate(-115.275,11.2015) rotate(-45)">
				<title>Bus (3)</title>
				<path d="M6.24 189.67 L6.6 189.67 L13.45 189.67" class="st10"/>
			</g>
			<g id="shape93-252" v:mID="93" v:groupContext="shape" transform="translate(189.665,121.634) rotate(90)">
				<title>Bus (0)</title>
				<path d="M0 189.67 L14.17 189.67" class="st11"/>
			</g>
			<g id="shape94-255" v:mID="94" v:groupContext="shape" transform="translate(218.012,79.1142) rotate(90)">
				<title>Bus (0).2</title>
				<path d="M0 189.67 L56.69 189.67" class="st11"/>
			</g>
			<g id="shape95-258" v:mID="95" v:groupContext="shape" v:layerMember="0" transform="translate(2.83465,-22.6772)">
				<title>On-page ref</title>
				<v:custProps>
					<v:cp v:nameU="Cost" v:lbl="Cost" v:prompt="Enter the cost associated with this process." v:type="7"
							v:format="@" v:langID="2057"/>
					<v:cp v:nameU="Duration" v:lbl="Duration" v:prompt="Enter the duration of this step." v:type="2"
							v:langID="2057"/>
					<v:cp v:nameU="Resources" v:lbl="Resources"
							v:prompt="Enter the number of people required to complete this task." v:langID="2057"/>
				</v:custProps>
				<v:textBlock v:margins="rect(1,1,1,1)" v:tabSpace="42.5197"/>
				<path d="M0 178.33 A11.3386 11.3386 0 1 1 22.68 178.33 A11.3386 11.3386 0 0 1 0 178.33 Z" class="st12"/>
			</g>
			<g id="shape96-260" v:mID="96" v:groupContext="shape" transform="translate(-175.492,189.665) rotate(-90)">
				<title>Bus (3).44</title>
				<path d="M6.24 189.67 L6.6 189.67 L22.68 189.67" class="st10"/>
			</g>
			<g id="shape97-265" v:mID="97" v:groupContext="shape" transform="translate(2.83465,-22.6772)">
				<title>Sheet.97</title>
				<desc>+</desc>
				<v:textBlock v:margins="rect(1,1,0,1)" v:tabSpace="42.5197"/>
				<v:textRect cx="11.3386" cy="178.327" width="22.68" height="22.6772"/>
				<rect x="0" y="166.988" width="22.6772" height="22.6772" class="st6"/>
				<text x="7.85" y="182.43" class="st13" v:langID="2057"><v:paragraph v:horizAlign="1"/><v:tabList/>+</text>			</g>
		</g>
		<g id="group98-268" transform="translate(125.224,-44.5984)" v:mID="98" v:groupContext="group">
			<title>Sheet.98</title>
			<g id="shape99-269" v:mID="99" v:groupContext="shape" transform="translate(134.114,1.69343) rotate(45)">
				<title>Bus (1)</title>
				<path d="M0 189.67 L6.85 189.67" class="st8"/>
			</g>
			<g id="shape100-274" v:mID="100" v:groupContext="shape" transform="translate(-115.275,11.2015) rotate(-45)">
				<title>Bus (3)</title>
				<path d="M6.24 189.67 L6.6 189.67 L13.45 189.67" class="st10"/>
			</g>
			<g id="shape101-279" v:mID="101" v:groupContext="shape" transform="translate(189.665,121.634) rotate(90)">
				<title>Bus (0)</title>
				<path d="M0 189.67 L14.17 189.67" class="st11"/>
			</g>
			<g id="shape102-282" v:mID="102" v:groupContext="shape" transform="translate(218.012,79.1142) rotate(90)">
				<title>Bus (0).2</title>
				<path d="M0 189.67 L56.69 189.67" class="st11"/>
			</g>
			<g id="shape103-285" v:mID="103" v:groupContext="shape" v:layerMember="0" transform="translate(2.83465,-22.6772)">
				<title>On-page ref</title>
				<v:custProps>
					<v:cp v:nameU="Cost" v:lbl="Cost" v:prompt="Enter the cost associated with this process." v:type="7"
							v:format="@" v:langID="2057"/>
					<v:cp v:nameU="Duration" v:lbl="Duration" v:prompt="Enter the duration of this step." v:type="2"
							v:langID="2057"/>
					<v:cp v:nameU="Resources" v:lbl="Resources"
							v:prompt="Enter the number of people required to complete this task." v:langID="2057"/>
				</v:custProps>
				<v:textBlock v:margins="rect(1,1,1,1)" v:tabSpace="42.5197"/>
				<path d="M0 178.33 A11.3386 11.3386 0 1 1 22.68 178.33 A11.3386 11.3386 0 0 1 0 178.33 Z" class="st12"/>
			</g>
			<g id="shape104-287" v:mID="104" v:groupContext="shape" transform="translate(-175.492,189.665) rotate(-90)">
				<title>Bus (3).44</title>
				<path d="M6.24 189.67 L6.6 189.67 L22.68 189.67" class="st10"/>
			</g>
			<g id="shape105-292" v:mID="105" v:groupContext="shape" transform="translate(2.83465,-22.6772)">
				<title>Sheet.105</title>
				<desc>+</desc>
				<v:textBlock v:margins="rect(1,1,0,1)" v:tabSpace="42.5197"/>
				<v:textRect cx="11.3386" cy="178.327" width="22.68" height="22.6772"/>
				<rect x="0" y="166.988" width="22.6772" height="22.6772" class="st6"/>
				<text x="7.85" y="182.43" class="st13" v:langID="2057"><v:paragraph v:horizAlign="1"/><v:tabList/>+</text>			</g>
		</g>
		<g id="group106-295" transform="translate(159.24,-44.5984)" v:mID="106" v:groupContext="group">
			<title>Sheet.106</title>
			<g id="shape107-296" v:mID="107" v:groupContext="shape" transform="translate(134.114,1.69343) rotate(45)">
				<title>Bus (1)</title>
				<path d="M0 189.67 L6.85 189.67" class="st8"/>
			</g>
			<g id="shape108-301" v:mID="108" v:groupContext="shape" transform="translate(-115.275,11.2015) rotate(-45)">
				<title>Bus (3)</title>
				<path d="M6.24 189.67 L6.6 189.67 L13.45 189.67" class="st10"/>
			</g>
			<g id="shape109-306" v:mID="109" v:groupContext="shape" transform="translate(189.665,121.634) rotate(90)">
				<title>Bus (0)</title>
				<path d="M0 189.67 L14.17 189.67" class="st11"/>
			</g>
			<g id="shape110-309" v:mID="110" v:groupContext="shape" transform="translate(218.012,79.1142) rotate(90)">
				<title>Bus (0).2</title>
				<path d="M0 189.67 L56.69 189.67" class="st11"/>
			</g>
			<g id="shape111-312" v:mID="111" v:groupContext="shape" v:layerMember="0" transform="translate(2.83465,-22.6772)">
				<title>On-page ref</title>
				<v:custProps>
					<v:cp v:nameU="Cost" v:lbl="Cost" v:prompt="Enter the cost associated with this process." v:type="7"
							v:format="@" v:langID="2057"/>
					<v:cp v:nameU="Duration" v:lbl="Duration" v:prompt="Enter the duration of this step." v:type="2"
							v:langID="2057"/>
					<v:cp v:nameU="Resources" v:lbl="Resources"
							v:prompt="Enter the number of people required to complete this task." v:langID="2057"/>
				</v:custProps>
				<v:textBlock v:margins="rect(1,1,1,1)" v:tabSpace="42.5197"/>
				<path d="M0 178.33 A11.3386 11.3386 0 1 1 22.68 178.33 A11.3386 11.3386 0 0 1 0 178.33 Z" class="st12"/>
			</g>
			<g id="shape112-314" v:mID="112" v:groupContext="shape" transform="translate(-175.492,189.665) rotate(-90)">
				<title>Bus (3).44</title>
				<path d="M6.24 189.67 L6.6 189.67 L22.68 189.67" class="st10"/>
			</g>
			<g id="shape113-319" v:mID="113" v:groupContext="shape" transform="translate(2.83465,-22.6772)">
				<title>Sheet.113</title>
				<desc>+</desc>
				<v:textBlock v:margins="rect(1,1,0,1)" v:tabSpace="42.5197"/>
				<v:textRect cx="11.3386" cy="178.327" width="22.68" height="22.6772"/>
				<rect x="0" y="166.988" width="22.6772" height="22.6772" class="st6"/>
				<text x="7.85" y="182.43" class="st13" v:langID="2057"><v:paragraph v:horizAlign="1"/><v:tabList/>+</text>			</g>
		</g>
		<g id="group114-322" transform="translate(193.256,-44.5984)" v:mID="114" v:groupContext="group">
			<title>Sheet.114</title>
			<g id="shape115-323" v:mID="115" v:groupContext="shape" transform="translate(134.114,1.69343) rotate(45)">
				<title>Bus (1)</title>
				<path d="M0 189.67 L6.85 189.67" class="st8"/>
			</g>
			<g id="shape116-328" v:mID="116" v:groupContext="shape" transform="translate(-115.275,11.2015) rotate(-45)">
				<title>Bus (3)</title>
				<path d="M6.24 189.67 L6.6 189.67 L13.45 189.67" class="st10"/>
			</g>
			<g id="shape117-333" v:mID="117" v:groupContext="shape" transform="translate(189.665,121.634) rotate(90)">
				<title>Bus (0)</title>
				<path d="M0 189.67 L14.17 189.67" class="st11"/>
			</g>
			<g id="shape118-336" v:mID="118" v:groupContext="shape" transform="translate(218.012,79.1142) rotate(90)">
				<title>Bus (0).2</title>
				<path d="M0 189.67 L56.69 189.67" class="st11"/>
			</g>
			<g id="shape119-339" v:mID="119" v:groupContext="shape" v:layerMember="0" transform="translate(2.83465,-22.6772)">
				<title>On-page ref</title>
				<v:custProps>
					<v:cp v:nameU="Cost" v:lbl="Cost" v:prompt="Enter the cost associated with this process." v:type="7"
							v:format="@" v:langID="2057"/>
					<v:cp v:nameU="Duration" v:lbl="Duration" v:prompt="Enter the duration of this step." v:type="2"
							v:langID="2057"/>
					<v:cp v:nameU="Resources" v:lbl="Resources"
							v:prompt="Enter the number of people required to complete this task." v:langID="2057"/>
				</v:custProps>
				<v:textBlock v:margins="rect(1,1,1,1)" v:tabSpace="42.5197"/>
				<path d="M0 178.33 A11.3386 11.3386 0 1 1 22.68 178.33 A11.3386 11.3386 0 0 1 0 178.33 Z" class="st12"/>
			</g>
			<g id="shape120-341" v:mID="120" v:groupContext="shape" transform="translate(-175.492,189.665) rotate(-90)">
				<title>Bus (3).44</title>
				<path d="M6.24 189.67 L6.6 189.67 L22.68 189.67" class="st10"/>
			</g>
			<g id="shape121-346" v:mID="121" v:groupContext="shape" transform="translate(2.83465,-22.6772)">
				<title>Sheet.121</title>
				<desc>+</desc>
				<v:textBlock v:margins="rect(1,1,0,1)" v:tabSpace="42.5197"/>
				<v:textRect cx="11.3386" cy="178.327" width="22.68" height="22.6772"/>
				<rect x="0" y="166.988" width="22.6772" height="22.6772" class="st6"/>
				<text x="7.85" y="182.43" class="st13" v:langID="2057"><v:paragraph v:horizAlign="1"/><v:tabList/>+</text>			</g>
		</g>
		<g id="group122-349" transform="translate(227.272,-44.5984)" v:mID="122" v:groupContext="group">
			<title>Sheet.122</title>
			<g id="shape123-350" v:mID="123" v:groupContext="shape" transform="translate(134.114,1.69343) rotate(45)">
				<title>Bus (1)</title>
				<path d="M0 189.67 L6.85 189.67" class="st8"/>
			</g>
			<g id="shape124-355" v:mID="124" v:groupContext="shape" transform="translate(-115.275,11.2015) rotate(-45)">
				<title>Bus (3)</title>
				<path d="M6.24 189.67 L6.6 189.67 L13.45 189.67" class="st10"/>
			</g>
			<g id="shape125-360" v:mID="125" v:groupContext="shape" transform="translate(189.665,121.634) rotate(90)">
				<title>Bus (0)</title>
				<path d="M0 189.67 L14.17 189.67" class="st11"/>
			</g>
			<g id="shape126-363" v:mID="126" v:groupContext="shape" transform="translate(218.012,79.1142) rotate(90)">
				<title>Bus (0).2</title>
				<path d="M0 189.67 L56.69 189.67" class="st11"/>
			</g>
			<g id="shape127-366" v:mID="127" v:groupContext="shape" v:layerMember="0" transform="translate(2.83465,-22.6772)">
				<title>On-page ref</title>
				<v:custProps>
					<v:cp v:nameU="Cost" v:lbl="Cost" v:prompt="Enter the cost associated with this process." v:type="7"
							v:format="@" v:langID="2057"/>
					<v:cp v:nameU="Duration" v:lbl="Duration" v:prompt="Enter the duration of this step." v:type="2"
							v:langID="2057"/>
					<v:cp v:nameU="Resources" v:lbl="Resources"
							v:prompt="Enter the number of people required to complete this task." v:langID="2057"/>
				</v:custProps>
				<v:textBlock v:margins="rect(1,1,1,1)" v:tabSpace="42.5197"/>
				<path d="M0 178.33 A11.3386 11.3386 0 1 1 22.68 178.33 A11.3386 11.3386 0 0 1 0 178.33 Z" class="st12"/>
			</g>
			<g id="shape128-368" v:mID="128" v:groupContext="shape" transform="translate(-175.492,189.665) rotate(-90)">
				<title>Bus (3).44</title>
				<path d="M6.24 189.67 L6.6 189.67 L22.68 189.67" class="st10"/>
			</g>
			<g id="shape129-373" v:mID="129" v:groupContext="shape" transform="translate(2.83465,-22.6772)">
				<title>Sheet.129</title>
				<desc>+</desc>
				<v:textBlock v:margins="rect(1,1,0,1)" v:tabSpace="42.5197"/>
				<v:textRect cx="11.3386" cy="178.327" width="22.68" height="22.6772"/>
				<rect x="0" y="166.988" width="22.6772" height="22.6772" class="st6"/>
				<text x="7.85" y="182.43" class="st13" v:langID="2057"><v:paragraph v:horizAlign="1"/><v:tabList/>+</text>			</g>
		</g>
		<g id="group130-376" transform="translate(261.287,-44.5984)" v:mID="130" v:groupContext="group">
			<title>Sheet.130</title>
			<g id="shape131-377" v:mID="131" v:groupContext="shape" transform="translate(134.114,1.69343) rotate(45)">
				<title>Bus (1)</title>
				<path d="M0 189.67 L6.85 189.67" class="st8"/>
			</g>
			<g id="shape132-382" v:mID="132" v:groupContext="shape" transform="translate(-115.275,11.2015) rotate(-45)">
				<title>Bus (3)</title>
				<path d="M6.24 189.67 L6.6 189.67 L13.45 189.67" class="st10"/>
			</g>
			<g id="shape133-387" v:mID="133" v:groupContext="shape" transform="translate(189.665,121.634) rotate(90)">
				<title>Bus (0)</title>
				<path d="M0 189.67 L14.17 189.67" class="st11"/>
			</g>
			<g id="shape134-390" v:mID="134" v:groupContext="shape" transform="translate(218.012,79.1142) rotate(90)">
				<title>Bus (0).2</title>
				<path d="M0 189.67 L56.69 189.67" class="st11"/>
			</g>
			<g id="shape135-393" v:mID="135" v:groupContext="shape" v:layerMember="0" transform="translate(2.83465,-22.6772)">
				<title>On-page ref</title>
				<v:custProps>
					<v:cp v:nameU="Cost" v:lbl="Cost" v:prompt="Enter the cost associated with this process." v:type="7"
							v:format="@" v:langID="2057"/>
					<v:cp v:nameU="Duration" v:lbl="Duration" v:prompt="Enter the duration of this step." v:type="2"
							v:langID="2057"/>
					<v:cp v:nameU="Resources" v:lbl="Resources"
							v:prompt="Enter the number of people required to complete this task." v:langID="2057"/>
				</v:custProps>
				<v:textBlock v:margins="rect(1,1,1,1)" v:tabSpace="42.5197"/>
				<path d="M0 178.33 A11.3386 11.3386 0 1 1 22.68 178.33 A11.3386 11.3386 0 0 1 0 178.33 Z" class="st12"/>
			</g>
			<g id="shape136-395" v:mID="136" v:groupContext="shape" transform="translate(-175.492,189.665) rotate(-90)">
				<title>Bus (3).44</title>
				<path d="M6.24 189.67 L6.6 189.67 L22.68 189.67" class="st10"/>
			</g>
			<g id="shape137-400" v:mID="137" v:groupContext="shape" transform="translate(2.83465,-22.6772)">
				<title>Sheet.137</title>
				<desc>+</desc>
				<v:textBlock v:margins="rect(1,1,0,1)" v:tabSpace="42.5197"/>
				<v:textRect cx="11.3386" cy="178.327" width="22.68" height="22.6772"/>
				<rect x="0" y="166.988" width="22.6772" height="22.6772" class="st6"/>
				<text x="7.85" y="182.43" class="st13" v:langID="2057"><v:paragraph v:horizAlign="1"/><v:tabList/>+</text>			</g>
		</g>
		<g id="shape15-403" v:mID="15" v:groupContext="shape" transform="translate(296.72,-155.15)">
			<title>Sheet.15</title>
			<desc>Vector</desc>
			<v:textBlock v:margins="rect(1,1,1,1)" v:tabSpace="42.5197"/>
			<v:textRect cx="21.6654" cy="179.744" width="43.34" height="19.8425"/>
			<rect x="0" y="169.823" width="43.3307" height="19.8425" class="st6"/>
			<text x="1" y="182.14" class="st7" v:langID="2057"><v:paragraph/><v:tabList/>Vector</text>		</g>
		<g id="shape181-406" v:mID="181" v:groupContext="shape" transform="translate(87.7677,-24.7559)">
			<title>Sheet.181</title>
			<path d="M0 169.82 L0 189.67" class="st2"/>
		</g>
		<g id="shape182-409" v:mID="182" v:groupContext="shape" transform="translate(53.752,-24.7559)">
			<title>Sheet.182</title>
			<path d="M0 169.82 L0 189.67" class="st2"/>
		</g>
		<g id="shape183-412" v:mID="183" v:groupContext="shape" transform="translate(87.7677,-155.15)">
			<title>Sheet.183</title>
			<path d="M0 169.82 L0 189.67" class="st2"/>
		</g>
		<g id="shape184-415" v:mID="184" v:groupContext="shape" transform="translate(53.752,-155.15)">
			<title>Sheet.184</title>
			<path d="M0 169.82 L0 189.67" class="st2"/>
		</g>
		<g id="shape185-418" v:mID="185" v:groupContext="shape" transform="translate(87.7677,-112.63)">
			<title>Sheet.185</title>
			<path d="M0 169.82 L0 189.67" class="st2"/>
		</g>
		<g id="shape186-421" v:mID="186" v:groupContext="shape" transform="translate(53.752,-112.63)">
			<title>Sheet.186</title>
			<path d="M0 169.82 L0 189.67" class="st2"/>
		</g>
		<g id="shape187-424" v:mID="187" v:groupContext="shape" transform="translate(53.752,-10.5827)">
			<title>Brace</title>
			<desc>Lane</desc>
			<v:textBlock v:margins="rect(0,0,0,0)" v:tabSpace="42.5197"/>
			<v:textRect cx="17.0079" cy="195.146" width="34.02" height="10.2047"/>
			<path d="M0 178.33 L0 184 L2.83 186.83 L14.17 186.83 L17.01 189.67 L19.84 186.83 L31.18 186.83 L34.02 184 L34.02 178.33"
					class="st5"/>
			<rect v:rectContext="textBkgnd" x="7.72668" y="190.346" width="17.7968" height="9.59985" class="st14"/>
			<text x="8.1" y="197.55" class="st7" v:langID="2057"><v:paragraph v:horizAlign="1"/><v:tabList/>Lane</text>		</g>
	</g>
</svg>
