<?xml version="1.0" encoding="UTF-8"?>
<svg xmlns="http://www.w3.org/2000/svg" xmlns:xlink="http://www.w3.org/1999/xlink" width="394pt" height="89pt" viewBox="0 0 394 89" version="1.1">
<g id="surface1">
<path style="fill-rule:nonzero;fill:rgb(100%,100%,100%);fill-opacity:1;stroke-width:1;stroke-linecap:round;stroke-linejoin:round;stroke:rgb(0%,0%,0%);stroke-opacity:1;stroke-miterlimit:10;" d="M 279.402344 245.800781 C 296.464844 262.867188 296.464844 290.535156 279.402344 307.601562 C 262.335938 324.667969 234.664062 324.667969 217.597656 307.601562 C 200.535156 290.535156 200.535156 262.867188 217.597656 245.800781 C 234.664062 228.734375 262.335938 228.734375 279.402344 245.800781 " transform="matrix(1,0,0,1,-102,-232)"/>
<path style="fill-rule:nonzero;fill:rgb(69.804382%,85.098267%,100%);fill-opacity:1;stroke-width:1;stroke-linecap:round;stroke-linejoin:round;stroke:rgb(0%,0%,0%);stroke-opacity:1;stroke-miterlimit:10;" d="M 248.5 233 L 290.0625 263.195312 L 274.1875 312.054688 L 222.8125 312.054688 L 206.9375 263.195312 Z M 248.5 233 " transform="matrix(1,0,0,1,-102,-232)"/>
<path style="fill-rule:nonzero;fill:rgb(100%,100%,100%);fill-opacity:1;stroke-width:1;stroke-linecap:round;stroke-linejoin:round;stroke:rgb(0%,0%,0%);stroke-opacity:1;stroke-miterlimit:10;" d="M 482.199219 245.800781 C 499.265625 262.867188 499.265625 290.535156 482.199219 307.601562 C 465.132812 324.667969 437.464844 324.667969 420.398438 307.601562 C 403.332031 290.535156 403.332031 262.867188 420.398438 245.800781 C 437.464844 228.734375 465.132812 228.734375 482.199219 245.800781 " transform="matrix(1,0,0,1,-102,-232)"/>
<path style="fill-rule:nonzero;fill:rgb(69.804382%,85.098267%,100%);fill-opacity:1;stroke-width:1;stroke-linecap:round;stroke-linejoin:round;stroke:rgb(0%,0%,0%);stroke-opacity:1;stroke-miterlimit:10;" d="M 435.378906 236.898438 L 467.21875 236.898438 L 491.101562 260.78125 L 491.101562 292.621094 L 467.21875 316.5 L 435.378906 316.5 L 411.5 292.621094 L 411.5 260.78125 Z M 435.378906 236.898438 " transform="matrix(1,0,0,1,-102,-232)"/>
<path style="fill-rule:nonzero;fill:rgb(100%,100%,100%);fill-opacity:1;stroke-width:1;stroke-linecap:round;stroke-linejoin:round;stroke:rgb(0%,0%,0%);stroke-opacity:1;stroke-miterlimit:10;" d="M 178 245.800781 C 195.066406 262.867188 195.066406 290.535156 178 307.601562 C 160.933594 324.667969 133.265625 324.667969 116.199219 307.601562 C 99.132812 290.535156 99.132812 262.867188 116.199219 245.800781 C 133.265625 228.734375 160.933594 228.734375 178 245.800781 " transform="matrix(1,0,0,1,-102,-232)"/>
<path style=" stroke:none;fill-rule:nonzero;fill:rgb(69.804382%,85.098267%,100%);fill-opacity:1;" d="M 15 74.949219 L 75.351562 74.949219 L 75.351562 14.601562 L 15 14.601562 Z M 15 74.949219 "/>
<path style="fill:none;stroke-width:1;stroke-linecap:round;stroke-linejoin:round;stroke:rgb(0%,0%,0%);stroke-opacity:1;stroke-miterlimit:10;" d="M 117 246.601562 L 177.351562 246.601562 L 177.351562 306.949219 L 117 306.949219 Z M 117 246.601562 " transform="matrix(1,0,0,1,-102,-232)"/>
<path style="fill-rule:nonzero;fill:rgb(100%,100%,100%);fill-opacity:1;stroke-width:1;stroke-linecap:round;stroke-linejoin:round;stroke:rgb(0%,0%,0%);stroke-opacity:1;stroke-miterlimit:10;" d="M 380.800781 245.875 C 397.867188 262.941406 397.867188 290.609375 380.800781 307.675781 C 363.734375 324.742188 336.066406 324.742188 319 307.675781 C 301.933594 290.609375 301.933594 262.941406 319 245.875 C 336.066406 228.808594 363.734375 228.808594 380.800781 245.875 " transform="matrix(1,0,0,1,-102,-232)"/>
<path style="fill-rule:nonzero;fill:rgb(69.804382%,85.098267%,100%);fill-opacity:1;stroke-width:1;stroke-linecap:round;stroke-linejoin:round;stroke:rgb(0%,0%,0%);stroke-opacity:1;stroke-miterlimit:10;" d="M 306.199219 276.699219 L 328.050781 239.898438 L 371.75 239.898438 L 393.601562 276.699219 L 371.75 313.5 L 328.050781 313.5 Z M 306.199219 276.699219 " transform="matrix(1,0,0,1,-102,-232)"/>
<path style="fill:none;stroke-width:1;stroke-linecap:round;stroke-linejoin:round;stroke:rgb(0%,0%,0%);stroke-opacity:1;stroke-dasharray:2,2;stroke-miterlimit:10;" d="M 147.175781 276.773438 L 177.351562 306.925781 " transform="matrix(1,0,0,1,-102,-232)"/>
<path style="fill:none;stroke-width:1;stroke-linecap:round;stroke-linejoin:round;stroke:rgb(0%,0%,0%);stroke-opacity:1;stroke-dasharray:4,4;stroke-miterlimit:10;" d="M 177.34375 246.601562 L 177.351562 246.59375 " transform="matrix(1,0,0,1,-102,-232)"/>
<path style="fill:none;stroke-width:1;stroke-linecap:round;stroke-linejoin:round;stroke:rgb(0%,0%,0%);stroke-opacity:1;stroke-dasharray:2,2;stroke-miterlimit:10;" d="M 147.175781 276.773438 L 177.351562 246.988281 " transform="matrix(1,0,0,1,-102,-232)"/>
<path style="fill:none;stroke-width:1;stroke-linecap:round;stroke-linejoin:round;stroke:rgb(0%,0%,0%);stroke-opacity:1;stroke-dasharray:2,2;stroke-miterlimit:10;" d="M 147.175781 276.773438 L 117 246.914062 " transform="matrix(1,0,0,1,-102,-232)"/>
<path style="fill:none;stroke-width:1;stroke-linecap:round;stroke-linejoin:round;stroke:rgb(0%,0%,0%);stroke-opacity:1;stroke-dasharray:2,2;stroke-miterlimit:10;" d="M 147.175781 276.773438 L 117 306.476562 " transform="matrix(1,0,0,1,-102,-232)"/>
<path style="fill:none;stroke-width:1;stroke-linecap:round;stroke-linejoin:round;stroke:rgb(0%,0%,0%);stroke-opacity:1;stroke-dasharray:2,2;stroke-miterlimit:10;" d="M 248.5 276.699219 L 248.410156 233.074219 " transform="matrix(1,0,0,1,-102,-232)"/>
<path style="fill:none;stroke-width:1;stroke-linecap:round;stroke-linejoin:round;stroke:rgb(0%,0%,0%);stroke-opacity:1;stroke-dasharray:2,2;stroke-miterlimit:10;" d="M 248.5 276.699219 L 288.183594 264.097656 " transform="matrix(1,0,0,1,-102,-232)"/>
<path style="fill:none;stroke-width:1;stroke-linecap:round;stroke-linejoin:round;stroke:rgb(0%,0%,0%);stroke-opacity:1;stroke-dasharray:2,2;stroke-miterlimit:10;" d="M 248.5 276.699219 L 208.910156 264.378906 " transform="matrix(1,0,0,1,-102,-232)"/>
<path style="fill:none;stroke-width:1;stroke-linecap:round;stroke-linejoin:round;stroke:rgb(0%,0%,0%);stroke-opacity:1;stroke-dasharray:2,2;stroke-miterlimit:10;" d="M 273.1875 311.519531 L 248.5 276.699219 " transform="matrix(1,0,0,1,-102,-232)"/>
<path style="fill:none;stroke-width:1;stroke-linecap:round;stroke-linejoin:round;stroke:rgb(0%,0%,0%);stroke-opacity:1;stroke-dasharray:2,2;stroke-miterlimit:10;" d="M 248.5 276.699219 L 223.601562 311.800781 " transform="matrix(1,0,0,1,-102,-232)"/>
<path style="fill:none;stroke-width:1;stroke-linecap:round;stroke-linejoin:round;stroke:rgb(0%,0%,0%);stroke-opacity:1;stroke-dasharray:2,2;stroke-miterlimit:10;" d="M 349.898438 276.773438 L 328.289062 239.898438 " transform="matrix(1,0,0,1,-102,-232)"/>
<path style="fill:none;stroke-width:1;stroke-linecap:round;stroke-linejoin:round;stroke:rgb(0%,0%,0%);stroke-opacity:1;stroke-dasharray:2,2;stroke-miterlimit:10;" d="M 349.898438 276.773438 L 371.832031 239.898438 " transform="matrix(1,0,0,1,-102,-232)"/>
<path style="fill:none;stroke-width:1;stroke-linecap:round;stroke-linejoin:round;stroke:rgb(0%,0%,0%);stroke-opacity:1;stroke-dasharray:2,2;stroke-miterlimit:10;" d="M 349.898438 276.773438 L 371.3125 313.5 " transform="matrix(1,0,0,1,-102,-232)"/>
<path style="fill:none;stroke-width:1;stroke-linecap:round;stroke-linejoin:round;stroke:rgb(0%,0%,0%);stroke-opacity:1;stroke-dasharray:2,2;stroke-miterlimit:10;" d="M 349.898438 276.773438 L 328.121094 313.5 " transform="matrix(1,0,0,1,-102,-232)"/>
<path style="fill:none;stroke-width:1;stroke-linecap:round;stroke-linejoin:round;stroke:rgb(0%,0%,0%);stroke-opacity:1;stroke-dasharray:2,2;stroke-miterlimit:10;" d="M 349.898438 276.773438 L 306.199219 276.746094 " transform="matrix(1,0,0,1,-102,-232)"/>
<path style="fill:none;stroke-width:1;stroke-linecap:round;stroke-linejoin:round;stroke:rgb(0%,0%,0%);stroke-opacity:1;stroke-dasharray:2,2;stroke-miterlimit:10;" d="M 349.898438 276.773438 L 393.601562 276.769531 " transform="matrix(1,0,0,1,-102,-232)"/>
<path style="fill:none;stroke-width:1;stroke-linecap:round;stroke-linejoin:round;stroke:rgb(0%,0%,0%);stroke-opacity:1;stroke-dasharray:2,2;stroke-miterlimit:10;" d="M 451.300781 276.699219 L 466.980469 316.5 " transform="matrix(1,0,0,1,-102,-232)"/>
<path style="fill:none;stroke-width:1;stroke-linecap:round;stroke-linejoin:round;stroke:rgb(0%,0%,0%);stroke-opacity:1;stroke-dasharray:2,2;stroke-miterlimit:10;" d="M 451.300781 276.699219 L 491.101562 260.820312 " transform="matrix(1,0,0,1,-102,-232)"/>
<path style="fill:none;stroke-width:1;stroke-linecap:round;stroke-linejoin:round;stroke:rgb(0%,0%,0%);stroke-opacity:1;stroke-dasharray:2,2;stroke-miterlimit:10;" d="M 451.082031 276.699219 L 435.398438 316.5 " transform="matrix(1,0,0,1,-102,-232)"/>
<path style="fill:none;stroke-width:1;stroke-linecap:round;stroke-linejoin:round;stroke:rgb(0%,0%,0%);stroke-opacity:1;stroke-dasharray:2,2;stroke-miterlimit:10;" d="M 451.300781 276.699219 L 466.980469 236.898438 " transform="matrix(1,0,0,1,-102,-232)"/>
<path style="fill:none;stroke-width:1;stroke-linecap:round;stroke-linejoin:round;stroke:rgb(0%,0%,0%);stroke-opacity:1;stroke-dasharray:2,2;stroke-miterlimit:10;" d="M 451.082031 276.699219 L 435.398438 236.898438 " transform="matrix(1,0,0,1,-102,-232)"/>
<path style="fill:none;stroke-width:1;stroke-linecap:round;stroke-linejoin:round;stroke:rgb(0%,0%,0%);stroke-opacity:1;stroke-dasharray:2,2;stroke-miterlimit:10;" d="M 451.300781 276.699219 L 491.101562 292.582031 " transform="matrix(1,0,0,1,-102,-232)"/>
<path style="fill:none;stroke-width:1;stroke-linecap:round;stroke-linejoin:round;stroke:rgb(0%,0%,0%);stroke-opacity:1;stroke-dasharray:2,2;stroke-miterlimit:10;" d="M 451.300781 276.699219 L 411.5 260.820312 " transform="matrix(1,0,0,1,-102,-232)"/>
<path style="fill:none;stroke-width:1;stroke-linecap:round;stroke-linejoin:round;stroke:rgb(0%,0%,0%);stroke-opacity:1;stroke-dasharray:2,2;stroke-miterlimit:10;" d="M 451.300781 276.699219 L 411.5 292.582031 " transform="matrix(1,0,0,1,-102,-232)"/>
</g>
</svg>
